{
  "header": {
    "keySignatures": [
      {
        "key": "C",
        "scale": "major",
        "ticks": 0
      }
    ],
    "meta": [
      {
        "ticks": 0,
        "type": "portPrefix"
      },
      {
        "ticks": 0,
        "type": "portPrefix"
      },
      {
        "ticks": 0,
        "type": "portPrefix"
      },
      {
        "ticks": 0,
        "type": "portPrefix"
      },
      {
        "text": "Don't Sit Under The Apple Tree by Glenn Miller",
        "ticks": 0,
        "type": "marker"
      },
      {
        "text": "MIDI C.A.D. Productions Inc",
        "ticks": 0,
        "type": "marker"
      },
      {
        "text": "midicad@yahoo.com",
        "ticks": 0,
        "type": "marker"
      }
    ],
    "name": "",
    "ppq": 384,
    "tempos": [
      {
        "bpm": 180.00018000018,
        "ticks": 0
      }
    ],
    "timeSignatures": [
      {
        "ticks": 0,
        "timeSignature": [
          4,
          4
        ],
        "measures": 0
      }
    ]
  },
  "tracks": [
    {
      "channel": 0,
      "controlChanges": {
        "0": [
          {
            "number": 0,
            "ticks": 264,
            "time": 0.2291664375,
            "value": 0
          }
        ],
        "6": [
          {
            "number": 6,
            "ticks": 964,
            "time": 0.83680471875,
            "value": 0.015748031496062992
          },
          {
            "number": 6,
            "ticks": 976,
            "time": 0.8472213749999999,
            "value": 0.5039370078740157
          }
        ],
        "7": [
          {
            "number": 7,
            "ticks": 268,
            "time": 0.23263865625,
            "value": 1
          }
        ],
        "10": [
          {
            "number": 10,
            "ticks": 272,
            "time": 0.236110875,
            "value": 0.5039370078740157
          }
        ],
        "11": [
          {
            "number": 11,
            "ticks": 276,
            "time": 0.23958309375,
            "value": 1
          }
        ],
        "32": [
          {
            "number": 32,
            "ticks": 264,
            "time": 0.2291664375,
            "value": 0
          }
        ],
        "91": [
          {
            "number": 91,
            "ticks": 280,
            "time": 0.24305531249999998,
            "value": 0.7086614173228346
          }
        ],
        "93": [
          {
            "number": 93,
            "ticks": 284,
            "time": 0.24652753125000001,
            "value": 0
          }
        ],
        "100": [
          {
            "number": 100,
            "ticks": 960,
            "time": 0.8333325,
            "value": 0
          },
          {
            "number": 100,
            "ticks": 972,
            "time": 0.84374915625,
            "value": 0.015748031496062992
          },
          {
            "number": 100,
            "ticks": 984,
            "time": 0.8541658125,
            "value": 1
          }
        ],
        "101": [
          {
            "number": 101,
            "ticks": 956,
            "time": 0.82986028125,
            "value": 0
          },
          {
            "number": 101,
            "ticks": 968,
            "time": 0.8402769375,
            "value": 0
          },
          {
            "number": 101,
            "ticks": 980,
            "time": 0.85069359375,
            "value": 1
          }
        ],
        "121": [
          {
            "number": 121,
            "ticks": 192,
            "time": 0.1666665,
            "value": 0
          }
        ]
      },
      "pitchBends": [],
      "instrument": {
        "family": "piano",
        "name": "acoustic grand piano",
        "number": 0
      },
      "name": "MCPI",
      "notes": []
    },
    {
      "channel": 1,
      "controlChanges": {
        "0": [
          {
            "number": 0,
            "ticks": 296,
            "time": 0.25694418750000003,
            "value": 0
          }
        ],
        "6": [
          {
            "number": 6,
            "ticks": 996,
            "time": 0.86458246875,
            "value": 0.015748031496062992
          },
          {
            "number": 6,
            "ticks": 1008,
            "time": 0.874999125,
            "value": 0.5039370078740157
          }
        ],
        "7": [
          {
            "number": 7,
            "ticks": 300,
            "time": 0.26041640625,
            "value": 1
          }
        ],
        "10": [
          {
            "number": 10,
            "ticks": 304,
            "time": 0.263888625,
            "value": 0.48031496062992124
          }
        ],
        "11": [
          {
            "number": 11,
            "ticks": 308,
            "time": 0.26736084375,
            "value": 1
          }
        ],
        "32": [
          {
            "number": 32,
            "ticks": 296,
            "time": 0.25694418750000003,
            "value": 0
          }
        ],
        "91": [
          {
            "number": 91,
            "ticks": 312,
            "time": 0.2708330625,
            "value": 0.1732283464566929
          }
        ],
        "93": [
          {
            "number": 93,
            "ticks": 316,
            "time": 0.27430528125,
            "value": 0
          }
        ],
        "100": [
          {
            "number": 100,
            "ticks": 992,
            "time": 0.8611102500000001,
            "value": 0
          },
          {
            "number": 100,
            "ticks": 1004,
            "time": 0.8715269062500001,
            "value": 0.015748031496062992
          },
          {
            "number": 100,
            "ticks": 1016,
            "time": 0.8819435625000001,
            "value": 1
          }
        ],
        "101": [
          {
            "number": 101,
            "ticks": 988,
            "time": 0.8576380312499999,
            "value": 0
          },
          {
            "number": 101,
            "ticks": 1000,
            "time": 0.8680546874999999,
            "value": 0
          },
          {
            "number": 101,
            "ticks": 1012,
            "time": 0.8784713437499999,
            "value": 1
          }
        ],
        "121": [
          {
            "number": 121,
            "ticks": 196,
            "time": 0.17013871874999997,
            "value": 0
          }
        ]
      },
      "pitchBends": [],
      "instrument": {
        "family": "bass",
        "name": "acoustic bass",
        "number": 32
      },
      "name": "",
      "notes": [
        {
          "duration": 0.3333330000000001,
          "durationTicks": 384,
          "midi": 42,
          "name": "F#2",
          "ticks": 2882,
          "time": 2.501733609375,
          "velocity": 0.44881889763779526
        },
        {
          "duration": 0.33506910937499956,
          "durationTicks": 386,
          "midi": 42,
          "name": "F#2",
          "ticks": 3266,
          "time": 2.835066609375,
          "velocity": 0.44881889763779526
        },
        {
          "duration": 0.33159689062500064,
          "durationTicks": 382,
          "midi": 39,
          "name": "D#2",
          "ticks": 3652,
          "time": 3.1701357187499997,
          "velocity": 0.44881889763779526
        },
        {
          "duration": 0.33506910937499956,
          "durationTicks": 386,
          "midi": 37,
          "name": "C#2",
          "ticks": 4034,
          "time": 3.5017326093750003,
          "velocity": 0.4566929133858268
        },
        {
          "duration": 0.3315968906250002,
          "durationTicks": 382,
          "midi": 42,
          "name": "F#2",
          "ticks": 4420,
          "time": 3.83680171875,
          "velocity": 0.4566929133858268
        },
        {
          "duration": 0.33506910937499956,
          "durationTicks": 386,
          "midi": 42,
          "name": "F#2",
          "ticks": 4802,
          "time": 4.168398609375,
          "velocity": 0.4645669291338583
        },
        {
          "duration": 0.33159689062500064,
          "durationTicks": 382,
          "midi": 39,
          "name": "D#2",
          "ticks": 5188,
          "time": 4.50346771875,
          "velocity": 0.4645669291338583
        },
        {
          "duration": 0.33506910937499956,
          "durationTicks": 386,
          "midi": 37,
          "name": "C#2",
          "ticks": 5570,
          "time": 4.835064609375,
          "velocity": 0.4645669291338583
        },
        {
          "duration": 0.33159689062499975,
          "durationTicks": 382,
          "midi": 42,
          "name": "F#2",
          "ticks": 5956,
          "time": 5.17013371875,
          "velocity": 0.47244094488188976
        },
        {
          "duration": 0.33506910937500045,
          "durationTicks": 386,
          "midi": 42,
          "name": "F#2",
          "ticks": 6338,
          "time": 5.501730609375,
          "velocity": 0.47244094488188976
        },
        {
          "duration": 0.33159689062499975,
          "durationTicks": 382,
          "midi": 39,
          "name": "D#2",
          "ticks": 6724,
          "time": 5.83679971875,
          "velocity": 0.48031496062992124
        },
        {
          "duration": 0.33506910937500045,
          "durationTicks": 386,
          "midi": 37,
          "name": "C#2",
          "ticks": 7106,
          "time": 6.168396609375,
          "velocity": 0.48031496062992124
        },
        {
          "duration": 0.33159689062499886,
          "durationTicks": 382,
          "midi": 54,
          "name": "F#3",
          "ticks": 7492,
          "time": 6.50346571875,
          "velocity": 0.48031496062992124
        },
        {
          "duration": 0.33506910937500134,
          "durationTicks": 386,
          "midi": 54,
          "name": "F#3",
          "ticks": 7874,
          "time": 6.835062609374999,
          "velocity": 0.4881889763779528
        },
        {
          "duration": 0.33159689062499886,
          "durationTicks": 382,
          "midi": 51,
          "name": "D#3",
          "ticks": 8260,
          "time": 7.17013171875,
          "velocity": 0.4881889763779528
        },
        {
          "duration": 0.33506910937500045,
          "durationTicks": 386,
          "midi": 49,
          "name": "C#3",
          "ticks": 8642,
          "time": 7.501728609374999,
          "velocity": 0.49606299212598426
        },
        {
          "duration": 0.33159689062499975,
          "durationTicks": 382,
          "midi": 44,
          "name": "G#2",
          "ticks": 9028,
          "time": 7.83679771875,
          "velocity": 0.44881889763779526
        },
        {
          "duration": 0.33506910937500045,
          "durationTicks": 386,
          "midi": 44,
          "name": "G#2",
          "ticks": 9410,
          "time": 8.168394609375,
          "velocity": 0.44881889763779526
        },
        {
          "duration": 0.33159689062499886,
          "durationTicks": 382,
          "midi": 37,
          "name": "C#2",
          "ticks": 9796,
          "time": 8.50346371875,
          "velocity": 0.44881889763779526
        },
        {
          "duration": 0.33506910937500045,
          "durationTicks": 386,
          "midi": 37,
          "name": "C#2",
          "ticks": 10178,
          "time": 8.835060609374999,
          "velocity": 0.4566929133858268
        },
        {
          "duration": 0.33159689062500064,
          "durationTicks": 382,
          "midi": 44,
          "name": "G#2",
          "ticks": 10564,
          "time": 9.17012971875,
          "velocity": 0.4566929133858268
        },
        {
          "duration": 0.33506910937500045,
          "durationTicks": 386,
          "midi": 37,
          "name": "C#2",
          "ticks": 10946,
          "time": 9.501726609375,
          "velocity": 0.4645669291338583
        },
        {
          "duration": 0.33159689062499886,
          "durationTicks": 382,
          "midi": 39,
          "name": "D#2",
          "ticks": 11332,
          "time": 9.83679571875,
          "velocity": 0.4645669291338583
        },
        {
          "duration": 0.33506910937500045,
          "durationTicks": 386,
          "midi": 41,
          "name": "F2",
          "ticks": 11714,
          "time": 10.168392609375,
          "velocity": 0.4645669291338583
        },
        {
          "duration": 0.33159689062500064,
          "durationTicks": 382,
          "midi": 42,
          "name": "F#2",
          "ticks": 12100,
          "time": 10.50346171875,
          "velocity": 0.47244094488188976
        },
        {
          "duration": 0.3350691093749987,
          "durationTicks": 386,
          "midi": 42,
          "name": "F#2",
          "ticks": 12482,
          "time": 10.835058609375,
          "velocity": 0.47244094488188976
        },
        {
          "duration": 0.33159689062500064,
          "durationTicks": 382,
          "midi": 44,
          "name": "G#2",
          "ticks": 12868,
          "time": 11.170127718749999,
          "velocity": 0.48031496062992124
        },
        {
          "duration": 0.3350691093749987,
          "durationTicks": 386,
          "midi": 37,
          "name": "C#2",
          "ticks": 13250,
          "time": 11.501724609375,
          "velocity": 0.48031496062992124
        },
        {
          "duration": 0.3315968906250024,
          "durationTicks": 382,
          "midi": 42,
          "name": "F#2",
          "ticks": 13636,
          "time": 11.836793718749998,
          "velocity": 0.48031496062992124
        },
        {
          "duration": 0.3350691093749987,
          "durationTicks": 386,
          "midi": 43,
          "name": "G2",
          "ticks": 14018,
          "time": 12.168390609375,
          "velocity": 0.4881889763779528
        },
        {
          "duration": 0.33159689062500064,
          "durationTicks": 382,
          "midi": 43,
          "name": "G2",
          "ticks": 14404,
          "time": 12.50345971875,
          "velocity": 0.4881889763779528
        },
        {
          "duration": 0.3350691093749987,
          "durationTicks": 386,
          "midi": 43,
          "name": "G2",
          "ticks": 14786,
          "time": 12.835056609375,
          "velocity": 0.49606299212598426
        },
        {
          "duration": 0.3315968906250024,
          "durationTicks": 382,
          "midi": 42,
          "name": "F#2",
          "ticks": 15172,
          "time": 13.170125718749999,
          "velocity": 0.44881889763779526
        },
        {
          "duration": 0.3350691093749969,
          "durationTicks": 386,
          "midi": 42,
          "name": "F#2",
          "ticks": 15554,
          "time": 13.501722609375001,
          "velocity": 0.44881889763779526
        },
        {
          "duration": 0.3315968906250024,
          "durationTicks": 382,
          "midi": 39,
          "name": "D#2",
          "ticks": 15940,
          "time": 13.836791718749998,
          "velocity": 0.44881889763779526
        },
        {
          "duration": 0.3350691093749987,
          "durationTicks": 386,
          "midi": 37,
          "name": "C#2",
          "ticks": 16322,
          "time": 14.168388609375,
          "velocity": 0.4566929133858268
        },
        {
          "duration": 0.33159689062500064,
          "durationTicks": 382,
          "midi": 42,
          "name": "F#2",
          "ticks": 16708,
          "time": 14.50345771875,
          "velocity": 0.4566929133858268
        },
        {
          "duration": 0.3350691093749987,
          "durationTicks": 386,
          "midi": 51,
          "name": "D#3",
          "ticks": 17090,
          "time": 14.835054609375,
          "velocity": 0.4645669291338583
        },
        {
          "duration": 0.3315968906250024,
          "durationTicks": 382,
          "midi": 49,
          "name": "C#3",
          "ticks": 17476,
          "time": 15.170123718749998,
          "velocity": 0.4645669291338583
        },
        {
          "duration": 0.3350691093749987,
          "durationTicks": 386,
          "midi": 46,
          "name": "A#2",
          "ticks": 17858,
          "time": 15.501720609375,
          "velocity": 0.4645669291338583
        },
        {
          "duration": 0.3315968906250024,
          "durationTicks": 382,
          "midi": 42,
          "name": "F#2",
          "ticks": 18244,
          "time": 15.83678971875,
          "velocity": 0.47244094488188976
        },
        {
          "duration": 0.3350691093749951,
          "durationTicks": 386,
          "midi": 42,
          "name": "F#2",
          "ticks": 18626,
          "time": 16.168386609375002,
          "velocity": 0.47244094488188976
        },
        {
          "duration": 0.3315968906250042,
          "durationTicks": 382,
          "midi": 46,
          "name": "A#2",
          "ticks": 19012,
          "time": 16.503455718749997,
          "velocity": 0.48031496062992124
        },
        {
          "duration": 0.3350691093749987,
          "durationTicks": 386,
          "midi": 49,
          "name": "C#3",
          "ticks": 19394,
          "time": 16.835052609375,
          "velocity": 0.48031496062992124
        },
        {
          "duration": 0.33159689062500064,
          "durationTicks": 382,
          "midi": 51,
          "name": "D#3",
          "ticks": 19780,
          "time": 17.17012171875,
          "velocity": 0.48031496062992124
        },
        {
          "duration": 0.3350691093749987,
          "durationTicks": 386,
          "midi": 46,
          "name": "A#2",
          "ticks": 20162,
          "time": 17.501718609375,
          "velocity": 0.4881889763779528
        },
        {
          "duration": 0.33159689062500064,
          "durationTicks": 382,
          "midi": 43,
          "name": "G2",
          "ticks": 20548,
          "time": 17.83678771875,
          "velocity": 0.4881889763779528
        },
        {
          "duration": 0.3350691093749987,
          "durationTicks": 386,
          "midi": 39,
          "name": "D#2",
          "ticks": 20930,
          "time": 18.168384609375,
          "velocity": 0.49606299212598426
        },
        {
          "duration": 0.33159689062500064,
          "durationTicks": 382,
          "midi": 44,
          "name": "G#2",
          "ticks": 21316,
          "time": 18.50345371875,
          "velocity": 0.44881889763779526
        },
        {
          "duration": 0.3350691093749987,
          "durationTicks": 386,
          "midi": 44,
          "name": "G#2",
          "ticks": 21698,
          "time": 18.835050609375,
          "velocity": 0.44881889763779526
        },
        {
          "duration": 0.33159689062500064,
          "durationTicks": 382,
          "midi": 47,
          "name": "B2",
          "ticks": 22084,
          "time": 19.170119718749998,
          "velocity": 0.4566929133858268
        },
        {
          "duration": 0.3350691093749987,
          "durationTicks": 386,
          "midi": 51,
          "name": "D#3",
          "ticks": 22466,
          "time": 19.501716609375,
          "velocity": 0.4566929133858268
        },
        {
          "duration": 0.3315968906250042,
          "durationTicks": 382,
          "midi": 49,
          "name": "C#3",
          "ticks": 22852,
          "time": 19.836785718749997,
          "velocity": 0.4645669291338583
        },
        {
          "duration": 0.3350691093749987,
          "durationTicks": 386,
          "midi": 44,
          "name": "G#2",
          "ticks": 23234,
          "time": 20.168382609375,
          "velocity": 0.4645669291338583
        },
        {
          "duration": 0.33159689062500064,
          "durationTicks": 382,
          "midi": 41,
          "name": "F2",
          "ticks": 23620,
          "time": 20.50345171875,
          "velocity": 0.47244094488188976
        },
        {
          "duration": 0.3350691093749987,
          "durationTicks": 386,
          "midi": 44,
          "name": "G#2",
          "ticks": 24002,
          "time": 20.835048609375,
          "velocity": 0.47244094488188976
        },
        {
          "duration": 0.3315968906249971,
          "durationTicks": 382,
          "midi": 42,
          "name": "F#2",
          "ticks": 24388,
          "time": 21.17011771875,
          "velocity": 0.48031496062992124
        },
        {
          "duration": 0.3350691093750058,
          "durationTicks": 386,
          "midi": 42,
          "name": "F#2",
          "ticks": 24770,
          "time": 21.501714609374996,
          "velocity": 0.48031496062992124
        },
        {
          "duration": 0.3315968906249971,
          "durationTicks": 382,
          "midi": 49,
          "name": "C#3",
          "ticks": 25156,
          "time": 21.836783718750002,
          "velocity": 0.4881889763779528
        },
        {
          "duration": 0.3350691093750022,
          "durationTicks": 386,
          "midi": 46,
          "name": "A#2",
          "ticks": 25538,
          "time": 22.168380609375,
          "velocity": 0.4881889763779528
        },
        {
          "duration": 0.27430528124999753,
          "durationTicks": 316,
          "midi": 45,
          "name": "A2",
          "ticks": 25924,
          "time": 22.50344971875,
          "velocity": 0.49606299212598426
        },
        {
          "duration": 0.3315968906249971,
          "durationTicks": 382,
          "midi": 50,
          "name": "D3",
          "ticks": 27460,
          "time": 23.83678171875,
          "velocity": 0.44881889763779526
        },
        {
          "duration": 0.3350691093750022,
          "durationTicks": 386,
          "midi": 50,
          "name": "D3",
          "ticks": 27842,
          "time": 24.168378609374997,
          "velocity": 0.44881889763779526
        },
        {
          "duration": 0.3315968906249971,
          "durationTicks": 382,
          "midi": 54,
          "name": "F#3",
          "ticks": 28228,
          "time": 24.50344771875,
          "velocity": 0.44881889763779526
        },
        {
          "duration": 0.3350691093750058,
          "durationTicks": 386,
          "midi": 54,
          "name": "F#3",
          "ticks": 28610,
          "time": 24.835044609374997,
          "velocity": 0.4566929133858268
        },
        {
          "duration": 0.3315968906249971,
          "durationTicks": 382,
          "midi": 55,
          "name": "G3",
          "ticks": 28996,
          "time": 25.170113718750002,
          "velocity": 0.4566929133858268
        },
        {
          "duration": 0.3350691093750022,
          "durationTicks": 386,
          "midi": 50,
          "name": "D3",
          "ticks": 29378,
          "time": 25.501710609375,
          "velocity": 0.4645669291338583
        },
        {
          "duration": 0.3315968906249971,
          "durationTicks": 382,
          "midi": 47,
          "name": "B2",
          "ticks": 29764,
          "time": 25.83677971875,
          "velocity": 0.4645669291338583
        },
        {
          "duration": 0.3350691093750022,
          "durationTicks": 386,
          "midi": 43,
          "name": "G2",
          "ticks": 30146,
          "time": 26.168376609375,
          "velocity": 0.4645669291338583
        },
        {
          "duration": 0.3315968906249971,
          "durationTicks": 382,
          "midi": 45,
          "name": "A2",
          "ticks": 30532,
          "time": 26.50344571875,
          "velocity": 0.47244094488188976
        },
        {
          "duration": 0.3350691093750022,
          "durationTicks": 386,
          "midi": 45,
          "name": "A2",
          "ticks": 30914,
          "time": 26.835042609374998,
          "velocity": 0.47244094488188976
        },
        {
          "duration": 0.3315968906249971,
          "durationTicks": 382,
          "midi": 49,
          "name": "C#3",
          "ticks": 31300,
          "time": 27.17011171875,
          "velocity": 0.48031496062992124
        },
        {
          "duration": 0.3350691093750022,
          "durationTicks": 386,
          "midi": 49,
          "name": "C#3",
          "ticks": 31682,
          "time": 27.501708609374997,
          "velocity": 0.48031496062992124
        },
        {
          "duration": 0.3315968906249971,
          "durationTicks": 382,
          "midi": 50,
          "name": "D3",
          "ticks": 32068,
          "time": 27.83677771875,
          "velocity": 0.48031496062992124
        },
        {
          "duration": 0.3350691093750058,
          "durationTicks": 386,
          "midi": 45,
          "name": "A2",
          "ticks": 32450,
          "time": 28.168374609374997,
          "velocity": 0.4881889763779528
        },
        {
          "duration": 0.33159689062499353,
          "durationTicks": 382,
          "midi": 42,
          "name": "F#2",
          "ticks": 32836,
          "time": 28.503443718750002,
          "velocity": 0.4881889763779528
        },
        {
          "duration": 0.3350691093750058,
          "durationTicks": 386,
          "midi": 38,
          "name": "D2",
          "ticks": 33218,
          "time": 28.835040609374996,
          "velocity": 0.49606299212598426
        },
        {
          "duration": 0.3315968906249971,
          "durationTicks": 382,
          "midi": 52,
          "name": "E3",
          "ticks": 33604,
          "time": 29.170109718750002,
          "velocity": 0.44881889763779526
        },
        {
          "duration": 0.3350691093750022,
          "durationTicks": 386,
          "midi": 47,
          "name": "B2",
          "ticks": 33986,
          "time": 29.501706609375,
          "velocity": 0.44881889763779526
        },
        {
          "duration": 0.3315968906249971,
          "durationTicks": 382,
          "midi": 44,
          "name": "G#2",
          "ticks": 34372,
          "time": 29.83677571875,
          "velocity": 0.44881889763779526
        },
        {
          "duration": 0.3350691093750022,
          "durationTicks": 386,
          "midi": 47,
          "name": "B2",
          "ticks": 34754,
          "time": 30.168372609374998,
          "velocity": 0.4566929133858268
        },
        {
          "duration": 0.3315968906249971,
          "durationTicks": 382,
          "midi": 52,
          "name": "E3",
          "ticks": 35140,
          "time": 30.50344171875,
          "velocity": 0.4566929133858268
        },
        {
          "duration": 0.3350691093750022,
          "durationTicks": 386,
          "midi": 47,
          "name": "B2",
          "ticks": 35522,
          "time": 30.835038609374998,
          "velocity": 0.4645669291338583
        },
        {
          "duration": 0.3315968906249971,
          "durationTicks": 382,
          "midi": 44,
          "name": "G#2",
          "ticks": 35908,
          "time": 31.17010771875,
          "velocity": 0.4645669291338583
        },
        {
          "duration": 0.3350691093750022,
          "durationTicks": 386,
          "midi": 40,
          "name": "E2",
          "ticks": 36290,
          "time": 31.501704609374997,
          "velocity": 0.4645669291338583
        },
        {
          "duration": 0.1579859531249994,
          "durationTicks": 182,
          "midi": 45,
          "name": "A2",
          "ticks": 36676,
          "time": 31.83677371875,
          "velocity": 0.47244094488188976
        },
        {
          "duration": 0.5538188906249957,
          "durationTicks": 638,
          "midi": 39,
          "name": "D#2",
          "ticks": 37444,
          "time": 32.50343971875,
          "velocity": 0.48031496062992124
        },
        {
          "duration": 0.1475692968749982,
          "durationTicks": 170,
          "midi": 38,
          "name": "D2",
          "ticks": 38082,
          "time": 33.057258609375,
          "velocity": 0.48031496062992124
        },
        {
          "duration": 0.1093748906249985,
          "durationTicks": 126,
          "midi": 45,
          "name": "A2",
          "ticks": 38468,
          "time": 33.392327718749996,
          "velocity": 0.4881889763779528
        },
        {
          "duration": 0.22222200000000214,
          "durationTicks": 256,
          "midi": 43,
          "name": "G2",
          "ticks": 38594,
          "time": 33.501702609374995,
          "velocity": 0.4881889763779528
        },
        {
          "duration": 0.1475692968749982,
          "durationTicks": 170,
          "midi": 42,
          "name": "F#2",
          "ticks": 38850,
          "time": 33.723924609375,
          "velocity": 0.4881889763779528
        },
        {
          "duration": 0.1475692968750053,
          "durationTicks": 170,
          "midi": 40,
          "name": "E2",
          "ticks": 39236,
          "time": 34.058993718749996,
          "velocity": 0.49606299212598426
        },
        {
          "duration": 0.33159689062500064,
          "durationTicks": 382,
          "midi": 38,
          "name": "D2",
          "ticks": 39748,
          "time": 34.50343771875,
          "velocity": 0.44881889763779526
        },
        {
          "duration": 0.3350691093749987,
          "durationTicks": 386,
          "midi": 45,
          "name": "A2",
          "ticks": 40130,
          "time": 34.835034609375,
          "velocity": 0.44881889763779526
        },
        {
          "duration": 0.33159689062500064,
          "durationTicks": 382,
          "midi": 42,
          "name": "F#2",
          "ticks": 40516,
          "time": 35.17010371875,
          "velocity": 0.44881889763779526
        },
        {
          "duration": 0.3350691093749987,
          "durationTicks": 386,
          "midi": 43,
          "name": "G2",
          "ticks": 40898,
          "time": 35.501700609375,
          "velocity": 0.4566929133858268
        },
        {
          "duration": 0.33159689062500064,
          "durationTicks": 382,
          "midi": 45,
          "name": "A2",
          "ticks": 41284,
          "time": 35.83676971875,
          "velocity": 0.4566929133858268
        },
        {
          "duration": 0.3350691093749987,
          "durationTicks": 386,
          "midi": 47,
          "name": "B2",
          "ticks": 41666,
          "time": 36.168366609375,
          "velocity": 0.4645669291338583
        },
        {
          "duration": 0.33159689062500064,
          "durationTicks": 382,
          "midi": 49,
          "name": "C#3",
          "ticks": 42052,
          "time": 36.50343571875,
          "velocity": 0.4645669291338583
        },
        {
          "duration": 0.3350691093749987,
          "durationTicks": 386,
          "midi": 52,
          "name": "E3",
          "ticks": 42434,
          "time": 36.835032609375,
          "velocity": 0.4645669291338583
        },
        {
          "duration": 0.33159689062500064,
          "durationTicks": 382,
          "midi": 50,
          "name": "D3",
          "ticks": 42820,
          "time": 37.17010171875,
          "velocity": 0.47244094488188976
        },
        {
          "duration": 0.3350691093750058,
          "durationTicks": 386,
          "midi": 45,
          "name": "A2",
          "ticks": 43202,
          "time": 37.501698609375,
          "velocity": 0.47244094488188976
        },
        {
          "duration": 0.33159689062499353,
          "durationTicks": 382,
          "midi": 43,
          "name": "G2",
          "ticks": 43588,
          "time": 37.836767718750004,
          "velocity": 0.48031496062992124
        },
        {
          "duration": 0.3350691093750058,
          "durationTicks": 386,
          "midi": 45,
          "name": "A2",
          "ticks": 43970,
          "time": 38.168364609375,
          "velocity": 0.48031496062992124
        },
        {
          "duration": 0.33159689062499353,
          "durationTicks": 382,
          "midi": 38,
          "name": "D2",
          "ticks": 44356,
          "time": 38.50343371875,
          "velocity": 0.48031496062992124
        },
        {
          "duration": 0.3350691093750058,
          "durationTicks": 386,
          "midi": 40,
          "name": "E2",
          "ticks": 44738,
          "time": 38.835030609374996,
          "velocity": 0.4881889763779528
        },
        {
          "duration": 0.33159689062499353,
          "durationTicks": 382,
          "midi": 42,
          "name": "F#2",
          "ticks": 45124,
          "time": 39.17009971875,
          "velocity": 0.4881889763779528
        },
        {
          "duration": 0.3350691093750058,
          "durationTicks": 386,
          "midi": 45,
          "name": "A2",
          "ticks": 45506,
          "time": 39.501696609374996,
          "velocity": 0.49606299212598426
        },
        {
          "duration": 0.33159689062499353,
          "durationTicks": 382,
          "midi": 48,
          "name": "C3",
          "ticks": 45892,
          "time": 39.83676571875,
          "velocity": 0.44881889763779526
        },
        {
          "duration": 0.3350691093750058,
          "durationTicks": 386,
          "midi": 48,
          "name": "C3",
          "ticks": 46274,
          "time": 40.168362609374995,
          "velocity": 0.44881889763779526
        },
        {
          "duration": 0.33159689062499353,
          "durationTicks": 382,
          "midi": 47,
          "name": "B2",
          "ticks": 46660,
          "time": 40.50343171875,
          "velocity": 0.44881889763779526
        },
        {
          "duration": 0.3350691093750058,
          "durationTicks": 386,
          "midi": 47,
          "name": "B2",
          "ticks": 47042,
          "time": 40.835028609374994,
          "velocity": 0.4566929133858268
        },
        {
          "duration": 0.33159689062500064,
          "durationTicks": 382,
          "midi": 46,
          "name": "A#2",
          "ticks": 47428,
          "time": 41.17009771875,
          "velocity": 0.4566929133858268
        },
        {
          "duration": 0.3350691093749987,
          "durationTicks": 386,
          "midi": 46,
          "name": "A#2",
          "ticks": 47810,
          "time": 41.501694609375,
          "velocity": 0.4645669291338583
        },
        {
          "duration": 0.33159689062500064,
          "durationTicks": 382,
          "midi": 45,
          "name": "A2",
          "ticks": 48196,
          "time": 41.83676371875,
          "velocity": 0.4645669291338583
        },
        {
          "duration": 0.3350691093749987,
          "durationTicks": 386,
          "midi": 49,
          "name": "C#3",
          "ticks": 48578,
          "time": 42.168360609375,
          "velocity": 0.4645669291338583
        },
        {
          "duration": 0.33159689062500064,
          "durationTicks": 382,
          "midi": 50,
          "name": "D3",
          "ticks": 48964,
          "time": 42.50342971875,
          "velocity": 0.47244094488188976
        },
        {
          "duration": 0.3350691093749987,
          "durationTicks": 386,
          "midi": 50,
          "name": "D3",
          "ticks": 49346,
          "time": 42.835026609375,
          "velocity": 0.47244094488188976
        },
        {
          "duration": 0.33159689062500064,
          "durationTicks": 382,
          "midi": 45,
          "name": "A2",
          "ticks": 49732,
          "time": 43.17009571875,
          "velocity": 0.48031496062992124
        },
        {
          "duration": 0.3350691093749987,
          "durationTicks": 386,
          "midi": 45,
          "name": "A2",
          "ticks": 50114,
          "time": 43.501692609375,
          "velocity": 0.48031496062992124
        },
        {
          "duration": 0.33159689062500775,
          "durationTicks": 382,
          "midi": 38,
          "name": "D2",
          "ticks": 50500,
          "time": 43.83676171875,
          "velocity": 0.48031496062992124
        },
        {
          "duration": 0.33506910937499157,
          "durationTicks": 386,
          "midi": 39,
          "name": "D#2",
          "ticks": 50882,
          "time": 44.168358609375005,
          "velocity": 0.4881889763779528
        },
        {
          "duration": 0.33159689062500775,
          "durationTicks": 382,
          "midi": 39,
          "name": "D#2",
          "ticks": 51268,
          "time": 44.50342771875,
          "velocity": 0.4881889763779528
        },
        {
          "duration": 0.33506910937499157,
          "durationTicks": 386,
          "midi": 39,
          "name": "D#2",
          "ticks": 51650,
          "time": 44.835024609375004,
          "velocity": 0.49606299212598426
        },
        {
          "duration": 0.33159689062500775,
          "durationTicks": 382,
          "midi": 38,
          "name": "D2",
          "ticks": 52036,
          "time": 45.170093718749996,
          "velocity": 0.44881889763779526
        },
        {
          "duration": 0.33506910937499157,
          "durationTicks": 386,
          "midi": 45,
          "name": "A2",
          "ticks": 52418,
          "time": 45.501690609375004,
          "velocity": 0.44881889763779526
        },
        {
          "duration": 0.33159689062500775,
          "durationTicks": 382,
          "midi": 42,
          "name": "F#2",
          "ticks": 52804,
          "time": 45.836759718749995,
          "velocity": 0.44881889763779526
        },
        {
          "duration": 0.33506910937499157,
          "durationTicks": 386,
          "midi": 45,
          "name": "A2",
          "ticks": 53186,
          "time": 46.168356609375,
          "velocity": 0.4566929133858268
        },
        {
          "duration": 0.33159689062500775,
          "durationTicks": 382,
          "midi": 50,
          "name": "D3",
          "ticks": 53572,
          "time": 46.503425718749995,
          "velocity": 0.4566929133858268
        },
        {
          "duration": 0.33506910937499157,
          "durationTicks": 386,
          "midi": 38,
          "name": "D2",
          "ticks": 53954,
          "time": 46.835022609375,
          "velocity": 0.4645669291338583
        },
        {
          "duration": 0.33159689062500775,
          "durationTicks": 382,
          "midi": 42,
          "name": "F#2",
          "ticks": 54340,
          "time": 47.170091718749994,
          "velocity": 0.4645669291338583
        },
        {
          "duration": 0.33506910937499157,
          "durationTicks": 386,
          "midi": 45,
          "name": "A2",
          "ticks": 54722,
          "time": 47.501688609375,
          "velocity": 0.4645669291338583
        },
        {
          "duration": 0.33159689062500775,
          "durationTicks": 382,
          "midi": 50,
          "name": "D3",
          "ticks": 55108,
          "time": 47.83675771874999,
          "velocity": 0.47244094488188976
        },
        {
          "duration": 0.33506910937499157,
          "durationTicks": 386,
          "midi": 50,
          "name": "D3",
          "ticks": 55490,
          "time": 48.168354609375,
          "velocity": 0.47244094488188976
        },
        {
          "duration": 0.33159689062500775,
          "durationTicks": 382,
          "midi": 43,
          "name": "G2",
          "ticks": 55876,
          "time": 48.50342371874999,
          "velocity": 0.48031496062992124
        },
        {
          "duration": 0.33506910937499157,
          "durationTicks": 386,
          "midi": 42,
          "name": "F#2",
          "ticks": 56258,
          "time": 48.835020609375,
          "velocity": 0.48031496062992124
        },
        {
          "duration": 0.33159689062500775,
          "durationTicks": 382,
          "midi": 47,
          "name": "B2",
          "ticks": 56644,
          "time": 49.17008971874999,
          "velocity": 0.48031496062992124
        },
        {
          "duration": 0.3350691093749987,
          "durationTicks": 386,
          "midi": 42,
          "name": "F#2",
          "ticks": 57026,
          "time": 49.501686609375,
          "velocity": 0.4881889763779528
        },
        {
          "duration": 0.33159689062500064,
          "durationTicks": 382,
          "midi": 39,
          "name": "D#2",
          "ticks": 57412,
          "time": 49.83675571875,
          "velocity": 0.4881889763779528
        },
        {
          "duration": 0.3350691093749987,
          "durationTicks": 386,
          "midi": 35,
          "name": "B1",
          "ticks": 57794,
          "time": 50.168352609375,
          "velocity": 0.49606299212598426
        },
        {
          "duration": 0.33159689062500064,
          "durationTicks": 382,
          "midi": 40,
          "name": "E2",
          "ticks": 58180,
          "time": 50.50342171875,
          "velocity": 0.44881889763779526
        },
        {
          "duration": 0.3350691093749987,
          "durationTicks": 386,
          "midi": 47,
          "name": "B2",
          "ticks": 58562,
          "time": 50.835018609375,
          "velocity": 0.44881889763779526
        },
        {
          "duration": 0.33159689062500775,
          "durationTicks": 382,
          "midi": 43,
          "name": "G2",
          "ticks": 58948,
          "time": 51.17008771875,
          "velocity": 0.44881889763779526
        },
        {
          "duration": 0.33506910937499157,
          "durationTicks": 386,
          "midi": 40,
          "name": "E2",
          "ticks": 59330,
          "time": 51.501684609375005,
          "velocity": 0.4566929133858268
        },
        {
          "duration": 0.33159689062500775,
          "durationTicks": 382,
          "midi": 45,
          "name": "A2",
          "ticks": 59716,
          "time": 51.836753718749996,
          "velocity": 0.4566929133858268
        },
        {
          "duration": 0.33506910937499157,
          "durationTicks": 386,
          "midi": 40,
          "name": "E2",
          "ticks": 60098,
          "time": 52.168350609375004,
          "velocity": 0.4645669291338583
        },
        {
          "duration": 0.33159689062500775,
          "durationTicks": 382,
          "midi": 37,
          "name": "C#2",
          "ticks": 60484,
          "time": 52.503419718749996,
          "velocity": 0.4645669291338583
        },
        {
          "duration": 0.33506910937499157,
          "durationTicks": 386,
          "midi": 40,
          "name": "E2",
          "ticks": 60866,
          "time": 52.835016609375,
          "velocity": 0.4645669291338583
        },
        {
          "duration": 0.33159689062500775,
          "durationTicks": 382,
          "midi": 45,
          "name": "A2",
          "ticks": 61252,
          "time": 53.170085718749995,
          "velocity": 0.47244094488188976
        },
        {
          "duration": 0.33506910937499157,
          "durationTicks": 386,
          "midi": 45,
          "name": "A2",
          "ticks": 61634,
          "time": 53.501682609375,
          "velocity": 0.47244094488188976
        },
        {
          "duration": 0.33159689062500775,
          "durationTicks": 382,
          "midi": 42,
          "name": "F#2",
          "ticks": 62020,
          "time": 53.836751718749994,
          "velocity": 0.48031496062992124
        },
        {
          "duration": 0.33506910937499157,
          "durationTicks": 386,
          "midi": 42,
          "name": "F#2",
          "ticks": 62402,
          "time": 54.168348609375,
          "velocity": 0.48031496062992124
        },
        {
          "duration": 0.33159689062500775,
          "durationTicks": 382,
          "midi": 40,
          "name": "E2",
          "ticks": 62788,
          "time": 54.50341771874999,
          "velocity": 0.48031496062992124
        },
        {
          "duration": 0.33506910937499157,
          "durationTicks": 386,
          "midi": 40,
          "name": "E2",
          "ticks": 63170,
          "time": 54.835014609375,
          "velocity": 0.4881889763779528
        },
        {
          "duration": 0.33159689062500775,
          "durationTicks": 382,
          "midi": 39,
          "name": "D#2",
          "ticks": 63556,
          "time": 55.17008371874999,
          "velocity": 0.4881889763779528
        },
        {
          "duration": 0.33506910937499157,
          "durationTicks": 386,
          "midi": 39,
          "name": "D#2",
          "ticks": 63938,
          "time": 55.501680609375,
          "velocity": 0.49606299212598426
        },
        {
          "duration": 0.33159689062500775,
          "durationTicks": 382,
          "midi": 38,
          "name": "D2",
          "ticks": 64324,
          "time": 55.83674971874999,
          "velocity": 0.44881889763779526
        },
        {
          "duration": 0.3350691093749987,
          "durationTicks": 386,
          "midi": 38,
          "name": "D2",
          "ticks": 64706,
          "time": 56.168346609375,
          "velocity": 0.44881889763779526
        },
        {
          "duration": 0.33159689062500064,
          "durationTicks": 382,
          "midi": 42,
          "name": "F#2",
          "ticks": 65092,
          "time": 56.50341571875,
          "velocity": 0.44881889763779526
        },
        {
          "duration": 0.3350691093749987,
          "durationTicks": 386,
          "midi": 43,
          "name": "G2",
          "ticks": 65474,
          "time": 56.835012609375,
          "velocity": 0.4566929133858268
        },
        {
          "duration": 0.33159689062500064,
          "durationTicks": 382,
          "midi": 45,
          "name": "A2",
          "ticks": 65860,
          "time": 57.17008171875,
          "velocity": 0.4566929133858268
        },
        {
          "duration": 0.3350691093749987,
          "durationTicks": 386,
          "midi": 50,
          "name": "D3",
          "ticks": 66242,
          "time": 57.501678609375,
          "velocity": 0.4645669291338583
        },
        {
          "duration": 0.33159689062500775,
          "durationTicks": 382,
          "midi": 45,
          "name": "A2",
          "ticks": 66628,
          "time": 57.83674771875,
          "velocity": 0.4645669291338583
        },
        {
          "duration": 0.33506910937499157,
          "durationTicks": 386,
          "midi": 49,
          "name": "C#3",
          "ticks": 67010,
          "time": 58.168344609375005,
          "velocity": 0.4645669291338583
        },
        {
          "duration": 0.33159689062500775,
          "durationTicks": 382,
          "midi": 50,
          "name": "D3",
          "ticks": 67396,
          "time": 58.50341371875,
          "velocity": 0.47244094488188976
        },
        {
          "duration": 0.33506910937499157,
          "durationTicks": 386,
          "midi": 50,
          "name": "D3",
          "ticks": 67778,
          "time": 58.835010609375004,
          "velocity": 0.47244094488188976
        },
        {
          "duration": 0.33159689062500775,
          "durationTicks": 382,
          "midi": 45,
          "name": "A2",
          "ticks": 68164,
          "time": 59.170079718749996,
          "velocity": 0.48031496062992124
        },
        {
          "duration": 0.33506910937499157,
          "durationTicks": 386,
          "midi": 45,
          "name": "A2",
          "ticks": 68546,
          "time": 59.501676609375004,
          "velocity": 0.48031496062992124
        },
        {
          "duration": 0.33159689062500775,
          "durationTicks": 382,
          "midi": 38,
          "name": "D2",
          "ticks": 68932,
          "time": 59.836745718749995,
          "velocity": 0.48031496062992124
        },
        {
          "duration": 0.33506910937499157,
          "durationTicks": 386,
          "midi": 40,
          "name": "E2",
          "ticks": 69314,
          "time": 60.168342609375,
          "velocity": 0.4881889763779528
        },
        {
          "duration": 0.33159689062500775,
          "durationTicks": 382,
          "midi": 42,
          "name": "F#2",
          "ticks": 69700,
          "time": 60.503411718749994,
          "velocity": 0.4881889763779528
        },
        {
          "duration": 0.33506910937499157,
          "durationTicks": 386,
          "midi": 45,
          "name": "A2",
          "ticks": 70082,
          "time": 60.835008609375,
          "velocity": 0.49606299212598426
        },
        {
          "duration": 0.33159689062500775,
          "durationTicks": 382,
          "midi": 48,
          "name": "C3",
          "ticks": 70468,
          "time": 61.170077718749994,
          "velocity": 0.44881889763779526
        },
        {
          "duration": 0.33506910937499157,
          "durationTicks": 386,
          "midi": 48,
          "name": "C3",
          "ticks": 70850,
          "time": 61.501674609375,
          "velocity": 0.44881889763779526
        },
        {
          "duration": 0.33159689062500775,
          "durationTicks": 382,
          "midi": 47,
          "name": "B2",
          "ticks": 71236,
          "time": 61.83674371874999,
          "velocity": 0.44881889763779526
        },
        {
          "duration": 0.33506910937499157,
          "durationTicks": 386,
          "midi": 47,
          "name": "B2",
          "ticks": 71618,
          "time": 62.168340609375,
          "velocity": 0.4566929133858268
        },
        {
          "duration": 0.33159689062500775,
          "durationTicks": 382,
          "midi": 46,
          "name": "A#2",
          "ticks": 72004,
          "time": 62.50340971874999,
          "velocity": 0.4566929133858268
        },
        {
          "duration": 0.33506910937499157,
          "durationTicks": 386,
          "midi": 46,
          "name": "A#2",
          "ticks": 72386,
          "time": 62.835006609375,
          "velocity": 0.4645669291338583
        },
        {
          "duration": 0.33159689062500775,
          "durationTicks": 382,
          "midi": 45,
          "name": "A2",
          "ticks": 72772,
          "time": 63.17007571874999,
          "velocity": 0.4645669291338583
        },
        {
          "duration": 0.3350691093749987,
          "durationTicks": 386,
          "midi": 45,
          "name": "A2",
          "ticks": 73154,
          "time": 63.501672609375,
          "velocity": 0.4645669291338583
        },
        {
          "duration": 0.33159689062500064,
          "durationTicks": 382,
          "midi": 50,
          "name": "D3",
          "ticks": 73540,
          "time": 63.83674171875,
          "velocity": 0.47244094488188976
        },
        {
          "duration": 0.3350691093749987,
          "durationTicks": 386,
          "midi": 50,
          "name": "D3",
          "ticks": 73922,
          "time": 64.168338609375,
          "velocity": 0.47244094488188976
        },
        {
          "duration": 0.33159689062500775,
          "durationTicks": 382,
          "midi": 45,
          "name": "A2",
          "ticks": 74308,
          "time": 64.50340771875,
          "velocity": 0.48031496062992124
        },
        {
          "duration": 0.33506910937498446,
          "durationTicks": 386,
          "midi": 45,
          "name": "A2",
          "ticks": 74690,
          "time": 64.835004609375,
          "velocity": 0.48031496062992124
        },
        {
          "duration": 0.33159689062500775,
          "durationTicks": 382,
          "midi": 38,
          "name": "D2",
          "ticks": 75076,
          "time": 65.17007371874999,
          "velocity": 0.48031496062992124
        },
        {
          "duration": 0.3350691093749987,
          "durationTicks": 386,
          "midi": 39,
          "name": "D#2",
          "ticks": 75458,
          "time": 65.501670609375,
          "velocity": 0.4881889763779528
        },
        {
          "duration": 0.33159689062500775,
          "durationTicks": 382,
          "midi": 39,
          "name": "D#2",
          "ticks": 75844,
          "time": 65.83673971875,
          "velocity": 0.4881889763779528
        },
        {
          "duration": 0.33506910937498446,
          "durationTicks": 386,
          "midi": 39,
          "name": "D#2",
          "ticks": 76226,
          "time": 66.168336609375,
          "velocity": 0.49606299212598426
        },
        {
          "duration": 0.33159689062500775,
          "durationTicks": 382,
          "midi": 38,
          "name": "D2",
          "ticks": 76612,
          "time": 66.50340571874999,
          "velocity": 0.44881889763779526
        },
        {
          "duration": 0.3350691093749987,
          "durationTicks": 386,
          "midi": 45,
          "name": "A2",
          "ticks": 76994,
          "time": 66.835002609375,
          "velocity": 0.44881889763779526
        },
        {
          "duration": 0.33159689062500775,
          "durationTicks": 382,
          "midi": 42,
          "name": "F#2",
          "ticks": 77380,
          "time": 67.17007171875,
          "velocity": 0.44881889763779526
        },
        {
          "duration": 0.3350691093749987,
          "durationTicks": 386,
          "midi": 45,
          "name": "A2",
          "ticks": 77762,
          "time": 67.501668609375,
          "velocity": 0.4566929133858268
        },
        {
          "duration": 0.33159689062499353,
          "durationTicks": 382,
          "midi": 50,
          "name": "D3",
          "ticks": 78148,
          "time": 67.83673771875,
          "velocity": 0.4566929133858268
        },
        {
          "duration": 0.3350691093749987,
          "durationTicks": 386,
          "midi": 45,
          "name": "A2",
          "ticks": 78530,
          "time": 68.168334609375,
          "velocity": 0.4645669291338583
        },
        {
          "duration": 0.33159689062500775,
          "durationTicks": 382,
          "midi": 42,
          "name": "F#2",
          "ticks": 78916,
          "time": 68.50340371875,
          "velocity": 0.4645669291338583
        },
        {
          "duration": 0.3350691093749987,
          "durationTicks": 386,
          "midi": 45,
          "name": "A2",
          "ticks": 79298,
          "time": 68.835000609375,
          "velocity": 0.4645669291338583
        },
        {
          "duration": 0.33159689062500775,
          "durationTicks": 382,
          "midi": 38,
          "name": "D2",
          "ticks": 79684,
          "time": 69.17006971875,
          "velocity": 0.47244094488188976
        },
        {
          "duration": 0.33506910937498446,
          "durationTicks": 386,
          "midi": 42,
          "name": "F#2",
          "ticks": 80066,
          "time": 69.50166660937501,
          "velocity": 0.47244094488188976
        },
        {
          "duration": 0.33159689062500775,
          "durationTicks": 382,
          "midi": 43,
          "name": "G2",
          "ticks": 80452,
          "time": 69.83673571874999,
          "velocity": 0.48031496062992124
        },
        {
          "duration": 0.3350691093749987,
          "durationTicks": 386,
          "midi": 45,
          "name": "A2",
          "ticks": 80834,
          "time": 70.168332609375,
          "velocity": 0.48031496062992124
        },
        {
          "duration": 0.33159689062500775,
          "durationTicks": 382,
          "midi": 47,
          "name": "B2",
          "ticks": 81220,
          "time": 70.50340171875,
          "velocity": 0.48031496062992124
        },
        {
          "duration": 0.33506910937498446,
          "durationTicks": 386,
          "midi": 42,
          "name": "F#2",
          "ticks": 81602,
          "time": 70.834998609375,
          "velocity": 0.4881889763779528
        },
        {
          "duration": 0.33159689062500775,
          "durationTicks": 382,
          "midi": 39,
          "name": "D#2",
          "ticks": 81988,
          "time": 71.17006771874999,
          "velocity": 0.4881889763779528
        },
        {
          "duration": 0.3350691093749987,
          "durationTicks": 386,
          "midi": 35,
          "name": "B1",
          "ticks": 82370,
          "time": 71.501664609375,
          "velocity": 0.49606299212598426
        },
        {
          "duration": 0.33159689062500775,
          "durationTicks": 382,
          "midi": 40,
          "name": "E2",
          "ticks": 82756,
          "time": 71.83673371875,
          "velocity": 0.44881889763779526
        },
        {
          "duration": 0.33506910937498446,
          "durationTicks": 386,
          "midi": 47,
          "name": "B2",
          "ticks": 83138,
          "time": 72.168330609375,
          "velocity": 0.44881889763779526
        },
        {
          "duration": 0.33159689062500775,
          "durationTicks": 382,
          "midi": 43,
          "name": "G2",
          "ticks": 83524,
          "time": 72.50339971874999,
          "velocity": 0.44881889763779526
        },
        {
          "duration": 0.3350691093749987,
          "durationTicks": 386,
          "midi": 40,
          "name": "E2",
          "ticks": 83906,
          "time": 72.834996609375,
          "velocity": 0.4566929133858268
        },
        {
          "duration": 0.33159689062500775,
          "durationTicks": 382,
          "midi": 47,
          "name": "B2",
          "ticks": 84292,
          "time": 73.17006571875,
          "velocity": 0.4566929133858268
        },
        {
          "duration": 0.33506910937498446,
          "durationTicks": 386,
          "midi": 40,
          "name": "E2",
          "ticks": 84674,
          "time": 73.501662609375,
          "velocity": 0.4645669291338583
        },
        {
          "duration": 0.33159689062500775,
          "durationTicks": 382,
          "midi": 45,
          "name": "A2",
          "ticks": 85060,
          "time": 73.83673171874999,
          "velocity": 0.4645669291338583
        },
        {
          "duration": 0.3350691093749987,
          "durationTicks": 386,
          "midi": 49,
          "name": "C#3",
          "ticks": 85442,
          "time": 74.168328609375,
          "velocity": 0.4645669291338583
        },
        {
          "duration": 0.33159689062500775,
          "durationTicks": 382,
          "midi": 50,
          "name": "D3",
          "ticks": 85828,
          "time": 74.50339771875,
          "velocity": 0.47244094488188976
        },
        {
          "duration": 0.3350691093749987,
          "durationTicks": 386,
          "midi": 45,
          "name": "A2",
          "ticks": 86210,
          "time": 74.834994609375,
          "velocity": 0.47244094488188976
        },
        {
          "duration": 0.33159689062499353,
          "durationTicks": 382,
          "midi": 42,
          "name": "F#2",
          "ticks": 86596,
          "time": 75.17006371875,
          "velocity": 0.48031496062992124
        },
        {
          "duration": 0.3350691093749987,
          "durationTicks": 386,
          "midi": 45,
          "name": "A2",
          "ticks": 86978,
          "time": 75.501660609375,
          "velocity": 0.48031496062992124
        },
        {
          "duration": 0.33159689062500775,
          "durationTicks": 382,
          "midi": 38,
          "name": "D2",
          "ticks": 87364,
          "time": 75.83672971875,
          "velocity": 0.48031496062992124
        },
        {
          "duration": 0.3350691093749987,
          "durationTicks": 386,
          "midi": 45,
          "name": "A2",
          "ticks": 87746,
          "time": 76.168326609375,
          "velocity": 0.4881889763779528
        },
        {
          "duration": 0.33159689062500775,
          "durationTicks": 382,
          "midi": 42,
          "name": "F#2",
          "ticks": 88132,
          "time": 76.50339571875,
          "velocity": 0.4881889763779528
        },
        {
          "duration": 0.33506910937498446,
          "durationTicks": 386,
          "midi": 38,
          "name": "D2",
          "ticks": 88514,
          "time": 76.834992609375,
          "velocity": 0.49606299212598426
        },
        {
          "duration": 0.33159689062500775,
          "durationTicks": 382,
          "midi": 43,
          "name": "G2",
          "ticks": 88900,
          "time": 77.17006171874999,
          "velocity": 0.44881889763779526
        },
        {
          "duration": 0.3350691093749987,
          "durationTicks": 386,
          "midi": 45,
          "name": "A2",
          "ticks": 89282,
          "time": 77.501658609375,
          "velocity": 0.44881889763779526
        },
        {
          "duration": 0.33159689062500775,
          "durationTicks": 382,
          "midi": 47,
          "name": "B2",
          "ticks": 89668,
          "time": 77.83672771875,
          "velocity": 0.44881889763779526
        },
        {
          "duration": 0.33506910937498446,
          "durationTicks": 386,
          "midi": 50,
          "name": "D3",
          "ticks": 90050,
          "time": 78.168324609375,
          "velocity": 0.4566929133858268
        },
        {
          "duration": 0.33159689062500775,
          "durationTicks": 382,
          "midi": 43,
          "name": "G2",
          "ticks": 90436,
          "time": 78.50339371874999,
          "velocity": 0.4566929133858268
        },
        {
          "duration": 0.3350691093749987,
          "durationTicks": 386,
          "midi": 50,
          "name": "D3",
          "ticks": 90818,
          "time": 78.834990609375,
          "velocity": 0.4645669291338583
        },
        {
          "duration": 0.33159689062500775,
          "durationTicks": 382,
          "midi": 47,
          "name": "B2",
          "ticks": 91204,
          "time": 79.17005971875,
          "velocity": 0.4645669291338583
        },
        {
          "duration": 0.33506910937498446,
          "durationTicks": 386,
          "midi": 43,
          "name": "G2",
          "ticks": 91586,
          "time": 79.501656609375,
          "velocity": 0.4645669291338583
        },
        {
          "duration": 0.33159689062500775,
          "durationTicks": 382,
          "midi": 50,
          "name": "D3",
          "ticks": 91972,
          "time": 79.83672571874999,
          "velocity": 0.47244094488188976
        },
        {
          "duration": 0.3350691093749987,
          "durationTicks": 386,
          "midi": 45,
          "name": "A2",
          "ticks": 92354,
          "time": 80.168322609375,
          "velocity": 0.47244094488188976
        },
        {
          "duration": 0.33159689062500775,
          "durationTicks": 382,
          "midi": 40,
          "name": "E2",
          "ticks": 92740,
          "time": 80.50339171875,
          "velocity": 0.48031496062992124
        },
        {
          "duration": 0.33506910937498446,
          "durationTicks": 386,
          "midi": 45,
          "name": "A2",
          "ticks": 93122,
          "time": 80.834988609375,
          "velocity": 0.48031496062992124
        },
        {
          "duration": 0.33159689062500775,
          "durationTicks": 382,
          "midi": 50,
          "name": "D3",
          "ticks": 93508,
          "time": 81.17005771874999,
          "velocity": 0.48031496062992124
        },
        {
          "duration": 0.3350691093749987,
          "durationTicks": 386,
          "midi": 50,
          "name": "D3",
          "ticks": 93890,
          "time": 81.501654609375,
          "velocity": 0.4881889763779528
        },
        {
          "duration": 0.33159689062500775,
          "durationTicks": 382,
          "midi": 49,
          "name": "C#3",
          "ticks": 94276,
          "time": 81.83672371875,
          "velocity": 0.4881889763779528
        },
        {
          "duration": 0.3350691093749987,
          "durationTicks": 386,
          "midi": 42,
          "name": "F#2",
          "ticks": 94658,
          "time": 82.168320609375,
          "velocity": 0.49606299212598426
        },
        {
          "duration": 0.33159689062499353,
          "durationTicks": 382,
          "midi": 47,
          "name": "B2",
          "ticks": 95044,
          "time": 82.50338971875,
          "velocity": 0.44881889763779526
        },
        {
          "duration": 0.3350691093749987,
          "durationTicks": 386,
          "midi": 47,
          "name": "B2",
          "ticks": 95426,
          "time": 82.834986609375,
          "velocity": 0.44881889763779526
        },
        {
          "duration": 0.33159689062500775,
          "durationTicks": 382,
          "midi": 45,
          "name": "A2",
          "ticks": 95812,
          "time": 83.17005571874999,
          "velocity": 0.44881889763779526
        },
        {
          "duration": 0.3350691093749987,
          "durationTicks": 386,
          "midi": 45,
          "name": "A2",
          "ticks": 96194,
          "time": 83.501652609375,
          "velocity": 0.4566929133858268
        },
        {
          "duration": 0.33159689062500775,
          "durationTicks": 382,
          "midi": 44,
          "name": "G#2",
          "ticks": 96580,
          "time": 83.83672171875,
          "velocity": 0.4566929133858268
        },
        {
          "duration": 0.33506910937498446,
          "durationTicks": 386,
          "midi": 47,
          "name": "B2",
          "ticks": 96962,
          "time": 84.168318609375,
          "velocity": 0.4645669291338583
        },
        {
          "duration": 0.33159689062500775,
          "durationTicks": 382,
          "midi": 40,
          "name": "E2",
          "ticks": 97348,
          "time": 84.50338771874999,
          "velocity": 0.4645669291338583
        },
        {
          "duration": 0.3350691093749987,
          "durationTicks": 386,
          "midi": 44,
          "name": "G#2",
          "ticks": 97730,
          "time": 84.834984609375,
          "velocity": 0.4645669291338583
        },
        {
          "duration": 0.33159689062499353,
          "durationTicks": 382,
          "midi": 45,
          "name": "A2",
          "ticks": 98116,
          "time": 85.17005371875,
          "velocity": 0.47244094488188976
        },
        {
          "duration": 0.3350691093750129,
          "durationTicks": 386,
          "midi": 45,
          "name": "A2",
          "ticks": 98498,
          "time": 85.50165060937499,
          "velocity": 0.47244094488188976
        },
        {
          "duration": 0.33159689062499353,
          "durationTicks": 382,
          "midi": 47,
          "name": "B2",
          "ticks": 98884,
          "time": 85.83671971875,
          "velocity": 0.48031496062992124
        },
        {
          "duration": 0.3350691093750129,
          "durationTicks": 386,
          "midi": 48,
          "name": "C3",
          "ticks": 99266,
          "time": 86.168316609375,
          "velocity": 0.48031496062992124
        },
        {
          "duration": 0.3315968906249793,
          "durationTicks": 382,
          "midi": 49,
          "name": "C#3",
          "ticks": 99652,
          "time": 86.50338571875001,
          "velocity": 0.48031496062992124
        },
        {
          "duration": 0.3350691093750129,
          "durationTicks": 386,
          "midi": 40,
          "name": "E2",
          "ticks": 100034,
          "time": 86.83498260937499,
          "velocity": 0.4881889763779528
        },
        {
          "duration": 0.33159689062499353,
          "durationTicks": 382,
          "midi": 45,
          "name": "A2",
          "ticks": 100420,
          "time": 87.17005171875,
          "velocity": 0.4881889763779528
        },
        {
          "duration": 0.3350691093750129,
          "durationTicks": 386,
          "midi": 49,
          "name": "C#3",
          "ticks": 100802,
          "time": 87.501648609375,
          "velocity": 0.49606299212598426
        },
        {
          "duration": 0.3315968906249793,
          "durationTicks": 382,
          "midi": 50,
          "name": "D3",
          "ticks": 101188,
          "time": 87.83671771875001,
          "velocity": 0.44881889763779526
        },
        {
          "duration": 0.3350691093750129,
          "durationTicks": 386,
          "midi": 52,
          "name": "E3",
          "ticks": 101570,
          "time": 88.16831460937499,
          "velocity": 0.44881889763779526
        },
        {
          "duration": 0.33159689062499353,
          "durationTicks": 382,
          "midi": 54,
          "name": "F#3",
          "ticks": 101956,
          "time": 88.50338371875,
          "velocity": 0.44881889763779526
        },
        {
          "duration": 0.3350691093750129,
          "durationTicks": 386,
          "midi": 52,
          "name": "E3",
          "ticks": 102338,
          "time": 88.834980609375,
          "velocity": 0.4566929133858268
        },
        {
          "duration": 0.3315968906249793,
          "durationTicks": 382,
          "midi": 50,
          "name": "D3",
          "ticks": 102724,
          "time": 89.17004971875001,
          "velocity": 0.4566929133858268
        },
        {
          "duration": 0.3350691093750129,
          "durationTicks": 386,
          "midi": 45,
          "name": "A2",
          "ticks": 103106,
          "time": 89.50164660937499,
          "velocity": 0.4645669291338583
        },
        {
          "duration": 0.33159689062499353,
          "durationTicks": 382,
          "midi": 42,
          "name": "F#2",
          "ticks": 103492,
          "time": 89.83671571875,
          "velocity": 0.4645669291338583
        },
        {
          "duration": 0.3350691093750129,
          "durationTicks": 386,
          "midi": 45,
          "name": "A2",
          "ticks": 103874,
          "time": 90.168312609375,
          "velocity": 0.4645669291338583
        },
        {
          "duration": 0.3315968906249793,
          "durationTicks": 382,
          "midi": 50,
          "name": "D3",
          "ticks": 104260,
          "time": 90.50338171875,
          "velocity": 0.47244094488188976
        },
        {
          "duration": 0.3350691093750129,
          "durationTicks": 386,
          "midi": 45,
          "name": "A2",
          "ticks": 104642,
          "time": 90.83497860937499,
          "velocity": 0.47244094488188976
        },
        {
          "duration": 0.33159689062499353,
          "durationTicks": 382,
          "midi": 42,
          "name": "F#2",
          "ticks": 105028,
          "time": 91.17004771875,
          "velocity": 0.48031496062992124
        },
        {
          "duration": 0.3350691093750129,
          "durationTicks": 386,
          "midi": 45,
          "name": "A2",
          "ticks": 105410,
          "time": 91.50164460937499,
          "velocity": 0.48031496062992124
        },
        {
          "duration": 0.3315968906249793,
          "durationTicks": 382,
          "midi": 47,
          "name": "B2",
          "ticks": 105796,
          "time": 91.83671371875,
          "velocity": 0.48031496062992124
        },
        {
          "duration": 0.3350691093750129,
          "durationTicks": 386,
          "midi": 42,
          "name": "F#2",
          "ticks": 106178,
          "time": 92.16831060937498,
          "velocity": 0.4881889763779528
        },
        {
          "duration": 0.33159689062499353,
          "durationTicks": 382,
          "midi": 39,
          "name": "D#2",
          "ticks": 106564,
          "time": 92.50337971875,
          "velocity": 0.4881889763779528
        },
        {
          "duration": 0.3350691093750129,
          "durationTicks": 386,
          "midi": 42,
          "name": "F#2",
          "ticks": 106946,
          "time": 92.83497660937499,
          "velocity": 0.49606299212598426
        },
        {
          "duration": 0.33159689062499353,
          "durationTicks": 382,
          "midi": 40,
          "name": "E2",
          "ticks": 107332,
          "time": 93.17004571875,
          "velocity": 0.44881889763779526
        },
        {
          "duration": 0.3350691093750129,
          "durationTicks": 386,
          "midi": 40,
          "name": "E2",
          "ticks": 107714,
          "time": 93.501642609375,
          "velocity": 0.44881889763779526
        },
        {
          "duration": 0.3315968906249793,
          "durationTicks": 382,
          "midi": 39,
          "name": "D#2",
          "ticks": 108100,
          "time": 93.83671171875001,
          "velocity": 0.44881889763779526
        },
        {
          "duration": 0.3350691093750129,
          "durationTicks": 386,
          "midi": 35,
          "name": "B1",
          "ticks": 108482,
          "time": 94.16830860937499,
          "velocity": 0.4566929133858268
        },
        {
          "duration": 0.33159689062499353,
          "durationTicks": 382,
          "midi": 40,
          "name": "E2",
          "ticks": 108868,
          "time": 94.50337771875,
          "velocity": 0.4566929133858268
        },
        {
          "duration": 0.3350691093750129,
          "durationTicks": 386,
          "midi": 40,
          "name": "E2",
          "ticks": 109250,
          "time": 94.834974609375,
          "velocity": 0.4645669291338583
        },
        {
          "duration": 0.3315968906249793,
          "durationTicks": 382,
          "midi": 39,
          "name": "D#2",
          "ticks": 109636,
          "time": 95.17004371875001,
          "velocity": 0.4645669291338583
        },
        {
          "duration": 0.3350691093750129,
          "durationTicks": 386,
          "midi": 39,
          "name": "D#2",
          "ticks": 110018,
          "time": 95.50164060937499,
          "velocity": 0.4645669291338583
        },
        {
          "duration": 0.33159689062499353,
          "durationTicks": 382,
          "midi": 38,
          "name": "D2",
          "ticks": 110404,
          "time": 95.83670971875,
          "velocity": 0.47244094488188976
        },
        {
          "duration": 0.3350691093750129,
          "durationTicks": 386,
          "midi": 45,
          "name": "A2",
          "ticks": 110786,
          "time": 96.168306609375,
          "velocity": 0.47244094488188976
        },
        {
          "duration": 0.3315968906249793,
          "durationTicks": 382,
          "midi": 42,
          "name": "F#2",
          "ticks": 111172,
          "time": 96.50337571875001,
          "velocity": 0.48031496062992124
        },
        {
          "duration": 0.3350691093750129,
          "durationTicks": 386,
          "midi": 45,
          "name": "A2",
          "ticks": 111554,
          "time": 96.83497260937499,
          "velocity": 0.48031496062992124
        },
        {
          "duration": 0.33159689062499353,
          "durationTicks": 382,
          "midi": 50,
          "name": "D3",
          "ticks": 111940,
          "time": 97.17004171875,
          "velocity": 0.48031496062992124
        },
        {
          "duration": 0.3350691093750129,
          "durationTicks": 386,
          "midi": 45,
          "name": "A2",
          "ticks": 112322,
          "time": 97.501638609375,
          "velocity": 0.4881889763779528
        },
        {
          "duration": 0.3315968906249793,
          "durationTicks": 382,
          "midi": 42,
          "name": "F#2",
          "ticks": 112708,
          "time": 97.83670771875,
          "velocity": 0.4881889763779528
        },
        {
          "duration": 0.3350691093750129,
          "durationTicks": 386,
          "midi": 38,
          "name": "D2",
          "ticks": 113090,
          "time": 98.16830460937499,
          "velocity": 0.49606299212598426
        },
        {
          "duration": 0.33159689062499353,
          "durationTicks": 382,
          "midi": 44,
          "name": "G#2",
          "ticks": 113476,
          "time": 98.50337371875,
          "velocity": 0.44881889763779526
        },
        {
          "duration": 0.3350691093750129,
          "durationTicks": 386,
          "midi": 43,
          "name": "G2",
          "ticks": 113858,
          "time": 98.83497060937499,
          "velocity": 0.44881889763779526
        },
        {
          "duration": 0.3315968906249793,
          "durationTicks": 382,
          "midi": 43,
          "name": "G2",
          "ticks": 114244,
          "time": 99.17003971875,
          "velocity": 0.44881889763779526
        },
        {
          "duration": 0.3350691093750129,
          "durationTicks": 386,
          "midi": 44,
          "name": "G#2",
          "ticks": 114626,
          "time": 99.50163660937498,
          "velocity": 0.4566929133858268
        },
        {
          "duration": 0.33159689062499353,
          "durationTicks": 382,
          "midi": 43,
          "name": "G2",
          "ticks": 115012,
          "time": 99.83670571875,
          "velocity": 0.4566929133858268
        },
        {
          "duration": 0.3350691093750129,
          "durationTicks": 386,
          "midi": 43,
          "name": "G2",
          "ticks": 115394,
          "time": 100.16830260937499,
          "velocity": 0.4645669291338583
        },
        {
          "duration": 0.5538188906249957,
          "durationTicks": 638,
          "midi": 49,
          "name": "C#3",
          "ticks": 115780,
          "time": 100.50337171875,
          "velocity": 0.4645669291338583
        },
        {
          "duration": 0.44444399999999007,
          "durationTicks": 512,
          "midi": 48,
          "name": "C3",
          "ticks": 116418,
          "time": 101.057190609375,
          "velocity": 0.47244094488188976
        },
        {
          "duration": 0.3350691093750129,
          "durationTicks": 386,
          "midi": 48,
          "name": "C3",
          "ticks": 116930,
          "time": 101.50163460937499,
          "velocity": 0.47244094488188976
        },
        {
          "duration": 0.33159689062499353,
          "durationTicks": 382,
          "midi": 48,
          "name": "C3",
          "ticks": 117316,
          "time": 101.83670371875,
          "velocity": 0.48031496062992124
        },
        {
          "duration": 0.3350691093750129,
          "durationTicks": 386,
          "midi": 43,
          "name": "G2",
          "ticks": 117698,
          "time": 102.168300609375,
          "velocity": 0.48031496062992124
        },
        {
          "duration": 0.3315968906249793,
          "durationTicks": 382,
          "midi": 36,
          "name": "C2",
          "ticks": 118084,
          "time": 102.50336971875001,
          "velocity": 0.48031496062992124
        },
        {
          "duration": 0.14756929687501952,
          "durationTicks": 170,
          "midi": 43,
          "name": "G2",
          "ticks": 119108,
          "time": 103.39225771874999,
          "velocity": 0.49606299212598426
        },
        {
          "duration": 0.3315968906249793,
          "durationTicks": 382,
          "midi": 48,
          "name": "C3",
          "ticks": 119620,
          "time": 103.83670171875,
          "velocity": 0.44881889763779526
        },
        {
          "duration": 0.3350691093750129,
          "durationTicks": 386,
          "midi": 52,
          "name": "E3",
          "ticks": 120002,
          "time": 104.16829860937499,
          "velocity": 0.44881889763779526
        },
        {
          "duration": 0.33159689062499353,
          "durationTicks": 382,
          "midi": 53,
          "name": "F3",
          "ticks": 120388,
          "time": 104.50336771875,
          "velocity": 0.44881889763779526
        },
        {
          "duration": 0.3350691093750129,
          "durationTicks": 386,
          "midi": 54,
          "name": "F#3",
          "ticks": 120770,
          "time": 104.83496460937499,
          "velocity": 0.4566929133858268
        },
        {
          "duration": 0.3315968906249793,
          "durationTicks": 382,
          "midi": 55,
          "name": "G3",
          "ticks": 121156,
          "time": 105.17003371875,
          "velocity": 0.4566929133858268
        },
        {
          "duration": 0.3350691093750129,
          "durationTicks": 386,
          "midi": 54,
          "name": "F#3",
          "ticks": 121538,
          "time": 105.50163060937498,
          "velocity": 0.4645669291338583
        },
        {
          "duration": 0.33159689062499353,
          "durationTicks": 382,
          "midi": 55,
          "name": "G3",
          "ticks": 121924,
          "time": 105.83669971875,
          "velocity": 0.4645669291338583
        },
        {
          "duration": 0.3350691093750129,
          "durationTicks": 386,
          "midi": 53,
          "name": "F3",
          "ticks": 122306,
          "time": 106.16829660937499,
          "velocity": 0.4645669291338583
        },
        {
          "duration": 0.33159689062499353,
          "durationTicks": 382,
          "midi": 52,
          "name": "E3",
          "ticks": 122692,
          "time": 106.50336571875,
          "velocity": 0.47244094488188976
        },
        {
          "duration": 0.3350691093749987,
          "durationTicks": 386,
          "midi": 50,
          "name": "D3",
          "ticks": 123074,
          "time": 106.834962609375,
          "velocity": 0.47244094488188976
        },
        {
          "duration": 0.33159689062499353,
          "durationTicks": 382,
          "midi": 48,
          "name": "C3",
          "ticks": 123460,
          "time": 107.17003171875,
          "velocity": 0.48031496062992124
        },
        {
          "duration": 0.3350691093750129,
          "durationTicks": 386,
          "midi": 45,
          "name": "A2",
          "ticks": 123842,
          "time": 107.50162860937499,
          "velocity": 0.48031496062992124
        },
        {
          "duration": 0.33159689062499353,
          "durationTicks": 382,
          "midi": 48,
          "name": "C3",
          "ticks": 124228,
          "time": 107.83669771875,
          "velocity": 0.48031496062992124
        },
        {
          "duration": 0.3350691093750129,
          "durationTicks": 386,
          "midi": 45,
          "name": "A2",
          "ticks": 124610,
          "time": 108.168294609375,
          "velocity": 0.4881889763779528
        },
        {
          "duration": 0.3315968906249793,
          "durationTicks": 382,
          "midi": 43,
          "name": "G2",
          "ticks": 124996,
          "time": 108.50336371875001,
          "velocity": 0.4881889763779528
        },
        {
          "duration": 0.3350691093750129,
          "durationTicks": 386,
          "midi": 48,
          "name": "C3",
          "ticks": 125378,
          "time": 108.83496060937499,
          "velocity": 0.49606299212598426
        },
        {
          "duration": 0.33159689062499353,
          "durationTicks": 382,
          "midi": 43,
          "name": "G2",
          "ticks": 125764,
          "time": 109.17002971875,
          "velocity": 0.44881889763779526
        },
        {
          "duration": 0.3350691093750129,
          "durationTicks": 386,
          "midi": 40,
          "name": "E2",
          "ticks": 126146,
          "time": 109.501626609375,
          "velocity": 0.44881889763779526
        },
        {
          "duration": 0.3315968906249793,
          "durationTicks": 382,
          "midi": 38,
          "name": "D2",
          "ticks": 126532,
          "time": 109.83669571875001,
          "velocity": 0.44881889763779526
        },
        {
          "duration": 0.3350691093750129,
          "durationTicks": 386,
          "midi": 40,
          "name": "E2",
          "ticks": 126914,
          "time": 110.16829260937499,
          "velocity": 0.4566929133858268
        },
        {
          "duration": 0.33159689062499353,
          "durationTicks": 382,
          "midi": 43,
          "name": "G2",
          "ticks": 127300,
          "time": 110.50336171875,
          "velocity": 0.4566929133858268
        },
        {
          "duration": 0.3350691093750129,
          "durationTicks": 386,
          "midi": 45,
          "name": "A2",
          "ticks": 127682,
          "time": 110.834958609375,
          "velocity": 0.4645669291338583
        },
        {
          "duration": 0.3315968906249793,
          "durationTicks": 382,
          "midi": 47,
          "name": "B2",
          "ticks": 128068,
          "time": 111.17002771875,
          "velocity": 0.4645669291338583
        },
        {
          "duration": 0.3350691093750129,
          "durationTicks": 386,
          "midi": 43,
          "name": "G2",
          "ticks": 128450,
          "time": 111.50162460937499,
          "velocity": 0.4645669291338583
        },
        {
          "duration": 0.33159689062499353,
          "durationTicks": 382,
          "midi": 48,
          "name": "C3",
          "ticks": 128836,
          "time": 111.83669371875,
          "velocity": 0.47244094488188976
        },
        {
          "duration": 0.3350691093750129,
          "durationTicks": 386,
          "midi": 48,
          "name": "C3",
          "ticks": 129218,
          "time": 112.16829060937499,
          "velocity": 0.47244094488188976
        },
        {
          "duration": 0.3315968906249793,
          "durationTicks": 382,
          "midi": 50,
          "name": "D3",
          "ticks": 129604,
          "time": 112.50335971875,
          "velocity": 0.48031496062992124
        },
        {
          "duration": 0.3350691093750129,
          "durationTicks": 386,
          "midi": 43,
          "name": "G2",
          "ticks": 129986,
          "time": 112.83495660937498,
          "velocity": 0.48031496062992124
        },
        {
          "duration": 0.33159689062499353,
          "durationTicks": 382,
          "midi": 48,
          "name": "C3",
          "ticks": 130372,
          "time": 113.17002571875,
          "velocity": 0.48031496062992124
        },
        {
          "duration": 0.3350691093750129,
          "durationTicks": 386,
          "midi": 45,
          "name": "A2",
          "ticks": 130754,
          "time": 113.50162260937499,
          "velocity": 0.4881889763779528
        },
        {
          "duration": 0.33159689062499353,
          "durationTicks": 382,
          "midi": 43,
          "name": "G2",
          "ticks": 131140,
          "time": 113.83669171875,
          "velocity": 0.4881889763779528
        },
        {
          "duration": 0.3350691093750129,
          "durationTicks": 386,
          "midi": 47,
          "name": "B2",
          "ticks": 131522,
          "time": 114.168288609375,
          "velocity": 0.49606299212598426
        },
        {
          "duration": 0.3315968906249793,
          "durationTicks": 382,
          "midi": 48,
          "name": "C3",
          "ticks": 131908,
          "time": 114.50335771875001,
          "velocity": 0.44881889763779526
        },
        {
          "duration": 0.3350691093750129,
          "durationTicks": 386,
          "midi": 45,
          "name": "A2",
          "ticks": 132290,
          "time": 114.83495460937499,
          "velocity": 0.44881889763779526
        },
        {
          "duration": 0.33159689062499353,
          "durationTicks": 382,
          "midi": 43,
          "name": "G2",
          "ticks": 132676,
          "time": 115.17002371875,
          "velocity": 0.44881889763779526
        },
        {
          "duration": 0.3350691093750129,
          "durationTicks": 386,
          "midi": 48,
          "name": "C3",
          "ticks": 133058,
          "time": 115.501620609375,
          "velocity": 0.4566929133858268
        },
        {
          "duration": 0.3315968906249793,
          "durationTicks": 382,
          "midi": 45,
          "name": "A2",
          "ticks": 133444,
          "time": 115.83668971875001,
          "velocity": 0.4566929133858268
        },
        {
          "duration": 0.3350691093750129,
          "durationTicks": 386,
          "midi": 43,
          "name": "G2",
          "ticks": 133826,
          "time": 116.16828660937499,
          "velocity": 0.4645669291338583
        },
        {
          "duration": 0.33159689062499353,
          "durationTicks": 382,
          "midi": 40,
          "name": "E2",
          "ticks": 134212,
          "time": 116.50335571875,
          "velocity": 0.4645669291338583
        },
        {
          "duration": 0.3350691093750129,
          "durationTicks": 386,
          "midi": 43,
          "name": "G2",
          "ticks": 134594,
          "time": 116.834952609375,
          "velocity": 0.4645669291338583
        },
        {
          "duration": 0.3315968906249793,
          "durationTicks": 382,
          "midi": 48,
          "name": "C3",
          "ticks": 134980,
          "time": 117.17002171875001,
          "velocity": 0.47244094488188976
        },
        {
          "duration": 0.3350691093750129,
          "durationTicks": 386,
          "midi": 48,
          "name": "C3",
          "ticks": 135362,
          "time": 117.50161860937499,
          "velocity": 0.47244094488188976
        },
        {
          "duration": 0.33159689062499353,
          "durationTicks": 382,
          "midi": 40,
          "name": "E2",
          "ticks": 135748,
          "time": 117.83668771875,
          "velocity": 0.48031496062992124
        },
        {
          "duration": 0.3350691093750129,
          "durationTicks": 386,
          "midi": 43,
          "name": "G2",
          "ticks": 136130,
          "time": 118.168284609375,
          "velocity": 0.48031496062992124
        },
        {
          "duration": 0.3315968906249793,
          "durationTicks": 382,
          "midi": 45,
          "name": "A2",
          "ticks": 136516,
          "time": 118.50335371875,
          "velocity": 0.48031496062992124
        },
        {
          "duration": 0.3350691093750129,
          "durationTicks": 386,
          "midi": 47,
          "name": "B2",
          "ticks": 136898,
          "time": 118.83495060937499,
          "velocity": 0.4881889763779528
        },
        {
          "duration": 0.33159689062499353,
          "durationTicks": 382,
          "midi": 49,
          "name": "C#3",
          "ticks": 137284,
          "time": 119.17001971875,
          "velocity": 0.4881889763779528
        },
        {
          "duration": 0.3350691093750129,
          "durationTicks": 386,
          "midi": 45,
          "name": "A2",
          "ticks": 137666,
          "time": 119.50161660937499,
          "velocity": 0.49606299212598426
        },
        {
          "duration": 0.3315968906249793,
          "durationTicks": 382,
          "midi": 50,
          "name": "D3",
          "ticks": 138052,
          "time": 119.83668571875,
          "velocity": 0.44881889763779526
        },
        {
          "duration": 0.3350691093750129,
          "durationTicks": 386,
          "midi": 52,
          "name": "E3",
          "ticks": 138434,
          "time": 120.16828260937498,
          "velocity": 0.44881889763779526
        },
        {
          "duration": 0.33159689062499353,
          "durationTicks": 382,
          "midi": 53,
          "name": "F3",
          "ticks": 138820,
          "time": 120.50335171875,
          "velocity": 0.44881889763779526
        },
        {
          "duration": 0.3350691093750129,
          "durationTicks": 386,
          "midi": 54,
          "name": "F#3",
          "ticks": 139202,
          "time": 120.83494860937499,
          "velocity": 0.4566929133858268
        },
        {
          "duration": 0.33159689062499353,
          "durationTicks": 382,
          "midi": 55,
          "name": "G3",
          "ticks": 139588,
          "time": 121.17001771875,
          "velocity": 0.4566929133858268
        },
        {
          "duration": 0.3350691093750129,
          "durationTicks": 386,
          "midi": 53,
          "name": "F3",
          "ticks": 139970,
          "time": 121.501614609375,
          "velocity": 0.4645669291338583
        },
        {
          "duration": 0.3315968906249793,
          "durationTicks": 382,
          "midi": 52,
          "name": "E3",
          "ticks": 140356,
          "time": 121.83668371875001,
          "velocity": 0.4645669291338583
        },
        {
          "duration": 0.3350691093750129,
          "durationTicks": 386,
          "midi": 50,
          "name": "D3",
          "ticks": 140738,
          "time": 122.16828060937499,
          "velocity": 0.4645669291338583
        },
        {
          "duration": 0.33159689062499353,
          "durationTicks": 382,
          "midi": 48,
          "name": "C3",
          "ticks": 141124,
          "time": 122.50334971875,
          "velocity": 0.47244094488188976
        },
        {
          "duration": 0.3350691093750129,
          "durationTicks": 386,
          "midi": 45,
          "name": "A2",
          "ticks": 141506,
          "time": 122.834946609375,
          "velocity": 0.47244094488188976
        },
        {
          "duration": 0.3315968906249793,
          "durationTicks": 382,
          "midi": 43,
          "name": "G2",
          "ticks": 141892,
          "time": 123.17001571875001,
          "velocity": 0.48031496062992124
        },
        {
          "duration": 0.3350691093750129,
          "durationTicks": 386,
          "midi": 45,
          "name": "A2",
          "ticks": 142274,
          "time": 123.50161260937499,
          "velocity": 0.48031496062992124
        },
        {
          "duration": 0.33159689062499353,
          "durationTicks": 382,
          "midi": 38,
          "name": "D2",
          "ticks": 142660,
          "time": 123.83668171875,
          "velocity": 0.48031496062992124
        },
        {
          "duration": 0.3350691093750129,
          "durationTicks": 386,
          "midi": 38,
          "name": "D2",
          "ticks": 143042,
          "time": 124.168278609375,
          "velocity": 0.4881889763779528
        },
        {
          "duration": 0.3315968906249793,
          "durationTicks": 382,
          "midi": 43,
          "name": "G2",
          "ticks": 143428,
          "time": 124.50334771875,
          "velocity": 0.4881889763779528
        },
        {
          "duration": 0.3350691093750129,
          "durationTicks": 386,
          "midi": 43,
          "name": "G2",
          "ticks": 143810,
          "time": 124.83494460937499,
          "velocity": 0.49606299212598426
        },
        {
          "duration": 0.33159689062499353,
          "durationTicks": 382,
          "midi": 48,
          "name": "C3",
          "ticks": 144196,
          "time": 125.17001371875,
          "velocity": 0.44881889763779526
        },
        {
          "duration": 0.3350691093750129,
          "durationTicks": 386,
          "midi": 45,
          "name": "A2",
          "ticks": 144578,
          "time": 125.50161060937499,
          "velocity": 0.44881889763779526
        },
        {
          "duration": 0.3315968906249793,
          "durationTicks": 382,
          "midi": 43,
          "name": "G2",
          "ticks": 144964,
          "time": 125.83667971875,
          "velocity": 0.44881889763779526
        },
        {
          "duration": 0.3350691093750129,
          "durationTicks": 386,
          "midi": 45,
          "name": "A2",
          "ticks": 145346,
          "time": 126.16827660937498,
          "velocity": 0.4566929133858268
        },
        {
          "duration": 0.33159689062499353,
          "durationTicks": 382,
          "midi": 48,
          "name": "C3",
          "ticks": 145732,
          "time": 126.50334571875,
          "velocity": 0.4566929133858268
        },
        {
          "duration": 0.3350691093750129,
          "durationTicks": 386,
          "midi": 50,
          "name": "D3",
          "ticks": 146114,
          "time": 126.83494260937499,
          "velocity": 0.4645669291338583
        },
        {
          "duration": 0.3315968906249793,
          "durationTicks": 382,
          "midi": 48,
          "name": "C3",
          "ticks": 146500,
          "time": 127.17001171875,
          "velocity": 0.4645669291338583
        },
        {
          "duration": 0.3350691093750129,
          "durationTicks": 386,
          "midi": 45,
          "name": "A2",
          "ticks": 146882,
          "time": 127.50160860937498,
          "velocity": 0.4645669291338583
        },
        {
          "duration": 0.33159689062500775,
          "durationTicks": 382,
          "midi": 48,
          "name": "C3",
          "ticks": 147268,
          "time": 127.83667771875,
          "velocity": 0.47244094488188976
        },
        {
          "duration": 0.33506910937498446,
          "durationTicks": 386,
          "midi": 45,
          "name": "A2",
          "ticks": 147650,
          "time": 128.168274609375,
          "velocity": 0.47244094488188976
        },
        {
          "duration": 0.33159689062500775,
          "durationTicks": 382,
          "midi": 43,
          "name": "G2",
          "ticks": 148036,
          "time": 128.50334371875,
          "velocity": 0.48031496062992124
        },
        {
          "duration": 0.3350691093750129,
          "durationTicks": 386,
          "midi": 48,
          "name": "C3",
          "ticks": 148418,
          "time": 128.834940609375,
          "velocity": 0.48031496062992124
        },
        {
          "duration": 0.3315968906249793,
          "durationTicks": 382,
          "midi": 45,
          "name": "A2",
          "ticks": 148804,
          "time": 129.17000971875,
          "velocity": 0.48031496062992124
        },
        {
          "duration": 0.3350691093750129,
          "durationTicks": 386,
          "midi": 43,
          "name": "G2",
          "ticks": 149186,
          "time": 129.501606609375,
          "velocity": 0.4881889763779528
        },
        {
          "duration": 0.3315968906249793,
          "durationTicks": 382,
          "midi": 40,
          "name": "E2",
          "ticks": 149572,
          "time": 129.83667571875,
          "velocity": 0.4881889763779528
        },
        {
          "duration": 0.3350691093750129,
          "durationTicks": 386,
          "midi": 43,
          "name": "G2",
          "ticks": 149954,
          "time": 130.16827260937498,
          "velocity": 0.49606299212598426
        },
        {
          "duration": 0.33159689062500775,
          "durationTicks": 382,
          "midi": 50,
          "name": "D3",
          "ticks": 150340,
          "time": 130.50334171875,
          "velocity": 0.44881889763779526
        },
        {
          "duration": 0.3350691093750129,
          "durationTicks": 386,
          "midi": 43,
          "name": "G2",
          "ticks": 150722,
          "time": 130.834938609375,
          "velocity": 0.44881889763779526
        },
        {
          "duration": 0.3315968906249793,
          "durationTicks": 382,
          "midi": 41,
          "name": "F2",
          "ticks": 151108,
          "time": 131.17000771875,
          "velocity": 0.44881889763779526
        },
        {
          "duration": 0.3350691093750129,
          "durationTicks": 386,
          "midi": 38,
          "name": "D2",
          "ticks": 151490,
          "time": 131.501604609375,
          "velocity": 0.4566929133858268
        },
        {
          "duration": 0.3315968906249793,
          "durationTicks": 382,
          "midi": 43,
          "name": "G2",
          "ticks": 151876,
          "time": 131.83667371875,
          "velocity": 0.4566929133858268
        },
        {
          "duration": 0.3350691093750129,
          "durationTicks": 386,
          "midi": 45,
          "name": "A2",
          "ticks": 152258,
          "time": 132.16827060937499,
          "velocity": 0.4645669291338583
        },
        {
          "duration": 0.3315968906249793,
          "durationTicks": 382,
          "midi": 47,
          "name": "B2",
          "ticks": 152644,
          "time": 132.50333971875,
          "velocity": 0.4645669291338583
        },
        {
          "duration": 0.3350691093750129,
          "durationTicks": 386,
          "midi": 43,
          "name": "G2",
          "ticks": 153026,
          "time": 132.83493660937498,
          "velocity": 0.4645669291338583
        },
        {
          "duration": 0.33159689062500775,
          "durationTicks": 382,
          "midi": 48,
          "name": "C3",
          "ticks": 153412,
          "time": 133.17000571875,
          "velocity": 0.47244094488188976
        },
        {
          "duration": 0.3350691093750129,
          "durationTicks": 386,
          "midi": 43,
          "name": "G2",
          "ticks": 153794,
          "time": 133.501602609375,
          "velocity": 0.47244094488188976
        },
        {
          "duration": 0.3315968906249793,
          "durationTicks": 382,
          "midi": 50,
          "name": "D3",
          "ticks": 154180,
          "time": 133.83667171875,
          "velocity": 0.48031496062992124
        },
        {
          "duration": 0.3350691093750129,
          "durationTicks": 386,
          "midi": 43,
          "name": "G2",
          "ticks": 154562,
          "time": 134.168268609375,
          "velocity": 0.48031496062992124
        },
        {
          "duration": 0.3315968906249793,
          "durationTicks": 382,
          "midi": 48,
          "name": "C3",
          "ticks": 154948,
          "time": 134.50333771875,
          "velocity": 0.48031496062992124
        },
        {
          "duration": 0.3350691093750129,
          "durationTicks": 386,
          "midi": 43,
          "name": "G2",
          "ticks": 155330,
          "time": 134.83493460937498,
          "velocity": 0.4881889763779528
        },
        {
          "duration": 0.33159689062500775,
          "durationTicks": 382,
          "midi": 43,
          "name": "G2",
          "ticks": 155716,
          "time": 135.17000371875,
          "velocity": 0.4881889763779528
        },
        {
          "duration": 0.3350691093750129,
          "durationTicks": 386,
          "midi": 43,
          "name": "G2",
          "ticks": 156098,
          "time": 135.501600609375,
          "velocity": 0.49606299212598426
        },
        {
          "duration": 0.3315968906249793,
          "durationTicks": 382,
          "midi": 36,
          "name": "C2",
          "ticks": 156484,
          "time": 135.83666971875002,
          "velocity": 0.44881889763779526
        },
        {
          "duration": 0.3350691093750129,
          "durationTicks": 386,
          "midi": 38,
          "name": "D2",
          "ticks": 156866,
          "time": 136.168266609375,
          "velocity": 0.44881889763779526
        },
        {
          "duration": 0.3315968906249793,
          "durationTicks": 382,
          "midi": 40,
          "name": "E2",
          "ticks": 157252,
          "time": 136.50333571875,
          "velocity": 0.44881889763779526
        },
        {
          "duration": 0.3350691093750129,
          "durationTicks": 386,
          "midi": 43,
          "name": "G2",
          "ticks": 157634,
          "time": 136.834932609375,
          "velocity": 0.4566929133858268
        },
        {
          "duration": 0.3315968906249793,
          "durationTicks": 382,
          "midi": 48,
          "name": "C3",
          "ticks": 158020,
          "time": 137.17000171875,
          "velocity": 0.4566929133858268
        },
        {
          "duration": 0.3350691093750129,
          "durationTicks": 386,
          "midi": 48,
          "name": "C3",
          "ticks": 158402,
          "time": 137.50159860937498,
          "velocity": 0.4645669291338583
        },
        {
          "duration": 0.33159689062500775,
          "durationTicks": 382,
          "midi": 45,
          "name": "A2",
          "ticks": 158788,
          "time": 137.83666771875,
          "velocity": 0.4645669291338583
        },
        {
          "duration": 0.3350691093750129,
          "durationTicks": 386,
          "midi": 43,
          "name": "G2",
          "ticks": 159170,
          "time": 138.168264609375,
          "velocity": 0.4645669291338583
        },
        {
          "duration": 0.3315968906249793,
          "durationTicks": 382,
          "midi": 48,
          "name": "C3",
          "ticks": 159556,
          "time": 138.50333371875,
          "velocity": 0.47244094488188976
        },
        {
          "duration": 0.3350691093750129,
          "durationTicks": 386,
          "midi": 48,
          "name": "C3",
          "ticks": 159938,
          "time": 138.834930609375,
          "velocity": 0.47244094488188976
        },
        {
          "duration": 0.3315968906249793,
          "durationTicks": 382,
          "midi": 40,
          "name": "E2",
          "ticks": 160324,
          "time": 139.16999971875,
          "velocity": 0.48031496062992124
        },
        {
          "duration": 0.3350691093750129,
          "durationTicks": 386,
          "midi": 43,
          "name": "G2",
          "ticks": 160706,
          "time": 139.50159660937499,
          "velocity": 0.48031496062992124
        },
        {
          "duration": 0.3315968906249793,
          "durationTicks": 382,
          "midi": 45,
          "name": "A2",
          "ticks": 161092,
          "time": 139.83666571875,
          "velocity": 0.48031496062992124
        },
        {
          "duration": 0.3350691093750129,
          "durationTicks": 386,
          "midi": 47,
          "name": "B2",
          "ticks": 161474,
          "time": 140.16826260937498,
          "velocity": 0.4881889763779528
        },
        {
          "duration": 0.33159689062500775,
          "durationTicks": 382,
          "midi": 49,
          "name": "C#3",
          "ticks": 161860,
          "time": 140.50333171875,
          "velocity": 0.4881889763779528
        },
        {
          "duration": 0.3350691093750129,
          "durationTicks": 386,
          "midi": 45,
          "name": "A2",
          "ticks": 162242,
          "time": 140.834928609375,
          "velocity": 0.49606299212598426
        },
        {
          "duration": 0.3315968906249793,
          "durationTicks": 382,
          "midi": 50,
          "name": "D3",
          "ticks": 162628,
          "time": 141.16999771875,
          "velocity": 0.44881889763779526
        },
        {
          "duration": 0.3350691093750129,
          "durationTicks": 386,
          "midi": 45,
          "name": "A2",
          "ticks": 163010,
          "time": 141.501594609375,
          "velocity": 0.44881889763779526
        },
        {
          "duration": 0.3315968906249793,
          "durationTicks": 382,
          "midi": 42,
          "name": "F#2",
          "ticks": 163396,
          "time": 141.83666371875,
          "velocity": 0.44881889763779526
        },
        {
          "duration": 0.3350691093750129,
          "durationTicks": 386,
          "midi": 38,
          "name": "D2",
          "ticks": 163778,
          "time": 142.16826060937498,
          "velocity": 0.4566929133858268
        },
        {
          "duration": 0.33159689062500775,
          "durationTicks": 382,
          "midi": 43,
          "name": "G2",
          "ticks": 164164,
          "time": 142.50332971875,
          "velocity": 0.4566929133858268
        },
        {
          "duration": 0.3350691093750129,
          "durationTicks": 386,
          "midi": 45,
          "name": "A2",
          "ticks": 164546,
          "time": 142.834926609375,
          "velocity": 0.4645669291338583
        },
        {
          "duration": 0.3315968906249793,
          "durationTicks": 382,
          "midi": 47,
          "name": "B2",
          "ticks": 164932,
          "time": 143.16999571875002,
          "velocity": 0.4645669291338583
        },
        {
          "duration": 0.3350691093750129,
          "durationTicks": 386,
          "midi": 43,
          "name": "G2",
          "ticks": 165314,
          "time": 143.501592609375,
          "velocity": 0.4645669291338583
        },
        {
          "duration": 0.3315968906249793,
          "durationTicks": 382,
          "midi": 48,
          "name": "C3",
          "ticks": 165700,
          "time": 143.83666171875,
          "velocity": 0.47244094488188976
        },
        {
          "duration": 0.3350691093750129,
          "durationTicks": 386,
          "midi": 40,
          "name": "E2",
          "ticks": 166082,
          "time": 144.168258609375,
          "velocity": 0.47244094488188976
        },
        {
          "duration": 0.3315968906249793,
          "durationTicks": 382,
          "midi": 43,
          "name": "G2",
          "ticks": 166468,
          "time": 144.50332771875,
          "velocity": 0.48031496062992124
        },
        {
          "duration": 0.3350691093750129,
          "durationTicks": 386,
          "midi": 45,
          "name": "A2",
          "ticks": 166850,
          "time": 144.83492460937498,
          "velocity": 0.48031496062992124
        },
        {
          "duration": 0.33159689062500775,
          "durationTicks": 382,
          "midi": 47,
          "name": "B2",
          "ticks": 167236,
          "time": 145.16999371875,
          "velocity": 0.48031496062992124
        },
        {
          "duration": 0.3350691093750129,
          "durationTicks": 386,
          "midi": 43,
          "name": "G2",
          "ticks": 167618,
          "time": 145.501590609375,
          "velocity": 0.4881889763779528
        },
        {
          "duration": 0.3315968906249793,
          "durationTicks": 382,
          "midi": 48,
          "name": "C3",
          "ticks": 168004,
          "time": 145.83665971875,
          "velocity": 0.4881889763779528
        },
        {
          "duration": 0.3350691093750129,
          "durationTicks": 386,
          "midi": 52,
          "name": "E3",
          "ticks": 168386,
          "time": 146.168256609375,
          "velocity": 0.49606299212598426
        },
        {
          "duration": 0.3315968906249793,
          "durationTicks": 382,
          "midi": 53,
          "name": "F3",
          "ticks": 168772,
          "time": 146.50332571875,
          "velocity": 0.44881889763779526
        },
        {
          "duration": 0.3350691093750129,
          "durationTicks": 386,
          "midi": 48,
          "name": "C3",
          "ticks": 169154,
          "time": 146.83492260937498,
          "velocity": 0.44881889763779526
        },
        {
          "duration": 0.3315968906249793,
          "durationTicks": 382,
          "midi": 45,
          "name": "A2",
          "ticks": 169540,
          "time": 147.16999171875,
          "velocity": 0.44881889763779526
        },
        {
          "duration": 0.3350691093750129,
          "durationTicks": 386,
          "midi": 41,
          "name": "F2",
          "ticks": 169922,
          "time": 147.50158860937498,
          "velocity": 0.4566929133858268
        },
        {
          "duration": 0.33159689062500775,
          "durationTicks": 382,
          "midi": 48,
          "name": "C3",
          "ticks": 170308,
          "time": 147.83665771875,
          "velocity": 0.4566929133858268
        },
        {
          "duration": 0.3350691093750129,
          "durationTicks": 386,
          "midi": 45,
          "name": "A2",
          "ticks": 170690,
          "time": 148.168254609375,
          "velocity": 0.4645669291338583
        },
        {
          "duration": 0.3315968906249793,
          "durationTicks": 382,
          "midi": 41,
          "name": "F2",
          "ticks": 171076,
          "time": 148.50332371875,
          "velocity": 0.4645669291338583
        },
        {
          "duration": 0.3350691093750129,
          "durationTicks": 386,
          "midi": 43,
          "name": "G2",
          "ticks": 171458,
          "time": 148.834920609375,
          "velocity": 0.4645669291338583
        },
        {
          "duration": 0.3315968906249793,
          "durationTicks": 382,
          "midi": 48,
          "name": "C3",
          "ticks": 171844,
          "time": 149.16998971875,
          "velocity": 0.47244094488188976
        },
        {
          "duration": 0.3350691093750129,
          "durationTicks": 386,
          "midi": 45,
          "name": "A2",
          "ticks": 172226,
          "time": 149.50158660937498,
          "velocity": 0.47244094488188976
        },
        {
          "duration": 0.33159689062500775,
          "durationTicks": 382,
          "midi": 43,
          "name": "G2",
          "ticks": 172612,
          "time": 149.83665571875,
          "velocity": 0.48031496062992124
        },
        {
          "duration": 0.3350691093750129,
          "durationTicks": 386,
          "midi": 40,
          "name": "E2",
          "ticks": 172994,
          "time": 150.168252609375,
          "velocity": 0.48031496062992124
        },
        {
          "duration": 0.3315968906249793,
          "durationTicks": 382,
          "midi": 36,
          "name": "C2",
          "ticks": 173380,
          "time": 150.50332171875002,
          "velocity": 0.48031496062992124
        },
        {
          "duration": 0.3350691093750129,
          "durationTicks": 386,
          "midi": 48,
          "name": "C3",
          "ticks": 173762,
          "time": 150.834918609375,
          "velocity": 0.4881889763779528
        },
        {
          "duration": 0.3315968906249793,
          "durationTicks": 382,
          "midi": 47,
          "name": "B2",
          "ticks": 174148,
          "time": 151.16998771875,
          "velocity": 0.4881889763779528
        },
        {
          "duration": 0.3350691093750129,
          "durationTicks": 386,
          "midi": 44,
          "name": "G#2",
          "ticks": 174530,
          "time": 151.501584609375,
          "velocity": 0.49606299212598426
        },
        {
          "duration": 0.3315968906249793,
          "durationTicks": 382,
          "midi": 45,
          "name": "A2",
          "ticks": 174916,
          "time": 151.83665371875,
          "velocity": 0.44881889763779526
        },
        {
          "duration": 0.3350691093750129,
          "durationTicks": 386,
          "midi": 47,
          "name": "B2",
          "ticks": 175298,
          "time": 152.16825060937498,
          "velocity": 0.44881889763779526
        },
        {
          "duration": 0.33159689062500775,
          "durationTicks": 382,
          "midi": 48,
          "name": "C3",
          "ticks": 175684,
          "time": 152.50331971875,
          "velocity": 0.44881889763779526
        },
        {
          "duration": 0.3350691093750129,
          "durationTicks": 386,
          "midi": 47,
          "name": "B2",
          "ticks": 176066,
          "time": 152.834916609375,
          "velocity": 0.4566929133858268
        },
        {
          "duration": 0.3315968906249793,
          "durationTicks": 382,
          "midi": 45,
          "name": "A2",
          "ticks": 176452,
          "time": 153.16998571875,
          "velocity": 0.4566929133858268
        },
        {
          "duration": 0.3350691093750129,
          "durationTicks": 386,
          "midi": 45,
          "name": "A2",
          "ticks": 176834,
          "time": 153.501582609375,
          "velocity": 0.4645669291338583
        },
        {
          "duration": 0.3315968906249793,
          "durationTicks": 382,
          "midi": 38,
          "name": "D2",
          "ticks": 177220,
          "time": 153.83665171875,
          "velocity": 0.4645669291338583
        },
        {
          "duration": 0.3350691093750129,
          "durationTicks": 386,
          "midi": 38,
          "name": "D2",
          "ticks": 177602,
          "time": 154.16824860937498,
          "velocity": 0.4645669291338583
        },
        {
          "duration": 0.3315968906249793,
          "durationTicks": 382,
          "midi": 43,
          "name": "G2",
          "ticks": 177988,
          "time": 154.50331771875,
          "velocity": 0.47244094488188976
        },
        {
          "duration": 0.3350691093750129,
          "durationTicks": 386,
          "midi": 43,
          "name": "G2",
          "ticks": 178370,
          "time": 154.83491460937498,
          "velocity": 0.47244094488188976
        },
        {
          "duration": 0.33159689062500775,
          "durationTicks": 382,
          "midi": 45,
          "name": "A2",
          "ticks": 178756,
          "time": 155.16998371875,
          "velocity": 0.48031496062992124
        },
        {
          "duration": 0.3350691093750129,
          "durationTicks": 386,
          "midi": 46,
          "name": "A#2",
          "ticks": 179138,
          "time": 155.501580609375,
          "velocity": 0.48031496062992124
        },
        {
          "duration": 0.3315968906249793,
          "durationTicks": 382,
          "midi": 47,
          "name": "B2",
          "ticks": 179524,
          "time": 155.83664971875,
          "velocity": 0.48031496062992124
        },
        {
          "duration": 0.3350691093750129,
          "durationTicks": 386,
          "midi": 43,
          "name": "G2",
          "ticks": 179906,
          "time": 156.168246609375,
          "velocity": 0.4881889763779528
        },
        {
          "duration": 0.3315968906249793,
          "durationTicks": 382,
          "midi": 45,
          "name": "A2",
          "ticks": 180292,
          "time": 156.50331571875,
          "velocity": 0.4881889763779528
        },
        {
          "duration": 0.3350691093750129,
          "durationTicks": 386,
          "midi": 47,
          "name": "B2",
          "ticks": 180674,
          "time": 156.83491260937498,
          "velocity": 0.49606299212598426
        },
        {
          "duration": 0.33159689062500775,
          "durationTicks": 382,
          "midi": 48,
          "name": "C3",
          "ticks": 181060,
          "time": 157.16998171875,
          "velocity": 0.44881889763779526
        },
        {
          "duration": 0.3350691093750129,
          "durationTicks": 386,
          "midi": 50,
          "name": "D3",
          "ticks": 181442,
          "time": 157.501578609375,
          "velocity": 0.44881889763779526
        },
        {
          "duration": 0.3315968906249793,
          "durationTicks": 382,
          "midi": 52,
          "name": "E3",
          "ticks": 181828,
          "time": 157.83664771875002,
          "velocity": 0.44881889763779526
        },
        {
          "duration": 0.3350691093750129,
          "durationTicks": 386,
          "midi": 53,
          "name": "F3",
          "ticks": 182210,
          "time": 158.168244609375,
          "velocity": 0.4566929133858268
        },
        {
          "duration": 0.3315968906249793,
          "durationTicks": 382,
          "midi": 55,
          "name": "G3",
          "ticks": 182596,
          "time": 158.50331371875,
          "velocity": 0.4566929133858268
        },
        {
          "duration": 0.3350691093750129,
          "durationTicks": 386,
          "midi": 53,
          "name": "F3",
          "ticks": 182978,
          "time": 158.834910609375,
          "velocity": 0.4645669291338583
        },
        {
          "duration": 0.3315968906249793,
          "durationTicks": 382,
          "midi": 55,
          "name": "G3",
          "ticks": 183364,
          "time": 159.16997971875,
          "velocity": 0.4645669291338583
        },
        {
          "duration": 0.3350691093750129,
          "durationTicks": 386,
          "midi": 52,
          "name": "E3",
          "ticks": 183746,
          "time": 159.50157660937498,
          "velocity": 0.4645669291338583
        },
        {
          "duration": 0.33159689062500775,
          "durationTicks": 382,
          "midi": 48,
          "name": "C3",
          "ticks": 184132,
          "time": 159.83664571875,
          "velocity": 0.47244094488188976
        },
        {
          "duration": 0.3350691093750129,
          "durationTicks": 386,
          "midi": 48,
          "name": "C3",
          "ticks": 184514,
          "time": 160.168242609375,
          "velocity": 0.47244094488188976
        },
        {
          "duration": 0.3315968906249793,
          "durationTicks": 382,
          "midi": 40,
          "name": "E2",
          "ticks": 184900,
          "time": 160.50331171875,
          "velocity": 0.48031496062992124
        },
        {
          "duration": 0.3350691093750129,
          "durationTicks": 386,
          "midi": 43,
          "name": "G2",
          "ticks": 185282,
          "time": 160.834908609375,
          "velocity": 0.48031496062992124
        },
        {
          "duration": 0.3315968906249793,
          "durationTicks": 382,
          "midi": 45,
          "name": "A2",
          "ticks": 185668,
          "time": 161.16997771875,
          "velocity": 0.48031496062992124
        },
        {
          "duration": 0.3350691093750129,
          "durationTicks": 386,
          "midi": 47,
          "name": "B2",
          "ticks": 186050,
          "time": 161.50157460937498,
          "velocity": 0.4881889763779528
        },
        {
          "duration": 0.3315968906249793,
          "durationTicks": 382,
          "midi": 49,
          "name": "C#3",
          "ticks": 186436,
          "time": 161.83664371875,
          "velocity": 0.4881889763779528
        },
        {
          "duration": 0.3350691093750129,
          "durationTicks": 386,
          "midi": 45,
          "name": "A2",
          "ticks": 186818,
          "time": 162.16824060937498,
          "velocity": 0.49606299212598426
        },
        {
          "duration": 0.33159689062500775,
          "durationTicks": 382,
          "midi": 50,
          "name": "D3",
          "ticks": 187204,
          "time": 162.50330971875,
          "velocity": 0.44881889763779526
        },
        {
          "duration": 0.3350691093750129,
          "durationTicks": 386,
          "midi": 45,
          "name": "A2",
          "ticks": 187586,
          "time": 162.834906609375,
          "velocity": 0.44881889763779526
        },
        {
          "duration": 0.3315968906249793,
          "durationTicks": 382,
          "midi": 42,
          "name": "F#2",
          "ticks": 187972,
          "time": 163.16997571875,
          "velocity": 0.44881889763779526
        },
        {
          "duration": 0.3350691093750129,
          "durationTicks": 386,
          "midi": 38,
          "name": "D2",
          "ticks": 188354,
          "time": 163.501572609375,
          "velocity": 0.4566929133858268
        },
        {
          "duration": 0.3315968906249793,
          "durationTicks": 382,
          "midi": 43,
          "name": "G2",
          "ticks": 188740,
          "time": 163.83664171875,
          "velocity": 0.4566929133858268
        },
        {
          "duration": 0.3350691093750129,
          "durationTicks": 386,
          "midi": 43,
          "name": "G2",
          "ticks": 189122,
          "time": 164.16823860937498,
          "velocity": 0.4645669291338583
        },
        {
          "duration": 0.33159689062500775,
          "durationTicks": 382,
          "midi": 45,
          "name": "A2",
          "ticks": 189508,
          "time": 164.50330771875,
          "velocity": 0.4645669291338583
        },
        {
          "duration": 0.3350691093750129,
          "durationTicks": 386,
          "midi": 47,
          "name": "B2",
          "ticks": 189890,
          "time": 164.834904609375,
          "velocity": 0.4645669291338583
        },
        {
          "duration": 0.22222199999998793,
          "durationTicks": 256,
          "midi": 48,
          "name": "C3",
          "ticks": 190276,
          "time": 165.16997371875001,
          "velocity": 0.47244094488188976
        },
        {
          "duration": 0.4444440000000043,
          "durationTicks": 512,
          "midi": 43,
          "name": "G2",
          "ticks": 190532,
          "time": 165.39219571875,
          "velocity": 0.47244094488188976
        },
        {
          "duration": 0.21527756249997765,
          "durationTicks": 248,
          "midi": 45,
          "name": "A2",
          "ticks": 191044,
          "time": 165.83663971875,
          "velocity": 0.48031496062992124
        },
        {
          "duration": 0.20659701562502164,
          "durationTicks": 238,
          "midi": 48,
          "name": "C3",
          "ticks": 191426,
          "time": 166.168236609375,
          "velocity": 0.48031496062992124
        },
        {
          "duration": 0.3315968906249793,
          "durationTicks": 382,
          "midi": 50,
          "name": "D3",
          "ticks": 191812,
          "time": 166.50330571875,
          "velocity": 0.48031496062992124
        },
        {
          "duration": 0.22222200000001635,
          "durationTicks": 256,
          "midi": 40,
          "name": "E2",
          "ticks": 192194,
          "time": 166.83490260937498,
          "velocity": 0.4881889763779528
        },
        {
          "duration": 0.1475692968749911,
          "durationTicks": 170,
          "midi": 41,
          "name": "F2",
          "ticks": 192450,
          "time": 167.057124609375,
          "velocity": 0.4881889763779528
        },
        {
          "duration": 0.4444440000000327,
          "durationTicks": 512,
          "midi": 43,
          "name": "G2",
          "ticks": 192836,
          "time": 167.39219371874998,
          "velocity": 0.49606299212598426
        },
        {
          "duration": 0.3315968906249793,
          "durationTicks": 382,
          "midi": 44,
          "name": "G#2",
          "ticks": 193348,
          "time": 167.83663771875,
          "velocity": 0.44881889763779526
        },
        {
          "duration": 0.3350691093750129,
          "durationTicks": 386,
          "midi": 44,
          "name": "G#2",
          "ticks": 193730,
          "time": 168.168234609375,
          "velocity": 0.44881889763779526
        },
        {
          "duration": 0.3315968906249793,
          "durationTicks": 382,
          "midi": 32,
          "name": "G#1",
          "ticks": 194116,
          "time": 168.50330371875,
          "velocity": 0.44881889763779526
        },
        {
          "duration": 0.3350691093750129,
          "durationTicks": 386,
          "midi": 32,
          "name": "G#1",
          "ticks": 194498,
          "time": 168.83490060937498,
          "velocity": 0.4566929133858268
        },
        {
          "duration": 0.3315968906249793,
          "durationTicks": 382,
          "midi": 44,
          "name": "G#2",
          "ticks": 194884,
          "time": 169.16996971875,
          "velocity": 0.4566929133858268
        },
        {
          "duration": 0.3350691093750129,
          "durationTicks": 386,
          "midi": 32,
          "name": "G#1",
          "ticks": 195266,
          "time": 169.50156660937498,
          "velocity": 0.4645669291338583
        },
        {
          "duration": 0.33159689062500775,
          "durationTicks": 382,
          "midi": 44,
          "name": "G#2",
          "ticks": 195652,
          "time": 169.83663571875,
          "velocity": 0.4645669291338583
        },
        {
          "duration": 0.3350691093750129,
          "durationTicks": 386,
          "midi": 44,
          "name": "G#2",
          "ticks": 196034,
          "time": 170.168232609375,
          "velocity": 0.4645669291338583
        },
        {
          "duration": 0.33159689062500775,
          "durationTicks": 382,
          "midi": 49,
          "name": "C#3",
          "ticks": 196420,
          "time": 170.50330171875,
          "velocity": 0.47244094488188976
        },
        {
          "duration": 0.33506910937495604,
          "durationTicks": 386,
          "midi": 49,
          "name": "C#3",
          "ticks": 196802,
          "time": 170.83489860937502,
          "velocity": 0.47244094488188976
        },
        {
          "duration": 0.33159689062503617,
          "durationTicks": 382,
          "midi": 44,
          "name": "G#2",
          "ticks": 197188,
          "time": 171.16996771874997,
          "velocity": 0.48031496062992124
        },
        {
          "duration": 0.33506910937498446,
          "durationTicks": 386,
          "midi": 44,
          "name": "G#2",
          "ticks": 197570,
          "time": 171.501564609375,
          "velocity": 0.48031496062992124
        },
        {
          "duration": 0.33159689062500775,
          "durationTicks": 382,
          "midi": 49,
          "name": "C#3",
          "ticks": 197956,
          "time": 171.83663371875,
          "velocity": 0.48031496062992124
        },
        {
          "duration": 0.33506910937498446,
          "durationTicks": 386,
          "midi": 49,
          "name": "C#3",
          "ticks": 198338,
          "time": 172.168230609375,
          "velocity": 0.4881889763779528
        },
        {
          "duration": 0.33159689062500775,
          "durationTicks": 382,
          "midi": 44,
          "name": "G#2",
          "ticks": 198724,
          "time": 172.50329971875,
          "velocity": 0.4881889763779528
        },
        {
          "duration": 0.33506910937498446,
          "durationTicks": 386,
          "midi": 48,
          "name": "C3",
          "ticks": 199106,
          "time": 172.834896609375,
          "velocity": 0.49606299212598426
        },
        {
          "duration": 0.33159689062503617,
          "durationTicks": 382,
          "midi": 49,
          "name": "C#3",
          "ticks": 199492,
          "time": 173.16996571874998,
          "velocity": 0.44881889763779526
        },
        {
          "duration": 0.33506910937495604,
          "durationTicks": 386,
          "midi": 44,
          "name": "G#2",
          "ticks": 199874,
          "time": 173.50156260937501,
          "velocity": 0.44881889763779526
        },
        {
          "duration": 0.33159689062503617,
          "durationTicks": 382,
          "midi": 53,
          "name": "F3",
          "ticks": 200260,
          "time": 173.83663171874997,
          "velocity": 0.44881889763779526
        },
        {
          "duration": 0.33506910937498446,
          "durationTicks": 386,
          "midi": 49,
          "name": "C#3",
          "ticks": 200642,
          "time": 174.168228609375,
          "velocity": 0.4566929133858268
        },
        {
          "duration": 0.33159689062500775,
          "durationTicks": 382,
          "midi": 46,
          "name": "A#2",
          "ticks": 201028,
          "time": 174.50329771875,
          "velocity": 0.4566929133858268
        },
        {
          "duration": 0.33506910937498446,
          "durationTicks": 386,
          "midi": 48,
          "name": "C3",
          "ticks": 201410,
          "time": 174.834894609375,
          "velocity": 0.4645669291338583
        },
        {
          "duration": 0.33159689062503617,
          "durationTicks": 382,
          "midi": 50,
          "name": "D3",
          "ticks": 201796,
          "time": 175.16996371874998,
          "velocity": 0.4645669291338583
        },
        {
          "duration": 0.33506910937495604,
          "durationTicks": 386,
          "midi": 53,
          "name": "F3",
          "ticks": 202178,
          "time": 175.50156060937502,
          "velocity": 0.4645669291338583
        },
        {
          "duration": 0.33159689062503617,
          "durationTicks": 382,
          "midi": 51,
          "name": "D#3",
          "ticks": 202564,
          "time": 175.83662971874998,
          "velocity": 0.47244094488188976
        },
        {
          "duration": 0.33506910937498446,
          "durationTicks": 386,
          "midi": 51,
          "name": "D#3",
          "ticks": 202946,
          "time": 176.168226609375,
          "velocity": 0.47244094488188976
        },
        {
          "duration": 0.33159689062500775,
          "durationTicks": 382,
          "midi": 46,
          "name": "A#2",
          "ticks": 203332,
          "time": 176.50329571875,
          "velocity": 0.48031496062992124
        },
        {
          "duration": 0.33506910937498446,
          "durationTicks": 386,
          "midi": 50,
          "name": "D3",
          "ticks": 203714,
          "time": 176.834892609375,
          "velocity": 0.48031496062992124
        },
        {
          "duration": 0.33159689062500775,
          "durationTicks": 382,
          "midi": 51,
          "name": "D#3",
          "ticks": 204100,
          "time": 177.16996171875,
          "velocity": 0.48031496062992124
        },
        {
          "duration": 0.33506910937498446,
          "durationTicks": 386,
          "midi": 46,
          "name": "A#2",
          "ticks": 204482,
          "time": 177.501558609375,
          "velocity": 0.4881889763779528
        },
        {
          "duration": 0.33159689062503617,
          "durationTicks": 382,
          "midi": 42,
          "name": "F#2",
          "ticks": 204868,
          "time": 177.83662771874998,
          "velocity": 0.4881889763779528
        },
        {
          "duration": 0.33506910937495604,
          "durationTicks": 386,
          "midi": 46,
          "name": "A#2",
          "ticks": 205250,
          "time": 178.16822460937502,
          "velocity": 0.49606299212598426
        },
        {
          "duration": 0.33159689062503617,
          "durationTicks": 382,
          "midi": 39,
          "name": "D#2",
          "ticks": 205636,
          "time": 178.50329371874997,
          "velocity": 0.44881889763779526
        },
        {
          "duration": 0.33506910937498446,
          "durationTicks": 386,
          "midi": 42,
          "name": "F#2",
          "ticks": 206018,
          "time": 178.834890609375,
          "velocity": 0.44881889763779526
        },
        {
          "duration": 0.33159689062500775,
          "durationTicks": 382,
          "midi": 46,
          "name": "A#2",
          "ticks": 206404,
          "time": 179.16995971875,
          "velocity": 0.44881889763779526
        },
        {
          "duration": 0.33506910937498446,
          "durationTicks": 386,
          "midi": 38,
          "name": "D2",
          "ticks": 206786,
          "time": 179.501556609375,
          "velocity": 0.4566929133858268
        },
        {
          "duration": 0.33159689062503617,
          "durationTicks": 382,
          "midi": 39,
          "name": "D#2",
          "ticks": 207172,
          "time": 179.83662571874999,
          "velocity": 0.4566929133858268
        },
        {
          "duration": 0.33506910937495604,
          "durationTicks": 386,
          "midi": 46,
          "name": "A#2",
          "ticks": 207554,
          "time": 180.16822260937502,
          "velocity": 0.4645669291338583
        },
        {
          "duration": 0.33159689062503617,
          "durationTicks": 382,
          "midi": 42,
          "name": "F#2",
          "ticks": 207940,
          "time": 180.50329171874998,
          "velocity": 0.4645669291338583
        },
        {
          "duration": 0.33506910937495604,
          "durationTicks": 386,
          "midi": 46,
          "name": "A#2",
          "ticks": 208322,
          "time": 180.834888609375,
          "velocity": 0.4645669291338583
        },
        {
          "duration": 0.33159689062503617,
          "durationTicks": 382,
          "midi": 51,
          "name": "D#3",
          "ticks": 208708,
          "time": 181.16995771874997,
          "velocity": 0.47244094488188976
        },
        {
          "duration": 0.33506910937498446,
          "durationTicks": 386,
          "midi": 46,
          "name": "A#2",
          "ticks": 209090,
          "time": 181.501554609375,
          "velocity": 0.47244094488188976
        },
        {
          "duration": 0.33159689062500775,
          "durationTicks": 382,
          "midi": 42,
          "name": "F#2",
          "ticks": 209476,
          "time": 181.83662371875,
          "velocity": 0.48031496062992124
        },
        {
          "duration": 0.33506910937498446,
          "durationTicks": 386,
          "midi": 46,
          "name": "A#2",
          "ticks": 209858,
          "time": 182.168220609375,
          "velocity": 0.48031496062992124
        },
        {
          "duration": 0.33159689062503617,
          "durationTicks": 382,
          "midi": 50,
          "name": "D3",
          "ticks": 210244,
          "time": 182.50328971874998,
          "velocity": 0.48031496062992124
        },
        {
          "duration": 0.33506910937495604,
          "durationTicks": 386,
          "midi": 46,
          "name": "A#2",
          "ticks": 210626,
          "time": 182.83488660937502,
          "velocity": 0.4881889763779528
        },
        {
          "duration": 0.33159689062503617,
          "durationTicks": 382,
          "midi": 42,
          "name": "F#2",
          "ticks": 211012,
          "time": 183.16995571874997,
          "velocity": 0.4881889763779528
        },
        {
          "duration": 0.33506910937498446,
          "durationTicks": 386,
          "midi": 38,
          "name": "D2",
          "ticks": 211394,
          "time": 183.501552609375,
          "velocity": 0.49606299212598426
        },
        {
          "duration": 0.33159689062500775,
          "durationTicks": 382,
          "midi": 51,
          "name": "D#3",
          "ticks": 211780,
          "time": 183.83662171875,
          "velocity": 0.44881889763779526
        },
        {
          "duration": 0.33506910937498446,
          "durationTicks": 386,
          "midi": 46,
          "name": "A#2",
          "ticks": 212162,
          "time": 184.168218609375,
          "velocity": 0.44881889763779526
        },
        {
          "duration": 0.33159689062500775,
          "durationTicks": 382,
          "midi": 43,
          "name": "G2",
          "ticks": 212548,
          "time": 184.50328771875,
          "velocity": 0.44881889763779526
        },
        {
          "duration": 0.33506910937498446,
          "durationTicks": 386,
          "midi": 39,
          "name": "D#2",
          "ticks": 212930,
          "time": 184.834884609375,
          "velocity": 0.4566929133858268
        },
        {
          "duration": 0.6666659999999922,
          "durationTicks": 768,
          "midi": 38,
          "name": "D2",
          "ticks": 213316,
          "time": 185.16995371874998,
          "velocity": 0.4566929133858268
        },
        {
          "duration": 0.6666660000000206,
          "durationTicks": 768,
          "midi": 38,
          "name": "D2",
          "ticks": 214084,
          "time": 185.83661971874997,
          "velocity": 0.4645669291338583
        },
        {
          "duration": 0.44444399999997586,
          "durationTicks": 512,
          "midi": 37,
          "name": "C#2",
          "ticks": 215108,
          "time": 186.72550771875,
          "velocity": 0.47244094488188976
        },
        {
          "duration": 0.33159689062503617,
          "durationTicks": 382,
          "midi": 37,
          "name": "C#2",
          "ticks": 215620,
          "time": 187.16995171874999,
          "velocity": 0.48031496062992124
        },
        {
          "duration": 0.33506910937495604,
          "durationTicks": 386,
          "midi": 37,
          "name": "C#2",
          "ticks": 216002,
          "time": 187.50154860937502,
          "velocity": 0.48031496062992124
        },
        {
          "duration": 0.33159689062503617,
          "durationTicks": 382,
          "midi": 37,
          "name": "C#2",
          "ticks": 216388,
          "time": 187.83661771874998,
          "velocity": 0.48031496062992124
        },
        {
          "duration": 0.33506910937495604,
          "durationTicks": 386,
          "midi": 44,
          "name": "G#2",
          "ticks": 216770,
          "time": 188.168214609375,
          "velocity": 0.4881889763779528
        },
        {
          "duration": 0.33159689062503617,
          "durationTicks": 382,
          "midi": 41,
          "name": "F2",
          "ticks": 217156,
          "time": 188.50328371874997,
          "velocity": 0.4881889763779528
        },
        {
          "duration": 0.33506910937498446,
          "durationTicks": 386,
          "midi": 44,
          "name": "G#2",
          "ticks": 217538,
          "time": 188.834880609375,
          "velocity": 0.49606299212598426
        },
        {
          "duration": 0.33159689062500775,
          "durationTicks": 382,
          "midi": 37,
          "name": "C#2",
          "ticks": 217924,
          "time": 189.16994971875,
          "velocity": 0.44881889763779526
        },
        {
          "duration": 0.33506910937498446,
          "durationTicks": 386,
          "midi": 32,
          "name": "G#1",
          "ticks": 218306,
          "time": 189.501546609375,
          "velocity": 0.44881889763779526
        },
        {
          "duration": 0.33159689062503617,
          "durationTicks": 382,
          "midi": 29,
          "name": "F1",
          "ticks": 218692,
          "time": 189.83661571874998,
          "velocity": 0.4566929133858268
        },
        {
          "duration": 0.33506910937495604,
          "durationTicks": 386,
          "midi": 32,
          "name": "G#1",
          "ticks": 219074,
          "time": 190.16821260937502,
          "velocity": 0.4645669291338583
        },
        {
          "duration": 0.5538188906250241,
          "durationTicks": 638,
          "midi": 37,
          "name": "C#2",
          "ticks": 219460,
          "time": 190.50328171874997,
          "velocity": 0.47244094488188976
        },
        {
          "duration": 0.4444440000000043,
          "durationTicks": 512,
          "midi": 37,
          "name": "C#2",
          "ticks": 220098,
          "time": 191.057100609375,
          "velocity": 0.48031496062992124
        },
        {
          "duration": 0.1475692968749911,
          "durationTicks": 170,
          "midi": 37,
          "name": "C#2",
          "ticks": 220610,
          "time": 191.501544609375,
          "velocity": 0.49606299212598426
        }
      ]
    },
    {
      "channel": 2,
      "controlChanges": {
        "0": [
          {
            "number": 0,
            "ticks": 328,
            "time": 0.28472193749999997,
            "value": 0
          }
        ],
        "6": [
          {
            "number": 6,
            "ticks": 1028,
            "time": 0.89236021875,
            "value": 0.015748031496062992
          },
          {
            "number": 6,
            "ticks": 1040,
            "time": 0.902776875,
            "value": 0.5039370078740157
          }
        ],
        "7": [
          {
            "number": 7,
            "ticks": 332,
            "time": 0.28819415625,
            "value": 1
          }
        ],
        "10": [
          {
            "number": 10,
            "ticks": 336,
            "time": 0.291666375,
            "value": 0.2992125984251969
          }
        ],
        "11": [
          {
            "number": 11,
            "ticks": 340,
            "time": 0.29513859374999996,
            "value": 1
          }
        ],
        "32": [
          {
            "number": 32,
            "ticks": 328,
            "time": 0.28472193749999997,
            "value": 0
          }
        ],
        "91": [
          {
            "number": 91,
            "ticks": 344,
            "time": 0.2986108125,
            "value": 0.7086614173228346
          }
        ],
        "93": [
          {
            "number": 93,
            "ticks": 348,
            "time": 0.30208303124999997,
            "value": 0
          }
        ],
        "100": [
          {
            "number": 100,
            "ticks": 1024,
            "time": 0.8888879999999999,
            "value": 0
          },
          {
            "number": 100,
            "ticks": 1036,
            "time": 0.8993046562499999,
            "value": 0.015748031496062992
          },
          {
            "number": 100,
            "ticks": 1048,
            "time": 0.9097213124999999,
            "value": 1
          }
        ],
        "101": [
          {
            "number": 101,
            "ticks": 1020,
            "time": 0.88541578125,
            "value": 0
          },
          {
            "number": 101,
            "ticks": 1032,
            "time": 0.8958324375,
            "value": 0
          },
          {
            "number": 101,
            "ticks": 1044,
            "time": 0.90624909375,
            "value": 1
          }
        ],
        "121": [
          {
            "number": 121,
            "ticks": 200,
            "time": 0.1736109375,
            "value": 0
          }
        ]
      },
      "pitchBends": [],
      "instrument": {
        "family": "piano",
        "name": "acoustic grand piano",
        "number": 0
      },
      "name": "",
      "notes": [
        {
          "duration": 0.49999949999999993,
          "durationTicks": 576,
          "midi": 61,
          "name": "C#4",
          "ticks": 2880,
          "time": 2.4999975,
          "velocity": 0.41732283464566927
        },
        {
          "duration": 0.49999949999999993,
          "durationTicks": 576,
          "midi": 58,
          "name": "A#3",
          "ticks": 2880,
          "time": 2.4999975,
          "velocity": 0.41732283464566927
        },
        {
          "duration": 0.49999949999999993,
          "durationTicks": 576,
          "midi": 53,
          "name": "F3",
          "ticks": 2880,
          "time": 2.4999975,
          "velocity": 0.41732283464566927
        },
        {
          "duration": 0.49999949999999993,
          "durationTicks": 576,
          "midi": 56,
          "name": "G#3",
          "ticks": 2880,
          "time": 2.4999975,
          "velocity": 0.41732283464566927
        },
        {
          "duration": 0.16666649999999983,
          "durationTicks": 192,
          "midi": 53,
          "name": "F3",
          "ticks": 3536,
          "time": 3.0694413750000002,
          "velocity": 0.5196850393700787
        },
        {
          "duration": 0.16666649999999983,
          "durationTicks": 192,
          "midi": 56,
          "name": "G#3",
          "ticks": 3536,
          "time": 3.0694413750000002,
          "velocity": 0.5196850393700787
        },
        {
          "duration": 0.16666649999999983,
          "durationTicks": 192,
          "midi": 61,
          "name": "C#4",
          "ticks": 3536,
          "time": 3.0694413750000002,
          "velocity": 0.5196850393700787
        },
        {
          "duration": 0.16666649999999983,
          "durationTicks": 192,
          "midi": 58,
          "name": "A#3",
          "ticks": 3536,
          "time": 3.0694413750000002,
          "velocity": 0.5196850393700787
        },
        {
          "duration": 0.22222199999999992,
          "durationTicks": 256,
          "midi": 68,
          "name": "G#4",
          "ticks": 4032,
          "time": 3.4999965,
          "velocity": 0.36220472440944884
        },
        {
          "duration": 0.22222199999999992,
          "durationTicks": 256,
          "midi": 59,
          "name": "B3",
          "ticks": 4032,
          "time": 3.4999965,
          "velocity": 0.36220472440944884
        },
        {
          "duration": 0.22222199999999992,
          "durationTicks": 256,
          "midi": 62,
          "name": "D4",
          "ticks": 4032,
          "time": 3.4999965,
          "velocity": 0.36220472440944884
        },
        {
          "duration": 0.22222199999999992,
          "durationTicks": 256,
          "midi": 53,
          "name": "F3",
          "ticks": 4032,
          "time": 3.4999965,
          "velocity": 0.36220472440944884
        },
        {
          "duration": 0.49999949999999993,
          "durationTicks": 576,
          "midi": 66,
          "name": "F#4",
          "ticks": 4416,
          "time": 3.8333295,
          "velocity": 0.41732283464566927
        },
        {
          "duration": 0.49999949999999993,
          "durationTicks": 576,
          "midi": 61,
          "name": "C#4",
          "ticks": 4416,
          "time": 3.8333295,
          "velocity": 0.41732283464566927
        },
        {
          "duration": 0.49999949999999993,
          "durationTicks": 576,
          "midi": 51,
          "name": "D#3",
          "ticks": 4416,
          "time": 3.8333295,
          "velocity": 0.41732283464566927
        },
        {
          "duration": 0.49999949999999993,
          "durationTicks": 576,
          "midi": 58,
          "name": "A#3",
          "ticks": 4416,
          "time": 3.8333295,
          "velocity": 0.41732283464566927
        },
        {
          "duration": 0.16666650000000072,
          "durationTicks": 192,
          "midi": 58,
          "name": "A#3",
          "ticks": 5072,
          "time": 4.402773375,
          "velocity": 0.5196850393700787
        },
        {
          "duration": 0.16666650000000072,
          "durationTicks": 192,
          "midi": 61,
          "name": "C#4",
          "ticks": 5072,
          "time": 4.402773375,
          "velocity": 0.5196850393700787
        },
        {
          "duration": 0.16666650000000072,
          "durationTicks": 192,
          "midi": 66,
          "name": "F#4",
          "ticks": 5072,
          "time": 4.402773375,
          "velocity": 0.5196850393700787
        },
        {
          "duration": 0.16666650000000072,
          "durationTicks": 192,
          "midi": 51,
          "name": "D#3",
          "ticks": 5072,
          "time": 4.402773375,
          "velocity": 0.5196850393700787
        },
        {
          "duration": 0.22222200000000036,
          "durationTicks": 256,
          "midi": 68,
          "name": "G#4",
          "ticks": 5568,
          "time": 4.8333284999999995,
          "velocity": 0.36220472440944884
        },
        {
          "duration": 0.22222200000000036,
          "durationTicks": 256,
          "midi": 53,
          "name": "F3",
          "ticks": 5568,
          "time": 4.8333284999999995,
          "velocity": 0.36220472440944884
        },
        {
          "duration": 0.22222200000000036,
          "durationTicks": 256,
          "midi": 59,
          "name": "B3",
          "ticks": 5568,
          "time": 4.8333284999999995,
          "velocity": 0.36220472440944884
        },
        {
          "duration": 0.22222200000000036,
          "durationTicks": 256,
          "midi": 63,
          "name": "D#4",
          "ticks": 5568,
          "time": 4.8333284999999995,
          "velocity": 0.36220472440944884
        },
        {
          "duration": 0.4999994999999995,
          "durationTicks": 576,
          "midi": 61,
          "name": "C#4",
          "ticks": 5952,
          "time": 5.1666615,
          "velocity": 0.41732283464566927
        },
        {
          "duration": 0.4999994999999995,
          "durationTicks": 576,
          "midi": 53,
          "name": "F3",
          "ticks": 5952,
          "time": 5.1666615,
          "velocity": 0.41732283464566927
        },
        {
          "duration": 0.4999994999999995,
          "durationTicks": 576,
          "midi": 68,
          "name": "G#4",
          "ticks": 5952,
          "time": 5.1666615,
          "velocity": 0.41732283464566927
        },
        {
          "duration": 0.4999994999999995,
          "durationTicks": 576,
          "midi": 58,
          "name": "A#3",
          "ticks": 5952,
          "time": 5.1666615,
          "velocity": 0.41732283464566927
        },
        {
          "duration": 0.08333324999999991,
          "durationTicks": 96,
          "midi": 56,
          "name": "G#3",
          "ticks": 6608,
          "time": 5.736105374999999,
          "velocity": 0.5196850393700787
        },
        {
          "duration": 0.08333324999999991,
          "durationTicks": 96,
          "midi": 71,
          "name": "B4",
          "ticks": 6608,
          "time": 5.736105374999999,
          "velocity": 0.5196850393700787
        },
        {
          "duration": 0.08333324999999991,
          "durationTicks": 96,
          "midi": 66,
          "name": "F#4",
          "ticks": 6608,
          "time": 5.736105374999999,
          "velocity": 0.5196850393700787
        },
        {
          "duration": 0.08333324999999991,
          "durationTicks": 96,
          "midi": 63,
          "name": "D#4",
          "ticks": 6608,
          "time": 5.736105374999999,
          "velocity": 0.5196850393700787
        },
        {
          "duration": 0.22222200000000036,
          "durationTicks": 256,
          "midi": 68,
          "name": "G#4",
          "ticks": 7104,
          "time": 6.1666605,
          "velocity": 0.36220472440944884
        },
        {
          "duration": 0.22222200000000036,
          "durationTicks": 256,
          "midi": 73,
          "name": "C#5",
          "ticks": 7104,
          "time": 6.1666605,
          "velocity": 0.36220472440944884
        },
        {
          "duration": 0.22222200000000036,
          "durationTicks": 256,
          "midi": 65,
          "name": "F4",
          "ticks": 7104,
          "time": 6.1666605,
          "velocity": 0.36220472440944884
        },
        {
          "duration": 0.22222200000000036,
          "durationTicks": 256,
          "midi": 58,
          "name": "A#3",
          "ticks": 7104,
          "time": 6.1666605,
          "velocity": 0.36220472440944884
        },
        {
          "duration": 0.5833327500000003,
          "durationTicks": 672,
          "midi": 73,
          "name": "C#5",
          "ticks": 7488,
          "time": 6.4999934999999995,
          "velocity": 0.4015748031496063
        },
        {
          "duration": 0.5833327500000003,
          "durationTicks": 672,
          "midi": 66,
          "name": "F#4",
          "ticks": 7488,
          "time": 6.4999934999999995,
          "velocity": 0.4015748031496063
        },
        {
          "duration": 0.5833327500000003,
          "durationTicks": 672,
          "midi": 63,
          "name": "D#4",
          "ticks": 7488,
          "time": 6.4999934999999995,
          "velocity": 0.4015748031496063
        },
        {
          "duration": 0.5833327500000003,
          "durationTicks": 672,
          "midi": 58,
          "name": "A#3",
          "ticks": 7488,
          "time": 6.4999934999999995,
          "velocity": 0.4015748031496063
        },
        {
          "duration": 0.2777775,
          "durationTicks": 320,
          "midi": 58,
          "name": "A#3",
          "ticks": 8256,
          "time": 7.1666595,
          "velocity": 0.41732283464566927
        },
        {
          "duration": 0.2777775,
          "durationTicks": 320,
          "midi": 66,
          "name": "F#4",
          "ticks": 8256,
          "time": 7.1666595,
          "velocity": 0.41732283464566927
        },
        {
          "duration": 0.2777775,
          "durationTicks": 320,
          "midi": 63,
          "name": "D#4",
          "ticks": 8256,
          "time": 7.1666595,
          "velocity": 0.41732283464566927
        },
        {
          "duration": 0.2777775,
          "durationTicks": 320,
          "midi": 73,
          "name": "C#5",
          "ticks": 8256,
          "time": 7.1666595,
          "velocity": 0.41732283464566927
        },
        {
          "duration": 0.0833332500000008,
          "durationTicks": 96,
          "midi": 63,
          "name": "D#4",
          "ticks": 8896,
          "time": 7.7222145,
          "velocity": 0.41732283464566927
        },
        {
          "duration": 0.0833332500000008,
          "durationTicks": 96,
          "midi": 59,
          "name": "B3",
          "ticks": 8896,
          "time": 7.7222145,
          "velocity": 0.41732283464566927
        },
        {
          "duration": 0.0833332500000008,
          "durationTicks": 96,
          "midi": 56,
          "name": "G#3",
          "ticks": 8896,
          "time": 7.7222145,
          "velocity": 0.41732283464566927
        },
        {
          "duration": 0.0833332500000008,
          "durationTicks": 96,
          "midi": 54,
          "name": "F#3",
          "ticks": 8896,
          "time": 7.7222145,
          "velocity": 0.41732283464566927
        },
        {
          "duration": 0.09722212499999827,
          "durationTicks": 112,
          "midi": 56,
          "name": "G#3",
          "ticks": 9664,
          "time": 8.3888805,
          "velocity": 0.5196850393700787
        },
        {
          "duration": 0.09722212499999827,
          "durationTicks": 112,
          "midi": 63,
          "name": "D#4",
          "ticks": 9664,
          "time": 8.3888805,
          "velocity": 0.5196850393700787
        },
        {
          "duration": 0.09722212499999827,
          "durationTicks": 112,
          "midi": 53,
          "name": "F3",
          "ticks": 9664,
          "time": 8.3888805,
          "velocity": 0.5196850393700787
        },
        {
          "duration": 0.09722212499999827,
          "durationTicks": 112,
          "midi": 59,
          "name": "B3",
          "ticks": 9664,
          "time": 8.3888805,
          "velocity": 0.5196850393700787
        },
        {
          "duration": 0.22222200000000036,
          "durationTicks": 256,
          "midi": 63,
          "name": "D#4",
          "ticks": 10176,
          "time": 8.8333245,
          "velocity": 0.36220472440944884
        },
        {
          "duration": 0.22222200000000036,
          "durationTicks": 256,
          "midi": 56,
          "name": "G#3",
          "ticks": 10176,
          "time": 8.8333245,
          "velocity": 0.36220472440944884
        },
        {
          "duration": 0.22222200000000036,
          "durationTicks": 256,
          "midi": 54,
          "name": "F#3",
          "ticks": 10176,
          "time": 8.8333245,
          "velocity": 0.36220472440944884
        },
        {
          "duration": 0.22222200000000036,
          "durationTicks": 256,
          "midi": 59,
          "name": "B3",
          "ticks": 10176,
          "time": 8.8333245,
          "velocity": 0.36220472440944884
        },
        {
          "duration": 0.0833332500000008,
          "durationTicks": 96,
          "midi": 37,
          "name": "C#2",
          "ticks": 11216,
          "time": 9.736101374999999,
          "velocity": 0.2755905511811024
        },
        {
          "duration": 0.18055537499999907,
          "durationTicks": 208,
          "midi": 68,
          "name": "G#4",
          "ticks": 11328,
          "time": 9.8333235,
          "velocity": 0.3858267716535433
        },
        {
          "duration": 0.18055537499999907,
          "durationTicks": 208,
          "midi": 62,
          "name": "D4",
          "ticks": 11328,
          "time": 9.8333235,
          "velocity": 0.3858267716535433
        },
        {
          "duration": 0.18055537499999907,
          "durationTicks": 208,
          "midi": 59,
          "name": "B3",
          "ticks": 11328,
          "time": 9.8333235,
          "velocity": 0.3858267716535433
        },
        {
          "duration": 0.18055537499999907,
          "durationTicks": 208,
          "midi": 53,
          "name": "F3",
          "ticks": 11328,
          "time": 9.8333235,
          "velocity": 0.3858267716535433
        },
        {
          "duration": 0.22222200000000036,
          "durationTicks": 256,
          "midi": 59,
          "name": "B3",
          "ticks": 11712,
          "time": 10.1666565,
          "velocity": 0.4566929133858268
        },
        {
          "duration": 0.22222200000000036,
          "durationTicks": 256,
          "midi": 53,
          "name": "F3",
          "ticks": 11712,
          "time": 10.1666565,
          "velocity": 0.4566929133858268
        },
        {
          "duration": 0.22222200000000036,
          "durationTicks": 256,
          "midi": 62,
          "name": "D4",
          "ticks": 11712,
          "time": 10.1666565,
          "velocity": 0.4566929133858268
        },
        {
          "duration": 0.22222200000000036,
          "durationTicks": 256,
          "midi": 68,
          "name": "G#4",
          "ticks": 11712,
          "time": 10.1666565,
          "velocity": 0.4566929133858268
        },
        {
          "duration": 0.4999994999999995,
          "durationTicks": 576,
          "midi": 66,
          "name": "F#4",
          "ticks": 12096,
          "time": 10.4999895,
          "velocity": 0.41732283464566927
        },
        {
          "duration": 0.4999994999999995,
          "durationTicks": 576,
          "midi": 61,
          "name": "C#4",
          "ticks": 12096,
          "time": 10.4999895,
          "velocity": 0.41732283464566927
        },
        {
          "duration": 0.4999994999999995,
          "durationTicks": 576,
          "midi": 51,
          "name": "D#3",
          "ticks": 12096,
          "time": 10.4999895,
          "velocity": 0.41732283464566927
        },
        {
          "duration": 0.4999994999999995,
          "durationTicks": 576,
          "midi": 58,
          "name": "A#3",
          "ticks": 12096,
          "time": 10.4999895,
          "velocity": 0.41732283464566927
        },
        {
          "duration": 0.08333324999999903,
          "durationTicks": 96,
          "midi": 68,
          "name": "G#4",
          "ticks": 12752,
          "time": 11.069433375000001,
          "velocity": 0.5196850393700787
        },
        {
          "duration": 0.08333324999999903,
          "durationTicks": 96,
          "midi": 59,
          "name": "B3",
          "ticks": 12752,
          "time": 11.069433375000001,
          "velocity": 0.5196850393700787
        },
        {
          "duration": 0.08333324999999903,
          "durationTicks": 96,
          "midi": 63,
          "name": "D#4",
          "ticks": 12752,
          "time": 11.069433375000001,
          "velocity": 0.5196850393700787
        },
        {
          "duration": 0.08333324999999903,
          "durationTicks": 96,
          "midi": 54,
          "name": "F#3",
          "ticks": 12752,
          "time": 11.069433375000001,
          "velocity": 0.5196850393700787
        },
        {
          "duration": 0.22222200000000036,
          "durationTicks": 256,
          "midi": 53,
          "name": "F3",
          "ticks": 13248,
          "time": 11.499988499999999,
          "velocity": 0.36220472440944884
        },
        {
          "duration": 0.22222200000000036,
          "durationTicks": 256,
          "midi": 59,
          "name": "B3",
          "ticks": 13248,
          "time": 11.499988499999999,
          "velocity": 0.36220472440944884
        },
        {
          "duration": 0.22222200000000036,
          "durationTicks": 256,
          "midi": 70,
          "name": "A#4",
          "ticks": 13248,
          "time": 11.499988499999999,
          "velocity": 0.36220472440944884
        },
        {
          "duration": 0.22222200000000036,
          "durationTicks": 256,
          "midi": 62,
          "name": "D4",
          "ticks": 13248,
          "time": 11.499988499999999,
          "velocity": 0.36220472440944884
        },
        {
          "duration": 0.2222219999999986,
          "durationTicks": 256,
          "midi": 51,
          "name": "D#3",
          "ticks": 13632,
          "time": 11.8333215,
          "velocity": 0.36220472440944884
        },
        {
          "duration": 0.2222219999999986,
          "durationTicks": 256,
          "midi": 58,
          "name": "A#3",
          "ticks": 13632,
          "time": 11.8333215,
          "velocity": 0.36220472440944884
        },
        {
          "duration": 0.2222219999999986,
          "durationTicks": 256,
          "midi": 66,
          "name": "F#4",
          "ticks": 13632,
          "time": 11.8333215,
          "velocity": 0.36220472440944884
        },
        {
          "duration": 0.2222219999999986,
          "durationTicks": 256,
          "midi": 61,
          "name": "C#4",
          "ticks": 13632,
          "time": 11.8333215,
          "velocity": 0.36220472440944884
        },
        {
          "duration": 0.4999994999999995,
          "durationTicks": 576,
          "midi": 69,
          "name": "A4",
          "ticks": 14016,
          "time": 12.1666545,
          "velocity": 0.41732283464566927
        },
        {
          "duration": 0.4999994999999995,
          "durationTicks": 576,
          "midi": 53,
          "name": "F3",
          "ticks": 14016,
          "time": 12.1666545,
          "velocity": 0.41732283464566927
        },
        {
          "duration": 0.4999994999999995,
          "durationTicks": 576,
          "midi": 61,
          "name": "C#4",
          "ticks": 14016,
          "time": 12.1666545,
          "velocity": 0.41732283464566927
        },
        {
          "duration": 0.4999994999999995,
          "durationTicks": 576,
          "midi": 62,
          "name": "D4",
          "ticks": 14016,
          "time": 12.1666545,
          "velocity": 0.41732283464566927
        },
        {
          "duration": 0.16666649999999983,
          "durationTicks": 192,
          "midi": 61,
          "name": "C#4",
          "ticks": 14672,
          "time": 12.736098375000001,
          "velocity": 0.5196850393700787
        },
        {
          "duration": 0.16666649999999983,
          "durationTicks": 192,
          "midi": 69,
          "name": "A4",
          "ticks": 14672,
          "time": 12.736098375000001,
          "velocity": 0.5196850393700787
        },
        {
          "duration": 0.16666649999999983,
          "durationTicks": 192,
          "midi": 53,
          "name": "F3",
          "ticks": 14672,
          "time": 12.736098375000001,
          "velocity": 0.5196850393700787
        },
        {
          "duration": 0.16666649999999983,
          "durationTicks": 192,
          "midi": 62,
          "name": "D4",
          "ticks": 14672,
          "time": 12.736098375000001,
          "velocity": 0.5196850393700787
        },
        {
          "duration": 0.49999950000000126,
          "durationTicks": 576,
          "midi": 51,
          "name": "D#3",
          "ticks": 15168,
          "time": 13.166653499999999,
          "velocity": 0.41732283464566927
        },
        {
          "duration": 0.49999950000000126,
          "durationTicks": 576,
          "midi": 54,
          "name": "F#3",
          "ticks": 15168,
          "time": 13.166653499999999,
          "velocity": 0.41732283464566927
        },
        {
          "duration": 0.49999950000000126,
          "durationTicks": 576,
          "midi": 61,
          "name": "C#4",
          "ticks": 15168,
          "time": 13.166653499999999,
          "velocity": 0.41732283464566927
        },
        {
          "duration": 0.49999950000000126,
          "durationTicks": 576,
          "midi": 58,
          "name": "A#3",
          "ticks": 15168,
          "time": 13.166653499999999,
          "velocity": 0.41732283464566927
        },
        {
          "duration": 0.16666649999999983,
          "durationTicks": 192,
          "midi": 51,
          "name": "D#3",
          "ticks": 15824,
          "time": 13.736097375,
          "velocity": 0.5196850393700787
        },
        {
          "duration": 0.16666649999999983,
          "durationTicks": 192,
          "midi": 61,
          "name": "C#4",
          "ticks": 15824,
          "time": 13.736097375,
          "velocity": 0.5196850393700787
        },
        {
          "duration": 0.16666649999999983,
          "durationTicks": 192,
          "midi": 54,
          "name": "F#3",
          "ticks": 15824,
          "time": 13.736097375,
          "velocity": 0.5196850393700787
        },
        {
          "duration": 0.16666649999999983,
          "durationTicks": 192,
          "midi": 58,
          "name": "A#3",
          "ticks": 15824,
          "time": 13.736097375,
          "velocity": 0.5196850393700787
        },
        {
          "duration": 0.2222219999999986,
          "durationTicks": 256,
          "midi": 59,
          "name": "B3",
          "ticks": 16320,
          "time": 14.1666525,
          "velocity": 0.36220472440944884
        },
        {
          "duration": 0.2222219999999986,
          "durationTicks": 256,
          "midi": 62,
          "name": "D4",
          "ticks": 16320,
          "time": 14.1666525,
          "velocity": 0.36220472440944884
        },
        {
          "duration": 0.2222219999999986,
          "durationTicks": 256,
          "midi": 68,
          "name": "G#4",
          "ticks": 16320,
          "time": 14.1666525,
          "velocity": 0.36220472440944884
        },
        {
          "duration": 0.2222219999999986,
          "durationTicks": 256,
          "midi": 53,
          "name": "F3",
          "ticks": 16320,
          "time": 14.1666525,
          "velocity": 0.36220472440944884
        },
        {
          "duration": 0.4999994999999995,
          "durationTicks": 576,
          "midi": 61,
          "name": "C#4",
          "ticks": 16704,
          "time": 14.4999855,
          "velocity": 0.41732283464566927
        },
        {
          "duration": 0.4999994999999995,
          "durationTicks": 576,
          "midi": 66,
          "name": "F#4",
          "ticks": 16704,
          "time": 14.4999855,
          "velocity": 0.41732283464566927
        },
        {
          "duration": 0.4999994999999995,
          "durationTicks": 576,
          "midi": 58,
          "name": "A#3",
          "ticks": 16704,
          "time": 14.4999855,
          "velocity": 0.41732283464566927
        },
        {
          "duration": 0.4999994999999995,
          "durationTicks": 576,
          "midi": 51,
          "name": "D#3",
          "ticks": 16704,
          "time": 14.4999855,
          "velocity": 0.41732283464566927
        },
        {
          "duration": 0.16666649999999983,
          "durationTicks": 192,
          "midi": 61,
          "name": "C#4",
          "ticks": 17360,
          "time": 15.069429375,
          "velocity": 0.5196850393700787
        },
        {
          "duration": 0.16666649999999983,
          "durationTicks": 192,
          "midi": 66,
          "name": "F#4",
          "ticks": 17360,
          "time": 15.069429375,
          "velocity": 0.5196850393700787
        },
        {
          "duration": 0.16666649999999983,
          "durationTicks": 192,
          "midi": 51,
          "name": "D#3",
          "ticks": 17360,
          "time": 15.069429375,
          "velocity": 0.5196850393700787
        },
        {
          "duration": 0.16666649999999983,
          "durationTicks": 192,
          "midi": 58,
          "name": "A#3",
          "ticks": 17360,
          "time": 15.069429375,
          "velocity": 0.5196850393700787
        },
        {
          "duration": 0.2222219999999986,
          "durationTicks": 256,
          "midi": 56,
          "name": "G#3",
          "ticks": 17856,
          "time": 15.4999845,
          "velocity": 0.36220472440944884
        },
        {
          "duration": 0.2222219999999986,
          "durationTicks": 256,
          "midi": 59,
          "name": "B3",
          "ticks": 17856,
          "time": 15.4999845,
          "velocity": 0.36220472440944884
        },
        {
          "duration": 0.2222219999999986,
          "durationTicks": 256,
          "midi": 53,
          "name": "F3",
          "ticks": 17856,
          "time": 15.4999845,
          "velocity": 0.36220472440944884
        },
        {
          "duration": 0.2222219999999986,
          "durationTicks": 256,
          "midi": 63,
          "name": "D#4",
          "ticks": 17856,
          "time": 15.4999845,
          "velocity": 0.36220472440944884
        },
        {
          "duration": 0.49999950000000126,
          "durationTicks": 576,
          "midi": 53,
          "name": "F3",
          "ticks": 18240,
          "time": 15.8333175,
          "velocity": 0.41732283464566927
        },
        {
          "duration": 0.49999950000000126,
          "durationTicks": 576,
          "midi": 61,
          "name": "C#4",
          "ticks": 18240,
          "time": 15.8333175,
          "velocity": 0.41732283464566927
        },
        {
          "duration": 0.49999950000000126,
          "durationTicks": 576,
          "midi": 56,
          "name": "G#3",
          "ticks": 18240,
          "time": 15.8333175,
          "velocity": 0.41732283464566927
        },
        {
          "duration": 0.49999950000000126,
          "durationTicks": 576,
          "midi": 58,
          "name": "A#3",
          "ticks": 18240,
          "time": 15.8333175,
          "velocity": 0.41732283464566927
        },
        {
          "duration": 0.08333324999999903,
          "durationTicks": 96,
          "midi": 66,
          "name": "F#4",
          "ticks": 18896,
          "time": 16.402761375,
          "velocity": 0.5196850393700787
        },
        {
          "duration": 0.08333324999999903,
          "durationTicks": 96,
          "midi": 71,
          "name": "B4",
          "ticks": 18896,
          "time": 16.402761375,
          "velocity": 0.5196850393700787
        },
        {
          "duration": 0.08333324999999903,
          "durationTicks": 96,
          "midi": 63,
          "name": "D#4",
          "ticks": 18896,
          "time": 16.402761375,
          "velocity": 0.5196850393700787
        },
        {
          "duration": 0.08333324999999903,
          "durationTicks": 96,
          "midi": 56,
          "name": "G#3",
          "ticks": 18896,
          "time": 16.402761375,
          "velocity": 0.5196850393700787
        },
        {
          "duration": 0.2222219999999986,
          "durationTicks": 256,
          "midi": 73,
          "name": "C#5",
          "ticks": 19392,
          "time": 16.8333165,
          "velocity": 0.36220472440944884
        },
        {
          "duration": 0.2222219999999986,
          "durationTicks": 256,
          "midi": 68,
          "name": "G#4",
          "ticks": 19392,
          "time": 16.8333165,
          "velocity": 0.36220472440944884
        },
        {
          "duration": 0.2222219999999986,
          "durationTicks": 256,
          "midi": 65,
          "name": "F4",
          "ticks": 19392,
          "time": 16.8333165,
          "velocity": 0.36220472440944884
        },
        {
          "duration": 0.2222219999999986,
          "durationTicks": 256,
          "midi": 58,
          "name": "A#3",
          "ticks": 19392,
          "time": 16.8333165,
          "velocity": 0.36220472440944884
        },
        {
          "duration": 1.3333320000000022,
          "durationTicks": 1536,
          "midi": 65,
          "name": "F4",
          "ticks": 19776,
          "time": 17.1666495,
          "velocity": 0.41732283464566927
        },
        {
          "duration": 1.3333320000000022,
          "durationTicks": 1536,
          "midi": 55,
          "name": "G3",
          "ticks": 19776,
          "time": 17.1666495,
          "velocity": 0.41732283464566927
        },
        {
          "duration": 1.3333320000000022,
          "durationTicks": 1536,
          "midi": 61,
          "name": "C#4",
          "ticks": 19776,
          "time": 17.1666495,
          "velocity": 0.41732283464566927
        },
        {
          "duration": 1.3333320000000022,
          "durationTicks": 1536,
          "midi": 70,
          "name": "A#4",
          "ticks": 19776,
          "time": 17.1666495,
          "velocity": 0.41732283464566927
        },
        {
          "duration": 0.08333324999999903,
          "durationTicks": 96,
          "midi": 44,
          "name": "G#2",
          "ticks": 21968,
          "time": 19.069425375,
          "velocity": 0.2755905511811024
        },
        {
          "duration": 0.1805553749999973,
          "durationTicks": 208,
          "midi": 61,
          "name": "C#4",
          "ticks": 22080,
          "time": 19.1666475,
          "velocity": 0.3858267716535433
        },
        {
          "duration": 0.1805553749999973,
          "durationTicks": 208,
          "midi": 63,
          "name": "D#4",
          "ticks": 22080,
          "time": 19.1666475,
          "velocity": 0.3858267716535433
        },
        {
          "duration": 0.1805553749999973,
          "durationTicks": 208,
          "midi": 54,
          "name": "F#3",
          "ticks": 22080,
          "time": 19.1666475,
          "velocity": 0.3858267716535433
        },
        {
          "duration": 0.1805553749999973,
          "durationTicks": 208,
          "midi": 58,
          "name": "A#3",
          "ticks": 22080,
          "time": 19.1666475,
          "velocity": 0.3858267716535433
        },
        {
          "duration": 0.2222219999999986,
          "durationTicks": 256,
          "midi": 63,
          "name": "D#4",
          "ticks": 22464,
          "time": 19.4999805,
          "velocity": 0.4566929133858268
        },
        {
          "duration": 0.2222219999999986,
          "durationTicks": 256,
          "midi": 58,
          "name": "A#3",
          "ticks": 22464,
          "time": 19.4999805,
          "velocity": 0.4566929133858268
        },
        {
          "duration": 0.2222219999999986,
          "durationTicks": 256,
          "midi": 61,
          "name": "C#4",
          "ticks": 22464,
          "time": 19.4999805,
          "velocity": 0.4566929133858268
        },
        {
          "duration": 0.2222219999999986,
          "durationTicks": 256,
          "midi": 54,
          "name": "F#3",
          "ticks": 22464,
          "time": 19.4999805,
          "velocity": 0.4566929133858268
        },
        {
          "duration": 0.2222219999999986,
          "durationTicks": 256,
          "midi": 54,
          "name": "F#3",
          "ticks": 22848,
          "time": 19.8333135,
          "velocity": 0.36220472440944884
        },
        {
          "duration": 0.2222219999999986,
          "durationTicks": 256,
          "midi": 61,
          "name": "C#4",
          "ticks": 22848,
          "time": 19.8333135,
          "velocity": 0.36220472440944884
        },
        {
          "duration": 0.2222219999999986,
          "durationTicks": 256,
          "midi": 63,
          "name": "D#4",
          "ticks": 22848,
          "time": 19.8333135,
          "velocity": 0.36220472440944884
        },
        {
          "duration": 0.2222219999999986,
          "durationTicks": 256,
          "midi": 70,
          "name": "A#4",
          "ticks": 22848,
          "time": 19.8333135,
          "velocity": 0.36220472440944884
        },
        {
          "duration": 0.49999950000000126,
          "durationTicks": 576,
          "midi": 59,
          "name": "B3",
          "ticks": 23232,
          "time": 20.1666465,
          "velocity": 0.41732283464566927
        },
        {
          "duration": 0.49999950000000126,
          "durationTicks": 576,
          "midi": 56,
          "name": "G#3",
          "ticks": 23232,
          "time": 20.1666465,
          "velocity": 0.41732283464566927
        },
        {
          "duration": 0.49999950000000126,
          "durationTicks": 576,
          "midi": 53,
          "name": "F3",
          "ticks": 23232,
          "time": 20.1666465,
          "velocity": 0.41732283464566927
        },
        {
          "duration": 0.49999950000000126,
          "durationTicks": 576,
          "midi": 62,
          "name": "D4",
          "ticks": 23232,
          "time": 20.1666465,
          "velocity": 0.41732283464566927
        },
        {
          "duration": 0.1666665000000016,
          "durationTicks": 192,
          "midi": 62,
          "name": "D4",
          "ticks": 24000,
          "time": 20.833312499999998,
          "velocity": 0.5196850393700787
        },
        {
          "duration": 0.1666665000000016,
          "durationTicks": 192,
          "midi": 59,
          "name": "B3",
          "ticks": 24000,
          "time": 20.833312499999998,
          "velocity": 0.5196850393700787
        },
        {
          "duration": 0.1666665000000016,
          "durationTicks": 192,
          "midi": 57,
          "name": "A3",
          "ticks": 24000,
          "time": 20.833312499999998,
          "velocity": 0.5196850393700787
        },
        {
          "duration": 0.1666665000000016,
          "durationTicks": 192,
          "midi": 53,
          "name": "F3",
          "ticks": 24000,
          "time": 20.833312499999998,
          "velocity": 0.5196850393700787
        },
        {
          "duration": 1.3333320000000022,
          "durationTicks": 1536,
          "midi": 51,
          "name": "D#3",
          "ticks": 24384,
          "time": 21.166645499999998,
          "velocity": 0.41732283464566927
        },
        {
          "duration": 1.3333320000000022,
          "durationTicks": 1536,
          "midi": 58,
          "name": "A#3",
          "ticks": 24384,
          "time": 21.166645499999998,
          "velocity": 0.41732283464566927
        },
        {
          "duration": 1.3333320000000022,
          "durationTicks": 1536,
          "midi": 61,
          "name": "C#4",
          "ticks": 24384,
          "time": 21.166645499999998,
          "velocity": 0.41732283464566927
        },
        {
          "duration": 1.3333320000000022,
          "durationTicks": 1536,
          "midi": 66,
          "name": "F#4",
          "ticks": 24384,
          "time": 21.166645499999998,
          "velocity": 0.41732283464566927
        },
        {
          "duration": 0.2743052812500011,
          "durationTicks": 316,
          "midi": 69,
          "name": "A4",
          "ticks": 25920,
          "time": 22.4999775,
          "velocity": 0.41732283464566927
        },
        {
          "duration": 0.2743052812500011,
          "durationTicks": 316,
          "midi": 62,
          "name": "D4",
          "ticks": 25920,
          "time": 22.4999775,
          "velocity": 0.41732283464566927
        },
        {
          "duration": 0.2743052812500011,
          "durationTicks": 316,
          "midi": 59,
          "name": "B3",
          "ticks": 25920,
          "time": 22.4999775,
          "velocity": 0.41732283464566927
        },
        {
          "duration": 0.2743052812500011,
          "durationTicks": 316,
          "midi": 54,
          "name": "F#3",
          "ticks": 25920,
          "time": 22.4999775,
          "velocity": 0.41732283464566927
        },
        {
          "duration": 0.08333325000000258,
          "durationTicks": 96,
          "midi": 38,
          "name": "D2",
          "ticks": 28112,
          "time": 24.402753374999996,
          "velocity": 0.2755905511811024
        },
        {
          "duration": 0.1805553750000044,
          "durationTicks": 208,
          "midi": 69,
          "name": "A4",
          "ticks": 28224,
          "time": 24.499975499999998,
          "velocity": 0.3858267716535433
        },
        {
          "duration": 0.1805553750000044,
          "durationTicks": 208,
          "midi": 62,
          "name": "D4",
          "ticks": 28224,
          "time": 24.499975499999998,
          "velocity": 0.3858267716535433
        },
        {
          "duration": 0.1805553750000044,
          "durationTicks": 208,
          "midi": 54,
          "name": "F#3",
          "ticks": 28224,
          "time": 24.499975499999998,
          "velocity": 0.3858267716535433
        },
        {
          "duration": 0.1805553750000044,
          "durationTicks": 208,
          "midi": 59,
          "name": "B3",
          "ticks": 28224,
          "time": 24.499975499999998,
          "velocity": 0.3858267716535433
        },
        {
          "duration": 0.055555500000000535,
          "durationTicks": 64,
          "midi": 38,
          "name": "D2",
          "ticks": 28496,
          "time": 24.736086375,
          "velocity": 0.2755905511811024
        },
        {
          "duration": 0.22222200000000214,
          "durationTicks": 256,
          "midi": 69,
          "name": "A4",
          "ticks": 28608,
          "time": 24.833308499999998,
          "velocity": 0.4566929133858268
        },
        {
          "duration": 0.22222200000000214,
          "durationTicks": 256,
          "midi": 59,
          "name": "B3",
          "ticks": 28608,
          "time": 24.833308499999998,
          "velocity": 0.4566929133858268
        },
        {
          "duration": 0.22222200000000214,
          "durationTicks": 256,
          "midi": 54,
          "name": "F#3",
          "ticks": 28608,
          "time": 24.833308499999998,
          "velocity": 0.4566929133858268
        },
        {
          "duration": 0.22222200000000214,
          "durationTicks": 256,
          "midi": 62,
          "name": "D4",
          "ticks": 28608,
          "time": 24.833308499999998,
          "velocity": 0.4566929133858268
        },
        {
          "duration": 0.08333324999999903,
          "durationTicks": 96,
          "midi": 43,
          "name": "G2",
          "ticks": 29648,
          "time": 25.736085375,
          "velocity": 0.2755905511811024
        },
        {
          "duration": 0.18055537500000085,
          "durationTicks": 208,
          "midi": 53,
          "name": "F3",
          "ticks": 29760,
          "time": 25.8333075,
          "velocity": 0.3858267716535433
        },
        {
          "duration": 0.18055537500000085,
          "durationTicks": 208,
          "midi": 64,
          "name": "E4",
          "ticks": 29760,
          "time": 25.8333075,
          "velocity": 0.3858267716535433
        },
        {
          "duration": 0.18055537500000085,
          "durationTicks": 208,
          "midi": 57,
          "name": "A3",
          "ticks": 29760,
          "time": 25.8333075,
          "velocity": 0.3858267716535433
        },
        {
          "duration": 0.18055537500000085,
          "durationTicks": 208,
          "midi": 59,
          "name": "B3",
          "ticks": 29760,
          "time": 25.8333075,
          "velocity": 0.3858267716535433
        },
        {
          "duration": 0.055555500000000535,
          "durationTicks": 64,
          "midi": 43,
          "name": "G2",
          "ticks": 30032,
          "time": 26.069418374999998,
          "velocity": 0.13385826771653545
        },
        {
          "duration": 0.22222200000000214,
          "durationTicks": 256,
          "midi": 64,
          "name": "E4",
          "ticks": 30144,
          "time": 26.1666405,
          "velocity": 0.4566929133858268
        },
        {
          "duration": 0.22222200000000214,
          "durationTicks": 256,
          "midi": 53,
          "name": "F3",
          "ticks": 30144,
          "time": 26.1666405,
          "velocity": 0.4566929133858268
        },
        {
          "duration": 0.22222200000000214,
          "durationTicks": 256,
          "midi": 59,
          "name": "B3",
          "ticks": 30144,
          "time": 26.1666405,
          "velocity": 0.4566929133858268
        },
        {
          "duration": 0.22222200000000214,
          "durationTicks": 256,
          "midi": 57,
          "name": "A3",
          "ticks": 30144,
          "time": 26.1666405,
          "velocity": 0.4566929133858268
        },
        {
          "duration": 0.1666665000000016,
          "durationTicks": 192,
          "midi": 55,
          "name": "G3",
          "ticks": 30528,
          "time": 26.4999735,
          "velocity": 0.41732283464566927
        },
        {
          "duration": 0.1666665000000016,
          "durationTicks": 192,
          "midi": 64,
          "name": "E4",
          "ticks": 30528,
          "time": 26.4999735,
          "velocity": 0.41732283464566927
        },
        {
          "duration": 0.1666665000000016,
          "durationTicks": 192,
          "midi": 61,
          "name": "C#4",
          "ticks": 30528,
          "time": 26.4999735,
          "velocity": 0.41732283464566927
        },
        {
          "duration": 0.1666665000000016,
          "durationTicks": 192,
          "midi": 69,
          "name": "A4",
          "ticks": 30528,
          "time": 26.4999735,
          "velocity": 0.41732283464566927
        },
        {
          "duration": 0.08333324999999903,
          "durationTicks": 96,
          "midi": 65,
          "name": "F4",
          "ticks": 31184,
          "time": 27.069417374999997,
          "velocity": 0.5196850393700787
        },
        {
          "duration": 0.08333324999999903,
          "durationTicks": 96,
          "midi": 55,
          "name": "G3",
          "ticks": 31184,
          "time": 27.069417374999997,
          "velocity": 0.5196850393700787
        },
        {
          "duration": 0.08333324999999903,
          "durationTicks": 96,
          "midi": 69,
          "name": "A4",
          "ticks": 31184,
          "time": 27.069417374999997,
          "velocity": 0.5196850393700787
        },
        {
          "duration": 0.08333324999999903,
          "durationTicks": 96,
          "midi": 61,
          "name": "C#4",
          "ticks": 31184,
          "time": 27.069417374999997,
          "velocity": 0.5196850393700787
        },
        {
          "duration": 0.09722212499999827,
          "durationTicks": 112,
          "midi": 69,
          "name": "A4",
          "ticks": 31936,
          "time": 27.7221945,
          "velocity": 0.5196850393700787
        },
        {
          "duration": 0.09722212499999827,
          "durationTicks": 112,
          "midi": 61,
          "name": "C#4",
          "ticks": 31936,
          "time": 27.7221945,
          "velocity": 0.5196850393700787
        },
        {
          "duration": 0.09722212499999827,
          "durationTicks": 112,
          "midi": 54,
          "name": "F#3",
          "ticks": 31936,
          "time": 27.7221945,
          "velocity": 0.5196850393700787
        },
        {
          "duration": 0.09722212499999827,
          "durationTicks": 112,
          "midi": 64,
          "name": "E4",
          "ticks": 31936,
          "time": 27.7221945,
          "velocity": 0.5196850393700787
        },
        {
          "duration": 0.1666665000000016,
          "durationTicks": 192,
          "midi": 69,
          "name": "A4",
          "ticks": 32448,
          "time": 28.166638499999998,
          "velocity": 0.41732283464566927
        },
        {
          "duration": 0.1666665000000016,
          "durationTicks": 192,
          "midi": 59,
          "name": "B3",
          "ticks": 32448,
          "time": 28.166638499999998,
          "velocity": 0.41732283464566927
        },
        {
          "duration": 0.1666665000000016,
          "durationTicks": 192,
          "midi": 54,
          "name": "F#3",
          "ticks": 32448,
          "time": 28.166638499999998,
          "velocity": 0.41732283464566927
        },
        {
          "duration": 0.1666665000000016,
          "durationTicks": 192,
          "midi": 62,
          "name": "D4",
          "ticks": 32448,
          "time": 28.166638499999998,
          "velocity": 0.41732283464566927
        },
        {
          "duration": 0.16666649999999805,
          "durationTicks": 192,
          "midi": 59,
          "name": "B3",
          "ticks": 33104,
          "time": 28.736082375,
          "velocity": 0.5196850393700787
        },
        {
          "duration": 0.16666649999999805,
          "durationTicks": 192,
          "midi": 62,
          "name": "D4",
          "ticks": 33104,
          "time": 28.736082375,
          "velocity": 0.5196850393700787
        },
        {
          "duration": 0.16666649999999805,
          "durationTicks": 192,
          "midi": 69,
          "name": "A4",
          "ticks": 33104,
          "time": 28.736082375,
          "velocity": 0.5196850393700787
        },
        {
          "duration": 0.16666649999999805,
          "durationTicks": 192,
          "midi": 54,
          "name": "F#3",
          "ticks": 33104,
          "time": 28.736082375,
          "velocity": 0.5196850393700787
        },
        {
          "duration": 1.3333319999999986,
          "durationTicks": 1536,
          "midi": 66,
          "name": "F#4",
          "ticks": 33600,
          "time": 29.1666375,
          "velocity": 0.41732283464566927
        },
        {
          "duration": 1.3333319999999986,
          "durationTicks": 1536,
          "midi": 56,
          "name": "G#3",
          "ticks": 33600,
          "time": 29.1666375,
          "velocity": 0.41732283464566927
        },
        {
          "duration": 1.3333319999999986,
          "durationTicks": 1536,
          "midi": 62,
          "name": "D4",
          "ticks": 33600,
          "time": 29.1666375,
          "velocity": 0.41732283464566927
        },
        {
          "duration": 1.3333319999999986,
          "durationTicks": 1536,
          "midi": 71,
          "name": "B4",
          "ticks": 33600,
          "time": 29.1666375,
          "velocity": 0.41732283464566927
        },
        {
          "duration": 0.49999950000000126,
          "durationTicks": 576,
          "midi": 56,
          "name": "G#3",
          "ticks": 35136,
          "time": 30.4999695,
          "velocity": 0.41732283464566927
        },
        {
          "duration": 0.49999950000000126,
          "durationTicks": 576,
          "midi": 62,
          "name": "D4",
          "ticks": 35136,
          "time": 30.4999695,
          "velocity": 0.41732283464566927
        },
        {
          "duration": 0.49999950000000126,
          "durationTicks": 576,
          "midi": 59,
          "name": "B3",
          "ticks": 35136,
          "time": 30.4999695,
          "velocity": 0.41732283464566927
        },
        {
          "duration": 0.49999950000000126,
          "durationTicks": 576,
          "midi": 66,
          "name": "F#4",
          "ticks": 35136,
          "time": 30.4999695,
          "velocity": 0.41732283464566927
        },
        {
          "duration": 0.1666665000000016,
          "durationTicks": 192,
          "midi": 62,
          "name": "D4",
          "ticks": 35792,
          "time": 31.069413374999996,
          "velocity": 0.5196850393700787
        },
        {
          "duration": 0.1666665000000016,
          "durationTicks": 192,
          "midi": 59,
          "name": "B3",
          "ticks": 35792,
          "time": 31.069413374999996,
          "velocity": 0.5196850393700787
        },
        {
          "duration": 0.1666665000000016,
          "durationTicks": 192,
          "midi": 56,
          "name": "G#3",
          "ticks": 35792,
          "time": 31.069413374999996,
          "velocity": 0.5196850393700787
        },
        {
          "duration": 0.1666665000000016,
          "durationTicks": 192,
          "midi": 66,
          "name": "F#4",
          "ticks": 35792,
          "time": 31.069413374999996,
          "velocity": 0.5196850393700787
        },
        {
          "duration": 0.22222200000000214,
          "durationTicks": 256,
          "midi": 55,
          "name": "G3",
          "ticks": 36288,
          "time": 31.499968499999998,
          "velocity": 0.36220472440944884
        },
        {
          "duration": 0.22222200000000214,
          "durationTicks": 256,
          "midi": 61,
          "name": "C#4",
          "ticks": 36288,
          "time": 31.499968499999998,
          "velocity": 0.36220472440944884
        },
        {
          "duration": 0.22222200000000214,
          "durationTicks": 256,
          "midi": 71,
          "name": "B4",
          "ticks": 36288,
          "time": 31.499968499999998,
          "velocity": 0.36220472440944884
        },
        {
          "duration": 0.22222200000000214,
          "durationTicks": 256,
          "midi": 66,
          "name": "F#4",
          "ticks": 36288,
          "time": 31.499968499999998,
          "velocity": 0.36220472440944884
        },
        {
          "duration": 0.1666665000000016,
          "durationTicks": 192,
          "midi": 59,
          "name": "B3",
          "ticks": 36544,
          "time": 31.7221905,
          "velocity": 0.41732283464566927
        },
        {
          "duration": 0.1666665000000016,
          "durationTicks": 192,
          "midi": 55,
          "name": "G3",
          "ticks": 36544,
          "time": 31.7221905,
          "velocity": 0.41732283464566927
        },
        {
          "duration": 0.1666665000000016,
          "durationTicks": 192,
          "midi": 61,
          "name": "C#4",
          "ticks": 36544,
          "time": 31.7221905,
          "velocity": 0.41732283464566927
        },
        {
          "duration": 0.1666665000000016,
          "durationTicks": 192,
          "midi": 66,
          "name": "F#4",
          "ticks": 36544,
          "time": 31.7221905,
          "velocity": 0.41732283464566927
        },
        {
          "duration": 0.08333325000000258,
          "durationTicks": 96,
          "midi": 57,
          "name": "A3",
          "ticks": 37440,
          "time": 32.4999675,
          "velocity": 0.5196850393700787
        },
        {
          "duration": 0.08333325000000258,
          "durationTicks": 96,
          "midi": 70,
          "name": "A#4",
          "ticks": 37440,
          "time": 32.4999675,
          "velocity": 0.5196850393700787
        },
        {
          "duration": 0.08333325000000258,
          "durationTicks": 96,
          "midi": 61,
          "name": "C#4",
          "ticks": 37440,
          "time": 32.4999675,
          "velocity": 0.5196850393700787
        },
        {
          "duration": 0.08333325000000258,
          "durationTicks": 96,
          "midi": 65,
          "name": "F4",
          "ticks": 37440,
          "time": 32.4999675,
          "velocity": 0.5196850393700787
        },
        {
          "duration": 0.22222199999999503,
          "durationTicks": 256,
          "midi": 69,
          "name": "A4",
          "ticks": 38080,
          "time": 33.0555225,
          "velocity": 0.36220472440944884
        },
        {
          "duration": 0.22222199999999503,
          "durationTicks": 256,
          "midi": 54,
          "name": "F#3",
          "ticks": 38080,
          "time": 33.0555225,
          "velocity": 0.36220472440944884
        },
        {
          "duration": 0.22222199999999503,
          "durationTicks": 256,
          "midi": 59,
          "name": "B3",
          "ticks": 38080,
          "time": 33.0555225,
          "velocity": 0.36220472440944884
        },
        {
          "duration": 0.22222199999999503,
          "durationTicks": 256,
          "midi": 64,
          "name": "E4",
          "ticks": 38080,
          "time": 33.0555225,
          "velocity": 0.36220472440944884
        },
        {
          "duration": 0.49999949999999416,
          "durationTicks": 576,
          "midi": 69,
          "name": "A4",
          "ticks": 39744,
          "time": 34.4999655,
          "velocity": 0.41732283464566927
        },
        {
          "duration": 0.49999949999999416,
          "durationTicks": 576,
          "midi": 59,
          "name": "B3",
          "ticks": 39744,
          "time": 34.4999655,
          "velocity": 0.41732283464566927
        },
        {
          "duration": 0.49999949999999416,
          "durationTicks": 576,
          "midi": 62,
          "name": "D4",
          "ticks": 39744,
          "time": 34.4999655,
          "velocity": 0.41732283464566927
        },
        {
          "duration": 0.49999949999999416,
          "durationTicks": 576,
          "midi": 54,
          "name": "F#3",
          "ticks": 39744,
          "time": 34.4999655,
          "velocity": 0.41732283464566927
        },
        {
          "duration": 0.16666649999999805,
          "durationTicks": 192,
          "midi": 59,
          "name": "B3",
          "ticks": 40400,
          "time": 35.069409375,
          "velocity": 0.5196850393700787
        },
        {
          "duration": 0.16666649999999805,
          "durationTicks": 192,
          "midi": 69,
          "name": "A4",
          "ticks": 40400,
          "time": 35.069409375,
          "velocity": 0.5196850393700787
        },
        {
          "duration": 0.16666649999999805,
          "durationTicks": 192,
          "midi": 54,
          "name": "F#3",
          "ticks": 40400,
          "time": 35.069409375,
          "velocity": 0.5196850393700787
        },
        {
          "duration": 0.16666649999999805,
          "durationTicks": 192,
          "midi": 62,
          "name": "D4",
          "ticks": 40400,
          "time": 35.069409375,
          "velocity": 0.5196850393700787
        },
        {
          "duration": 0.22222200000000214,
          "durationTicks": 256,
          "midi": 61,
          "name": "C#4",
          "ticks": 40896,
          "time": 35.4999645,
          "velocity": 0.36220472440944884
        },
        {
          "duration": 0.22222200000000214,
          "durationTicks": 256,
          "midi": 58,
          "name": "A#3",
          "ticks": 40896,
          "time": 35.4999645,
          "velocity": 0.36220472440944884
        },
        {
          "duration": 0.22222200000000214,
          "durationTicks": 256,
          "midi": 64,
          "name": "E4",
          "ticks": 40896,
          "time": 35.4999645,
          "velocity": 0.36220472440944884
        },
        {
          "duration": 0.22222200000000214,
          "durationTicks": 256,
          "midi": 55,
          "name": "G3",
          "ticks": 40896,
          "time": 35.4999645,
          "velocity": 0.36220472440944884
        },
        {
          "duration": 0.16666649999999805,
          "durationTicks": 192,
          "midi": 54,
          "name": "F#3",
          "ticks": 41280,
          "time": 35.8332975,
          "velocity": 0.41732283464566927
        },
        {
          "duration": 0.16666649999999805,
          "durationTicks": 192,
          "midi": 69,
          "name": "A4",
          "ticks": 41280,
          "time": 35.8332975,
          "velocity": 0.41732283464566927
        },
        {
          "duration": 0.16666649999999805,
          "durationTicks": 192,
          "midi": 62,
          "name": "D4",
          "ticks": 41280,
          "time": 35.8332975,
          "velocity": 0.41732283464566927
        },
        {
          "duration": 0.16666649999999805,
          "durationTicks": 192,
          "midi": 59,
          "name": "B3",
          "ticks": 41280,
          "time": 35.8332975,
          "velocity": 0.41732283464566927
        },
        {
          "duration": 0.16666649999999805,
          "durationTicks": 192,
          "midi": 69,
          "name": "A4",
          "ticks": 41936,
          "time": 36.402741375,
          "velocity": 0.5196850393700787
        },
        {
          "duration": 0.16666649999999805,
          "durationTicks": 192,
          "midi": 54,
          "name": "F#3",
          "ticks": 41936,
          "time": 36.402741375,
          "velocity": 0.5196850393700787
        },
        {
          "duration": 0.16666649999999805,
          "durationTicks": 192,
          "midi": 59,
          "name": "B3",
          "ticks": 41936,
          "time": 36.402741375,
          "velocity": 0.5196850393700787
        },
        {
          "duration": 0.16666649999999805,
          "durationTicks": 192,
          "midi": 62,
          "name": "D4",
          "ticks": 41936,
          "time": 36.402741375,
          "velocity": 0.5196850393700787
        },
        {
          "duration": 0.22222200000000214,
          "durationTicks": 256,
          "midi": 62,
          "name": "D4",
          "ticks": 42432,
          "time": 36.833296499999996,
          "velocity": 0.36220472440944884
        },
        {
          "duration": 0.22222200000000214,
          "durationTicks": 256,
          "midi": 59,
          "name": "B3",
          "ticks": 42432,
          "time": 36.833296499999996,
          "velocity": 0.36220472440944884
        },
        {
          "duration": 0.22222200000000214,
          "durationTicks": 256,
          "midi": 64,
          "name": "E4",
          "ticks": 42432,
          "time": 36.833296499999996,
          "velocity": 0.36220472440944884
        },
        {
          "duration": 0.22222200000000214,
          "durationTicks": 256,
          "midi": 55,
          "name": "G3",
          "ticks": 42432,
          "time": 36.833296499999996,
          "velocity": 0.36220472440944884
        },
        {
          "duration": 0.49999950000000126,
          "durationTicks": 576,
          "midi": 61,
          "name": "C#4",
          "ticks": 42816,
          "time": 37.1666295,
          "velocity": 0.41732283464566927
        },
        {
          "duration": 0.49999950000000126,
          "durationTicks": 576,
          "midi": 64,
          "name": "E4",
          "ticks": 42816,
          "time": 37.1666295,
          "velocity": 0.41732283464566927
        },
        {
          "duration": 0.49999950000000126,
          "durationTicks": 576,
          "midi": 54,
          "name": "F#3",
          "ticks": 42816,
          "time": 37.1666295,
          "velocity": 0.41732283464566927
        },
        {
          "duration": 0.49999950000000126,
          "durationTicks": 576,
          "midi": 69,
          "name": "A4",
          "ticks": 42816,
          "time": 37.1666295,
          "velocity": 0.41732283464566927
        },
        {
          "duration": 0.08333325000000258,
          "durationTicks": 96,
          "midi": 52,
          "name": "E3",
          "ticks": 43472,
          "time": 37.736073375,
          "velocity": 0.5196850393700787
        },
        {
          "duration": 0.08333325000000258,
          "durationTicks": 96,
          "midi": 67,
          "name": "G4",
          "ticks": 43472,
          "time": 37.736073375,
          "velocity": 0.5196850393700787
        },
        {
          "duration": 0.08333325000000258,
          "durationTicks": 96,
          "midi": 62,
          "name": "D4",
          "ticks": 43472,
          "time": 37.736073375,
          "velocity": 0.5196850393700787
        },
        {
          "duration": 0.08333325000000258,
          "durationTicks": 96,
          "midi": 59,
          "name": "B3",
          "ticks": 43472,
          "time": 37.736073375,
          "velocity": 0.5196850393700787
        },
        {
          "duration": 0.22222200000000214,
          "durationTicks": 256,
          "midi": 64,
          "name": "E4",
          "ticks": 43968,
          "time": 38.1666285,
          "velocity": 0.36220472440944884
        },
        {
          "duration": 0.22222200000000214,
          "durationTicks": 256,
          "midi": 54,
          "name": "F#3",
          "ticks": 43968,
          "time": 38.1666285,
          "velocity": 0.36220472440944884
        },
        {
          "duration": 0.22222200000000214,
          "durationTicks": 256,
          "midi": 61,
          "name": "C#4",
          "ticks": 43968,
          "time": 38.1666285,
          "velocity": 0.36220472440944884
        },
        {
          "duration": 0.22222200000000214,
          "durationTicks": 256,
          "midi": 69,
          "name": "A4",
          "ticks": 43968,
          "time": 38.1666285,
          "velocity": 0.36220472440944884
        },
        {
          "duration": 0.5833327500000038,
          "durationTicks": 672,
          "midi": 69,
          "name": "A4",
          "ticks": 44352,
          "time": 38.4999615,
          "velocity": 0.4015748031496063
        },
        {
          "duration": 0.5833327500000038,
          "durationTicks": 672,
          "midi": 62,
          "name": "D4",
          "ticks": 44352,
          "time": 38.4999615,
          "velocity": 0.4015748031496063
        },
        {
          "duration": 0.5833327500000038,
          "durationTicks": 672,
          "midi": 54,
          "name": "F#3",
          "ticks": 44352,
          "time": 38.4999615,
          "velocity": 0.4015748031496063
        },
        {
          "duration": 0.5833327500000038,
          "durationTicks": 672,
          "midi": 59,
          "name": "B3",
          "ticks": 44352,
          "time": 38.4999615,
          "velocity": 0.4015748031496063
        },
        {
          "duration": 0.2777774999999991,
          "durationTicks": 320,
          "midi": 57,
          "name": "A3",
          "ticks": 45120,
          "time": 39.1666275,
          "velocity": 0.41732283464566927
        },
        {
          "duration": 0.2777774999999991,
          "durationTicks": 320,
          "midi": 59,
          "name": "B3",
          "ticks": 45120,
          "time": 39.1666275,
          "velocity": 0.41732283464566927
        },
        {
          "duration": 0.2777774999999991,
          "durationTicks": 320,
          "midi": 54,
          "name": "F#3",
          "ticks": 45120,
          "time": 39.1666275,
          "velocity": 0.41732283464566927
        },
        {
          "duration": 0.2777774999999991,
          "durationTicks": 320,
          "midi": 62,
          "name": "D4",
          "ticks": 45120,
          "time": 39.1666275,
          "velocity": 0.41732283464566927
        },
        {
          "duration": 0.08333324999999547,
          "durationTicks": 96,
          "midi": 67,
          "name": "G4",
          "ticks": 45760,
          "time": 39.7221825,
          "velocity": 0.41732283464566927
        },
        {
          "duration": 0.08333324999999547,
          "durationTicks": 96,
          "midi": 58,
          "name": "A#3",
          "ticks": 45760,
          "time": 39.7221825,
          "velocity": 0.41732283464566927
        },
        {
          "duration": 0.08333324999999547,
          "durationTicks": 96,
          "midi": 52,
          "name": "E3",
          "ticks": 45760,
          "time": 39.7221825,
          "velocity": 0.41732283464566927
        },
        {
          "duration": 0.08333324999999547,
          "durationTicks": 96,
          "midi": 60,
          "name": "C4",
          "ticks": 45760,
          "time": 39.7221825,
          "velocity": 0.41732283464566927
        },
        {
          "duration": 0.16666650000000516,
          "durationTicks": 192,
          "midi": 57,
          "name": "A3",
          "ticks": 46656,
          "time": 40.499959499999996,
          "velocity": 0.41732283464566927
        },
        {
          "duration": 0.16666650000000516,
          "durationTicks": 192,
          "midi": 71,
          "name": "B4",
          "ticks": 46656,
          "time": 40.499959499999996,
          "velocity": 0.41732283464566927
        },
        {
          "duration": 0.16666650000000516,
          "durationTicks": 192,
          "midi": 67,
          "name": "G4",
          "ticks": 46656,
          "time": 40.499959499999996,
          "velocity": 0.41732283464566927
        },
        {
          "duration": 0.16666650000000516,
          "durationTicks": 192,
          "midi": 63,
          "name": "D#4",
          "ticks": 46656,
          "time": 40.499959499999996,
          "velocity": 0.41732283464566927
        },
        {
          "duration": 0.08333324999999547,
          "durationTicks": 96,
          "midi": 64,
          "name": "E4",
          "ticks": 47312,
          "time": 41.069403375,
          "velocity": 0.5196850393700787
        },
        {
          "duration": 0.08333324999999547,
          "durationTicks": 96,
          "midi": 62,
          "name": "D4",
          "ticks": 47312,
          "time": 41.069403375,
          "velocity": 0.5196850393700787
        },
        {
          "duration": 0.08333324999999547,
          "durationTicks": 96,
          "midi": 70,
          "name": "A#4",
          "ticks": 47312,
          "time": 41.069403375,
          "velocity": 0.5196850393700787
        },
        {
          "duration": 0.08333324999999547,
          "durationTicks": 96,
          "midi": 56,
          "name": "G#3",
          "ticks": 47312,
          "time": 41.069403375,
          "velocity": 0.5196850393700787
        },
        {
          "duration": 0.49999949999999416,
          "durationTicks": 576,
          "midi": 61,
          "name": "C#4",
          "ticks": 48192,
          "time": 41.8332915,
          "velocity": 0.41732283464566927
        },
        {
          "duration": 0.49999949999999416,
          "durationTicks": 576,
          "midi": 55,
          "name": "G3",
          "ticks": 48192,
          "time": 41.8332915,
          "velocity": 0.41732283464566927
        },
        {
          "duration": 0.49999949999999416,
          "durationTicks": 576,
          "midi": 64,
          "name": "E4",
          "ticks": 48192,
          "time": 41.8332915,
          "velocity": 0.41732283464566927
        },
        {
          "duration": 0.49999949999999416,
          "durationTicks": 576,
          "midi": 69,
          "name": "A4",
          "ticks": 48192,
          "time": 41.8332915,
          "velocity": 0.41732283464566927
        },
        {
          "duration": 0.08333324999999547,
          "durationTicks": 96,
          "midi": 69,
          "name": "A4",
          "ticks": 48848,
          "time": 42.402735375,
          "velocity": 0.5196850393700787
        },
        {
          "duration": 0.08333324999999547,
          "durationTicks": 96,
          "midi": 54,
          "name": "F#3",
          "ticks": 48848,
          "time": 42.402735375,
          "velocity": 0.5196850393700787
        },
        {
          "duration": 0.08333324999999547,
          "durationTicks": 96,
          "midi": 59,
          "name": "B3",
          "ticks": 48848,
          "time": 42.402735375,
          "velocity": 0.5196850393700787
        },
        {
          "duration": 0.08333324999999547,
          "durationTicks": 96,
          "midi": 62,
          "name": "D4",
          "ticks": 48848,
          "time": 42.402735375,
          "velocity": 0.5196850393700787
        },
        {
          "duration": 0.09722212500000182,
          "durationTicks": 112,
          "midi": 55,
          "name": "G3",
          "ticks": 49600,
          "time": 43.0555125,
          "velocity": 0.5196850393700787
        },
        {
          "duration": 0.09722212500000182,
          "durationTicks": 112,
          "midi": 70,
          "name": "A#4",
          "ticks": 49600,
          "time": 43.0555125,
          "velocity": 0.5196850393700787
        },
        {
          "duration": 0.09722212500000182,
          "durationTicks": 112,
          "midi": 64,
          "name": "E4",
          "ticks": 49600,
          "time": 43.0555125,
          "velocity": 0.5196850393700787
        },
        {
          "duration": 0.09722212500000182,
          "durationTicks": 112,
          "midi": 61,
          "name": "C#4",
          "ticks": 49600,
          "time": 43.0555125,
          "velocity": 0.5196850393700787
        },
        {
          "duration": 0.22222200000000214,
          "durationTicks": 256,
          "midi": 61,
          "name": "C#4",
          "ticks": 50112,
          "time": 43.499956499999996,
          "velocity": 0.36220472440944884
        },
        {
          "duration": 0.22222200000000214,
          "durationTicks": 256,
          "midi": 58,
          "name": "A#3",
          "ticks": 50112,
          "time": 43.499956499999996,
          "velocity": 0.36220472440944884
        },
        {
          "duration": 0.22222200000000214,
          "durationTicks": 256,
          "midi": 55,
          "name": "G3",
          "ticks": 50112,
          "time": 43.499956499999996,
          "velocity": 0.36220472440944884
        },
        {
          "duration": 0.22222200000000214,
          "durationTicks": 256,
          "midi": 66,
          "name": "F#4",
          "ticks": 50112,
          "time": 43.499956499999996,
          "velocity": 0.36220472440944884
        },
        {
          "duration": 0.22222199999999503,
          "durationTicks": 256,
          "midi": 57,
          "name": "A3",
          "ticks": 50496,
          "time": 43.8332895,
          "velocity": 0.36220472440944884
        },
        {
          "duration": 0.22222199999999503,
          "durationTicks": 256,
          "midi": 54,
          "name": "F#3",
          "ticks": 50496,
          "time": 43.8332895,
          "velocity": 0.36220472440944884
        },
        {
          "duration": 0.22222199999999503,
          "durationTicks": 256,
          "midi": 62,
          "name": "D4",
          "ticks": 50496,
          "time": 43.8332895,
          "velocity": 0.36220472440944884
        },
        {
          "duration": 0.22222199999999503,
          "durationTicks": 256,
          "midi": 59,
          "name": "B3",
          "ticks": 50496,
          "time": 43.8332895,
          "velocity": 0.36220472440944884
        },
        {
          "duration": 0.49999950000000126,
          "durationTicks": 576,
          "midi": 57,
          "name": "A3",
          "ticks": 50880,
          "time": 44.166622499999995,
          "velocity": 0.41732283464566927
        },
        {
          "duration": 0.49999950000000126,
          "durationTicks": 576,
          "midi": 61,
          "name": "C#4",
          "ticks": 50880,
          "time": 44.166622499999995,
          "velocity": 0.41732283464566927
        },
        {
          "duration": 0.49999950000000126,
          "durationTicks": 576,
          "midi": 70,
          "name": "A#4",
          "ticks": 50880,
          "time": 44.166622499999995,
          "velocity": 0.41732283464566927
        },
        {
          "duration": 0.49999950000000126,
          "durationTicks": 576,
          "midi": 65,
          "name": "F4",
          "ticks": 50880,
          "time": 44.166622499999995,
          "velocity": 0.41732283464566927
        },
        {
          "duration": 0.16666650000000516,
          "durationTicks": 192,
          "midi": 70,
          "name": "A#4",
          "ticks": 51536,
          "time": 44.736066375,
          "velocity": 0.5196850393700787
        },
        {
          "duration": 0.16666650000000516,
          "durationTicks": 192,
          "midi": 65,
          "name": "F4",
          "ticks": 51536,
          "time": 44.736066375,
          "velocity": 0.5196850393700787
        },
        {
          "duration": 0.16666650000000516,
          "durationTicks": 192,
          "midi": 57,
          "name": "A3",
          "ticks": 51536,
          "time": 44.736066375,
          "velocity": 0.5196850393700787
        },
        {
          "duration": 0.16666650000000516,
          "durationTicks": 192,
          "midi": 61,
          "name": "C#4",
          "ticks": 51536,
          "time": 44.736066375,
          "velocity": 0.5196850393700787
        },
        {
          "duration": 0.16666649999999805,
          "durationTicks": 192,
          "midi": 59,
          "name": "B3",
          "ticks": 52032,
          "time": 45.1666215,
          "velocity": 0.41732283464566927
        },
        {
          "duration": 0.16666649999999805,
          "durationTicks": 192,
          "midi": 62,
          "name": "D4",
          "ticks": 52032,
          "time": 45.1666215,
          "velocity": 0.41732283464566927
        },
        {
          "duration": 0.16666649999999805,
          "durationTicks": 192,
          "midi": 69,
          "name": "A4",
          "ticks": 52032,
          "time": 45.1666215,
          "velocity": 0.41732283464566927
        },
        {
          "duration": 0.16666649999999805,
          "durationTicks": 192,
          "midi": 54,
          "name": "F#3",
          "ticks": 52032,
          "time": 45.1666215,
          "velocity": 0.41732283464566927
        },
        {
          "duration": 0.16666649999999805,
          "durationTicks": 192,
          "midi": 54,
          "name": "F#3",
          "ticks": 52688,
          "time": 45.736065375,
          "velocity": 0.5196850393700787
        },
        {
          "duration": 0.16666649999999805,
          "durationTicks": 192,
          "midi": 62,
          "name": "D4",
          "ticks": 52688,
          "time": 45.736065375,
          "velocity": 0.5196850393700787
        },
        {
          "duration": 0.16666649999999805,
          "durationTicks": 192,
          "midi": 59,
          "name": "B3",
          "ticks": 52688,
          "time": 45.736065375,
          "velocity": 0.5196850393700787
        },
        {
          "duration": 0.16666649999999805,
          "durationTicks": 192,
          "midi": 69,
          "name": "A4",
          "ticks": 52688,
          "time": 45.736065375,
          "velocity": 0.5196850393700787
        },
        {
          "duration": 0.22222199999999503,
          "durationTicks": 256,
          "midi": 61,
          "name": "C#4",
          "ticks": 53184,
          "time": 46.1666205,
          "velocity": 0.36220472440944884
        },
        {
          "duration": 0.22222199999999503,
          "durationTicks": 256,
          "midi": 70,
          "name": "A#4",
          "ticks": 53184,
          "time": 46.1666205,
          "velocity": 0.36220472440944884
        },
        {
          "duration": 0.22222199999999503,
          "durationTicks": 256,
          "midi": 64,
          "name": "E4",
          "ticks": 53184,
          "time": 46.1666205,
          "velocity": 0.36220472440944884
        },
        {
          "duration": 0.22222199999999503,
          "durationTicks": 256,
          "midi": 55,
          "name": "G3",
          "ticks": 53184,
          "time": 46.1666205,
          "velocity": 0.36220472440944884
        },
        {
          "duration": 0.49999950000000126,
          "durationTicks": 576,
          "midi": 69,
          "name": "A4",
          "ticks": 53568,
          "time": 46.4999535,
          "velocity": 0.41732283464566927
        },
        {
          "duration": 0.49999950000000126,
          "durationTicks": 576,
          "midi": 59,
          "name": "B3",
          "ticks": 53568,
          "time": 46.4999535,
          "velocity": 0.41732283464566927
        },
        {
          "duration": 0.49999950000000126,
          "durationTicks": 576,
          "midi": 62,
          "name": "D4",
          "ticks": 53568,
          "time": 46.4999535,
          "velocity": 0.41732283464566927
        },
        {
          "duration": 0.49999950000000126,
          "durationTicks": 576,
          "midi": 54,
          "name": "F#3",
          "ticks": 53568,
          "time": 46.4999535,
          "velocity": 0.41732283464566927
        },
        {
          "duration": 0.16666649999999805,
          "durationTicks": 192,
          "midi": 54,
          "name": "F#3",
          "ticks": 54224,
          "time": 47.069397375,
          "velocity": 0.5196850393700787
        },
        {
          "duration": 0.16666649999999805,
          "durationTicks": 192,
          "midi": 62,
          "name": "D4",
          "ticks": 54224,
          "time": 47.069397375,
          "velocity": 0.5196850393700787
        },
        {
          "duration": 0.16666649999999805,
          "durationTicks": 192,
          "midi": 69,
          "name": "A4",
          "ticks": 54224,
          "time": 47.069397375,
          "velocity": 0.5196850393700787
        },
        {
          "duration": 0.16666649999999805,
          "durationTicks": 192,
          "midi": 59,
          "name": "B3",
          "ticks": 54224,
          "time": 47.069397375,
          "velocity": 0.5196850393700787
        },
        {
          "duration": 0.22222199999999503,
          "durationTicks": 256,
          "midi": 61,
          "name": "C#4",
          "ticks": 54720,
          "time": 47.4999525,
          "velocity": 0.36220472440944884
        },
        {
          "duration": 0.22222199999999503,
          "durationTicks": 256,
          "midi": 70,
          "name": "A#4",
          "ticks": 54720,
          "time": 47.4999525,
          "velocity": 0.36220472440944884
        },
        {
          "duration": 0.22222199999999503,
          "durationTicks": 256,
          "midi": 64,
          "name": "E4",
          "ticks": 54720,
          "time": 47.4999525,
          "velocity": 0.36220472440944884
        },
        {
          "duration": 0.22222199999999503,
          "durationTicks": 256,
          "midi": 55,
          "name": "G3",
          "ticks": 54720,
          "time": 47.4999525,
          "velocity": 0.36220472440944884
        },
        {
          "duration": 0.49999950000000126,
          "durationTicks": 576,
          "midi": 54,
          "name": "F#3",
          "ticks": 55104,
          "time": 47.833285499999995,
          "velocity": 0.41732283464566927
        },
        {
          "duration": 0.49999950000000126,
          "durationTicks": 576,
          "midi": 69,
          "name": "A4",
          "ticks": 55104,
          "time": 47.833285499999995,
          "velocity": 0.41732283464566927
        },
        {
          "duration": 0.49999950000000126,
          "durationTicks": 576,
          "midi": 62,
          "name": "D4",
          "ticks": 55104,
          "time": 47.833285499999995,
          "velocity": 0.41732283464566927
        },
        {
          "duration": 0.49999950000000126,
          "durationTicks": 576,
          "midi": 59,
          "name": "B3",
          "ticks": 55104,
          "time": 47.833285499999995,
          "velocity": 0.41732283464566927
        },
        {
          "duration": 0.08333325000000258,
          "durationTicks": 96,
          "midi": 62,
          "name": "D4",
          "ticks": 55760,
          "time": 48.402729375,
          "velocity": 0.5196850393700787
        },
        {
          "duration": 0.08333325000000258,
          "durationTicks": 96,
          "midi": 52,
          "name": "E3",
          "ticks": 55760,
          "time": 48.402729375,
          "velocity": 0.5196850393700787
        },
        {
          "duration": 0.08333325000000258,
          "durationTicks": 96,
          "midi": 59,
          "name": "B3",
          "ticks": 55760,
          "time": 48.402729375,
          "velocity": 0.5196850393700787
        },
        {
          "duration": 0.08333325000000258,
          "durationTicks": 96,
          "midi": 55,
          "name": "G3",
          "ticks": 55760,
          "time": 48.402729375,
          "velocity": 0.5196850393700787
        },
        {
          "duration": 0.22222199999999503,
          "durationTicks": 256,
          "midi": 59,
          "name": "B3",
          "ticks": 56256,
          "time": 48.8332845,
          "velocity": 0.36220472440944884
        },
        {
          "duration": 0.22222199999999503,
          "durationTicks": 256,
          "midi": 69,
          "name": "A4",
          "ticks": 56256,
          "time": 48.8332845,
          "velocity": 0.36220472440944884
        },
        {
          "duration": 0.22222199999999503,
          "durationTicks": 256,
          "midi": 54,
          "name": "F#3",
          "ticks": 56256,
          "time": 48.8332845,
          "velocity": 0.36220472440944884
        },
        {
          "duration": 0.22222199999999503,
          "durationTicks": 256,
          "midi": 62,
          "name": "D4",
          "ticks": 56256,
          "time": 48.8332845,
          "velocity": 0.36220472440944884
        },
        {
          "duration": 0.49999949999999416,
          "durationTicks": 576,
          "midi": 73,
          "name": "C#5",
          "ticks": 56640,
          "time": 49.1666175,
          "velocity": 0.41732283464566927
        },
        {
          "duration": 0.49999949999999416,
          "durationTicks": 576,
          "midi": 57,
          "name": "A3",
          "ticks": 56640,
          "time": 49.1666175,
          "velocity": 0.41732283464566927
        },
        {
          "duration": 0.49999949999999416,
          "durationTicks": 576,
          "midi": 66,
          "name": "F#4",
          "ticks": 56640,
          "time": 49.1666175,
          "velocity": 0.41732283464566927
        },
        {
          "duration": 0.49999949999999416,
          "durationTicks": 576,
          "midi": 63,
          "name": "D#4",
          "ticks": 56640,
          "time": 49.1666175,
          "velocity": 0.41732283464566927
        },
        {
          "duration": 0.16666650000000516,
          "durationTicks": 192,
          "midi": 66,
          "name": "F#4",
          "ticks": 57296,
          "time": 49.736061375,
          "velocity": 0.5196850393700787
        },
        {
          "duration": 0.16666650000000516,
          "durationTicks": 192,
          "midi": 73,
          "name": "C#5",
          "ticks": 57296,
          "time": 49.736061375,
          "velocity": 0.5196850393700787
        },
        {
          "duration": 0.16666650000000516,
          "durationTicks": 192,
          "midi": 57,
          "name": "A3",
          "ticks": 57296,
          "time": 49.736061375,
          "velocity": 0.5196850393700787
        },
        {
          "duration": 0.16666650000000516,
          "durationTicks": 192,
          "midi": 63,
          "name": "D#4",
          "ticks": 57296,
          "time": 49.736061375,
          "velocity": 0.5196850393700787
        },
        {
          "duration": 0.22222200000000214,
          "durationTicks": 256,
          "midi": 57,
          "name": "A3",
          "ticks": 57792,
          "time": 50.166616499999996,
          "velocity": 0.36220472440944884
        },
        {
          "duration": 0.22222200000000214,
          "durationTicks": 256,
          "midi": 63,
          "name": "D#4",
          "ticks": 57792,
          "time": 50.166616499999996,
          "velocity": 0.36220472440944884
        },
        {
          "duration": 0.22222200000000214,
          "durationTicks": 256,
          "midi": 71,
          "name": "B4",
          "ticks": 57792,
          "time": 50.166616499999996,
          "velocity": 0.36220472440944884
        },
        {
          "duration": 0.22222200000000214,
          "durationTicks": 256,
          "midi": 67,
          "name": "G4",
          "ticks": 57792,
          "time": 50.166616499999996,
          "velocity": 0.36220472440944884
        },
        {
          "duration": 0.5833327499999967,
          "durationTicks": 672,
          "midi": 55,
          "name": "G3",
          "ticks": 58176,
          "time": 50.4999495,
          "velocity": 0.4015748031496063
        },
        {
          "duration": 0.5833327499999967,
          "durationTicks": 672,
          "midi": 59,
          "name": "B3",
          "ticks": 58176,
          "time": 50.4999495,
          "velocity": 0.4015748031496063
        },
        {
          "duration": 0.5833327499999967,
          "durationTicks": 672,
          "midi": 64,
          "name": "E4",
          "ticks": 58176,
          "time": 50.4999495,
          "velocity": 0.4015748031496063
        },
        {
          "duration": 0.5833327499999967,
          "durationTicks": 672,
          "midi": 62,
          "name": "D4",
          "ticks": 58176,
          "time": 50.4999495,
          "velocity": 0.4015748031496063
        },
        {
          "duration": 0.27777750000000623,
          "durationTicks": 320,
          "midi": 55,
          "name": "G3",
          "ticks": 58944,
          "time": 51.1666155,
          "velocity": 0.41732283464566927
        },
        {
          "duration": 0.27777750000000623,
          "durationTicks": 320,
          "midi": 71,
          "name": "B4",
          "ticks": 58944,
          "time": 51.1666155,
          "velocity": 0.41732283464566927
        },
        {
          "duration": 0.27777750000000623,
          "durationTicks": 320,
          "midi": 64,
          "name": "E4",
          "ticks": 58944,
          "time": 51.1666155,
          "velocity": 0.41732283464566927
        },
        {
          "duration": 0.27777750000000623,
          "durationTicks": 320,
          "midi": 62,
          "name": "D4",
          "ticks": 58944,
          "time": 51.1666155,
          "velocity": 0.41732283464566927
        },
        {
          "duration": 0.08333324999999547,
          "durationTicks": 96,
          "midi": 62,
          "name": "D4",
          "ticks": 59584,
          "time": 51.7221705,
          "velocity": 0.41732283464566927
        },
        {
          "duration": 0.08333324999999547,
          "durationTicks": 96,
          "midi": 71,
          "name": "B4",
          "ticks": 59584,
          "time": 51.7221705,
          "velocity": 0.41732283464566927
        },
        {
          "duration": 0.08333324999999547,
          "durationTicks": 96,
          "midi": 64,
          "name": "E4",
          "ticks": 59584,
          "time": 51.7221705,
          "velocity": 0.41732283464566927
        },
        {
          "duration": 0.08333324999999547,
          "durationTicks": 96,
          "midi": 55,
          "name": "G3",
          "ticks": 59584,
          "time": 51.7221705,
          "velocity": 0.41732283464566927
        },
        {
          "duration": 0.16666649999999805,
          "durationTicks": 192,
          "midi": 70,
          "name": "A#4",
          "ticks": 60480,
          "time": 52.4999475,
          "velocity": 0.41732283464566927
        },
        {
          "duration": 0.16666649999999805,
          "durationTicks": 192,
          "midi": 61,
          "name": "C#4",
          "ticks": 60480,
          "time": 52.4999475,
          "velocity": 0.41732283464566927
        },
        {
          "duration": 0.16666649999999805,
          "durationTicks": 192,
          "midi": 55,
          "name": "G3",
          "ticks": 60480,
          "time": 52.4999475,
          "velocity": 0.41732283464566927
        },
        {
          "duration": 0.16666649999999805,
          "durationTicks": 192,
          "midi": 64,
          "name": "E4",
          "ticks": 60480,
          "time": 52.4999475,
          "velocity": 0.41732283464566927
        },
        {
          "duration": 0.08333325000000258,
          "durationTicks": 96,
          "midi": 62,
          "name": "D4",
          "ticks": 61136,
          "time": 53.069391375,
          "velocity": 0.5196850393700787
        },
        {
          "duration": 0.08333325000000258,
          "durationTicks": 96,
          "midi": 54,
          "name": "F#3",
          "ticks": 61136,
          "time": 53.069391375,
          "velocity": 0.5196850393700787
        },
        {
          "duration": 0.08333325000000258,
          "durationTicks": 96,
          "midi": 59,
          "name": "B3",
          "ticks": 61136,
          "time": 53.069391375,
          "velocity": 0.5196850393700787
        },
        {
          "duration": 0.08333325000000258,
          "durationTicks": 96,
          "midi": 69,
          "name": "A4",
          "ticks": 61136,
          "time": 53.069391375,
          "velocity": 0.5196850393700787
        },
        {
          "duration": 0.1805553749999973,
          "durationTicks": 208,
          "midi": 54,
          "name": "F#3",
          "ticks": 62016,
          "time": 53.833279499999996,
          "velocity": 0.3858267716535433
        },
        {
          "duration": 0.1805553749999973,
          "durationTicks": 208,
          "midi": 69,
          "name": "A4",
          "ticks": 62016,
          "time": 53.833279499999996,
          "velocity": 0.3858267716535433
        },
        {
          "duration": 0.1805553749999973,
          "durationTicks": 208,
          "midi": 62,
          "name": "D4",
          "ticks": 62016,
          "time": 53.833279499999996,
          "velocity": 0.3858267716535433
        },
        {
          "duration": 0.1805553749999973,
          "durationTicks": 208,
          "midi": 59,
          "name": "B3",
          "ticks": 62016,
          "time": 53.833279499999996,
          "velocity": 0.3858267716535433
        },
        {
          "duration": 0.22222199999999503,
          "durationTicks": 256,
          "midi": 59,
          "name": "B3",
          "ticks": 62400,
          "time": 54.1666125,
          "velocity": 0.4566929133858268
        },
        {
          "duration": 0.22222199999999503,
          "durationTicks": 256,
          "midi": 69,
          "name": "A4",
          "ticks": 62400,
          "time": 54.1666125,
          "velocity": 0.4566929133858268
        },
        {
          "duration": 0.22222199999999503,
          "durationTicks": 256,
          "midi": 54,
          "name": "F#3",
          "ticks": 62400,
          "time": 54.1666125,
          "velocity": 0.4566929133858268
        },
        {
          "duration": 0.22222199999999503,
          "durationTicks": 256,
          "midi": 62,
          "name": "D4",
          "ticks": 62400,
          "time": 54.1666125,
          "velocity": 0.4566929133858268
        },
        {
          "duration": 0.49999950000000126,
          "durationTicks": 576,
          "midi": 62,
          "name": "D4",
          "ticks": 62784,
          "time": 54.499945499999995,
          "velocity": 0.41732283464566927
        },
        {
          "duration": 0.49999950000000126,
          "durationTicks": 576,
          "midi": 59,
          "name": "B3",
          "ticks": 62784,
          "time": 54.499945499999995,
          "velocity": 0.41732283464566927
        },
        {
          "duration": 0.49999950000000126,
          "durationTicks": 576,
          "midi": 64,
          "name": "E4",
          "ticks": 62784,
          "time": 54.499945499999995,
          "velocity": 0.41732283464566927
        },
        {
          "duration": 0.49999950000000126,
          "durationTicks": 576,
          "midi": 55,
          "name": "G3",
          "ticks": 62784,
          "time": 54.499945499999995,
          "velocity": 0.41732283464566927
        },
        {
          "duration": 0.08333325000000258,
          "durationTicks": 96,
          "midi": 55,
          "name": "G3",
          "ticks": 63440,
          "time": 55.069389375,
          "velocity": 0.5196850393700787
        },
        {
          "duration": 0.08333325000000258,
          "durationTicks": 96,
          "midi": 70,
          "name": "A#4",
          "ticks": 63440,
          "time": 55.069389375,
          "velocity": 0.5196850393700787
        },
        {
          "duration": 0.08333325000000258,
          "durationTicks": 96,
          "midi": 66,
          "name": "F#4",
          "ticks": 63440,
          "time": 55.069389375,
          "velocity": 0.5196850393700787
        },
        {
          "duration": 0.08333325000000258,
          "durationTicks": 96,
          "midi": 61,
          "name": "C#4",
          "ticks": 63440,
          "time": 55.069389375,
          "velocity": 0.5196850393700787
        },
        {
          "duration": 0.49999949999999416,
          "durationTicks": 576,
          "midi": 54,
          "name": "F#3",
          "ticks": 64320,
          "time": 55.8332775,
          "velocity": 0.41732283464566927
        },
        {
          "duration": 0.49999949999999416,
          "durationTicks": 576,
          "midi": 59,
          "name": "B3",
          "ticks": 64320,
          "time": 55.8332775,
          "velocity": 0.41732283464566927
        },
        {
          "duration": 0.49999949999999416,
          "durationTicks": 576,
          "midi": 57,
          "name": "A3",
          "ticks": 64320,
          "time": 55.8332775,
          "velocity": 0.41732283464566927
        },
        {
          "duration": 0.49999949999999416,
          "durationTicks": 576,
          "midi": 62,
          "name": "D4",
          "ticks": 64320,
          "time": 55.8332775,
          "velocity": 0.41732283464566927
        },
        {
          "duration": 0.16666650000000516,
          "durationTicks": 192,
          "midi": 57,
          "name": "A3",
          "ticks": 64976,
          "time": 56.402721375,
          "velocity": 0.5196850393700787
        },
        {
          "duration": 0.16666650000000516,
          "durationTicks": 192,
          "midi": 54,
          "name": "F#3",
          "ticks": 64976,
          "time": 56.402721375,
          "velocity": 0.5196850393700787
        },
        {
          "duration": 0.16666650000000516,
          "durationTicks": 192,
          "midi": 62,
          "name": "D4",
          "ticks": 64976,
          "time": 56.402721375,
          "velocity": 0.5196850393700787
        },
        {
          "duration": 0.16666650000000516,
          "durationTicks": 192,
          "midi": 59,
          "name": "B3",
          "ticks": 64976,
          "time": 56.402721375,
          "velocity": 0.5196850393700787
        },
        {
          "duration": 0.22222199999999503,
          "durationTicks": 256,
          "midi": 64,
          "name": "E4",
          "ticks": 65472,
          "time": 56.8332765,
          "velocity": 0.36220472440944884
        },
        {
          "duration": 0.22222199999999503,
          "durationTicks": 256,
          "midi": 55,
          "name": "G3",
          "ticks": 65472,
          "time": 56.8332765,
          "velocity": 0.36220472440944884
        },
        {
          "duration": 0.22222199999999503,
          "durationTicks": 256,
          "midi": 61,
          "name": "C#4",
          "ticks": 65472,
          "time": 56.8332765,
          "velocity": 0.36220472440944884
        },
        {
          "duration": 0.22222199999999503,
          "durationTicks": 256,
          "midi": 58,
          "name": "A#3",
          "ticks": 65472,
          "time": 56.8332765,
          "velocity": 0.36220472440944884
        },
        {
          "duration": 0.49999950000000126,
          "durationTicks": 576,
          "midi": 62,
          "name": "D4",
          "ticks": 65856,
          "time": 57.1666095,
          "velocity": 0.41732283464566927
        },
        {
          "duration": 0.49999950000000126,
          "durationTicks": 576,
          "midi": 54,
          "name": "F#3",
          "ticks": 65856,
          "time": 57.1666095,
          "velocity": 0.41732283464566927
        },
        {
          "duration": 0.49999950000000126,
          "durationTicks": 576,
          "midi": 59,
          "name": "B3",
          "ticks": 65856,
          "time": 57.1666095,
          "velocity": 0.41732283464566927
        },
        {
          "duration": 0.49999950000000126,
          "durationTicks": 576,
          "midi": 57,
          "name": "A3",
          "ticks": 65856,
          "time": 57.1666095,
          "velocity": 0.41732283464566927
        },
        {
          "duration": 0.16666649999999805,
          "durationTicks": 192,
          "midi": 62,
          "name": "D4",
          "ticks": 66512,
          "time": 57.736053375000004,
          "velocity": 0.5196850393700787
        },
        {
          "duration": 0.16666649999999805,
          "durationTicks": 192,
          "midi": 59,
          "name": "B3",
          "ticks": 66512,
          "time": 57.736053375000004,
          "velocity": 0.5196850393700787
        },
        {
          "duration": 0.16666649999999805,
          "durationTicks": 192,
          "midi": 57,
          "name": "A3",
          "ticks": 66512,
          "time": 57.736053375000004,
          "velocity": 0.5196850393700787
        },
        {
          "duration": 0.16666649999999805,
          "durationTicks": 192,
          "midi": 54,
          "name": "F#3",
          "ticks": 66512,
          "time": 57.736053375000004,
          "velocity": 0.5196850393700787
        },
        {
          "duration": 0.22222200000000214,
          "durationTicks": 256,
          "midi": 58,
          "name": "A#3",
          "ticks": 67008,
          "time": 58.166608499999995,
          "velocity": 0.36220472440944884
        },
        {
          "duration": 0.22222200000000214,
          "durationTicks": 256,
          "midi": 55,
          "name": "G3",
          "ticks": 67008,
          "time": 58.166608499999995,
          "velocity": 0.36220472440944884
        },
        {
          "duration": 0.22222200000000214,
          "durationTicks": 256,
          "midi": 64,
          "name": "E4",
          "ticks": 67008,
          "time": 58.166608499999995,
          "velocity": 0.36220472440944884
        },
        {
          "duration": 0.22222200000000214,
          "durationTicks": 256,
          "midi": 61,
          "name": "C#4",
          "ticks": 67008,
          "time": 58.166608499999995,
          "velocity": 0.36220472440944884
        },
        {
          "duration": 0.22222199999999503,
          "durationTicks": 256,
          "midi": 54,
          "name": "F#3",
          "ticks": 68160,
          "time": 59.1666075,
          "velocity": 0.41732283464566927
        },
        {
          "duration": 0.22222199999999503,
          "durationTicks": 256,
          "midi": 62,
          "name": "D4",
          "ticks": 68160,
          "time": 59.1666075,
          "velocity": 0.41732283464566927
        },
        {
          "duration": 0.22222199999999503,
          "durationTicks": 256,
          "midi": 57,
          "name": "A3",
          "ticks": 68160,
          "time": 59.1666075,
          "velocity": 0.41732283464566927
        },
        {
          "duration": 0.22222199999999503,
          "durationTicks": 256,
          "midi": 59,
          "name": "B3",
          "ticks": 68160,
          "time": 59.1666075,
          "velocity": 0.41732283464566927
        },
        {
          "duration": 0.14583318750000274,
          "durationTicks": 168,
          "midi": 59,
          "name": "B3",
          "ticks": 68416,
          "time": 59.38882949999999,
          "velocity": 0.41732283464566927
        },
        {
          "duration": 0.14583318750000274,
          "durationTicks": 168,
          "midi": 62,
          "name": "D4",
          "ticks": 68416,
          "time": 59.38882949999999,
          "velocity": 0.41732283464566927
        },
        {
          "duration": 0.14583318750000274,
          "durationTicks": 168,
          "midi": 57,
          "name": "A3",
          "ticks": 68416,
          "time": 59.38882949999999,
          "velocity": 0.41732283464566927
        },
        {
          "duration": 0.14583318750000274,
          "durationTicks": 168,
          "midi": 54,
          "name": "F#3",
          "ticks": 68416,
          "time": 59.38882949999999,
          "velocity": 0.41732283464566927
        },
        {
          "duration": 0.22222199999999503,
          "durationTicks": 256,
          "midi": 57,
          "name": "A3",
          "ticks": 68928,
          "time": 59.8332735,
          "velocity": 0.41732283464566927
        },
        {
          "duration": 0.22222199999999503,
          "durationTicks": 256,
          "midi": 62,
          "name": "D4",
          "ticks": 68928,
          "time": 59.8332735,
          "velocity": 0.41732283464566927
        },
        {
          "duration": 0.22222199999999503,
          "durationTicks": 256,
          "midi": 59,
          "name": "B3",
          "ticks": 68928,
          "time": 59.8332735,
          "velocity": 0.41732283464566927
        },
        {
          "duration": 0.22222199999999503,
          "durationTicks": 256,
          "midi": 54,
          "name": "F#3",
          "ticks": 68928,
          "time": 59.8332735,
          "velocity": 0.41732283464566927
        },
        {
          "duration": 0.4166662499999987,
          "durationTicks": 480,
          "midi": 59,
          "name": "B3",
          "ticks": 69584,
          "time": 60.402717375,
          "velocity": 0.41732283464566927
        },
        {
          "duration": 0.4166662499999987,
          "durationTicks": 480,
          "midi": 62,
          "name": "D4",
          "ticks": 69584,
          "time": 60.402717375,
          "velocity": 0.41732283464566927
        },
        {
          "duration": 0.4166662499999987,
          "durationTicks": 480,
          "midi": 54,
          "name": "F#3",
          "ticks": 69584,
          "time": 60.402717375,
          "velocity": 0.41732283464566927
        },
        {
          "duration": 0.4166662499999987,
          "durationTicks": 480,
          "midi": 57,
          "name": "A3",
          "ticks": 69584,
          "time": 60.402717375,
          "velocity": 0.41732283464566927
        },
        {
          "duration": 0.16666650000000516,
          "durationTicks": 192,
          "midi": 52,
          "name": "E3",
          "ticks": 70464,
          "time": 61.166605499999996,
          "velocity": 0.41732283464566927
        },
        {
          "duration": 0.16666650000000516,
          "durationTicks": 192,
          "midi": 58,
          "name": "A#3",
          "ticks": 70464,
          "time": 61.166605499999996,
          "velocity": 0.41732283464566927
        },
        {
          "duration": 0.16666650000000516,
          "durationTicks": 192,
          "midi": 55,
          "name": "G3",
          "ticks": 70464,
          "time": 61.166605499999996,
          "velocity": 0.41732283464566927
        },
        {
          "duration": 0.16666650000000516,
          "durationTicks": 192,
          "midi": 62,
          "name": "D4",
          "ticks": 70464,
          "time": 61.166605499999996,
          "velocity": 0.41732283464566927
        },
        {
          "duration": 0.08333325000000258,
          "durationTicks": 96,
          "midi": 57,
          "name": "A3",
          "ticks": 71120,
          "time": 61.736049375,
          "velocity": 0.5196850393700787
        },
        {
          "duration": 0.08333325000000258,
          "durationTicks": 96,
          "midi": 73,
          "name": "C#5",
          "ticks": 71120,
          "time": 61.736049375,
          "velocity": 0.5196850393700787
        },
        {
          "duration": 0.08333325000000258,
          "durationTicks": 96,
          "midi": 63,
          "name": "D#4",
          "ticks": 71120,
          "time": 61.736049375,
          "velocity": 0.5196850393700787
        },
        {
          "duration": 0.08333325000000258,
          "durationTicks": 96,
          "midi": 67,
          "name": "G4",
          "ticks": 71120,
          "time": 61.736049375,
          "velocity": 0.5196850393700787
        },
        {
          "duration": 0.16666649999999805,
          "durationTicks": 192,
          "midi": 56,
          "name": "G#3",
          "ticks": 72000,
          "time": 62.4999375,
          "velocity": 0.41732283464566927
        },
        {
          "duration": 0.16666649999999805,
          "durationTicks": 192,
          "midi": 64,
          "name": "E4",
          "ticks": 72000,
          "time": 62.4999375,
          "velocity": 0.41732283464566927
        },
        {
          "duration": 0.16666649999999805,
          "durationTicks": 192,
          "midi": 60,
          "name": "C4",
          "ticks": 72000,
          "time": 62.4999375,
          "velocity": 0.41732283464566927
        },
        {
          "duration": 0.16666649999999805,
          "durationTicks": 192,
          "midi": 62,
          "name": "D4",
          "ticks": 72000,
          "time": 62.4999375,
          "velocity": 0.41732283464566927
        },
        {
          "duration": 0.08333325000000258,
          "durationTicks": 96,
          "midi": 55,
          "name": "G3",
          "ticks": 72656,
          "time": 63.069381375,
          "velocity": 0.5196850393700787
        },
        {
          "duration": 0.08333325000000258,
          "durationTicks": 96,
          "midi": 61,
          "name": "C#4",
          "ticks": 72656,
          "time": 63.069381375,
          "velocity": 0.5196850393700787
        },
        {
          "duration": 0.08333325000000258,
          "durationTicks": 96,
          "midi": 71,
          "name": "B4",
          "ticks": 72656,
          "time": 63.069381375,
          "velocity": 0.5196850393700787
        },
        {
          "duration": 0.08333325000000258,
          "durationTicks": 96,
          "midi": 64,
          "name": "E4",
          "ticks": 72656,
          "time": 63.069381375,
          "velocity": 0.5196850393700787
        },
        {
          "duration": 0.09722212500000893,
          "durationTicks": 112,
          "midi": 59,
          "name": "B3",
          "ticks": 73408,
          "time": 63.72215849999999,
          "velocity": 0.5196850393700787
        },
        {
          "duration": 0.09722212500000893,
          "durationTicks": 112,
          "midi": 69,
          "name": "A4",
          "ticks": 73408,
          "time": 63.72215849999999,
          "velocity": 0.5196850393700787
        },
        {
          "duration": 0.09722212500000893,
          "durationTicks": 112,
          "midi": 62,
          "name": "D4",
          "ticks": 73408,
          "time": 63.72215849999999,
          "velocity": 0.5196850393700787
        },
        {
          "duration": 0.09722212500000893,
          "durationTicks": 112,
          "midi": 54,
          "name": "F#3",
          "ticks": 73408,
          "time": 63.72215849999999,
          "velocity": 0.5196850393700787
        },
        {
          "duration": 0.09722212500000182,
          "durationTicks": 112,
          "midi": 61,
          "name": "C#4",
          "ticks": 74176,
          "time": 64.3888245,
          "velocity": 0.5196850393700787
        },
        {
          "duration": 0.09722212500000182,
          "durationTicks": 112,
          "midi": 55,
          "name": "G3",
          "ticks": 74176,
          "time": 64.3888245,
          "velocity": 0.5196850393700787
        },
        {
          "duration": 0.09722212500000182,
          "durationTicks": 112,
          "midi": 70,
          "name": "A#4",
          "ticks": 74176,
          "time": 64.3888245,
          "velocity": 0.5196850393700787
        },
        {
          "duration": 0.09722212500000182,
          "durationTicks": 112,
          "midi": 64,
          "name": "E4",
          "ticks": 74176,
          "time": 64.3888245,
          "velocity": 0.5196850393700787
        },
        {
          "duration": 0.22222199999998793,
          "durationTicks": 256,
          "midi": 66,
          "name": "F#4",
          "ticks": 74688,
          "time": 64.8332685,
          "velocity": 0.36220472440944884
        },
        {
          "duration": 0.22222199999998793,
          "durationTicks": 256,
          "midi": 61,
          "name": "C#4",
          "ticks": 74688,
          "time": 64.8332685,
          "velocity": 0.36220472440944884
        },
        {
          "duration": 0.22222199999998793,
          "durationTicks": 256,
          "midi": 58,
          "name": "A#3",
          "ticks": 74688,
          "time": 64.8332685,
          "velocity": 0.36220472440944884
        },
        {
          "duration": 0.22222199999998793,
          "durationTicks": 256,
          "midi": 55,
          "name": "G3",
          "ticks": 74688,
          "time": 64.8332685,
          "velocity": 0.36220472440944884
        },
        {
          "duration": 0.22222200000000214,
          "durationTicks": 256,
          "midi": 59,
          "name": "B3",
          "ticks": 75072,
          "time": 65.1666015,
          "velocity": 0.36220472440944884
        },
        {
          "duration": 0.22222200000000214,
          "durationTicks": 256,
          "midi": 62,
          "name": "D4",
          "ticks": 75072,
          "time": 65.1666015,
          "velocity": 0.36220472440944884
        },
        {
          "duration": 0.22222200000000214,
          "durationTicks": 256,
          "midi": 54,
          "name": "F#3",
          "ticks": 75072,
          "time": 65.1666015,
          "velocity": 0.36220472440944884
        },
        {
          "duration": 0.22222200000000214,
          "durationTicks": 256,
          "midi": 69,
          "name": "A4",
          "ticks": 75072,
          "time": 65.1666015,
          "velocity": 0.36220472440944884
        },
        {
          "duration": 0.49999950000000126,
          "durationTicks": 576,
          "midi": 57,
          "name": "A3",
          "ticks": 75456,
          "time": 65.4999345,
          "velocity": 0.41732283464566927
        },
        {
          "duration": 0.49999950000000126,
          "durationTicks": 576,
          "midi": 65,
          "name": "F4",
          "ticks": 75456,
          "time": 65.4999345,
          "velocity": 0.41732283464566927
        },
        {
          "duration": 0.49999950000000126,
          "durationTicks": 576,
          "midi": 61,
          "name": "C#4",
          "ticks": 75456,
          "time": 65.4999345,
          "velocity": 0.41732283464566927
        },
        {
          "duration": 0.49999950000000126,
          "durationTicks": 576,
          "midi": 58,
          "name": "A#3",
          "ticks": 75456,
          "time": 65.4999345,
          "velocity": 0.41732283464566927
        },
        {
          "duration": 0.16666650000000516,
          "durationTicks": 192,
          "midi": 57,
          "name": "A3",
          "ticks": 76112,
          "time": 66.069378375,
          "velocity": 0.5196850393700787
        },
        {
          "duration": 0.16666650000000516,
          "durationTicks": 192,
          "midi": 65,
          "name": "F4",
          "ticks": 76112,
          "time": 66.069378375,
          "velocity": 0.5196850393700787
        },
        {
          "duration": 0.16666650000000516,
          "durationTicks": 192,
          "midi": 58,
          "name": "A#3",
          "ticks": 76112,
          "time": 66.069378375,
          "velocity": 0.5196850393700787
        },
        {
          "duration": 0.16666650000000516,
          "durationTicks": 192,
          "midi": 61,
          "name": "C#4",
          "ticks": 76112,
          "time": 66.069378375,
          "velocity": 0.5196850393700787
        },
        {
          "duration": 0.49999950000000126,
          "durationTicks": 576,
          "midi": 57,
          "name": "A3",
          "ticks": 76608,
          "time": 66.4999335,
          "velocity": 0.41732283464566927
        },
        {
          "duration": 0.49999950000000126,
          "durationTicks": 576,
          "midi": 54,
          "name": "F#3",
          "ticks": 76608,
          "time": 66.4999335,
          "velocity": 0.41732283464566927
        },
        {
          "duration": 0.49999950000000126,
          "durationTicks": 576,
          "midi": 59,
          "name": "B3",
          "ticks": 76608,
          "time": 66.4999335,
          "velocity": 0.41732283464566927
        },
        {
          "duration": 0.49999950000000126,
          "durationTicks": 576,
          "midi": 62,
          "name": "D4",
          "ticks": 76608,
          "time": 66.4999335,
          "velocity": 0.41732283464566927
        },
        {
          "duration": 0.16666650000000516,
          "durationTicks": 192,
          "midi": 59,
          "name": "B3",
          "ticks": 77264,
          "time": 67.069377375,
          "velocity": 0.5196850393700787
        },
        {
          "duration": 0.16666650000000516,
          "durationTicks": 192,
          "midi": 54,
          "name": "F#3",
          "ticks": 77264,
          "time": 67.069377375,
          "velocity": 0.5196850393700787
        },
        {
          "duration": 0.16666650000000516,
          "durationTicks": 192,
          "midi": 57,
          "name": "A3",
          "ticks": 77264,
          "time": 67.069377375,
          "velocity": 0.5196850393700787
        },
        {
          "duration": 0.16666650000000516,
          "durationTicks": 192,
          "midi": 62,
          "name": "D4",
          "ticks": 77264,
          "time": 67.069377375,
          "velocity": 0.5196850393700787
        },
        {
          "duration": 0.22222199999998793,
          "durationTicks": 256,
          "midi": 55,
          "name": "G3",
          "ticks": 77760,
          "time": 67.4999325,
          "velocity": 0.36220472440944884
        },
        {
          "duration": 0.22222199999998793,
          "durationTicks": 256,
          "midi": 64,
          "name": "E4",
          "ticks": 77760,
          "time": 67.4999325,
          "velocity": 0.36220472440944884
        },
        {
          "duration": 0.22222199999998793,
          "durationTicks": 256,
          "midi": 61,
          "name": "C#4",
          "ticks": 77760,
          "time": 67.4999325,
          "velocity": 0.36220472440944884
        },
        {
          "duration": 0.22222199999998793,
          "durationTicks": 256,
          "midi": 70,
          "name": "A#4",
          "ticks": 77760,
          "time": 67.4999325,
          "velocity": 0.36220472440944884
        },
        {
          "duration": 0.16666650000000516,
          "durationTicks": 192,
          "midi": 54,
          "name": "F#3",
          "ticks": 78144,
          "time": 67.8332655,
          "velocity": 0.41732283464566927
        },
        {
          "duration": 0.16666650000000516,
          "durationTicks": 192,
          "midi": 62,
          "name": "D4",
          "ticks": 78144,
          "time": 67.8332655,
          "velocity": 0.41732283464566927
        },
        {
          "duration": 0.16666650000000516,
          "durationTicks": 192,
          "midi": 59,
          "name": "B3",
          "ticks": 78144,
          "time": 67.8332655,
          "velocity": 0.41732283464566927
        },
        {
          "duration": 0.16666650000000516,
          "durationTicks": 192,
          "midi": 69,
          "name": "A4",
          "ticks": 78144,
          "time": 67.8332655,
          "velocity": 0.41732283464566927
        },
        {
          "duration": 0.16666650000000516,
          "durationTicks": 192,
          "midi": 62,
          "name": "D4",
          "ticks": 78800,
          "time": 68.402709375,
          "velocity": 0.5196850393700787
        },
        {
          "duration": 0.16666650000000516,
          "durationTicks": 192,
          "midi": 54,
          "name": "F#3",
          "ticks": 78800,
          "time": 68.402709375,
          "velocity": 0.5196850393700787
        },
        {
          "duration": 0.16666650000000516,
          "durationTicks": 192,
          "midi": 69,
          "name": "A4",
          "ticks": 78800,
          "time": 68.402709375,
          "velocity": 0.5196850393700787
        },
        {
          "duration": 0.16666650000000516,
          "durationTicks": 192,
          "midi": 59,
          "name": "B3",
          "ticks": 78800,
          "time": 68.402709375,
          "velocity": 0.5196850393700787
        },
        {
          "duration": 0.22222200000000214,
          "durationTicks": 256,
          "midi": 70,
          "name": "A#4",
          "ticks": 79296,
          "time": 68.8332645,
          "velocity": 0.36220472440944884
        },
        {
          "duration": 0.22222200000000214,
          "durationTicks": 256,
          "midi": 64,
          "name": "E4",
          "ticks": 79296,
          "time": 68.8332645,
          "velocity": 0.36220472440944884
        },
        {
          "duration": 0.22222200000000214,
          "durationTicks": 256,
          "midi": 61,
          "name": "C#4",
          "ticks": 79296,
          "time": 68.8332645,
          "velocity": 0.36220472440944884
        },
        {
          "duration": 0.22222200000000214,
          "durationTicks": 256,
          "midi": 55,
          "name": "G3",
          "ticks": 79296,
          "time": 68.8332645,
          "velocity": 0.36220472440944884
        },
        {
          "duration": 0.49999950000000126,
          "durationTicks": 576,
          "midi": 54,
          "name": "F#3",
          "ticks": 79680,
          "time": 69.1665975,
          "velocity": 0.41732283464566927
        },
        {
          "duration": 0.49999950000000126,
          "durationTicks": 576,
          "midi": 69,
          "name": "A4",
          "ticks": 79680,
          "time": 69.1665975,
          "velocity": 0.41732283464566927
        },
        {
          "duration": 0.49999950000000126,
          "durationTicks": 576,
          "midi": 59,
          "name": "B3",
          "ticks": 79680,
          "time": 69.1665975,
          "velocity": 0.41732283464566927
        },
        {
          "duration": 0.49999950000000126,
          "durationTicks": 576,
          "midi": 62,
          "name": "D4",
          "ticks": 79680,
          "time": 69.1665975,
          "velocity": 0.41732283464566927
        },
        {
          "duration": 0.08333324999999547,
          "durationTicks": 96,
          "midi": 62,
          "name": "D4",
          "ticks": 80336,
          "time": 69.736041375,
          "velocity": 0.5196850393700787
        },
        {
          "duration": 0.08333324999999547,
          "durationTicks": 96,
          "midi": 67,
          "name": "G4",
          "ticks": 80336,
          "time": 69.736041375,
          "velocity": 0.5196850393700787
        },
        {
          "duration": 0.08333324999999547,
          "durationTicks": 96,
          "midi": 52,
          "name": "E3",
          "ticks": 80336,
          "time": 69.736041375,
          "velocity": 0.5196850393700787
        },
        {
          "duration": 0.08333324999999547,
          "durationTicks": 96,
          "midi": 59,
          "name": "B3",
          "ticks": 80336,
          "time": 69.736041375,
          "velocity": 0.5196850393700787
        },
        {
          "duration": 0.22222200000000214,
          "durationTicks": 256,
          "midi": 69,
          "name": "A4",
          "ticks": 80832,
          "time": 70.1665965,
          "velocity": 0.36220472440944884
        },
        {
          "duration": 0.22222200000000214,
          "durationTicks": 256,
          "midi": 54,
          "name": "F#3",
          "ticks": 80832,
          "time": 70.1665965,
          "velocity": 0.36220472440944884
        },
        {
          "duration": 0.22222200000000214,
          "durationTicks": 256,
          "midi": 59,
          "name": "B3",
          "ticks": 80832,
          "time": 70.1665965,
          "velocity": 0.36220472440944884
        },
        {
          "duration": 0.22222200000000214,
          "durationTicks": 256,
          "midi": 62,
          "name": "D4",
          "ticks": 80832,
          "time": 70.1665965,
          "velocity": 0.36220472440944884
        },
        {
          "duration": 0.49999950000000126,
          "durationTicks": 576,
          "midi": 57,
          "name": "A3",
          "ticks": 81216,
          "time": 70.4999295,
          "velocity": 0.41732283464566927
        },
        {
          "duration": 0.49999950000000126,
          "durationTicks": 576,
          "midi": 66,
          "name": "F#4",
          "ticks": 81216,
          "time": 70.4999295,
          "velocity": 0.41732283464566927
        },
        {
          "duration": 0.49999950000000126,
          "durationTicks": 576,
          "midi": 73,
          "name": "C#5",
          "ticks": 81216,
          "time": 70.4999295,
          "velocity": 0.41732283464566927
        },
        {
          "duration": 0.49999950000000126,
          "durationTicks": 576,
          "midi": 63,
          "name": "D#4",
          "ticks": 81216,
          "time": 70.4999295,
          "velocity": 0.41732283464566927
        },
        {
          "duration": 0.16666650000000516,
          "durationTicks": 192,
          "midi": 57,
          "name": "A3",
          "ticks": 81872,
          "time": 71.069373375,
          "velocity": 0.5196850393700787
        },
        {
          "duration": 0.16666650000000516,
          "durationTicks": 192,
          "midi": 66,
          "name": "F#4",
          "ticks": 81872,
          "time": 71.069373375,
          "velocity": 0.5196850393700787
        },
        {
          "duration": 0.16666650000000516,
          "durationTicks": 192,
          "midi": 73,
          "name": "C#5",
          "ticks": 81872,
          "time": 71.069373375,
          "velocity": 0.5196850393700787
        },
        {
          "duration": 0.16666650000000516,
          "durationTicks": 192,
          "midi": 63,
          "name": "D#4",
          "ticks": 81872,
          "time": 71.069373375,
          "velocity": 0.5196850393700787
        },
        {
          "duration": 0.22222200000000214,
          "durationTicks": 256,
          "midi": 63,
          "name": "D#4",
          "ticks": 82368,
          "time": 71.4999285,
          "velocity": 0.36220472440944884
        },
        {
          "duration": 0.22222200000000214,
          "durationTicks": 256,
          "midi": 67,
          "name": "G4",
          "ticks": 82368,
          "time": 71.4999285,
          "velocity": 0.36220472440944884
        },
        {
          "duration": 0.22222200000000214,
          "durationTicks": 256,
          "midi": 59,
          "name": "B3",
          "ticks": 82368,
          "time": 71.4999285,
          "velocity": 0.36220472440944884
        },
        {
          "duration": 0.22222200000000214,
          "durationTicks": 256,
          "midi": 57,
          "name": "A3",
          "ticks": 82368,
          "time": 71.4999285,
          "velocity": 0.36220472440944884
        },
        {
          "duration": 1.3333320000000128,
          "durationTicks": 1536,
          "midi": 62,
          "name": "D4",
          "ticks": 82752,
          "time": 71.83326149999999,
          "velocity": 0.41732283464566927
        },
        {
          "duration": 1.3333320000000128,
          "durationTicks": 1536,
          "midi": 55,
          "name": "G3",
          "ticks": 82752,
          "time": 71.83326149999999,
          "velocity": 0.41732283464566927
        },
        {
          "duration": 1.3333320000000128,
          "durationTicks": 1536,
          "midi": 64,
          "name": "E4",
          "ticks": 82752,
          "time": 71.83326149999999,
          "velocity": 0.41732283464566927
        },
        {
          "duration": 1.3333320000000128,
          "durationTicks": 1536,
          "midi": 71,
          "name": "B4",
          "ticks": 82752,
          "time": 71.83326149999999,
          "velocity": 0.41732283464566927
        },
        {
          "duration": 0.16666649999999095,
          "durationTicks": 192,
          "midi": 64,
          "name": "E4",
          "ticks": 84288,
          "time": 73.1665935,
          "velocity": 0.41732283464566927
        },
        {
          "duration": 0.16666649999999095,
          "durationTicks": 192,
          "midi": 59,
          "name": "B3",
          "ticks": 84288,
          "time": 73.1665935,
          "velocity": 0.41732283464566927
        },
        {
          "duration": 0.16666649999999095,
          "durationTicks": 192,
          "midi": 55,
          "name": "G3",
          "ticks": 84288,
          "time": 73.1665935,
          "velocity": 0.41732283464566927
        },
        {
          "duration": 0.16666649999999095,
          "durationTicks": 192,
          "midi": 62,
          "name": "D4",
          "ticks": 84288,
          "time": 73.1665935,
          "velocity": 0.41732283464566927
        },
        {
          "duration": 0.08333325000000968,
          "durationTicks": 96,
          "midi": 70,
          "name": "A#4",
          "ticks": 84944,
          "time": 73.736037375,
          "velocity": 0.5196850393700787
        },
        {
          "duration": 0.08333325000000968,
          "durationTicks": 96,
          "midi": 64,
          "name": "E4",
          "ticks": 84944,
          "time": 73.736037375,
          "velocity": 0.5196850393700787
        },
        {
          "duration": 0.08333325000000968,
          "durationTicks": 96,
          "midi": 55,
          "name": "G3",
          "ticks": 84944,
          "time": 73.736037375,
          "velocity": 0.5196850393700787
        },
        {
          "duration": 0.08333325000000968,
          "durationTicks": 96,
          "midi": 61,
          "name": "C#4",
          "ticks": 84944,
          "time": 73.736037375,
          "velocity": 0.5196850393700787
        },
        {
          "duration": 0.22222200000000214,
          "durationTicks": 256,
          "midi": 54,
          "name": "F#3",
          "ticks": 86592,
          "time": 75.1665915,
          "velocity": 0.41732283464566927
        },
        {
          "duration": 0.22222200000000214,
          "durationTicks": 256,
          "midi": 59,
          "name": "B3",
          "ticks": 86592,
          "time": 75.1665915,
          "velocity": 0.41732283464566927
        },
        {
          "duration": 0.22222200000000214,
          "durationTicks": 256,
          "midi": 69,
          "name": "A4",
          "ticks": 86592,
          "time": 75.1665915,
          "velocity": 0.41732283464566927
        },
        {
          "duration": 0.22222200000000214,
          "durationTicks": 256,
          "midi": 62,
          "name": "D4",
          "ticks": 86592,
          "time": 75.1665915,
          "velocity": 0.41732283464566927
        },
        {
          "duration": 0.22222199999998793,
          "durationTicks": 256,
          "midi": 69,
          "name": "A4",
          "ticks": 87360,
          "time": 75.8332575,
          "velocity": 0.41732283464566927
        },
        {
          "duration": 0.22222199999998793,
          "durationTicks": 256,
          "midi": 62,
          "name": "D4",
          "ticks": 87360,
          "time": 75.8332575,
          "velocity": 0.41732283464566927
        },
        {
          "duration": 0.22222199999998793,
          "durationTicks": 256,
          "midi": 54,
          "name": "F#3",
          "ticks": 87360,
          "time": 75.8332575,
          "velocity": 0.41732283464566927
        },
        {
          "duration": 0.22222199999998793,
          "durationTicks": 256,
          "midi": 59,
          "name": "B3",
          "ticks": 87360,
          "time": 75.8332575,
          "velocity": 0.41732283464566927
        },
        {
          "duration": 0.13888874999999246,
          "durationTicks": 160,
          "midi": 59,
          "name": "B3",
          "ticks": 87744,
          "time": 76.1665905,
          "velocity": 0.41732283464566927
        },
        {
          "duration": 0.13888874999999246,
          "durationTicks": 160,
          "midi": 62,
          "name": "D4",
          "ticks": 87744,
          "time": 76.1665905,
          "velocity": 0.41732283464566927
        },
        {
          "duration": 0.13888874999999246,
          "durationTicks": 160,
          "midi": 54,
          "name": "F#3",
          "ticks": 87744,
          "time": 76.1665905,
          "velocity": 0.41732283464566927
        },
        {
          "duration": 0.13888874999999246,
          "durationTicks": 160,
          "midi": 69,
          "name": "A4",
          "ticks": 87744,
          "time": 76.1665905,
          "velocity": 0.41732283464566927
        },
        {
          "duration": 0.08333324999999547,
          "durationTicks": 96,
          "midi": 59,
          "name": "B3",
          "ticks": 88016,
          "time": 76.402701375,
          "velocity": 0.41732283464566927
        },
        {
          "duration": 0.08333324999999547,
          "durationTicks": 96,
          "midi": 54,
          "name": "F#3",
          "ticks": 88016,
          "time": 76.402701375,
          "velocity": 0.41732283464566927
        },
        {
          "duration": 0.08333324999999547,
          "durationTicks": 96,
          "midi": 62,
          "name": "D4",
          "ticks": 88016,
          "time": 76.402701375,
          "velocity": 0.41732283464566927
        },
        {
          "duration": 0.08333324999999547,
          "durationTicks": 96,
          "midi": 69,
          "name": "A4",
          "ticks": 88016,
          "time": 76.402701375,
          "velocity": 0.41732283464566927
        },
        {
          "duration": 0.22222200000000214,
          "durationTicks": 256,
          "midi": 67,
          "name": "G4",
          "ticks": 89664,
          "time": 77.83325549999999,
          "velocity": 0.41732283464566927
        },
        {
          "duration": 0.22222200000000214,
          "durationTicks": 256,
          "midi": 62,
          "name": "D4",
          "ticks": 89664,
          "time": 77.83325549999999,
          "velocity": 0.41732283464566927
        },
        {
          "duration": 0.22222200000000214,
          "durationTicks": 256,
          "midi": 52,
          "name": "E3",
          "ticks": 89664,
          "time": 77.83325549999999,
          "velocity": 0.41732283464566927
        },
        {
          "duration": 0.22222200000000214,
          "durationTicks": 256,
          "midi": 59,
          "name": "B3",
          "ticks": 89664,
          "time": 77.83325549999999,
          "velocity": 0.41732283464566927
        },
        {
          "duration": 0.22222200000000214,
          "durationTicks": 256,
          "midi": 62,
          "name": "D4",
          "ticks": 89920,
          "time": 78.0554775,
          "velocity": 0.41732283464566927
        },
        {
          "duration": 0.22222200000000214,
          "durationTicks": 256,
          "midi": 59,
          "name": "B3",
          "ticks": 89920,
          "time": 78.0554775,
          "velocity": 0.41732283464566927
        },
        {
          "duration": 0.22222200000000214,
          "durationTicks": 256,
          "midi": 52,
          "name": "E3",
          "ticks": 89920,
          "time": 78.0554775,
          "velocity": 0.41732283464566927
        },
        {
          "duration": 0.22222200000000214,
          "durationTicks": 256,
          "midi": 67,
          "name": "G4",
          "ticks": 89920,
          "time": 78.0554775,
          "velocity": 0.41732283464566927
        },
        {
          "duration": 0.5555549999999982,
          "durationTicks": 640,
          "midi": 59,
          "name": "B3",
          "ticks": 90432,
          "time": 78.4999215,
          "velocity": 0.41732283464566927
        },
        {
          "duration": 0.5555549999999982,
          "durationTicks": 640,
          "midi": 52,
          "name": "E3",
          "ticks": 90432,
          "time": 78.4999215,
          "velocity": 0.41732283464566927
        },
        {
          "duration": 0.5555549999999982,
          "durationTicks": 640,
          "midi": 62,
          "name": "D4",
          "ticks": 90432,
          "time": 78.4999215,
          "velocity": 0.41732283464566927
        },
        {
          "duration": 0.5555549999999982,
          "durationTicks": 640,
          "midi": 67,
          "name": "G4",
          "ticks": 90432,
          "time": 78.4999215,
          "velocity": 0.41732283464566927
        },
        {
          "duration": 0.08333324999999547,
          "durationTicks": 96,
          "midi": 67,
          "name": "G4",
          "ticks": 91088,
          "time": 79.069365375,
          "velocity": 0.41732283464566927
        },
        {
          "duration": 0.08333324999999547,
          "durationTicks": 96,
          "midi": 59,
          "name": "B3",
          "ticks": 91088,
          "time": 79.069365375,
          "velocity": 0.41732283464566927
        },
        {
          "duration": 0.08333324999999547,
          "durationTicks": 96,
          "midi": 52,
          "name": "E3",
          "ticks": 91088,
          "time": 79.069365375,
          "velocity": 0.41732283464566927
        },
        {
          "duration": 0.08333324999999547,
          "durationTicks": 96,
          "midi": 62,
          "name": "D4",
          "ticks": 91088,
          "time": 79.069365375,
          "velocity": 0.41732283464566927
        },
        {
          "duration": 0.49999950000000126,
          "durationTicks": 576,
          "midi": 69,
          "name": "A4",
          "ticks": 91968,
          "time": 79.8332535,
          "velocity": 0.41732283464566927
        },
        {
          "duration": 0.49999950000000126,
          "durationTicks": 576,
          "midi": 54,
          "name": "F#3",
          "ticks": 91968,
          "time": 79.8332535,
          "velocity": 0.41732283464566927
        },
        {
          "duration": 0.49999950000000126,
          "durationTicks": 576,
          "midi": 62,
          "name": "D4",
          "ticks": 91968,
          "time": 79.8332535,
          "velocity": 0.41732283464566927
        },
        {
          "duration": 0.49999950000000126,
          "durationTicks": 576,
          "midi": 59,
          "name": "B3",
          "ticks": 91968,
          "time": 79.8332535,
          "velocity": 0.41732283464566927
        },
        {
          "duration": 0.08333324999999547,
          "durationTicks": 96,
          "midi": 64,
          "name": "E4",
          "ticks": 92624,
          "time": 80.402697375,
          "velocity": 0.5196850393700787
        },
        {
          "duration": 0.08333324999999547,
          "durationTicks": 96,
          "midi": 55,
          "name": "G3",
          "ticks": 92624,
          "time": 80.402697375,
          "velocity": 0.5196850393700787
        },
        {
          "duration": 0.08333324999999547,
          "durationTicks": 96,
          "midi": 69,
          "name": "A4",
          "ticks": 92624,
          "time": 80.402697375,
          "velocity": 0.5196850393700787
        },
        {
          "duration": 0.08333324999999547,
          "durationTicks": 96,
          "midi": 61,
          "name": "C#4",
          "ticks": 92624,
          "time": 80.402697375,
          "velocity": 0.5196850393700787
        },
        {
          "duration": 0.16666650000000516,
          "durationTicks": 192,
          "midi": 57,
          "name": "A3",
          "ticks": 93504,
          "time": 81.1665855,
          "velocity": 0.41732283464566927
        },
        {
          "duration": 0.16666650000000516,
          "durationTicks": 192,
          "midi": 59,
          "name": "B3",
          "ticks": 93504,
          "time": 81.1665855,
          "velocity": 0.41732283464566927
        },
        {
          "duration": 0.16666650000000516,
          "durationTicks": 192,
          "midi": 54,
          "name": "F#3",
          "ticks": 93504,
          "time": 81.1665855,
          "velocity": 0.41732283464566927
        },
        {
          "duration": 0.16666650000000516,
          "durationTicks": 192,
          "midi": 62,
          "name": "D4",
          "ticks": 93504,
          "time": 81.1665855,
          "velocity": 0.41732283464566927
        },
        {
          "duration": 0.08333324999999547,
          "durationTicks": 96,
          "midi": 52,
          "name": "E3",
          "ticks": 94160,
          "time": 81.736029375,
          "velocity": 0.5196850393700787
        },
        {
          "duration": 0.08333324999999547,
          "durationTicks": 96,
          "midi": 66,
          "name": "F#4",
          "ticks": 94160,
          "time": 81.736029375,
          "velocity": 0.5196850393700787
        },
        {
          "duration": 0.08333324999999547,
          "durationTicks": 96,
          "midi": 58,
          "name": "A#3",
          "ticks": 94160,
          "time": 81.736029375,
          "velocity": 0.5196850393700787
        },
        {
          "duration": 0.08333324999999547,
          "durationTicks": 96,
          "midi": 61,
          "name": "C#4",
          "ticks": 94160,
          "time": 81.736029375,
          "velocity": 0.5196850393700787
        },
        {
          "duration": 1.3333319999999986,
          "durationTicks": 1536,
          "midi": 57,
          "name": "A3",
          "ticks": 95024,
          "time": 82.486028625,
          "velocity": 0.41732283464566927
        },
        {
          "duration": 1.3333319999999986,
          "durationTicks": 1536,
          "midi": 66,
          "name": "F#4",
          "ticks": 95024,
          "time": 82.486028625,
          "velocity": 0.41732283464566927
        },
        {
          "duration": 1.3333319999999986,
          "durationTicks": 1536,
          "midi": 62,
          "name": "D4",
          "ticks": 95024,
          "time": 82.486028625,
          "velocity": 0.41732283464566927
        },
        {
          "duration": 1.3333319999999986,
          "durationTicks": 1536,
          "midi": 71,
          "name": "B4",
          "ticks": 95024,
          "time": 82.486028625,
          "velocity": 0.41732283464566927
        },
        {
          "duration": 0.08333324999999547,
          "durationTicks": 96,
          "midi": 40,
          "name": "E2",
          "ticks": 97232,
          "time": 84.402693375,
          "velocity": 0.2755905511811024
        },
        {
          "duration": 0.1805553749999973,
          "durationTicks": 208,
          "midi": 56,
          "name": "G#3",
          "ticks": 97344,
          "time": 84.4999155,
          "velocity": 0.3858267716535433
        },
        {
          "duration": 0.1805553749999973,
          "durationTicks": 208,
          "midi": 71,
          "name": "B4",
          "ticks": 97344,
          "time": 84.4999155,
          "velocity": 0.3858267716535433
        },
        {
          "duration": 0.1805553749999973,
          "durationTicks": 208,
          "midi": 62,
          "name": "D4",
          "ticks": 97344,
          "time": 84.4999155,
          "velocity": 0.3858267716535433
        },
        {
          "duration": 0.1805553749999973,
          "durationTicks": 208,
          "midi": 64,
          "name": "E4",
          "ticks": 97344,
          "time": 84.4999155,
          "velocity": 0.3858267716535433
        },
        {
          "duration": 0.05555549999999698,
          "durationTicks": 64,
          "midi": 40,
          "name": "E2",
          "ticks": 97616,
          "time": 84.736026375,
          "velocity": 0.2755905511811024
        },
        {
          "duration": 0.22222200000000214,
          "durationTicks": 256,
          "midi": 62,
          "name": "D4",
          "ticks": 97728,
          "time": 84.8332485,
          "velocity": 0.4566929133858268
        },
        {
          "duration": 0.22222200000000214,
          "durationTicks": 256,
          "midi": 64,
          "name": "E4",
          "ticks": 97728,
          "time": 84.8332485,
          "velocity": 0.4566929133858268
        },
        {
          "duration": 0.22222200000000214,
          "durationTicks": 256,
          "midi": 71,
          "name": "B4",
          "ticks": 97728,
          "time": 84.8332485,
          "velocity": 0.4566929133858268
        },
        {
          "duration": 0.22222200000000214,
          "durationTicks": 256,
          "midi": 56,
          "name": "G#3",
          "ticks": 97728,
          "time": 84.8332485,
          "velocity": 0.4566929133858268
        },
        {
          "duration": 0.49999950000000126,
          "durationTicks": 576,
          "midi": 55,
          "name": "G3",
          "ticks": 98112,
          "time": 85.16658149999999,
          "velocity": 0.41732283464566927
        },
        {
          "duration": 0.49999950000000126,
          "durationTicks": 576,
          "midi": 64,
          "name": "E4",
          "ticks": 98112,
          "time": 85.16658149999999,
          "velocity": 0.41732283464566927
        },
        {
          "duration": 0.49999950000000126,
          "durationTicks": 576,
          "midi": 69,
          "name": "A4",
          "ticks": 98112,
          "time": 85.16658149999999,
          "velocity": 0.41732283464566927
        },
        {
          "duration": 0.49999950000000126,
          "durationTicks": 576,
          "midi": 61,
          "name": "C#4",
          "ticks": 98112,
          "time": 85.16658149999999,
          "velocity": 0.41732283464566927
        },
        {
          "duration": 0.08333324999999547,
          "durationTicks": 96,
          "midi": 55,
          "name": "G3",
          "ticks": 98768,
          "time": 85.736025375,
          "velocity": 0.5196850393700787
        },
        {
          "duration": 0.08333324999999547,
          "durationTicks": 96,
          "midi": 62,
          "name": "D4",
          "ticks": 98768,
          "time": 85.736025375,
          "velocity": 0.5196850393700787
        },
        {
          "duration": 0.08333324999999547,
          "durationTicks": 96,
          "midi": 64,
          "name": "E4",
          "ticks": 98768,
          "time": 85.736025375,
          "velocity": 0.5196850393700787
        },
        {
          "duration": 0.08333324999999547,
          "durationTicks": 96,
          "midi": 59,
          "name": "B3",
          "ticks": 98768,
          "time": 85.736025375,
          "velocity": 0.5196850393700787
        },
        {
          "duration": 0.22222200000000214,
          "durationTicks": 256,
          "midi": 54,
          "name": "F#3",
          "ticks": 99264,
          "time": 86.1665805,
          "velocity": 0.36220472440944884
        },
        {
          "duration": 0.22222200000000214,
          "durationTicks": 256,
          "midi": 60,
          "name": "C4",
          "ticks": 99264,
          "time": 86.1665805,
          "velocity": 0.36220472440944884
        },
        {
          "duration": 0.22222200000000214,
          "durationTicks": 256,
          "midi": 63,
          "name": "D#4",
          "ticks": 99264,
          "time": 86.1665805,
          "velocity": 0.36220472440944884
        },
        {
          "duration": 0.22222200000000214,
          "durationTicks": 256,
          "midi": 57,
          "name": "A3",
          "ticks": 99264,
          "time": 86.1665805,
          "velocity": 0.36220472440944884
        },
        {
          "duration": 1.3333320000000128,
          "durationTicks": 1536,
          "midi": 57,
          "name": "A3",
          "ticks": 99648,
          "time": 86.49991349999999,
          "velocity": 0.41732283464566927
        },
        {
          "duration": 1.3333320000000128,
          "durationTicks": 1536,
          "midi": 55,
          "name": "G3",
          "ticks": 99648,
          "time": 86.49991349999999,
          "velocity": 0.41732283464566927
        },
        {
          "duration": 1.3333320000000128,
          "durationTicks": 1536,
          "midi": 61,
          "name": "C#4",
          "ticks": 99648,
          "time": 86.49991349999999,
          "velocity": 0.41732283464566927
        },
        {
          "duration": 1.3333320000000128,
          "durationTicks": 1536,
          "midi": 64,
          "name": "E4",
          "ticks": 99648,
          "time": 86.49991349999999,
          "velocity": 0.41732283464566927
        },
        {
          "duration": 0.49999949999998705,
          "durationTicks": 576,
          "midi": 62,
          "name": "D4",
          "ticks": 101184,
          "time": 87.8332455,
          "velocity": 0.41732283464566927
        },
        {
          "duration": 0.49999949999998705,
          "durationTicks": 576,
          "midi": 69,
          "name": "A4",
          "ticks": 101184,
          "time": 87.8332455,
          "velocity": 0.41732283464566927
        },
        {
          "duration": 0.49999949999998705,
          "durationTicks": 576,
          "midi": 54,
          "name": "F#3",
          "ticks": 101184,
          "time": 87.8332455,
          "velocity": 0.41732283464566927
        },
        {
          "duration": 0.49999949999998705,
          "durationTicks": 576,
          "midi": 59,
          "name": "B3",
          "ticks": 101184,
          "time": 87.8332455,
          "velocity": 0.41732283464566927
        },
        {
          "duration": 0.16666649999999095,
          "durationTicks": 192,
          "midi": 59,
          "name": "B3",
          "ticks": 101840,
          "time": 88.402689375,
          "velocity": 0.5196850393700787
        },
        {
          "duration": 0.16666649999999095,
          "durationTicks": 192,
          "midi": 62,
          "name": "D4",
          "ticks": 101840,
          "time": 88.402689375,
          "velocity": 0.5196850393700787
        },
        {
          "duration": 0.16666649999999095,
          "durationTicks": 192,
          "midi": 69,
          "name": "A4",
          "ticks": 101840,
          "time": 88.402689375,
          "velocity": 0.5196850393700787
        },
        {
          "duration": 0.16666649999999095,
          "durationTicks": 192,
          "midi": 54,
          "name": "F#3",
          "ticks": 101840,
          "time": 88.402689375,
          "velocity": 0.5196850393700787
        },
        {
          "duration": 0.22222200000001635,
          "durationTicks": 256,
          "midi": 55,
          "name": "G3",
          "ticks": 102336,
          "time": 88.83324449999999,
          "velocity": 0.36220472440944884
        },
        {
          "duration": 0.22222200000001635,
          "durationTicks": 256,
          "midi": 64,
          "name": "E4",
          "ticks": 102336,
          "time": 88.83324449999999,
          "velocity": 0.36220472440944884
        },
        {
          "duration": 0.22222200000001635,
          "durationTicks": 256,
          "midi": 70,
          "name": "A#4",
          "ticks": 102336,
          "time": 88.83324449999999,
          "velocity": 0.36220472440944884
        },
        {
          "duration": 0.22222200000001635,
          "durationTicks": 256,
          "midi": 61,
          "name": "C#4",
          "ticks": 102336,
          "time": 88.83324449999999,
          "velocity": 0.36220472440944884
        },
        {
          "duration": 0.49999950000000126,
          "durationTicks": 576,
          "midi": 54,
          "name": "F#3",
          "ticks": 102720,
          "time": 89.1665775,
          "velocity": 0.41732283464566927
        },
        {
          "duration": 0.49999950000000126,
          "durationTicks": 576,
          "midi": 62,
          "name": "D4",
          "ticks": 102720,
          "time": 89.1665775,
          "velocity": 0.41732283464566927
        },
        {
          "duration": 0.49999950000000126,
          "durationTicks": 576,
          "midi": 59,
          "name": "B3",
          "ticks": 102720,
          "time": 89.1665775,
          "velocity": 0.41732283464566927
        },
        {
          "duration": 0.49999950000000126,
          "durationTicks": 576,
          "midi": 69,
          "name": "A4",
          "ticks": 102720,
          "time": 89.1665775,
          "velocity": 0.41732283464566927
        },
        {
          "duration": 0.16666650000000516,
          "durationTicks": 192,
          "midi": 62,
          "name": "D4",
          "ticks": 103376,
          "time": 89.73602137499999,
          "velocity": 0.5196850393700787
        },
        {
          "duration": 0.16666650000000516,
          "durationTicks": 192,
          "midi": 54,
          "name": "F#3",
          "ticks": 103376,
          "time": 89.73602137499999,
          "velocity": 0.5196850393700787
        },
        {
          "duration": 0.16666650000000516,
          "durationTicks": 192,
          "midi": 69,
          "name": "A4",
          "ticks": 103376,
          "time": 89.73602137499999,
          "velocity": 0.5196850393700787
        },
        {
          "duration": 0.16666650000000516,
          "durationTicks": 192,
          "midi": 59,
          "name": "B3",
          "ticks": 103376,
          "time": 89.73602137499999,
          "velocity": 0.5196850393700787
        },
        {
          "duration": 0.22222200000001635,
          "durationTicks": 256,
          "midi": 64,
          "name": "E4",
          "ticks": 103872,
          "time": 90.16657649999999,
          "velocity": 0.36220472440944884
        },
        {
          "duration": 0.22222200000001635,
          "durationTicks": 256,
          "midi": 61,
          "name": "C#4",
          "ticks": 103872,
          "time": 90.16657649999999,
          "velocity": 0.36220472440944884
        },
        {
          "duration": 0.22222200000001635,
          "durationTicks": 256,
          "midi": 70,
          "name": "A#4",
          "ticks": 103872,
          "time": 90.16657649999999,
          "velocity": 0.36220472440944884
        },
        {
          "duration": 0.22222200000001635,
          "durationTicks": 256,
          "midi": 55,
          "name": "G3",
          "ticks": 103872,
          "time": 90.16657649999999,
          "velocity": 0.36220472440944884
        },
        {
          "duration": 0.49999950000000126,
          "durationTicks": 576,
          "midi": 59,
          "name": "B3",
          "ticks": 104256,
          "time": 90.4999095,
          "velocity": 0.41732283464566927
        },
        {
          "duration": 0.49999950000000126,
          "durationTicks": 576,
          "midi": 62,
          "name": "D4",
          "ticks": 104256,
          "time": 90.4999095,
          "velocity": 0.41732283464566927
        },
        {
          "duration": 0.49999950000000126,
          "durationTicks": 576,
          "midi": 69,
          "name": "A4",
          "ticks": 104256,
          "time": 90.4999095,
          "velocity": 0.41732283464566927
        },
        {
          "duration": 0.49999950000000126,
          "durationTicks": 576,
          "midi": 54,
          "name": "F#3",
          "ticks": 104256,
          "time": 90.4999095,
          "velocity": 0.41732283464566927
        },
        {
          "duration": 0.08333324999999547,
          "durationTicks": 96,
          "midi": 52,
          "name": "E3",
          "ticks": 104912,
          "time": 91.06935337499999,
          "velocity": 0.5196850393700787
        },
        {
          "duration": 0.08333324999999547,
          "durationTicks": 96,
          "midi": 54,
          "name": "F#3",
          "ticks": 104912,
          "time": 91.06935337499999,
          "velocity": 0.5196850393700787
        },
        {
          "duration": 0.08333324999999547,
          "durationTicks": 96,
          "midi": 57,
          "name": "A3",
          "ticks": 104912,
          "time": 91.06935337499999,
          "velocity": 0.5196850393700787
        },
        {
          "duration": 0.08333324999999547,
          "durationTicks": 96,
          "midi": 60,
          "name": "C4",
          "ticks": 104912,
          "time": 91.06935337499999,
          "velocity": 0.5196850393700787
        },
        {
          "duration": 0.16666649999999095,
          "durationTicks": 192,
          "midi": 63,
          "name": "D#4",
          "ticks": 105792,
          "time": 91.8332415,
          "velocity": 0.41732283464566927
        },
        {
          "duration": 0.16666649999999095,
          "durationTicks": 192,
          "midi": 73,
          "name": "C#5",
          "ticks": 105792,
          "time": 91.8332415,
          "velocity": 0.41732283464566927
        },
        {
          "duration": 0.16666649999999095,
          "durationTicks": 192,
          "midi": 57,
          "name": "A3",
          "ticks": 105792,
          "time": 91.8332415,
          "velocity": 0.41732283464566927
        },
        {
          "duration": 0.16666649999999095,
          "durationTicks": 192,
          "midi": 66,
          "name": "F#4",
          "ticks": 105792,
          "time": 91.8332415,
          "velocity": 0.41732283464566927
        },
        {
          "duration": 0.16666650000000516,
          "durationTicks": 192,
          "midi": 73,
          "name": "C#5",
          "ticks": 106448,
          "time": 92.40268537499999,
          "velocity": 0.5196850393700787
        },
        {
          "duration": 0.16666650000000516,
          "durationTicks": 192,
          "midi": 57,
          "name": "A3",
          "ticks": 106448,
          "time": 92.40268537499999,
          "velocity": 0.5196850393700787
        },
        {
          "duration": 0.16666650000000516,
          "durationTicks": 192,
          "midi": 66,
          "name": "F#4",
          "ticks": 106448,
          "time": 92.40268537499999,
          "velocity": 0.5196850393700787
        },
        {
          "duration": 0.16666650000000516,
          "durationTicks": 192,
          "midi": 63,
          "name": "D#4",
          "ticks": 106448,
          "time": 92.40268537499999,
          "velocity": 0.5196850393700787
        },
        {
          "duration": 0.22222200000000214,
          "durationTicks": 256,
          "midi": 57,
          "name": "A3",
          "ticks": 106944,
          "time": 92.8332405,
          "velocity": 0.36220472440944884
        },
        {
          "duration": 0.22222200000000214,
          "durationTicks": 256,
          "midi": 59,
          "name": "B3",
          "ticks": 106944,
          "time": 92.8332405,
          "velocity": 0.36220472440944884
        },
        {
          "duration": 0.22222200000000214,
          "durationTicks": 256,
          "midi": 67,
          "name": "G4",
          "ticks": 106944,
          "time": 92.8332405,
          "velocity": 0.36220472440944884
        },
        {
          "duration": 0.22222200000000214,
          "durationTicks": 256,
          "midi": 63,
          "name": "D#4",
          "ticks": 106944,
          "time": 92.8332405,
          "velocity": 0.36220472440944884
        },
        {
          "duration": 0.16666650000000516,
          "durationTicks": 192,
          "midi": 62,
          "name": "D4",
          "ticks": 107328,
          "time": 93.1665735,
          "velocity": 0.41732283464566927
        },
        {
          "duration": 0.16666650000000516,
          "durationTicks": 192,
          "midi": 64,
          "name": "E4",
          "ticks": 107328,
          "time": 93.1665735,
          "velocity": 0.41732283464566927
        },
        {
          "duration": 0.16666650000000516,
          "durationTicks": 192,
          "midi": 55,
          "name": "G3",
          "ticks": 107328,
          "time": 93.1665735,
          "velocity": 0.41732283464566927
        },
        {
          "duration": 0.16666650000000516,
          "durationTicks": 192,
          "midi": 59,
          "name": "B3",
          "ticks": 107328,
          "time": 93.1665735,
          "velocity": 0.41732283464566927
        },
        {
          "duration": 0.08333324999999547,
          "durationTicks": 96,
          "midi": 72,
          "name": "C5",
          "ticks": 107984,
          "time": 93.73601737499999,
          "velocity": 0.5196850393700787
        },
        {
          "duration": 0.08333324999999547,
          "durationTicks": 96,
          "midi": 63,
          "name": "D#4",
          "ticks": 107984,
          "time": 93.73601737499999,
          "velocity": 0.5196850393700787
        },
        {
          "duration": 0.08333324999999547,
          "durationTicks": 96,
          "midi": 57,
          "name": "A3",
          "ticks": 107984,
          "time": 93.73601737499999,
          "velocity": 0.5196850393700787
        },
        {
          "duration": 0.08333324999999547,
          "durationTicks": 96,
          "midi": 66,
          "name": "F#4",
          "ticks": 107984,
          "time": 93.73601737499999,
          "velocity": 0.5196850393700787
        },
        {
          "duration": 0.49999950000000126,
          "durationTicks": 576,
          "midi": 59,
          "name": "B3",
          "ticks": 108864,
          "time": 94.4999055,
          "velocity": 0.41732283464566927
        },
        {
          "duration": 0.49999950000000126,
          "durationTicks": 576,
          "midi": 55,
          "name": "G3",
          "ticks": 108864,
          "time": 94.4999055,
          "velocity": 0.41732283464566927
        },
        {
          "duration": 0.49999950000000126,
          "durationTicks": 576,
          "midi": 64,
          "name": "E4",
          "ticks": 108864,
          "time": 94.4999055,
          "velocity": 0.41732283464566927
        },
        {
          "duration": 0.49999950000000126,
          "durationTicks": 576,
          "midi": 62,
          "name": "D4",
          "ticks": 108864,
          "time": 94.4999055,
          "velocity": 0.41732283464566927
        },
        {
          "duration": 0.08333325000000968,
          "durationTicks": 96,
          "midi": 65,
          "name": "F4",
          "ticks": 109520,
          "time": 95.06934937499999,
          "velocity": 0.5196850393700787
        },
        {
          "duration": 0.08333325000000968,
          "durationTicks": 96,
          "midi": 70,
          "name": "A#4",
          "ticks": 109520,
          "time": 95.06934937499999,
          "velocity": 0.5196850393700787
        },
        {
          "duration": 0.08333325000000968,
          "durationTicks": 96,
          "midi": 55,
          "name": "G3",
          "ticks": 109520,
          "time": 95.06934937499999,
          "velocity": 0.5196850393700787
        },
        {
          "duration": 0.08333325000000968,
          "durationTicks": 96,
          "midi": 61,
          "name": "C#4",
          "ticks": 109520,
          "time": 95.06934937499999,
          "velocity": 0.5196850393700787
        },
        {
          "duration": 0.09722212499998761,
          "durationTicks": 112,
          "midi": 57,
          "name": "A3",
          "ticks": 110272,
          "time": 95.7221265,
          "velocity": 0.5196850393700787
        },
        {
          "duration": 0.09722212499998761,
          "durationTicks": 112,
          "midi": 59,
          "name": "B3",
          "ticks": 110272,
          "time": 95.7221265,
          "velocity": 0.5196850393700787
        },
        {
          "duration": 0.09722212499998761,
          "durationTicks": 112,
          "midi": 62,
          "name": "D4",
          "ticks": 110272,
          "time": 95.7221265,
          "velocity": 0.5196850393700787
        },
        {
          "duration": 0.09722212499998761,
          "durationTicks": 112,
          "midi": 54,
          "name": "F#3",
          "ticks": 110272,
          "time": 95.7221265,
          "velocity": 0.5196850393700787
        },
        {
          "duration": 0.08333324999999547,
          "durationTicks": 96,
          "midi": 62,
          "name": "D4",
          "ticks": 111824,
          "time": 97.06934737499999,
          "velocity": 0.4566929133858268
        },
        {
          "duration": 0.08333324999999547,
          "durationTicks": 96,
          "midi": 57,
          "name": "A3",
          "ticks": 111824,
          "time": 97.06934737499999,
          "velocity": 0.4566929133858268
        },
        {
          "duration": 0.08333324999999547,
          "durationTicks": 96,
          "midi": 59,
          "name": "B3",
          "ticks": 111824,
          "time": 97.06934737499999,
          "velocity": 0.4566929133858268
        },
        {
          "duration": 0.08333324999999547,
          "durationTicks": 96,
          "midi": 54,
          "name": "F#3",
          "ticks": 111824,
          "time": 97.06934737499999,
          "velocity": 0.4566929133858268
        },
        {
          "duration": 0.4166662500000058,
          "durationTicks": 480,
          "midi": 57,
          "name": "A3",
          "ticks": 112960,
          "time": 98.0554575,
          "velocity": 0.41732283464566927
        },
        {
          "duration": 0.4166662500000058,
          "durationTicks": 480,
          "midi": 45,
          "name": "A2",
          "ticks": 112960,
          "time": 98.0554575,
          "velocity": 0.41732283464566927
        },
        {
          "duration": 0.22222200000001635,
          "durationTicks": 256,
          "midi": 54,
          "name": "F#3",
          "ticks": 113472,
          "time": 98.49990149999999,
          "velocity": 0.36220472440944884
        },
        {
          "duration": 0.22222200000001635,
          "durationTicks": 256,
          "midi": 62,
          "name": "D4",
          "ticks": 113472,
          "time": 98.49990149999999,
          "velocity": 0.36220472440944884
        },
        {
          "duration": 0.22222200000001635,
          "durationTicks": 256,
          "midi": 70,
          "name": "A#4",
          "ticks": 113472,
          "time": 98.49990149999999,
          "velocity": 0.36220472440944884
        },
        {
          "duration": 0.22222200000001635,
          "durationTicks": 256,
          "midi": 63,
          "name": "D#4",
          "ticks": 113472,
          "time": 98.49990149999999,
          "velocity": 0.36220472440944884
        },
        {
          "duration": 0.16666649999999095,
          "durationTicks": 192,
          "midi": 53,
          "name": "F3",
          "ticks": 113856,
          "time": 98.8332345,
          "velocity": 0.41732283464566927
        },
        {
          "duration": 0.16666649999999095,
          "durationTicks": 192,
          "midi": 64,
          "name": "E4",
          "ticks": 113856,
          "time": 98.8332345,
          "velocity": 0.41732283464566927
        },
        {
          "duration": 0.16666649999999095,
          "durationTicks": 192,
          "midi": 57,
          "name": "A3",
          "ticks": 113856,
          "time": 98.8332345,
          "velocity": 0.41732283464566927
        },
        {
          "duration": 0.16666649999999095,
          "durationTicks": 192,
          "midi": 59,
          "name": "B3",
          "ticks": 113856,
          "time": 98.8332345,
          "velocity": 0.41732283464566927
        },
        {
          "duration": 0.08333324999999547,
          "durationTicks": 96,
          "midi": 64,
          "name": "E4",
          "ticks": 114512,
          "time": 99.402678375,
          "velocity": 0.5196850393700787
        },
        {
          "duration": 0.08333324999999547,
          "durationTicks": 96,
          "midi": 60,
          "name": "C4",
          "ticks": 114512,
          "time": 99.402678375,
          "velocity": 0.5196850393700787
        },
        {
          "duration": 0.08333324999999547,
          "durationTicks": 96,
          "midi": 54,
          "name": "F#3",
          "ticks": 114512,
          "time": 99.402678375,
          "velocity": 0.5196850393700787
        },
        {
          "duration": 0.08333324999999547,
          "durationTicks": 96,
          "midi": 71,
          "name": "B4",
          "ticks": 114512,
          "time": 99.402678375,
          "velocity": 0.5196850393700787
        },
        {
          "duration": 0.49999950000000126,
          "durationTicks": 576,
          "midi": 59,
          "name": "B3",
          "ticks": 115008,
          "time": 99.83323349999999,
          "velocity": 0.41732283464566927
        },
        {
          "duration": 0.49999950000000126,
          "durationTicks": 576,
          "midi": 57,
          "name": "A3",
          "ticks": 115008,
          "time": 99.83323349999999,
          "velocity": 0.41732283464566927
        },
        {
          "duration": 0.49999950000000126,
          "durationTicks": 576,
          "midi": 64,
          "name": "E4",
          "ticks": 115008,
          "time": 99.83323349999999,
          "velocity": 0.41732283464566927
        },
        {
          "duration": 0.49999950000000126,
          "durationTicks": 576,
          "midi": 53,
          "name": "F3",
          "ticks": 115008,
          "time": 99.83323349999999,
          "velocity": 0.41732283464566927
        },
        {
          "duration": 0.08333324999999547,
          "durationTicks": 96,
          "midi": 59,
          "name": "B3",
          "ticks": 115664,
          "time": 100.402677375,
          "velocity": 0.5196850393700787
        },
        {
          "duration": 0.08333324999999547,
          "durationTicks": 96,
          "midi": 68,
          "name": "G#4",
          "ticks": 115664,
          "time": 100.402677375,
          "velocity": 0.5196850393700787
        },
        {
          "duration": 0.08333324999999547,
          "durationTicks": 96,
          "midi": 55,
          "name": "G3",
          "ticks": 115664,
          "time": 100.402677375,
          "velocity": 0.5196850393700787
        },
        {
          "duration": 0.08333324999999547,
          "durationTicks": 96,
          "midi": 63,
          "name": "D#4",
          "ticks": 115664,
          "time": 100.402677375,
          "velocity": 0.5196850393700787
        },
        {
          "duration": 0.0972221249999734,
          "durationTicks": 112,
          "midi": 59,
          "name": "B3",
          "ticks": 116416,
          "time": 101.05545450000001,
          "velocity": 0.5196850393700787
        },
        {
          "duration": 0.0972221249999734,
          "durationTicks": 112,
          "midi": 62,
          "name": "D4",
          "ticks": 116416,
          "time": 101.05545450000001,
          "velocity": 0.5196850393700787
        },
        {
          "duration": 0.0972221249999734,
          "durationTicks": 112,
          "midi": 67,
          "name": "G4",
          "ticks": 116416,
          "time": 101.05545450000001,
          "velocity": 0.5196850393700787
        },
        {
          "duration": 0.0972221249999734,
          "durationTicks": 112,
          "midi": 52,
          "name": "E3",
          "ticks": 116416,
          "time": 101.05545450000001,
          "velocity": 0.5196850393700787
        },
        {
          "duration": 0.1805553750000115,
          "durationTicks": 208,
          "midi": 67,
          "name": "G4",
          "ticks": 117312,
          "time": 101.8332315,
          "velocity": 0.3858267716535433
        },
        {
          "duration": 0.1805553750000115,
          "durationTicks": 208,
          "midi": 62,
          "name": "D4",
          "ticks": 117312,
          "time": 101.8332315,
          "velocity": 0.3858267716535433
        },
        {
          "duration": 0.1805553750000115,
          "durationTicks": 208,
          "midi": 59,
          "name": "B3",
          "ticks": 117312,
          "time": 101.8332315,
          "velocity": 0.3858267716535433
        },
        {
          "duration": 0.1805553750000115,
          "durationTicks": 208,
          "midi": 52,
          "name": "E3",
          "ticks": 117312,
          "time": 101.8332315,
          "velocity": 0.3858267716535433
        },
        {
          "duration": 0.22222200000001635,
          "durationTicks": 256,
          "midi": 67,
          "name": "G4",
          "ticks": 117696,
          "time": 102.16656449999999,
          "velocity": 0.4566929133858268
        },
        {
          "duration": 0.22222200000001635,
          "durationTicks": 256,
          "midi": 59,
          "name": "B3",
          "ticks": 117696,
          "time": 102.16656449999999,
          "velocity": 0.4566929133858268
        },
        {
          "duration": 0.22222200000001635,
          "durationTicks": 256,
          "midi": 62,
          "name": "D4",
          "ticks": 117696,
          "time": 102.16656449999999,
          "velocity": 0.4566929133858268
        },
        {
          "duration": 0.22222200000001635,
          "durationTicks": 256,
          "midi": 52,
          "name": "E3",
          "ticks": 117696,
          "time": 102.16656449999999,
          "velocity": 0.4566929133858268
        },
        {
          "duration": 0.10763878125000303,
          "durationTicks": 124,
          "midi": 43,
          "name": "G2",
          "ticks": 118340,
          "time": 102.72559171875,
          "velocity": 0.4645669291338583
        },
        {
          "duration": 0.10763878125000303,
          "durationTicks": 124,
          "midi": 53,
          "name": "F3",
          "ticks": 118340,
          "time": 102.72559171875,
          "velocity": 0.4645669291338583
        },
        {
          "duration": 0.10763878125000303,
          "durationTicks": 124,
          "midi": 50,
          "name": "D3",
          "ticks": 118340,
          "time": 102.72559171875,
          "velocity": 0.4645669291338583
        },
        {
          "duration": 0.10763878125000303,
          "durationTicks": 124,
          "midi": 59,
          "name": "B3",
          "ticks": 118340,
          "time": 102.72559171875,
          "velocity": 0.4645669291338583
        },
        {
          "duration": 0.3298607812500052,
          "durationTicks": 380,
          "midi": 43,
          "name": "G2",
          "ticks": 118340,
          "time": 102.72559171875,
          "velocity": 0.4645669291338583
        },
        {
          "duration": 0.1093748906249914,
          "durationTicks": 126,
          "midi": 62,
          "name": "D4",
          "ticks": 118340,
          "time": 102.72559171875,
          "velocity": 0.4645669291338583
        },
        {
          "duration": 0.22222200000000214,
          "durationTicks": 256,
          "midi": 52,
          "name": "E3",
          "ticks": 118464,
          "time": 102.8332305,
          "velocity": 0.48031496062992124
        },
        {
          "duration": 0.22222200000000214,
          "durationTicks": 256,
          "midi": 48,
          "name": "C3",
          "ticks": 118464,
          "time": 102.8332305,
          "velocity": 0.48031496062992124
        },
        {
          "duration": 0.22222200000000214,
          "durationTicks": 256,
          "midi": 42,
          "name": "F#2",
          "ticks": 118464,
          "time": 102.8332305,
          "velocity": 0.48031496062992124
        },
        {
          "duration": 0.40190932031249815,
          "durationTicks": 463,
          "midi": 42,
          "name": "F#2",
          "ticks": 118464,
          "time": 102.8332305,
          "velocity": 0.48031496062992124
        },
        {
          "duration": 0.22222200000000214,
          "durationTicks": 256,
          "midi": 58,
          "name": "A#3",
          "ticks": 118464,
          "time": 102.8332305,
          "velocity": 0.48031496062992124
        },
        {
          "duration": 0.22222200000001635,
          "durationTicks": 256,
          "midi": 63,
          "name": "D#4",
          "ticks": 118466,
          "time": 102.83496660937499,
          "velocity": 0.48031496062992124
        },
        {
          "duration": 0.44444399999999007,
          "durationTicks": 512,
          "midi": 53,
          "name": "F3",
          "ticks": 118720,
          "time": 103.0554525,
          "velocity": 0.5118110236220472
        },
        {
          "duration": 0.44444399999999007,
          "durationTicks": 512,
          "midi": 59,
          "name": "B3",
          "ticks": 118720,
          "time": 103.0554525,
          "velocity": 0.5118110236220472
        },
        {
          "duration": 0.44444399999999007,
          "durationTicks": 512,
          "midi": 50,
          "name": "D3",
          "ticks": 118720,
          "time": 103.0554525,
          "velocity": 0.5118110236220472
        },
        {
          "duration": 0.44444399999999007,
          "durationTicks": 512,
          "midi": 43,
          "name": "G2",
          "ticks": 118720,
          "time": 103.0554525,
          "velocity": 0.5118110236220472
        },
        {
          "duration": 5.43575845312499,
          "durationTicks": 6262,
          "midi": 43,
          "name": "G2",
          "ticks": 118720,
          "time": 103.0554525,
          "velocity": 0.5118110236220472
        },
        {
          "duration": 0.44444399999999007,
          "durationTicks": 512,
          "midi": 64,
          "name": "E4",
          "ticks": 118722,
          "time": 103.057188609375,
          "velocity": 0.5118110236220472
        },
        {
          "duration": 1.2222210000000047,
          "durationTicks": 1408,
          "midi": 57,
          "name": "A3",
          "ticks": 119616,
          "time": 103.8332295,
          "velocity": 0.41732283464566927
        },
        {
          "duration": 1.2222210000000047,
          "durationTicks": 1408,
          "midi": 52,
          "name": "E3",
          "ticks": 119616,
          "time": 103.8332295,
          "velocity": 0.41732283464566927
        },
        {
          "duration": 1.2222210000000047,
          "durationTicks": 1408,
          "midi": 60,
          "name": "C4",
          "ticks": 119616,
          "time": 103.8332295,
          "velocity": 0.41732283464566927
        },
        {
          "duration": 1.2222210000000047,
          "durationTicks": 1408,
          "midi": 67,
          "name": "G4",
          "ticks": 119616,
          "time": 103.8332295,
          "velocity": 0.41732283464566927
        },
        {
          "duration": 0.22222200000000214,
          "durationTicks": 256,
          "midi": 57,
          "name": "A3",
          "ticks": 121152,
          "time": 105.1665615,
          "velocity": 0.41732283464566927
        },
        {
          "duration": 0.22222200000000214,
          "durationTicks": 256,
          "midi": 52,
          "name": "E3",
          "ticks": 121152,
          "time": 105.1665615,
          "velocity": 0.41732283464566927
        },
        {
          "duration": 0.22222200000000214,
          "durationTicks": 256,
          "midi": 67,
          "name": "G4",
          "ticks": 121152,
          "time": 105.1665615,
          "velocity": 0.41732283464566927
        },
        {
          "duration": 0.22222200000000214,
          "durationTicks": 256,
          "midi": 60,
          "name": "C4",
          "ticks": 121152,
          "time": 105.1665615,
          "velocity": 0.41732283464566927
        },
        {
          "duration": 0.13888875000000667,
          "durationTicks": 160,
          "midi": 57,
          "name": "A3",
          "ticks": 121536,
          "time": 105.4998945,
          "velocity": 0.41732283464566927
        },
        {
          "duration": 0.13888875000000667,
          "durationTicks": 160,
          "midi": 60,
          "name": "C4",
          "ticks": 121536,
          "time": 105.4998945,
          "velocity": 0.41732283464566927
        },
        {
          "duration": 0.13888875000000667,
          "durationTicks": 160,
          "midi": 67,
          "name": "G4",
          "ticks": 121536,
          "time": 105.4998945,
          "velocity": 0.41732283464566927
        },
        {
          "duration": 0.13888875000000667,
          "durationTicks": 160,
          "midi": 52,
          "name": "E3",
          "ticks": 121536,
          "time": 105.4998945,
          "velocity": 0.41732283464566927
        },
        {
          "duration": 0.08333324999999547,
          "durationTicks": 96,
          "midi": 67,
          "name": "G4",
          "ticks": 121808,
          "time": 105.73600537499999,
          "velocity": 0.41732283464566927
        },
        {
          "duration": 0.08333324999999547,
          "durationTicks": 96,
          "midi": 57,
          "name": "A3",
          "ticks": 121808,
          "time": 105.73600537499999,
          "velocity": 0.41732283464566927
        },
        {
          "duration": 0.08333324999999547,
          "durationTicks": 96,
          "midi": 52,
          "name": "E3",
          "ticks": 121808,
          "time": 105.73600537499999,
          "velocity": 0.41732283464566927
        },
        {
          "duration": 0.08333324999999547,
          "durationTicks": 96,
          "midi": 60,
          "name": "C4",
          "ticks": 121808,
          "time": 105.73600537499999,
          "velocity": 0.41732283464566927
        },
        {
          "duration": 0.13888875000000667,
          "durationTicks": 160,
          "midi": 57,
          "name": "A3",
          "ticks": 123456,
          "time": 107.16655949999999,
          "velocity": 0.41732283464566927
        },
        {
          "duration": 0.13888875000000667,
          "durationTicks": 160,
          "midi": 62,
          "name": "D4",
          "ticks": 123456,
          "time": 107.16655949999999,
          "velocity": 0.41732283464566927
        },
        {
          "duration": 0.13888875000000667,
          "durationTicks": 160,
          "midi": 72,
          "name": "C5",
          "ticks": 123456,
          "time": 107.16655949999999,
          "velocity": 0.41732283464566927
        },
        {
          "duration": 0.13888875000000667,
          "durationTicks": 160,
          "midi": 67,
          "name": "G4",
          "ticks": 123456,
          "time": 107.16655949999999,
          "velocity": 0.41732283464566927
        },
        {
          "duration": 0.13888874999997824,
          "durationTicks": 160,
          "midi": 62,
          "name": "D4",
          "ticks": 123712,
          "time": 107.38878150000001,
          "velocity": 0.41732283464566927
        },
        {
          "duration": 0.13888874999997824,
          "durationTicks": 160,
          "midi": 67,
          "name": "G4",
          "ticks": 123712,
          "time": 107.38878150000001,
          "velocity": 0.41732283464566927
        },
        {
          "duration": 0.13888874999997824,
          "durationTicks": 160,
          "midi": 72,
          "name": "C5",
          "ticks": 123712,
          "time": 107.38878150000001,
          "velocity": 0.41732283464566927
        },
        {
          "duration": 0.13888874999997824,
          "durationTicks": 160,
          "midi": 57,
          "name": "A3",
          "ticks": 123712,
          "time": 107.38878150000001,
          "velocity": 0.41732283464566927
        },
        {
          "duration": 0.13888875000000667,
          "durationTicks": 160,
          "midi": 67,
          "name": "G4",
          "ticks": 124224,
          "time": 107.8332255,
          "velocity": 0.41732283464566927
        },
        {
          "duration": 0.13888875000000667,
          "durationTicks": 160,
          "midi": 62,
          "name": "D4",
          "ticks": 124224,
          "time": 107.8332255,
          "velocity": 0.41732283464566927
        },
        {
          "duration": 0.13888875000000667,
          "durationTicks": 160,
          "midi": 57,
          "name": "A3",
          "ticks": 124224,
          "time": 107.8332255,
          "velocity": 0.41732283464566927
        },
        {
          "duration": 0.13888875000000667,
          "durationTicks": 160,
          "midi": 72,
          "name": "C5",
          "ticks": 124224,
          "time": 107.8332255,
          "velocity": 0.41732283464566927
        },
        {
          "duration": 0.08333325000000968,
          "durationTicks": 96,
          "midi": 67,
          "name": "G4",
          "ticks": 124880,
          "time": 108.40266937499999,
          "velocity": 0.41732283464566927
        },
        {
          "duration": 0.08333325000000968,
          "durationTicks": 96,
          "midi": 57,
          "name": "A3",
          "ticks": 124880,
          "time": 108.40266937499999,
          "velocity": 0.41732283464566927
        },
        {
          "duration": 0.08333325000000968,
          "durationTicks": 96,
          "midi": 52,
          "name": "E3",
          "ticks": 124880,
          "time": 108.40266937499999,
          "velocity": 0.41732283464566927
        },
        {
          "duration": 0.08333325000000968,
          "durationTicks": 96,
          "midi": 60,
          "name": "C4",
          "ticks": 124880,
          "time": 108.40266937499999,
          "velocity": 0.41732283464566927
        },
        {
          "duration": 0.22222199999998793,
          "durationTicks": 256,
          "midi": 62,
          "name": "D4",
          "ticks": 126016,
          "time": 109.3887795,
          "velocity": 0.41732283464566927
        },
        {
          "duration": 0.22222199999998793,
          "durationTicks": 256,
          "midi": 59,
          "name": "B3",
          "ticks": 126016,
          "time": 109.3887795,
          "velocity": 0.41732283464566927
        },
        {
          "duration": 0.22222199999998793,
          "durationTicks": 256,
          "midi": 67,
          "name": "G4",
          "ticks": 126016,
          "time": 109.3887795,
          "velocity": 0.41732283464566927
        },
        {
          "duration": 0.22222199999998793,
          "durationTicks": 256,
          "midi": 53,
          "name": "F3",
          "ticks": 126016,
          "time": 109.3887795,
          "velocity": 0.41732283464566927
        },
        {
          "duration": 0.22222200000000214,
          "durationTicks": 256,
          "midi": 62,
          "name": "D4",
          "ticks": 127296,
          "time": 110.4998895,
          "velocity": 0.41732283464566927
        },
        {
          "duration": 0.22222200000000214,
          "durationTicks": 256,
          "midi": 59,
          "name": "B3",
          "ticks": 127296,
          "time": 110.4998895,
          "velocity": 0.41732283464566927
        },
        {
          "duration": 0.22222200000000214,
          "durationTicks": 256,
          "midi": 67,
          "name": "G4",
          "ticks": 127296,
          "time": 110.4998895,
          "velocity": 0.41732283464566927
        },
        {
          "duration": 0.22222200000000214,
          "durationTicks": 256,
          "midi": 53,
          "name": "F3",
          "ticks": 127296,
          "time": 110.4998895,
          "velocity": 0.41732283464566927
        },
        {
          "duration": 0.08333325000000968,
          "durationTicks": 96,
          "midi": 53,
          "name": "F3",
          "ticks": 127952,
          "time": 111.06933337499999,
          "velocity": 0.41732283464566927
        },
        {
          "duration": 0.08333325000000968,
          "durationTicks": 96,
          "midi": 67,
          "name": "G4",
          "ticks": 127952,
          "time": 111.06933337499999,
          "velocity": 0.41732283464566927
        },
        {
          "duration": 0.08333325000000968,
          "durationTicks": 96,
          "midi": 62,
          "name": "D4",
          "ticks": 127952,
          "time": 111.06933337499999,
          "velocity": 0.41732283464566927
        },
        {
          "duration": 0.08333325000000968,
          "durationTicks": 96,
          "midi": 59,
          "name": "B3",
          "ticks": 127952,
          "time": 111.06933337499999,
          "velocity": 0.41732283464566927
        },
        {
          "duration": 0.22222200000000214,
          "durationTicks": 256,
          "midi": 53,
          "name": "F3",
          "ticks": 128064,
          "time": 111.1665555,
          "velocity": 0.41732283464566927
        },
        {
          "duration": 0.22222200000000214,
          "durationTicks": 256,
          "midi": 67,
          "name": "G4",
          "ticks": 128064,
          "time": 111.1665555,
          "velocity": 0.41732283464566927
        },
        {
          "duration": 0.22222200000000214,
          "durationTicks": 256,
          "midi": 59,
          "name": "B3",
          "ticks": 128064,
          "time": 111.1665555,
          "velocity": 0.41732283464566927
        },
        {
          "duration": 0.22222200000000214,
          "durationTicks": 256,
          "midi": 62,
          "name": "D4",
          "ticks": 128064,
          "time": 111.1665555,
          "velocity": 0.41732283464566927
        },
        {
          "duration": 0.49999950000000126,
          "durationTicks": 576,
          "midi": 52,
          "name": "E3",
          "ticks": 128832,
          "time": 111.8332215,
          "velocity": 0.41732283464566927
        },
        {
          "duration": 0.49999950000000126,
          "durationTicks": 576,
          "midi": 67,
          "name": "G4",
          "ticks": 128832,
          "time": 111.8332215,
          "velocity": 0.41732283464566927
        },
        {
          "duration": 0.49999950000000126,
          "durationTicks": 576,
          "midi": 60,
          "name": "C4",
          "ticks": 128832,
          "time": 111.8332215,
          "velocity": 0.41732283464566927
        },
        {
          "duration": 0.49999950000000126,
          "durationTicks": 576,
          "midi": 57,
          "name": "A3",
          "ticks": 128832,
          "time": 111.8332215,
          "velocity": 0.41732283464566927
        },
        {
          "duration": 0.08333325000000968,
          "durationTicks": 96,
          "midi": 62,
          "name": "D4",
          "ticks": 129488,
          "time": 112.40266537499998,
          "velocity": 0.5196850393700787
        },
        {
          "duration": 0.08333325000000968,
          "durationTicks": 96,
          "midi": 59,
          "name": "B3",
          "ticks": 129488,
          "time": 112.40266537499998,
          "velocity": 0.5196850393700787
        },
        {
          "duration": 0.08333325000000968,
          "durationTicks": 96,
          "midi": 53,
          "name": "F3",
          "ticks": 129488,
          "time": 112.40266537499998,
          "velocity": 0.5196850393700787
        },
        {
          "duration": 0.08333325000000968,
          "durationTicks": 96,
          "midi": 67,
          "name": "G4",
          "ticks": 129488,
          "time": 112.40266537499998,
          "velocity": 0.5196850393700787
        },
        {
          "duration": 0.09722212499998761,
          "durationTicks": 112,
          "midi": 55,
          "name": "G3",
          "ticks": 130240,
          "time": 113.0554425,
          "velocity": 0.5196850393700787
        },
        {
          "duration": 0.09722212499998761,
          "durationTicks": 112,
          "midi": 57,
          "name": "A3",
          "ticks": 130240,
          "time": 113.0554425,
          "velocity": 0.5196850393700787
        },
        {
          "duration": 0.09722212499998761,
          "durationTicks": 112,
          "midi": 60,
          "name": "C4",
          "ticks": 130240,
          "time": 113.0554425,
          "velocity": 0.5196850393700787
        },
        {
          "duration": 0.09722212499998761,
          "durationTicks": 112,
          "midi": 52,
          "name": "E3",
          "ticks": 130240,
          "time": 113.0554425,
          "velocity": 0.5196850393700787
        },
        {
          "duration": 0.09722212499998761,
          "durationTicks": 112,
          "midi": 53,
          "name": "F3",
          "ticks": 131008,
          "time": 113.7221085,
          "velocity": 0.5196850393700787
        },
        {
          "duration": 0.09722212499998761,
          "durationTicks": 112,
          "midi": 63,
          "name": "D#4",
          "ticks": 131008,
          "time": 113.7221085,
          "velocity": 0.5196850393700787
        },
        {
          "duration": 0.09722212499998761,
          "durationTicks": 112,
          "midi": 67,
          "name": "G4",
          "ticks": 131008,
          "time": 113.7221085,
          "velocity": 0.5196850393700787
        },
        {
          "duration": 0.09722212499998761,
          "durationTicks": 112,
          "midi": 59,
          "name": "B3",
          "ticks": 131008,
          "time": 113.7221085,
          "velocity": 0.5196850393700787
        },
        {
          "duration": 0.16666650000000516,
          "durationTicks": 192,
          "midi": 57,
          "name": "A3",
          "ticks": 132672,
          "time": 115.1665515,
          "velocity": 0.41732283464566927
        },
        {
          "duration": 0.16666650000000516,
          "durationTicks": 192,
          "midi": 52,
          "name": "E3",
          "ticks": 132672,
          "time": 115.1665515,
          "velocity": 0.41732283464566927
        },
        {
          "duration": 0.16666650000000516,
          "durationTicks": 192,
          "midi": 55,
          "name": "G3",
          "ticks": 132672,
          "time": 115.1665515,
          "velocity": 0.41732283464566927
        },
        {
          "duration": 0.16666650000000516,
          "durationTicks": 192,
          "midi": 60,
          "name": "C4",
          "ticks": 132672,
          "time": 115.1665515,
          "velocity": 0.41732283464566927
        },
        {
          "duration": 0.19444425000001786,
          "durationTicks": 224,
          "midi": 52,
          "name": "E3",
          "ticks": 132944,
          "time": 115.40266237499999,
          "velocity": 0.41732283464566927
        },
        {
          "duration": 0.19444425000001786,
          "durationTicks": 224,
          "midi": 57,
          "name": "A3",
          "ticks": 132944,
          "time": 115.40266237499999,
          "velocity": 0.41732283464566927
        },
        {
          "duration": 0.19444425000001786,
          "durationTicks": 224,
          "midi": 60,
          "name": "C4",
          "ticks": 132944,
          "time": 115.40266237499999,
          "velocity": 0.41732283464566927
        },
        {
          "duration": 0.19444425000001786,
          "durationTicks": 224,
          "midi": 55,
          "name": "G3",
          "ticks": 132944,
          "time": 115.40266237499999,
          "velocity": 0.41732283464566927
        },
        {
          "duration": 0.08333325000000968,
          "durationTicks": 96,
          "midi": 55,
          "name": "G3",
          "ticks": 133328,
          "time": 115.73599537499999,
          "velocity": 0.41732283464566927
        },
        {
          "duration": 0.08333325000000968,
          "durationTicks": 96,
          "midi": 57,
          "name": "A3",
          "ticks": 133328,
          "time": 115.73599537499999,
          "velocity": 0.41732283464566927
        },
        {
          "duration": 0.08333325000000968,
          "durationTicks": 96,
          "midi": 52,
          "name": "E3",
          "ticks": 133328,
          "time": 115.73599537499999,
          "velocity": 0.41732283464566927
        },
        {
          "duration": 0.08333325000000968,
          "durationTicks": 96,
          "midi": 60,
          "name": "C4",
          "ticks": 133328,
          "time": 115.73599537499999,
          "velocity": 0.41732283464566927
        },
        {
          "duration": 0.49999950000000126,
          "durationTicks": 576,
          "midi": 57,
          "name": "A3",
          "ticks": 134976,
          "time": 117.1665495,
          "velocity": 0.41732283464566927
        },
        {
          "duration": 0.49999950000000126,
          "durationTicks": 576,
          "midi": 55,
          "name": "G3",
          "ticks": 134976,
          "time": 117.1665495,
          "velocity": 0.41732283464566927
        },
        {
          "duration": 0.49999950000000126,
          "durationTicks": 576,
          "midi": 52,
          "name": "E3",
          "ticks": 134976,
          "time": 117.1665495,
          "velocity": 0.41732283464566927
        },
        {
          "duration": 0.49999950000000126,
          "durationTicks": 576,
          "midi": 60,
          "name": "C4",
          "ticks": 134976,
          "time": 117.1665495,
          "velocity": 0.41732283464566927
        },
        {
          "duration": 0.08333324999999547,
          "durationTicks": 96,
          "midi": 62,
          "name": "D4",
          "ticks": 135632,
          "time": 117.73599337499999,
          "velocity": 0.5196850393700787
        },
        {
          "duration": 0.08333324999999547,
          "durationTicks": 96,
          "midi": 64,
          "name": "E4",
          "ticks": 135632,
          "time": 117.73599337499999,
          "velocity": 0.5196850393700787
        },
        {
          "duration": 0.08333324999999547,
          "durationTicks": 96,
          "midi": 55,
          "name": "G3",
          "ticks": 135632,
          "time": 117.73599337499999,
          "velocity": 0.5196850393700787
        },
        {
          "duration": 0.08333324999999547,
          "durationTicks": 96,
          "midi": 58,
          "name": "A#3",
          "ticks": 135632,
          "time": 117.73599337499999,
          "velocity": 0.5196850393700787
        },
        {
          "duration": 1.3333319999999986,
          "durationTicks": 1536,
          "midi": 57,
          "name": "A3",
          "ticks": 136496,
          "time": 118.485992625,
          "velocity": 0.41732283464566927
        },
        {
          "duration": 1.3333319999999986,
          "durationTicks": 1536,
          "midi": 61,
          "name": "C#4",
          "ticks": 136496,
          "time": 118.485992625,
          "velocity": 0.41732283464566927
        },
        {
          "duration": 1.3333319999999986,
          "durationTicks": 1536,
          "midi": 55,
          "name": "G3",
          "ticks": 136496,
          "time": 118.485992625,
          "velocity": 0.41732283464566927
        },
        {
          "duration": 1.3333319999999986,
          "durationTicks": 1536,
          "midi": 64,
          "name": "E4",
          "ticks": 136496,
          "time": 118.485992625,
          "velocity": 0.41732283464566927
        },
        {
          "duration": 1.3333319999999986,
          "durationTicks": 1536,
          "midi": 69,
          "name": "A4",
          "ticks": 138032,
          "time": 119.819324625,
          "velocity": 0.41732283464566927
        },
        {
          "duration": 1.3333319999999986,
          "durationTicks": 1536,
          "midi": 62,
          "name": "D4",
          "ticks": 138032,
          "time": 119.819324625,
          "velocity": 0.41732283464566927
        },
        {
          "duration": 1.3333319999999986,
          "durationTicks": 1536,
          "midi": 60,
          "name": "C4",
          "ticks": 138032,
          "time": 119.819324625,
          "velocity": 0.41732283464566927
        },
        {
          "duration": 1.3333319999999986,
          "durationTicks": 1536,
          "midi": 54,
          "name": "F#3",
          "ticks": 138032,
          "time": 119.819324625,
          "velocity": 0.41732283464566927
        },
        {
          "duration": 0.08333324999999547,
          "durationTicks": 96,
          "midi": 43,
          "name": "G2",
          "ticks": 140240,
          "time": 121.73598937499999,
          "velocity": 0.2755905511811024
        },
        {
          "duration": 0.1805553750000115,
          "durationTicks": 208,
          "midi": 59,
          "name": "B3",
          "ticks": 140352,
          "time": 121.83321149999999,
          "velocity": 0.3858267716535433
        },
        {
          "duration": 0.1805553750000115,
          "durationTicks": 208,
          "midi": 62,
          "name": "D4",
          "ticks": 140352,
          "time": 121.83321149999999,
          "velocity": 0.3858267716535433
        },
        {
          "duration": 0.1805553750000115,
          "durationTicks": 208,
          "midi": 67,
          "name": "G4",
          "ticks": 140352,
          "time": 121.83321149999999,
          "velocity": 0.3858267716535433
        },
        {
          "duration": 0.1805553750000115,
          "durationTicks": 208,
          "midi": 53,
          "name": "F3",
          "ticks": 140352,
          "time": 121.83321149999999,
          "velocity": 0.3858267716535433
        },
        {
          "duration": 0.05555550000001119,
          "durationTicks": 64,
          "midi": 43,
          "name": "G2",
          "ticks": 140624,
          "time": 122.06932237499998,
          "velocity": 0.13385826771653545
        },
        {
          "duration": 0.22222200000000214,
          "durationTicks": 256,
          "midi": 53,
          "name": "F3",
          "ticks": 140736,
          "time": 122.1665445,
          "velocity": 0.4566929133858268
        },
        {
          "duration": 0.22222200000000214,
          "durationTicks": 256,
          "midi": 62,
          "name": "D4",
          "ticks": 140736,
          "time": 122.1665445,
          "velocity": 0.4566929133858268
        },
        {
          "duration": 0.22222200000000214,
          "durationTicks": 256,
          "midi": 67,
          "name": "G4",
          "ticks": 140736,
          "time": 122.1665445,
          "velocity": 0.4566929133858268
        },
        {
          "duration": 0.22222200000000214,
          "durationTicks": 256,
          "midi": 59,
          "name": "B3",
          "ticks": 140736,
          "time": 122.1665445,
          "velocity": 0.4566929133858268
        },
        {
          "duration": 0.5833327499999967,
          "durationTicks": 672,
          "midi": 60,
          "name": "C4",
          "ticks": 141120,
          "time": 122.4998775,
          "velocity": 0.4015748031496063
        },
        {
          "duration": 0.5833327499999967,
          "durationTicks": 672,
          "midi": 57,
          "name": "A3",
          "ticks": 141120,
          "time": 122.4998775,
          "velocity": 0.4015748031496063
        },
        {
          "duration": 0.5833327499999967,
          "durationTicks": 672,
          "midi": 55,
          "name": "G3",
          "ticks": 141120,
          "time": 122.4998775,
          "velocity": 0.4015748031496063
        },
        {
          "duration": 0.5833327499999967,
          "durationTicks": 672,
          "midi": 52,
          "name": "E3",
          "ticks": 141120,
          "time": 122.4998775,
          "velocity": 0.4015748031496063
        },
        {
          "duration": 0.2777774999999849,
          "durationTicks": 320,
          "midi": 60,
          "name": "C4",
          "ticks": 141888,
          "time": 123.1665435,
          "velocity": 0.41732283464566927
        },
        {
          "duration": 0.2777774999999849,
          "durationTicks": 320,
          "midi": 57,
          "name": "A3",
          "ticks": 141888,
          "time": 123.1665435,
          "velocity": 0.41732283464566927
        },
        {
          "duration": 0.2777774999999849,
          "durationTicks": 320,
          "midi": 52,
          "name": "E3",
          "ticks": 141888,
          "time": 123.1665435,
          "velocity": 0.41732283464566927
        },
        {
          "duration": 0.2777774999999849,
          "durationTicks": 320,
          "midi": 67,
          "name": "G4",
          "ticks": 141888,
          "time": 123.1665435,
          "velocity": 0.41732283464566927
        },
        {
          "duration": 0.08333324999999547,
          "durationTicks": 96,
          "midi": 62,
          "name": "D4",
          "ticks": 142528,
          "time": 123.7220985,
          "velocity": 0.41732283464566927
        },
        {
          "duration": 0.08333324999999547,
          "durationTicks": 96,
          "midi": 60,
          "name": "C4",
          "ticks": 142528,
          "time": 123.7220985,
          "velocity": 0.41732283464566927
        },
        {
          "duration": 0.08333324999999547,
          "durationTicks": 96,
          "midi": 53,
          "name": "F3",
          "ticks": 142528,
          "time": 123.7220985,
          "velocity": 0.41732283464566927
        },
        {
          "duration": 0.08333324999999547,
          "durationTicks": 96,
          "midi": 69,
          "name": "A4",
          "ticks": 142528,
          "time": 123.7220985,
          "velocity": 0.41732283464566927
        },
        {
          "duration": 0.09722212499998761,
          "durationTicks": 112,
          "midi": 59,
          "name": "B3",
          "ticks": 143296,
          "time": 124.38876450000001,
          "velocity": 0.5196850393700787
        },
        {
          "duration": 0.09722212499998761,
          "durationTicks": 112,
          "midi": 55,
          "name": "G3",
          "ticks": 143296,
          "time": 124.38876450000001,
          "velocity": 0.5196850393700787
        },
        {
          "duration": 0.09722212499998761,
          "durationTicks": 112,
          "midi": 62,
          "name": "D4",
          "ticks": 143296,
          "time": 124.38876450000001,
          "velocity": 0.5196850393700787
        },
        {
          "duration": 0.09722212499998761,
          "durationTicks": 112,
          "midi": 53,
          "name": "F3",
          "ticks": 143296,
          "time": 124.38876450000001,
          "velocity": 0.5196850393700787
        },
        {
          "duration": 0.09722212499998761,
          "durationTicks": 112,
          "midi": 52,
          "name": "E3",
          "ticks": 144064,
          "time": 125.0554305,
          "velocity": 0.5196850393700787
        },
        {
          "duration": 0.09722212499998761,
          "durationTicks": 112,
          "midi": 60,
          "name": "C4",
          "ticks": 144064,
          "time": 125.0554305,
          "velocity": 0.5196850393700787
        },
        {
          "duration": 0.09722212499998761,
          "durationTicks": 112,
          "midi": 57,
          "name": "A3",
          "ticks": 144064,
          "time": 125.0554305,
          "velocity": 0.5196850393700787
        },
        {
          "duration": 0.09722212499998761,
          "durationTicks": 112,
          "midi": 67,
          "name": "G4",
          "ticks": 144064,
          "time": 125.0554305,
          "velocity": 0.5196850393700787
        },
        {
          "duration": 0.08333324999999547,
          "durationTicks": 96,
          "midi": 52,
          "name": "E3",
          "ticks": 145616,
          "time": 126.40265137499999,
          "velocity": 0.4566929133858268
        },
        {
          "duration": 0.08333324999999547,
          "durationTicks": 96,
          "midi": 57,
          "name": "A3",
          "ticks": 145616,
          "time": 126.40265137499999,
          "velocity": 0.4566929133858268
        },
        {
          "duration": 0.08333324999999547,
          "durationTicks": 96,
          "midi": 67,
          "name": "G4",
          "ticks": 145616,
          "time": 126.40265137499999,
          "velocity": 0.4566929133858268
        },
        {
          "duration": 0.08333324999999547,
          "durationTicks": 96,
          "midi": 60,
          "name": "C4",
          "ticks": 145616,
          "time": 126.40265137499999,
          "velocity": 0.4566929133858268
        },
        {
          "duration": 0.08333324999999547,
          "durationTicks": 96,
          "midi": 52,
          "name": "E3",
          "ticks": 146752,
          "time": 127.3887615,
          "velocity": 0.41732283464566927
        },
        {
          "duration": 0.08333324999999547,
          "durationTicks": 96,
          "midi": 57,
          "name": "A3",
          "ticks": 146880,
          "time": 127.4998725,
          "velocity": 0.41732283464566927
        },
        {
          "duration": 0.08333324999999547,
          "durationTicks": 96,
          "midi": 62,
          "name": "D4",
          "ticks": 147008,
          "time": 127.61098349999999,
          "velocity": 0.41732283464566927
        },
        {
          "duration": 0.08333325000000968,
          "durationTicks": 96,
          "midi": 67,
          "name": "G4",
          "ticks": 147136,
          "time": 127.7220945,
          "velocity": 0.41732283464566927
        },
        {
          "duration": 0.22222199999998793,
          "durationTicks": 256,
          "midi": 52,
          "name": "E3",
          "ticks": 148800,
          "time": 129.1665375,
          "velocity": 0.41732283464566927
        },
        {
          "duration": 0.22222199999998793,
          "durationTicks": 256,
          "midi": 57,
          "name": "A3",
          "ticks": 148800,
          "time": 129.1665375,
          "velocity": 0.41732283464566927
        },
        {
          "duration": 0.22222199999998793,
          "durationTicks": 256,
          "midi": 60,
          "name": "C4",
          "ticks": 148800,
          "time": 129.1665375,
          "velocity": 0.41732283464566927
        },
        {
          "duration": 0.22222199999998793,
          "durationTicks": 256,
          "midi": 55,
          "name": "G3",
          "ticks": 148800,
          "time": 129.1665375,
          "velocity": 0.41732283464566927
        },
        {
          "duration": 0.13888875000000667,
          "durationTicks": 160,
          "midi": 52,
          "name": "E3",
          "ticks": 149184,
          "time": 129.4998705,
          "velocity": 0.41732283464566927
        },
        {
          "duration": 0.13888875000000667,
          "durationTicks": 160,
          "midi": 60,
          "name": "C4",
          "ticks": 149184,
          "time": 129.4998705,
          "velocity": 0.41732283464566927
        },
        {
          "duration": 0.13888875000000667,
          "durationTicks": 160,
          "midi": 57,
          "name": "A3",
          "ticks": 149184,
          "time": 129.4998705,
          "velocity": 0.41732283464566927
        },
        {
          "duration": 0.13888875000000667,
          "durationTicks": 160,
          "midi": 55,
          "name": "G3",
          "ticks": 149184,
          "time": 129.4998705,
          "velocity": 0.41732283464566927
        },
        {
          "duration": 0.08333325000000968,
          "durationTicks": 96,
          "midi": 57,
          "name": "A3",
          "ticks": 149456,
          "time": 129.735981375,
          "velocity": 0.41732283464566927
        },
        {
          "duration": 0.08333325000000968,
          "durationTicks": 96,
          "midi": 52,
          "name": "E3",
          "ticks": 149456,
          "time": 129.735981375,
          "velocity": 0.41732283464566927
        },
        {
          "duration": 0.08333325000000968,
          "durationTicks": 96,
          "midi": 55,
          "name": "G3",
          "ticks": 149456,
          "time": 129.735981375,
          "velocity": 0.41732283464566927
        },
        {
          "duration": 0.08333325000000968,
          "durationTicks": 96,
          "midi": 60,
          "name": "C4",
          "ticks": 149456,
          "time": 129.735981375,
          "velocity": 0.41732283464566927
        },
        {
          "duration": 0.16666649999999095,
          "durationTicks": 192,
          "midi": 62,
          "name": "D4",
          "ticks": 151104,
          "time": 131.1665355,
          "velocity": 0.41732283464566927
        },
        {
          "duration": 0.16666649999999095,
          "durationTicks": 192,
          "midi": 67,
          "name": "G4",
          "ticks": 151104,
          "time": 131.1665355,
          "velocity": 0.41732283464566927
        },
        {
          "duration": 0.16666649999999095,
          "durationTicks": 192,
          "midi": 53,
          "name": "F3",
          "ticks": 151104,
          "time": 131.1665355,
          "velocity": 0.41732283464566927
        },
        {
          "duration": 0.16666649999999095,
          "durationTicks": 192,
          "midi": 59,
          "name": "B3",
          "ticks": 151104,
          "time": 131.1665355,
          "velocity": 0.41732283464566927
        },
        {
          "duration": 0.19444425000000365,
          "durationTicks": 224,
          "midi": 53,
          "name": "F3",
          "ticks": 151376,
          "time": 131.402646375,
          "velocity": 0.41732283464566927
        },
        {
          "duration": 0.19444425000000365,
          "durationTicks": 224,
          "midi": 59,
          "name": "B3",
          "ticks": 151376,
          "time": 131.402646375,
          "velocity": 0.41732283464566927
        },
        {
          "duration": 0.19444425000000365,
          "durationTicks": 224,
          "midi": 62,
          "name": "D4",
          "ticks": 151376,
          "time": 131.402646375,
          "velocity": 0.41732283464566927
        },
        {
          "duration": 0.19444425000000365,
          "durationTicks": 224,
          "midi": 67,
          "name": "G4",
          "ticks": 151376,
          "time": 131.402646375,
          "velocity": 0.41732283464566927
        },
        {
          "duration": 0.08333324999998126,
          "durationTicks": 96,
          "midi": 53,
          "name": "F3",
          "ticks": 151760,
          "time": 131.735979375,
          "velocity": 0.41732283464566927
        },
        {
          "duration": 0.08333324999998126,
          "durationTicks": 96,
          "midi": 62,
          "name": "D4",
          "ticks": 151760,
          "time": 131.735979375,
          "velocity": 0.41732283464566927
        },
        {
          "duration": 0.08333324999998126,
          "durationTicks": 96,
          "midi": 59,
          "name": "B3",
          "ticks": 151760,
          "time": 131.735979375,
          "velocity": 0.41732283464566927
        },
        {
          "duration": 0.08333324999998126,
          "durationTicks": 96,
          "midi": 67,
          "name": "G4",
          "ticks": 151760,
          "time": 131.735979375,
          "velocity": 0.41732283464566927
        },
        {
          "duration": 0.16666650000001937,
          "durationTicks": 192,
          "midi": 52,
          "name": "E3",
          "ticks": 153408,
          "time": 133.16653349999999,
          "velocity": 0.41732283464566927
        },
        {
          "duration": 0.16666650000001937,
          "durationTicks": 192,
          "midi": 60,
          "name": "C4",
          "ticks": 153408,
          "time": 133.16653349999999,
          "velocity": 0.41732283464566927
        },
        {
          "duration": 0.16666650000001937,
          "durationTicks": 192,
          "midi": 57,
          "name": "A3",
          "ticks": 153408,
          "time": 133.16653349999999,
          "velocity": 0.41732283464566927
        },
        {
          "duration": 0.16666650000001937,
          "durationTicks": 192,
          "midi": 55,
          "name": "G3",
          "ticks": 153408,
          "time": 133.16653349999999,
          "velocity": 0.41732283464566927
        },
        {
          "duration": 0.08333325000000968,
          "durationTicks": 96,
          "midi": 62,
          "name": "D4",
          "ticks": 154064,
          "time": 133.73597737499998,
          "velocity": 0.5196850393700787
        },
        {
          "duration": 0.08333325000000968,
          "durationTicks": 96,
          "midi": 55,
          "name": "G3",
          "ticks": 154064,
          "time": 133.73597737499998,
          "velocity": 0.5196850393700787
        },
        {
          "duration": 0.08333325000000968,
          "durationTicks": 96,
          "midi": 53,
          "name": "F3",
          "ticks": 154064,
          "time": 133.73597737499998,
          "velocity": 0.5196850393700787
        },
        {
          "duration": 0.08333325000000968,
          "durationTicks": 96,
          "midi": 59,
          "name": "B3",
          "ticks": 154064,
          "time": 133.73597737499998,
          "velocity": 0.5196850393700787
        },
        {
          "duration": 0.0972221249999734,
          "durationTicks": 112,
          "midi": 52,
          "name": "E3",
          "ticks": 154816,
          "time": 134.3887545,
          "velocity": 0.5196850393700787
        },
        {
          "duration": 0.0972221249999734,
          "durationTicks": 112,
          "midi": 67,
          "name": "G4",
          "ticks": 154816,
          "time": 134.3887545,
          "velocity": 0.5196850393700787
        },
        {
          "duration": 0.0972221249999734,
          "durationTicks": 112,
          "midi": 60,
          "name": "C4",
          "ticks": 154816,
          "time": 134.3887545,
          "velocity": 0.5196850393700787
        },
        {
          "duration": 0.49999950000000126,
          "durationTicks": 576,
          "midi": 59,
          "name": "B3",
          "ticks": 155328,
          "time": 134.8331985,
          "velocity": 0.41732283464566927
        },
        {
          "duration": 0.49999950000000126,
          "durationTicks": 576,
          "midi": 67,
          "name": "G4",
          "ticks": 155328,
          "time": 134.8331985,
          "velocity": 0.41732283464566927
        },
        {
          "duration": 0.49999950000000126,
          "durationTicks": 576,
          "midi": 53,
          "name": "F3",
          "ticks": 155328,
          "time": 134.8331985,
          "velocity": 0.41732283464566927
        },
        {
          "duration": 0.49999950000000126,
          "durationTicks": 576,
          "midi": 63,
          "name": "D#4",
          "ticks": 155328,
          "time": 134.8331985,
          "velocity": 0.41732283464566927
        },
        {
          "duration": 0.16666649999999095,
          "durationTicks": 192,
          "midi": 59,
          "name": "B3",
          "ticks": 155984,
          "time": 135.402642375,
          "velocity": 0.5196850393700787
        },
        {
          "duration": 0.16666649999999095,
          "durationTicks": 192,
          "midi": 63,
          "name": "D#4",
          "ticks": 155984,
          "time": 135.402642375,
          "velocity": 0.5196850393700787
        },
        {
          "duration": 0.16666649999999095,
          "durationTicks": 192,
          "midi": 67,
          "name": "G4",
          "ticks": 155984,
          "time": 135.402642375,
          "velocity": 0.5196850393700787
        },
        {
          "duration": 0.16666649999999095,
          "durationTicks": 192,
          "midi": 53,
          "name": "F3",
          "ticks": 155984,
          "time": 135.402642375,
          "velocity": 0.5196850393700787
        },
        {
          "duration": 0.16666649999999095,
          "durationTicks": 192,
          "midi": 57,
          "name": "A3",
          "ticks": 157248,
          "time": 136.4998635,
          "velocity": 0.41732283464566927
        },
        {
          "duration": 0.16666649999999095,
          "durationTicks": 192,
          "midi": 52,
          "name": "E3",
          "ticks": 157248,
          "time": 136.4998635,
          "velocity": 0.41732283464566927
        },
        {
          "duration": 0.16666649999999095,
          "durationTicks": 192,
          "midi": 67,
          "name": "G4",
          "ticks": 157248,
          "time": 136.4998635,
          "velocity": 0.41732283464566927
        },
        {
          "duration": 0.16666649999999095,
          "durationTicks": 192,
          "midi": 60,
          "name": "C4",
          "ticks": 157248,
          "time": 136.4998635,
          "velocity": 0.41732283464566927
        },
        {
          "duration": 0.19444425000003207,
          "durationTicks": 224,
          "midi": 67,
          "name": "G4",
          "ticks": 157520,
          "time": 136.73597437499998,
          "velocity": 0.41732283464566927
        },
        {
          "duration": 0.19444425000003207,
          "durationTicks": 224,
          "midi": 60,
          "name": "C4",
          "ticks": 157520,
          "time": 136.73597437499998,
          "velocity": 0.41732283464566927
        },
        {
          "duration": 0.19444425000003207,
          "durationTicks": 224,
          "midi": 52,
          "name": "E3",
          "ticks": 157520,
          "time": 136.73597437499998,
          "velocity": 0.41732283464566927
        },
        {
          "duration": 0.19444425000003207,
          "durationTicks": 224,
          "midi": 57,
          "name": "A3",
          "ticks": 157520,
          "time": 136.73597437499998,
          "velocity": 0.41732283464566927
        },
        {
          "duration": 0.08333325000000968,
          "durationTicks": 96,
          "midi": 57,
          "name": "A3",
          "ticks": 157904,
          "time": 137.069307375,
          "velocity": 0.41732283464566927
        },
        {
          "duration": 0.08333325000000968,
          "durationTicks": 96,
          "midi": 52,
          "name": "E3",
          "ticks": 157904,
          "time": 137.069307375,
          "velocity": 0.41732283464566927
        },
        {
          "duration": 0.08333325000000968,
          "durationTicks": 96,
          "midi": 67,
          "name": "G4",
          "ticks": 157904,
          "time": 137.069307375,
          "velocity": 0.41732283464566927
        },
        {
          "duration": 0.08333325000000968,
          "durationTicks": 96,
          "midi": 60,
          "name": "C4",
          "ticks": 157904,
          "time": 137.069307375,
          "velocity": 0.41732283464566927
        },
        {
          "duration": 0.16666649999999095,
          "durationTicks": 192,
          "midi": 57,
          "name": "A3",
          "ticks": 159552,
          "time": 138.4998615,
          "velocity": 0.41732283464566927
        },
        {
          "duration": 0.16666649999999095,
          "durationTicks": 192,
          "midi": 52,
          "name": "E3",
          "ticks": 159552,
          "time": 138.4998615,
          "velocity": 0.41732283464566927
        },
        {
          "duration": 0.16666649999999095,
          "durationTicks": 192,
          "midi": 67,
          "name": "G4",
          "ticks": 159552,
          "time": 138.4998615,
          "velocity": 0.41732283464566927
        },
        {
          "duration": 0.16666649999999095,
          "durationTicks": 192,
          "midi": 60,
          "name": "C4",
          "ticks": 159552,
          "time": 138.4998615,
          "velocity": 0.41732283464566927
        },
        {
          "duration": 0.08333324999998126,
          "durationTicks": 96,
          "midi": 70,
          "name": "A#4",
          "ticks": 160208,
          "time": 139.069305375,
          "velocity": 0.5196850393700787
        },
        {
          "duration": 0.08333324999998126,
          "durationTicks": 96,
          "midi": 62,
          "name": "D4",
          "ticks": 160208,
          "time": 139.069305375,
          "velocity": 0.5196850393700787
        },
        {
          "duration": 0.08333324999998126,
          "durationTicks": 96,
          "midi": 64,
          "name": "E4",
          "ticks": 160208,
          "time": 139.069305375,
          "velocity": 0.5196850393700787
        },
        {
          "duration": 0.08333324999998126,
          "durationTicks": 96,
          "midi": 55,
          "name": "G3",
          "ticks": 160208,
          "time": 139.069305375,
          "velocity": 0.5196850393700787
        },
        {
          "duration": 1.3333319999999844,
          "durationTicks": 1536,
          "midi": 61,
          "name": "C#4",
          "ticks": 161072,
          "time": 139.819304625,
          "velocity": 0.41732283464566927
        },
        {
          "duration": 1.3333319999999844,
          "durationTicks": 1536,
          "midi": 55,
          "name": "G3",
          "ticks": 161072,
          "time": 139.819304625,
          "velocity": 0.41732283464566927
        },
        {
          "duration": 1.3333319999999844,
          "durationTicks": 1536,
          "midi": 57,
          "name": "A3",
          "ticks": 161072,
          "time": 139.819304625,
          "velocity": 0.41732283464566927
        },
        {
          "duration": 1.3333319999999844,
          "durationTicks": 1536,
          "midi": 64,
          "name": "E4",
          "ticks": 161072,
          "time": 139.819304625,
          "velocity": 0.41732283464566927
        },
        {
          "duration": 1.3333320000000128,
          "durationTicks": 1536,
          "midi": 60,
          "name": "C4",
          "ticks": 162608,
          "time": 141.15263662499999,
          "velocity": 0.41732283464566927
        },
        {
          "duration": 1.3333320000000128,
          "durationTicks": 1536,
          "midi": 69,
          "name": "A4",
          "ticks": 162608,
          "time": 141.15263662499999,
          "velocity": 0.41732283464566927
        },
        {
          "duration": 1.3333320000000128,
          "durationTicks": 1536,
          "midi": 54,
          "name": "F#3",
          "ticks": 162608,
          "time": 141.15263662499999,
          "velocity": 0.41732283464566927
        },
        {
          "duration": 1.3333320000000128,
          "durationTicks": 1536,
          "midi": 62,
          "name": "D4",
          "ticks": 162608,
          "time": 141.15263662499999,
          "velocity": 0.41732283464566927
        },
        {
          "duration": 0.08333325000000968,
          "durationTicks": 96,
          "midi": 43,
          "name": "G2",
          "ticks": 164816,
          "time": 143.06930137499998,
          "velocity": 0.2755905511811024
        },
        {
          "duration": 0.1805553750000115,
          "durationTicks": 208,
          "midi": 62,
          "name": "D4",
          "ticks": 164928,
          "time": 143.16652349999998,
          "velocity": 0.3858267716535433
        },
        {
          "duration": 0.1805553750000115,
          "durationTicks": 208,
          "midi": 59,
          "name": "B3",
          "ticks": 164928,
          "time": 143.16652349999998,
          "velocity": 0.3858267716535433
        },
        {
          "duration": 0.1805553750000115,
          "durationTicks": 208,
          "midi": 55,
          "name": "G3",
          "ticks": 164928,
          "time": 143.16652349999998,
          "velocity": 0.3858267716535433
        },
        {
          "duration": 0.1805553750000115,
          "durationTicks": 208,
          "midi": 53,
          "name": "F3",
          "ticks": 164928,
          "time": 143.16652349999998,
          "velocity": 0.3858267716535433
        },
        {
          "duration": 0.05555549999999698,
          "durationTicks": 64,
          "midi": 43,
          "name": "G2",
          "ticks": 165200,
          "time": 143.402634375,
          "velocity": 0.13385826771653545
        },
        {
          "duration": 0.22222200000001635,
          "durationTicks": 256,
          "midi": 62,
          "name": "D4",
          "ticks": 165312,
          "time": 143.4998565,
          "velocity": 0.4566929133858268
        },
        {
          "duration": 0.22222200000001635,
          "durationTicks": 256,
          "midi": 55,
          "name": "G3",
          "ticks": 165312,
          "time": 143.4998565,
          "velocity": 0.4566929133858268
        },
        {
          "duration": 0.22222200000001635,
          "durationTicks": 256,
          "midi": 59,
          "name": "B3",
          "ticks": 165312,
          "time": 143.4998565,
          "velocity": 0.4566929133858268
        },
        {
          "duration": 0.22222200000001635,
          "durationTicks": 256,
          "midi": 53,
          "name": "F3",
          "ticks": 165312,
          "time": 143.4998565,
          "velocity": 0.4566929133858268
        },
        {
          "duration": 0.5833327499999825,
          "durationTicks": 672,
          "midi": 67,
          "name": "G4",
          "ticks": 165696,
          "time": 143.8331895,
          "velocity": 0.4015748031496063
        },
        {
          "duration": 0.5833327499999825,
          "durationTicks": 672,
          "midi": 57,
          "name": "A3",
          "ticks": 165696,
          "time": 143.8331895,
          "velocity": 0.4015748031496063
        },
        {
          "duration": 0.5833327499999825,
          "durationTicks": 672,
          "midi": 52,
          "name": "E3",
          "ticks": 165696,
          "time": 143.8331895,
          "velocity": 0.4015748031496063
        },
        {
          "duration": 0.5833327499999825,
          "durationTicks": 672,
          "midi": 60,
          "name": "C4",
          "ticks": 165696,
          "time": 143.8331895,
          "velocity": 0.4015748031496063
        },
        {
          "duration": 0.2777774999999849,
          "durationTicks": 320,
          "midi": 67,
          "name": "G4",
          "ticks": 166464,
          "time": 144.4998555,
          "velocity": 0.41732283464566927
        },
        {
          "duration": 0.2777774999999849,
          "durationTicks": 320,
          "midi": 52,
          "name": "E3",
          "ticks": 166464,
          "time": 144.4998555,
          "velocity": 0.41732283464566927
        },
        {
          "duration": 0.2777774999999849,
          "durationTicks": 320,
          "midi": 60,
          "name": "C4",
          "ticks": 166464,
          "time": 144.4998555,
          "velocity": 0.41732283464566927
        },
        {
          "duration": 0.2777774999999849,
          "durationTicks": 320,
          "midi": 57,
          "name": "A3",
          "ticks": 166464,
          "time": 144.4998555,
          "velocity": 0.41732283464566927
        },
        {
          "duration": 0.08333325000000968,
          "durationTicks": 96,
          "midi": 59,
          "name": "B3",
          "ticks": 167104,
          "time": 145.0554105,
          "velocity": 0.41732283464566927
        },
        {
          "duration": 0.08333325000000968,
          "durationTicks": 96,
          "midi": 64,
          "name": "E4",
          "ticks": 167104,
          "time": 145.0554105,
          "velocity": 0.41732283464566927
        },
        {
          "duration": 0.08333325000000968,
          "durationTicks": 96,
          "midi": 69,
          "name": "A4",
          "ticks": 167104,
          "time": 145.0554105,
          "velocity": 0.41732283464566927
        },
        {
          "duration": 0.08333325000000968,
          "durationTicks": 96,
          "midi": 53,
          "name": "F3",
          "ticks": 167104,
          "time": 145.0554105,
          "velocity": 0.41732283464566927
        },
        {
          "duration": 0.16666649999999095,
          "durationTicks": 192,
          "midi": 57,
          "name": "A3",
          "ticks": 168000,
          "time": 145.8331875,
          "velocity": 0.41732283464566927
        },
        {
          "duration": 0.16666649999999095,
          "durationTicks": 192,
          "midi": 55,
          "name": "G3",
          "ticks": 168000,
          "time": 145.8331875,
          "velocity": 0.41732283464566927
        },
        {
          "duration": 0.16666649999999095,
          "durationTicks": 192,
          "midi": 60,
          "name": "C4",
          "ticks": 168000,
          "time": 145.8331875,
          "velocity": 0.41732283464566927
        },
        {
          "duration": 0.16666649999999095,
          "durationTicks": 192,
          "midi": 52,
          "name": "E3",
          "ticks": 168000,
          "time": 145.8331875,
          "velocity": 0.41732283464566927
        },
        {
          "duration": 0.08333324999998126,
          "durationTicks": 96,
          "midi": 53,
          "name": "F3",
          "ticks": 168656,
          "time": 146.402631375,
          "velocity": 0.5196850393700787
        },
        {
          "duration": 0.08333324999998126,
          "durationTicks": 96,
          "midi": 50,
          "name": "D3",
          "ticks": 168656,
          "time": 146.402631375,
          "velocity": 0.5196850393700787
        },
        {
          "duration": 0.08333324999998126,
          "durationTicks": 96,
          "midi": 57,
          "name": "A3",
          "ticks": 168656,
          "time": 146.402631375,
          "velocity": 0.5196850393700787
        },
        {
          "duration": 0.08333324999998126,
          "durationTicks": 96,
          "midi": 60,
          "name": "C4",
          "ticks": 168656,
          "time": 146.402631375,
          "velocity": 0.5196850393700787
        },
        {
          "duration": 0.08333324999998126,
          "durationTicks": 96,
          "midi": 53,
          "name": "F3",
          "ticks": 169792,
          "time": 147.3887415,
          "velocity": 0.4566929133858268
        },
        {
          "duration": 0.08333324999998126,
          "durationTicks": 96,
          "midi": 60,
          "name": "C4",
          "ticks": 169792,
          "time": 147.3887415,
          "velocity": 0.4566929133858268
        },
        {
          "duration": 0.08333324999998126,
          "durationTicks": 96,
          "midi": 50,
          "name": "D3",
          "ticks": 169792,
          "time": 147.3887415,
          "velocity": 0.4566929133858268
        },
        {
          "duration": 0.08333324999998126,
          "durationTicks": 96,
          "midi": 57,
          "name": "A3",
          "ticks": 169792,
          "time": 147.3887415,
          "velocity": 0.4566929133858268
        },
        {
          "duration": 0.08333325000000968,
          "durationTicks": 96,
          "midi": 60,
          "name": "C4",
          "ticks": 170192,
          "time": 147.73596337499998,
          "velocity": 0.4566929133858268
        },
        {
          "duration": 0.08333325000000968,
          "durationTicks": 96,
          "midi": 53,
          "name": "F3",
          "ticks": 170192,
          "time": 147.73596337499998,
          "velocity": 0.4566929133858268
        },
        {
          "duration": 0.08333325000000968,
          "durationTicks": 96,
          "midi": 50,
          "name": "D3",
          "ticks": 170192,
          "time": 147.73596337499998,
          "velocity": 0.4566929133858268
        },
        {
          "duration": 0.08333325000000968,
          "durationTicks": 96,
          "midi": 57,
          "name": "A3",
          "ticks": 170192,
          "time": 147.73596337499998,
          "velocity": 0.4566929133858268
        },
        {
          "duration": 0.08333325000000968,
          "durationTicks": 96,
          "midi": 57,
          "name": "A3",
          "ticks": 171328,
          "time": 148.7220735,
          "velocity": 0.41732283464566927
        },
        {
          "duration": 0.08333325000000968,
          "durationTicks": 96,
          "midi": 50,
          "name": "D3",
          "ticks": 171456,
          "time": 148.8331845,
          "velocity": 0.41732283464566927
        },
        {
          "duration": 0.08333325000000968,
          "durationTicks": 96,
          "midi": 53,
          "name": "F3",
          "ticks": 171584,
          "time": 148.94429549999998,
          "velocity": 0.41732283464566927
        },
        {
          "duration": 0.08333325000000968,
          "durationTicks": 96,
          "midi": 60,
          "name": "C4",
          "ticks": 171712,
          "time": 149.0554065,
          "velocity": 0.41732283464566927
        },
        {
          "duration": 0.49999950000000126,
          "durationTicks": 576,
          "midi": 57,
          "name": "A3",
          "ticks": 171840,
          "time": 149.1665175,
          "velocity": 0.41732283464566927
        },
        {
          "duration": 0.49999950000000126,
          "durationTicks": 576,
          "midi": 67,
          "name": "G4",
          "ticks": 171840,
          "time": 149.1665175,
          "velocity": 0.41732283464566927
        },
        {
          "duration": 0.49999950000000126,
          "durationTicks": 576,
          "midi": 64,
          "name": "E4",
          "ticks": 171840,
          "time": 149.1665175,
          "velocity": 0.41732283464566927
        },
        {
          "duration": 0.49999950000000126,
          "durationTicks": 576,
          "midi": 72,
          "name": "C5",
          "ticks": 171840,
          "time": 149.1665175,
          "velocity": 0.41732283464566927
        },
        {
          "duration": 0.08333325000000968,
          "durationTicks": 96,
          "midi": 67,
          "name": "G4",
          "ticks": 172496,
          "time": 149.735961375,
          "velocity": 0.5196850393700787
        },
        {
          "duration": 0.08333325000000968,
          "durationTicks": 96,
          "midi": 65,
          "name": "F4",
          "ticks": 172496,
          "time": 149.735961375,
          "velocity": 0.5196850393700787
        },
        {
          "duration": 0.08333325000000968,
          "durationTicks": 96,
          "midi": 62,
          "name": "D4",
          "ticks": 172496,
          "time": 149.735961375,
          "velocity": 0.5196850393700787
        },
        {
          "duration": 0.08333325000000968,
          "durationTicks": 96,
          "midi": 59,
          "name": "B3",
          "ticks": 172496,
          "time": 149.735961375,
          "velocity": 0.5196850393700787
        },
        {
          "duration": 0.09722212500000182,
          "durationTicks": 112,
          "midi": 60,
          "name": "C4",
          "ticks": 173248,
          "time": 150.3887385,
          "velocity": 0.5196850393700787
        },
        {
          "duration": 0.09722212500000182,
          "durationTicks": 112,
          "midi": 64,
          "name": "E4",
          "ticks": 173248,
          "time": 150.3887385,
          "velocity": 0.5196850393700787
        },
        {
          "duration": 0.09722212500000182,
          "durationTicks": 112,
          "midi": 57,
          "name": "A3",
          "ticks": 173248,
          "time": 150.3887385,
          "velocity": 0.5196850393700787
        },
        {
          "duration": 0.09722212500000182,
          "durationTicks": 112,
          "midi": 67,
          "name": "G4",
          "ticks": 173248,
          "time": 150.3887385,
          "velocity": 0.5196850393700787
        },
        {
          "duration": 0.16666649999999095,
          "durationTicks": 192,
          "midi": 59,
          "name": "B3",
          "ticks": 174144,
          "time": 151.1665155,
          "velocity": 0.41732283464566927
        },
        {
          "duration": 0.16666649999999095,
          "durationTicks": 192,
          "midi": 56,
          "name": "G#3",
          "ticks": 174144,
          "time": 151.1665155,
          "velocity": 0.41732283464566927
        },
        {
          "duration": 0.16666649999999095,
          "durationTicks": 192,
          "midi": 62,
          "name": "D4",
          "ticks": 174144,
          "time": 151.1665155,
          "velocity": 0.41732283464566927
        },
        {
          "duration": 0.16666649999999095,
          "durationTicks": 192,
          "midi": 64,
          "name": "E4",
          "ticks": 174144,
          "time": 151.1665155,
          "velocity": 0.41732283464566927
        },
        {
          "duration": 0.08333325000000968,
          "durationTicks": 96,
          "midi": 57,
          "name": "A3",
          "ticks": 174800,
          "time": 151.735959375,
          "velocity": 0.5196850393700787
        },
        {
          "duration": 0.08333325000000968,
          "durationTicks": 96,
          "midi": 64,
          "name": "E4",
          "ticks": 174800,
          "time": 151.735959375,
          "velocity": 0.5196850393700787
        },
        {
          "duration": 0.08333325000000968,
          "durationTicks": 96,
          "midi": 60,
          "name": "C4",
          "ticks": 174800,
          "time": 151.735959375,
          "velocity": 0.5196850393700787
        },
        {
          "duration": 0.49999950000000126,
          "durationTicks": 576,
          "midi": 69,
          "name": "A4",
          "ticks": 175680,
          "time": 152.4998475,
          "velocity": 0.41732283464566927
        },
        {
          "duration": 0.49999950000000126,
          "durationTicks": 576,
          "midi": 60,
          "name": "C4",
          "ticks": 175680,
          "time": 152.4998475,
          "velocity": 0.41732283464566927
        },
        {
          "duration": 0.49999950000000126,
          "durationTicks": 576,
          "midi": 56,
          "name": "G#3",
          "ticks": 175680,
          "time": 152.4998475,
          "velocity": 0.41732283464566927
        },
        {
          "duration": 0.49999950000000126,
          "durationTicks": 576,
          "midi": 64,
          "name": "E4",
          "ticks": 175680,
          "time": 152.4998475,
          "velocity": 0.41732283464566927
        },
        {
          "duration": 0.08333325000000968,
          "durationTicks": 96,
          "midi": 69,
          "name": "A4",
          "ticks": 176336,
          "time": 153.06929137499998,
          "velocity": 0.5196850393700787
        },
        {
          "duration": 0.08333325000000968,
          "durationTicks": 96,
          "midi": 55,
          "name": "G3",
          "ticks": 176336,
          "time": 153.06929137499998,
          "velocity": 0.5196850393700787
        },
        {
          "duration": 0.08333325000000968,
          "durationTicks": 96,
          "midi": 60,
          "name": "C4",
          "ticks": 176336,
          "time": 153.06929137499998,
          "velocity": 0.5196850393700787
        },
        {
          "duration": 0.08333325000000968,
          "durationTicks": 96,
          "midi": 64,
          "name": "E4",
          "ticks": 176336,
          "time": 153.06929137499998,
          "velocity": 0.5196850393700787
        },
        {
          "duration": 0.49999950000000126,
          "durationTicks": 576,
          "midi": 64,
          "name": "E4",
          "ticks": 177216,
          "time": 153.8331795,
          "velocity": 0.41732283464566927
        },
        {
          "duration": 0.49999950000000126,
          "durationTicks": 576,
          "midi": 69,
          "name": "A4",
          "ticks": 177216,
          "time": 153.8331795,
          "velocity": 0.41732283464566927
        },
        {
          "duration": 0.49999950000000126,
          "durationTicks": 576,
          "midi": 60,
          "name": "C4",
          "ticks": 177216,
          "time": 153.8331795,
          "velocity": 0.41732283464566927
        },
        {
          "duration": 0.49999950000000126,
          "durationTicks": 576,
          "midi": 54,
          "name": "F#3",
          "ticks": 177216,
          "time": 153.8331795,
          "velocity": 0.41732283464566927
        },
        {
          "duration": 0.08333325000000968,
          "durationTicks": 96,
          "midi": 59,
          "name": "B3",
          "ticks": 177872,
          "time": 154.402623375,
          "velocity": 0.5196850393700787
        },
        {
          "duration": 0.08333325000000968,
          "durationTicks": 96,
          "midi": 55,
          "name": "G3",
          "ticks": 177872,
          "time": 154.402623375,
          "velocity": 0.5196850393700787
        },
        {
          "duration": 0.08333325000000968,
          "durationTicks": 96,
          "midi": 53,
          "name": "F3",
          "ticks": 177872,
          "time": 154.402623375,
          "velocity": 0.5196850393700787
        },
        {
          "duration": 0.08333325000000968,
          "durationTicks": 96,
          "midi": 62,
          "name": "D4",
          "ticks": 177872,
          "time": 154.402623375,
          "velocity": 0.5196850393700787
        },
        {
          "duration": 0.09722212500000182,
          "durationTicks": 112,
          "midi": 53,
          "name": "F3",
          "ticks": 178624,
          "time": 155.0554005,
          "velocity": 0.5196850393700787
        },
        {
          "duration": 0.09722212500000182,
          "durationTicks": 112,
          "midi": 57,
          "name": "A3",
          "ticks": 178624,
          "time": 155.0554005,
          "velocity": 0.5196850393700787
        },
        {
          "duration": 0.09722212500000182,
          "durationTicks": 112,
          "midi": 62,
          "name": "D4",
          "ticks": 178624,
          "time": 155.0554005,
          "velocity": 0.5196850393700787
        },
        {
          "duration": 0.09722212500000182,
          "durationTicks": 112,
          "midi": 60,
          "name": "C4",
          "ticks": 178624,
          "time": 155.0554005,
          "velocity": 0.5196850393700787
        },
        {
          "duration": 0.22222200000001635,
          "durationTicks": 256,
          "midi": 58,
          "name": "A#3",
          "ticks": 179136,
          "time": 155.4998445,
          "velocity": 0.36220472440944884
        },
        {
          "duration": 0.22222200000001635,
          "durationTicks": 256,
          "midi": 61,
          "name": "C#4",
          "ticks": 179136,
          "time": 155.4998445,
          "velocity": 0.36220472440944884
        },
        {
          "duration": 0.22222200000001635,
          "durationTicks": 256,
          "midi": 55,
          "name": "G3",
          "ticks": 179136,
          "time": 155.4998445,
          "velocity": 0.36220472440944884
        },
        {
          "duration": 0.22222200000001635,
          "durationTicks": 256,
          "midi": 52,
          "name": "E3",
          "ticks": 179136,
          "time": 155.4998445,
          "velocity": 0.36220472440944884
        },
        {
          "duration": 0.08333324999998126,
          "durationTicks": 96,
          "midi": 43,
          "name": "G2",
          "ticks": 180176,
          "time": 156.402621375,
          "velocity": 0.2755905511811024
        },
        {
          "duration": 0.1805553750000115,
          "durationTicks": 208,
          "midi": 53,
          "name": "F3",
          "ticks": 180288,
          "time": 156.4998435,
          "velocity": 0.3858267716535433
        },
        {
          "duration": 0.1805553750000115,
          "durationTicks": 208,
          "midi": 62,
          "name": "D4",
          "ticks": 180288,
          "time": 156.4998435,
          "velocity": 0.3858267716535433
        },
        {
          "duration": 0.1805553750000115,
          "durationTicks": 208,
          "midi": 59,
          "name": "B3",
          "ticks": 180288,
          "time": 156.4998435,
          "velocity": 0.3858267716535433
        },
        {
          "duration": 0.1805553750000115,
          "durationTicks": 208,
          "midi": 67,
          "name": "G4",
          "ticks": 180288,
          "time": 156.4998435,
          "velocity": 0.3858267716535433
        },
        {
          "duration": 0.055555500000025404,
          "durationTicks": 64,
          "midi": 43,
          "name": "G2",
          "ticks": 180560,
          "time": 156.73595437499998,
          "velocity": 0.2755905511811024
        },
        {
          "duration": 0.22222199999998793,
          "durationTicks": 256,
          "midi": 62,
          "name": "D4",
          "ticks": 180672,
          "time": 156.8331765,
          "velocity": 0.4566929133858268
        },
        {
          "duration": 0.22222199999998793,
          "durationTicks": 256,
          "midi": 59,
          "name": "B3",
          "ticks": 180672,
          "time": 156.8331765,
          "velocity": 0.4566929133858268
        },
        {
          "duration": 0.22222199999998793,
          "durationTicks": 256,
          "midi": 53,
          "name": "F3",
          "ticks": 180672,
          "time": 156.8331765,
          "velocity": 0.4566929133858268
        },
        {
          "duration": 0.22222199999998793,
          "durationTicks": 256,
          "midi": 67,
          "name": "G4",
          "ticks": 180672,
          "time": 156.8331765,
          "velocity": 0.4566929133858268
        },
        {
          "duration": 0.5555550000000267,
          "durationTicks": 640,
          "midi": 60,
          "name": "C4",
          "ticks": 181824,
          "time": 157.83317549999998,
          "velocity": 0.41732283464566927
        },
        {
          "duration": 0.5555550000000267,
          "durationTicks": 640,
          "midi": 57,
          "name": "A3",
          "ticks": 181824,
          "time": 157.83317549999998,
          "velocity": 0.41732283464566927
        },
        {
          "duration": 0.5555550000000267,
          "durationTicks": 640,
          "midi": 52,
          "name": "E3",
          "ticks": 181824,
          "time": 157.83317549999998,
          "velocity": 0.41732283464566927
        },
        {
          "duration": 0.5555550000000267,
          "durationTicks": 640,
          "midi": 67,
          "name": "G4",
          "ticks": 181824,
          "time": 157.83317549999998,
          "velocity": 0.41732283464566927
        },
        {
          "duration": 0.22222199999998793,
          "durationTicks": 256,
          "midi": 57,
          "name": "A3",
          "ticks": 182592,
          "time": 158.4998415,
          "velocity": 0.41732283464566927
        },
        {
          "duration": 0.22222199999998793,
          "durationTicks": 256,
          "midi": 60,
          "name": "C4",
          "ticks": 182592,
          "time": 158.4998415,
          "velocity": 0.41732283464566927
        },
        {
          "duration": 0.22222199999998793,
          "durationTicks": 256,
          "midi": 52,
          "name": "E3",
          "ticks": 182592,
          "time": 158.4998415,
          "velocity": 0.41732283464566927
        },
        {
          "duration": 0.22222199999998793,
          "durationTicks": 256,
          "midi": 67,
          "name": "G4",
          "ticks": 182592,
          "time": 158.4998415,
          "velocity": 0.41732283464566927
        },
        {
          "duration": 0.13888875000000667,
          "durationTicks": 160,
          "midi": 52,
          "name": "E3",
          "ticks": 182976,
          "time": 158.83317449999998,
          "velocity": 0.41732283464566927
        },
        {
          "duration": 0.13888875000000667,
          "durationTicks": 160,
          "midi": 57,
          "name": "A3",
          "ticks": 182976,
          "time": 158.83317449999998,
          "velocity": 0.41732283464566927
        },
        {
          "duration": 0.13888875000000667,
          "durationTicks": 160,
          "midi": 60,
          "name": "C4",
          "ticks": 182976,
          "time": 158.83317449999998,
          "velocity": 0.41732283464566927
        },
        {
          "duration": 0.13888875000000667,
          "durationTicks": 160,
          "midi": 67,
          "name": "G4",
          "ticks": 182976,
          "time": 158.83317449999998,
          "velocity": 0.41732283464566927
        },
        {
          "duration": 0.08333325000000968,
          "durationTicks": 96,
          "midi": 67,
          "name": "G4",
          "ticks": 183248,
          "time": 159.069285375,
          "velocity": 0.41732283464566927
        },
        {
          "duration": 0.08333325000000968,
          "durationTicks": 96,
          "midi": 57,
          "name": "A3",
          "ticks": 183248,
          "time": 159.069285375,
          "velocity": 0.41732283464566927
        },
        {
          "duration": 0.08333325000000968,
          "durationTicks": 96,
          "midi": 52,
          "name": "E3",
          "ticks": 183248,
          "time": 159.069285375,
          "velocity": 0.41732283464566927
        },
        {
          "duration": 0.08333325000000968,
          "durationTicks": 96,
          "midi": 60,
          "name": "C4",
          "ticks": 183248,
          "time": 159.069285375,
          "velocity": 0.41732283464566927
        },
        {
          "duration": 0.16666650000001937,
          "durationTicks": 192,
          "midi": 67,
          "name": "G4",
          "ticks": 184128,
          "time": 159.8331735,
          "velocity": 0.41732283464566927
        },
        {
          "duration": 0.16666650000001937,
          "durationTicks": 192,
          "midi": 57,
          "name": "A3",
          "ticks": 184128,
          "time": 159.8331735,
          "velocity": 0.41732283464566927
        },
        {
          "duration": 0.16666650000001937,
          "durationTicks": 192,
          "midi": 60,
          "name": "C4",
          "ticks": 184128,
          "time": 159.8331735,
          "velocity": 0.41732283464566927
        },
        {
          "duration": 0.16666650000001937,
          "durationTicks": 192,
          "midi": 52,
          "name": "E3",
          "ticks": 184128,
          "time": 159.8331735,
          "velocity": 0.41732283464566927
        },
        {
          "duration": 0.08333325000000968,
          "durationTicks": 96,
          "midi": 71,
          "name": "B4",
          "ticks": 184784,
          "time": 160.40261737499998,
          "velocity": 0.5196850393700787
        },
        {
          "duration": 0.08333325000000968,
          "durationTicks": 96,
          "midi": 64,
          "name": "E4",
          "ticks": 184784,
          "time": 160.40261737499998,
          "velocity": 0.5196850393700787
        },
        {
          "duration": 0.08333325000000968,
          "durationTicks": 96,
          "midi": 55,
          "name": "G3",
          "ticks": 184784,
          "time": 160.40261737499998,
          "velocity": 0.5196850393700787
        },
        {
          "duration": 0.08333325000000968,
          "durationTicks": 96,
          "midi": 62,
          "name": "D4",
          "ticks": 184784,
          "time": 160.40261737499998,
          "velocity": 0.5196850393700787
        },
        {
          "duration": 0.0972221249999734,
          "durationTicks": 112,
          "midi": 61,
          "name": "C#4",
          "ticks": 185536,
          "time": 161.0553945,
          "velocity": 0.5196850393700787
        },
        {
          "duration": 0.0972221249999734,
          "durationTicks": 112,
          "midi": 64,
          "name": "E4",
          "ticks": 185536,
          "time": 161.0553945,
          "velocity": 0.5196850393700787
        },
        {
          "duration": 0.0972221249999734,
          "durationTicks": 112,
          "midi": 55,
          "name": "G3",
          "ticks": 185536,
          "time": 161.0553945,
          "velocity": 0.5196850393700787
        },
        {
          "duration": 0.0972221249999734,
          "durationTicks": 112,
          "midi": 57,
          "name": "A3",
          "ticks": 185536,
          "time": 161.0553945,
          "velocity": 0.5196850393700787
        },
        {
          "duration": 0.1805553750000115,
          "durationTicks": 208,
          "midi": 64,
          "name": "E4",
          "ticks": 186432,
          "time": 161.8331715,
          "velocity": 0.3858267716535433
        },
        {
          "duration": 0.1805553750000115,
          "durationTicks": 208,
          "midi": 61,
          "name": "C#4",
          "ticks": 186432,
          "time": 161.8331715,
          "velocity": 0.3858267716535433
        },
        {
          "duration": 0.1805553750000115,
          "durationTicks": 208,
          "midi": 55,
          "name": "G3",
          "ticks": 186432,
          "time": 161.8331715,
          "velocity": 0.3858267716535433
        },
        {
          "duration": 0.1805553750000115,
          "durationTicks": 208,
          "midi": 57,
          "name": "A3",
          "ticks": 186432,
          "time": 161.8331715,
          "velocity": 0.3858267716535433
        },
        {
          "duration": 0.05555549999999698,
          "durationTicks": 64,
          "midi": 45,
          "name": "A2",
          "ticks": 186704,
          "time": 162.069282375,
          "velocity": 0.2755905511811024
        },
        {
          "duration": 0.22222199999998793,
          "durationTicks": 256,
          "midi": 55,
          "name": "G3",
          "ticks": 186816,
          "time": 162.1665045,
          "velocity": 0.4566929133858268
        },
        {
          "duration": 0.22222199999998793,
          "durationTicks": 256,
          "midi": 61,
          "name": "C#4",
          "ticks": 186816,
          "time": 162.1665045,
          "velocity": 0.4566929133858268
        },
        {
          "duration": 0.22222199999998793,
          "durationTicks": 256,
          "midi": 64,
          "name": "E4",
          "ticks": 186816,
          "time": 162.1665045,
          "velocity": 0.4566929133858268
        },
        {
          "duration": 0.22222199999998793,
          "durationTicks": 256,
          "midi": 57,
          "name": "A3",
          "ticks": 186816,
          "time": 162.1665045,
          "velocity": 0.4566929133858268
        },
        {
          "duration": 1.3333320000000128,
          "durationTicks": 1536,
          "midi": 54,
          "name": "F#3",
          "ticks": 187200,
          "time": 162.49983749999998,
          "velocity": 0.41732283464566927
        },
        {
          "duration": 1.3333320000000128,
          "durationTicks": 1536,
          "midi": 60,
          "name": "C4",
          "ticks": 187200,
          "time": 162.49983749999998,
          "velocity": 0.41732283464566927
        },
        {
          "duration": 1.3333320000000128,
          "durationTicks": 1536,
          "midi": 62,
          "name": "D4",
          "ticks": 187200,
          "time": 162.49983749999998,
          "velocity": 0.41732283464566927
        },
        {
          "duration": 1.3333320000000128,
          "durationTicks": 1536,
          "midi": 69,
          "name": "A4",
          "ticks": 187200,
          "time": 162.49983749999998,
          "velocity": 0.41732283464566927
        },
        {
          "duration": 0.08333325000000968,
          "durationTicks": 96,
          "midi": 43,
          "name": "G2",
          "ticks": 189392,
          "time": 164.402613375,
          "velocity": 0.2755905511811024
        },
        {
          "duration": 0.1805553750000115,
          "durationTicks": 208,
          "midi": 62,
          "name": "D4",
          "ticks": 189504,
          "time": 164.4998355,
          "velocity": 0.3858267716535433
        },
        {
          "duration": 0.1805553750000115,
          "durationTicks": 208,
          "midi": 67,
          "name": "G4",
          "ticks": 189504,
          "time": 164.4998355,
          "velocity": 0.3858267716535433
        },
        {
          "duration": 0.1805553750000115,
          "durationTicks": 208,
          "midi": 59,
          "name": "B3",
          "ticks": 189504,
          "time": 164.4998355,
          "velocity": 0.3858267716535433
        },
        {
          "duration": 0.1805553750000115,
          "durationTicks": 208,
          "midi": 53,
          "name": "F3",
          "ticks": 189504,
          "time": 164.4998355,
          "velocity": 0.3858267716535433
        },
        {
          "duration": 0.05555549999999698,
          "durationTicks": 64,
          "midi": 43,
          "name": "G2",
          "ticks": 189776,
          "time": 164.735946375,
          "velocity": 0.13385826771653545
        },
        {
          "duration": 0.22222200000001635,
          "durationTicks": 256,
          "midi": 53,
          "name": "F3",
          "ticks": 189888,
          "time": 164.8331685,
          "velocity": 0.4566929133858268
        },
        {
          "duration": 0.22222200000001635,
          "durationTicks": 256,
          "midi": 67,
          "name": "G4",
          "ticks": 189888,
          "time": 164.8331685,
          "velocity": 0.4566929133858268
        },
        {
          "duration": 0.22222200000001635,
          "durationTicks": 256,
          "midi": 59,
          "name": "B3",
          "ticks": 189888,
          "time": 164.8331685,
          "velocity": 0.4566929133858268
        },
        {
          "duration": 0.22222200000001635,
          "durationTicks": 256,
          "midi": 62,
          "name": "D4",
          "ticks": 189888,
          "time": 164.8331685,
          "velocity": 0.4566929133858268
        },
        {
          "duration": 0.8888879999999801,
          "durationTicks": 1024,
          "midi": 55,
          "name": "G3",
          "ticks": 190528,
          "time": 165.3887235,
          "velocity": 0.41732283464566927
        },
        {
          "duration": 0.8888879999999801,
          "durationTicks": 1024,
          "midi": 52,
          "name": "E3",
          "ticks": 190528,
          "time": 165.3887235,
          "velocity": 0.41732283464566927
        },
        {
          "duration": 0.8888879999999801,
          "durationTicks": 1024,
          "midi": 60,
          "name": "C4",
          "ticks": 190528,
          "time": 165.3887235,
          "velocity": 0.41732283464566927
        },
        {
          "duration": 0.8888879999999801,
          "durationTicks": 1024,
          "midi": 57,
          "name": "A3",
          "ticks": 190528,
          "time": 165.3887235,
          "velocity": 0.41732283464566927
        },
        {
          "duration": 0.22222200000001635,
          "durationTicks": 256,
          "midi": 52,
          "name": "E3",
          "ticks": 191808,
          "time": 166.4998335,
          "velocity": 0.41732283464566927
        },
        {
          "duration": 0.22222200000001635,
          "durationTicks": 256,
          "midi": 55,
          "name": "G3",
          "ticks": 191808,
          "time": 166.4998335,
          "velocity": 0.41732283464566927
        },
        {
          "duration": 0.22222200000001635,
          "durationTicks": 256,
          "midi": 60,
          "name": "C4",
          "ticks": 191808,
          "time": 166.4998335,
          "velocity": 0.41732283464566927
        },
        {
          "duration": 0.22222200000001635,
          "durationTicks": 256,
          "midi": 57,
          "name": "A3",
          "ticks": 191808,
          "time": 166.4998335,
          "velocity": 0.41732283464566927
        },
        {
          "duration": 0.13888875000000667,
          "durationTicks": 160,
          "midi": 60,
          "name": "C4",
          "ticks": 192192,
          "time": 166.8331665,
          "velocity": 0.41732283464566927
        },
        {
          "duration": 0.13888875000000667,
          "durationTicks": 160,
          "midi": 57,
          "name": "A3",
          "ticks": 192192,
          "time": 166.8331665,
          "velocity": 0.41732283464566927
        },
        {
          "duration": 0.13888875000000667,
          "durationTicks": 160,
          "midi": 52,
          "name": "E3",
          "ticks": 192192,
          "time": 166.8331665,
          "velocity": 0.41732283464566927
        },
        {
          "duration": 0.13888875000000667,
          "durationTicks": 160,
          "midi": 55,
          "name": "G3",
          "ticks": 192192,
          "time": 166.8331665,
          "velocity": 0.41732283464566927
        },
        {
          "duration": 0.08333325000000968,
          "durationTicks": 96,
          "midi": 55,
          "name": "G3",
          "ticks": 192464,
          "time": 167.06927737499998,
          "velocity": 0.41732283464566927
        },
        {
          "duration": 0.08333325000000968,
          "durationTicks": 96,
          "midi": 60,
          "name": "C4",
          "ticks": 192464,
          "time": 167.06927737499998,
          "velocity": 0.41732283464566927
        },
        {
          "duration": 0.08333325000000968,
          "durationTicks": 96,
          "midi": 52,
          "name": "E3",
          "ticks": 192464,
          "time": 167.06927737499998,
          "velocity": 0.41732283464566927
        },
        {
          "duration": 0.08333325000000968,
          "durationTicks": 96,
          "midi": 57,
          "name": "A3",
          "ticks": 192464,
          "time": 167.06927737499998,
          "velocity": 0.41732283464566927
        },
        {
          "duration": 0.22222199999998793,
          "durationTicks": 256,
          "midi": 60,
          "name": "C4",
          "ticks": 193600,
          "time": 168.0553875,
          "velocity": 0.41732283464566927
        },
        {
          "duration": 0.22222199999998793,
          "durationTicks": 256,
          "midi": 64,
          "name": "E4",
          "ticks": 193600,
          "time": 168.0553875,
          "velocity": 0.41732283464566927
        },
        {
          "duration": 0.22222199999998793,
          "durationTicks": 256,
          "midi": 70,
          "name": "A#4",
          "ticks": 193600,
          "time": 168.0553875,
          "velocity": 0.41732283464566927
        },
        {
          "duration": 0.22222199999998793,
          "durationTicks": 256,
          "midi": 54,
          "name": "F#3",
          "ticks": 193600,
          "time": 168.0553875,
          "velocity": 0.41732283464566927
        },
        {
          "duration": 0.22222200000001635,
          "durationTicks": 256,
          "midi": 54,
          "name": "F#3",
          "ticks": 194112,
          "time": 168.4998315,
          "velocity": 0.41732283464566927
        },
        {
          "duration": 0.22222200000001635,
          "durationTicks": 256,
          "midi": 60,
          "name": "C4",
          "ticks": 194112,
          "time": 168.4998315,
          "velocity": 0.41732283464566927
        },
        {
          "duration": 0.22222200000001635,
          "durationTicks": 256,
          "midi": 64,
          "name": "E4",
          "ticks": 194112,
          "time": 168.4998315,
          "velocity": 0.41732283464566927
        },
        {
          "duration": 0.22222200000001635,
          "durationTicks": 256,
          "midi": 70,
          "name": "A#4",
          "ticks": 194112,
          "time": 168.4998315,
          "velocity": 0.41732283464566927
        },
        {
          "duration": 0.22222200000001635,
          "durationTicks": 256,
          "midi": 60,
          "name": "C4",
          "ticks": 194880,
          "time": 169.1664975,
          "velocity": 0.41732283464566927
        },
        {
          "duration": 0.22222200000001635,
          "durationTicks": 256,
          "midi": 64,
          "name": "E4",
          "ticks": 194880,
          "time": 169.1664975,
          "velocity": 0.41732283464566927
        },
        {
          "duration": 0.22222200000001635,
          "durationTicks": 256,
          "midi": 54,
          "name": "F#3",
          "ticks": 194880,
          "time": 169.1664975,
          "velocity": 0.41732283464566927
        },
        {
          "duration": 0.22222200000001635,
          "durationTicks": 256,
          "midi": 70,
          "name": "A#4",
          "ticks": 194880,
          "time": 169.1664975,
          "velocity": 0.41732283464566927
        },
        {
          "duration": 0.13888875000000667,
          "durationTicks": 160,
          "midi": 54,
          "name": "F#3",
          "ticks": 195264,
          "time": 169.4998305,
          "velocity": 0.41732283464566927
        },
        {
          "duration": 0.13888875000000667,
          "durationTicks": 160,
          "midi": 70,
          "name": "A#4",
          "ticks": 195264,
          "time": 169.4998305,
          "velocity": 0.41732283464566927
        },
        {
          "duration": 0.13888875000000667,
          "durationTicks": 160,
          "midi": 64,
          "name": "E4",
          "ticks": 195264,
          "time": 169.4998305,
          "velocity": 0.41732283464566927
        },
        {
          "duration": 0.13888875000000667,
          "durationTicks": 160,
          "midi": 60,
          "name": "C4",
          "ticks": 195264,
          "time": 169.4998305,
          "velocity": 0.41732283464566927
        },
        {
          "duration": 0.08333325000000968,
          "durationTicks": 96,
          "midi": 64,
          "name": "E4",
          "ticks": 195536,
          "time": 169.73594137499998,
          "velocity": 0.41732283464566927
        },
        {
          "duration": 0.08333325000000968,
          "durationTicks": 96,
          "midi": 60,
          "name": "C4",
          "ticks": 195536,
          "time": 169.73594137499998,
          "velocity": 0.41732283464566927
        },
        {
          "duration": 0.08333325000000968,
          "durationTicks": 96,
          "midi": 70,
          "name": "A#4",
          "ticks": 195536,
          "time": 169.73594137499998,
          "velocity": 0.41732283464566927
        },
        {
          "duration": 0.08333325000000968,
          "durationTicks": 96,
          "midi": 54,
          "name": "F#3",
          "ticks": 195536,
          "time": 169.73594137499998,
          "velocity": 0.41732283464566927
        },
        {
          "duration": 0.16666649999999095,
          "durationTicks": 192,
          "midi": 56,
          "name": "G#3",
          "ticks": 197184,
          "time": 171.1664955,
          "velocity": 0.41732283464566927
        },
        {
          "duration": 0.16666649999999095,
          "durationTicks": 192,
          "midi": 61,
          "name": "C#4",
          "ticks": 197184,
          "time": 171.1664955,
          "velocity": 0.41732283464566927
        },
        {
          "duration": 0.16666649999999095,
          "durationTicks": 192,
          "midi": 58,
          "name": "A#3",
          "ticks": 197184,
          "time": 171.1664955,
          "velocity": 0.41732283464566927
        },
        {
          "duration": 0.16666649999999095,
          "durationTicks": 192,
          "midi": 53,
          "name": "F3",
          "ticks": 197184,
          "time": 171.1664955,
          "velocity": 0.41732283464566927
        },
        {
          "duration": 0.19444424999997523,
          "durationTicks": 224,
          "midi": 53,
          "name": "F3",
          "ticks": 197456,
          "time": 171.402606375,
          "velocity": 0.41732283464566927
        },
        {
          "duration": 0.19444424999997523,
          "durationTicks": 224,
          "midi": 58,
          "name": "A#3",
          "ticks": 197456,
          "time": 171.402606375,
          "velocity": 0.41732283464566927
        },
        {
          "duration": 0.19444424999997523,
          "durationTicks": 224,
          "midi": 56,
          "name": "G#3",
          "ticks": 197456,
          "time": 171.402606375,
          "velocity": 0.41732283464566927
        },
        {
          "duration": 0.19444424999997523,
          "durationTicks": 224,
          "midi": 61,
          "name": "C#4",
          "ticks": 197456,
          "time": 171.402606375,
          "velocity": 0.41732283464566927
        },
        {
          "duration": 0.08333324999998126,
          "durationTicks": 96,
          "midi": 61,
          "name": "C#4",
          "ticks": 197840,
          "time": 171.73593937500002,
          "velocity": 0.41732283464566927
        },
        {
          "duration": 0.08333324999998126,
          "durationTicks": 96,
          "midi": 53,
          "name": "F3",
          "ticks": 197840,
          "time": 171.73593937500002,
          "velocity": 0.41732283464566927
        },
        {
          "duration": 0.08333324999998126,
          "durationTicks": 96,
          "midi": 58,
          "name": "A#3",
          "ticks": 197840,
          "time": 171.73593937500002,
          "velocity": 0.41732283464566927
        },
        {
          "duration": 0.08333324999998126,
          "durationTicks": 96,
          "midi": 56,
          "name": "G#3",
          "ticks": 197840,
          "time": 171.73593937500002,
          "velocity": 0.41732283464566927
        },
        {
          "duration": 0.49999950000000126,
          "durationTicks": 576,
          "midi": 68,
          "name": "G#4",
          "ticks": 199488,
          "time": 173.1664935,
          "velocity": 0.41732283464566927
        },
        {
          "duration": 0.49999950000000126,
          "durationTicks": 576,
          "midi": 53,
          "name": "F3",
          "ticks": 199488,
          "time": 173.1664935,
          "velocity": 0.41732283464566927
        },
        {
          "duration": 0.49999950000000126,
          "durationTicks": 576,
          "midi": 61,
          "name": "C#4",
          "ticks": 199488,
          "time": 173.1664935,
          "velocity": 0.41732283464566927
        },
        {
          "duration": 0.49999950000000126,
          "durationTicks": 576,
          "midi": 58,
          "name": "A#3",
          "ticks": 199488,
          "time": 173.1664935,
          "velocity": 0.41732283464566927
        },
        {
          "duration": 0.08333324999998126,
          "durationTicks": 96,
          "midi": 60,
          "name": "C4",
          "ticks": 200144,
          "time": 173.73593737500002,
          "velocity": 0.5196850393700787
        },
        {
          "duration": 0.08333324999998126,
          "durationTicks": 96,
          "midi": 56,
          "name": "G#3",
          "ticks": 200144,
          "time": 173.73593737500002,
          "velocity": 0.5196850393700787
        },
        {
          "duration": 0.08333324999998126,
          "durationTicks": 96,
          "midi": 63,
          "name": "D#4",
          "ticks": 200144,
          "time": 173.73593737500002,
          "velocity": 0.5196850393700787
        },
        {
          "duration": 0.08333324999998126,
          "durationTicks": 96,
          "midi": 53,
          "name": "F3",
          "ticks": 200144,
          "time": 173.73593737500002,
          "velocity": 0.5196850393700787
        },
        {
          "duration": 0.22222199999998793,
          "durationTicks": 256,
          "midi": 58,
          "name": "A#3",
          "ticks": 200640,
          "time": 174.1664925,
          "velocity": 0.36220472440944884
        },
        {
          "duration": 0.22222199999998793,
          "durationTicks": 256,
          "midi": 53,
          "name": "F3",
          "ticks": 200640,
          "time": 174.1664925,
          "velocity": 0.36220472440944884
        },
        {
          "duration": 0.22222199999998793,
          "durationTicks": 256,
          "midi": 61,
          "name": "C#4",
          "ticks": 200640,
          "time": 174.1664925,
          "velocity": 0.36220472440944884
        },
        {
          "duration": 0.22222199999998793,
          "durationTicks": 256,
          "midi": 56,
          "name": "G#3",
          "ticks": 200640,
          "time": 174.1664925,
          "velocity": 0.36220472440944884
        },
        {
          "duration": 0.49999950000000126,
          "durationTicks": 576,
          "midi": 72,
          "name": "C5",
          "ticks": 201024,
          "time": 174.4998255,
          "velocity": 0.41732283464566927
        },
        {
          "duration": 0.49999950000000126,
          "durationTicks": 576,
          "midi": 56,
          "name": "G#3",
          "ticks": 201024,
          "time": 174.4998255,
          "velocity": 0.41732283464566927
        },
        {
          "duration": 0.49999950000000126,
          "durationTicks": 576,
          "midi": 62,
          "name": "D4",
          "ticks": 201024,
          "time": 174.4998255,
          "velocity": 0.41732283464566927
        },
        {
          "duration": 0.49999950000000126,
          "durationTicks": 576,
          "midi": 65,
          "name": "F4",
          "ticks": 201024,
          "time": 174.4998255,
          "velocity": 0.41732283464566927
        },
        {
          "duration": 0.16666649999999095,
          "durationTicks": 192,
          "midi": 72,
          "name": "C5",
          "ticks": 201680,
          "time": 175.069269375,
          "velocity": 0.5196850393700787
        },
        {
          "duration": 0.16666649999999095,
          "durationTicks": 192,
          "midi": 56,
          "name": "G#3",
          "ticks": 201680,
          "time": 175.069269375,
          "velocity": 0.5196850393700787
        },
        {
          "duration": 0.16666649999999095,
          "durationTicks": 192,
          "midi": 65,
          "name": "F4",
          "ticks": 201680,
          "time": 175.069269375,
          "velocity": 0.5196850393700787
        },
        {
          "duration": 0.16666649999999095,
          "durationTicks": 192,
          "midi": 62,
          "name": "D4",
          "ticks": 201680,
          "time": 175.069269375,
          "velocity": 0.5196850393700787
        },
        {
          "duration": 0.22222199999998793,
          "durationTicks": 256,
          "midi": 62,
          "name": "D4",
          "ticks": 202176,
          "time": 175.4998245,
          "velocity": 0.36220472440944884
        },
        {
          "duration": 0.22222199999998793,
          "durationTicks": 256,
          "midi": 56,
          "name": "G#3",
          "ticks": 202176,
          "time": 175.4998245,
          "velocity": 0.36220472440944884
        },
        {
          "duration": 0.22222199999998793,
          "durationTicks": 256,
          "midi": 70,
          "name": "A#4",
          "ticks": 202176,
          "time": 175.4998245,
          "velocity": 0.36220472440944884
        },
        {
          "duration": 0.22222199999998793,
          "durationTicks": 256,
          "midi": 66,
          "name": "F#4",
          "ticks": 202176,
          "time": 175.4998245,
          "velocity": 0.36220472440944884
        },
        {
          "duration": 0.49999950000000126,
          "durationTicks": 576,
          "midi": 63,
          "name": "D#4",
          "ticks": 202560,
          "time": 175.8331575,
          "velocity": 0.41732283464566927
        },
        {
          "duration": 0.49999950000000126,
          "durationTicks": 576,
          "midi": 61,
          "name": "C#4",
          "ticks": 202560,
          "time": 175.8331575,
          "velocity": 0.41732283464566927
        },
        {
          "duration": 0.49999950000000126,
          "durationTicks": 576,
          "midi": 58,
          "name": "A#3",
          "ticks": 202560,
          "time": 175.8331575,
          "velocity": 0.41732283464566927
        },
        {
          "duration": 0.49999950000000126,
          "durationTicks": 576,
          "midi": 54,
          "name": "F#3",
          "ticks": 202560,
          "time": 175.8331575,
          "velocity": 0.41732283464566927
        },
        {
          "duration": 0.08333324999998126,
          "durationTicks": 96,
          "midi": 65,
          "name": "F4",
          "ticks": 203216,
          "time": 176.40260137500002,
          "velocity": 0.5196850393700787
        },
        {
          "duration": 0.08333324999998126,
          "durationTicks": 96,
          "midi": 62,
          "name": "D4",
          "ticks": 203216,
          "time": 176.40260137500002,
          "velocity": 0.5196850393700787
        },
        {
          "duration": 0.08333324999998126,
          "durationTicks": 96,
          "midi": 56,
          "name": "G#3",
          "ticks": 203216,
          "time": 176.40260137500002,
          "velocity": 0.5196850393700787
        },
        {
          "duration": 0.08333324999998126,
          "durationTicks": 96,
          "midi": 71,
          "name": "B4",
          "ticks": 203216,
          "time": 176.40260137500002,
          "velocity": 0.5196850393700787
        },
        {
          "duration": 0.08333325000000968,
          "durationTicks": 96,
          "midi": 39,
          "name": "D#2",
          "ticks": 204752,
          "time": 177.735933375,
          "velocity": 0.2755905511811024
        },
        {
          "duration": 0.1805553749999831,
          "durationTicks": 208,
          "midi": 63,
          "name": "D#4",
          "ticks": 204864,
          "time": 177.8331555,
          "velocity": 0.3858267716535433
        },
        {
          "duration": 0.1805553749999831,
          "durationTicks": 208,
          "midi": 54,
          "name": "F#3",
          "ticks": 204864,
          "time": 177.8331555,
          "velocity": 0.3858267716535433
        },
        {
          "duration": 0.1805553749999831,
          "durationTicks": 208,
          "midi": 61,
          "name": "C#4",
          "ticks": 204864,
          "time": 177.8331555,
          "velocity": 0.3858267716535433
        },
        {
          "duration": 0.1805553749999831,
          "durationTicks": 208,
          "midi": 70,
          "name": "A#4",
          "ticks": 204864,
          "time": 177.8331555,
          "velocity": 0.3858267716535433
        },
        {
          "duration": 0.05555549999996856,
          "durationTicks": 64,
          "midi": 39,
          "name": "D#2",
          "ticks": 205136,
          "time": 178.069266375,
          "velocity": 0.13385826771653545
        },
        {
          "duration": 0.22222199999998793,
          "durationTicks": 256,
          "midi": 54,
          "name": "F#3",
          "ticks": 205248,
          "time": 178.16648849999999,
          "velocity": 0.4566929133858268
        },
        {
          "duration": 0.22222199999998793,
          "durationTicks": 256,
          "midi": 63,
          "name": "D#4",
          "ticks": 205248,
          "time": 178.16648849999999,
          "velocity": 0.4566929133858268
        },
        {
          "duration": 0.22222199999998793,
          "durationTicks": 256,
          "midi": 70,
          "name": "A#4",
          "ticks": 205248,
          "time": 178.16648849999999,
          "velocity": 0.4566929133858268
        },
        {
          "duration": 0.22222199999998793,
          "durationTicks": 256,
          "midi": 61,
          "name": "C#4",
          "ticks": 205248,
          "time": 178.16648849999999,
          "velocity": 0.4566929133858268
        },
        {
          "duration": 0.49999950000000126,
          "durationTicks": 576,
          "midi": 54,
          "name": "F#3",
          "ticks": 205632,
          "time": 178.4998215,
          "velocity": 0.41732283464566927
        },
        {
          "duration": 0.49999950000000126,
          "durationTicks": 576,
          "midi": 63,
          "name": "D#4",
          "ticks": 205632,
          "time": 178.4998215,
          "velocity": 0.41732283464566927
        },
        {
          "duration": 0.49999950000000126,
          "durationTicks": 576,
          "midi": 58,
          "name": "A#3",
          "ticks": 205632,
          "time": 178.4998215,
          "velocity": 0.41732283464566927
        },
        {
          "duration": 0.49999950000000126,
          "durationTicks": 576,
          "midi": 61,
          "name": "C#4",
          "ticks": 205632,
          "time": 178.4998215,
          "velocity": 0.41732283464566927
        },
        {
          "duration": 0.08333324999998126,
          "durationTicks": 96,
          "midi": 62,
          "name": "D4",
          "ticks": 206288,
          "time": 179.06926537500001,
          "velocity": 0.5196850393700787
        },
        {
          "duration": 0.08333324999998126,
          "durationTicks": 96,
          "midi": 65,
          "name": "F4",
          "ticks": 206288,
          "time": 179.06926537500001,
          "velocity": 0.5196850393700787
        },
        {
          "duration": 0.08333324999998126,
          "durationTicks": 96,
          "midi": 56,
          "name": "G#3",
          "ticks": 206288,
          "time": 179.06926537500001,
          "velocity": 0.5196850393700787
        },
        {
          "duration": 0.08333324999998126,
          "durationTicks": 96,
          "midi": 71,
          "name": "B4",
          "ticks": 206288,
          "time": 179.06926537500001,
          "velocity": 0.5196850393700787
        },
        {
          "duration": 0.09722212500003025,
          "durationTicks": 112,
          "midi": 58,
          "name": "A#3",
          "ticks": 207040,
          "time": 179.7220425,
          "velocity": 0.5196850393700787
        },
        {
          "duration": 0.09722212500003025,
          "durationTicks": 112,
          "midi": 63,
          "name": "D#4",
          "ticks": 207040,
          "time": 179.7220425,
          "velocity": 0.5196850393700787
        },
        {
          "duration": 0.09722212500003025,
          "durationTicks": 112,
          "midi": 61,
          "name": "C#4",
          "ticks": 207040,
          "time": 179.7220425,
          "velocity": 0.5196850393700787
        },
        {
          "duration": 0.09722212500003025,
          "durationTicks": 112,
          "midi": 54,
          "name": "F#3",
          "ticks": 207040,
          "time": 179.7220425,
          "velocity": 0.5196850393700787
        },
        {
          "duration": 0.08333324999998126,
          "durationTicks": 96,
          "midi": 61,
          "name": "C#4",
          "ticks": 208592,
          "time": 181.06926337500002,
          "velocity": 0.4566929133858268
        },
        {
          "duration": 0.08333324999998126,
          "durationTicks": 96,
          "midi": 54,
          "name": "F#3",
          "ticks": 208592,
          "time": 181.06926337500002,
          "velocity": 0.4566929133858268
        },
        {
          "duration": 0.08333324999998126,
          "durationTicks": 96,
          "midi": 63,
          "name": "D#4",
          "ticks": 208592,
          "time": 181.06926337500002,
          "velocity": 0.4566929133858268
        },
        {
          "duration": 0.08333324999998126,
          "durationTicks": 96,
          "midi": 58,
          "name": "A#3",
          "ticks": 208592,
          "time": 181.06926337500002,
          "velocity": 0.4566929133858268
        },
        {
          "duration": 0.08333325000000968,
          "durationTicks": 96,
          "midi": 63,
          "name": "D#4",
          "ticks": 209728,
          "time": 182.05537349999997,
          "velocity": 0.41732283464566927
        },
        {
          "duration": 0.08333325000000968,
          "durationTicks": 96,
          "midi": 70,
          "name": "A#4",
          "ticks": 209856,
          "time": 182.1664845,
          "velocity": 0.41732283464566927
        },
        {
          "duration": 0.1805553749999831,
          "durationTicks": 208,
          "midi": 60,
          "name": "C4",
          "ticks": 211008,
          "time": 183.1664835,
          "velocity": 0.3858267716535433
        },
        {
          "duration": 0.1805553749999831,
          "durationTicks": 208,
          "midi": 62,
          "name": "D4",
          "ticks": 211008,
          "time": 183.1664835,
          "velocity": 0.3858267716535433
        },
        {
          "duration": 0.1805553749999831,
          "durationTicks": 208,
          "midi": 54,
          "name": "F#3",
          "ticks": 211008,
          "time": 183.1664835,
          "velocity": 0.3858267716535433
        },
        {
          "duration": 0.1805553749999831,
          "durationTicks": 208,
          "midi": 70,
          "name": "A#4",
          "ticks": 211008,
          "time": 183.1664835,
          "velocity": 0.3858267716535433
        },
        {
          "duration": 0.05555549999999698,
          "durationTicks": 64,
          "midi": 38,
          "name": "D2",
          "ticks": 211280,
          "time": 183.402594375,
          "velocity": 0.13385826771653545
        },
        {
          "duration": 0.2222219999999595,
          "durationTicks": 256,
          "midi": 70,
          "name": "A#4",
          "ticks": 211392,
          "time": 183.4998165,
          "velocity": 0.4566929133858268
        },
        {
          "duration": 0.2222219999999595,
          "durationTicks": 256,
          "midi": 60,
          "name": "C4",
          "ticks": 211392,
          "time": 183.4998165,
          "velocity": 0.4566929133858268
        },
        {
          "duration": 0.2222219999999595,
          "durationTicks": 256,
          "midi": 62,
          "name": "D4",
          "ticks": 211392,
          "time": 183.4998165,
          "velocity": 0.4566929133858268
        },
        {
          "duration": 0.2222219999999595,
          "durationTicks": 256,
          "midi": 54,
          "name": "F#3",
          "ticks": 211392,
          "time": 183.4998165,
          "velocity": 0.4566929133858268
        },
        {
          "duration": 0.583332750000011,
          "durationTicks": 672,
          "midi": 61,
          "name": "C#4",
          "ticks": 211776,
          "time": 183.8331495,
          "velocity": 0.4015748031496063
        },
        {
          "duration": 0.583332750000011,
          "durationTicks": 672,
          "midi": 55,
          "name": "G3",
          "ticks": 211776,
          "time": 183.8331495,
          "velocity": 0.4015748031496063
        },
        {
          "duration": 0.583332750000011,
          "durationTicks": 672,
          "midi": 70,
          "name": "A#4",
          "ticks": 211776,
          "time": 183.8331495,
          "velocity": 0.4015748031496063
        },
        {
          "duration": 0.583332750000011,
          "durationTicks": 672,
          "midi": 65,
          "name": "F4",
          "ticks": 211776,
          "time": 183.8331495,
          "velocity": 0.4015748031496063
        },
        {
          "duration": 0.27777750000001333,
          "durationTicks": 320,
          "midi": 55,
          "name": "G3",
          "ticks": 212544,
          "time": 184.49981549999998,
          "velocity": 0.41732283464566927
        },
        {
          "duration": 0.27777750000001333,
          "durationTicks": 320,
          "midi": 65,
          "name": "F4",
          "ticks": 212544,
          "time": 184.49981549999998,
          "velocity": 0.41732283464566927
        },
        {
          "duration": 0.27777750000001333,
          "durationTicks": 320,
          "midi": 70,
          "name": "A#4",
          "ticks": 212544,
          "time": 184.49981549999998,
          "velocity": 0.41732283464566927
        },
        {
          "duration": 0.27777750000001333,
          "durationTicks": 320,
          "midi": 61,
          "name": "C#4",
          "ticks": 212544,
          "time": 184.49981549999998,
          "velocity": 0.41732283464566927
        },
        {
          "duration": 0.08333325000000968,
          "durationTicks": 96,
          "midi": 60,
          "name": "C4",
          "ticks": 213184,
          "time": 185.05537049999998,
          "velocity": 0.41732283464566927
        },
        {
          "duration": 0.08333325000000968,
          "durationTicks": 96,
          "midi": 69,
          "name": "A4",
          "ticks": 213184,
          "time": 185.05537049999998,
          "velocity": 0.41732283464566927
        },
        {
          "duration": 0.08333325000000968,
          "durationTicks": 96,
          "midi": 54,
          "name": "F#3",
          "ticks": 213184,
          "time": 185.05537049999998,
          "velocity": 0.41732283464566927
        },
        {
          "duration": 0.08333325000000968,
          "durationTicks": 96,
          "midi": 64,
          "name": "E4",
          "ticks": 213184,
          "time": 185.05537049999998,
          "velocity": 0.41732283464566927
        },
        {
          "duration": 0.1805553749999831,
          "durationTicks": 208,
          "midi": 60,
          "name": "C4",
          "ticks": 214080,
          "time": 185.8331475,
          "velocity": 0.3858267716535433
        },
        {
          "duration": 0.1805553749999831,
          "durationTicks": 208,
          "midi": 69,
          "name": "A4",
          "ticks": 214080,
          "time": 185.8331475,
          "velocity": 0.3858267716535433
        },
        {
          "duration": 0.1805553749999831,
          "durationTicks": 208,
          "midi": 54,
          "name": "F#3",
          "ticks": 214080,
          "time": 185.8331475,
          "velocity": 0.3858267716535433
        },
        {
          "duration": 0.1805553749999831,
          "durationTicks": 208,
          "midi": 64,
          "name": "E4",
          "ticks": 214080,
          "time": 185.8331475,
          "velocity": 0.3858267716535433
        },
        {
          "duration": 0.05555549999999698,
          "durationTicks": 64,
          "midi": 38,
          "name": "D2",
          "ticks": 214352,
          "time": 186.069258375,
          "velocity": 0.13385826771653545
        },
        {
          "duration": 0.22222199999998793,
          "durationTicks": 256,
          "midi": 69,
          "name": "A4",
          "ticks": 214464,
          "time": 186.1664805,
          "velocity": 0.4566929133858268
        },
        {
          "duration": 0.22222199999998793,
          "durationTicks": 256,
          "midi": 60,
          "name": "C4",
          "ticks": 214464,
          "time": 186.1664805,
          "velocity": 0.4566929133858268
        },
        {
          "duration": 0.22222199999998793,
          "durationTicks": 256,
          "midi": 54,
          "name": "F#3",
          "ticks": 214464,
          "time": 186.1664805,
          "velocity": 0.4566929133858268
        },
        {
          "duration": 0.22222199999998793,
          "durationTicks": 256,
          "midi": 64,
          "name": "E4",
          "ticks": 214464,
          "time": 186.1664805,
          "velocity": 0.4566929133858268
        },
        {
          "duration": 0.22222199999998793,
          "durationTicks": 256,
          "midi": 60,
          "name": "C4",
          "ticks": 216384,
          "time": 187.8331455,
          "velocity": 0.41732283464566927
        },
        {
          "duration": 0.22222199999998793,
          "durationTicks": 256,
          "midi": 56,
          "name": "G#3",
          "ticks": 216384,
          "time": 187.8331455,
          "velocity": 0.41732283464566927
        },
        {
          "duration": 0.22222199999998793,
          "durationTicks": 256,
          "midi": 53,
          "name": "F3",
          "ticks": 216384,
          "time": 187.8331455,
          "velocity": 0.41732283464566927
        },
        {
          "duration": 0.22222199999998793,
          "durationTicks": 256,
          "midi": 63,
          "name": "D#4",
          "ticks": 216384,
          "time": 187.8331455,
          "velocity": 0.41732283464566927
        },
        {
          "duration": 0.13888875000000667,
          "durationTicks": 160,
          "midi": 53,
          "name": "F3",
          "ticks": 216768,
          "time": 188.16647849999998,
          "velocity": 0.41732283464566927
        },
        {
          "duration": 0.13888875000000667,
          "durationTicks": 160,
          "midi": 56,
          "name": "G#3",
          "ticks": 216768,
          "time": 188.16647849999998,
          "velocity": 0.41732283464566927
        },
        {
          "duration": 0.13888875000000667,
          "durationTicks": 160,
          "midi": 60,
          "name": "C4",
          "ticks": 216768,
          "time": 188.16647849999998,
          "velocity": 0.41732283464566927
        },
        {
          "duration": 0.13888875000000667,
          "durationTicks": 160,
          "midi": 63,
          "name": "D#4",
          "ticks": 216768,
          "time": 188.16647849999998,
          "velocity": 0.41732283464566927
        },
        {
          "duration": 0.08333324999998126,
          "durationTicks": 96,
          "midi": 53,
          "name": "F3",
          "ticks": 217040,
          "time": 188.40258937500002,
          "velocity": 0.41732283464566927
        },
        {
          "duration": 0.08333324999998126,
          "durationTicks": 96,
          "midi": 63,
          "name": "D#4",
          "ticks": 217040,
          "time": 188.40258937500002,
          "velocity": 0.41732283464566927
        },
        {
          "duration": 0.08333324999998126,
          "durationTicks": 96,
          "midi": 56,
          "name": "G#3",
          "ticks": 217040,
          "time": 188.40258937500002,
          "velocity": 0.41732283464566927
        },
        {
          "duration": 0.08333324999998126,
          "durationTicks": 96,
          "midi": 60,
          "name": "C4",
          "ticks": 217040,
          "time": 188.40258937500002,
          "velocity": 0.41732283464566927
        },
        {
          "duration": 1.3333319999999844,
          "durationTicks": 1536,
          "midi": 58,
          "name": "A#3",
          "ticks": 217904,
          "time": 189.15258862500002,
          "velocity": 0.41732283464566927
        },
        {
          "duration": 1.3333319999999844,
          "durationTicks": 1536,
          "midi": 53,
          "name": "F3",
          "ticks": 217904,
          "time": 189.15258862500002,
          "velocity": 0.41732283464566927
        },
        {
          "duration": 1.3333319999999844,
          "durationTicks": 1536,
          "midi": 56,
          "name": "G#3",
          "ticks": 217904,
          "time": 189.15258862500002,
          "velocity": 0.41732283464566927
        },
        {
          "duration": 1.3333319999999844,
          "durationTicks": 1536,
          "midi": 61,
          "name": "C#4",
          "ticks": 217904,
          "time": 189.15258862500002,
          "velocity": 0.41732283464566927
        },
        {
          "duration": 0.5555549999999982,
          "durationTicks": 640,
          "midi": 68,
          "name": "G#4",
          "ticks": 219456,
          "time": 190.4998095,
          "velocity": 0.4015748031496063
        },
        {
          "duration": 0.5555549999999982,
          "durationTicks": 640,
          "midi": 61,
          "name": "C#4",
          "ticks": 219456,
          "time": 190.4998095,
          "velocity": 0.4015748031496063
        },
        {
          "duration": 0.5555549999999982,
          "durationTicks": 640,
          "midi": 58,
          "name": "A#3",
          "ticks": 219456,
          "time": 190.4998095,
          "velocity": 0.4015748031496063
        },
        {
          "duration": 0.5555549999999982,
          "durationTicks": 640,
          "midi": 53,
          "name": "F3",
          "ticks": 219456,
          "time": 190.4998095,
          "velocity": 0.4015748031496063
        },
        {
          "duration": 0.11111099999999396,
          "durationTicks": 128,
          "midi": 61,
          "name": "C#4",
          "ticks": 220096,
          "time": 191.0553645,
          "velocity": 0.41732283464566927
        },
        {
          "duration": 0.11111099999999396,
          "durationTicks": 128,
          "midi": 58,
          "name": "A#3",
          "ticks": 220096,
          "time": 191.0553645,
          "velocity": 0.41732283464566927
        },
        {
          "duration": 0.11111099999999396,
          "durationTicks": 128,
          "midi": 68,
          "name": "G#4",
          "ticks": 220096,
          "time": 191.0553645,
          "velocity": 0.41732283464566927
        },
        {
          "duration": 0.11111099999999396,
          "durationTicks": 128,
          "midi": 53,
          "name": "F3",
          "ticks": 220096,
          "time": 191.0553645,
          "velocity": 0.41732283464566927
        }
      ]
    },
    {
      "channel": 0,
      "controlChanges": {
        "0": [
          {
            "number": 0,
            "ticks": 360,
            "time": 0.3124996875,
            "value": 0
          }
        ],
        "6": [
          {
            "number": 6,
            "ticks": 1060,
            "time": 0.92013796875,
            "value": 0.015748031496062992
          },
          {
            "number": 6,
            "ticks": 1072,
            "time": 0.930554625,
            "value": 0.5039370078740157
          }
        ],
        "7": [
          {
            "number": 7,
            "ticks": 364,
            "time": 0.31597190625,
            "value": 1
          }
        ],
        "10": [
          {
            "number": 10,
            "ticks": 368,
            "time": 0.319444125,
            "value": 0.31496062992125984
          }
        ],
        "11": [
          {
            "number": 11,
            "ticks": 372,
            "time": 0.32291634375,
            "value": 1
          }
        ],
        "32": [
          {
            "number": 32,
            "ticks": 360,
            "time": 0.3124996875,
            "value": 0
          }
        ],
        "91": [
          {
            "number": 91,
            "ticks": 376,
            "time": 0.3263885625,
            "value": 0.7086614173228346
          }
        ],
        "93": [
          {
            "number": 93,
            "ticks": 380,
            "time": 0.32986078125,
            "value": 0
          }
        ],
        "100": [
          {
            "number": 100,
            "ticks": 1056,
            "time": 0.91666575,
            "value": 0
          },
          {
            "number": 100,
            "ticks": 1068,
            "time": 0.9270824062499999,
            "value": 0.015748031496062992
          },
          {
            "number": 100,
            "ticks": 1080,
            "time": 0.9374990624999999,
            "value": 1
          }
        ],
        "101": [
          {
            "number": 101,
            "ticks": 1052,
            "time": 0.91319353125,
            "value": 0
          },
          {
            "number": 101,
            "ticks": 1064,
            "time": 0.9236101875,
            "value": 0
          },
          {
            "number": 101,
            "ticks": 1076,
            "time": 0.93402684375,
            "value": 1
          }
        ],
        "121": [
          {
            "number": 121,
            "ticks": 204,
            "time": 0.17708315624999998,
            "value": 0
          }
        ]
      },
      "pitchBends": [],
      "instrument": {
        "family": "reed",
        "name": "clarinet",
        "number": 71
      },
      "name": "",
      "notes": []
    },
    {
      "channel": 4,
      "controlChanges": {
        "0": [
          {
            "number": 0,
            "ticks": 392,
            "time": 0.34027743749999995,
            "value": 0
          }
        ],
        "6": [
          {
            "number": 6,
            "ticks": 1092,
            "time": 0.94791571875,
            "value": 0.015748031496062992
          },
          {
            "number": 6,
            "ticks": 1104,
            "time": 0.958332375,
            "value": 0.5039370078740157
          }
        ],
        "7": [
          {
            "number": 7,
            "ticks": 396,
            "time": 0.34374965625,
            "value": 1
          }
        ],
        "10": [
          {
            "number": 10,
            "ticks": 400,
            "time": 0.347221875,
            "value": 0.4251968503937008
          }
        ],
        "11": [
          {
            "number": 11,
            "ticks": 404,
            "time": 0.35069409375,
            "value": 1
          },
          {
            "number": 11,
            "ticks": 61508,
            "time": 53.392307718750004,
            "value": 0.7874015748031497
          },
          {
            "number": 11,
            "ticks": 61554,
            "time": 53.432238234375,
            "value": 0.7952755905511811
          },
          {
            "number": 11,
            "ticks": 61602,
            "time": 53.473904859375,
            "value": 0.8031496062992126
          },
          {
            "number": 11,
            "ticks": 61648,
            "time": 53.51383537499999,
            "value": 0.8110236220472441
          },
          {
            "number": 11,
            "ticks": 61696,
            "time": 53.555502,
            "value": 0.8188976377952756
          },
          {
            "number": 11,
            "ticks": 61744,
            "time": 53.597168624999995,
            "value": 0.8267716535433071
          },
          {
            "number": 11,
            "ticks": 61790,
            "time": 53.637099140625004,
            "value": 0.8346456692913385
          },
          {
            "number": 11,
            "ticks": 61838,
            "time": 53.678765765625,
            "value": 0.84251968503937
          },
          {
            "number": 11,
            "ticks": 61884,
            "time": 53.71869628125,
            "value": 0.8503937007874016
          },
          {
            "number": 11,
            "ticks": 61932,
            "time": 53.76036290625,
            "value": 0.8582677165354331
          },
          {
            "number": 11,
            "ticks": 61980,
            "time": 53.80202953125,
            "value": 0.8661417322834646
          },
          {
            "number": 11,
            "ticks": 62026,
            "time": 53.841960046874995,
            "value": 0.8740157480314961
          },
          {
            "number": 11,
            "ticks": 62074,
            "time": 53.88362667187499,
            "value": 0.8818897637795275
          },
          {
            "number": 11,
            "ticks": 62120,
            "time": 53.9235571875,
            "value": 0.889763779527559
          },
          {
            "number": 11,
            "ticks": 62168,
            "time": 53.9652238125,
            "value": 0.8976377952755905
          },
          {
            "number": 11,
            "ticks": 62214,
            "time": 54.005154328125,
            "value": 0.905511811023622
          },
          {
            "number": 11,
            "ticks": 62262,
            "time": 54.046820953125,
            "value": 0.9133858267716536
          },
          {
            "number": 11,
            "ticks": 62308,
            "time": 54.086751468749995,
            "value": 0.9212598425196851
          },
          {
            "number": 11,
            "ticks": 62356,
            "time": 54.12841809374999,
            "value": 0.9291338582677166
          },
          {
            "number": 11,
            "ticks": 62404,
            "time": 54.17008471875,
            "value": 0.937007874015748
          },
          {
            "number": 11,
            "ticks": 62450,
            "time": 54.210015234375,
            "value": 0.9448818897637795
          },
          {
            "number": 11,
            "ticks": 62498,
            "time": 54.251681859375005,
            "value": 0.952755905511811
          },
          {
            "number": 11,
            "ticks": 62544,
            "time": 54.291612375,
            "value": 0.9606299212598425
          },
          {
            "number": 11,
            "ticks": 62592,
            "time": 54.333279,
            "value": 0.968503937007874
          },
          {
            "number": 11,
            "ticks": 62640,
            "time": 54.374945624999995,
            "value": 0.9763779527559056
          },
          {
            "number": 11,
            "ticks": 62686,
            "time": 54.414876140625,
            "value": 0.984251968503937
          },
          {
            "number": 11,
            "ticks": 62734,
            "time": 54.456542765624995,
            "value": 0.9921259842519685
          },
          {
            "number": 11,
            "ticks": 62780,
            "time": 54.496473281250005,
            "value": 1
          },
          {
            "number": 11,
            "ticks": 62816,
            "time": 54.52772325,
            "value": 0.9921259842519685
          },
          {
            "number": 11,
            "ticks": 62852,
            "time": 54.558973218750005,
            "value": 0.9763779527559056
          },
          {
            "number": 11,
            "ticks": 62888,
            "time": 54.5902231875,
            "value": 0.9606299212598425
          },
          {
            "number": 11,
            "ticks": 62924,
            "time": 54.621473156250005,
            "value": 0.952755905511811
          },
          {
            "number": 11,
            "ticks": 62960,
            "time": 54.652723125,
            "value": 0.937007874015748
          },
          {
            "number": 11,
            "ticks": 62996,
            "time": 54.683973093750005,
            "value": 0.9212598425196851
          },
          {
            "number": 11,
            "ticks": 63032,
            "time": 54.7152230625,
            "value": 0.9133858267716536
          },
          {
            "number": 11,
            "ticks": 63068,
            "time": 54.74647303125,
            "value": 0.8976377952755905
          },
          {
            "number": 11,
            "ticks": 63104,
            "time": 54.777723,
            "value": 0.8818897637795275
          },
          {
            "number": 11,
            "ticks": 63140,
            "time": 54.80897296875,
            "value": 0.8740157480314961
          },
          {
            "number": 11,
            "ticks": 63176,
            "time": 54.8402229375,
            "value": 0.8582677165354331
          },
          {
            "number": 11,
            "ticks": 63212,
            "time": 54.87147290625,
            "value": 0.84251968503937
          },
          {
            "number": 11,
            "ticks": 63248,
            "time": 54.902722875,
            "value": 0.8346456692913385
          },
          {
            "number": 11,
            "ticks": 63284,
            "time": 54.93397284375,
            "value": 0.8188976377952756
          },
          {
            "number": 11,
            "ticks": 63320,
            "time": 54.9652228125,
            "value": 0.8031496062992126
          },
          {
            "number": 11,
            "ticks": 63356,
            "time": 54.99647278125,
            "value": 0.7874015748031497
          },
          {
            "number": 11,
            "ticks": 213568,
            "time": 185.3887035,
            "value": 0.7874015748031497
          },
          {
            "number": 11,
            "ticks": 213652,
            "time": 185.46162009374999,
            "value": 0.7952755905511811
          },
          {
            "number": 11,
            "ticks": 213734,
            "time": 185.532800578125,
            "value": 0.8031496062992126
          },
          {
            "number": 11,
            "ticks": 213816,
            "time": 185.6039810625,
            "value": 0.8110236220472441
          },
          {
            "number": 11,
            "ticks": 213900,
            "time": 185.67689765625,
            "value": 0.8188976377952756
          },
          {
            "number": 11,
            "ticks": 213982,
            "time": 185.74807814062498,
            "value": 0.8267716535433071
          },
          {
            "number": 11,
            "ticks": 214066,
            "time": 185.82099473437498,
            "value": 0.8346456692913385
          },
          {
            "number": 11,
            "ticks": 214148,
            "time": 185.89217521875,
            "value": 0.84251968503937
          },
          {
            "number": 11,
            "ticks": 214232,
            "time": 185.96509181250002,
            "value": 0.8503937007874016
          },
          {
            "number": 11,
            "ticks": 214314,
            "time": 186.03627229687498,
            "value": 0.8582677165354331
          },
          {
            "number": 11,
            "ticks": 214396,
            "time": 186.10745278124998,
            "value": 0.8661417322834646
          },
          {
            "number": 11,
            "ticks": 214480,
            "time": 186.18036937499997,
            "value": 0.8740157480314961
          },
          {
            "number": 11,
            "ticks": 214562,
            "time": 186.25154985937502,
            "value": 0.8818897637795275
          },
          {
            "number": 11,
            "ticks": 214644,
            "time": 186.32273034374998,
            "value": 0.889763779527559
          },
          {
            "number": 11,
            "ticks": 214728,
            "time": 186.3956469375,
            "value": 0.8976377952755905
          },
          {
            "number": 11,
            "ticks": 214810,
            "time": 186.466827421875,
            "value": 0.905511811023622
          },
          {
            "number": 11,
            "ticks": 214894,
            "time": 186.539744015625,
            "value": 0.9133858267716536
          },
          {
            "number": 11,
            "ticks": 214976,
            "time": 186.6109245,
            "value": 0.9212598425196851
          },
          {
            "number": 11,
            "ticks": 215060,
            "time": 186.68384109375,
            "value": 0.9291338582677166
          },
          {
            "number": 11,
            "ticks": 215142,
            "time": 186.755021578125,
            "value": 0.937007874015748
          },
          {
            "number": 11,
            "ticks": 215224,
            "time": 186.8262020625,
            "value": 0.9448818897637795
          },
          {
            "number": 11,
            "ticks": 215308,
            "time": 186.89911865624998,
            "value": 0.952755905511811
          },
          {
            "number": 11,
            "ticks": 215390,
            "time": 186.970299140625,
            "value": 0.9606299212598425
          },
          {
            "number": 11,
            "ticks": 215472,
            "time": 187.041479625,
            "value": 0.968503937007874
          },
          {
            "number": 11,
            "ticks": 215556,
            "time": 187.11439621875,
            "value": 0.9763779527559056
          },
          {
            "number": 11,
            "ticks": 215638,
            "time": 187.18557670312498,
            "value": 0.984251968503937
          },
          {
            "number": 11,
            "ticks": 215722,
            "time": 187.25849329687497,
            "value": 0.9921259842519685
          },
          {
            "number": 11,
            "ticks": 215804,
            "time": 187.32967378125,
            "value": 1
          },
          {
            "number": 11,
            "ticks": 216380,
            "time": 187.82967328125,
            "value": 0.7874015748031497
          }
        ],
        "32": [
          {
            "number": 32,
            "ticks": 392,
            "time": 0.34027743749999995,
            "value": 0
          }
        ],
        "91": [
          {
            "number": 91,
            "ticks": 408,
            "time": 0.35416631249999997,
            "value": 0.7086614173228346
          }
        ],
        "93": [
          {
            "number": 93,
            "ticks": 412,
            "time": 0.35763853125,
            "value": 0
          }
        ],
        "100": [
          {
            "number": 100,
            "ticks": 1088,
            "time": 0.9444435,
            "value": 0
          },
          {
            "number": 100,
            "ticks": 1100,
            "time": 0.95486015625,
            "value": 0.015748031496062992
          },
          {
            "number": 100,
            "ticks": 1112,
            "time": 0.9652768125,
            "value": 1
          }
        ],
        "101": [
          {
            "number": 101,
            "ticks": 1084,
            "time": 0.94097128125,
            "value": 0
          },
          {
            "number": 101,
            "ticks": 1096,
            "time": 0.9513879375,
            "value": 0
          },
          {
            "number": 101,
            "ticks": 1108,
            "time": 0.9618045937499999,
            "value": 1
          }
        ],
        "121": [
          {
            "number": 121,
            "ticks": 208,
            "time": 0.180555375,
            "value": 0
          }
        ]
      },
      "pitchBends": [],
      "instrument": {
        "family": "reed",
        "name": "alto sax",
        "number": 65
      },
      "name": "",
      "notes": [
        {
          "duration": 0.20486090624999775,
          "durationTicks": 236,
          "midi": 65,
          "name": "F4",
          "ticks": 20928,
          "time": 18.1666485,
          "velocity": 0.5275590551181102
        },
        {
          "duration": 0.20659701562500032,
          "durationTicks": 238,
          "midi": 70,
          "name": "A#4",
          "ticks": 20930,
          "time": 18.168384609375,
          "velocity": 0.5275590551181102
        },
        {
          "duration": 0.6666659999999993,
          "durationTicks": 768,
          "midi": 66,
          "name": "F#4",
          "ticks": 21316,
          "time": 18.50345371875,
          "velocity": 0.5275590551181102
        },
        {
          "duration": 0.6666659999999993,
          "durationTicks": 768,
          "midi": 73,
          "name": "C#5",
          "ticks": 21316,
          "time": 18.50345371875,
          "velocity": 0.5275590551181102
        },
        {
          "duration": 0.6666659999999993,
          "durationTicks": 768,
          "midi": 73,
          "name": "C#5",
          "ticks": 22084,
          "time": 19.170119718749998,
          "velocity": 0.5354330708661418
        },
        {
          "duration": 0.6666659999999993,
          "durationTicks": 768,
          "midi": 66,
          "name": "F#4",
          "ticks": 22084,
          "time": 19.170119718749998,
          "velocity": 0.5354330708661418
        },
        {
          "duration": 0.21527756250000252,
          "durationTicks": 248,
          "midi": 73,
          "name": "C#5",
          "ticks": 22852,
          "time": 19.836785718749997,
          "velocity": 0.5354330708661418
        },
        {
          "duration": 0.21354145312499995,
          "durationTicks": 246,
          "midi": 66,
          "name": "F#4",
          "ticks": 22852,
          "time": 19.836785718749997,
          "velocity": 0.5354330708661418
        },
        {
          "duration": 0.6666659999999993,
          "durationTicks": 768,
          "midi": 65,
          "name": "F4",
          "ticks": 23232,
          "time": 20.1666465,
          "velocity": 0.5433070866141733
        },
        {
          "duration": 0.6666659999999993,
          "durationTicks": 768,
          "midi": 71,
          "name": "B4",
          "ticks": 23234,
          "time": 20.168382609375,
          "velocity": 0.5433070866141733
        },
        {
          "duration": 0.2048609062500013,
          "durationTicks": 236,
          "midi": 62,
          "name": "D4",
          "ticks": 24000,
          "time": 20.833312499999998,
          "velocity": 0.5511811023622047
        },
        {
          "duration": 0.20659701562500032,
          "durationTicks": 238,
          "midi": 69,
          "name": "A4",
          "ticks": 24002,
          "time": 20.835048609375,
          "velocity": 0.5511811023622047
        },
        {
          "duration": 1.3333320000000022,
          "durationTicks": 1536,
          "midi": 66,
          "name": "F#4",
          "ticks": 24388,
          "time": 21.17011771875,
          "velocity": 0.5511811023622047
        },
        {
          "duration": 1.3333320000000022,
          "durationTicks": 1536,
          "midi": 61,
          "name": "C#4",
          "ticks": 24388,
          "time": 21.17011771875,
          "velocity": 0.5511811023622047
        },
        {
          "duration": 0.1475692968750053,
          "durationTicks": 170,
          "midi": 62,
          "name": "D4",
          "ticks": 26180,
          "time": 22.725671718749997,
          "velocity": 0.5669291338582677
        },
        {
          "duration": 0.1475692968750053,
          "durationTicks": 170,
          "midi": 57,
          "name": "A3",
          "ticks": 26180,
          "time": 22.725671718749997,
          "velocity": 0.5669291338582677
        },
        {
          "duration": 0.14583318749999918,
          "durationTicks": 168,
          "midi": 58,
          "name": "A#3",
          "ticks": 26560,
          "time": 23.0555325,
          "velocity": 0.5669291338582677
        },
        {
          "duration": 0.1475692968749982,
          "durationTicks": 170,
          "midi": 66,
          "name": "F#4",
          "ticks": 26562,
          "time": 23.057268609375,
          "velocity": 0.5669291338582677
        },
        {
          "duration": 0.47916618749999884,
          "durationTicks": 552,
          "midi": 66,
          "name": "F#4",
          "ticks": 26948,
          "time": 23.39233771875,
          "velocity": 0.5748031496062992
        },
        {
          "duration": 0.4756939687500008,
          "durationTicks": 548,
          "midi": 58,
          "name": "A#3",
          "ticks": 26948,
          "time": 23.39233771875,
          "velocity": 0.5748031496062992
        },
        {
          "duration": 0.22222200000000214,
          "durationTicks": 256,
          "midi": 62,
          "name": "D4",
          "ticks": 29376,
          "time": 25.4999745,
          "velocity": 0.5275590551181102
        },
        {
          "duration": 0.7812492187499984,
          "durationTicks": 900,
          "midi": 67,
          "name": "G4",
          "ticks": 29632,
          "time": 25.722196500000003,
          "velocity": 0.5748031496062992
        },
        {
          "duration": 0.10763878125000303,
          "durationTicks": 124,
          "midi": 69,
          "name": "A4",
          "ticks": 30788,
          "time": 26.725667718749996,
          "velocity": 0.5275590551181102
        },
        {
          "duration": 0.1145832187499991,
          "durationTicks": 132,
          "midi": 67,
          "name": "G4",
          "ticks": 30912,
          "time": 26.8333065,
          "velocity": 0.5275590551181102
        },
        {
          "duration": 0.10763878125000303,
          "durationTicks": 124,
          "midi": 69,
          "name": "A4",
          "ticks": 31044,
          "time": 26.947889718749998,
          "velocity": 0.5354330708661418
        },
        {
          "duration": 0.1145832187499991,
          "durationTicks": 132,
          "midi": 67,
          "name": "G4",
          "ticks": 31168,
          "time": 27.0555285,
          "velocity": 0.5433070866141733
        },
        {
          "duration": 0.10763878124999593,
          "durationTicks": 124,
          "midi": 70,
          "name": "A#4",
          "ticks": 31300,
          "time": 27.17011171875,
          "velocity": 0.5433070866141733
        },
        {
          "duration": 0.11458321875000266,
          "durationTicks": 132,
          "midi": 67,
          "name": "G4",
          "ticks": 31424,
          "time": 27.277750499999996,
          "velocity": 0.5511811023622047
        },
        {
          "duration": 0.10763878124999948,
          "durationTicks": 124,
          "midi": 69,
          "name": "A4",
          "ticks": 31556,
          "time": 27.39233371875,
          "velocity": 0.5590551181102362
        },
        {
          "duration": 0.22222200000000214,
          "durationTicks": 256,
          "midi": 67,
          "name": "G4",
          "ticks": 31680,
          "time": 27.4999725,
          "velocity": 0.5590551181102362
        },
        {
          "duration": 0.14583318749999918,
          "durationTicks": 168,
          "midi": 69,
          "name": "A4",
          "ticks": 31936,
          "time": 27.7221945,
          "velocity": 0.5748031496062992
        },
        {
          "duration": 0.14756929687500175,
          "durationTicks": 170,
          "midi": 66,
          "name": "F#4",
          "ticks": 32324,
          "time": 28.058999718749998,
          "velocity": 0.5275590551181102
        },
        {
          "duration": 0.11458321875000266,
          "durationTicks": 132,
          "midi": 69,
          "name": "A4",
          "ticks": 32704,
          "time": 28.3888605,
          "velocity": 0.5354330708661418
        },
        {
          "duration": 0.22222199999999503,
          "durationTicks": 256,
          "midi": 66,
          "name": "F#4",
          "ticks": 32836,
          "time": 28.503443718750002,
          "velocity": 0.5433070866141733
        },
        {
          "duration": 0.10763878125000303,
          "durationTicks": 124,
          "midi": 62,
          "name": "D4",
          "ticks": 33092,
          "time": 28.725665718749998,
          "velocity": 0.5511811023622047
        },
        {
          "duration": 0.2222219999999986,
          "durationTicks": 256,
          "midi": 59,
          "name": "B3",
          "ticks": 33216,
          "time": 28.8333045,
          "velocity": 0.5590551181102362
        },
        {
          "duration": 0.11458321875000266,
          "durationTicks": 132,
          "midi": 57,
          "name": "A3",
          "ticks": 33472,
          "time": 29.0555265,
          "velocity": 0.5669291338582677
        },
        {
          "duration": 0.9982628906249964,
          "durationTicks": 1150,
          "midi": 66,
          "name": "F#4",
          "ticks": 33604,
          "time": 29.170109718750002,
          "velocity": 0.5748031496062992
        },
        {
          "duration": 0.9965267812499974,
          "durationTicks": 1148,
          "midi": 59,
          "name": "B3",
          "ticks": 33604,
          "time": 29.170109718750002,
          "velocity": 0.5748031496062992
        },
        {
          "duration": 1.1111099999999965,
          "durationTicks": 1280,
          "midi": 59,
          "name": "B3",
          "ticks": 35008,
          "time": 30.3888585,
          "velocity": 0.5275590551181102
        },
        {
          "duration": 1.1111099999999965,
          "durationTicks": 1280,
          "midi": 66,
          "name": "F#4",
          "ticks": 35010,
          "time": 30.390594609375,
          "velocity": 0.5275590551181102
        },
        {
          "duration": 0.14583318749999918,
          "durationTicks": 168,
          "midi": 57,
          "name": "A3",
          "ticks": 36544,
          "time": 31.7221905,
          "velocity": 0.5433070866141733
        },
        {
          "duration": 0.1475692968749982,
          "durationTicks": 170,
          "midi": 66,
          "name": "F#4",
          "ticks": 36546,
          "time": 31.723926609375,
          "velocity": 0.5433070866141733
        },
        {
          "duration": 0.1475692968750053,
          "durationTicks": 170,
          "midi": 57,
          "name": "A3",
          "ticks": 36932,
          "time": 32.05899571875,
          "velocity": 0.5433070866141733
        },
        {
          "duration": 0.10763878125000303,
          "durationTicks": 124,
          "midi": 57,
          "name": "A3",
          "ticks": 38468,
          "time": 33.392327718749996,
          "velocity": 0.5590551181102362
        },
        {
          "duration": 0.22222200000000214,
          "durationTicks": 256,
          "midi": 55,
          "name": "G3",
          "ticks": 38592,
          "time": 33.4999665,
          "velocity": 0.5669291338582677
        },
        {
          "duration": 0.14583318749999563,
          "durationTicks": 168,
          "midi": 54,
          "name": "F#3",
          "ticks": 38848,
          "time": 33.7221885,
          "velocity": 0.5669291338582677
        },
        {
          "duration": 0.1475692968750053,
          "durationTicks": 170,
          "midi": 52,
          "name": "E3",
          "ticks": 39236,
          "time": 34.058993718749996,
          "velocity": 0.5748031496062992
        },
        {
          "duration": 0.40277737499999944,
          "durationTicks": 464,
          "midi": 74,
          "name": "D5",
          "ticks": 44614,
          "time": 38.727391828125,
          "velocity": 0.44881889763779526
        },
        {
          "duration": 0.02083331250000242,
          "durationTicks": 24,
          "midi": 73,
          "name": "C#5",
          "ticks": 45072,
          "time": 39.124960875,
          "velocity": 0.4645669291338583
        },
        {
          "duration": 0.020833312499995316,
          "durationTicks": 24,
          "midi": 72,
          "name": "C5",
          "ticks": 45096,
          "time": 39.1457941875,
          "velocity": 0.4645669291338583
        },
        {
          "duration": 0.22222200000000214,
          "durationTicks": 256,
          "midi": 71,
          "name": "B4",
          "ticks": 45126,
          "time": 39.171835828125,
          "velocity": 0.4645669291338583
        },
        {
          "duration": 0.10590267187500046,
          "durationTicks": 122,
          "midi": 69,
          "name": "A4",
          "ticks": 45382,
          "time": 39.394057828125,
          "velocity": 0.48031496062992124
        },
        {
          "duration": 0.22222200000000214,
          "durationTicks": 256,
          "midi": 66,
          "name": "F#4",
          "ticks": 45504,
          "time": 39.4999605,
          "velocity": 0.48031496062992124
        },
        {
          "duration": 0.14583318749999563,
          "durationTicks": 168,
          "midi": 62,
          "name": "D4",
          "ticks": 45760,
          "time": 39.7221825,
          "velocity": 0.49606299212598426
        },
        {
          "duration": 0.22222200000000214,
          "durationTicks": 256,
          "midi": 70,
          "name": "A#4",
          "ticks": 47808,
          "time": 41.4999585,
          "velocity": 0.44881889763779526
        },
        {
          "duration": 0.14583318750000274,
          "durationTicks": 168,
          "midi": 69,
          "name": "A4",
          "ticks": 48064,
          "time": 41.7221805,
          "velocity": 0.4645669291338583
        },
        {
          "duration": 0.1475692968749982,
          "durationTicks": 170,
          "midi": 57,
          "name": "A3",
          "ticks": 48454,
          "time": 42.060721828125,
          "velocity": 0.49606299212598426
        },
        {
          "duration": 0.1475692968750053,
          "durationTicks": 170,
          "midi": 66,
          "name": "F#4",
          "ticks": 56902,
          "time": 49.394047828125,
          "velocity": 0.44881889763779526
        },
        {
          "duration": 0.4444440000000043,
          "durationTicks": 512,
          "midi": 59,
          "name": "B3",
          "ticks": 57280,
          "time": 49.72217249999999,
          "velocity": 0.49606299212598426
        },
        {
          "duration": 1.777776000000003,
          "durationTicks": 2048,
          "midi": 74,
          "name": "D5",
          "ticks": 61510,
          "time": 53.39404382812499,
          "velocity": 0.49606299212598426
        },
        {
          "duration": 0.3767357343750035,
          "durationTicks": 434,
          "midi": 74,
          "name": "D5",
          "ticks": 69190,
          "time": 60.06070382812499,
          "velocity": 0.44881889763779526
        },
        {
          "duration": 0.03472218750000167,
          "durationTicks": 40,
          "midi": 73,
          "name": "C#5",
          "ticks": 69624,
          "time": 60.437439562499996,
          "velocity": 0.4645669291338583
        },
        {
          "duration": 0.031249968749996526,
          "durationTicks": 36,
          "midi": 72,
          "name": "C5",
          "ticks": 69664,
          "time": 60.47216175,
          "velocity": 0.4645669291338583
        },
        {
          "duration": 0.22222199999999503,
          "durationTicks": 256,
          "midi": 71,
          "name": "B4",
          "ticks": 69702,
          "time": 60.505147828125,
          "velocity": 0.4645669291338583
        },
        {
          "duration": 0.0989582343750044,
          "durationTicks": 114,
          "midi": 69,
          "name": "A4",
          "ticks": 69958,
          "time": 60.72736982812499,
          "velocity": 0.48031496062992124
        },
        {
          "duration": 0.22222200000000214,
          "durationTicks": 256,
          "midi": 66,
          "name": "F#4",
          "ticks": 70072,
          "time": 60.8263280625,
          "velocity": 0.48031496062992124
        },
        {
          "duration": 0.14583318750000274,
          "durationTicks": 168,
          "midi": 62,
          "name": "D4",
          "ticks": 70336,
          "time": 61.055494499999995,
          "velocity": 0.49606299212598426
        },
        {
          "duration": 0.22222199999999503,
          "durationTicks": 256,
          "midi": 70,
          "name": "A#4",
          "ticks": 72384,
          "time": 62.8332705,
          "velocity": 0.44881889763779526
        },
        {
          "duration": 0.14583318750000274,
          "durationTicks": 168,
          "midi": 69,
          "name": "A4",
          "ticks": 72640,
          "time": 63.05549249999999,
          "velocity": 0.4645669291338583
        },
        {
          "duration": 0.1475692968749982,
          "durationTicks": 170,
          "midi": 57,
          "name": "A3",
          "ticks": 73030,
          "time": 63.394033828124996,
          "velocity": 0.49606299212598426
        },
        {
          "duration": 0.1475692968750053,
          "durationTicks": 170,
          "midi": 66,
          "name": "F#4",
          "ticks": 81478,
          "time": 70.72735982812499,
          "velocity": 0.44881889763779526
        },
        {
          "duration": 0.4444440000000043,
          "durationTicks": 512,
          "midi": 59,
          "name": "B3",
          "ticks": 81856,
          "time": 71.05548449999999,
          "velocity": 0.49606299212598426
        },
        {
          "duration": 0.4444440000000043,
          "durationTicks": 512,
          "midi": 62,
          "name": "D4",
          "ticks": 86086,
          "time": 74.727355828125,
          "velocity": 0.5275590551181102
        },
        {
          "duration": 0.22222199999998793,
          "durationTicks": 256,
          "midi": 66,
          "name": "F#4",
          "ticks": 86598,
          "time": 75.171799828125,
          "velocity": 0.44881889763779526
        },
        {
          "duration": 0.10590267187500046,
          "durationTicks": 122,
          "midi": 69,
          "name": "A4",
          "ticks": 86854,
          "time": 75.39402182812499,
          "velocity": 0.4566929133858268
        },
        {
          "duration": 0.22222200000000214,
          "durationTicks": 256,
          "midi": 67,
          "name": "G4",
          "ticks": 86976,
          "time": 75.49992449999999,
          "velocity": 0.4566929133858268
        },
        {
          "duration": 0.11631932812500168,
          "durationTicks": 134,
          "midi": 66,
          "name": "F#4",
          "ticks": 87232,
          "time": 75.7221465,
          "velocity": 0.4645669291338583
        },
        {
          "duration": 0.22222200000000214,
          "durationTicks": 256,
          "midi": 62,
          "name": "D4",
          "ticks": 87366,
          "time": 75.838465828125,
          "velocity": 0.47244094488188976
        },
        {
          "duration": 0.1475692968750053,
          "durationTicks": 170,
          "midi": 57,
          "name": "A3",
          "ticks": 87622,
          "time": 76.060687828125,
          "velocity": 0.48031496062992124
        },
        {
          "duration": 0.7829853281249939,
          "durationTicks": 902,
          "midi": 57,
          "name": "A3",
          "ticks": 88000,
          "time": 76.3888125,
          "velocity": 0.49606299212598426
        },
        {
          "duration": 0.44444399999999007,
          "durationTicks": 512,
          "midi": 69,
          "name": "A4",
          "ticks": 92228,
          "time": 80.05894771875,
          "velocity": 0.44881889763779526
        },
        {
          "duration": 0.44444399999999007,
          "durationTicks": 512,
          "midi": 62,
          "name": "D4",
          "ticks": 92228,
          "time": 80.05894771875,
          "velocity": 0.44881889763779526
        },
        {
          "duration": 0.6666659999999922,
          "durationTicks": 768,
          "midi": 61,
          "name": "C#4",
          "ticks": 92740,
          "time": 80.50339171875,
          "velocity": 0.4566929133858268
        },
        {
          "duration": 0.6666659999999922,
          "durationTicks": 768,
          "midi": 67,
          "name": "G4",
          "ticks": 92740,
          "time": 80.50339171875,
          "velocity": 0.4566929133858268
        },
        {
          "duration": 0.6666660000000064,
          "durationTicks": 768,
          "midi": 66,
          "name": "F#4",
          "ticks": 93508,
          "time": 81.17005771874999,
          "velocity": 0.47244094488188976
        },
        {
          "duration": 0.6666660000000064,
          "durationTicks": 768,
          "midi": 59,
          "name": "B3",
          "ticks": 93508,
          "time": 81.17005771874999,
          "velocity": 0.47244094488188976
        },
        {
          "duration": 0.6666660000000064,
          "durationTicks": 768,
          "midi": 64,
          "name": "E4",
          "ticks": 94276,
          "time": 81.83672371875,
          "velocity": 0.49606299212598426
        },
        {
          "duration": 0.6666660000000064,
          "durationTicks": 768,
          "midi": 58,
          "name": "A#3",
          "ticks": 94276,
          "time": 81.83672371875,
          "velocity": 0.49606299212598426
        },
        {
          "duration": 0.44444399999999007,
          "durationTicks": 512,
          "midi": 57,
          "name": "A3",
          "ticks": 95300,
          "time": 82.72561171875,
          "velocity": 0.44881889763779526
        },
        {
          "duration": 0.44444399999999007,
          "durationTicks": 512,
          "midi": 62,
          "name": "D4",
          "ticks": 95300,
          "time": 82.72561171875,
          "velocity": 0.44881889763779526
        },
        {
          "duration": 1.999998000000005,
          "durationTicks": 2304,
          "midi": 62,
          "name": "D4",
          "ticks": 95812,
          "time": 83.17005571874999,
          "velocity": 0.4645669291338583
        },
        {
          "duration": 0.6666660000000064,
          "durationTicks": 768,
          "midi": 57,
          "name": "A3",
          "ticks": 95812,
          "time": 83.17005571874999,
          "velocity": 0.4645669291338583
        },
        {
          "duration": 1.3333319999999986,
          "durationTicks": 1536,
          "midi": 56,
          "name": "G#3",
          "ticks": 96580,
          "time": 83.83672171875,
          "velocity": 0.49606299212598426
        },
        {
          "duration": 0.4444440000000185,
          "durationTicks": 512,
          "midi": 55,
          "name": "G3",
          "ticks": 98372,
          "time": 85.39227571874999,
          "velocity": 0.44881889763779526
        },
        {
          "duration": 0.4444440000000185,
          "durationTicks": 512,
          "midi": 61,
          "name": "C#4",
          "ticks": 98372,
          "time": 85.39227571874999,
          "velocity": 0.44881889763779526
        },
        {
          "duration": 0.33159689062499353,
          "durationTicks": 382,
          "midi": 62,
          "name": "D4",
          "ticks": 98884,
          "time": 85.83671971875,
          "velocity": 0.48031496062992124
        },
        {
          "duration": 0.32986078124999096,
          "durationTicks": 380,
          "midi": 55,
          "name": "G3",
          "ticks": 98884,
          "time": 85.83671971875,
          "velocity": 0.48031496062992124
        },
        {
          "duration": 0.22222200000000214,
          "durationTicks": 256,
          "midi": 57,
          "name": "A3",
          "ticks": 99264,
          "time": 86.1665805,
          "velocity": 0.5039370078740157
        },
        {
          "duration": 0.22222200000000214,
          "durationTicks": 256,
          "midi": 63,
          "name": "D#4",
          "ticks": 99266,
          "time": 86.168316609375,
          "velocity": 0.5039370078740157
        },
        {
          "duration": 0.7812492187500055,
          "durationTicks": 900,
          "midi": 57,
          "name": "A3",
          "ticks": 99520,
          "time": 86.3888025,
          "velocity": 0.5196850393700787
        },
        {
          "duration": 0.779513109375003,
          "durationTicks": 898,
          "midi": 64,
          "name": "E4",
          "ticks": 99522,
          "time": 86.390538609375,
          "velocity": 0.5196850393700787
        },
        {
          "duration": 0.218749781249997,
          "durationTicks": 252,
          "midi": 64,
          "name": "E4",
          "ticks": 100420,
          "time": 87.17005171875,
          "velocity": 0.5748031496062992
        },
        {
          "duration": 0.22222199999998793,
          "durationTicks": 256,
          "midi": 71,
          "name": "B4",
          "ticks": 100420,
          "time": 87.17005171875,
          "velocity": 0.5748031496062992
        },
        {
          "duration": 0.4444440000000185,
          "durationTicks": 512,
          "midi": 64,
          "name": "E4",
          "ticks": 100676,
          "time": 87.39227371874999,
          "velocity": 0.48031496062992124
        },
        {
          "duration": 0.4444440000000185,
          "durationTicks": 512,
          "midi": 69,
          "name": "A4",
          "ticks": 100676,
          "time": 87.39227371874999,
          "velocity": 0.48031496062992124
        },
        {
          "duration": 0.07986103124999033,
          "durationTicks": 92,
          "midi": 71,
          "name": "B4",
          "ticks": 105976,
          "time": 91.99296356250001,
          "velocity": 0.44881889763779526
        },
        {
          "duration": 0.09374990624999668,
          "durationTicks": 108,
          "midi": 72,
          "name": "C5",
          "ticks": 106068,
          "time": 92.07282459375,
          "velocity": 0.44881889763779526
        },
        {
          "duration": 0.33680521875000125,
          "durationTicks": 388,
          "midi": 71,
          "name": "B4",
          "ticks": 106176,
          "time": 92.1665745,
          "velocity": 0.4566929133858268
        },
        {
          "duration": 0.07986103125000454,
          "durationTicks": 92,
          "midi": 71,
          "name": "B4",
          "ticks": 106564,
          "time": 92.50337971875,
          "velocity": 0.48031496062992124
        },
        {
          "duration": 0.0763888124999994,
          "durationTicks": 88,
          "midi": 72,
          "name": "C5",
          "ticks": 106656,
          "time": 92.58324075,
          "velocity": 0.4881889763779528
        },
        {
          "duration": 0.5104161562500025,
          "durationTicks": 588,
          "midi": 71,
          "name": "B4",
          "ticks": 106744,
          "time": 92.6596295625,
          "velocity": 0.49606299212598426
        },
        {
          "duration": 0.44444399999999007,
          "durationTicks": 512,
          "midi": 55,
          "name": "G3",
          "ticks": 114112,
          "time": 99.0554565,
          "velocity": 0.5590551181102362
        },
        {
          "duration": 0.4444440000000185,
          "durationTicks": 512,
          "midi": 55,
          "name": "G3",
          "ticks": 115268,
          "time": 100.05892771874998,
          "velocity": 0.6062992125984252
        },
        {
          "duration": 0.10763878125000303,
          "durationTicks": 124,
          "midi": 53,
          "name": "F3",
          "ticks": 118340,
          "time": 102.72559171875,
          "velocity": 0.5275590551181102
        },
        {
          "duration": 0.1093748906249914,
          "durationTicks": 126,
          "midi": 62,
          "name": "D4",
          "ticks": 118340,
          "time": 102.72559171875,
          "velocity": 0.5275590551181102
        },
        {
          "duration": 0.22222200000000214,
          "durationTicks": 256,
          "midi": 52,
          "name": "E3",
          "ticks": 118464,
          "time": 102.8332305,
          "velocity": 0.5433070866141733
        },
        {
          "duration": 0.22222200000001635,
          "durationTicks": 256,
          "midi": 63,
          "name": "D#4",
          "ticks": 118466,
          "time": 102.83496660937499,
          "velocity": 0.5433070866141733
        },
        {
          "duration": 0.44444399999999007,
          "durationTicks": 512,
          "midi": 53,
          "name": "F3",
          "ticks": 118720,
          "time": 103.0554525,
          "velocity": 0.5748031496062992
        },
        {
          "duration": 0.44444399999999007,
          "durationTicks": 512,
          "midi": 64,
          "name": "E4",
          "ticks": 118722,
          "time": 103.057188609375,
          "velocity": 0.5748031496062992
        },
        {
          "duration": 0.10763878125000303,
          "durationTicks": 124,
          "midi": 63,
          "name": "D#4",
          "ticks": 124484,
          "time": 108.05891971874999,
          "velocity": 0.44881889763779526
        },
        {
          "duration": 0.22222200000001635,
          "durationTicks": 256,
          "midi": 64,
          "name": "E4",
          "ticks": 124608,
          "time": 108.1665585,
          "velocity": 0.44881889763779526
        },
        {
          "duration": 0.1145832187499991,
          "durationTicks": 132,
          "midi": 69,
          "name": "A4",
          "ticks": 124864,
          "time": 108.38878050000001,
          "velocity": 0.4645669291338583
        },
        {
          "duration": 0.32986078124999096,
          "durationTicks": 380,
          "midi": 67,
          "name": "G4",
          "ticks": 124996,
          "time": 108.50336371875001,
          "velocity": 0.47244094488188976
        },
        {
          "duration": 0.20486090624999065,
          "durationTicks": 236,
          "midi": 69,
          "name": "A4",
          "ticks": 125376,
          "time": 108.8332245,
          "velocity": 0.49606299212598426
        },
        {
          "duration": 0.22222200000001635,
          "durationTicks": 256,
          "midi": 65,
          "name": "F4",
          "ticks": 127680,
          "time": 110.83322249999999,
          "velocity": 0.44881889763779526
        },
        {
          "duration": 0.1145832187499991,
          "durationTicks": 132,
          "midi": 69,
          "name": "A4",
          "ticks": 127936,
          "time": 111.05544450000001,
          "velocity": 0.4566929133858268
        },
        {
          "duration": 0.22222199999998793,
          "durationTicks": 256,
          "midi": 72,
          "name": "C5",
          "ticks": 128068,
          "time": 111.17002771875,
          "velocity": 0.4645669291338583
        },
        {
          "duration": 0.10763878125000303,
          "durationTicks": 124,
          "midi": 69,
          "name": "A4",
          "ticks": 128324,
          "time": 111.39224971875,
          "velocity": 0.47244094488188976
        },
        {
          "duration": 0.1145832187499991,
          "durationTicks": 132,
          "midi": 65,
          "name": "F4",
          "ticks": 128448,
          "time": 111.4998885,
          "velocity": 0.48031496062992124
        },
        {
          "duration": 0.10763878125000303,
          "durationTicks": 124,
          "midi": 64,
          "name": "E4",
          "ticks": 128580,
          "time": 111.61447171875,
          "velocity": 0.48031496062992124
        },
        {
          "duration": 0.1145832187499991,
          "durationTicks": 132,
          "midi": 62,
          "name": "D4",
          "ticks": 128704,
          "time": 111.7221105,
          "velocity": 0.4881889763779528
        },
        {
          "duration": 0.6666660000000064,
          "durationTicks": 768,
          "midi": 64,
          "name": "E4",
          "ticks": 128836,
          "time": 111.83669371875,
          "velocity": 0.49606299212598426
        },
        {
          "duration": 0.6666659999999922,
          "durationTicks": 768,
          "midi": 62,
          "name": "D4",
          "ticks": 142662,
          "time": 123.838417828125,
          "velocity": 0.44881889763779526
        },
        {
          "duration": 0.6666659999999922,
          "durationTicks": 768,
          "midi": 69,
          "name": "A4",
          "ticks": 142662,
          "time": 123.838417828125,
          "velocity": 0.44881889763779526
        },
        {
          "duration": 0.22222200000000214,
          "durationTicks": 256,
          "midi": 69,
          "name": "A4",
          "ticks": 143430,
          "time": 124.505083828125,
          "velocity": 0.48031496062992124
        },
        {
          "duration": 0.22222200000000214,
          "durationTicks": 256,
          "midi": 62,
          "name": "D4",
          "ticks": 143430,
          "time": 124.505083828125,
          "velocity": 0.48031496062992124
        },
        {
          "duration": 0.4444440000000043,
          "durationTicks": 512,
          "midi": 62,
          "name": "D4",
          "ticks": 143686,
          "time": 124.727305828125,
          "velocity": 0.49606299212598426
        },
        {
          "duration": 0.4444440000000043,
          "durationTicks": 512,
          "midi": 67,
          "name": "G4",
          "ticks": 143686,
          "time": 124.727305828125,
          "velocity": 0.49606299212598426
        },
        {
          "duration": 0.10763878124998882,
          "durationTicks": 124,
          "midi": 63,
          "name": "D#4",
          "ticks": 149060,
          "time": 129.39223171875,
          "velocity": 0.44881889763779526
        },
        {
          "duration": 0.22222200000001635,
          "durationTicks": 256,
          "midi": 64,
          "name": "E4",
          "ticks": 149184,
          "time": 129.4998705,
          "velocity": 0.44881889763779526
        },
        {
          "duration": 0.1145832187499991,
          "durationTicks": 132,
          "midi": 69,
          "name": "A4",
          "ticks": 149440,
          "time": 129.7220925,
          "velocity": 0.4645669291338583
        },
        {
          "duration": 0.3298607812500052,
          "durationTicks": 380,
          "midi": 67,
          "name": "G4",
          "ticks": 149572,
          "time": 129.83667571875,
          "velocity": 0.47244094488188976
        },
        {
          "duration": 0.20486090624999065,
          "durationTicks": 236,
          "midi": 69,
          "name": "A4",
          "ticks": 149952,
          "time": 130.1665365,
          "velocity": 0.49606299212598426
        },
        {
          "duration": 0.22222200000001635,
          "durationTicks": 256,
          "midi": 65,
          "name": "F4",
          "ticks": 152256,
          "time": 132.16653449999998,
          "velocity": 0.44881889763779526
        },
        {
          "duration": 0.1145832187499991,
          "durationTicks": 132,
          "midi": 69,
          "name": "A4",
          "ticks": 152512,
          "time": 132.3887565,
          "velocity": 0.4566929133858268
        },
        {
          "duration": 0.22222199999998793,
          "durationTicks": 256,
          "midi": 72,
          "name": "C5",
          "ticks": 152644,
          "time": 132.50333971875,
          "velocity": 0.4645669291338583
        },
        {
          "duration": 0.10763878125001725,
          "durationTicks": 124,
          "midi": 69,
          "name": "A4",
          "ticks": 152900,
          "time": 132.72556171875,
          "velocity": 0.47244094488188976
        },
        {
          "duration": 0.1145832187499991,
          "durationTicks": 132,
          "midi": 65,
          "name": "F4",
          "ticks": 153024,
          "time": 132.8332005,
          "velocity": 0.48031496062992124
        },
        {
          "duration": 0.10763878124998882,
          "durationTicks": 124,
          "midi": 64,
          "name": "E4",
          "ticks": 153156,
          "time": 132.94778371875,
          "velocity": 0.48031496062992124
        },
        {
          "duration": 0.1145832187499991,
          "durationTicks": 132,
          "midi": 62,
          "name": "D4",
          "ticks": 153280,
          "time": 133.0554225,
          "velocity": 0.4881889763779528
        },
        {
          "duration": 0.6666660000000206,
          "durationTicks": 768,
          "midi": 64,
          "name": "E4",
          "ticks": 153412,
          "time": 133.17000571875,
          "velocity": 0.49606299212598426
        },
        {
          "duration": 0.5520827812500215,
          "durationTicks": 636,
          "midi": 62,
          "name": "D4",
          "ticks": 167236,
          "time": 145.16999371875,
          "velocity": 0.44881889763779526
        },
        {
          "duration": 0.5538188906249957,
          "durationTicks": 638,
          "midi": 69,
          "name": "A4",
          "ticks": 167236,
          "time": 145.16999371875,
          "velocity": 0.44881889763779526
        },
        {
          "duration": 0.44444399999997586,
          "durationTicks": 512,
          "midi": 60,
          "name": "C4",
          "ticks": 167872,
          "time": 145.72207650000001,
          "velocity": 0.49606299212598426
        },
        {
          "duration": 0.4444440000000043,
          "durationTicks": 512,
          "midi": 67,
          "name": "G4",
          "ticks": 167874,
          "time": 145.723812609375,
          "velocity": 0.49606299212598426
        },
        {
          "duration": 0.4444440000000327,
          "durationTicks": 512,
          "midi": 60,
          "name": "C4",
          "ticks": 173636,
          "time": 150.72554371874998,
          "velocity": 0.44881889763779526
        },
        {
          "duration": 0.22222199999998793,
          "durationTicks": 256,
          "midi": 59,
          "name": "B3",
          "ticks": 174148,
          "time": 151.16998771875,
          "velocity": 0.4566929133858268
        },
        {
          "duration": 0.10763878124998882,
          "durationTicks": 124,
          "midi": 64,
          "name": "E4",
          "ticks": 174404,
          "time": 151.39220971875,
          "velocity": 0.4645669291338583
        },
        {
          "duration": 0.22222200000001635,
          "durationTicks": 256,
          "midi": 68,
          "name": "G#4",
          "ticks": 174528,
          "time": 151.49984849999998,
          "velocity": 0.4645669291338583
        },
        {
          "duration": 0.1145832187499991,
          "durationTicks": 132,
          "midi": 71,
          "name": "B4",
          "ticks": 174784,
          "time": 151.7220705,
          "velocity": 0.47244094488188976
        },
        {
          "duration": 0.22222199999998793,
          "durationTicks": 256,
          "midi": 69,
          "name": "A4",
          "ticks": 174916,
          "time": 151.83665371875,
          "velocity": 0.48031496062992124
        },
        {
          "duration": 0.10763878125001725,
          "durationTicks": 124,
          "midi": 64,
          "name": "E4",
          "ticks": 175172,
          "time": 152.05887571875,
          "velocity": 0.48031496062992124
        },
        {
          "duration": 0.22222199999998793,
          "durationTicks": 256,
          "midi": 64,
          "name": "E4",
          "ticks": 175296,
          "time": 152.1665145,
          "velocity": 0.4881889763779528
        },
        {
          "duration": 0.4444440000000043,
          "durationTicks": 512,
          "midi": 64,
          "name": "E4",
          "ticks": 175552,
          "time": 152.3887365,
          "velocity": 0.49606299212598426
        },
        {
          "duration": 0.10763878124998882,
          "durationTicks": 124,
          "midi": 60,
          "name": "C4",
          "ticks": 176708,
          "time": 153.39220771875,
          "velocity": 0.44881889763779526
        },
        {
          "duration": 0.22222200000001635,
          "durationTicks": 256,
          "midi": 62,
          "name": "D4",
          "ticks": 176832,
          "time": 153.4998465,
          "velocity": 0.4645669291338583
        },
        {
          "duration": 0.7812492187499913,
          "durationTicks": 900,
          "midi": 64,
          "name": "E4",
          "ticks": 177088,
          "time": 153.7220685,
          "velocity": 0.49606299212598426
        },
        {
          "duration": 0.4444440000000043,
          "durationTicks": 512,
          "midi": 55,
          "name": "G3",
          "ticks": 179780,
          "time": 156.05887171875,
          "velocity": 0.5590551181102362
        },
        {
          "duration": 0.4444440000000043,
          "durationTicks": 512,
          "midi": 55,
          "name": "G3",
          "ticks": 180548,
          "time": 156.72553771875,
          "velocity": 0.6062992125984252
        },
        {
          "duration": 0.1145832187499991,
          "durationTicks": 132,
          "midi": 67,
          "name": "G4",
          "ticks": 181440,
          "time": 157.4998425,
          "velocity": 0.44881889763779526
        },
        {
          "duration": 0.10763878124998882,
          "durationTicks": 124,
          "midi": 66,
          "name": "F#4",
          "ticks": 181572,
          "time": 157.61442571875,
          "velocity": 0.4645669291338583
        },
        {
          "duration": 0.11458321875002753,
          "durationTicks": 132,
          "midi": 65,
          "name": "F4",
          "ticks": 181696,
          "time": 157.7220645,
          "velocity": 0.48031496062992124
        },
        {
          "duration": 0.6666659999999922,
          "durationTicks": 768,
          "midi": 64,
          "name": "E4",
          "ticks": 181828,
          "time": 157.83664771875002,
          "velocity": 0.49606299212598426
        },
        {
          "duration": 0.1145832187499991,
          "durationTicks": 132,
          "midi": 67,
          "name": "G4",
          "ticks": 183232,
          "time": 159.0553965,
          "velocity": 0.44881889763779526
        },
        {
          "duration": 0.22222199999998793,
          "durationTicks": 256,
          "midi": 69,
          "name": "A4",
          "ticks": 183364,
          "time": 159.16997971875,
          "velocity": 0.4566929133858268
        },
        {
          "duration": 0.10763878125001725,
          "durationTicks": 124,
          "midi": 67,
          "name": "G4",
          "ticks": 183620,
          "time": 159.39220171875,
          "velocity": 0.47244094488188976
        },
        {
          "duration": 0.22222199999998793,
          "durationTicks": 256,
          "midi": 64,
          "name": "E4",
          "ticks": 183744,
          "time": 159.4998405,
          "velocity": 0.48031496062992124
        },
        {
          "duration": 0.14583318750001695,
          "durationTicks": 168,
          "midi": 62,
          "name": "D4",
          "ticks": 184000,
          "time": 159.7220625,
          "velocity": 0.49606299212598426
        },
        {
          "duration": 0.1145832187499991,
          "durationTicks": 132,
          "midi": 64,
          "name": "E4",
          "ticks": 184512,
          "time": 160.1665065,
          "velocity": 0.44881889763779526
        },
        {
          "duration": 0.10763878125001725,
          "durationTicks": 124,
          "midi": 65,
          "name": "F4",
          "ticks": 184644,
          "time": 160.28108971875,
          "velocity": 0.4566929133858268
        },
        {
          "duration": 0.1145832187499991,
          "durationTicks": 132,
          "midi": 67,
          "name": "G4",
          "ticks": 184768,
          "time": 160.3887285,
          "velocity": 0.4645669291338583
        },
        {
          "duration": 0.22222199999998793,
          "durationTicks": 256,
          "midi": 69,
          "name": "A4",
          "ticks": 184900,
          "time": 160.50331171875,
          "velocity": 0.47244094488188976
        },
        {
          "duration": 0.1475692968749911,
          "durationTicks": 170,
          "midi": 67,
          "name": "G4",
          "ticks": 185156,
          "time": 160.72553371875,
          "velocity": 0.49606299212598426
        },
        {
          "duration": 0.22222200000001635,
          "durationTicks": 256,
          "midi": 61,
          "name": "C#4",
          "ticks": 186048,
          "time": 161.49983849999998,
          "velocity": 0.44881889763779526
        },
        {
          "duration": 0.1145832187499991,
          "durationTicks": 132,
          "midi": 64,
          "name": "E4",
          "ticks": 186304,
          "time": 161.7220605,
          "velocity": 0.48031496062992124
        },
        {
          "duration": 0.2135414531250035,
          "durationTicks": 246,
          "midi": 67,
          "name": "G4",
          "ticks": 186436,
          "time": 161.83664371875,
          "velocity": 0.49606299212598426
        },
        {
          "duration": 0.3298607812500336,
          "durationTicks": 380,
          "midi": 69,
          "name": "A4",
          "ticks": 187460,
          "time": 162.72553171874998,
          "velocity": 0.44881889763779526
        },
        {
          "duration": 0.3298607812500052,
          "durationTicks": 380,
          "midi": 72,
          "name": "C5",
          "ticks": 188228,
          "time": 163.39219771875,
          "velocity": 0.49606299212598426
        },
        {
          "duration": 0.22222199999998793,
          "durationTicks": 256,
          "midi": 76,
          "name": "E5",
          "ticks": 188740,
          "time": 163.83664171875,
          "velocity": 0.44881889763779526
        },
        {
          "duration": 0.10763878125001725,
          "durationTicks": 124,
          "midi": 79,
          "name": "G5",
          "ticks": 188996,
          "time": 164.05886371875,
          "velocity": 0.4566929133858268
        },
        {
          "duration": 0.22222199999998793,
          "durationTicks": 256,
          "midi": 76,
          "name": "E5",
          "ticks": 189120,
          "time": 164.1665025,
          "velocity": 0.4566929133858268
        },
        {
          "duration": 0.1145832187499991,
          "durationTicks": 132,
          "midi": 69,
          "name": "A4",
          "ticks": 189376,
          "time": 164.3887245,
          "velocity": 0.4645669291338583
        },
        {
          "duration": 0.22222199999998793,
          "durationTicks": 256,
          "midi": 76,
          "name": "E5",
          "ticks": 189508,
          "time": 164.50330771875,
          "velocity": 0.47244094488188976
        },
        {
          "duration": 0.10763878125001725,
          "durationTicks": 124,
          "midi": 79,
          "name": "G5",
          "ticks": 189764,
          "time": 164.72552971874998,
          "velocity": 0.48031496062992124
        },
        {
          "duration": 0.22222200000001635,
          "durationTicks": 256,
          "midi": 76,
          "name": "E5",
          "ticks": 189888,
          "time": 164.8331685,
          "velocity": 0.48031496062992124
        },
        {
          "duration": 0.1145832187499991,
          "durationTicks": 132,
          "midi": 69,
          "name": "A4",
          "ticks": 190144,
          "time": 165.05539050000002,
          "velocity": 0.4881889763779528
        },
        {
          "duration": 1.9999979999999766,
          "durationTicks": 2304,
          "midi": 72,
          "name": "C5",
          "ticks": 190276,
          "time": 165.16997371875001,
          "velocity": 0.49606299212598426
        },
        {
          "duration": 0.1145832187499991,
          "durationTicks": 132,
          "midi": 53,
          "name": "F3",
          "ticks": 192960,
          "time": 167.4998325,
          "velocity": 0.5275590551181102
        },
        {
          "duration": 0.10763878125001725,
          "durationTicks": 124,
          "midi": 54,
          "name": "F#3",
          "ticks": 193092,
          "time": 167.61441571875,
          "velocity": 0.5433070866141733
        },
        {
          "duration": 0.1145832187499991,
          "durationTicks": 132,
          "midi": 55,
          "name": "G3",
          "ticks": 193216,
          "time": 167.7220545,
          "velocity": 0.5590551181102362
        },
        {
          "duration": 2.6666639999999973,
          "durationTicks": 3072,
          "midi": 56,
          "name": "G#3",
          "ticks": 193348,
          "time": 167.83663771875,
          "velocity": 0.5748031496062992
        },
        {
          "duration": 0.3333330000000103,
          "durationTicks": 384,
          "midi": 65,
          "name": "F4",
          "ticks": 201280,
          "time": 174.72204749999997,
          "velocity": 0.5275590551181102
        },
        {
          "duration": 0.20486090625001907,
          "durationTicks": 236,
          "midi": 62,
          "name": "D4",
          "ticks": 201664,
          "time": 175.05538049999998,
          "velocity": 0.5590551181102362
        },
        {
          "duration": 0.11111100000002239,
          "durationTicks": 128,
          "midi": 63,
          "name": "D#4",
          "ticks": 204352,
          "time": 177.38871149999997,
          "velocity": 0.44881889763779526
        },
        {
          "duration": 0.22222199999998793,
          "durationTicks": 256,
          "midi": 58,
          "name": "A#3",
          "ticks": 204480,
          "time": 177.4998225,
          "velocity": 0.4645669291338583
        },
        {
          "duration": 0.14583318749998853,
          "durationTicks": 168,
          "midi": 63,
          "name": "D#4",
          "ticks": 204736,
          "time": 177.72204449999998,
          "velocity": 0.49606299212598426
        },
        {
          "duration": 0.11111100000002239,
          "durationTicks": 128,
          "midi": 63,
          "name": "D#4",
          "ticks": 207424,
          "time": 180.05537549999997,
          "velocity": 0.44881889763779526
        },
        {
          "duration": 0.22222199999998793,
          "durationTicks": 256,
          "midi": 58,
          "name": "A#3",
          "ticks": 207552,
          "time": 180.1664865,
          "velocity": 0.4645669291338583
        },
        {
          "duration": 0.14583318750001695,
          "durationTicks": 168,
          "midi": 63,
          "name": "D#4",
          "ticks": 207808,
          "time": 180.38870849999998,
          "velocity": 0.49606299212598426
        },
        {
          "duration": 0.11111100000002239,
          "durationTicks": 128,
          "midi": 66,
          "name": "F#4",
          "ticks": 208960,
          "time": 181.38870749999998,
          "velocity": 0.44881889763779526
        },
        {
          "duration": 0.20486090624999065,
          "durationTicks": 236,
          "midi": 63,
          "name": "D#4",
          "ticks": 209088,
          "time": 181.4998185,
          "velocity": 0.44881889763779526
        },
        {
          "duration": 0.22222199999998793,
          "durationTicks": 256,
          "midi": 66,
          "name": "F#4",
          "ticks": 209472,
          "time": 181.83315149999999,
          "velocity": 0.47244094488188976
        },
        {
          "duration": 0.11111100000002239,
          "durationTicks": 128,
          "midi": 63,
          "name": "D#4",
          "ticks": 209728,
          "time": 182.05537349999997,
          "velocity": 0.4881889763779528
        },
        {
          "duration": 0.20486090625001907,
          "durationTicks": 236,
          "midi": 58,
          "name": "A#3",
          "ticks": 209856,
          "time": 182.1664845,
          "velocity": 0.49606299212598426
        },
        {
          "duration": 0.11111099999999396,
          "durationTicks": 128,
          "midi": 66,
          "name": "F#4",
          "ticks": 210496,
          "time": 182.7220395,
          "velocity": 0.44881889763779526
        },
        {
          "duration": 0.20486090625001907,
          "durationTicks": 236,
          "midi": 62,
          "name": "D4",
          "ticks": 210624,
          "time": 182.8331505,
          "velocity": 0.44881889763779526
        },
        {
          "duration": 0.22222199999998793,
          "durationTicks": 256,
          "midi": 66,
          "name": "F#4",
          "ticks": 211008,
          "time": 183.1664835,
          "velocity": 0.47244094488188976
        },
        {
          "duration": 0.11111100000002239,
          "durationTicks": 128,
          "midi": 62,
          "name": "D4",
          "ticks": 211264,
          "time": 183.3887055,
          "velocity": 0.4881889763779528
        },
        {
          "duration": 0.20486090624999065,
          "durationTicks": 236,
          "midi": 58,
          "name": "A#3",
          "ticks": 211392,
          "time": 183.4998165,
          "velocity": 0.49606299212598426
        },
        {
          "duration": 0.11111100000002239,
          "durationTicks": 128,
          "midi": 65,
          "name": "F4",
          "ticks": 212032,
          "time": 184.05537149999998,
          "velocity": 0.44881889763779526
        },
        {
          "duration": 0.20486090625001907,
          "durationTicks": 236,
          "midi": 61,
          "name": "C#4",
          "ticks": 212160,
          "time": 184.1664825,
          "velocity": 0.44881889763779526
        },
        {
          "duration": 0.22222199999998793,
          "durationTicks": 256,
          "midi": 65,
          "name": "F4",
          "ticks": 212544,
          "time": 184.49981549999998,
          "velocity": 0.47244094488188976
        },
        {
          "duration": 0.11111100000002239,
          "durationTicks": 128,
          "midi": 61,
          "name": "C#4",
          "ticks": 212800,
          "time": 184.72203749999997,
          "velocity": 0.4881889763779528
        },
        {
          "duration": 0.20486090625001907,
          "durationTicks": 236,
          "midi": 55,
          "name": "G3",
          "ticks": 212928,
          "time": 184.8331485,
          "velocity": 0.49606299212598426
        },
        {
          "duration": 1.1111099999999965,
          "durationTicks": 1280,
          "midi": 57,
          "name": "A3",
          "ticks": 213568,
          "time": 185.3887035,
          "velocity": 0.5275590551181102
        },
        {
          "duration": 1.111110000000025,
          "durationTicks": 1280,
          "midi": 64,
          "name": "E4",
          "ticks": 213570,
          "time": 185.390439609375,
          "velocity": 0.5275590551181102
        },
        {
          "duration": 2.3333310000000154,
          "durationTicks": 2688,
          "midi": 56,
          "name": "G#3",
          "ticks": 215104,
          "time": 186.72203549999998,
          "velocity": 0.5748031496062992
        },
        {
          "duration": 2.333330999999987,
          "durationTicks": 2688,
          "midi": 63,
          "name": "D#4",
          "ticks": 215106,
          "time": 186.723771609375,
          "velocity": 0.5748031496062992
        },
        {
          "duration": 0.11111099999999396,
          "durationTicks": 128,
          "midi": 68,
          "name": "G#4",
          "ticks": 218816,
          "time": 189.9442545,
          "velocity": 0.6062992125984252
        },
        {
          "duration": 0.11111099999999396,
          "durationTicks": 128,
          "midi": 67,
          "name": "G4",
          "ticks": 218944,
          "time": 190.0553655,
          "velocity": 0.6141732283464567
        },
        {
          "duration": 0.11111100000002239,
          "durationTicks": 128,
          "midi": 66,
          "name": "F#4",
          "ticks": 219072,
          "time": 190.1664765,
          "velocity": 0.6220472440944882
        },
        {
          "duration": 0.11111099999996554,
          "durationTicks": 128,
          "midi": 65,
          "name": "F4",
          "ticks": 219200,
          "time": 190.2775875,
          "velocity": 0.6299212598425197
        },
        {
          "duration": 0.11111100000002239,
          "durationTicks": 128,
          "midi": 64,
          "name": "E4",
          "ticks": 219328,
          "time": 190.38869849999998,
          "velocity": 0.6377952755905512
        },
        {
          "duration": 1.1666654999999935,
          "durationTicks": 1344,
          "midi": 56,
          "name": "G#3",
          "ticks": 219456,
          "time": 190.4998095,
          "velocity": 0.6535433070866141
        },
        {
          "duration": 1.1666654999999935,
          "durationTicks": 1344,
          "midi": 63,
          "name": "D#4",
          "ticks": 219458,
          "time": 190.501545609375,
          "velocity": 0.6535433070866141
        }
      ]
    },
    {
      "channel": 5,
      "controlChanges": {
        "0": [
          {
            "number": 0,
            "ticks": 424,
            "time": 0.3680551875,
            "value": 0
          }
        ],
        "6": [
          {
            "number": 6,
            "ticks": 1124,
            "time": 0.9756934687500001,
            "value": 0.015748031496062992
          },
          {
            "number": 6,
            "ticks": 1136,
            "time": 0.9861101250000001,
            "value": 0.5039370078740157
          }
        ],
        "7": [
          {
            "number": 7,
            "ticks": 428,
            "time": 0.37152740624999997,
            "value": 1
          }
        ],
        "10": [
          {
            "number": 10,
            "ticks": 432,
            "time": 0.374999625,
            "value": 0.3937007874015748
          }
        ],
        "11": [
          {
            "number": 11,
            "ticks": 436,
            "time": 0.37847184375000004,
            "value": 1
          },
          {
            "number": 11,
            "ticks": 61510,
            "time": 53.39404382812499,
            "value": 0.7874015748031497
          },
          {
            "number": 11,
            "ticks": 61556,
            "time": 53.43397434375,
            "value": 0.7952755905511811
          },
          {
            "number": 11,
            "ticks": 61604,
            "time": 53.47564096875,
            "value": 0.8031496062992126
          },
          {
            "number": 11,
            "ticks": 61650,
            "time": 53.515571484375,
            "value": 0.8110236220472441
          },
          {
            "number": 11,
            "ticks": 61698,
            "time": 53.557238109375,
            "value": 0.8188976377952756
          },
          {
            "number": 11,
            "ticks": 61744,
            "time": 53.597168624999995,
            "value": 0.8267716535433071
          },
          {
            "number": 11,
            "ticks": 61792,
            "time": 53.63883524999999,
            "value": 0.8346456692913385
          },
          {
            "number": 11,
            "ticks": 61840,
            "time": 53.680501875,
            "value": 0.84251968503937
          },
          {
            "number": 11,
            "ticks": 61886,
            "time": 53.720432390625,
            "value": 0.8503937007874016
          },
          {
            "number": 11,
            "ticks": 61934,
            "time": 53.762099015625004,
            "value": 0.8582677165354331
          },
          {
            "number": 11,
            "ticks": 61980,
            "time": 53.80202953125,
            "value": 0.8661417322834646
          },
          {
            "number": 11,
            "ticks": 62028,
            "time": 53.84369615625,
            "value": 0.8740157480314961
          },
          {
            "number": 11,
            "ticks": 62076,
            "time": 53.885362781249995,
            "value": 0.8818897637795275
          },
          {
            "number": 11,
            "ticks": 62122,
            "time": 53.925293296875,
            "value": 0.889763779527559
          },
          {
            "number": 11,
            "ticks": 62168,
            "time": 53.9652238125,
            "value": 0.8976377952755905
          },
          {
            "number": 11,
            "ticks": 62216,
            "time": 54.006890437500005,
            "value": 0.905511811023622
          },
          {
            "number": 11,
            "ticks": 62264,
            "time": 54.0485570625,
            "value": 0.9133858267716536
          },
          {
            "number": 11,
            "ticks": 62310,
            "time": 54.088487578125,
            "value": 0.9212598425196851
          },
          {
            "number": 11,
            "ticks": 62358,
            "time": 54.130154203124995,
            "value": 0.9291338582677166
          },
          {
            "number": 11,
            "ticks": 62404,
            "time": 54.17008471875,
            "value": 0.937007874015748
          },
          {
            "number": 11,
            "ticks": 62452,
            "time": 54.211751343749995,
            "value": 0.9448818897637795
          },
          {
            "number": 11,
            "ticks": 62500,
            "time": 54.25341796874999,
            "value": 0.952755905511811
          },
          {
            "number": 11,
            "ticks": 62546,
            "time": 54.293348484375,
            "value": 0.9606299212598425
          },
          {
            "number": 11,
            "ticks": 62594,
            "time": 54.335015109375,
            "value": 0.968503937007874
          },
          {
            "number": 11,
            "ticks": 62640,
            "time": 54.374945624999995,
            "value": 0.9763779527559056
          },
          {
            "number": 11,
            "ticks": 62688,
            "time": 54.41661225,
            "value": 0.984251968503937
          },
          {
            "number": 11,
            "ticks": 62736,
            "time": 54.458278875,
            "value": 0.9921259842519685
          },
          {
            "number": 11,
            "ticks": 62782,
            "time": 54.49820939062499,
            "value": 1
          },
          {
            "number": 11,
            "ticks": 62818,
            "time": 54.529459359375,
            "value": 0.9921259842519685
          },
          {
            "number": 11,
            "ticks": 62854,
            "time": 54.56070932812499,
            "value": 0.9763779527559056
          },
          {
            "number": 11,
            "ticks": 62890,
            "time": 54.591959296875,
            "value": 0.9606299212598425
          },
          {
            "number": 11,
            "ticks": 62926,
            "time": 54.62320926562499,
            "value": 0.952755905511811
          },
          {
            "number": 11,
            "ticks": 62962,
            "time": 54.654459234375,
            "value": 0.937007874015748
          },
          {
            "number": 11,
            "ticks": 62998,
            "time": 54.68570920312499,
            "value": 0.9212598425196851
          },
          {
            "number": 11,
            "ticks": 63034,
            "time": 54.716959171875,
            "value": 0.9133858267716536
          },
          {
            "number": 11,
            "ticks": 63070,
            "time": 54.74820914062499,
            "value": 0.8976377952755905
          },
          {
            "number": 11,
            "ticks": 63106,
            "time": 54.779459109375,
            "value": 0.8818897637795275
          },
          {
            "number": 11,
            "ticks": 63142,
            "time": 54.810709078124994,
            "value": 0.8740157480314961
          },
          {
            "number": 11,
            "ticks": 63178,
            "time": 54.841959046875,
            "value": 0.8582677165354331
          },
          {
            "number": 11,
            "ticks": 63214,
            "time": 54.873209015624994,
            "value": 0.84251968503937
          },
          {
            "number": 11,
            "ticks": 63250,
            "time": 54.904458984375,
            "value": 0.8346456692913385
          },
          {
            "number": 11,
            "ticks": 63286,
            "time": 54.935708953124994,
            "value": 0.8188976377952756
          },
          {
            "number": 11,
            "ticks": 63322,
            "time": 54.966958921875,
            "value": 0.8031496062992126
          },
          {
            "number": 11,
            "ticks": 63358,
            "time": 54.998208890624994,
            "value": 0.7874015748031497
          },
          {
            "number": 11,
            "ticks": 213568,
            "time": 185.3887035,
            "value": 0.7874015748031497
          },
          {
            "number": 11,
            "ticks": 213652,
            "time": 185.46162009374999,
            "value": 0.7952755905511811
          },
          {
            "number": 11,
            "ticks": 213734,
            "time": 185.532800578125,
            "value": 0.8031496062992126
          },
          {
            "number": 11,
            "ticks": 213816,
            "time": 185.6039810625,
            "value": 0.8110236220472441
          },
          {
            "number": 11,
            "ticks": 213900,
            "time": 185.67689765625,
            "value": 0.8188976377952756
          },
          {
            "number": 11,
            "ticks": 213982,
            "time": 185.74807814062498,
            "value": 0.8267716535433071
          },
          {
            "number": 11,
            "ticks": 214066,
            "time": 185.82099473437498,
            "value": 0.8346456692913385
          },
          {
            "number": 11,
            "ticks": 214148,
            "time": 185.89217521875,
            "value": 0.84251968503937
          },
          {
            "number": 11,
            "ticks": 214232,
            "time": 185.96509181250002,
            "value": 0.8503937007874016
          },
          {
            "number": 11,
            "ticks": 214314,
            "time": 186.03627229687498,
            "value": 0.8582677165354331
          },
          {
            "number": 11,
            "ticks": 214396,
            "time": 186.10745278124998,
            "value": 0.8661417322834646
          },
          {
            "number": 11,
            "ticks": 214480,
            "time": 186.18036937499997,
            "value": 0.8740157480314961
          },
          {
            "number": 11,
            "ticks": 214562,
            "time": 186.25154985937502,
            "value": 0.8818897637795275
          },
          {
            "number": 11,
            "ticks": 214644,
            "time": 186.32273034374998,
            "value": 0.889763779527559
          },
          {
            "number": 11,
            "ticks": 214728,
            "time": 186.3956469375,
            "value": 0.8976377952755905
          },
          {
            "number": 11,
            "ticks": 214810,
            "time": 186.466827421875,
            "value": 0.905511811023622
          },
          {
            "number": 11,
            "ticks": 214894,
            "time": 186.539744015625,
            "value": 0.9133858267716536
          },
          {
            "number": 11,
            "ticks": 214976,
            "time": 186.6109245,
            "value": 0.9212598425196851
          },
          {
            "number": 11,
            "ticks": 215060,
            "time": 186.68384109375,
            "value": 0.9291338582677166
          },
          {
            "number": 11,
            "ticks": 215142,
            "time": 186.755021578125,
            "value": 0.937007874015748
          },
          {
            "number": 11,
            "ticks": 215224,
            "time": 186.8262020625,
            "value": 0.9448818897637795
          },
          {
            "number": 11,
            "ticks": 215308,
            "time": 186.89911865624998,
            "value": 0.952755905511811
          },
          {
            "number": 11,
            "ticks": 215390,
            "time": 186.970299140625,
            "value": 0.9606299212598425
          },
          {
            "number": 11,
            "ticks": 215472,
            "time": 187.041479625,
            "value": 0.968503937007874
          },
          {
            "number": 11,
            "ticks": 215556,
            "time": 187.11439621875,
            "value": 0.9763779527559056
          },
          {
            "number": 11,
            "ticks": 215638,
            "time": 187.18557670312498,
            "value": 0.984251968503937
          },
          {
            "number": 11,
            "ticks": 215722,
            "time": 187.25849329687497,
            "value": 0.9921259842519685
          },
          {
            "number": 11,
            "ticks": 215804,
            "time": 187.32967378125,
            "value": 1
          },
          {
            "number": 11,
            "ticks": 216380,
            "time": 187.82967328125,
            "value": 0.7874015748031497
          }
        ],
        "32": [
          {
            "number": 32,
            "ticks": 424,
            "time": 0.3680551875,
            "value": 0
          }
        ],
        "91": [
          {
            "number": 91,
            "ticks": 440,
            "time": 0.38194406249999996,
            "value": 0.7086614173228346
          }
        ],
        "93": [
          {
            "number": 93,
            "ticks": 444,
            "time": 0.38541628125,
            "value": 0
          }
        ],
        "100": [
          {
            "number": 100,
            "ticks": 1120,
            "time": 0.9722212499999999,
            "value": 0
          },
          {
            "number": 100,
            "ticks": 1132,
            "time": 0.9826379062499999,
            "value": 0.015748031496062992
          },
          {
            "number": 100,
            "ticks": 1144,
            "time": 0.9930545624999999,
            "value": 1
          }
        ],
        "101": [
          {
            "number": 101,
            "ticks": 1116,
            "time": 0.96874903125,
            "value": 0
          },
          {
            "number": 101,
            "ticks": 1128,
            "time": 0.9791656875,
            "value": 0
          },
          {
            "number": 101,
            "ticks": 1140,
            "time": 0.98958234375,
            "value": 1
          }
        ],
        "121": [
          {
            "number": 121,
            "ticks": 212,
            "time": 0.18402759375,
            "value": 0
          }
        ]
      },
      "pitchBends": [],
      "instrument": {
        "family": "reed",
        "name": "tenor sax",
        "number": 66
      },
      "name": "",
      "notes": [
        {
          "duration": 0.20486090624999775,
          "durationTicks": 236,
          "midi": 61,
          "name": "C#4",
          "ticks": 20928,
          "time": 18.1666485,
          "velocity": 0.5275590551181102
        },
        {
          "duration": 0.20659701562499677,
          "durationTicks": 238,
          "midi": 67,
          "name": "G4",
          "ticks": 20928,
          "time": 18.1666485,
          "velocity": 0.5275590551181102
        },
        {
          "duration": 0.6666659999999993,
          "durationTicks": 768,
          "midi": 63,
          "name": "D#4",
          "ticks": 21316,
          "time": 18.50345371875,
          "velocity": 0.5275590551181102
        },
        {
          "duration": 0.6666659999999993,
          "durationTicks": 768,
          "midi": 70,
          "name": "A#4",
          "ticks": 21316,
          "time": 18.50345371875,
          "velocity": 0.5275590551181102
        },
        {
          "duration": 0.6666659999999993,
          "durationTicks": 768,
          "midi": 63,
          "name": "D#4",
          "ticks": 22084,
          "time": 19.170119718749998,
          "velocity": 0.5354330708661418
        },
        {
          "duration": 0.6666659999999993,
          "durationTicks": 768,
          "midi": 70,
          "name": "A#4",
          "ticks": 22084,
          "time": 19.170119718749998,
          "velocity": 0.5354330708661418
        },
        {
          "duration": 0.21354145312499995,
          "durationTicks": 246,
          "midi": 63,
          "name": "D#4",
          "ticks": 22852,
          "time": 19.836785718749997,
          "velocity": 0.5354330708661418
        },
        {
          "duration": 0.21527756250000252,
          "durationTicks": 248,
          "midi": 70,
          "name": "A#4",
          "ticks": 22852,
          "time": 19.836785718749997,
          "velocity": 0.5354330708661418
        },
        {
          "duration": 0.6666659999999993,
          "durationTicks": 768,
          "midi": 68,
          "name": "G#4",
          "ticks": 23232,
          "time": 20.1666465,
          "velocity": 0.5433070866141733
        },
        {
          "duration": 0.6666659999999993,
          "durationTicks": 768,
          "midi": 62,
          "name": "D4",
          "ticks": 23232,
          "time": 20.1666465,
          "velocity": 0.5433070866141733
        },
        {
          "duration": 0.20659701562500032,
          "durationTicks": 238,
          "midi": 65,
          "name": "F4",
          "ticks": 24000,
          "time": 20.833312499999998,
          "velocity": 0.5511811023622047
        },
        {
          "duration": 0.2048609062500013,
          "durationTicks": 236,
          "midi": 60,
          "name": "C4",
          "ticks": 24000,
          "time": 20.833312499999998,
          "velocity": 0.5511811023622047
        },
        {
          "duration": 1.3333320000000022,
          "durationTicks": 1536,
          "midi": 58,
          "name": "A#3",
          "ticks": 24388,
          "time": 21.17011771875,
          "velocity": 0.5511811023622047
        },
        {
          "duration": 1.3333320000000022,
          "durationTicks": 1536,
          "midi": 63,
          "name": "D#4",
          "ticks": 24388,
          "time": 21.17011771875,
          "velocity": 0.5511811023622047
        },
        {
          "duration": 0.1475692968750053,
          "durationTicks": 170,
          "midi": 54,
          "name": "F#3",
          "ticks": 26180,
          "time": 22.725671718749997,
          "velocity": 0.5669291338582677
        },
        {
          "duration": 0.1475692968750053,
          "durationTicks": 170,
          "midi": 59,
          "name": "B3",
          "ticks": 26180,
          "time": 22.725671718749997,
          "velocity": 0.5669291338582677
        },
        {
          "duration": 0.14583318749999918,
          "durationTicks": 168,
          "midi": 55,
          "name": "G3",
          "ticks": 26560,
          "time": 23.0555325,
          "velocity": 0.5669291338582677
        },
        {
          "duration": 0.1475692968749982,
          "durationTicks": 170,
          "midi": 61,
          "name": "C#4",
          "ticks": 26560,
          "time": 23.0555325,
          "velocity": 0.5669291338582677
        },
        {
          "duration": 0.4756939687500008,
          "durationTicks": 548,
          "midi": 55,
          "name": "G3",
          "ticks": 26948,
          "time": 23.39233771875,
          "velocity": 0.5748031496062992
        },
        {
          "duration": 0.4774300781249998,
          "durationTicks": 550,
          "midi": 61,
          "name": "C#4",
          "ticks": 26948,
          "time": 23.39233771875,
          "velocity": 0.5748031496062992
        },
        {
          "duration": 0.22222200000000214,
          "durationTicks": 256,
          "midi": 62,
          "name": "D4",
          "ticks": 29376,
          "time": 25.4999745,
          "velocity": 0.5275590551181102
        },
        {
          "duration": 0.7812492187499984,
          "durationTicks": 900,
          "midi": 67,
          "name": "G4",
          "ticks": 29632,
          "time": 25.722196500000003,
          "velocity": 0.5748031496062992
        },
        {
          "duration": 0.10763878125000303,
          "durationTicks": 124,
          "midi": 69,
          "name": "A4",
          "ticks": 30788,
          "time": 26.725667718749996,
          "velocity": 0.5275590551181102
        },
        {
          "duration": 0.1145832187499991,
          "durationTicks": 132,
          "midi": 67,
          "name": "G4",
          "ticks": 30912,
          "time": 26.8333065,
          "velocity": 0.5275590551181102
        },
        {
          "duration": 0.10763878125000303,
          "durationTicks": 124,
          "midi": 69,
          "name": "A4",
          "ticks": 31044,
          "time": 26.947889718749998,
          "velocity": 0.5354330708661418
        },
        {
          "duration": 0.1145832187499991,
          "durationTicks": 132,
          "midi": 67,
          "name": "G4",
          "ticks": 31168,
          "time": 27.0555285,
          "velocity": 0.5433070866141733
        },
        {
          "duration": 0.10763878124999593,
          "durationTicks": 124,
          "midi": 70,
          "name": "A#4",
          "ticks": 31300,
          "time": 27.17011171875,
          "velocity": 0.5433070866141733
        },
        {
          "duration": 0.11458321875000266,
          "durationTicks": 132,
          "midi": 67,
          "name": "G4",
          "ticks": 31424,
          "time": 27.277750499999996,
          "velocity": 0.5511811023622047
        },
        {
          "duration": 0.10763878124999948,
          "durationTicks": 124,
          "midi": 69,
          "name": "A4",
          "ticks": 31556,
          "time": 27.39233371875,
          "velocity": 0.5590551181102362
        },
        {
          "duration": 0.22222200000000214,
          "durationTicks": 256,
          "midi": 67,
          "name": "G4",
          "ticks": 31680,
          "time": 27.4999725,
          "velocity": 0.5590551181102362
        },
        {
          "duration": 0.14583318749999918,
          "durationTicks": 168,
          "midi": 69,
          "name": "A4",
          "ticks": 31936,
          "time": 27.7221945,
          "velocity": 0.5748031496062992
        },
        {
          "duration": 0.14756929687500175,
          "durationTicks": 170,
          "midi": 66,
          "name": "F#4",
          "ticks": 32324,
          "time": 28.058999718749998,
          "velocity": 0.5275590551181102
        },
        {
          "duration": 0.11458321875000266,
          "durationTicks": 132,
          "midi": 69,
          "name": "A4",
          "ticks": 32704,
          "time": 28.3888605,
          "velocity": 0.5354330708661418
        },
        {
          "duration": 0.22222199999999503,
          "durationTicks": 256,
          "midi": 66,
          "name": "F#4",
          "ticks": 32836,
          "time": 28.503443718750002,
          "velocity": 0.5433070866141733
        },
        {
          "duration": 0.10763878125000303,
          "durationTicks": 124,
          "midi": 62,
          "name": "D4",
          "ticks": 33092,
          "time": 28.725665718749998,
          "velocity": 0.5511811023622047
        },
        {
          "duration": 0.2222219999999986,
          "durationTicks": 256,
          "midi": 59,
          "name": "B3",
          "ticks": 33216,
          "time": 28.8333045,
          "velocity": 0.5590551181102362
        },
        {
          "duration": 0.11458321875000266,
          "durationTicks": 132,
          "midi": 57,
          "name": "A3",
          "ticks": 33472,
          "time": 29.0555265,
          "velocity": 0.5669291338582677
        },
        {
          "duration": 0.9965267812499974,
          "durationTicks": 1148,
          "midi": 62,
          "name": "D4",
          "ticks": 33604,
          "time": 29.170109718750002,
          "velocity": 0.5748031496062992
        },
        {
          "duration": 0.9965267812499974,
          "durationTicks": 1148,
          "midi": 56,
          "name": "G#3",
          "ticks": 33604,
          "time": 29.170109718750002,
          "velocity": 0.5748031496062992
        },
        {
          "duration": 1.1111099999999965,
          "durationTicks": 1280,
          "midi": 62,
          "name": "D4",
          "ticks": 35008,
          "time": 30.3888585,
          "velocity": 0.5275590551181102
        },
        {
          "duration": 1.1111099999999965,
          "durationTicks": 1280,
          "midi": 56,
          "name": "G#3",
          "ticks": 35008,
          "time": 30.3888585,
          "velocity": 0.5275590551181102
        },
        {
          "duration": 0.14583318749999918,
          "durationTicks": 168,
          "midi": 55,
          "name": "G3",
          "ticks": 36544,
          "time": 31.7221905,
          "velocity": 0.5433070866141733
        },
        {
          "duration": 0.1475692968749982,
          "durationTicks": 170,
          "midi": 61,
          "name": "C#4",
          "ticks": 36544,
          "time": 31.7221905,
          "velocity": 0.5433070866141733
        },
        {
          "duration": 0.1475692968750053,
          "durationTicks": 170,
          "midi": 57,
          "name": "A3",
          "ticks": 36932,
          "time": 32.05899571875,
          "velocity": 0.5433070866141733
        },
        {
          "duration": 0.10763878125000303,
          "durationTicks": 124,
          "midi": 57,
          "name": "A3",
          "ticks": 38468,
          "time": 33.392327718749996,
          "velocity": 0.5590551181102362
        },
        {
          "duration": 0.22222200000000214,
          "durationTicks": 256,
          "midi": 55,
          "name": "G3",
          "ticks": 38592,
          "time": 33.4999665,
          "velocity": 0.5669291338582677
        },
        {
          "duration": 0.14583318749999563,
          "durationTicks": 168,
          "midi": 54,
          "name": "F#3",
          "ticks": 38848,
          "time": 33.7221885,
          "velocity": 0.5669291338582677
        },
        {
          "duration": 0.1475692968750053,
          "durationTicks": 170,
          "midi": 52,
          "name": "E3",
          "ticks": 39236,
          "time": 34.058993718749996,
          "velocity": 0.5748031496062992
        },
        {
          "duration": 0.40277737499999944,
          "durationTicks": 464,
          "midi": 74,
          "name": "D5",
          "ticks": 44614,
          "time": 38.727391828125,
          "velocity": 0.44881889763779526
        },
        {
          "duration": 0.02083331250000242,
          "durationTicks": 24,
          "midi": 73,
          "name": "C#5",
          "ticks": 45072,
          "time": 39.124960875,
          "velocity": 0.4645669291338583
        },
        {
          "duration": 0.020833312499995316,
          "durationTicks": 24,
          "midi": 72,
          "name": "C5",
          "ticks": 45096,
          "time": 39.1457941875,
          "velocity": 0.4645669291338583
        },
        {
          "duration": 0.22222200000000214,
          "durationTicks": 256,
          "midi": 71,
          "name": "B4",
          "ticks": 45126,
          "time": 39.171835828125,
          "velocity": 0.4645669291338583
        },
        {
          "duration": 0.10590267187500046,
          "durationTicks": 122,
          "midi": 69,
          "name": "A4",
          "ticks": 45382,
          "time": 39.394057828125,
          "velocity": 0.48031496062992124
        },
        {
          "duration": 0.22222200000000214,
          "durationTicks": 256,
          "midi": 66,
          "name": "F#4",
          "ticks": 45504,
          "time": 39.4999605,
          "velocity": 0.48031496062992124
        },
        {
          "duration": 0.14583318749999563,
          "durationTicks": 168,
          "midi": 62,
          "name": "D4",
          "ticks": 45760,
          "time": 39.7221825,
          "velocity": 0.49606299212598426
        },
        {
          "duration": 0.22222200000000214,
          "durationTicks": 256,
          "midi": 70,
          "name": "A#4",
          "ticks": 47808,
          "time": 41.4999585,
          "velocity": 0.44881889763779526
        },
        {
          "duration": 0.14583318750000274,
          "durationTicks": 168,
          "midi": 69,
          "name": "A4",
          "ticks": 48064,
          "time": 41.7221805,
          "velocity": 0.4645669291338583
        },
        {
          "duration": 0.1475692968749982,
          "durationTicks": 170,
          "midi": 57,
          "name": "A3",
          "ticks": 48454,
          "time": 42.060721828125,
          "velocity": 0.49606299212598426
        },
        {
          "duration": 0.1475692968750053,
          "durationTicks": 170,
          "midi": 66,
          "name": "F#4",
          "ticks": 56902,
          "time": 49.394047828125,
          "velocity": 0.44881889763779526
        },
        {
          "duration": 0.4444440000000043,
          "durationTicks": 512,
          "midi": 59,
          "name": "B3",
          "ticks": 57280,
          "time": 49.72217249999999,
          "velocity": 0.49606299212598426
        },
        {
          "duration": 1.777776000000003,
          "durationTicks": 2048,
          "midi": 74,
          "name": "D5",
          "ticks": 61510,
          "time": 53.39404382812499,
          "velocity": 0.49606299212598426
        },
        {
          "duration": 0.3767357343750035,
          "durationTicks": 434,
          "midi": 74,
          "name": "D5",
          "ticks": 69190,
          "time": 60.06070382812499,
          "velocity": 0.44881889763779526
        },
        {
          "duration": 0.03472218750000167,
          "durationTicks": 40,
          "midi": 73,
          "name": "C#5",
          "ticks": 69624,
          "time": 60.437439562499996,
          "velocity": 0.4645669291338583
        },
        {
          "duration": 0.031249968749996526,
          "durationTicks": 36,
          "midi": 72,
          "name": "C5",
          "ticks": 69664,
          "time": 60.47216175,
          "velocity": 0.4645669291338583
        },
        {
          "duration": 0.22222199999999503,
          "durationTicks": 256,
          "midi": 71,
          "name": "B4",
          "ticks": 69702,
          "time": 60.505147828125,
          "velocity": 0.4645669291338583
        },
        {
          "duration": 0.0989582343750044,
          "durationTicks": 114,
          "midi": 69,
          "name": "A4",
          "ticks": 69958,
          "time": 60.72736982812499,
          "velocity": 0.48031496062992124
        },
        {
          "duration": 0.22222200000000214,
          "durationTicks": 256,
          "midi": 66,
          "name": "F#4",
          "ticks": 70072,
          "time": 60.8263280625,
          "velocity": 0.48031496062992124
        },
        {
          "duration": 0.14583318750000274,
          "durationTicks": 168,
          "midi": 62,
          "name": "D4",
          "ticks": 70336,
          "time": 61.055494499999995,
          "velocity": 0.49606299212598426
        },
        {
          "duration": 0.22222199999999503,
          "durationTicks": 256,
          "midi": 70,
          "name": "A#4",
          "ticks": 72384,
          "time": 62.8332705,
          "velocity": 0.44881889763779526
        },
        {
          "duration": 0.14583318750000274,
          "durationTicks": 168,
          "midi": 69,
          "name": "A4",
          "ticks": 72640,
          "time": 63.05549249999999,
          "velocity": 0.4645669291338583
        },
        {
          "duration": 0.1475692968749982,
          "durationTicks": 170,
          "midi": 57,
          "name": "A3",
          "ticks": 73030,
          "time": 63.394033828124996,
          "velocity": 0.49606299212598426
        },
        {
          "duration": 0.1475692968750053,
          "durationTicks": 170,
          "midi": 66,
          "name": "F#4",
          "ticks": 81478,
          "time": 70.72735982812499,
          "velocity": 0.44881889763779526
        },
        {
          "duration": 0.4444440000000043,
          "durationTicks": 512,
          "midi": 59,
          "name": "B3",
          "ticks": 81856,
          "time": 71.05548449999999,
          "velocity": 0.49606299212598426
        },
        {
          "duration": 0.4444440000000043,
          "durationTicks": 512,
          "midi": 62,
          "name": "D4",
          "ticks": 86086,
          "time": 74.727355828125,
          "velocity": 0.5275590551181102
        },
        {
          "duration": 0.22222199999998793,
          "durationTicks": 256,
          "midi": 66,
          "name": "F#4",
          "ticks": 86598,
          "time": 75.171799828125,
          "velocity": 0.44881889763779526
        },
        {
          "duration": 0.10590267187500046,
          "durationTicks": 122,
          "midi": 69,
          "name": "A4",
          "ticks": 86854,
          "time": 75.39402182812499,
          "velocity": 0.4566929133858268
        },
        {
          "duration": 0.22222200000000214,
          "durationTicks": 256,
          "midi": 67,
          "name": "G4",
          "ticks": 86976,
          "time": 75.49992449999999,
          "velocity": 0.4566929133858268
        },
        {
          "duration": 0.11631932812500168,
          "durationTicks": 134,
          "midi": 66,
          "name": "F#4",
          "ticks": 87232,
          "time": 75.7221465,
          "velocity": 0.4645669291338583
        },
        {
          "duration": 0.22222200000000214,
          "durationTicks": 256,
          "midi": 62,
          "name": "D4",
          "ticks": 87366,
          "time": 75.838465828125,
          "velocity": 0.47244094488188976
        },
        {
          "duration": 0.1475692968750053,
          "durationTicks": 170,
          "midi": 57,
          "name": "A3",
          "ticks": 87622,
          "time": 76.060687828125,
          "velocity": 0.48031496062992124
        },
        {
          "duration": 0.7829853281249939,
          "durationTicks": 902,
          "midi": 57,
          "name": "A3",
          "ticks": 88000,
          "time": 76.3888125,
          "velocity": 0.49606299212598426
        },
        {
          "duration": 0.44444399999999007,
          "durationTicks": 512,
          "midi": 59,
          "name": "B3",
          "ticks": 92228,
          "time": 80.05894771875,
          "velocity": 0.44881889763779526
        },
        {
          "duration": 0.44444399999999007,
          "durationTicks": 512,
          "midi": 66,
          "name": "F#4",
          "ticks": 92228,
          "time": 80.05894771875,
          "velocity": 0.44881889763779526
        },
        {
          "duration": 0.6666659999999922,
          "durationTicks": 768,
          "midi": 58,
          "name": "A#3",
          "ticks": 92740,
          "time": 80.50339171875,
          "velocity": 0.44881889763779526
        },
        {
          "duration": 0.6666659999999922,
          "durationTicks": 768,
          "midi": 64,
          "name": "E4",
          "ticks": 92740,
          "time": 80.50339171875,
          "velocity": 0.44881889763779526
        },
        {
          "duration": 0.6666660000000064,
          "durationTicks": 768,
          "midi": 62,
          "name": "D4",
          "ticks": 93508,
          "time": 81.17005771874999,
          "velocity": 0.4566929133858268
        },
        {
          "duration": 0.6666660000000064,
          "durationTicks": 768,
          "midi": 57,
          "name": "A3",
          "ticks": 93508,
          "time": 81.17005771874999,
          "velocity": 0.4566929133858268
        },
        {
          "duration": 0.6666660000000064,
          "durationTicks": 768,
          "midi": 54,
          "name": "F#3",
          "ticks": 94276,
          "time": 81.83672371875,
          "velocity": 0.4645669291338583
        },
        {
          "duration": 0.6666660000000064,
          "durationTicks": 768,
          "midi": 61,
          "name": "C#4",
          "ticks": 94276,
          "time": 81.83672371875,
          "velocity": 0.4645669291338583
        },
        {
          "duration": 0.44444399999999007,
          "durationTicks": 512,
          "midi": 59,
          "name": "B3",
          "ticks": 95300,
          "time": 82.72561171875,
          "velocity": 0.48031496062992124
        },
        {
          "duration": 0.44444399999999007,
          "durationTicks": 512,
          "midi": 54,
          "name": "F#3",
          "ticks": 95300,
          "time": 82.72561171875,
          "velocity": 0.48031496062992124
        },
        {
          "duration": 0.6666660000000064,
          "durationTicks": 768,
          "midi": 54,
          "name": "F#3",
          "ticks": 95812,
          "time": 83.17005571874999,
          "velocity": 0.48031496062992124
        },
        {
          "duration": 1.999998000000005,
          "durationTicks": 2304,
          "midi": 59,
          "name": "B3",
          "ticks": 95812,
          "time": 83.17005571874999,
          "velocity": 0.48031496062992124
        },
        {
          "duration": 1.3333319999999986,
          "durationTicks": 1536,
          "midi": 52,
          "name": "E3",
          "ticks": 96580,
          "time": 83.83672171875,
          "velocity": 0.49606299212598426
        },
        {
          "duration": 0.4444440000000185,
          "durationTicks": 512,
          "midi": 57,
          "name": "A3",
          "ticks": 98372,
          "time": 85.39227571874999,
          "velocity": 0.44881889763779526
        },
        {
          "duration": 0.4444440000000185,
          "durationTicks": 512,
          "midi": 52,
          "name": "E3",
          "ticks": 98372,
          "time": 85.39227571874999,
          "velocity": 0.44881889763779526
        },
        {
          "duration": 0.32986078124999096,
          "durationTicks": 380,
          "midi": 59,
          "name": "B3",
          "ticks": 98884,
          "time": 85.83671971875,
          "velocity": 0.48031496062992124
        },
        {
          "duration": 0.32986078124999096,
          "durationTicks": 380,
          "midi": 52,
          "name": "E3",
          "ticks": 98884,
          "time": 85.83671971875,
          "velocity": 0.48031496062992124
        },
        {
          "duration": 0.22222200000000214,
          "durationTicks": 256,
          "midi": 54,
          "name": "F#3",
          "ticks": 99264,
          "time": 86.1665805,
          "velocity": 0.5039370078740157
        },
        {
          "duration": 0.22222200000000214,
          "durationTicks": 256,
          "midi": 60,
          "name": "C4",
          "ticks": 99264,
          "time": 86.1665805,
          "velocity": 0.5039370078740157
        },
        {
          "duration": 0.7812492187500055,
          "durationTicks": 900,
          "midi": 61,
          "name": "C#4",
          "ticks": 99520,
          "time": 86.3888025,
          "velocity": 0.5196850393700787
        },
        {
          "duration": 0.7812492187500055,
          "durationTicks": 900,
          "midi": 55,
          "name": "G3",
          "ticks": 99520,
          "time": 86.3888025,
          "velocity": 0.5196850393700787
        },
        {
          "duration": 0.22222199999998793,
          "durationTicks": 256,
          "midi": 62,
          "name": "D4",
          "ticks": 100420,
          "time": 87.17005171875,
          "velocity": 0.5748031496062992
        },
        {
          "duration": 0.22222199999998793,
          "durationTicks": 256,
          "midi": 67,
          "name": "G4",
          "ticks": 100420,
          "time": 87.17005171875,
          "velocity": 0.5748031496062992
        },
        {
          "duration": 0.4444440000000185,
          "durationTicks": 512,
          "midi": 67,
          "name": "G4",
          "ticks": 100676,
          "time": 87.39227371874999,
          "velocity": 0.48031496062992124
        },
        {
          "duration": 0.4444440000000185,
          "durationTicks": 512,
          "midi": 61,
          "name": "C#4",
          "ticks": 100676,
          "time": 87.39227371874999,
          "velocity": 0.48031496062992124
        },
        {
          "duration": 0.07986103124999033,
          "durationTicks": 92,
          "midi": 71,
          "name": "B4",
          "ticks": 105976,
          "time": 91.99296356250001,
          "velocity": 0.44881889763779526
        },
        {
          "duration": 0.09374990624999668,
          "durationTicks": 108,
          "midi": 72,
          "name": "C5",
          "ticks": 106068,
          "time": 92.07282459375,
          "velocity": 0.44881889763779526
        },
        {
          "duration": 0.33680521875000125,
          "durationTicks": 388,
          "midi": 71,
          "name": "B4",
          "ticks": 106176,
          "time": 92.1665745,
          "velocity": 0.4566929133858268
        },
        {
          "duration": 0.07986103125000454,
          "durationTicks": 92,
          "midi": 71,
          "name": "B4",
          "ticks": 106564,
          "time": 92.50337971875,
          "velocity": 0.48031496062992124
        },
        {
          "duration": 0.0763888124999994,
          "durationTicks": 88,
          "midi": 72,
          "name": "C5",
          "ticks": 106656,
          "time": 92.58324075,
          "velocity": 0.4881889763779528
        },
        {
          "duration": 0.5104161562500025,
          "durationTicks": 588,
          "midi": 71,
          "name": "B4",
          "ticks": 106744,
          "time": 92.6596295625,
          "velocity": 0.49606299212598426
        },
        {
          "duration": 0.44444399999999007,
          "durationTicks": 512,
          "midi": 55,
          "name": "G3",
          "ticks": 114112,
          "time": 99.0554565,
          "velocity": 0.5590551181102362
        },
        {
          "duration": 0.4444440000000185,
          "durationTicks": 512,
          "midi": 55,
          "name": "G3",
          "ticks": 115268,
          "time": 100.05892771874998,
          "velocity": 0.6062992125984252
        },
        {
          "duration": 0.10763878125000303,
          "durationTicks": 124,
          "midi": 50,
          "name": "D3",
          "ticks": 118340,
          "time": 102.72559171875,
          "velocity": 0.5275590551181102
        },
        {
          "duration": 0.10763878125000303,
          "durationTicks": 124,
          "midi": 59,
          "name": "B3",
          "ticks": 118340,
          "time": 102.72559171875,
          "velocity": 0.5275590551181102
        },
        {
          "duration": 0.22222200000000214,
          "durationTicks": 256,
          "midi": 58,
          "name": "A#3",
          "ticks": 118464,
          "time": 102.8332305,
          "velocity": 0.5433070866141733
        },
        {
          "duration": 0.22222200000000214,
          "durationTicks": 256,
          "midi": 48,
          "name": "C3",
          "ticks": 118464,
          "time": 102.8332305,
          "velocity": 0.5433070866141733
        },
        {
          "duration": 0.44444399999999007,
          "durationTicks": 512,
          "midi": 59,
          "name": "B3",
          "ticks": 118720,
          "time": 103.0554525,
          "velocity": 0.5748031496062992
        },
        {
          "duration": 0.44444399999999007,
          "durationTicks": 512,
          "midi": 50,
          "name": "D3",
          "ticks": 118720,
          "time": 103.0554525,
          "velocity": 0.5748031496062992
        },
        {
          "duration": 0.10763878125000303,
          "durationTicks": 124,
          "midi": 63,
          "name": "D#4",
          "ticks": 124484,
          "time": 108.05891971874999,
          "velocity": 0.44881889763779526
        },
        {
          "duration": 0.22222200000001635,
          "durationTicks": 256,
          "midi": 64,
          "name": "E4",
          "ticks": 124608,
          "time": 108.1665585,
          "velocity": 0.44881889763779526
        },
        {
          "duration": 0.1145832187499991,
          "durationTicks": 132,
          "midi": 69,
          "name": "A4",
          "ticks": 124864,
          "time": 108.38878050000001,
          "velocity": 0.4645669291338583
        },
        {
          "duration": 0.32986078124999096,
          "durationTicks": 380,
          "midi": 67,
          "name": "G4",
          "ticks": 124996,
          "time": 108.50336371875001,
          "velocity": 0.47244094488188976
        },
        {
          "duration": 0.20486090624999065,
          "durationTicks": 236,
          "midi": 69,
          "name": "A4",
          "ticks": 125376,
          "time": 108.8332245,
          "velocity": 0.49606299212598426
        },
        {
          "duration": 0.22222200000001635,
          "durationTicks": 256,
          "midi": 65,
          "name": "F4",
          "ticks": 127680,
          "time": 110.83322249999999,
          "velocity": 0.44881889763779526
        },
        {
          "duration": 0.1145832187499991,
          "durationTicks": 132,
          "midi": 69,
          "name": "A4",
          "ticks": 127936,
          "time": 111.05544450000001,
          "velocity": 0.4566929133858268
        },
        {
          "duration": 0.22222199999998793,
          "durationTicks": 256,
          "midi": 72,
          "name": "C5",
          "ticks": 128068,
          "time": 111.17002771875,
          "velocity": 0.4645669291338583
        },
        {
          "duration": 0.10763878125000303,
          "durationTicks": 124,
          "midi": 69,
          "name": "A4",
          "ticks": 128324,
          "time": 111.39224971875,
          "velocity": 0.47244094488188976
        },
        {
          "duration": 0.1145832187499991,
          "durationTicks": 132,
          "midi": 65,
          "name": "F4",
          "ticks": 128448,
          "time": 111.4998885,
          "velocity": 0.48031496062992124
        },
        {
          "duration": 0.10763878125000303,
          "durationTicks": 124,
          "midi": 64,
          "name": "E4",
          "ticks": 128580,
          "time": 111.61447171875,
          "velocity": 0.48031496062992124
        },
        {
          "duration": 0.1145832187499991,
          "durationTicks": 132,
          "midi": 62,
          "name": "D4",
          "ticks": 128704,
          "time": 111.7221105,
          "velocity": 0.4881889763779528
        },
        {
          "duration": 0.6666660000000064,
          "durationTicks": 768,
          "midi": 64,
          "name": "E4",
          "ticks": 128836,
          "time": 111.83669371875,
          "velocity": 0.49606299212598426
        },
        {
          "duration": 0.6666659999999922,
          "durationTicks": 768,
          "midi": 60,
          "name": "C4",
          "ticks": 142662,
          "time": 123.838417828125,
          "velocity": 0.44881889763779526
        },
        {
          "duration": 0.6666659999999922,
          "durationTicks": 768,
          "midi": 65,
          "name": "F4",
          "ticks": 142662,
          "time": 123.838417828125,
          "velocity": 0.44881889763779526
        },
        {
          "duration": 0.22222200000000214,
          "durationTicks": 256,
          "midi": 65,
          "name": "F4",
          "ticks": 143430,
          "time": 124.505083828125,
          "velocity": 0.48031496062992124
        },
        {
          "duration": 0.22222200000000214,
          "durationTicks": 256,
          "midi": 60,
          "name": "C4",
          "ticks": 143430,
          "time": 124.505083828125,
          "velocity": 0.48031496062992124
        },
        {
          "duration": 0.4444440000000043,
          "durationTicks": 512,
          "midi": 65,
          "name": "F4",
          "ticks": 143686,
          "time": 124.727305828125,
          "velocity": 0.49606299212598426
        },
        {
          "duration": 0.4444440000000043,
          "durationTicks": 512,
          "midi": 59,
          "name": "B3",
          "ticks": 143686,
          "time": 124.727305828125,
          "velocity": 0.49606299212598426
        },
        {
          "duration": 0.10763878124998882,
          "durationTicks": 124,
          "midi": 63,
          "name": "D#4",
          "ticks": 149060,
          "time": 129.39223171875,
          "velocity": 0.44881889763779526
        },
        {
          "duration": 0.22222200000001635,
          "durationTicks": 256,
          "midi": 64,
          "name": "E4",
          "ticks": 149184,
          "time": 129.4998705,
          "velocity": 0.44881889763779526
        },
        {
          "duration": 0.1145832187499991,
          "durationTicks": 132,
          "midi": 69,
          "name": "A4",
          "ticks": 149440,
          "time": 129.7220925,
          "velocity": 0.4645669291338583
        },
        {
          "duration": 0.3298607812500052,
          "durationTicks": 380,
          "midi": 67,
          "name": "G4",
          "ticks": 149572,
          "time": 129.83667571875,
          "velocity": 0.47244094488188976
        },
        {
          "duration": 0.20486090624999065,
          "durationTicks": 236,
          "midi": 69,
          "name": "A4",
          "ticks": 149952,
          "time": 130.1665365,
          "velocity": 0.49606299212598426
        },
        {
          "duration": 0.22222200000001635,
          "durationTicks": 256,
          "midi": 65,
          "name": "F4",
          "ticks": 152256,
          "time": 132.16653449999998,
          "velocity": 0.44881889763779526
        },
        {
          "duration": 0.1145832187499991,
          "durationTicks": 132,
          "midi": 69,
          "name": "A4",
          "ticks": 152512,
          "time": 132.3887565,
          "velocity": 0.4566929133858268
        },
        {
          "duration": 0.22222199999998793,
          "durationTicks": 256,
          "midi": 72,
          "name": "C5",
          "ticks": 152644,
          "time": 132.50333971875,
          "velocity": 0.4645669291338583
        },
        {
          "duration": 0.10763878125001725,
          "durationTicks": 124,
          "midi": 69,
          "name": "A4",
          "ticks": 152900,
          "time": 132.72556171875,
          "velocity": 0.47244094488188976
        },
        {
          "duration": 0.1145832187499991,
          "durationTicks": 132,
          "midi": 65,
          "name": "F4",
          "ticks": 153024,
          "time": 132.8332005,
          "velocity": 0.48031496062992124
        },
        {
          "duration": 0.10763878124998882,
          "durationTicks": 124,
          "midi": 64,
          "name": "E4",
          "ticks": 153156,
          "time": 132.94778371875,
          "velocity": 0.48031496062992124
        },
        {
          "duration": 0.1145832187499991,
          "durationTicks": 132,
          "midi": 62,
          "name": "D4",
          "ticks": 153280,
          "time": 133.0554225,
          "velocity": 0.4881889763779528
        },
        {
          "duration": 0.6666660000000206,
          "durationTicks": 768,
          "midi": 64,
          "name": "E4",
          "ticks": 153412,
          "time": 133.17000571875,
          "velocity": 0.49606299212598426
        },
        {
          "duration": 0.5520827812500215,
          "durationTicks": 636,
          "midi": 65,
          "name": "F4",
          "ticks": 167236,
          "time": 145.16999371875,
          "velocity": 0.44881889763779526
        },
        {
          "duration": 0.5520827812500215,
          "durationTicks": 636,
          "midi": 59,
          "name": "B3",
          "ticks": 167236,
          "time": 145.16999371875,
          "velocity": 0.44881889763779526
        },
        {
          "duration": 0.44444399999997586,
          "durationTicks": 512,
          "midi": 57,
          "name": "A3",
          "ticks": 167872,
          "time": 145.72207650000001,
          "velocity": 0.49606299212598426
        },
        {
          "duration": 0.44444399999997586,
          "durationTicks": 512,
          "midi": 64,
          "name": "E4",
          "ticks": 167872,
          "time": 145.72207650000001,
          "velocity": 0.49606299212598426
        },
        {
          "duration": 0.4444440000000327,
          "durationTicks": 512,
          "midi": 60,
          "name": "C4",
          "ticks": 173636,
          "time": 150.72554371874998,
          "velocity": 0.44881889763779526
        },
        {
          "duration": 0.22222199999998793,
          "durationTicks": 256,
          "midi": 59,
          "name": "B3",
          "ticks": 174148,
          "time": 151.16998771875,
          "velocity": 0.4566929133858268
        },
        {
          "duration": 0.10763878124998882,
          "durationTicks": 124,
          "midi": 64,
          "name": "E4",
          "ticks": 174404,
          "time": 151.39220971875,
          "velocity": 0.4645669291338583
        },
        {
          "duration": 0.22222200000001635,
          "durationTicks": 256,
          "midi": 68,
          "name": "G#4",
          "ticks": 174528,
          "time": 151.49984849999998,
          "velocity": 0.4645669291338583
        },
        {
          "duration": 0.1145832187499991,
          "durationTicks": 132,
          "midi": 71,
          "name": "B4",
          "ticks": 174784,
          "time": 151.7220705,
          "velocity": 0.47244094488188976
        },
        {
          "duration": 0.22222199999998793,
          "durationTicks": 256,
          "midi": 69,
          "name": "A4",
          "ticks": 174916,
          "time": 151.83665371875,
          "velocity": 0.48031496062992124
        },
        {
          "duration": 0.10763878125001725,
          "durationTicks": 124,
          "midi": 64,
          "name": "E4",
          "ticks": 175172,
          "time": 152.05887571875,
          "velocity": 0.48031496062992124
        },
        {
          "duration": 0.22222199999998793,
          "durationTicks": 256,
          "midi": 64,
          "name": "E4",
          "ticks": 175296,
          "time": 152.1665145,
          "velocity": 0.4881889763779528
        },
        {
          "duration": 0.4444440000000043,
          "durationTicks": 512,
          "midi": 64,
          "name": "E4",
          "ticks": 175552,
          "time": 152.3887365,
          "velocity": 0.49606299212598426
        },
        {
          "duration": 0.10763878124998882,
          "durationTicks": 124,
          "midi": 60,
          "name": "C4",
          "ticks": 176708,
          "time": 153.39220771875,
          "velocity": 0.44881889763779526
        },
        {
          "duration": 0.22222200000001635,
          "durationTicks": 256,
          "midi": 62,
          "name": "D4",
          "ticks": 176832,
          "time": 153.4998465,
          "velocity": 0.4645669291338583
        },
        {
          "duration": 0.7812492187499913,
          "durationTicks": 900,
          "midi": 64,
          "name": "E4",
          "ticks": 177088,
          "time": 153.7220685,
          "velocity": 0.49606299212598426
        },
        {
          "duration": 0.4444440000000043,
          "durationTicks": 512,
          "midi": 55,
          "name": "G3",
          "ticks": 179780,
          "time": 156.05887171875,
          "velocity": 0.5590551181102362
        },
        {
          "duration": 0.4444440000000043,
          "durationTicks": 512,
          "midi": 55,
          "name": "G3",
          "ticks": 180548,
          "time": 156.72553771875,
          "velocity": 0.6062992125984252
        },
        {
          "duration": 0.1145832187499991,
          "durationTicks": 132,
          "midi": 67,
          "name": "G4",
          "ticks": 181440,
          "time": 157.4998425,
          "velocity": 0.44881889763779526
        },
        {
          "duration": 0.10763878124998882,
          "durationTicks": 124,
          "midi": 66,
          "name": "F#4",
          "ticks": 181572,
          "time": 157.61442571875,
          "velocity": 0.4645669291338583
        },
        {
          "duration": 0.11458321875002753,
          "durationTicks": 132,
          "midi": 65,
          "name": "F4",
          "ticks": 181696,
          "time": 157.7220645,
          "velocity": 0.48031496062992124
        },
        {
          "duration": 0.6666659999999922,
          "durationTicks": 768,
          "midi": 64,
          "name": "E4",
          "ticks": 181828,
          "time": 157.83664771875002,
          "velocity": 0.49606299212598426
        },
        {
          "duration": 0.1145832187499991,
          "durationTicks": 132,
          "midi": 67,
          "name": "G4",
          "ticks": 183232,
          "time": 159.0553965,
          "velocity": 0.44881889763779526
        },
        {
          "duration": 0.22222199999998793,
          "durationTicks": 256,
          "midi": 69,
          "name": "A4",
          "ticks": 183364,
          "time": 159.16997971875,
          "velocity": 0.4566929133858268
        },
        {
          "duration": 0.10763878125001725,
          "durationTicks": 124,
          "midi": 67,
          "name": "G4",
          "ticks": 183620,
          "time": 159.39220171875,
          "velocity": 0.47244094488188976
        },
        {
          "duration": 0.22222199999998793,
          "durationTicks": 256,
          "midi": 64,
          "name": "E4",
          "ticks": 183744,
          "time": 159.4998405,
          "velocity": 0.48031496062992124
        },
        {
          "duration": 0.14583318750001695,
          "durationTicks": 168,
          "midi": 62,
          "name": "D4",
          "ticks": 184000,
          "time": 159.7220625,
          "velocity": 0.49606299212598426
        },
        {
          "duration": 0.1145832187499991,
          "durationTicks": 132,
          "midi": 64,
          "name": "E4",
          "ticks": 184512,
          "time": 160.1665065,
          "velocity": 0.44881889763779526
        },
        {
          "duration": 0.10763878125001725,
          "durationTicks": 124,
          "midi": 65,
          "name": "F4",
          "ticks": 184644,
          "time": 160.28108971875,
          "velocity": 0.4566929133858268
        },
        {
          "duration": 0.1145832187499991,
          "durationTicks": 132,
          "midi": 67,
          "name": "G4",
          "ticks": 184768,
          "time": 160.3887285,
          "velocity": 0.4645669291338583
        },
        {
          "duration": 0.22222199999998793,
          "durationTicks": 256,
          "midi": 69,
          "name": "A4",
          "ticks": 184900,
          "time": 160.50331171875,
          "velocity": 0.47244094488188976
        },
        {
          "duration": 0.1475692968749911,
          "durationTicks": 170,
          "midi": 67,
          "name": "G4",
          "ticks": 185156,
          "time": 160.72553371875,
          "velocity": 0.49606299212598426
        },
        {
          "duration": 0.22222200000001635,
          "durationTicks": 256,
          "midi": 61,
          "name": "C#4",
          "ticks": 186048,
          "time": 161.49983849999998,
          "velocity": 0.44881889763779526
        },
        {
          "duration": 0.1145832187499991,
          "durationTicks": 132,
          "midi": 64,
          "name": "E4",
          "ticks": 186304,
          "time": 161.7220605,
          "velocity": 0.48031496062992124
        },
        {
          "duration": 0.2135414531250035,
          "durationTicks": 246,
          "midi": 67,
          "name": "G4",
          "ticks": 186436,
          "time": 161.83664371875,
          "velocity": 0.49606299212598426
        },
        {
          "duration": 0.3298607812500336,
          "durationTicks": 380,
          "midi": 57,
          "name": "A3",
          "ticks": 187460,
          "time": 162.72553171874998,
          "velocity": 0.44881889763779526
        },
        {
          "duration": 0.3298607812500052,
          "durationTicks": 380,
          "midi": 60,
          "name": "C4",
          "ticks": 188228,
          "time": 163.39219771875,
          "velocity": 0.4566929133858268
        },
        {
          "duration": 0.22222199999998793,
          "durationTicks": 256,
          "midi": 64,
          "name": "E4",
          "ticks": 188740,
          "time": 163.83664171875,
          "velocity": 0.4645669291338583
        },
        {
          "duration": 0.10763878125001725,
          "durationTicks": 124,
          "midi": 67,
          "name": "G4",
          "ticks": 188996,
          "time": 164.05886371875,
          "velocity": 0.47244094488188976
        },
        {
          "duration": 0.22222199999998793,
          "durationTicks": 256,
          "midi": 64,
          "name": "E4",
          "ticks": 189120,
          "time": 164.1665025,
          "velocity": 0.47244094488188976
        },
        {
          "duration": 0.1145832187499991,
          "durationTicks": 132,
          "midi": 57,
          "name": "A3",
          "ticks": 189376,
          "time": 164.3887245,
          "velocity": 0.48031496062992124
        },
        {
          "duration": 0.22222199999998793,
          "durationTicks": 256,
          "midi": 64,
          "name": "E4",
          "ticks": 189508,
          "time": 164.50330771875,
          "velocity": 0.48031496062992124
        },
        {
          "duration": 0.10763878125001725,
          "durationTicks": 124,
          "midi": 67,
          "name": "G4",
          "ticks": 189764,
          "time": 164.72552971874998,
          "velocity": 0.48031496062992124
        },
        {
          "duration": 0.22222200000001635,
          "durationTicks": 256,
          "midi": 64,
          "name": "E4",
          "ticks": 189888,
          "time": 164.8331685,
          "velocity": 0.4881889763779528
        },
        {
          "duration": 0.1145832187499991,
          "durationTicks": 132,
          "midi": 57,
          "name": "A3",
          "ticks": 190144,
          "time": 165.05539050000002,
          "velocity": 0.4881889763779528
        },
        {
          "duration": 1.9999979999999766,
          "durationTicks": 2304,
          "midi": 60,
          "name": "C4",
          "ticks": 190276,
          "time": 165.16997371875001,
          "velocity": 0.49606299212598426
        },
        {
          "duration": 0.1145832187499991,
          "durationTicks": 132,
          "midi": 53,
          "name": "F3",
          "ticks": 192960,
          "time": 167.4998325,
          "velocity": 0.5275590551181102
        },
        {
          "duration": 0.10763878125001725,
          "durationTicks": 124,
          "midi": 54,
          "name": "F#3",
          "ticks": 193092,
          "time": 167.61441571875,
          "velocity": 0.5433070866141733
        },
        {
          "duration": 0.1145832187499991,
          "durationTicks": 132,
          "midi": 55,
          "name": "G3",
          "ticks": 193216,
          "time": 167.7220545,
          "velocity": 0.5590551181102362
        },
        {
          "duration": 2.6666639999999973,
          "durationTicks": 3072,
          "midi": 56,
          "name": "G#3",
          "ticks": 193348,
          "time": 167.83663771875,
          "velocity": 0.5748031496062992
        },
        {
          "duration": 0.3333330000000103,
          "durationTicks": 384,
          "midi": 65,
          "name": "F4",
          "ticks": 201280,
          "time": 174.72204749999997,
          "velocity": 0.5275590551181102
        },
        {
          "duration": 0.20486090625001907,
          "durationTicks": 236,
          "midi": 62,
          "name": "D4",
          "ticks": 201664,
          "time": 175.05538049999998,
          "velocity": 0.5590551181102362
        },
        {
          "duration": 0.11111100000002239,
          "durationTicks": 128,
          "midi": 63,
          "name": "D#4",
          "ticks": 204352,
          "time": 177.38871149999997,
          "velocity": 0.44881889763779526
        },
        {
          "duration": 0.22222199999998793,
          "durationTicks": 256,
          "midi": 58,
          "name": "A#3",
          "ticks": 204480,
          "time": 177.4998225,
          "velocity": 0.4645669291338583
        },
        {
          "duration": 0.14583318749998853,
          "durationTicks": 168,
          "midi": 63,
          "name": "D#4",
          "ticks": 204736,
          "time": 177.72204449999998,
          "velocity": 0.49606299212598426
        },
        {
          "duration": 0.11111100000002239,
          "durationTicks": 128,
          "midi": 63,
          "name": "D#4",
          "ticks": 207424,
          "time": 180.05537549999997,
          "velocity": 0.44881889763779526
        },
        {
          "duration": 0.22222199999998793,
          "durationTicks": 256,
          "midi": 58,
          "name": "A#3",
          "ticks": 207552,
          "time": 180.1664865,
          "velocity": 0.4645669291338583
        },
        {
          "duration": 0.14583318750001695,
          "durationTicks": 168,
          "midi": 63,
          "name": "D#4",
          "ticks": 207808,
          "time": 180.38870849999998,
          "velocity": 0.49606299212598426
        },
        {
          "duration": 0.11111100000002239,
          "durationTicks": 128,
          "midi": 66,
          "name": "F#4",
          "ticks": 208960,
          "time": 181.38870749999998,
          "velocity": 0.44881889763779526
        },
        {
          "duration": 0.20486090624999065,
          "durationTicks": 236,
          "midi": 63,
          "name": "D#4",
          "ticks": 209088,
          "time": 181.4998185,
          "velocity": 0.44881889763779526
        },
        {
          "duration": 0.22222199999998793,
          "durationTicks": 256,
          "midi": 66,
          "name": "F#4",
          "ticks": 209472,
          "time": 181.83315149999999,
          "velocity": 0.47244094488188976
        },
        {
          "duration": 0.11111100000002239,
          "durationTicks": 128,
          "midi": 63,
          "name": "D#4",
          "ticks": 209728,
          "time": 182.05537349999997,
          "velocity": 0.4881889763779528
        },
        {
          "duration": 0.20486090625001907,
          "durationTicks": 236,
          "midi": 58,
          "name": "A#3",
          "ticks": 209856,
          "time": 182.1664845,
          "velocity": 0.49606299212598426
        },
        {
          "duration": 0.20486090624999065,
          "durationTicks": 236,
          "midi": 66,
          "name": "F#4",
          "ticks": 210496,
          "time": 182.7220395,
          "velocity": 0.44881889763779526
        },
        {
          "duration": 0.20486090625001907,
          "durationTicks": 236,
          "midi": 62,
          "name": "D4",
          "ticks": 210624,
          "time": 182.8331505,
          "velocity": 0.44881889763779526
        },
        {
          "duration": 0.20486090625001907,
          "durationTicks": 236,
          "midi": 66,
          "name": "F#4",
          "ticks": 211008,
          "time": 183.1664835,
          "velocity": 0.47244094488188976
        },
        {
          "duration": 0.20486090625001907,
          "durationTicks": 236,
          "midi": 62,
          "name": "D4",
          "ticks": 211264,
          "time": 183.3887055,
          "velocity": 0.4881889763779528
        },
        {
          "duration": 0.20486090624999065,
          "durationTicks": 236,
          "midi": 58,
          "name": "A#3",
          "ticks": 211392,
          "time": 183.4998165,
          "velocity": 0.49606299212598426
        },
        {
          "duration": 0.11111100000002239,
          "durationTicks": 128,
          "midi": 65,
          "name": "F4",
          "ticks": 212032,
          "time": 184.05537149999998,
          "velocity": 0.44881889763779526
        },
        {
          "duration": 0.20486090625001907,
          "durationTicks": 236,
          "midi": 61,
          "name": "C#4",
          "ticks": 212160,
          "time": 184.1664825,
          "velocity": 0.44881889763779526
        },
        {
          "duration": 0.22222199999998793,
          "durationTicks": 256,
          "midi": 65,
          "name": "F4",
          "ticks": 212544,
          "time": 184.49981549999998,
          "velocity": 0.47244094488188976
        },
        {
          "duration": 0.11111100000002239,
          "durationTicks": 128,
          "midi": 61,
          "name": "C#4",
          "ticks": 212800,
          "time": 184.72203749999997,
          "velocity": 0.4881889763779528
        },
        {
          "duration": 0.20486090625001907,
          "durationTicks": 236,
          "midi": 55,
          "name": "G3",
          "ticks": 212928,
          "time": 184.8331485,
          "velocity": 0.49606299212598426
        },
        {
          "duration": 1.1111099999999965,
          "durationTicks": 1280,
          "midi": 54,
          "name": "F#3",
          "ticks": 213568,
          "time": 185.3887035,
          "velocity": 0.5275590551181102
        },
        {
          "duration": 1.1111099999999965,
          "durationTicks": 1280,
          "midi": 60,
          "name": "C4",
          "ticks": 213568,
          "time": 185.3887035,
          "velocity": 0.5275590551181102
        },
        {
          "duration": 2.3333310000000154,
          "durationTicks": 2688,
          "midi": 58,
          "name": "A#3",
          "ticks": 215104,
          "time": 186.72203549999998,
          "velocity": 0.5748031496062992
        },
        {
          "duration": 2.3333310000000154,
          "durationTicks": 2688,
          "midi": 53,
          "name": "F3",
          "ticks": 215104,
          "time": 186.72203549999998,
          "velocity": 0.5748031496062992
        },
        {
          "duration": 0.11111099999999396,
          "durationTicks": 128,
          "midi": 68,
          "name": "G#4",
          "ticks": 218816,
          "time": 189.9442545,
          "velocity": 0.6062992125984252
        },
        {
          "duration": 0.11111099999999396,
          "durationTicks": 128,
          "midi": 67,
          "name": "G4",
          "ticks": 218944,
          "time": 190.0553655,
          "velocity": 0.6141732283464567
        },
        {
          "duration": 0.11111100000002239,
          "durationTicks": 128,
          "midi": 66,
          "name": "F#4",
          "ticks": 219072,
          "time": 190.1664765,
          "velocity": 0.6220472440944882
        },
        {
          "duration": 0.11111099999996554,
          "durationTicks": 128,
          "midi": 65,
          "name": "F4",
          "ticks": 219200,
          "time": 190.2775875,
          "velocity": 0.6299212598425197
        },
        {
          "duration": 0.11111100000002239,
          "durationTicks": 128,
          "midi": 64,
          "name": "E4",
          "ticks": 219328,
          "time": 190.38869849999998,
          "velocity": 0.6377952755905512
        },
        {
          "duration": 1.1666654999999935,
          "durationTicks": 1344,
          "midi": 53,
          "name": "F3",
          "ticks": 219456,
          "time": 190.4998095,
          "velocity": 0.6535433070866141
        },
        {
          "duration": 1.1666654999999935,
          "durationTicks": 1344,
          "midi": 58,
          "name": "A#3",
          "ticks": 219456,
          "time": 190.4998095,
          "velocity": 0.6535433070866141
        }
      ]
    },
    {
      "channel": 6,
      "controlChanges": {
        "0": [
          {
            "number": 0,
            "ticks": 456,
            "time": 0.3958329375,
            "value": 0
          }
        ],
        "6": [
          {
            "number": 6,
            "ticks": 1156,
            "time": 1.00347121875,
            "value": 0.015748031496062992
          },
          {
            "number": 6,
            "ticks": 1168,
            "time": 1.013887875,
            "value": 0.5039370078740157
          }
        ],
        "7": [
          {
            "number": 7,
            "ticks": 460,
            "time": 0.39930515625,
            "value": 1
          }
        ],
        "10": [
          {
            "number": 10,
            "ticks": 464,
            "time": 0.40277737499999994,
            "value": 0.36220472440944884
          }
        ],
        "11": [
          {
            "number": 11,
            "ticks": 468,
            "time": 0.40624959374999997,
            "value": 1
          },
          {
            "number": 11,
            "ticks": 213568,
            "time": 185.3887035,
            "value": 0.7874015748031497
          },
          {
            "number": 11,
            "ticks": 213652,
            "time": 185.46162009374999,
            "value": 0.7952755905511811
          },
          {
            "number": 11,
            "ticks": 213734,
            "time": 185.532800578125,
            "value": 0.8031496062992126
          },
          {
            "number": 11,
            "ticks": 213816,
            "time": 185.6039810625,
            "value": 0.8110236220472441
          },
          {
            "number": 11,
            "ticks": 213900,
            "time": 185.67689765625,
            "value": 0.8188976377952756
          },
          {
            "number": 11,
            "ticks": 213982,
            "time": 185.74807814062498,
            "value": 0.8267716535433071
          },
          {
            "number": 11,
            "ticks": 214066,
            "time": 185.82099473437498,
            "value": 0.8346456692913385
          },
          {
            "number": 11,
            "ticks": 214148,
            "time": 185.89217521875,
            "value": 0.84251968503937
          },
          {
            "number": 11,
            "ticks": 214232,
            "time": 185.96509181250002,
            "value": 0.8503937007874016
          },
          {
            "number": 11,
            "ticks": 214314,
            "time": 186.03627229687498,
            "value": 0.8582677165354331
          },
          {
            "number": 11,
            "ticks": 214396,
            "time": 186.10745278124998,
            "value": 0.8661417322834646
          },
          {
            "number": 11,
            "ticks": 214480,
            "time": 186.18036937499997,
            "value": 0.8740157480314961
          },
          {
            "number": 11,
            "ticks": 214562,
            "time": 186.25154985937502,
            "value": 0.8818897637795275
          },
          {
            "number": 11,
            "ticks": 214644,
            "time": 186.32273034374998,
            "value": 0.889763779527559
          },
          {
            "number": 11,
            "ticks": 214728,
            "time": 186.3956469375,
            "value": 0.8976377952755905
          },
          {
            "number": 11,
            "ticks": 214810,
            "time": 186.466827421875,
            "value": 0.905511811023622
          },
          {
            "number": 11,
            "ticks": 214894,
            "time": 186.539744015625,
            "value": 0.9133858267716536
          },
          {
            "number": 11,
            "ticks": 214976,
            "time": 186.6109245,
            "value": 0.9212598425196851
          },
          {
            "number": 11,
            "ticks": 215060,
            "time": 186.68384109375,
            "value": 0.9291338582677166
          },
          {
            "number": 11,
            "ticks": 215142,
            "time": 186.755021578125,
            "value": 0.937007874015748
          },
          {
            "number": 11,
            "ticks": 215224,
            "time": 186.8262020625,
            "value": 0.9448818897637795
          },
          {
            "number": 11,
            "ticks": 215308,
            "time": 186.89911865624998,
            "value": 0.952755905511811
          },
          {
            "number": 11,
            "ticks": 215390,
            "time": 186.970299140625,
            "value": 0.9606299212598425
          },
          {
            "number": 11,
            "ticks": 215472,
            "time": 187.041479625,
            "value": 0.968503937007874
          },
          {
            "number": 11,
            "ticks": 215556,
            "time": 187.11439621875,
            "value": 0.9763779527559056
          },
          {
            "number": 11,
            "ticks": 215638,
            "time": 187.18557670312498,
            "value": 0.984251968503937
          },
          {
            "number": 11,
            "ticks": 215722,
            "time": 187.25849329687497,
            "value": 0.9921259842519685
          },
          {
            "number": 11,
            "ticks": 215804,
            "time": 187.32967378125,
            "value": 1
          },
          {
            "number": 11,
            "ticks": 216380,
            "time": 187.82967328125,
            "value": 0.7874015748031497
          }
        ],
        "32": [
          {
            "number": 32,
            "ticks": 456,
            "time": 0.3958329375,
            "value": 0
          }
        ],
        "91": [
          {
            "number": 91,
            "ticks": 472,
            "time": 0.4097218125,
            "value": 0.7086614173228346
          }
        ],
        "93": [
          {
            "number": 93,
            "ticks": 476,
            "time": 0.41319403125,
            "value": 0
          }
        ],
        "100": [
          {
            "number": 100,
            "ticks": 1152,
            "time": 0.999999,
            "value": 0
          },
          {
            "number": 100,
            "ticks": 1164,
            "time": 1.01041565625,
            "value": 0.015748031496062992
          },
          {
            "number": 100,
            "ticks": 1176,
            "time": 1.0208323125,
            "value": 1
          }
        ],
        "101": [
          {
            "number": 101,
            "ticks": 1148,
            "time": 0.99652678125,
            "value": 0
          },
          {
            "number": 101,
            "ticks": 1160,
            "time": 1.0069434375,
            "value": 0
          },
          {
            "number": 101,
            "ticks": 1172,
            "time": 1.01736009375,
            "value": 1
          }
        ],
        "121": [
          {
            "number": 121,
            "ticks": 216,
            "time": 0.1874998125,
            "value": 0
          }
        ]
      },
      "pitchBends": [],
      "instrument": {
        "family": "reed",
        "name": "baritone sax",
        "number": 67
      },
      "name": "",
      "notes": [
        {
          "duration": 0.20659701562499677,
          "durationTicks": 238,
          "midi": 58,
          "name": "A#3",
          "ticks": 20928,
          "time": 18.1666485,
          "velocity": 0.5275590551181102
        },
        {
          "duration": 0.6666659999999993,
          "durationTicks": 768,
          "midi": 61,
          "name": "C#4",
          "ticks": 21316,
          "time": 18.50345371875,
          "velocity": 0.5275590551181102
        },
        {
          "duration": 0.6666659999999993,
          "durationTicks": 768,
          "midi": 61,
          "name": "C#4",
          "ticks": 22084,
          "time": 19.170119718749998,
          "velocity": 0.5354330708661418
        },
        {
          "duration": 0.21354145312499995,
          "durationTicks": 246,
          "midi": 61,
          "name": "C#4",
          "ticks": 22852,
          "time": 19.836785718749997,
          "velocity": 0.5354330708661418
        },
        {
          "duration": 0.6666659999999993,
          "durationTicks": 768,
          "midi": 59,
          "name": "B3",
          "ticks": 23232,
          "time": 20.1666465,
          "velocity": 0.5433070866141733
        },
        {
          "duration": 0.20659701562500032,
          "durationTicks": 238,
          "midi": 57,
          "name": "A3",
          "ticks": 24000,
          "time": 20.833312499999998,
          "velocity": 0.5511811023622047
        },
        {
          "duration": 1.3333320000000022,
          "durationTicks": 1536,
          "midi": 54,
          "name": "F#3",
          "ticks": 24388,
          "time": 21.17011771875,
          "velocity": 0.5511811023622047
        },
        {
          "duration": 0.1475692968750053,
          "durationTicks": 170,
          "midi": 50,
          "name": "D3",
          "ticks": 26180,
          "time": 22.725671718749997,
          "velocity": 0.5669291338582677
        },
        {
          "duration": 0.1475692968749982,
          "durationTicks": 170,
          "midi": 45,
          "name": "A2",
          "ticks": 26560,
          "time": 23.0555325,
          "velocity": 0.5669291338582677
        },
        {
          "duration": 0.4774300781249998,
          "durationTicks": 550,
          "midi": 45,
          "name": "A2",
          "ticks": 26948,
          "time": 23.39233771875,
          "velocity": 0.5748031496062992
        },
        {
          "duration": 0.22222200000000214,
          "durationTicks": 256,
          "midi": 50,
          "name": "D3",
          "ticks": 29376,
          "time": 25.4999745,
          "velocity": 0.5275590551181102
        },
        {
          "duration": 0.7812492187499984,
          "durationTicks": 900,
          "midi": 55,
          "name": "G3",
          "ticks": 29632,
          "time": 25.722196500000003,
          "velocity": 0.5748031496062992
        },
        {
          "duration": 0.10763878125000303,
          "durationTicks": 124,
          "midi": 57,
          "name": "A3",
          "ticks": 30788,
          "time": 26.725667718749996,
          "velocity": 0.5275590551181102
        },
        {
          "duration": 0.1145832187499991,
          "durationTicks": 132,
          "midi": 55,
          "name": "G3",
          "ticks": 30912,
          "time": 26.8333065,
          "velocity": 0.5275590551181102
        },
        {
          "duration": 0.10763878125000303,
          "durationTicks": 124,
          "midi": 57,
          "name": "A3",
          "ticks": 31044,
          "time": 26.947889718749998,
          "velocity": 0.5354330708661418
        },
        {
          "duration": 0.1145832187499991,
          "durationTicks": 132,
          "midi": 55,
          "name": "G3",
          "ticks": 31168,
          "time": 27.0555285,
          "velocity": 0.5433070866141733
        },
        {
          "duration": 0.10763878124999593,
          "durationTicks": 124,
          "midi": 58,
          "name": "A#3",
          "ticks": 31300,
          "time": 27.17011171875,
          "velocity": 0.5433070866141733
        },
        {
          "duration": 0.11458321875000266,
          "durationTicks": 132,
          "midi": 55,
          "name": "G3",
          "ticks": 31424,
          "time": 27.277750499999996,
          "velocity": 0.5511811023622047
        },
        {
          "duration": 0.10763878124999948,
          "durationTicks": 124,
          "midi": 57,
          "name": "A3",
          "ticks": 31556,
          "time": 27.39233371875,
          "velocity": 0.5590551181102362
        },
        {
          "duration": 0.22222200000000214,
          "durationTicks": 256,
          "midi": 55,
          "name": "G3",
          "ticks": 31680,
          "time": 27.4999725,
          "velocity": 0.5590551181102362
        },
        {
          "duration": 0.1475692968749982,
          "durationTicks": 170,
          "midi": 57,
          "name": "A3",
          "ticks": 31936,
          "time": 27.7221945,
          "velocity": 0.5748031496062992
        },
        {
          "duration": 0.14756929687500175,
          "durationTicks": 170,
          "midi": 54,
          "name": "F#3",
          "ticks": 32324,
          "time": 28.058999718749998,
          "velocity": 0.5275590551181102
        },
        {
          "duration": 0.11458321875000266,
          "durationTicks": 132,
          "midi": 57,
          "name": "A3",
          "ticks": 32704,
          "time": 28.3888605,
          "velocity": 0.5354330708661418
        },
        {
          "duration": 0.22222199999999503,
          "durationTicks": 256,
          "midi": 54,
          "name": "F#3",
          "ticks": 32836,
          "time": 28.503443718750002,
          "velocity": 0.5433070866141733
        },
        {
          "duration": 0.10763878125000303,
          "durationTicks": 124,
          "midi": 50,
          "name": "D3",
          "ticks": 33092,
          "time": 28.725665718749998,
          "velocity": 0.5511811023622047
        },
        {
          "duration": 0.2222219999999986,
          "durationTicks": 256,
          "midi": 47,
          "name": "B2",
          "ticks": 33216,
          "time": 28.8333045,
          "velocity": 0.5590551181102362
        },
        {
          "duration": 0.11458321875000266,
          "durationTicks": 132,
          "midi": 45,
          "name": "A2",
          "ticks": 33472,
          "time": 29.0555265,
          "velocity": 0.5669291338582677
        },
        {
          "duration": 0.9965267812499974,
          "durationTicks": 1148,
          "midi": 52,
          "name": "E3",
          "ticks": 33604,
          "time": 29.170109718750002,
          "velocity": 0.5748031496062992
        },
        {
          "duration": 1.1111099999999965,
          "durationTicks": 1280,
          "midi": 52,
          "name": "E3",
          "ticks": 35008,
          "time": 30.3888585,
          "velocity": 0.5275590551181102
        },
        {
          "duration": 0.1475692968749982,
          "durationTicks": 170,
          "midi": 52,
          "name": "E3",
          "ticks": 36544,
          "time": 31.7221905,
          "velocity": 0.5433070866141733
        },
        {
          "duration": 0.1475692968750053,
          "durationTicks": 170,
          "midi": 45,
          "name": "A2",
          "ticks": 36932,
          "time": 32.05899571875,
          "velocity": 0.5433070866141733
        },
        {
          "duration": 0.10763878125000303,
          "durationTicks": 124,
          "midi": 45,
          "name": "A2",
          "ticks": 38468,
          "time": 33.392327718749996,
          "velocity": 0.5590551181102362
        },
        {
          "duration": 0.22222200000000214,
          "durationTicks": 256,
          "midi": 43,
          "name": "G2",
          "ticks": 38592,
          "time": 33.4999665,
          "velocity": 0.5669291338582677
        },
        {
          "duration": 0.1475692968749982,
          "durationTicks": 170,
          "midi": 42,
          "name": "F#2",
          "ticks": 38848,
          "time": 33.7221885,
          "velocity": 0.5669291338582677
        },
        {
          "duration": 0.1475692968750053,
          "durationTicks": 170,
          "midi": 40,
          "name": "E2",
          "ticks": 39236,
          "time": 34.058993718749996,
          "velocity": 0.5748031496062992
        },
        {
          "duration": 0.40277737499999944,
          "durationTicks": 464,
          "midi": 62,
          "name": "D4",
          "ticks": 44614,
          "time": 38.727391828125,
          "velocity": 0.44881889763779526
        },
        {
          "duration": 0.02083331250000242,
          "durationTicks": 24,
          "midi": 61,
          "name": "C#4",
          "ticks": 45072,
          "time": 39.124960875,
          "velocity": 0.4645669291338583
        },
        {
          "duration": 0.020833312499995316,
          "durationTicks": 24,
          "midi": 60,
          "name": "C4",
          "ticks": 45096,
          "time": 39.1457941875,
          "velocity": 0.4645669291338583
        },
        {
          "duration": 0.22222200000000214,
          "durationTicks": 256,
          "midi": 59,
          "name": "B3",
          "ticks": 45126,
          "time": 39.171835828125,
          "velocity": 0.4645669291338583
        },
        {
          "duration": 0.10590267187500046,
          "durationTicks": 122,
          "midi": 57,
          "name": "A3",
          "ticks": 45382,
          "time": 39.394057828125,
          "velocity": 0.48031496062992124
        },
        {
          "duration": 0.22222200000000214,
          "durationTicks": 256,
          "midi": 54,
          "name": "F#3",
          "ticks": 45504,
          "time": 39.4999605,
          "velocity": 0.48031496062992124
        },
        {
          "duration": 0.14583318749999563,
          "durationTicks": 168,
          "midi": 50,
          "name": "D3",
          "ticks": 45760,
          "time": 39.7221825,
          "velocity": 0.49606299212598426
        },
        {
          "duration": 0.22222200000000214,
          "durationTicks": 256,
          "midi": 58,
          "name": "A#3",
          "ticks": 47808,
          "time": 41.4999585,
          "velocity": 0.44881889763779526
        },
        {
          "duration": 0.14583318750000274,
          "durationTicks": 168,
          "midi": 57,
          "name": "A3",
          "ticks": 48064,
          "time": 41.7221805,
          "velocity": 0.4645669291338583
        },
        {
          "duration": 0.1475692968749982,
          "durationTicks": 170,
          "midi": 45,
          "name": "A2",
          "ticks": 48454,
          "time": 42.060721828125,
          "velocity": 0.49606299212598426
        },
        {
          "duration": 0.1475692968750053,
          "durationTicks": 170,
          "midi": 54,
          "name": "F#3",
          "ticks": 56902,
          "time": 49.394047828125,
          "velocity": 0.44881889763779526
        },
        {
          "duration": 0.4444440000000043,
          "durationTicks": 512,
          "midi": 47,
          "name": "B2",
          "ticks": 57280,
          "time": 49.72217249999999,
          "velocity": 0.49606299212598426
        },
        {
          "duration": 0.3767357343750035,
          "durationTicks": 434,
          "midi": 62,
          "name": "D4",
          "ticks": 69190,
          "time": 60.06070382812499,
          "velocity": 0.44881889763779526
        },
        {
          "duration": 0.03472218750000167,
          "durationTicks": 40,
          "midi": 61,
          "name": "C#4",
          "ticks": 69624,
          "time": 60.437439562499996,
          "velocity": 0.4645669291338583
        },
        {
          "duration": 0.031249968749996526,
          "durationTicks": 36,
          "midi": 60,
          "name": "C4",
          "ticks": 69664,
          "time": 60.47216175,
          "velocity": 0.4645669291338583
        },
        {
          "duration": 0.22222199999999503,
          "durationTicks": 256,
          "midi": 59,
          "name": "B3",
          "ticks": 69702,
          "time": 60.505147828125,
          "velocity": 0.4645669291338583
        },
        {
          "duration": 0.0989582343750044,
          "durationTicks": 114,
          "midi": 57,
          "name": "A3",
          "ticks": 69958,
          "time": 60.72736982812499,
          "velocity": 0.48031496062992124
        },
        {
          "duration": 0.22222200000000214,
          "durationTicks": 256,
          "midi": 54,
          "name": "F#3",
          "ticks": 70072,
          "time": 60.8263280625,
          "velocity": 0.48031496062992124
        },
        {
          "duration": 0.14583318750000274,
          "durationTicks": 168,
          "midi": 50,
          "name": "D3",
          "ticks": 70336,
          "time": 61.055494499999995,
          "velocity": 0.49606299212598426
        },
        {
          "duration": 0.22222199999999503,
          "durationTicks": 256,
          "midi": 58,
          "name": "A#3",
          "ticks": 72384,
          "time": 62.8332705,
          "velocity": 0.44881889763779526
        },
        {
          "duration": 0.14583318750000274,
          "durationTicks": 168,
          "midi": 57,
          "name": "A3",
          "ticks": 72640,
          "time": 63.05549249999999,
          "velocity": 0.4645669291338583
        },
        {
          "duration": 0.1475692968749982,
          "durationTicks": 170,
          "midi": 45,
          "name": "A2",
          "ticks": 73030,
          "time": 63.394033828124996,
          "velocity": 0.49606299212598426
        },
        {
          "duration": 0.1475692968750053,
          "durationTicks": 170,
          "midi": 54,
          "name": "F#3",
          "ticks": 81478,
          "time": 70.72735982812499,
          "velocity": 0.44881889763779526
        },
        {
          "duration": 0.4444440000000043,
          "durationTicks": 512,
          "midi": 47,
          "name": "B2",
          "ticks": 81856,
          "time": 71.05548449999999,
          "velocity": 0.49606299212598426
        },
        {
          "duration": 0.4444440000000043,
          "durationTicks": 512,
          "midi": 50,
          "name": "D3",
          "ticks": 86086,
          "time": 74.727355828125,
          "velocity": 0.5275590551181102
        },
        {
          "duration": 0.22222199999998793,
          "durationTicks": 256,
          "midi": 54,
          "name": "F#3",
          "ticks": 86598,
          "time": 75.171799828125,
          "velocity": 0.44881889763779526
        },
        {
          "duration": 0.10590267187500046,
          "durationTicks": 122,
          "midi": 57,
          "name": "A3",
          "ticks": 86854,
          "time": 75.39402182812499,
          "velocity": 0.4566929133858268
        },
        {
          "duration": 0.22222200000000214,
          "durationTicks": 256,
          "midi": 55,
          "name": "G3",
          "ticks": 86976,
          "time": 75.49992449999999,
          "velocity": 0.4566929133858268
        },
        {
          "duration": 0.11631932812500168,
          "durationTicks": 134,
          "midi": 54,
          "name": "F#3",
          "ticks": 87232,
          "time": 75.7221465,
          "velocity": 0.4645669291338583
        },
        {
          "duration": 0.22222200000000214,
          "durationTicks": 256,
          "midi": 50,
          "name": "D3",
          "ticks": 87366,
          "time": 75.838465828125,
          "velocity": 0.47244094488188976
        },
        {
          "duration": 0.1475692968750053,
          "durationTicks": 170,
          "midi": 45,
          "name": "A2",
          "ticks": 87622,
          "time": 76.060687828125,
          "velocity": 0.48031496062992124
        },
        {
          "duration": 0.7829853281249939,
          "durationTicks": 902,
          "midi": 45,
          "name": "A2",
          "ticks": 88000,
          "time": 76.3888125,
          "velocity": 0.49606299212598426
        },
        {
          "duration": 0.44444399999999007,
          "durationTicks": 512,
          "midi": 57,
          "name": "A3",
          "ticks": 92228,
          "time": 80.05894771875,
          "velocity": 0.44881889763779526
        },
        {
          "duration": 0.6666659999999922,
          "durationTicks": 768,
          "midi": 55,
          "name": "G3",
          "ticks": 92740,
          "time": 80.50339171875,
          "velocity": 0.44881889763779526
        },
        {
          "duration": 0.6666660000000064,
          "durationTicks": 768,
          "midi": 54,
          "name": "F#3",
          "ticks": 93508,
          "time": 81.17005771874999,
          "velocity": 0.4566929133858268
        },
        {
          "duration": 0.6666660000000064,
          "durationTicks": 768,
          "midi": 52,
          "name": "E3",
          "ticks": 94276,
          "time": 81.83672371875,
          "velocity": 0.4645669291338583
        },
        {
          "duration": 0.44444399999999007,
          "durationTicks": 512,
          "midi": 47,
          "name": "B2",
          "ticks": 95300,
          "time": 82.72561171875,
          "velocity": 0.48031496062992124
        },
        {
          "duration": 0.6666660000000064,
          "durationTicks": 768,
          "midi": 47,
          "name": "B2",
          "ticks": 95812,
          "time": 83.17005571874999,
          "velocity": 0.48031496062992124
        },
        {
          "duration": 1.3333319999999986,
          "durationTicks": 1536,
          "midi": 40,
          "name": "E2",
          "ticks": 96580,
          "time": 83.83672171875,
          "velocity": 0.49606299212598426
        },
        {
          "duration": 0.4444440000000185,
          "durationTicks": 512,
          "midi": 49,
          "name": "C#3",
          "ticks": 98372,
          "time": 85.39227571874999,
          "velocity": 0.44881889763779526
        },
        {
          "duration": 0.32986078124999096,
          "durationTicks": 380,
          "midi": 50,
          "name": "D3",
          "ticks": 98884,
          "time": 85.83671971875,
          "velocity": 0.48031496062992124
        },
        {
          "duration": 0.22222200000000214,
          "durationTicks": 256,
          "midi": 51,
          "name": "D#3",
          "ticks": 99264,
          "time": 86.1665805,
          "velocity": 0.5039370078740157
        },
        {
          "duration": 0.7812492187500055,
          "durationTicks": 900,
          "midi": 52,
          "name": "E3",
          "ticks": 99520,
          "time": 86.3888025,
          "velocity": 0.5196850393700787
        },
        {
          "duration": 0.22222199999998793,
          "durationTicks": 256,
          "midi": 52,
          "name": "E3",
          "ticks": 100420,
          "time": 87.17005171875,
          "velocity": 0.5748031496062992
        },
        {
          "duration": 0.4444440000000185,
          "durationTicks": 512,
          "midi": 57,
          "name": "A3",
          "ticks": 100676,
          "time": 87.39227371874999,
          "velocity": 0.48031496062992124
        },
        {
          "duration": 0.07986103124999033,
          "durationTicks": 92,
          "midi": 59,
          "name": "B3",
          "ticks": 105976,
          "time": 91.99296356250001,
          "velocity": 0.44881889763779526
        },
        {
          "duration": 0.09374990624999668,
          "durationTicks": 108,
          "midi": 60,
          "name": "C4",
          "ticks": 106068,
          "time": 92.07282459375,
          "velocity": 0.44881889763779526
        },
        {
          "duration": 0.33680521875000125,
          "durationTicks": 388,
          "midi": 59,
          "name": "B3",
          "ticks": 106176,
          "time": 92.1665745,
          "velocity": 0.4566929133858268
        },
        {
          "duration": 0.07986103125000454,
          "durationTicks": 92,
          "midi": 59,
          "name": "B3",
          "ticks": 106564,
          "time": 92.50337971875,
          "velocity": 0.48031496062992124
        },
        {
          "duration": 0.0763888124999994,
          "durationTicks": 88,
          "midi": 60,
          "name": "C4",
          "ticks": 106656,
          "time": 92.58324075,
          "velocity": 0.4881889763779528
        },
        {
          "duration": 0.5104161562500025,
          "durationTicks": 588,
          "midi": 59,
          "name": "B3",
          "ticks": 106744,
          "time": 92.6596295625,
          "velocity": 0.49606299212598426
        },
        {
          "duration": 0.44444399999999007,
          "durationTicks": 512,
          "midi": 43,
          "name": "G2",
          "ticks": 114112,
          "time": 99.0554565,
          "velocity": 0.5590551181102362
        },
        {
          "duration": 0.4444440000000185,
          "durationTicks": 512,
          "midi": 43,
          "name": "G2",
          "ticks": 115268,
          "time": 100.05892771874998,
          "velocity": 0.6062992125984252
        },
        {
          "duration": 0.10763878125000303,
          "durationTicks": 124,
          "midi": 43,
          "name": "G2",
          "ticks": 118340,
          "time": 102.72559171875,
          "velocity": 0.5275590551181102
        },
        {
          "duration": 0.22222200000000214,
          "durationTicks": 256,
          "midi": 42,
          "name": "F#2",
          "ticks": 118464,
          "time": 102.8332305,
          "velocity": 0.5433070866141733
        },
        {
          "duration": 0.44444399999999007,
          "durationTicks": 512,
          "midi": 43,
          "name": "G2",
          "ticks": 118720,
          "time": 103.0554525,
          "velocity": 0.5748031496062992
        },
        {
          "duration": 0.10763878125000303,
          "durationTicks": 124,
          "midi": 51,
          "name": "D#3",
          "ticks": 124484,
          "time": 108.05891971874999,
          "velocity": 0.44881889763779526
        },
        {
          "duration": 0.22222200000001635,
          "durationTicks": 256,
          "midi": 52,
          "name": "E3",
          "ticks": 124608,
          "time": 108.1665585,
          "velocity": 0.44881889763779526
        },
        {
          "duration": 0.1145832187499991,
          "durationTicks": 132,
          "midi": 57,
          "name": "A3",
          "ticks": 124864,
          "time": 108.38878050000001,
          "velocity": 0.4645669291338583
        },
        {
          "duration": 0.32986078124999096,
          "durationTicks": 380,
          "midi": 55,
          "name": "G3",
          "ticks": 124996,
          "time": 108.50336371875001,
          "velocity": 0.47244094488188976
        },
        {
          "duration": 0.20659701562500743,
          "durationTicks": 238,
          "midi": 57,
          "name": "A3",
          "ticks": 125376,
          "time": 108.8332245,
          "velocity": 0.49606299212598426
        },
        {
          "duration": 0.22222200000001635,
          "durationTicks": 256,
          "midi": 53,
          "name": "F3",
          "ticks": 127680,
          "time": 110.83322249999999,
          "velocity": 0.44881889763779526
        },
        {
          "duration": 0.1145832187499991,
          "durationTicks": 132,
          "midi": 57,
          "name": "A3",
          "ticks": 127936,
          "time": 111.05544450000001,
          "velocity": 0.4566929133858268
        },
        {
          "duration": 0.22222199999998793,
          "durationTicks": 256,
          "midi": 60,
          "name": "C4",
          "ticks": 128068,
          "time": 111.17002771875,
          "velocity": 0.4645669291338583
        },
        {
          "duration": 0.10763878125000303,
          "durationTicks": 124,
          "midi": 57,
          "name": "A3",
          "ticks": 128324,
          "time": 111.39224971875,
          "velocity": 0.47244094488188976
        },
        {
          "duration": 0.1145832187499991,
          "durationTicks": 132,
          "midi": 53,
          "name": "F3",
          "ticks": 128448,
          "time": 111.4998885,
          "velocity": 0.48031496062992124
        },
        {
          "duration": 0.10763878125000303,
          "durationTicks": 124,
          "midi": 52,
          "name": "E3",
          "ticks": 128580,
          "time": 111.61447171875,
          "velocity": 0.48031496062992124
        },
        {
          "duration": 0.1145832187499991,
          "durationTicks": 132,
          "midi": 50,
          "name": "D3",
          "ticks": 128704,
          "time": 111.7221105,
          "velocity": 0.4881889763779528
        },
        {
          "duration": 0.6666660000000064,
          "durationTicks": 768,
          "midi": 52,
          "name": "E3",
          "ticks": 128836,
          "time": 111.83669371875,
          "velocity": 0.49606299212598426
        },
        {
          "duration": 0.6666659999999922,
          "durationTicks": 768,
          "midi": 57,
          "name": "A3",
          "ticks": 142662,
          "time": 123.838417828125,
          "velocity": 0.44881889763779526
        },
        {
          "duration": 0.22222200000000214,
          "durationTicks": 256,
          "midi": 57,
          "name": "A3",
          "ticks": 143430,
          "time": 124.505083828125,
          "velocity": 0.48031496062992124
        },
        {
          "duration": 0.4444440000000043,
          "durationTicks": 512,
          "midi": 55,
          "name": "G3",
          "ticks": 143686,
          "time": 124.727305828125,
          "velocity": 0.49606299212598426
        },
        {
          "duration": 0.10763878124998882,
          "durationTicks": 124,
          "midi": 51,
          "name": "D#3",
          "ticks": 149060,
          "time": 129.39223171875,
          "velocity": 0.44881889763779526
        },
        {
          "duration": 0.22222200000001635,
          "durationTicks": 256,
          "midi": 52,
          "name": "E3",
          "ticks": 149184,
          "time": 129.4998705,
          "velocity": 0.44881889763779526
        },
        {
          "duration": 0.1145832187499991,
          "durationTicks": 132,
          "midi": 57,
          "name": "A3",
          "ticks": 149440,
          "time": 129.7220925,
          "velocity": 0.4645669291338583
        },
        {
          "duration": 0.3298607812500052,
          "durationTicks": 380,
          "midi": 55,
          "name": "G3",
          "ticks": 149572,
          "time": 129.83667571875,
          "velocity": 0.47244094488188976
        },
        {
          "duration": 0.20659701562499322,
          "durationTicks": 238,
          "midi": 57,
          "name": "A3",
          "ticks": 149952,
          "time": 130.1665365,
          "velocity": 0.49606299212598426
        },
        {
          "duration": 0.22222200000001635,
          "durationTicks": 256,
          "midi": 53,
          "name": "F3",
          "ticks": 152256,
          "time": 132.16653449999998,
          "velocity": 0.44881889763779526
        },
        {
          "duration": 0.1145832187499991,
          "durationTicks": 132,
          "midi": 57,
          "name": "A3",
          "ticks": 152512,
          "time": 132.3887565,
          "velocity": 0.4566929133858268
        },
        {
          "duration": 0.22222199999998793,
          "durationTicks": 256,
          "midi": 60,
          "name": "C4",
          "ticks": 152644,
          "time": 132.50333971875,
          "velocity": 0.4645669291338583
        },
        {
          "duration": 0.10763878125001725,
          "durationTicks": 124,
          "midi": 57,
          "name": "A3",
          "ticks": 152900,
          "time": 132.72556171875,
          "velocity": 0.47244094488188976
        },
        {
          "duration": 0.1145832187499991,
          "durationTicks": 132,
          "midi": 53,
          "name": "F3",
          "ticks": 153024,
          "time": 132.8332005,
          "velocity": 0.48031496062992124
        },
        {
          "duration": 0.10763878124998882,
          "durationTicks": 124,
          "midi": 52,
          "name": "E3",
          "ticks": 153156,
          "time": 132.94778371875,
          "velocity": 0.48031496062992124
        },
        {
          "duration": 0.1145832187499991,
          "durationTicks": 132,
          "midi": 50,
          "name": "D3",
          "ticks": 153280,
          "time": 133.0554225,
          "velocity": 0.4881889763779528
        },
        {
          "duration": 0.6666660000000206,
          "durationTicks": 768,
          "midi": 52,
          "name": "E3",
          "ticks": 153412,
          "time": 133.17000571875,
          "velocity": 0.49606299212598426
        },
        {
          "duration": 0.5520827812500215,
          "durationTicks": 636,
          "midi": 55,
          "name": "G3",
          "ticks": 167236,
          "time": 145.16999371875,
          "velocity": 0.4251968503937008
        },
        {
          "duration": 0.44444399999997586,
          "durationTicks": 512,
          "midi": 48,
          "name": "C3",
          "ticks": 167872,
          "time": 145.72207650000001,
          "velocity": 0.4251968503937008
        },
        {
          "duration": 0.4444440000000327,
          "durationTicks": 512,
          "midi": 48,
          "name": "C3",
          "ticks": 173636,
          "time": 150.72554371874998,
          "velocity": 0.44881889763779526
        },
        {
          "duration": 0.22222199999998793,
          "durationTicks": 256,
          "midi": 47,
          "name": "B2",
          "ticks": 174148,
          "time": 151.16998771875,
          "velocity": 0.4566929133858268
        },
        {
          "duration": 0.10763878124998882,
          "durationTicks": 124,
          "midi": 52,
          "name": "E3",
          "ticks": 174404,
          "time": 151.39220971875,
          "velocity": 0.4645669291338583
        },
        {
          "duration": 0.22222200000001635,
          "durationTicks": 256,
          "midi": 56,
          "name": "G#3",
          "ticks": 174528,
          "time": 151.49984849999998,
          "velocity": 0.4645669291338583
        },
        {
          "duration": 0.1145832187499991,
          "durationTicks": 132,
          "midi": 59,
          "name": "B3",
          "ticks": 174784,
          "time": 151.7220705,
          "velocity": 0.47244094488188976
        },
        {
          "duration": 0.22222199999998793,
          "durationTicks": 256,
          "midi": 57,
          "name": "A3",
          "ticks": 174916,
          "time": 151.83665371875,
          "velocity": 0.48031496062992124
        },
        {
          "duration": 0.10763878125001725,
          "durationTicks": 124,
          "midi": 52,
          "name": "E3",
          "ticks": 175172,
          "time": 152.05887571875,
          "velocity": 0.48031496062992124
        },
        {
          "duration": 0.22222199999998793,
          "durationTicks": 256,
          "midi": 52,
          "name": "E3",
          "ticks": 175296,
          "time": 152.1665145,
          "velocity": 0.4881889763779528
        },
        {
          "duration": 0.4444440000000043,
          "durationTicks": 512,
          "midi": 52,
          "name": "E3",
          "ticks": 175552,
          "time": 152.3887365,
          "velocity": 0.49606299212598426
        },
        {
          "duration": 0.10763878124998882,
          "durationTicks": 124,
          "midi": 48,
          "name": "C3",
          "ticks": 176708,
          "time": 153.39220771875,
          "velocity": 0.44881889763779526
        },
        {
          "duration": 0.22222200000001635,
          "durationTicks": 256,
          "midi": 50,
          "name": "D3",
          "ticks": 176832,
          "time": 153.4998465,
          "velocity": 0.4645669291338583
        },
        {
          "duration": 0.7812492187499913,
          "durationTicks": 900,
          "midi": 52,
          "name": "E3",
          "ticks": 177088,
          "time": 153.7220685,
          "velocity": 0.49606299212598426
        },
        {
          "duration": 0.4444440000000043,
          "durationTicks": 512,
          "midi": 43,
          "name": "G2",
          "ticks": 179780,
          "time": 156.05887171875,
          "velocity": 0.5590551181102362
        },
        {
          "duration": 0.4444440000000043,
          "durationTicks": 512,
          "midi": 43,
          "name": "G2",
          "ticks": 180548,
          "time": 156.72553771875,
          "velocity": 0.6062992125984252
        },
        {
          "duration": 0.1145832187499991,
          "durationTicks": 132,
          "midi": 55,
          "name": "G3",
          "ticks": 181440,
          "time": 157.4998425,
          "velocity": 0.44881889763779526
        },
        {
          "duration": 0.10763878124998882,
          "durationTicks": 124,
          "midi": 54,
          "name": "F#3",
          "ticks": 181572,
          "time": 157.61442571875,
          "velocity": 0.4645669291338583
        },
        {
          "duration": 0.11458321875002753,
          "durationTicks": 132,
          "midi": 53,
          "name": "F3",
          "ticks": 181696,
          "time": 157.7220645,
          "velocity": 0.48031496062992124
        },
        {
          "duration": 0.6666659999999922,
          "durationTicks": 768,
          "midi": 52,
          "name": "E3",
          "ticks": 181828,
          "time": 157.83664771875002,
          "velocity": 0.49606299212598426
        },
        {
          "duration": 0.1145832187499991,
          "durationTicks": 132,
          "midi": 55,
          "name": "G3",
          "ticks": 183232,
          "time": 159.0553965,
          "velocity": 0.44881889763779526
        },
        {
          "duration": 0.22222199999998793,
          "durationTicks": 256,
          "midi": 57,
          "name": "A3",
          "ticks": 183364,
          "time": 159.16997971875,
          "velocity": 0.4566929133858268
        },
        {
          "duration": 0.10763878125001725,
          "durationTicks": 124,
          "midi": 55,
          "name": "G3",
          "ticks": 183620,
          "time": 159.39220171875,
          "velocity": 0.47244094488188976
        },
        {
          "duration": 0.22222199999998793,
          "durationTicks": 256,
          "midi": 52,
          "name": "E3",
          "ticks": 183744,
          "time": 159.4998405,
          "velocity": 0.48031496062992124
        },
        {
          "duration": 0.1475692968749911,
          "durationTicks": 170,
          "midi": 50,
          "name": "D3",
          "ticks": 184000,
          "time": 159.7220625,
          "velocity": 0.49606299212598426
        },
        {
          "duration": 0.1145832187499991,
          "durationTicks": 132,
          "midi": 52,
          "name": "E3",
          "ticks": 184512,
          "time": 160.1665065,
          "velocity": 0.44881889763779526
        },
        {
          "duration": 0.10763878125001725,
          "durationTicks": 124,
          "midi": 53,
          "name": "F3",
          "ticks": 184644,
          "time": 160.28108971875,
          "velocity": 0.4566929133858268
        },
        {
          "duration": 0.1145832187499991,
          "durationTicks": 132,
          "midi": 55,
          "name": "G3",
          "ticks": 184768,
          "time": 160.3887285,
          "velocity": 0.4645669291338583
        },
        {
          "duration": 0.22222199999998793,
          "durationTicks": 256,
          "midi": 57,
          "name": "A3",
          "ticks": 184900,
          "time": 160.50331171875,
          "velocity": 0.47244094488188976
        },
        {
          "duration": 0.1475692968749911,
          "durationTicks": 170,
          "midi": 55,
          "name": "G3",
          "ticks": 185156,
          "time": 160.72553371875,
          "velocity": 0.49606299212598426
        },
        {
          "duration": 0.22222200000001635,
          "durationTicks": 256,
          "midi": 49,
          "name": "C#3",
          "ticks": 186048,
          "time": 161.49983849999998,
          "velocity": 0.44881889763779526
        },
        {
          "duration": 0.1145832187499991,
          "durationTicks": 132,
          "midi": 52,
          "name": "E3",
          "ticks": 186304,
          "time": 161.7220605,
          "velocity": 0.48031496062992124
        },
        {
          "duration": 0.2135414531250035,
          "durationTicks": 246,
          "midi": 55,
          "name": "G3",
          "ticks": 186436,
          "time": 161.83664371875,
          "velocity": 0.49606299212598426
        },
        {
          "duration": 0.3298607812500336,
          "durationTicks": 380,
          "midi": 57,
          "name": "A3",
          "ticks": 187460,
          "time": 162.72553171874998,
          "velocity": 0.44881889763779526
        },
        {
          "duration": 0.3298607812500052,
          "durationTicks": 380,
          "midi": 60,
          "name": "C4",
          "ticks": 188228,
          "time": 163.39219771875,
          "velocity": 0.4566929133858268
        },
        {
          "duration": 0.22222199999998793,
          "durationTicks": 256,
          "midi": 64,
          "name": "E4",
          "ticks": 188740,
          "time": 163.83664171875,
          "velocity": 0.4645669291338583
        },
        {
          "duration": 0.10763878125001725,
          "durationTicks": 124,
          "midi": 67,
          "name": "G4",
          "ticks": 188996,
          "time": 164.05886371875,
          "velocity": 0.47244094488188976
        },
        {
          "duration": 0.22222199999998793,
          "durationTicks": 256,
          "midi": 64,
          "name": "E4",
          "ticks": 189120,
          "time": 164.1665025,
          "velocity": 0.47244094488188976
        },
        {
          "duration": 0.1145832187499991,
          "durationTicks": 132,
          "midi": 57,
          "name": "A3",
          "ticks": 189376,
          "time": 164.3887245,
          "velocity": 0.48031496062992124
        },
        {
          "duration": 0.22222199999998793,
          "durationTicks": 256,
          "midi": 64,
          "name": "E4",
          "ticks": 189508,
          "time": 164.50330771875,
          "velocity": 0.48031496062992124
        },
        {
          "duration": 0.10763878125001725,
          "durationTicks": 124,
          "midi": 67,
          "name": "G4",
          "ticks": 189764,
          "time": 164.72552971874998,
          "velocity": 0.48031496062992124
        },
        {
          "duration": 0.22222200000001635,
          "durationTicks": 256,
          "midi": 64,
          "name": "E4",
          "ticks": 189888,
          "time": 164.8331685,
          "velocity": 0.4881889763779528
        },
        {
          "duration": 0.1145832187499991,
          "durationTicks": 132,
          "midi": 57,
          "name": "A3",
          "ticks": 190144,
          "time": 165.05539050000002,
          "velocity": 0.4881889763779528
        },
        {
          "duration": 1.9999979999999766,
          "durationTicks": 2304,
          "midi": 60,
          "name": "C4",
          "ticks": 190276,
          "time": 165.16997371875001,
          "velocity": 0.49606299212598426
        },
        {
          "duration": 0.1145832187499991,
          "durationTicks": 132,
          "midi": 41,
          "name": "F2",
          "ticks": 192960,
          "time": 167.4998325,
          "velocity": 0.5275590551181102
        },
        {
          "duration": 0.10763878125001725,
          "durationTicks": 124,
          "midi": 42,
          "name": "F#2",
          "ticks": 193092,
          "time": 167.61441571875,
          "velocity": 0.5433070866141733
        },
        {
          "duration": 0.1145832187499991,
          "durationTicks": 132,
          "midi": 43,
          "name": "G2",
          "ticks": 193216,
          "time": 167.7220545,
          "velocity": 0.5590551181102362
        },
        {
          "duration": 2.6666639999999973,
          "durationTicks": 3072,
          "midi": 44,
          "name": "G#2",
          "ticks": 193348,
          "time": 167.83663771875,
          "velocity": 0.5748031496062992
        },
        {
          "duration": 0.3333330000000103,
          "durationTicks": 384,
          "midi": 53,
          "name": "F3",
          "ticks": 201280,
          "time": 174.72204749999997,
          "velocity": 0.5275590551181102
        },
        {
          "duration": 0.20486090625001907,
          "durationTicks": 236,
          "midi": 50,
          "name": "D3",
          "ticks": 201664,
          "time": 175.05538049999998,
          "velocity": 0.5590551181102362
        },
        {
          "duration": 0.11111100000002239,
          "durationTicks": 128,
          "midi": 51,
          "name": "D#3",
          "ticks": 204352,
          "time": 177.38871149999997,
          "velocity": 0.44881889763779526
        },
        {
          "duration": 0.22222199999998793,
          "durationTicks": 256,
          "midi": 46,
          "name": "A#2",
          "ticks": 204480,
          "time": 177.4998225,
          "velocity": 0.4645669291338583
        },
        {
          "duration": 0.14583318749998853,
          "durationTicks": 168,
          "midi": 51,
          "name": "D#3",
          "ticks": 204736,
          "time": 177.72204449999998,
          "velocity": 0.49606299212598426
        },
        {
          "duration": 0.11111100000002239,
          "durationTicks": 128,
          "midi": 51,
          "name": "D#3",
          "ticks": 207424,
          "time": 180.05537549999997,
          "velocity": 0.44881889763779526
        },
        {
          "duration": 0.22222199999998793,
          "durationTicks": 256,
          "midi": 46,
          "name": "A#2",
          "ticks": 207552,
          "time": 180.1664865,
          "velocity": 0.4645669291338583
        },
        {
          "duration": 0.14583318750001695,
          "durationTicks": 168,
          "midi": 51,
          "name": "D#3",
          "ticks": 207808,
          "time": 180.38870849999998,
          "velocity": 0.49606299212598426
        },
        {
          "duration": 0.11111100000002239,
          "durationTicks": 128,
          "midi": 54,
          "name": "F#3",
          "ticks": 208960,
          "time": 181.38870749999998,
          "velocity": 0.44881889763779526
        },
        {
          "duration": 0.20486090624999065,
          "durationTicks": 236,
          "midi": 51,
          "name": "D#3",
          "ticks": 209088,
          "time": 181.4998185,
          "velocity": 0.44881889763779526
        },
        {
          "duration": 0.22222199999998793,
          "durationTicks": 256,
          "midi": 54,
          "name": "F#3",
          "ticks": 209472,
          "time": 181.83315149999999,
          "velocity": 0.47244094488188976
        },
        {
          "duration": 0.11111100000002239,
          "durationTicks": 128,
          "midi": 51,
          "name": "D#3",
          "ticks": 209728,
          "time": 182.05537349999997,
          "velocity": 0.4881889763779528
        },
        {
          "duration": 0.20486090625001907,
          "durationTicks": 236,
          "midi": 46,
          "name": "A#2",
          "ticks": 209856,
          "time": 182.1664845,
          "velocity": 0.49606299212598426
        },
        {
          "duration": 0.11111099999999396,
          "durationTicks": 128,
          "midi": 54,
          "name": "F#3",
          "ticks": 210496,
          "time": 182.7220395,
          "velocity": 0.44881889763779526
        },
        {
          "duration": 0.20486090625001907,
          "durationTicks": 236,
          "midi": 50,
          "name": "D3",
          "ticks": 210624,
          "time": 182.8331505,
          "velocity": 0.44881889763779526
        },
        {
          "duration": 0.22222199999998793,
          "durationTicks": 256,
          "midi": 54,
          "name": "F#3",
          "ticks": 211008,
          "time": 183.1664835,
          "velocity": 0.47244094488188976
        },
        {
          "duration": 0.11111100000002239,
          "durationTicks": 128,
          "midi": 50,
          "name": "D3",
          "ticks": 211264,
          "time": 183.3887055,
          "velocity": 0.4881889763779528
        },
        {
          "duration": 0.20486090624999065,
          "durationTicks": 236,
          "midi": 46,
          "name": "A#2",
          "ticks": 211392,
          "time": 183.4998165,
          "velocity": 0.49606299212598426
        },
        {
          "duration": 0.11111100000002239,
          "durationTicks": 128,
          "midi": 53,
          "name": "F3",
          "ticks": 212032,
          "time": 184.05537149999998,
          "velocity": 0.44881889763779526
        },
        {
          "duration": 0.20486090625001907,
          "durationTicks": 236,
          "midi": 49,
          "name": "C#3",
          "ticks": 212160,
          "time": 184.1664825,
          "velocity": 0.44881889763779526
        },
        {
          "duration": 0.22222199999998793,
          "durationTicks": 256,
          "midi": 53,
          "name": "F3",
          "ticks": 212544,
          "time": 184.49981549999998,
          "velocity": 0.47244094488188976
        },
        {
          "duration": 0.11111100000002239,
          "durationTicks": 128,
          "midi": 49,
          "name": "C#3",
          "ticks": 212800,
          "time": 184.72203749999997,
          "velocity": 0.4881889763779528
        },
        {
          "duration": 0.20486090625001907,
          "durationTicks": 236,
          "midi": 43,
          "name": "G2",
          "ticks": 212928,
          "time": 184.8331485,
          "velocity": 0.49606299212598426
        },
        {
          "duration": 1.1111099999999965,
          "durationTicks": 1280,
          "midi": 38,
          "name": "D2",
          "ticks": 213568,
          "time": 185.3887035,
          "velocity": 0.5275590551181102
        },
        {
          "duration": 2.3333310000000154,
          "durationTicks": 2688,
          "midi": 37,
          "name": "C#2",
          "ticks": 215104,
          "time": 186.72203549999998,
          "velocity": 0.5748031496062992
        },
        {
          "duration": 0.11111099999999396,
          "durationTicks": 128,
          "midi": 56,
          "name": "G#3",
          "ticks": 218816,
          "time": 189.9442545,
          "velocity": 0.6062992125984252
        },
        {
          "duration": 0.11111099999999396,
          "durationTicks": 128,
          "midi": 55,
          "name": "G3",
          "ticks": 218944,
          "time": 190.0553655,
          "velocity": 0.6141732283464567
        },
        {
          "duration": 0.11111100000002239,
          "durationTicks": 128,
          "midi": 54,
          "name": "F#3",
          "ticks": 219072,
          "time": 190.1664765,
          "velocity": 0.6220472440944882
        },
        {
          "duration": 0.11111099999996554,
          "durationTicks": 128,
          "midi": 53,
          "name": "F3",
          "ticks": 219200,
          "time": 190.2775875,
          "velocity": 0.6299212598425197
        },
        {
          "duration": 0.11111100000002239,
          "durationTicks": 128,
          "midi": 52,
          "name": "E3",
          "ticks": 219328,
          "time": 190.38869849999998,
          "velocity": 0.6377952755905512
        },
        {
          "duration": 1.1666654999999935,
          "durationTicks": 1344,
          "midi": 37,
          "name": "C#2",
          "ticks": 219456,
          "time": 190.4998095,
          "velocity": 0.6535433070866141
        }
      ]
    },
    {
      "channel": 7,
      "controlChanges": {
        "0": [
          {
            "number": 0,
            "ticks": 488,
            "time": 0.42361068749999997,
            "value": 0
          }
        ],
        "6": [
          {
            "number": 6,
            "ticks": 1188,
            "time": 1.03124896875,
            "value": 0.09448818897637795
          },
          {
            "number": 6,
            "ticks": 1200,
            "time": 1.041665625,
            "value": 0.5039370078740157
          }
        ],
        "7": [
          {
            "number": 7,
            "ticks": 492,
            "time": 0.42708290625,
            "value": 1
          }
        ],
        "10": [
          {
            "number": 10,
            "ticks": 496,
            "time": 0.43055512500000004,
            "value": 0.5826771653543307
          }
        ],
        "11": [
          {
            "number": 11,
            "ticks": 500,
            "time": 0.43402734374999996,
            "value": 1
          }
        ],
        "32": [
          {
            "number": 32,
            "ticks": 488,
            "time": 0.42361068749999997,
            "value": 0
          }
        ],
        "91": [
          {
            "number": 91,
            "ticks": 504,
            "time": 0.4374995625,
            "value": 0.7086614173228346
          }
        ],
        "93": [
          {
            "number": 93,
            "ticks": 508,
            "time": 0.44097178125000003,
            "value": 0
          }
        ],
        "100": [
          {
            "number": 100,
            "ticks": 1184,
            "time": 1.0277767500000001,
            "value": 0
          },
          {
            "number": 100,
            "ticks": 1196,
            "time": 1.03819340625,
            "value": 0.015748031496062992
          },
          {
            "number": 100,
            "ticks": 1208,
            "time": 1.0486100625,
            "value": 1
          }
        ],
        "101": [
          {
            "number": 101,
            "ticks": 1180,
            "time": 1.0243045312499999,
            "value": 0
          },
          {
            "number": 101,
            "ticks": 1192,
            "time": 1.0347211875,
            "value": 0
          },
          {
            "number": 101,
            "ticks": 1204,
            "time": 1.0451378437499999,
            "value": 1
          }
        ],
        "121": [
          {
            "number": 121,
            "ticks": 220,
            "time": 0.19097203124999998,
            "value": 0
          }
        ]
      },
      "pitchBends": [
        {
          "ticks": 27232,
          "time": 23.638865250000002,
          "value": 0
        },
        {
          "ticks": 27252,
          "time": 23.65622634375,
          "value": 0.4715576171875
        },
        {
          "ticks": 27288,
          "time": 23.6874763125,
          "value": 0.56591796875
        },
        {
          "ticks": 27324,
          "time": 23.71872628125,
          "value": 0.6602783203125
        },
        {
          "ticks": 27360,
          "time": 23.74997625,
          "value": 0.7545166015625
        },
        {
          "ticks": 27396,
          "time": 23.78122621875,
          "value": 0.848876953125
        },
        {
          "ticks": 27432,
          "time": 23.8124761875,
          "value": 0.9432373046875
        },
        {
          "ticks": 27452,
          "time": 23.829837281249997,
          "value": 0.9998779296875
        },
        {
          "ticks": 27454,
          "time": 23.831573390625,
          "value": 0
        }
      ],
      "instrument": {
        "family": "brass",
        "name": "brass section",
        "number": 61
      },
      "name": "",
      "notes": [
        {
          "duration": 0.21701367187499976,
          "durationTicks": 250,
          "midi": 58,
          "name": "A#3",
          "ticks": 2880,
          "time": 2.4999975,
          "velocity": 0.5275590551181102
        },
        {
          "duration": 0.21701367187499976,
          "durationTicks": 250,
          "midi": 61,
          "name": "C#4",
          "ticks": 2882,
          "time": 2.501733609375,
          "velocity": 0.5275590551181102
        },
        {
          "duration": 0.21527756249999985,
          "durationTicks": 248,
          "midi": 63,
          "name": "D#4",
          "ticks": 2884,
          "time": 2.50346971875,
          "velocity": 0.5275590551181102
        },
        {
          "duration": 0.2152775625000003,
          "durationTicks": 248,
          "midi": 66,
          "name": "F#4",
          "ticks": 2886,
          "time": 2.505205828125,
          "velocity": 0.5275590551181102
        },
        {
          "duration": 0.20486090625000042,
          "durationTicks": 236,
          "midi": 58,
          "name": "A#3",
          "ticks": 3264,
          "time": 2.8333304999999998,
          "velocity": 0.5354330708661418
        },
        {
          "duration": 0.20659701562499988,
          "durationTicks": 238,
          "midi": 61,
          "name": "C#4",
          "ticks": 3266,
          "time": 2.835066609375,
          "velocity": 0.5354330708661418
        },
        {
          "duration": 0.20659701562500077,
          "durationTicks": 238,
          "midi": 63,
          "name": "D#4",
          "ticks": 3268,
          "time": 2.8368027187499996,
          "velocity": 0.5354330708661418
        },
        {
          "duration": 0.20659701562499988,
          "durationTicks": 238,
          "midi": 66,
          "name": "F#4",
          "ticks": 3270,
          "time": 2.838538828125,
          "velocity": 0.5354330708661418
        },
        {
          "duration": 0.22222200000000036,
          "durationTicks": 256,
          "midi": 58,
          "name": "A#3",
          "ticks": 3652,
          "time": 3.1701357187499997,
          "velocity": 0.5433070866141733
        },
        {
          "duration": 0.22222200000000036,
          "durationTicks": 256,
          "midi": 61,
          "name": "C#4",
          "ticks": 3652,
          "time": 3.1701357187499997,
          "velocity": 0.5433070866141733
        },
        {
          "duration": 0.22222199999999948,
          "durationTicks": 256,
          "midi": 63,
          "name": "D#4",
          "ticks": 3654,
          "time": 3.171871828125,
          "velocity": 0.5433070866141733
        },
        {
          "duration": 0.22222199999999992,
          "durationTicks": 256,
          "midi": 66,
          "name": "F#4",
          "ticks": 3656,
          "time": 3.1736079375,
          "velocity": 0.5433070866141733
        },
        {
          "duration": 0.10763878124999993,
          "durationTicks": 124,
          "midi": 58,
          "name": "A#3",
          "ticks": 3908,
          "time": 3.39235771875,
          "velocity": 0.5433070866141733
        },
        {
          "duration": 0.10937489062500028,
          "durationTicks": 126,
          "midi": 61,
          "name": "C#4",
          "ticks": 3908,
          "time": 3.39235771875,
          "velocity": 0.5433070866141733
        },
        {
          "duration": 0.10937489062500028,
          "durationTicks": 126,
          "midi": 63,
          "name": "D#4",
          "ticks": 3910,
          "time": 3.3940938281249995,
          "velocity": 0.5433070866141733
        },
        {
          "duration": 0.10937489062500028,
          "durationTicks": 126,
          "midi": 66,
          "name": "F#4",
          "ticks": 3912,
          "time": 3.3958299375,
          "velocity": 0.5433070866141733
        },
        {
          "duration": 0.20486090624999997,
          "durationTicks": 236,
          "midi": 59,
          "name": "B3",
          "ticks": 4032,
          "time": 3.4999965,
          "velocity": 0.5511811023622047
        },
        {
          "duration": 0.20659701562499944,
          "durationTicks": 238,
          "midi": 62,
          "name": "D4",
          "ticks": 4034,
          "time": 3.5017326093750003,
          "velocity": 0.5511811023622047
        },
        {
          "duration": 0.20659701562500032,
          "durationTicks": 238,
          "midi": 65,
          "name": "F4",
          "ticks": 4036,
          "time": 3.5034687187499998,
          "velocity": 0.5511811023622047
        },
        {
          "duration": 0.20659701562499944,
          "durationTicks": 238,
          "midi": 68,
          "name": "G#4",
          "ticks": 4038,
          "time": 3.505204828125,
          "velocity": 0.5511811023622047
        },
        {
          "duration": 0.22222199999999992,
          "durationTicks": 256,
          "midi": 63,
          "name": "D#4",
          "ticks": 4420,
          "time": 3.83680171875,
          "velocity": 0.5590551181102362
        },
        {
          "duration": 0.22222199999999992,
          "durationTicks": 256,
          "midi": 61,
          "name": "C#4",
          "ticks": 4420,
          "time": 3.83680171875,
          "velocity": 0.5590551181102362
        },
        {
          "duration": 0.22222199999999992,
          "durationTicks": 256,
          "midi": 66,
          "name": "F#4",
          "ticks": 4422,
          "time": 3.8385378281249998,
          "velocity": 0.5590551181102362
        },
        {
          "duration": 0.22222199999999948,
          "durationTicks": 256,
          "midi": 70,
          "name": "A#4",
          "ticks": 4424,
          "time": 3.8402739375,
          "velocity": 0.5590551181102362
        },
        {
          "duration": 0.21354145312499995,
          "durationTicks": 246,
          "midi": 61,
          "name": "C#4",
          "ticks": 4676,
          "time": 4.05902371875,
          "velocity": 0.5590551181102362
        },
        {
          "duration": 0.21527756249999985,
          "durationTicks": 248,
          "midi": 63,
          "name": "D#4",
          "ticks": 4676,
          "time": 4.05902371875,
          "velocity": 0.5590551181102362
        },
        {
          "duration": 0.21354145312499995,
          "durationTicks": 246,
          "midi": 66,
          "name": "F#4",
          "ticks": 4678,
          "time": 4.060759828125,
          "velocity": 0.5590551181102362
        },
        {
          "duration": 0.21354145312499995,
          "durationTicks": 246,
          "midi": 70,
          "name": "A#4",
          "ticks": 4680,
          "time": 4.0624959375,
          "velocity": 0.5590551181102362
        },
        {
          "duration": 0.44444399999999984,
          "durationTicks": 512,
          "midi": 61,
          "name": "C#4",
          "ticks": 5056,
          "time": 4.3888845,
          "velocity": 0.5748031496062992
        },
        {
          "duration": 0.4444440000000007,
          "durationTicks": 512,
          "midi": 63,
          "name": "D#4",
          "ticks": 5058,
          "time": 4.3906206093749995,
          "velocity": 0.5748031496062992
        },
        {
          "duration": 0.44444399999999895,
          "durationTicks": 512,
          "midi": 66,
          "name": "F#4",
          "ticks": 5060,
          "time": 4.39235671875,
          "velocity": 0.5748031496062992
        },
        {
          "duration": 0.4444440000000007,
          "durationTicks": 512,
          "midi": 70,
          "name": "A#4",
          "ticks": 5062,
          "time": 4.394092828124999,
          "velocity": 0.5748031496062992
        },
        {
          "duration": 0.33680521874999947,
          "durationTicks": 388,
          "midi": 63,
          "name": "D#4",
          "ticks": 5824,
          "time": 5.0555505,
          "velocity": 0.5275590551181102
        },
        {
          "duration": 0.11284710937500009,
          "durationTicks": 130,
          "midi": 65,
          "name": "F4",
          "ticks": 5826,
          "time": 5.057286609375,
          "velocity": 0.5275590551181102
        },
        {
          "duration": 0.11111100000000018,
          "durationTicks": 128,
          "midi": 68,
          "name": "G#4",
          "ticks": 5828,
          "time": 5.05902271875,
          "velocity": 0.5275590551181102
        },
        {
          "duration": 0.11111100000000018,
          "durationTicks": 128,
          "midi": 71,
          "name": "B4",
          "ticks": 5830,
          "time": 5.0607588281249996,
          "velocity": 0.5275590551181102
        },
        {
          "duration": 0.22222199999999948,
          "durationTicks": 256,
          "midi": 68,
          "name": "G#4",
          "ticks": 5956,
          "time": 5.17013371875,
          "velocity": 0.5275590551181102
        },
        {
          "duration": 0.22222199999999948,
          "durationTicks": 256,
          "midi": 65,
          "name": "F4",
          "ticks": 5956,
          "time": 5.17013371875,
          "velocity": 0.5275590551181102
        },
        {
          "duration": 0.22222200000000036,
          "durationTicks": 256,
          "midi": 70,
          "name": "A#4",
          "ticks": 5958,
          "time": 5.171869828125,
          "velocity": 0.5275590551181102
        },
        {
          "duration": 0.22222200000000036,
          "durationTicks": 256,
          "midi": 73,
          "name": "C#5",
          "ticks": 5960,
          "time": 5.1736059375,
          "velocity": 0.5275590551181102
        },
        {
          "duration": 0.11111100000000107,
          "durationTicks": 128,
          "midi": 68,
          "name": "G#4",
          "ticks": 6212,
          "time": 5.392355718749999,
          "velocity": 0.5354330708661418
        },
        {
          "duration": 0.11111100000000107,
          "durationTicks": 128,
          "midi": 65,
          "name": "F4",
          "ticks": 6212,
          "time": 5.392355718749999,
          "velocity": 0.5354330708661418
        },
        {
          "duration": 0.10937489062500028,
          "durationTicks": 126,
          "midi": 70,
          "name": "A#4",
          "ticks": 6214,
          "time": 5.394091828125,
          "velocity": 0.5354330708661418
        },
        {
          "duration": 0.10937489062500028,
          "durationTicks": 126,
          "midi": 73,
          "name": "C#5",
          "ticks": 6216,
          "time": 5.3958279375,
          "velocity": 0.5354330708661418
        },
        {
          "duration": 0.10763878125000037,
          "durationTicks": 124,
          "midi": 65,
          "name": "F4",
          "ticks": 6336,
          "time": 5.4999945,
          "velocity": 0.5433070866141733
        },
        {
          "duration": 0.10937489062500028,
          "durationTicks": 126,
          "midi": 68,
          "name": "G#4",
          "ticks": 6338,
          "time": 5.501730609375,
          "velocity": 0.5433070866141733
        },
        {
          "duration": 0.20659701562499944,
          "durationTicks": 238,
          "midi": 70,
          "name": "A#4",
          "ticks": 6340,
          "time": 5.50346671875,
          "velocity": 0.5433070866141733
        },
        {
          "duration": 0.20659701562500032,
          "durationTicks": 238,
          "midi": 73,
          "name": "C#5",
          "ticks": 6342,
          "time": 5.505202828125,
          "velocity": 0.5433070866141733
        },
        {
          "duration": 0.21354145312499995,
          "durationTicks": 246,
          "midi": 66,
          "name": "F#4",
          "ticks": 6724,
          "time": 5.83679971875,
          "velocity": 0.5511811023622047
        },
        {
          "duration": 0.21527756249999985,
          "durationTicks": 248,
          "midi": 68,
          "name": "G#4",
          "ticks": 6724,
          "time": 5.83679971875,
          "velocity": 0.5511811023622047
        },
        {
          "duration": 0.21354145312499995,
          "durationTicks": 246,
          "midi": 71,
          "name": "B4",
          "ticks": 6726,
          "time": 5.838535828125,
          "velocity": 0.5511811023622047
        },
        {
          "duration": 0.21354145312499995,
          "durationTicks": 246,
          "midi": 75,
          "name": "D#5",
          "ticks": 6728,
          "time": 5.8402719375,
          "velocity": 0.5511811023622047
        },
        {
          "duration": 0.22222200000000036,
          "durationTicks": 256,
          "midi": 65,
          "name": "F4",
          "ticks": 7104,
          "time": 6.1666605,
          "velocity": 0.5669291338582677
        },
        {
          "duration": 0.22222200000000036,
          "durationTicks": 256,
          "midi": 68,
          "name": "G#4",
          "ticks": 7106,
          "time": 6.168396609375,
          "velocity": 0.5669291338582677
        },
        {
          "duration": 0.2222219999999986,
          "durationTicks": 256,
          "midi": 70,
          "name": "A#4",
          "ticks": 7108,
          "time": 6.170132718750001,
          "velocity": 0.5669291338582677
        },
        {
          "duration": 0.22222200000000036,
          "durationTicks": 256,
          "midi": 73,
          "name": "C#5",
          "ticks": 7110,
          "time": 6.171868828125,
          "velocity": 0.5669291338582677
        },
        {
          "duration": 0.7812492187500002,
          "durationTicks": 900,
          "midi": 61,
          "name": "C#4",
          "ticks": 7360,
          "time": 6.3888825,
          "velocity": 0.5748031496062992
        },
        {
          "duration": 0.7795131093750003,
          "durationTicks": 898,
          "midi": 63,
          "name": "D#4",
          "ticks": 7362,
          "time": 6.390618609375,
          "velocity": 0.5748031496062992
        },
        {
          "duration": 0.7795131093750003,
          "durationTicks": 898,
          "midi": 66,
          "name": "F#4",
          "ticks": 7364,
          "time": 6.392354718749999,
          "velocity": 0.5748031496062992
        },
        {
          "duration": 0.7795131093749994,
          "durationTicks": 898,
          "midi": 70,
          "name": "A#4",
          "ticks": 7366,
          "time": 6.394090828125,
          "velocity": 0.5748031496062992
        },
        {
          "duration": 0.22222199999999948,
          "durationTicks": 256,
          "midi": 66,
          "name": "F#4",
          "ticks": 9028,
          "time": 7.83679771875,
          "velocity": 0.5275590551181102
        },
        {
          "duration": 0.22222199999999948,
          "durationTicks": 256,
          "midi": 63,
          "name": "D#4",
          "ticks": 9028,
          "time": 7.83679771875,
          "velocity": 0.5275590551181102
        },
        {
          "duration": 0.22222200000000036,
          "durationTicks": 256,
          "midi": 68,
          "name": "G#4",
          "ticks": 9030,
          "time": 7.838533828125,
          "velocity": 0.5275590551181102
        },
        {
          "duration": 0.22222199999999948,
          "durationTicks": 256,
          "midi": 71,
          "name": "B4",
          "ticks": 9032,
          "time": 7.8402699375,
          "velocity": 0.5275590551181102
        },
        {
          "duration": 0.10937489062500028,
          "durationTicks": 126,
          "midi": 66,
          "name": "F#4",
          "ticks": 9284,
          "time": 8.05901971875,
          "velocity": 0.5354330708661418
        },
        {
          "duration": 0.10763878125000126,
          "durationTicks": 124,
          "midi": 63,
          "name": "D#4",
          "ticks": 9284,
          "time": 8.05901971875,
          "velocity": 0.5354330708661418
        },
        {
          "duration": 0.10937489062500028,
          "durationTicks": 126,
          "midi": 68,
          "name": "G#4",
          "ticks": 9286,
          "time": 8.060755828125,
          "velocity": 0.5354330708661418
        },
        {
          "duration": 0.10937489062500028,
          "durationTicks": 126,
          "midi": 71,
          "name": "B4",
          "ticks": 9288,
          "time": 8.062491937499999,
          "velocity": 0.5354330708661418
        },
        {
          "duration": 0.20486090624999953,
          "durationTicks": 236,
          "midi": 63,
          "name": "D#4",
          "ticks": 9408,
          "time": 8.1666585,
          "velocity": 0.5354330708661418
        },
        {
          "duration": 0.20659701562500032,
          "durationTicks": 238,
          "midi": 66,
          "name": "F#4",
          "ticks": 9410,
          "time": 8.168394609375,
          "velocity": 0.5354330708661418
        },
        {
          "duration": 0.20659701562499855,
          "durationTicks": 238,
          "midi": 68,
          "name": "G#4",
          "ticks": 9412,
          "time": 8.17013071875,
          "velocity": 0.5354330708661418
        },
        {
          "duration": 0.20659701562500032,
          "durationTicks": 238,
          "midi": 71,
          "name": "B4",
          "ticks": 9414,
          "time": 8.171866828125,
          "velocity": 0.5354330708661418
        },
        {
          "duration": 0.21527756249999896,
          "durationTicks": 248,
          "midi": 68,
          "name": "G#4",
          "ticks": 9796,
          "time": 8.50346371875,
          "velocity": 0.5511811023622047
        },
        {
          "duration": 0.21354145312499995,
          "durationTicks": 246,
          "midi": 65,
          "name": "F4",
          "ticks": 9796,
          "time": 8.50346371875,
          "velocity": 0.5511811023622047
        },
        {
          "duration": 0.21354145312499995,
          "durationTicks": 246,
          "midi": 70,
          "name": "A#4",
          "ticks": 9798,
          "time": 8.505199828124999,
          "velocity": 0.5511811023622047
        },
        {
          "duration": 0.21354145312499995,
          "durationTicks": 246,
          "midi": 73,
          "name": "C#5",
          "ticks": 9800,
          "time": 8.5069359375,
          "velocity": 0.5511811023622047
        },
        {
          "duration": 0.22222200000000036,
          "durationTicks": 256,
          "midi": 63,
          "name": "D#4",
          "ticks": 10176,
          "time": 8.8333245,
          "velocity": 0.5590551181102362
        },
        {
          "duration": 0.22222200000000036,
          "durationTicks": 256,
          "midi": 66,
          "name": "F#4",
          "ticks": 10178,
          "time": 8.835060609374999,
          "velocity": 0.5590551181102362
        },
        {
          "duration": 0.22222200000000036,
          "durationTicks": 256,
          "midi": 68,
          "name": "G#4",
          "ticks": 10180,
          "time": 8.83679671875,
          "velocity": 0.5590551181102362
        },
        {
          "duration": 0.22222200000000036,
          "durationTicks": 256,
          "midi": 71,
          "name": "B4",
          "ticks": 10182,
          "time": 8.838532828125,
          "velocity": 0.5590551181102362
        },
        {
          "duration": 0.7812492187500002,
          "durationTicks": 900,
          "midi": 59,
          "name": "B3",
          "ticks": 10432,
          "time": 9.0555465,
          "velocity": 0.5748031496062992
        },
        {
          "duration": 0.7795131093750012,
          "durationTicks": 898,
          "midi": 62,
          "name": "D4",
          "ticks": 10434,
          "time": 9.057282609375,
          "velocity": 0.5748031496062992
        },
        {
          "duration": 0.7795131093749994,
          "durationTicks": 898,
          "midi": 65,
          "name": "F4",
          "ticks": 10436,
          "time": 9.05901871875,
          "velocity": 0.5748031496062992
        },
        {
          "duration": 0.7795131093749994,
          "durationTicks": 898,
          "midi": 68,
          "name": "G#4",
          "ticks": 10438,
          "time": 9.060754828125,
          "velocity": 0.5748031496062992
        },
        {
          "duration": 0.22222200000000036,
          "durationTicks": 256,
          "midi": 63,
          "name": "D#4",
          "ticks": 12100,
          "time": 10.50346171875,
          "velocity": 0.5275590551181102
        },
        {
          "duration": 0.22222200000000036,
          "durationTicks": 256,
          "midi": 61,
          "name": "C#4",
          "ticks": 12100,
          "time": 10.50346171875,
          "velocity": 0.5275590551181102
        },
        {
          "duration": 0.2222219999999986,
          "durationTicks": 256,
          "midi": 66,
          "name": "F#4",
          "ticks": 12102,
          "time": 10.505197828125,
          "velocity": 0.5275590551181102
        },
        {
          "duration": 0.22222200000000036,
          "durationTicks": 256,
          "midi": 70,
          "name": "A#4",
          "ticks": 12104,
          "time": 10.5069339375,
          "velocity": 0.5275590551181102
        },
        {
          "duration": 0.10937489062500028,
          "durationTicks": 126,
          "midi": 63,
          "name": "D#4",
          "ticks": 12356,
          "time": 10.72568371875,
          "velocity": 0.5354330708661418
        },
        {
          "duration": 0.10763878124999948,
          "durationTicks": 124,
          "midi": 61,
          "name": "C#4",
          "ticks": 12356,
          "time": 10.72568371875,
          "velocity": 0.5354330708661418
        },
        {
          "duration": 0.10937489062500028,
          "durationTicks": 126,
          "midi": 66,
          "name": "F#4",
          "ticks": 12358,
          "time": 10.727419828124999,
          "velocity": 0.5354330708661418
        },
        {
          "duration": 0.10937489062500028,
          "durationTicks": 126,
          "midi": 70,
          "name": "A#4",
          "ticks": 12360,
          "time": 10.7291559375,
          "velocity": 0.5354330708661418
        },
        {
          "duration": 0.2048609062500013,
          "durationTicks": 236,
          "midi": 61,
          "name": "C#4",
          "ticks": 12480,
          "time": 10.8333225,
          "velocity": 0.5354330708661418
        },
        {
          "duration": 0.20659701562499855,
          "durationTicks": 238,
          "midi": 63,
          "name": "D#4",
          "ticks": 12482,
          "time": 10.835058609375,
          "velocity": 0.5354330708661418
        },
        {
          "duration": 0.20659701562500032,
          "durationTicks": 238,
          "midi": 66,
          "name": "F#4",
          "ticks": 12484,
          "time": 10.83679471875,
          "velocity": 0.5354330708661418
        },
        {
          "duration": 0.20659701562499855,
          "durationTicks": 238,
          "midi": 70,
          "name": "A#4",
          "ticks": 12486,
          "time": 10.838530828125,
          "velocity": 0.5354330708661418
        },
        {
          "duration": 0.21354145312499995,
          "durationTicks": 246,
          "midi": 63,
          "name": "D#4",
          "ticks": 12868,
          "time": 11.170127718749999,
          "velocity": 0.5511811023622047
        },
        {
          "duration": 0.21527756250000074,
          "durationTicks": 248,
          "midi": 66,
          "name": "F#4",
          "ticks": 12868,
          "time": 11.170127718749999,
          "velocity": 0.5511811023622047
        },
        {
          "duration": 0.21354145312499995,
          "durationTicks": 246,
          "midi": 68,
          "name": "G#4",
          "ticks": 12870,
          "time": 11.171863828125,
          "velocity": 0.5511811023622047
        },
        {
          "duration": 0.21354145312499995,
          "durationTicks": 246,
          "midi": 71,
          "name": "B4",
          "ticks": 12872,
          "time": 11.1735999375,
          "velocity": 0.5511811023622047
        },
        {
          "duration": 0.22222200000000036,
          "durationTicks": 256,
          "midi": 59,
          "name": "B3",
          "ticks": 13248,
          "time": 11.499988499999999,
          "velocity": 0.5590551181102362
        },
        {
          "duration": 0.22222200000000036,
          "durationTicks": 256,
          "midi": 62,
          "name": "D4",
          "ticks": 13250,
          "time": 11.501724609375,
          "velocity": 0.5590551181102362
        },
        {
          "duration": 0.22222200000000214,
          "durationTicks": 256,
          "midi": 65,
          "name": "F4",
          "ticks": 13252,
          "time": 11.503460718749999,
          "velocity": 0.5590551181102362
        },
        {
          "duration": 0.2222219999999986,
          "durationTicks": 256,
          "midi": 70,
          "name": "A#4",
          "ticks": 13254,
          "time": 11.505196828125,
          "velocity": 0.5590551181102362
        },
        {
          "duration": 0.14583318749999918,
          "durationTicks": 168,
          "midi": 58,
          "name": "A#3",
          "ticks": 13504,
          "time": 11.7222105,
          "velocity": 0.5748031496062992
        },
        {
          "duration": 0.14756929687499998,
          "durationTicks": 170,
          "midi": 61,
          "name": "C#4",
          "ticks": 13506,
          "time": 11.723946609375,
          "velocity": 0.5748031496062992
        },
        {
          "duration": 0.1475692968749982,
          "durationTicks": 170,
          "midi": 63,
          "name": "D#4",
          "ticks": 13508,
          "time": 11.72568271875,
          "velocity": 0.5748031496062992
        },
        {
          "duration": 0.14756929687500175,
          "durationTicks": 170,
          "midi": 66,
          "name": "F#4",
          "ticks": 13510,
          "time": 11.727418828124998,
          "velocity": 0.5748031496062992
        },
        {
          "duration": 0.1475692968749982,
          "durationTicks": 170,
          "midi": 65,
          "name": "F4",
          "ticks": 13892,
          "time": 12.05901571875,
          "velocity": 0.5275590551181102
        },
        {
          "duration": 0.1475692968749982,
          "durationTicks": 170,
          "midi": 59,
          "name": "B3",
          "ticks": 13892,
          "time": 12.05901571875,
          "velocity": 0.5275590551181102
        },
        {
          "duration": 0.14756929687499998,
          "durationTicks": 170,
          "midi": 69,
          "name": "A4",
          "ticks": 13894,
          "time": 12.060751828125,
          "velocity": 0.5275590551181102
        },
        {
          "duration": 0.14583318749999918,
          "durationTicks": 168,
          "midi": 73,
          "name": "C#5",
          "ticks": 13896,
          "time": 12.0624879375,
          "velocity": 0.5275590551181102
        },
        {
          "duration": 0.14583318750000096,
          "durationTicks": 168,
          "midi": 59,
          "name": "B3",
          "ticks": 14272,
          "time": 12.388876499999999,
          "velocity": 0.5511811023622047
        },
        {
          "duration": 0.14756929687500175,
          "durationTicks": 170,
          "midi": 65,
          "name": "F4",
          "ticks": 14274,
          "time": 12.390612609375,
          "velocity": 0.5511811023622047
        },
        {
          "duration": 0.1475692968749982,
          "durationTicks": 170,
          "midi": 69,
          "name": "A4",
          "ticks": 14276,
          "time": 12.39234871875,
          "velocity": 0.5511811023622047
        },
        {
          "duration": 0.14756929687499998,
          "durationTicks": 170,
          "midi": 73,
          "name": "C#5",
          "ticks": 14278,
          "time": 12.394084828125,
          "velocity": 0.5511811023622047
        },
        {
          "duration": 0.44444399999999895,
          "durationTicks": 512,
          "midi": 59,
          "name": "B3",
          "ticks": 14660,
          "time": 12.72568171875,
          "velocity": 0.5748031496062992
        },
        {
          "duration": 0.44444399999999895,
          "durationTicks": 512,
          "midi": 65,
          "name": "F4",
          "ticks": 14660,
          "time": 12.72568171875,
          "velocity": 0.5748031496062992
        },
        {
          "duration": 0.4444440000000007,
          "durationTicks": 512,
          "midi": 69,
          "name": "A4",
          "ticks": 14662,
          "time": 12.727417828124999,
          "velocity": 0.5748031496062992
        },
        {
          "duration": 0.4444440000000007,
          "durationTicks": 512,
          "midi": 73,
          "name": "C#5",
          "ticks": 14664,
          "time": 12.7291539375,
          "velocity": 0.5748031496062992
        },
        {
          "duration": 0.21527756250000074,
          "durationTicks": 248,
          "midi": 61,
          "name": "C#4",
          "ticks": 15172,
          "time": 13.170125718749999,
          "velocity": 0.5275590551181102
        },
        {
          "duration": 0.21354145312499995,
          "durationTicks": 246,
          "midi": 58,
          "name": "A#3",
          "ticks": 15172,
          "time": 13.170125718749999,
          "velocity": 0.5275590551181102
        },
        {
          "duration": 0.21354145312499995,
          "durationTicks": 246,
          "midi": 63,
          "name": "D#4",
          "ticks": 15174,
          "time": 13.171861828125,
          "velocity": 0.5275590551181102
        },
        {
          "duration": 0.21354145312499995,
          "durationTicks": 246,
          "midi": 66,
          "name": "F#4",
          "ticks": 15176,
          "time": 13.1735979375,
          "velocity": 0.5275590551181102
        },
        {
          "duration": 0.20486090624999953,
          "durationTicks": 236,
          "midi": 58,
          "name": "A#3",
          "ticks": 15552,
          "time": 13.4999865,
          "velocity": 0.5354330708661418
        },
        {
          "duration": 0.20659701562499855,
          "durationTicks": 238,
          "midi": 61,
          "name": "C#4",
          "ticks": 15554,
          "time": 13.501722609375001,
          "velocity": 0.5354330708661418
        },
        {
          "duration": 0.2065970156250021,
          "durationTicks": 238,
          "midi": 63,
          "name": "D#4",
          "ticks": 15556,
          "time": 13.503458718749998,
          "velocity": 0.5354330708661418
        },
        {
          "duration": 0.20659701562500032,
          "durationTicks": 238,
          "midi": 66,
          "name": "F#4",
          "ticks": 15558,
          "time": 13.505194828125,
          "velocity": 0.5354330708661418
        },
        {
          "duration": 0.22222200000000214,
          "durationTicks": 256,
          "midi": 58,
          "name": "A#3",
          "ticks": 15940,
          "time": 13.836791718749998,
          "velocity": 0.5433070866141733
        },
        {
          "duration": 0.22222200000000214,
          "durationTicks": 256,
          "midi": 61,
          "name": "C#4",
          "ticks": 15940,
          "time": 13.836791718749998,
          "velocity": 0.5433070866141733
        },
        {
          "duration": 0.22222200000000036,
          "durationTicks": 256,
          "midi": 63,
          "name": "D#4",
          "ticks": 15942,
          "time": 13.838527828124999,
          "velocity": 0.5433070866141733
        },
        {
          "duration": 0.22222200000000036,
          "durationTicks": 256,
          "midi": 66,
          "name": "F#4",
          "ticks": 15944,
          "time": 13.8402639375,
          "velocity": 0.5433070866141733
        },
        {
          "duration": 0.10937489062500028,
          "durationTicks": 126,
          "midi": 61,
          "name": "C#4",
          "ticks": 16196,
          "time": 14.05901371875,
          "velocity": 0.5433070866141733
        },
        {
          "duration": 0.10763878124999948,
          "durationTicks": 124,
          "midi": 58,
          "name": "A#3",
          "ticks": 16196,
          "time": 14.05901371875,
          "velocity": 0.5433070866141733
        },
        {
          "duration": 0.10937489062500028,
          "durationTicks": 126,
          "midi": 63,
          "name": "D#4",
          "ticks": 16198,
          "time": 14.060749828125,
          "velocity": 0.5433070866141733
        },
        {
          "duration": 0.10937489062500028,
          "durationTicks": 126,
          "midi": 66,
          "name": "F#4",
          "ticks": 16200,
          "time": 14.0624859375,
          "velocity": 0.5433070866141733
        },
        {
          "duration": 0.2048609062500013,
          "durationTicks": 236,
          "midi": 59,
          "name": "B3",
          "ticks": 16320,
          "time": 14.1666525,
          "velocity": 0.5511811023622047
        },
        {
          "duration": 0.20659701562499855,
          "durationTicks": 238,
          "midi": 62,
          "name": "D4",
          "ticks": 16322,
          "time": 14.168388609375,
          "velocity": 0.5511811023622047
        },
        {
          "duration": 0.20659701562500032,
          "durationTicks": 238,
          "midi": 65,
          "name": "F4",
          "ticks": 16324,
          "time": 14.17012471875,
          "velocity": 0.5511811023622047
        },
        {
          "duration": 0.20659701562499855,
          "durationTicks": 238,
          "midi": 68,
          "name": "G#4",
          "ticks": 16326,
          "time": 14.171860828125,
          "velocity": 0.5511811023622047
        },
        {
          "duration": 0.22222200000000036,
          "durationTicks": 256,
          "midi": 63,
          "name": "D#4",
          "ticks": 16708,
          "time": 14.50345771875,
          "velocity": 0.5590551181102362
        },
        {
          "duration": 0.22222200000000036,
          "durationTicks": 256,
          "midi": 61,
          "name": "C#4",
          "ticks": 16708,
          "time": 14.50345771875,
          "velocity": 0.5590551181102362
        },
        {
          "duration": 0.2222219999999986,
          "durationTicks": 256,
          "midi": 66,
          "name": "F#4",
          "ticks": 16710,
          "time": 14.505193828125,
          "velocity": 0.5590551181102362
        },
        {
          "duration": 0.2222219999999986,
          "durationTicks": 256,
          "midi": 70,
          "name": "A#4",
          "ticks": 16712,
          "time": 14.5069299375,
          "velocity": 0.5590551181102362
        },
        {
          "duration": 0.21354145312500172,
          "durationTicks": 246,
          "midi": 61,
          "name": "C#4",
          "ticks": 16964,
          "time": 14.72567971875,
          "velocity": 0.5590551181102362
        },
        {
          "duration": 0.21527756249999896,
          "durationTicks": 248,
          "midi": 63,
          "name": "D#4",
          "ticks": 16964,
          "time": 14.72567971875,
          "velocity": 0.5590551181102362
        },
        {
          "duration": 0.21354145312499995,
          "durationTicks": 246,
          "midi": 66,
          "name": "F#4",
          "ticks": 16966,
          "time": 14.727415828124998,
          "velocity": 0.5590551181102362
        },
        {
          "duration": 0.21354145312499995,
          "durationTicks": 246,
          "midi": 70,
          "name": "A#4",
          "ticks": 16968,
          "time": 14.7291519375,
          "velocity": 0.5590551181102362
        },
        {
          "duration": 0.4444440000000007,
          "durationTicks": 512,
          "midi": 61,
          "name": "C#4",
          "ticks": 17344,
          "time": 15.0555405,
          "velocity": 0.5748031496062992
        },
        {
          "duration": 0.4444440000000007,
          "durationTicks": 512,
          "midi": 63,
          "name": "D#4",
          "ticks": 17346,
          "time": 15.057276609375,
          "velocity": 0.5748031496062992
        },
        {
          "duration": 0.4444439999999972,
          "durationTicks": 512,
          "midi": 66,
          "name": "F#4",
          "ticks": 17348,
          "time": 15.059012718750001,
          "velocity": 0.5748031496062992
        },
        {
          "duration": 0.4444440000000007,
          "durationTicks": 512,
          "midi": 70,
          "name": "A#4",
          "ticks": 17350,
          "time": 15.060748828124998,
          "velocity": 0.5748031496062992
        },
        {
          "duration": 0.33680521875000125,
          "durationTicks": 388,
          "midi": 63,
          "name": "D#4",
          "ticks": 18112,
          "time": 15.722206499999999,
          "velocity": 0.5275590551181102
        },
        {
          "duration": 0.11284710937500009,
          "durationTicks": 130,
          "midi": 65,
          "name": "F4",
          "ticks": 18114,
          "time": 15.723942609375,
          "velocity": 0.5275590551181102
        },
        {
          "duration": 0.1111109999999993,
          "durationTicks": 128,
          "midi": 68,
          "name": "G#4",
          "ticks": 18116,
          "time": 15.72567871875,
          "velocity": 0.5275590551181102
        },
        {
          "duration": 0.11111100000000107,
          "durationTicks": 128,
          "midi": 71,
          "name": "B4",
          "ticks": 18118,
          "time": 15.727414828125,
          "velocity": 0.5275590551181102
        },
        {
          "duration": 0.22222200000000036,
          "durationTicks": 256,
          "midi": 68,
          "name": "G#4",
          "ticks": 18244,
          "time": 15.83678971875,
          "velocity": 0.5275590551181102
        },
        {
          "duration": 0.22222200000000036,
          "durationTicks": 256,
          "midi": 65,
          "name": "F4",
          "ticks": 18244,
          "time": 15.83678971875,
          "velocity": 0.5275590551181102
        },
        {
          "duration": 0.2222219999999986,
          "durationTicks": 256,
          "midi": 70,
          "name": "A#4",
          "ticks": 18246,
          "time": 15.838525828125,
          "velocity": 0.5275590551181102
        },
        {
          "duration": 0.2222219999999968,
          "durationTicks": 256,
          "midi": 73,
          "name": "C#5",
          "ticks": 18248,
          "time": 15.840261937500001,
          "velocity": 0.5275590551181102
        },
        {
          "duration": 0.11111099999999752,
          "durationTicks": 128,
          "midi": 65,
          "name": "F4",
          "ticks": 18500,
          "time": 16.05901171875,
          "velocity": 0.5354330708661418
        },
        {
          "duration": 0.11111099999999752,
          "durationTicks": 128,
          "midi": 68,
          "name": "G#4",
          "ticks": 18500,
          "time": 16.05901171875,
          "velocity": 0.5354330708661418
        },
        {
          "duration": 0.1093748906249985,
          "durationTicks": 126,
          "midi": 70,
          "name": "A#4",
          "ticks": 18502,
          "time": 16.060747828125,
          "velocity": 0.5354330708661418
        },
        {
          "duration": 0.10937489062500205,
          "durationTicks": 126,
          "midi": 73,
          "name": "C#5",
          "ticks": 18504,
          "time": 16.062483937499998,
          "velocity": 0.5354330708661418
        },
        {
          "duration": 0.10763878124999948,
          "durationTicks": 124,
          "midi": 65,
          "name": "F4",
          "ticks": 18624,
          "time": 16.1666505,
          "velocity": 0.5433070866141733
        },
        {
          "duration": 0.1093748906249985,
          "durationTicks": 126,
          "midi": 68,
          "name": "G#4",
          "ticks": 18626,
          "time": 16.168386609375002,
          "velocity": 0.5433070866141733
        },
        {
          "duration": 0.20659701562500388,
          "durationTicks": 238,
          "midi": 70,
          "name": "A#4",
          "ticks": 18628,
          "time": 16.170122718749997,
          "velocity": 0.5433070866141733
        },
        {
          "duration": 0.20659701562500032,
          "durationTicks": 238,
          "midi": 73,
          "name": "C#5",
          "ticks": 18630,
          "time": 16.171858828125,
          "velocity": 0.5433070866141733
        },
        {
          "duration": 0.21354145312499995,
          "durationTicks": 246,
          "midi": 66,
          "name": "F#4",
          "ticks": 19012,
          "time": 16.503455718749997,
          "velocity": 0.5511811023622047
        },
        {
          "duration": 0.21527756250000252,
          "durationTicks": 248,
          "midi": 68,
          "name": "G#4",
          "ticks": 19012,
          "time": 16.503455718749997,
          "velocity": 0.5511811023622047
        },
        {
          "duration": 0.21354145312499995,
          "durationTicks": 246,
          "midi": 71,
          "name": "B4",
          "ticks": 19014,
          "time": 16.505191828125,
          "velocity": 0.5511811023622047
        },
        {
          "duration": 0.21354145312499995,
          "durationTicks": 246,
          "midi": 75,
          "name": "D#5",
          "ticks": 19016,
          "time": 16.5069279375,
          "velocity": 0.5511811023622047
        },
        {
          "duration": 0.2222219999999986,
          "durationTicks": 256,
          "midi": 65,
          "name": "F4",
          "ticks": 19392,
          "time": 16.8333165,
          "velocity": 0.5669291338582677
        },
        {
          "duration": 0.2222219999999986,
          "durationTicks": 256,
          "midi": 68,
          "name": "G#4",
          "ticks": 19394,
          "time": 16.835052609375,
          "velocity": 0.5669291338582677
        },
        {
          "duration": 0.2222219999999986,
          "durationTicks": 256,
          "midi": 70,
          "name": "A#4",
          "ticks": 19396,
          "time": 16.83678871875,
          "velocity": 0.5669291338582677
        },
        {
          "duration": 0.2222219999999986,
          "durationTicks": 256,
          "midi": 73,
          "name": "C#5",
          "ticks": 19398,
          "time": 16.838524828125,
          "velocity": 0.5669291338582677
        },
        {
          "duration": 1.1111100000000036,
          "durationTicks": 1280,
          "midi": 61,
          "name": "C#4",
          "ticks": 19648,
          "time": 17.055538499999997,
          "velocity": 0.5748031496062992
        },
        {
          "duration": 1.11111,
          "durationTicks": 1280,
          "midi": 63,
          "name": "D#4",
          "ticks": 19650,
          "time": 17.057274609375,
          "velocity": 0.5748031496062992
        },
        {
          "duration": 1.11111,
          "durationTicks": 1280,
          "midi": 67,
          "name": "G4",
          "ticks": 19652,
          "time": 17.05901071875,
          "velocity": 0.5748031496062992
        },
        {
          "duration": 1.11111,
          "durationTicks": 1280,
          "midi": 70,
          "name": "A#4",
          "ticks": 19654,
          "time": 17.060746828124998,
          "velocity": 0.5748031496062992
        },
        {
          "duration": 0.33680521875000125,
          "durationTicks": 388,
          "midi": 69,
          "name": "A4",
          "ticks": 27072,
          "time": 23.4999765,
          "velocity": 0.7637795275590551
        },
        {
          "duration": 0.6666659999999993,
          "durationTicks": 768,
          "midi": 71,
          "name": "B4",
          "ticks": 27460,
          "time": 23.83678171875,
          "velocity": 0.6141732283464567
        },
        {
          "duration": 0.6666659999999993,
          "durationTicks": 768,
          "midi": 66,
          "name": "F#4",
          "ticks": 27460,
          "time": 23.83678171875,
          "velocity": 0.6141732283464567
        },
        {
          "duration": 0.6666659999999993,
          "durationTicks": 768,
          "midi": 76,
          "name": "E5",
          "ticks": 27462,
          "time": 23.838517828125,
          "velocity": 0.6141732283464567
        },
        {
          "duration": 0.6666659999999993,
          "durationTicks": 768,
          "midi": 81,
          "name": "A5",
          "ticks": 27464,
          "time": 23.840253937499998,
          "velocity": 0.6141732283464567
        },
        {
          "duration": 0.5520827812500002,
          "durationTicks": 636,
          "midi": 66,
          "name": "F#4",
          "ticks": 28228,
          "time": 24.50344771875,
          "velocity": 0.6299212598425197
        },
        {
          "duration": 0.5538188906249992,
          "durationTicks": 638,
          "midi": 71,
          "name": "B4",
          "ticks": 28228,
          "time": 24.50344771875,
          "velocity": 0.6299212598425197
        },
        {
          "duration": 0.5538188906249992,
          "durationTicks": 638,
          "midi": 76,
          "name": "E5",
          "ticks": 28230,
          "time": 24.505183828125,
          "velocity": 0.6299212598425197
        },
        {
          "duration": 0.5538188906250028,
          "durationTicks": 638,
          "midi": 81,
          "name": "A5",
          "ticks": 28232,
          "time": 24.506919937499998,
          "velocity": 0.6299212598425197
        },
        {
          "duration": 0.781249218750002,
          "durationTicks": 900,
          "midi": 65,
          "name": "F4",
          "ticks": 28864,
          "time": 25.0555305,
          "velocity": 0.6535433070866141
        },
        {
          "duration": 0.779513109375003,
          "durationTicks": 898,
          "midi": 71,
          "name": "B4",
          "ticks": 28866,
          "time": 25.057266609375,
          "velocity": 0.6535433070866141
        },
        {
          "duration": 0.779513109375003,
          "durationTicks": 898,
          "midi": 76,
          "name": "E5",
          "ticks": 28868,
          "time": 25.059002718749998,
          "velocity": 0.6535433070866141
        },
        {
          "duration": 0.7795131093749958,
          "durationTicks": 898,
          "midi": 81,
          "name": "A5",
          "ticks": 28870,
          "time": 25.060738828125,
          "velocity": 0.6535433070866141
        },
        {
          "duration": 0.21354145312499995,
          "durationTicks": 246,
          "midi": 74,
          "name": "D5",
          "ticks": 29764,
          "time": 25.83677971875,
          "velocity": 0.7637795275590551
        },
        {
          "duration": 0.20486090624999775,
          "durationTicks": 236,
          "midi": 74,
          "name": "D5",
          "ticks": 30144,
          "time": 26.1666405,
          "velocity": 0.7637795275590551
        },
        {
          "duration": 0.22222199999999503,
          "durationTicks": 256,
          "midi": 69,
          "name": "A4",
          "ticks": 30532,
          "time": 26.50344571875,
          "velocity": 0.6062992125984252
        },
        {
          "duration": 0.22222199999999503,
          "durationTicks": 256,
          "midi": 73,
          "name": "C#5",
          "ticks": 30532,
          "time": 26.50344571875,
          "velocity": 0.6062992125984252
        },
        {
          "duration": 0.22222200000000214,
          "durationTicks": 256,
          "midi": 76,
          "name": "E5",
          "ticks": 30534,
          "time": 26.505181828125,
          "velocity": 0.6062992125984252
        },
        {
          "duration": 0.2222219999999986,
          "durationTicks": 256,
          "midi": 81,
          "name": "A5",
          "ticks": 30536,
          "time": 26.5069179375,
          "velocity": 0.6062992125984252
        },
        {
          "duration": 0.4444440000000043,
          "durationTicks": 512,
          "midi": 73,
          "name": "C#5",
          "ticks": 30788,
          "time": 26.725667718749996,
          "velocity": 0.6141732283464567
        },
        {
          "duration": 0.4444440000000043,
          "durationTicks": 512,
          "midi": 69,
          "name": "A4",
          "ticks": 30788,
          "time": 26.725667718749996,
          "velocity": 0.6141732283464567
        },
        {
          "duration": 0.4444439999999972,
          "durationTicks": 512,
          "midi": 76,
          "name": "E5",
          "ticks": 30790,
          "time": 26.727403828125002,
          "velocity": 0.6141732283464567
        },
        {
          "duration": 0.4444440000000007,
          "durationTicks": 512,
          "midi": 79,
          "name": "G5",
          "ticks": 30792,
          "time": 26.729139937499998,
          "velocity": 0.6141732283464567
        },
        {
          "duration": 0.5520827812500002,
          "durationTicks": 636,
          "midi": 67,
          "name": "G4",
          "ticks": 31300,
          "time": 27.17011171875,
          "velocity": 0.6299212598425197
        },
        {
          "duration": 0.5538188906249992,
          "durationTicks": 638,
          "midi": 70,
          "name": "A#4",
          "ticks": 31300,
          "time": 27.17011171875,
          "velocity": 0.6299212598425197
        },
        {
          "duration": 0.5538188906249992,
          "durationTicks": 638,
          "midi": 73,
          "name": "C#5",
          "ticks": 31302,
          "time": 27.171847828125,
          "velocity": 0.6299212598425197
        },
        {
          "duration": 0.5538188906250028,
          "durationTicks": 638,
          "midi": 77,
          "name": "F5",
          "ticks": 31304,
          "time": 27.1735839375,
          "velocity": 0.6299212598425197
        },
        {
          "duration": 0.14583318749999918,
          "durationTicks": 168,
          "midi": 66,
          "name": "F#4",
          "ticks": 31936,
          "time": 27.7221945,
          "velocity": 0.6535433070866141
        },
        {
          "duration": 0.1475692968749982,
          "durationTicks": 170,
          "midi": 69,
          "name": "A4",
          "ticks": 31938,
          "time": 27.723930609375,
          "velocity": 0.6535433070866141
        },
        {
          "duration": 0.14756929687500175,
          "durationTicks": 170,
          "midi": 73,
          "name": "C#5",
          "ticks": 31940,
          "time": 27.72566671875,
          "velocity": 0.6535433070866141
        },
        {
          "duration": 0.1475692968749982,
          "durationTicks": 170,
          "midi": 76,
          "name": "E5",
          "ticks": 31942,
          "time": 27.727402828125,
          "velocity": 0.6535433070866141
        },
        {
          "duration": 0.7743047812500023,
          "durationTicks": 892,
          "midi": 66,
          "name": "F#4",
          "ticks": 32324,
          "time": 28.058999718749998,
          "velocity": 0.6850393700787402
        },
        {
          "duration": 0.7760408906249978,
          "durationTicks": 894,
          "midi": 69,
          "name": "A4",
          "ticks": 32324,
          "time": 28.058999718749998,
          "velocity": 0.6850393700787402
        },
        {
          "duration": 0.7760408906250014,
          "durationTicks": 894,
          "midi": 71,
          "name": "B4",
          "ticks": 32326,
          "time": 28.060735828125,
          "velocity": 0.6850393700787402
        },
        {
          "duration": 0.7760408906249978,
          "durationTicks": 894,
          "midi": 74,
          "name": "D5",
          "ticks": 32328,
          "time": 28.0624719375,
          "velocity": 0.6850393700787402
        },
        {
          "duration": 0.4444440000000043,
          "durationTicks": 512,
          "midi": 78,
          "name": "F#5",
          "ticks": 34628,
          "time": 30.058997718749996,
          "velocity": 0.6850393700787402
        },
        {
          "duration": 0.4444440000000007,
          "durationTicks": 512,
          "midi": 78,
          "name": "F#5",
          "ticks": 36164,
          "time": 31.39232971875,
          "velocity": 0.6850393700787402
        },
        {
          "duration": 0.5520827812500002,
          "durationTicks": 636,
          "midi": 70,
          "name": "A#4",
          "ticks": 37444,
          "time": 32.50343971875,
          "velocity": 0.6377952755905512
        },
        {
          "duration": 0.5538188906249957,
          "durationTicks": 638,
          "midi": 73,
          "name": "C#5",
          "ticks": 37444,
          "time": 32.50343971875,
          "velocity": 0.6377952755905512
        },
        {
          "duration": 0.5538188906250028,
          "durationTicks": 638,
          "midi": 77,
          "name": "F5",
          "ticks": 37446,
          "time": 32.505175828125,
          "velocity": 0.6377952755905512
        },
        {
          "duration": 0.5538188906250028,
          "durationTicks": 638,
          "midi": 81,
          "name": "A5",
          "ticks": 37448,
          "time": 32.5069119375,
          "velocity": 0.6377952755905512
        },
        {
          "duration": 0.14583318749999563,
          "durationTicks": 168,
          "midi": 71,
          "name": "B4",
          "ticks": 38080,
          "time": 33.0555225,
          "velocity": 0.6535433070866141
        },
        {
          "duration": 0.1475692968749982,
          "durationTicks": 170,
          "midi": 74,
          "name": "D5",
          "ticks": 38082,
          "time": 33.057258609375,
          "velocity": 0.6535433070866141
        },
        {
          "duration": 0.1475692968749982,
          "durationTicks": 170,
          "midi": 76,
          "name": "E5",
          "ticks": 38084,
          "time": 33.05899471875,
          "velocity": 0.6535433070866141
        },
        {
          "duration": 0.1475692968749982,
          "durationTicks": 170,
          "midi": 81,
          "name": "A5",
          "ticks": 38086,
          "time": 33.060730828125,
          "velocity": 0.6535433070866141
        },
        {
          "duration": 0.44444399999999007,
          "durationTicks": 512,
          "midi": 78,
          "name": "F#5",
          "ticks": 93764,
          "time": 81.39227971875,
          "velocity": 0.6850393700787402
        },
        {
          "duration": 0.22222200000000214,
          "durationTicks": 256,
          "midi": 76,
          "name": "E5",
          "ticks": 94276,
          "time": 81.83672371875,
          "velocity": 0.7007874015748031
        },
        {
          "duration": 0.10763878125000303,
          "durationTicks": 124,
          "midi": 73,
          "name": "C#5",
          "ticks": 94532,
          "time": 82.05894571875,
          "velocity": 0.7165354330708661
        },
        {
          "duration": 0.22222200000000214,
          "durationTicks": 256,
          "midi": 70,
          "name": "A#4",
          "ticks": 94656,
          "time": 82.1665845,
          "velocity": 0.7165354330708661
        },
        {
          "duration": 0.14583318749998853,
          "durationTicks": 168,
          "midi": 66,
          "name": "F#4",
          "ticks": 94912,
          "time": 82.3888065,
          "velocity": 0.7322834645669292
        },
        {
          "duration": 0.22222199999998793,
          "durationTicks": 256,
          "midi": 69,
          "name": "A4",
          "ticks": 111172,
          "time": 96.50337571875001,
          "velocity": 0.6062992125984252
        },
        {
          "duration": 0.10763878125000303,
          "durationTicks": 124,
          "midi": 71,
          "name": "B4",
          "ticks": 111428,
          "time": 96.72559771875,
          "velocity": 0.6220472440944882
        },
        {
          "duration": 0.22222200000000214,
          "durationTicks": 256,
          "midi": 74,
          "name": "D5",
          "ticks": 111552,
          "time": 96.8332365,
          "velocity": 0.6299212598425197
        },
        {
          "duration": 0.1145832187499991,
          "durationTicks": 132,
          "midi": 76,
          "name": "E5",
          "ticks": 111808,
          "time": 97.0554585,
          "velocity": 0.6535433070866141
        },
        {
          "duration": 0.14756929687501952,
          "durationTicks": 170,
          "midi": 69,
          "name": "A4",
          "ticks": 112196,
          "time": 97.39226371874999,
          "velocity": 0.5275590551181102
        },
        {
          "duration": 0.14756929687501952,
          "durationTicks": 170,
          "midi": 66,
          "name": "F#4",
          "ticks": 112196,
          "time": 97.39226371874999,
          "velocity": 0.5275590551181102
        },
        {
          "duration": 0.1475692968749911,
          "durationTicks": 170,
          "midi": 71,
          "name": "B4",
          "ticks": 112198,
          "time": 97.393999828125,
          "velocity": 0.5275590551181102
        },
        {
          "duration": 0.14583318750000274,
          "durationTicks": 168,
          "midi": 74,
          "name": "D5",
          "ticks": 112200,
          "time": 97.39573593749999,
          "velocity": 0.5275590551181102
        },
        {
          "duration": 0.14583318750000274,
          "durationTicks": 168,
          "midi": 66,
          "name": "F#4",
          "ticks": 112576,
          "time": 97.7221245,
          "velocity": 0.5511811023622047
        },
        {
          "duration": 0.1475692968749911,
          "durationTicks": 170,
          "midi": 69,
          "name": "A4",
          "ticks": 112578,
          "time": 97.723860609375,
          "velocity": 0.5511811023622047
        },
        {
          "duration": 0.1475692968750053,
          "durationTicks": 170,
          "midi": 71,
          "name": "B4",
          "ticks": 112580,
          "time": 97.72559671875,
          "velocity": 0.5511811023622047
        },
        {
          "duration": 0.1475692968749911,
          "durationTicks": 170,
          "midi": 74,
          "name": "D5",
          "ticks": 112582,
          "time": 97.727332828125,
          "velocity": 0.5511811023622047
        },
        {
          "duration": 0.1475692968750053,
          "durationTicks": 170,
          "midi": 66,
          "name": "F#4",
          "ticks": 112964,
          "time": 98.05892971875,
          "velocity": 0.5748031496062992
        },
        {
          "duration": 0.1475692968750053,
          "durationTicks": 170,
          "midi": 69,
          "name": "A4",
          "ticks": 112964,
          "time": 98.05892971875,
          "velocity": 0.5748031496062992
        },
        {
          "duration": 0.1475692968749911,
          "durationTicks": 170,
          "midi": 71,
          "name": "B4",
          "ticks": 112966,
          "time": 98.06066582812501,
          "velocity": 0.5748031496062992
        },
        {
          "duration": 0.14583318750000274,
          "durationTicks": 168,
          "midi": 74,
          "name": "D5",
          "ticks": 112968,
          "time": 98.0624019375,
          "velocity": 0.5748031496062992
        },
        {
          "duration": 0.14583318750000274,
          "durationTicks": 168,
          "midi": 69,
          "name": "A4",
          "ticks": 113344,
          "time": 98.3887905,
          "velocity": 0.6850393700787402
        },
        {
          "duration": 0.22222199999998793,
          "durationTicks": 256,
          "midi": 63,
          "name": "D#4",
          "ticks": 113476,
          "time": 98.50337371875,
          "velocity": 0.6062992125984252
        },
        {
          "duration": 0.22222199999998793,
          "durationTicks": 256,
          "midi": 66,
          "name": "F#4",
          "ticks": 113476,
          "time": 98.50337371875,
          "velocity": 0.6062992125984252
        },
        {
          "duration": 0.22222200000000214,
          "durationTicks": 256,
          "midi": 70,
          "name": "A#4",
          "ticks": 113478,
          "time": 98.505109828125,
          "velocity": 0.6062992125984252
        },
        {
          "duration": 0.22222200000000214,
          "durationTicks": 256,
          "midi": 74,
          "name": "D5",
          "ticks": 113480,
          "time": 98.50684593749999,
          "velocity": 0.6062992125984252
        },
        {
          "duration": 0.7760408906249978,
          "durationTicks": 894,
          "midi": 65,
          "name": "F4",
          "ticks": 113732,
          "time": 98.72559571874999,
          "velocity": 0.6141732283464567
        },
        {
          "duration": 0.7743047812500095,
          "durationTicks": 892,
          "midi": 62,
          "name": "D4",
          "ticks": 113732,
          "time": 98.72559571874999,
          "velocity": 0.6141732283464567
        },
        {
          "duration": 0.7760408906249978,
          "durationTicks": 894,
          "midi": 71,
          "name": "B4",
          "ticks": 113734,
          "time": 98.727331828125,
          "velocity": 0.6141732283464567
        },
        {
          "duration": 0.776040890625012,
          "durationTicks": 894,
          "midi": 76,
          "name": "E5",
          "ticks": 113736,
          "time": 98.72906793749999,
          "velocity": 0.6141732283464567
        },
        {
          "duration": 0.22222200000000214,
          "durationTicks": 256,
          "midi": 63,
          "name": "D#4",
          "ticks": 114624,
          "time": 99.4999005,
          "velocity": 0.6535433070866141
        },
        {
          "duration": 0.22222200000001635,
          "durationTicks": 256,
          "midi": 66,
          "name": "F#4",
          "ticks": 114626,
          "time": 99.50163660937498,
          "velocity": 0.6535433070866141
        },
        {
          "duration": 0.22222199999998793,
          "durationTicks": 256,
          "midi": 70,
          "name": "A#4",
          "ticks": 114628,
          "time": 99.50337271875,
          "velocity": 0.6535433070866141
        },
        {
          "duration": 0.22222200000000214,
          "durationTicks": 256,
          "midi": 74,
          "name": "D5",
          "ticks": 114630,
          "time": 99.505108828125,
          "velocity": 0.6535433070866141
        },
        {
          "duration": 0.7812492187500055,
          "durationTicks": 900,
          "midi": 62,
          "name": "D4",
          "ticks": 114880,
          "time": 99.7221225,
          "velocity": 0.6614173228346457
        },
        {
          "duration": 0.779513109375003,
          "durationTicks": 898,
          "midi": 65,
          "name": "F4",
          "ticks": 114882,
          "time": 99.723858609375,
          "velocity": 0.6614173228346457
        },
        {
          "duration": 0.7777770000000146,
          "durationTicks": 896,
          "midi": 71,
          "name": "B4",
          "ticks": 114884,
          "time": 99.72559471874999,
          "velocity": 0.6614173228346457
        },
        {
          "duration": 0.7795131093749887,
          "durationTicks": 898,
          "midi": 76,
          "name": "E5",
          "ticks": 114886,
          "time": 99.727330828125,
          "velocity": 0.6614173228346457
        },
        {
          "duration": 0.5520827812500073,
          "durationTicks": 636,
          "midi": 65,
          "name": "F4",
          "ticks": 115780,
          "time": 100.50337171875,
          "velocity": 0.7007874015748031
        },
        {
          "duration": 0.5520827812500073,
          "durationTicks": 636,
          "midi": 71,
          "name": "B4",
          "ticks": 115780,
          "time": 100.50337171875,
          "velocity": 0.7007874015748031
        },
        {
          "duration": 0.5538188906249957,
          "durationTicks": 638,
          "midi": 75,
          "name": "D#5",
          "ticks": 115782,
          "time": 100.50510782812499,
          "velocity": 0.7007874015748031
        },
        {
          "duration": 0.5538188906250099,
          "durationTicks": 638,
          "midi": 79,
          "name": "G5",
          "ticks": 115784,
          "time": 100.5068439375,
          "velocity": 0.7007874015748031
        },
        {
          "duration": 1.4479152187499977,
          "durationTicks": 1668,
          "midi": 64,
          "name": "E4",
          "ticks": 116416,
          "time": 101.05545450000001,
          "velocity": 0.7322834645669292
        },
        {
          "duration": 1.4461791093750094,
          "durationTicks": 1666,
          "midi": 71,
          "name": "B4",
          "ticks": 116418,
          "time": 101.057190609375,
          "velocity": 0.7322834645669292
        },
        {
          "duration": 1.4461791093750094,
          "durationTicks": 1666,
          "midi": 74,
          "name": "D5",
          "ticks": 116420,
          "time": 101.05892671874999,
          "velocity": 0.7322834645669292
        },
        {
          "duration": 1.446179109374981,
          "durationTicks": 1666,
          "midi": 79,
          "name": "G5",
          "ticks": 116422,
          "time": 101.060662828125,
          "velocity": 0.7322834645669292
        },
        {
          "duration": 0.14756929687501952,
          "durationTicks": 170,
          "midi": 65,
          "name": "F4",
          "ticks": 119108,
          "time": 103.39225771874999,
          "velocity": 0.6850393700787402
        },
        {
          "duration": 0.14756929687501952,
          "durationTicks": 170,
          "midi": 71,
          "name": "B4",
          "ticks": 119108,
          "time": 103.39225771874999,
          "velocity": 0.6850393700787402
        },
        {
          "duration": 0.1475692968749911,
          "durationTicks": 170,
          "midi": 76,
          "name": "E5",
          "ticks": 119110,
          "time": 103.393993828125,
          "velocity": 0.6850393700787402
        },
        {
          "duration": 0.14583318750000274,
          "durationTicks": 168,
          "midi": 79,
          "name": "G5",
          "ticks": 119112,
          "time": 103.3957299375,
          "velocity": 0.6850393700787402
        },
        {
          "duration": 0.11631932812500168,
          "durationTicks": 134,
          "midi": 67,
          "name": "G4",
          "ticks": 141504,
          "time": 122.83321049999999,
          "velocity": 0.6850393700787402
        },
        {
          "duration": 0.10590267187501468,
          "durationTicks": 122,
          "midi": 69,
          "name": "A4",
          "ticks": 141638,
          "time": 122.949529828125,
          "velocity": 0.6850393700787402
        },
        {
          "duration": 0.11631932812498746,
          "durationTicks": 134,
          "midi": 67,
          "name": "G4",
          "ticks": 141760,
          "time": 123.05543250000001,
          "velocity": 0.6850393700787402
        },
        {
          "duration": 0.21701367187500864,
          "durationTicks": 250,
          "midi": 72,
          "name": "C5",
          "ticks": 141894,
          "time": 123.171751828125,
          "velocity": 0.6929133858267716
        },
        {
          "duration": 0.20486090624999065,
          "durationTicks": 236,
          "midi": 72,
          "name": "C5",
          "ticks": 142272,
          "time": 123.4998765,
          "velocity": 0.7007874015748031
        },
        {
          "duration": 0.5503466718750047,
          "durationTicks": 634,
          "midi": 72,
          "name": "C5",
          "ticks": 142662,
          "time": 123.838417828125,
          "velocity": 0.7086614173228346
        },
        {
          "duration": 0.11631932812498746,
          "durationTicks": 134,
          "midi": 72,
          "name": "C5",
          "ticks": 143296,
          "time": 124.38876450000001,
          "velocity": 0.7165354330708661
        },
        {
          "duration": 0.22222200000000214,
          "durationTicks": 256,
          "midi": 69,
          "name": "A4",
          "ticks": 143430,
          "time": 124.505083828125,
          "velocity": 0.7244094488188977
        },
        {
          "duration": 0.4444440000000043,
          "durationTicks": 512,
          "midi": 67,
          "name": "G4",
          "ticks": 143686,
          "time": 124.727305828125,
          "velocity": 0.7322834645669292
        },
        {
          "duration": 0.14756929687501952,
          "durationTicks": 170,
          "midi": 59,
          "name": "B3",
          "ticks": 155204,
          "time": 134.72555971875,
          "velocity": 0.5275590551181102
        },
        {
          "duration": 0.14756929687501952,
          "durationTicks": 170,
          "midi": 55,
          "name": "G3",
          "ticks": 155204,
          "time": 134.72555971875,
          "velocity": 0.5275590551181102
        },
        {
          "duration": 0.1475692968749911,
          "durationTicks": 170,
          "midi": 63,
          "name": "D#4",
          "ticks": 155206,
          "time": 134.727295828125,
          "velocity": 0.5275590551181102
        },
        {
          "duration": 0.14583318749998853,
          "durationTicks": 168,
          "midi": 67,
          "name": "G4",
          "ticks": 155208,
          "time": 134.7290319375,
          "velocity": 0.5275590551181102
        },
        {
          "duration": 0.14583318750001695,
          "durationTicks": 168,
          "midi": 55,
          "name": "G3",
          "ticks": 155584,
          "time": 135.0554205,
          "velocity": 0.5511811023622047
        },
        {
          "duration": 0.1475692968749911,
          "durationTicks": 170,
          "midi": 59,
          "name": "B3",
          "ticks": 155586,
          "time": 135.057156609375,
          "velocity": 0.5511811023622047
        },
        {
          "duration": 0.1475692968749911,
          "durationTicks": 170,
          "midi": 63,
          "name": "D#4",
          "ticks": 155588,
          "time": 135.05889271875,
          "velocity": 0.5511811023622047
        },
        {
          "duration": 0.1475692968749911,
          "durationTicks": 170,
          "midi": 67,
          "name": "G4",
          "ticks": 155590,
          "time": 135.060628828125,
          "velocity": 0.5511811023622047
        },
        {
          "duration": 0.4444440000000327,
          "durationTicks": 512,
          "midi": 59,
          "name": "B3",
          "ticks": 155972,
          "time": 135.39222571874998,
          "velocity": 0.5748031496062992
        },
        {
          "duration": 0.4444440000000327,
          "durationTicks": 512,
          "midi": 55,
          "name": "G3",
          "ticks": 155972,
          "time": 135.39222571874998,
          "velocity": 0.5748031496062992
        },
        {
          "duration": 0.44444399999997586,
          "durationTicks": 512,
          "midi": 63,
          "name": "D#4",
          "ticks": 155974,
          "time": 135.39396182812501,
          "velocity": 0.5748031496062992
        },
        {
          "duration": 0.4444440000000043,
          "durationTicks": 512,
          "midi": 67,
          "name": "G4",
          "ticks": 155976,
          "time": 135.3956979375,
          "velocity": 0.5748031496062992
        },
        {
          "duration": 0.1145832187499991,
          "durationTicks": 132,
          "midi": 67,
          "name": "G4",
          "ticks": 166080,
          "time": 144.16652249999999,
          "velocity": 0.6850393700787402
        },
        {
          "duration": 0.10763878125001725,
          "durationTicks": 124,
          "midi": 69,
          "name": "A4",
          "ticks": 166212,
          "time": 144.28110571874998,
          "velocity": 0.6850393700787402
        },
        {
          "duration": 0.1145832187499991,
          "durationTicks": 132,
          "midi": 67,
          "name": "G4",
          "ticks": 166336,
          "time": 144.3887445,
          "velocity": 0.6850393700787402
        },
        {
          "duration": 0.2135414531250035,
          "durationTicks": 246,
          "midi": 72,
          "name": "C5",
          "ticks": 166468,
          "time": 144.50332771875,
          "velocity": 0.6929133858267716
        },
        {
          "duration": 0.22222199999998793,
          "durationTicks": 256,
          "midi": 72,
          "name": "C5",
          "ticks": 166848,
          "time": 144.8331885,
          "velocity": 0.7007874015748031
        },
        {
          "duration": 0.1145832187499991,
          "durationTicks": 132,
          "midi": 72,
          "name": "C5",
          "ticks": 167104,
          "time": 145.0554105,
          "velocity": 0.7086614173228346
        },
        {
          "duration": 0.22222199999998793,
          "durationTicks": 256,
          "midi": 76,
          "name": "E5",
          "ticks": 167236,
          "time": 145.16999371875,
          "velocity": 0.7086614173228346
        },
        {
          "duration": 0.10763878125001725,
          "durationTicks": 124,
          "midi": 67,
          "name": "G4",
          "ticks": 167492,
          "time": 145.39221571874998,
          "velocity": 0.7165354330708661
        },
        {
          "duration": 0.22222200000001635,
          "durationTicks": 256,
          "midi": 69,
          "name": "A4",
          "ticks": 167616,
          "time": 145.4998545,
          "velocity": 0.7244094488188977
        },
        {
          "duration": 0.44444399999997586,
          "durationTicks": 512,
          "midi": 72,
          "name": "C5",
          "ticks": 167872,
          "time": 145.72207650000001,
          "velocity": 0.7322834645669292
        },
        {
          "duration": 2.6666639999999973,
          "durationTicks": 3072,
          "midi": 64,
          "name": "E4",
          "ticks": 174916,
          "time": 151.83665371875,
          "velocity": 0.5275590551181102
        },
        {
          "duration": 0.10763878124998882,
          "durationTicks": 124,
          "midi": 64,
          "name": "E4",
          "ticks": 179780,
          "time": 156.05887171875,
          "velocity": 0.6062992125984252
        },
        {
          "duration": 0.22222200000001635,
          "durationTicks": 256,
          "midi": 62,
          "name": "D4",
          "ticks": 179904,
          "time": 156.1665105,
          "velocity": 0.6141732283464567
        },
        {
          "duration": 0.14583318749998853,
          "durationTicks": 168,
          "midi": 64,
          "name": "E4",
          "ticks": 180160,
          "time": 156.3887325,
          "velocity": 0.6299212598425197
        },
        {
          "duration": 0.4444440000000043,
          "durationTicks": 512,
          "midi": 67,
          "name": "G4",
          "ticks": 180548,
          "time": 156.72553771875,
          "velocity": 0.6535433070866141
        },
        {
          "duration": 0.1093748906249914,
          "durationTicks": 126,
          "midi": 72,
          "name": "C5",
          "ticks": 193604,
          "time": 168.05885971875,
          "velocity": 0.6062992125984252
        },
        {
          "duration": 0.10763878124998882,
          "durationTicks": 124,
          "midi": 70,
          "name": "A#4",
          "ticks": 193604,
          "time": 168.05885971875,
          "velocity": 0.6062992125984252
        },
        {
          "duration": 0.1093748906249914,
          "durationTicks": 126,
          "midi": 76,
          "name": "E5",
          "ticks": 193606,
          "time": 168.060595828125,
          "velocity": 0.6062992125984252
        },
        {
          "duration": 0.1093748906249914,
          "durationTicks": 126,
          "midi": 80,
          "name": "G#5",
          "ticks": 193608,
          "time": 168.0623319375,
          "velocity": 0.6062992125984252
        },
        {
          "duration": 0.22222200000001635,
          "durationTicks": 256,
          "midi": 70,
          "name": "A#4",
          "ticks": 193728,
          "time": 168.1664985,
          "velocity": 0.6141732283464567
        },
        {
          "duration": 0.22222200000001635,
          "durationTicks": 256,
          "midi": 72,
          "name": "C5",
          "ticks": 193730,
          "time": 168.168234609375,
          "velocity": 0.6141732283464567
        },
        {
          "duration": 0.22222199999998793,
          "durationTicks": 256,
          "midi": 76,
          "name": "E5",
          "ticks": 193732,
          "time": 168.16997071875,
          "velocity": 0.6141732283464567
        },
        {
          "duration": 0.22222200000001635,
          "durationTicks": 256,
          "midi": 80,
          "name": "G#5",
          "ticks": 193734,
          "time": 168.171706828125,
          "velocity": 0.6141732283464567
        },
        {
          "duration": 0.1145832187499991,
          "durationTicks": 132,
          "midi": 70,
          "name": "A#4",
          "ticks": 193984,
          "time": 168.3887205,
          "velocity": 0.6299212598425197
        },
        {
          "duration": 0.11284710937499653,
          "durationTicks": 130,
          "midi": 72,
          "name": "C5",
          "ticks": 193986,
          "time": 168.390456609375,
          "velocity": 0.6299212598425197
        },
        {
          "duration": 0.11284710937502496,
          "durationTicks": 130,
          "midi": 76,
          "name": "E5",
          "ticks": 193988,
          "time": 168.39219271874998,
          "velocity": 0.6299212598425197
        },
        {
          "duration": 0.11284710937496811,
          "durationTicks": 130,
          "midi": 80,
          "name": "G#5",
          "ticks": 193990,
          "time": 168.393928828125,
          "velocity": 0.6299212598425197
        },
        {
          "duration": 0.22222199999998793,
          "durationTicks": 256,
          "midi": 72,
          "name": "C5",
          "ticks": 194116,
          "time": 168.50330371875,
          "velocity": 0.6377952755905512
        },
        {
          "duration": 0.22222199999998793,
          "durationTicks": 256,
          "midi": 70,
          "name": "A#4",
          "ticks": 194116,
          "time": 168.50330371875,
          "velocity": 0.6377952755905512
        },
        {
          "duration": 0.22222199999998793,
          "durationTicks": 256,
          "midi": 76,
          "name": "E5",
          "ticks": 194118,
          "time": 168.505039828125,
          "velocity": 0.6377952755905512
        },
        {
          "duration": 0.22222200000001635,
          "durationTicks": 256,
          "midi": 80,
          "name": "G#5",
          "ticks": 194120,
          "time": 168.50677593749998,
          "velocity": 0.6377952755905512
        },
        {
          "duration": 0.14756929687501952,
          "durationTicks": 170,
          "midi": 70,
          "name": "A#4",
          "ticks": 194372,
          "time": 168.72552571875,
          "velocity": 0.6535433070866141
        },
        {
          "duration": 0.14756929687501952,
          "durationTicks": 170,
          "midi": 72,
          "name": "C5",
          "ticks": 194372,
          "time": 168.72552571875,
          "velocity": 0.6535433070866141
        },
        {
          "duration": 0.1475692968749911,
          "durationTicks": 170,
          "midi": 76,
          "name": "E5",
          "ticks": 194374,
          "time": 168.727261828125,
          "velocity": 0.6535433070866141
        },
        {
          "duration": 0.14583318749998853,
          "durationTicks": 168,
          "midi": 80,
          "name": "G#5",
          "ticks": 194376,
          "time": 168.7289979375,
          "velocity": 0.6535433070866141
        },
        {
          "duration": 0.14583318750001695,
          "durationTicks": 168,
          "midi": 70,
          "name": "A#4",
          "ticks": 194752,
          "time": 169.0553865,
          "velocity": 0.6062992125984252
        },
        {
          "duration": 0.1475692968749911,
          "durationTicks": 170,
          "midi": 72,
          "name": "C5",
          "ticks": 194754,
          "time": 169.057122609375,
          "velocity": 0.6062992125984252
        },
        {
          "duration": 0.1475692968749911,
          "durationTicks": 170,
          "midi": 76,
          "name": "E5",
          "ticks": 194756,
          "time": 169.05885871875,
          "velocity": 0.6062992125984252
        },
        {
          "duration": 0.1475692968749911,
          "durationTicks": 170,
          "midi": 80,
          "name": "G#5",
          "ticks": 194758,
          "time": 169.060594828125,
          "velocity": 0.6062992125984252
        },
        {
          "duration": 0.4444440000000043,
          "durationTicks": 512,
          "midi": 72,
          "name": "C5",
          "ticks": 195140,
          "time": 169.39219171874998,
          "velocity": 0.6141732283464567
        },
        {
          "duration": 0.4444440000000043,
          "durationTicks": 512,
          "midi": 70,
          "name": "A#4",
          "ticks": 195140,
          "time": 169.39219171874998,
          "velocity": 0.6141732283464567
        },
        {
          "duration": 0.44444399999997586,
          "durationTicks": 512,
          "midi": 76,
          "name": "E5",
          "ticks": 195142,
          "time": 169.39392782812502,
          "velocity": 0.6141732283464567
        },
        {
          "duration": 0.4444440000000043,
          "durationTicks": 512,
          "midi": 80,
          "name": "G#5",
          "ticks": 195144,
          "time": 169.3956639375,
          "velocity": 0.6141732283464567
        },
        {
          "duration": 0.22222199999998793,
          "durationTicks": 256,
          "midi": 72,
          "name": "C5",
          "ticks": 195652,
          "time": 169.83663571875,
          "velocity": 0.6299212598425197
        },
        {
          "duration": 0.22222199999998793,
          "durationTicks": 256,
          "midi": 70,
          "name": "A#4",
          "ticks": 195652,
          "time": 169.83663571875,
          "velocity": 0.6299212598425197
        },
        {
          "duration": 0.22222200000001635,
          "durationTicks": 256,
          "midi": 76,
          "name": "E5",
          "ticks": 195654,
          "time": 169.838371828125,
          "velocity": 0.6299212598425197
        },
        {
          "duration": 0.22222199999998793,
          "durationTicks": 256,
          "midi": 80,
          "name": "G#5",
          "ticks": 195656,
          "time": 169.8401079375,
          "velocity": 0.6299212598425197
        },
        {
          "duration": 0.14756929687501952,
          "durationTicks": 170,
          "midi": 72,
          "name": "C5",
          "ticks": 195908,
          "time": 170.05885771874998,
          "velocity": 0.6377952755905512
        },
        {
          "duration": 0.14756929687501952,
          "durationTicks": 170,
          "midi": 70,
          "name": "A#4",
          "ticks": 195908,
          "time": 170.05885771874998,
          "velocity": 0.6377952755905512
        },
        {
          "duration": 0.1475692968749911,
          "durationTicks": 170,
          "midi": 76,
          "name": "E5",
          "ticks": 195910,
          "time": 170.060593828125,
          "velocity": 0.6377952755905512
        },
        {
          "duration": 0.14583318750001695,
          "durationTicks": 168,
          "midi": 80,
          "name": "G#5",
          "ticks": 195912,
          "time": 170.06232993749998,
          "velocity": 0.6377952755905512
        },
        {
          "duration": 0.14583318749998853,
          "durationTicks": 168,
          "midi": 70,
          "name": "A#4",
          "ticks": 196288,
          "time": 170.3887185,
          "velocity": 0.6535433070866141
        },
        {
          "duration": 0.1475692968749911,
          "durationTicks": 170,
          "midi": 73,
          "name": "C#5",
          "ticks": 196290,
          "time": 170.39045460937498,
          "velocity": 0.6535433070866141
        },
        {
          "duration": 0.14756929687501952,
          "durationTicks": 170,
          "midi": 77,
          "name": "F5",
          "ticks": 196292,
          "time": 170.39219071875,
          "velocity": 0.6535433070866141
        },
        {
          "duration": 0.14756929687501952,
          "durationTicks": 170,
          "midi": 80,
          "name": "G#5",
          "ticks": 196294,
          "time": 170.393926828125,
          "velocity": 0.6535433070866141
        },
        {
          "duration": 0.14583318749998853,
          "durationTicks": 168,
          "midi": 73,
          "name": "C#5",
          "ticks": 208960,
          "time": 181.38870749999998,
          "velocity": 0.6062992125984252
        },
        {
          "duration": 0.14756929687501952,
          "durationTicks": 170,
          "midi": 75,
          "name": "D#5",
          "ticks": 208962,
          "time": 181.39044360937498,
          "velocity": 0.6062992125984252
        },
        {
          "duration": 0.14756929687496267,
          "durationTicks": 170,
          "midi": 78,
          "name": "F#5",
          "ticks": 208964,
          "time": 181.39217971875001,
          "velocity": 0.6062992125984252
        },
        {
          "duration": 0.14756929687501952,
          "durationTicks": 170,
          "midi": 82,
          "name": "A#5",
          "ticks": 208966,
          "time": 181.393915828125,
          "velocity": 0.6062992125984252
        },
        {
          "duration": 0.20486090625001907,
          "durationTicks": 236,
          "midi": 73,
          "name": "C#5",
          "ticks": 209472,
          "time": 181.83315149999999,
          "velocity": 0.6535433070866141
        },
        {
          "duration": 0.2065970156249648,
          "durationTicks": 238,
          "midi": 75,
          "name": "D#5",
          "ticks": 209474,
          "time": 181.83488760937502,
          "velocity": 0.6535433070866141
        },
        {
          "duration": 0.20659701562502164,
          "durationTicks": 238,
          "midi": 78,
          "name": "F#5",
          "ticks": 209476,
          "time": 181.83662371875,
          "velocity": 0.6535433070866141
        },
        {
          "duration": 0.20659701562499322,
          "durationTicks": 238,
          "midi": 82,
          "name": "A#5",
          "ticks": 209478,
          "time": 181.838359828125,
          "velocity": 0.6535433070866141
        },
        {
          "duration": 0.14583318749998853,
          "durationTicks": 168,
          "midi": 72,
          "name": "C5",
          "ticks": 210496,
          "time": 182.7220395,
          "velocity": 0.6062992125984252
        },
        {
          "duration": 0.14756929687501952,
          "durationTicks": 170,
          "midi": 74,
          "name": "D5",
          "ticks": 210498,
          "time": 182.723775609375,
          "velocity": 0.6062992125984252
        },
        {
          "duration": 0.1475692968749911,
          "durationTicks": 170,
          "midi": 78,
          "name": "F#5",
          "ticks": 210500,
          "time": 182.72551171875,
          "velocity": 0.6062992125984252
        },
        {
          "duration": 0.14756929687501952,
          "durationTicks": 170,
          "midi": 82,
          "name": "A#5",
          "ticks": 210502,
          "time": 182.72724782812497,
          "velocity": 0.6062992125984252
        },
        {
          "duration": 0.20486090625001907,
          "durationTicks": 236,
          "midi": 72,
          "name": "C5",
          "ticks": 211008,
          "time": 183.1664835,
          "velocity": 0.6535433070866141
        },
        {
          "duration": 0.20659701562499322,
          "durationTicks": 238,
          "midi": 74,
          "name": "D5",
          "ticks": 211010,
          "time": 183.168219609375,
          "velocity": 0.6535433070866141
        },
        {
          "duration": 0.20659701562502164,
          "durationTicks": 238,
          "midi": 78,
          "name": "F#5",
          "ticks": 211012,
          "time": 183.16995571874997,
          "velocity": 0.6535433070866141
        },
        {
          "duration": 0.2065970156249648,
          "durationTicks": 238,
          "midi": 82,
          "name": "A#5",
          "ticks": 211014,
          "time": 183.171691828125,
          "velocity": 0.6535433070866141
        },
        {
          "duration": 0.14583318750001695,
          "durationTicks": 168,
          "midi": 70,
          "name": "A#4",
          "ticks": 212032,
          "time": 184.05537149999998,
          "velocity": 0.6062992125984252
        },
        {
          "duration": 0.14756929687501952,
          "durationTicks": 170,
          "midi": 73,
          "name": "C#5",
          "ticks": 212034,
          "time": 184.05710760937498,
          "velocity": 0.6062992125984252
        },
        {
          "duration": 0.14756929687496267,
          "durationTicks": 170,
          "midi": 77,
          "name": "F5",
          "ticks": 212036,
          "time": 184.05884371875,
          "velocity": 0.6062992125984252
        },
        {
          "duration": 0.14756929687501952,
          "durationTicks": 170,
          "midi": 82,
          "name": "A#5",
          "ticks": 212038,
          "time": 184.060579828125,
          "velocity": 0.6062992125984252
        },
        {
          "duration": 0.20486090625001907,
          "durationTicks": 236,
          "midi": 70,
          "name": "A#4",
          "ticks": 212544,
          "time": 184.49981549999998,
          "velocity": 0.6535433070866141
        },
        {
          "duration": 0.20659701562499322,
          "durationTicks": 238,
          "midi": 73,
          "name": "C#5",
          "ticks": 212546,
          "time": 184.501551609375,
          "velocity": 0.6535433070866141
        },
        {
          "duration": 0.20659701562502164,
          "durationTicks": 238,
          "midi": 77,
          "name": "F5",
          "ticks": 212548,
          "time": 184.50328771875,
          "velocity": 0.6535433070866141
        },
        {
          "duration": 0.20659701562499322,
          "durationTicks": 238,
          "midi": 82,
          "name": "A#5",
          "ticks": 212550,
          "time": 184.505023828125,
          "velocity": 0.6535433070866141
        },
        {
          "duration": 0.20486090624999065,
          "durationTicks": 236,
          "midi": 61,
          "name": "C#4",
          "ticks": 215616,
          "time": 187.1664795,
          "velocity": 0.7637795275590551
        },
        {
          "duration": 0.20486090625001907,
          "durationTicks": 236,
          "midi": 64,
          "name": "E4",
          "ticks": 216000,
          "time": 187.4998125,
          "velocity": 0.7716535433070866
        },
        {
          "duration": 0.3333329999999819,
          "durationTicks": 384,
          "midi": 67,
          "name": "G4",
          "ticks": 216384,
          "time": 187.8331455,
          "velocity": 0.7874015748031497
        },
        {
          "duration": 0.22222199999998793,
          "durationTicks": 256,
          "midi": 70,
          "name": "A#4",
          "ticks": 216768,
          "time": 188.16647849999998,
          "velocity": 0.7952755905511811
        },
        {
          "duration": 0.14583318750001695,
          "durationTicks": 168,
          "midi": 73,
          "name": "C#5",
          "ticks": 217024,
          "time": 188.38870049999997,
          "velocity": 0.8110236220472441
        },
        {
          "duration": 0.4444440000000043,
          "durationTicks": 512,
          "midi": 76,
          "name": "E5",
          "ticks": 217408,
          "time": 188.72203349999998,
          "velocity": 0.84251968503937
        },
        {
          "duration": 0.22222199999998793,
          "durationTicks": 256,
          "midi": 69,
          "name": "A4",
          "ticks": 217920,
          "time": 189.16647749999998,
          "velocity": 0.6850393700787402
        },
        {
          "duration": 0.22222199999998793,
          "durationTicks": 256,
          "midi": 72,
          "name": "C5",
          "ticks": 217922,
          "time": 189.16821360937502,
          "velocity": 0.6850393700787402
        },
        {
          "duration": 0.22222200000001635,
          "durationTicks": 256,
          "midi": 76,
          "name": "E5",
          "ticks": 217924,
          "time": 189.16994971875,
          "velocity": 0.6850393700787402
        },
        {
          "duration": 0.22222199999998793,
          "durationTicks": 256,
          "midi": 79,
          "name": "G5",
          "ticks": 217926,
          "time": 189.171685828125,
          "velocity": 0.6850393700787402
        },
        {
          "duration": 2.3333310000000154,
          "durationTicks": 2688,
          "midi": 70,
          "name": "A#4",
          "ticks": 218176,
          "time": 189.38869949999997,
          "velocity": 0.7244094488188977
        },
        {
          "duration": 2.333330999999987,
          "durationTicks": 2688,
          "midi": 73,
          "name": "C#5",
          "ticks": 218178,
          "time": 189.390435609375,
          "velocity": 0.7244094488188977
        },
        {
          "duration": 2.333330999999987,
          "durationTicks": 2688,
          "midi": 77,
          "name": "F5",
          "ticks": 218180,
          "time": 189.39217171875,
          "velocity": 0.7244094488188977
        },
        {
          "duration": 2.3333310000000154,
          "durationTicks": 2688,
          "midi": 80,
          "name": "G#5",
          "ticks": 218182,
          "time": 189.39390782812498,
          "velocity": 0.7322834645669292
        }
      ]
    },
    {
      "channel": 8,
      "controlChanges": {
        "0": [
          {
            "number": 0,
            "ticks": 520,
            "time": 0.4513884375,
            "value": 0
          }
        ],
        "6": [
          {
            "number": 6,
            "ticks": 1220,
            "time": 1.05902671875,
            "value": 0.09448818897637795
          },
          {
            "number": 6,
            "ticks": 1232,
            "time": 1.069443375,
            "value": 0.5039370078740157
          }
        ],
        "7": [
          {
            "number": 7,
            "ticks": 524,
            "time": 0.45486065624999994,
            "value": 1
          }
        ],
        "10": [
          {
            "number": 10,
            "ticks": 528,
            "time": 0.458332875,
            "value": 0.6141732283464567
          }
        ],
        "11": [
          {
            "number": 11,
            "ticks": 532,
            "time": 0.46180509375,
            "value": 1
          }
        ],
        "32": [
          {
            "number": 32,
            "ticks": 520,
            "time": 0.4513884375,
            "value": 0
          }
        ],
        "91": [
          {
            "number": 91,
            "ticks": 536,
            "time": 0.4652773125,
            "value": 0.7086614173228346
          }
        ],
        "93": [
          {
            "number": 93,
            "ticks": 540,
            "time": 0.46874953124999996,
            "value": 0
          }
        ],
        "100": [
          {
            "number": 100,
            "ticks": 1216,
            "time": 1.0555545,
            "value": 0
          },
          {
            "number": 100,
            "ticks": 1228,
            "time": 1.0659711562499998,
            "value": 0.015748031496062992
          },
          {
            "number": 100,
            "ticks": 1240,
            "time": 1.0763878125,
            "value": 1
          }
        ],
        "101": [
          {
            "number": 101,
            "ticks": 1212,
            "time": 1.05208228125,
            "value": 0
          },
          {
            "number": 101,
            "ticks": 1224,
            "time": 1.0624989375,
            "value": 0
          },
          {
            "number": 101,
            "ticks": 1236,
            "time": 1.07291559375,
            "value": 1
          }
        ],
        "121": [
          {
            "number": 121,
            "ticks": 224,
            "time": 0.19444425,
            "value": 0
          }
        ]
      },
      "pitchBends": [
        {
          "ticks": 27232,
          "time": 23.638865250000002,
          "value": 0
        },
        {
          "ticks": 27252,
          "time": 23.65622634375,
          "value": 0.4715576171875
        },
        {
          "ticks": 27288,
          "time": 23.6874763125,
          "value": 0.56591796875
        },
        {
          "ticks": 27324,
          "time": 23.71872628125,
          "value": 0.6602783203125
        },
        {
          "ticks": 27360,
          "time": 23.74997625,
          "value": 0.7545166015625
        },
        {
          "ticks": 27396,
          "time": 23.78122621875,
          "value": 0.848876953125
        },
        {
          "ticks": 27432,
          "time": 23.8124761875,
          "value": 0.9432373046875
        },
        {
          "ticks": 27452,
          "time": 23.829837281249997,
          "value": 0.9998779296875
        },
        {
          "ticks": 27454,
          "time": 23.831573390625,
          "value": 0
        }
      ],
      "instrument": {
        "family": "brass",
        "name": "trombone",
        "number": 57
      },
      "name": "",
      "notes": [
        {
          "duration": 0.33680521875000125,
          "durationTicks": 388,
          "midi": 57,
          "name": "A3",
          "ticks": 27072,
          "time": 23.4999765,
          "velocity": 0.7637795275590551
        },
        {
          "duration": 0.6666659999999993,
          "durationTicks": 768,
          "midi": 57,
          "name": "A3",
          "ticks": 27460,
          "time": 23.83678171875,
          "velocity": 0.6141732283464567
        },
        {
          "duration": 0.6666659999999993,
          "durationTicks": 768,
          "midi": 59,
          "name": "B3",
          "ticks": 27460,
          "time": 23.83678171875,
          "velocity": 0.6141732283464567
        },
        {
          "duration": 0.6666659999999993,
          "durationTicks": 768,
          "midi": 62,
          "name": "D4",
          "ticks": 27460,
          "time": 23.83678171875,
          "velocity": 0.6141732283464567
        },
        {
          "duration": 0.6666659999999993,
          "durationTicks": 768,
          "midi": 66,
          "name": "F#4",
          "ticks": 27462,
          "time": 23.838517828125,
          "velocity": 0.6141732283464567
        },
        {
          "duration": 0.5538188906249992,
          "durationTicks": 638,
          "midi": 62,
          "name": "D4",
          "ticks": 28228,
          "time": 24.50344771875,
          "velocity": 0.6299212598425197
        },
        {
          "duration": 0.5520827812500002,
          "durationTicks": 636,
          "midi": 57,
          "name": "A3",
          "ticks": 28228,
          "time": 24.50344771875,
          "velocity": 0.6299212598425197
        },
        {
          "duration": 0.5520827812500002,
          "durationTicks": 636,
          "midi": 59,
          "name": "B3",
          "ticks": 28228,
          "time": 24.50344771875,
          "velocity": 0.6299212598425197
        },
        {
          "duration": 0.5538188906249992,
          "durationTicks": 638,
          "midi": 66,
          "name": "F#4",
          "ticks": 28230,
          "time": 24.505183828125,
          "velocity": 0.6299212598425197
        },
        {
          "duration": 0.781249218750002,
          "durationTicks": 900,
          "midi": 59,
          "name": "B3",
          "ticks": 28864,
          "time": 25.0555305,
          "velocity": 0.6535433070866141
        },
        {
          "duration": 0.781249218750002,
          "durationTicks": 900,
          "midi": 55,
          "name": "G3",
          "ticks": 28864,
          "time": 25.0555305,
          "velocity": 0.6535433070866141
        },
        {
          "duration": 0.779513109375003,
          "durationTicks": 898,
          "midi": 62,
          "name": "D4",
          "ticks": 28866,
          "time": 25.057266609375,
          "velocity": 0.6535433070866141
        },
        {
          "duration": 0.779513109375003,
          "durationTicks": 898,
          "midi": 65,
          "name": "F4",
          "ticks": 28868,
          "time": 25.059002718749998,
          "velocity": 0.6535433070866141
        },
        {
          "duration": 0.21874978125000055,
          "durationTicks": 252,
          "midi": 62,
          "name": "D4",
          "ticks": 29764,
          "time": 25.83677971875,
          "velocity": 0.7637795275590551
        },
        {
          "duration": 0.21354145312499995,
          "durationTicks": 246,
          "midi": 50,
          "name": "D3",
          "ticks": 29764,
          "time": 25.83677971875,
          "velocity": 0.7637795275590551
        },
        {
          "duration": 0.20486090624999775,
          "durationTicks": 236,
          "midi": 50,
          "name": "D3",
          "ticks": 30144,
          "time": 26.1666405,
          "velocity": 0.7637795275590551
        },
        {
          "duration": 0.20659701562500032,
          "durationTicks": 238,
          "midi": 62,
          "name": "D4",
          "ticks": 30144,
          "time": 26.1666405,
          "velocity": 0.7637795275590551
        },
        {
          "duration": 0.22222199999999503,
          "durationTicks": 256,
          "midi": 64,
          "name": "E4",
          "ticks": 30532,
          "time": 26.50344571875,
          "velocity": 0.6062992125984252
        },
        {
          "duration": 0.22222199999999503,
          "durationTicks": 256,
          "midi": 61,
          "name": "C#4",
          "ticks": 30532,
          "time": 26.50344571875,
          "velocity": 0.6062992125984252
        },
        {
          "duration": 0.22222199999999503,
          "durationTicks": 256,
          "midi": 57,
          "name": "A3",
          "ticks": 30532,
          "time": 26.50344571875,
          "velocity": 0.6062992125984252
        },
        {
          "duration": 0.22222200000000214,
          "durationTicks": 256,
          "midi": 69,
          "name": "A4",
          "ticks": 30534,
          "time": 26.505181828125,
          "velocity": 0.6062992125984252
        },
        {
          "duration": 0.4444440000000043,
          "durationTicks": 512,
          "midi": 61,
          "name": "C#4",
          "ticks": 30788,
          "time": 26.725667718749996,
          "velocity": 0.6141732283464567
        },
        {
          "duration": 0.4444440000000043,
          "durationTicks": 512,
          "midi": 57,
          "name": "A3",
          "ticks": 30788,
          "time": 26.725667718749996,
          "velocity": 0.6141732283464567
        },
        {
          "duration": 0.4444440000000043,
          "durationTicks": 512,
          "midi": 64,
          "name": "E4",
          "ticks": 30788,
          "time": 26.725667718749996,
          "velocity": 0.6141732283464567
        },
        {
          "duration": 0.4444439999999972,
          "durationTicks": 512,
          "midi": 69,
          "name": "A4",
          "ticks": 30790,
          "time": 26.727403828125002,
          "velocity": 0.6141732283464567
        },
        {
          "duration": 0.5520827812500002,
          "durationTicks": 636,
          "midi": 61,
          "name": "C#4",
          "ticks": 31300,
          "time": 27.17011171875,
          "velocity": 0.6299212598425197
        },
        {
          "duration": 0.5520827812500002,
          "durationTicks": 636,
          "midi": 57,
          "name": "A3",
          "ticks": 31300,
          "time": 27.17011171875,
          "velocity": 0.6299212598425197
        },
        {
          "duration": 0.5538188906249992,
          "durationTicks": 638,
          "midi": 64,
          "name": "E4",
          "ticks": 31300,
          "time": 27.17011171875,
          "velocity": 0.6299212598425197
        },
        {
          "duration": 0.5538188906249992,
          "durationTicks": 638,
          "midi": 67,
          "name": "G4",
          "ticks": 31302,
          "time": 27.171847828125,
          "velocity": 0.6299212598425197
        },
        {
          "duration": 0.14583318749999918,
          "durationTicks": 168,
          "midi": 57,
          "name": "A3",
          "ticks": 31936,
          "time": 27.7221945,
          "velocity": 0.6535433070866141
        },
        {
          "duration": 0.1475692968749982,
          "durationTicks": 170,
          "midi": 61,
          "name": "C#4",
          "ticks": 31936,
          "time": 27.7221945,
          "velocity": 0.6535433070866141
        },
        {
          "duration": 0.1475692968749982,
          "durationTicks": 170,
          "midi": 62,
          "name": "D4",
          "ticks": 31938,
          "time": 27.723930609375,
          "velocity": 0.6535433070866141
        },
        {
          "duration": 0.14756929687500175,
          "durationTicks": 170,
          "midi": 66,
          "name": "F#4",
          "ticks": 31940,
          "time": 27.72566671875,
          "velocity": 0.6535433070866141
        },
        {
          "duration": 0.7743047812500023,
          "durationTicks": 892,
          "midi": 59,
          "name": "B3",
          "ticks": 32324,
          "time": 28.058999718749998,
          "velocity": 0.6850393700787402
        },
        {
          "duration": 0.7760408906249978,
          "durationTicks": 894,
          "midi": 62,
          "name": "D4",
          "ticks": 32324,
          "time": 28.058999718749998,
          "velocity": 0.6850393700787402
        },
        {
          "duration": 0.7743047812500023,
          "durationTicks": 892,
          "midi": 57,
          "name": "A3",
          "ticks": 32324,
          "time": 28.058999718749998,
          "velocity": 0.6850393700787402
        },
        {
          "duration": 0.7760408906250014,
          "durationTicks": 894,
          "midi": 66,
          "name": "F#4",
          "ticks": 32326,
          "time": 28.060735828125,
          "velocity": 0.6850393700787402
        },
        {
          "duration": 0.3298607812500052,
          "durationTicks": 380,
          "midi": 61,
          "name": "C#4",
          "ticks": 33860,
          "time": 29.392331718749997,
          "velocity": 0.6850393700787402
        },
        {
          "duration": 0.7812492187499984,
          "durationTicks": 900,
          "midi": 59,
          "name": "B3",
          "ticks": 34240,
          "time": 29.722192500000002,
          "velocity": 0.6929133858267716
        },
        {
          "duration": 0.3298607812500016,
          "durationTicks": 380,
          "midi": 61,
          "name": "C#4",
          "ticks": 35396,
          "time": 30.72566371875,
          "velocity": 0.7165354330708661
        },
        {
          "duration": 0.7812492187499984,
          "durationTicks": 900,
          "midi": 59,
          "name": "B3",
          "ticks": 35776,
          "time": 31.0555245,
          "velocity": 0.7322834645669292
        },
        {
          "duration": 0.5520827812500002,
          "durationTicks": 636,
          "midi": 58,
          "name": "A#3",
          "ticks": 37444,
          "time": 32.50343971875,
          "velocity": 0.6062992125984252
        },
        {
          "duration": 0.5520827812500002,
          "durationTicks": 636,
          "midi": 55,
          "name": "G3",
          "ticks": 37444,
          "time": 32.50343971875,
          "velocity": 0.6062992125984252
        },
        {
          "duration": 0.5538188906249957,
          "durationTicks": 638,
          "midi": 61,
          "name": "C#4",
          "ticks": 37444,
          "time": 32.50343971875,
          "velocity": 0.6062992125984252
        },
        {
          "duration": 0.5538188906250028,
          "durationTicks": 638,
          "midi": 65,
          "name": "F4",
          "ticks": 37446,
          "time": 32.505175828125,
          "velocity": 0.6062992125984252
        },
        {
          "duration": 0.1475692968749982,
          "durationTicks": 170,
          "midi": 59,
          "name": "B3",
          "ticks": 38080,
          "time": 33.0555225,
          "velocity": 0.6535433070866141
        },
        {
          "duration": 0.14583318749999563,
          "durationTicks": 168,
          "midi": 57,
          "name": "A3",
          "ticks": 38080,
          "time": 33.0555225,
          "velocity": 0.6535433070866141
        },
        {
          "duration": 0.1475692968749982,
          "durationTicks": 170,
          "midi": 62,
          "name": "D4",
          "ticks": 38082,
          "time": 33.057258609375,
          "velocity": 0.6535433070866141
        },
        {
          "duration": 0.1475692968749982,
          "durationTicks": 170,
          "midi": 66,
          "name": "F#4",
          "ticks": 38084,
          "time": 33.05899471875,
          "velocity": 0.6535433070866141
        },
        {
          "duration": 0.6666659999999993,
          "durationTicks": 768,
          "midi": 59,
          "name": "B3",
          "ticks": 62022,
          "time": 53.838487828125,
          "velocity": 0.6062992125984252
        },
        {
          "duration": 0.6666659999999993,
          "durationTicks": 768,
          "midi": 66,
          "name": "F#4",
          "ticks": 62022,
          "time": 53.838487828125,
          "velocity": 0.6062992125984252
        },
        {
          "duration": 0.6649298906249967,
          "durationTicks": 766,
          "midi": 62,
          "name": "D4",
          "ticks": 62024,
          "time": 53.8402239375,
          "velocity": 0.6062992125984252
        },
        {
          "duration": 0.6666659999999993,
          "durationTicks": 768,
          "midi": 69,
          "name": "A4",
          "ticks": 62024,
          "time": 53.8402239375,
          "velocity": 0.6062992125984252
        },
        {
          "duration": 0.6614576718750058,
          "durationTicks": 762,
          "midi": 62,
          "name": "D4",
          "ticks": 62790,
          "time": 54.505153828124996,
          "velocity": 0.6299212598425197
        },
        {
          "duration": 0.6666659999999993,
          "durationTicks": 768,
          "midi": 67,
          "name": "G4",
          "ticks": 62790,
          "time": 54.505153828124996,
          "velocity": 0.6299212598425197
        },
        {
          "duration": 0.6666660000000064,
          "durationTicks": 768,
          "midi": 71,
          "name": "B4",
          "ticks": 62792,
          "time": 54.5068899375,
          "velocity": 0.6299212598425197
        },
        {
          "duration": 0.6666660000000064,
          "durationTicks": 768,
          "midi": 64,
          "name": "E4",
          "ticks": 62792,
          "time": 54.5068899375,
          "velocity": 0.6299212598425197
        },
        {
          "duration": 0.6666660000000064,
          "durationTicks": 768,
          "midi": 61,
          "name": "C#4",
          "ticks": 63558,
          "time": 55.171819828124995,
          "velocity": 0.6535433070866141
        },
        {
          "duration": 0.6666660000000064,
          "durationTicks": 768,
          "midi": 55,
          "name": "G3",
          "ticks": 63558,
          "time": 55.171819828124995,
          "velocity": 0.6535433070866141
        },
        {
          "duration": 0.6666659999999993,
          "durationTicks": 768,
          "midi": 66,
          "name": "F#4",
          "ticks": 63560,
          "time": 55.173555937500005,
          "velocity": 0.6535433070866141
        },
        {
          "duration": 0.6666659999999993,
          "durationTicks": 768,
          "midi": 58,
          "name": "A#3",
          "ticks": 63560,
          "time": 55.173555937500005,
          "velocity": 0.6535433070866141
        },
        {
          "duration": 0.22222199999998793,
          "durationTicks": 256,
          "midi": 57,
          "name": "A3",
          "ticks": 111172,
          "time": 96.50337571875001,
          "velocity": 0.6062992125984252
        },
        {
          "duration": 0.10763878125000303,
          "durationTicks": 124,
          "midi": 59,
          "name": "B3",
          "ticks": 111428,
          "time": 96.72559771875,
          "velocity": 0.6220472440944882
        },
        {
          "duration": 0.22222200000000214,
          "durationTicks": 256,
          "midi": 62,
          "name": "D4",
          "ticks": 111552,
          "time": 96.8332365,
          "velocity": 0.6299212598425197
        },
        {
          "duration": 0.1145832187499991,
          "durationTicks": 132,
          "midi": 64,
          "name": "E4",
          "ticks": 111808,
          "time": 97.0554585,
          "velocity": 0.6535433070866141
        },
        {
          "duration": 0.14756929687501952,
          "durationTicks": 170,
          "midi": 59,
          "name": "B3",
          "ticks": 112196,
          "time": 97.39226371874999,
          "velocity": 0.5275590551181102
        },
        {
          "duration": 0.14930540625000788,
          "durationTicks": 172,
          "midi": 62,
          "name": "D4",
          "ticks": 112196,
          "time": 97.39226371874999,
          "velocity": 0.5275590551181102
        },
        {
          "duration": 0.14756929687501952,
          "durationTicks": 170,
          "midi": 57,
          "name": "A3",
          "ticks": 112196,
          "time": 97.39226371874999,
          "velocity": 0.5275590551181102
        },
        {
          "duration": 0.1475692968749911,
          "durationTicks": 170,
          "midi": 66,
          "name": "F#4",
          "ticks": 112198,
          "time": 97.393999828125,
          "velocity": 0.5275590551181102
        },
        {
          "duration": 0.14583318750000274,
          "durationTicks": 168,
          "midi": 57,
          "name": "A3",
          "ticks": 112576,
          "time": 97.7221245,
          "velocity": 0.5511811023622047
        },
        {
          "duration": 0.1475692968749911,
          "durationTicks": 170,
          "midi": 59,
          "name": "B3",
          "ticks": 112576,
          "time": 97.7221245,
          "velocity": 0.5511811023622047
        },
        {
          "duration": 0.1475692968749911,
          "durationTicks": 170,
          "midi": 62,
          "name": "D4",
          "ticks": 112578,
          "time": 97.723860609375,
          "velocity": 0.5511811023622047
        },
        {
          "duration": 0.1475692968750053,
          "durationTicks": 170,
          "midi": 66,
          "name": "F#4",
          "ticks": 112580,
          "time": 97.72559671875,
          "velocity": 0.5511811023622047
        },
        {
          "duration": 0.1475692968750053,
          "durationTicks": 170,
          "midi": 57,
          "name": "A3",
          "ticks": 112964,
          "time": 98.05892971875,
          "velocity": 0.5748031496062992
        },
        {
          "duration": 0.14930540625000788,
          "durationTicks": 172,
          "midi": 62,
          "name": "D4",
          "ticks": 112964,
          "time": 98.05892971875,
          "velocity": 0.5748031496062992
        },
        {
          "duration": 0.1475692968750053,
          "durationTicks": 170,
          "midi": 59,
          "name": "B3",
          "ticks": 112964,
          "time": 98.05892971875,
          "velocity": 0.5748031496062992
        },
        {
          "duration": 0.1475692968749911,
          "durationTicks": 170,
          "midi": 66,
          "name": "F#4",
          "ticks": 112966,
          "time": 98.06066582812501,
          "velocity": 0.5748031496062992
        },
        {
          "duration": 0.14583318750000274,
          "durationTicks": 168,
          "midi": 57,
          "name": "A3",
          "ticks": 113344,
          "time": 98.3887905,
          "velocity": 0.6850393700787402
        },
        {
          "duration": 0.22222199999998793,
          "durationTicks": 256,
          "midi": 60,
          "name": "C4",
          "ticks": 113476,
          "time": 98.50337371875,
          "velocity": 0.6062992125984252
        },
        {
          "duration": 0.22222199999998793,
          "durationTicks": 256,
          "midi": 56,
          "name": "G#3",
          "ticks": 113476,
          "time": 98.50337371875,
          "velocity": 0.6062992125984252
        },
        {
          "duration": 0.22222199999998793,
          "durationTicks": 256,
          "midi": 54,
          "name": "F#3",
          "ticks": 113476,
          "time": 98.50337371875,
          "velocity": 0.6062992125984252
        },
        {
          "duration": 0.22222200000000214,
          "durationTicks": 256,
          "midi": 63,
          "name": "D#4",
          "ticks": 113478,
          "time": 98.505109828125,
          "velocity": 0.6062992125984252
        },
        {
          "duration": 0.7743047812500095,
          "durationTicks": 892,
          "midi": 55,
          "name": "G3",
          "ticks": 113732,
          "time": 98.72559571874999,
          "velocity": 0.6141732283464567
        },
        {
          "duration": 0.7760408906249978,
          "durationTicks": 894,
          "midi": 59,
          "name": "B3",
          "ticks": 113732,
          "time": 98.72559571874999,
          "velocity": 0.6141732283464567
        },
        {
          "duration": 0.7743047812500095,
          "durationTicks": 892,
          "midi": 53,
          "name": "F3",
          "ticks": 113732,
          "time": 98.72559571874999,
          "velocity": 0.6141732283464567
        },
        {
          "duration": 0.7760408906249978,
          "durationTicks": 894,
          "midi": 62,
          "name": "D4",
          "ticks": 113734,
          "time": 98.727331828125,
          "velocity": 0.6141732283464567
        },
        {
          "duration": 0.22222200000000214,
          "durationTicks": 256,
          "midi": 54,
          "name": "F#3",
          "ticks": 114624,
          "time": 99.4999005,
          "velocity": 0.6535433070866141
        },
        {
          "duration": 0.22222200000000214,
          "durationTicks": 256,
          "midi": 56,
          "name": "G#3",
          "ticks": 114624,
          "time": 99.4999005,
          "velocity": 0.6535433070866141
        },
        {
          "duration": 0.22222200000001635,
          "durationTicks": 256,
          "midi": 60,
          "name": "C4",
          "ticks": 114626,
          "time": 99.50163660937498,
          "velocity": 0.6535433070866141
        },
        {
          "duration": 0.22222199999998793,
          "durationTicks": 256,
          "midi": 63,
          "name": "D#4",
          "ticks": 114628,
          "time": 99.50337271875,
          "velocity": 0.6535433070866141
        },
        {
          "duration": 0.7812492187500055,
          "durationTicks": 900,
          "midi": 55,
          "name": "G3",
          "ticks": 114880,
          "time": 99.7221225,
          "velocity": 0.6614173228346457
        },
        {
          "duration": 0.7812492187500055,
          "durationTicks": 900,
          "midi": 53,
          "name": "F3",
          "ticks": 114880,
          "time": 99.7221225,
          "velocity": 0.6614173228346457
        },
        {
          "duration": 0.779513109375003,
          "durationTicks": 898,
          "midi": 59,
          "name": "B3",
          "ticks": 114882,
          "time": 99.723858609375,
          "velocity": 0.6614173228346457
        },
        {
          "duration": 0.779513109375003,
          "durationTicks": 898,
          "midi": 62,
          "name": "D4",
          "ticks": 114884,
          "time": 99.72559471874999,
          "velocity": 0.6614173228346457
        },
        {
          "duration": 0.5520827812500073,
          "durationTicks": 636,
          "midi": 56,
          "name": "G#3",
          "ticks": 115780,
          "time": 100.50337171875,
          "velocity": 0.7007874015748031
        },
        {
          "duration": 0.5538188906249957,
          "durationTicks": 638,
          "midi": 59,
          "name": "B3",
          "ticks": 115780,
          "time": 100.50337171875,
          "velocity": 0.7007874015748031
        },
        {
          "duration": 0.5520827812500073,
          "durationTicks": 636,
          "midi": 49,
          "name": "C#3",
          "ticks": 115780,
          "time": 100.50337171875,
          "velocity": 0.7007874015748031
        },
        {
          "duration": 0.5538188906249957,
          "durationTicks": 638,
          "midi": 65,
          "name": "F4",
          "ticks": 115782,
          "time": 100.50510782812499,
          "velocity": 0.7007874015748031
        },
        {
          "duration": 1.4479152187499977,
          "durationTicks": 1668,
          "midi": 55,
          "name": "G3",
          "ticks": 116416,
          "time": 101.05545450000001,
          "velocity": 0.7322834645669292
        },
        {
          "duration": 1.4479152187499977,
          "durationTicks": 1668,
          "midi": 48,
          "name": "C3",
          "ticks": 116416,
          "time": 101.05545450000001,
          "velocity": 0.7322834645669292
        },
        {
          "duration": 1.4461791093750094,
          "durationTicks": 1666,
          "midi": 60,
          "name": "C4",
          "ticks": 116418,
          "time": 101.057190609375,
          "velocity": 0.7322834645669292
        },
        {
          "duration": 1.4461791093750094,
          "durationTicks": 1666,
          "midi": 64,
          "name": "E4",
          "ticks": 116420,
          "time": 101.05892671874999,
          "velocity": 0.7322834645669292
        },
        {
          "duration": 0.14756929687501952,
          "durationTicks": 170,
          "midi": 55,
          "name": "G3",
          "ticks": 119108,
          "time": 103.39225771874999,
          "velocity": 0.6850393700787402
        },
        {
          "duration": 0.14756929687501952,
          "durationTicks": 170,
          "midi": 59,
          "name": "B3",
          "ticks": 119108,
          "time": 103.39225771874999,
          "velocity": 0.6850393700787402
        },
        {
          "duration": 0.14930540625000788,
          "durationTicks": 172,
          "midi": 62,
          "name": "D4",
          "ticks": 119108,
          "time": 103.39225771874999,
          "velocity": 0.6850393700787402
        },
        {
          "duration": 0.1475692968749911,
          "durationTicks": 170,
          "midi": 65,
          "name": "F4",
          "ticks": 119110,
          "time": 103.393993828125,
          "velocity": 0.6850393700787402
        },
        {
          "duration": 0.22222200000000214,
          "durationTicks": 256,
          "midi": 60,
          "name": "C4",
          "ticks": 132288,
          "time": 114.8332185,
          "velocity": 0.44881889763779526
        },
        {
          "duration": 0.22222200000000214,
          "durationTicks": 256,
          "midi": 57,
          "name": "A3",
          "ticks": 132288,
          "time": 114.8332185,
          "velocity": 0.44881889763779526
        },
        {
          "duration": 0.22222200000000214,
          "durationTicks": 256,
          "midi": 64,
          "name": "E4",
          "ticks": 132290,
          "time": 114.83495460937499,
          "velocity": 0.44881889763779526
        },
        {
          "duration": 0.22222199999998793,
          "durationTicks": 256,
          "midi": 67,
          "name": "G4",
          "ticks": 132292,
          "time": 114.83669071875,
          "velocity": 0.44881889763779526
        },
        {
          "duration": 0.7812492187500055,
          "durationTicks": 900,
          "midi": 60,
          "name": "C4",
          "ticks": 132544,
          "time": 115.0554405,
          "velocity": 0.49606299212598426
        },
        {
          "duration": 0.7812492187500055,
          "durationTicks": 900,
          "midi": 57,
          "name": "A3",
          "ticks": 132544,
          "time": 115.0554405,
          "velocity": 0.49606299212598426
        },
        {
          "duration": 0.7795131093750172,
          "durationTicks": 898,
          "midi": 64,
          "name": "E4",
          "ticks": 132546,
          "time": 115.05717660937499,
          "velocity": 0.49606299212598426
        },
        {
          "duration": 0.779513109375003,
          "durationTicks": 898,
          "midi": 67,
          "name": "G4",
          "ticks": 132548,
          "time": 115.05891271875,
          "velocity": 0.49606299212598426
        },
        {
          "duration": 0.22222200000000214,
          "durationTicks": 256,
          "midi": 60,
          "name": "C4",
          "ticks": 133824,
          "time": 116.1665505,
          "velocity": 0.4881889763779528
        },
        {
          "duration": 0.22222200000000214,
          "durationTicks": 256,
          "midi": 57,
          "name": "A3",
          "ticks": 133824,
          "time": 116.1665505,
          "velocity": 0.4881889763779528
        },
        {
          "duration": 0.22222200000000214,
          "durationTicks": 256,
          "midi": 64,
          "name": "E4",
          "ticks": 133826,
          "time": 116.16828660937499,
          "velocity": 0.4881889763779528
        },
        {
          "duration": 0.22222199999998793,
          "durationTicks": 256,
          "midi": 67,
          "name": "G4",
          "ticks": 133828,
          "time": 116.17002271875,
          "velocity": 0.4881889763779528
        },
        {
          "duration": 0.7812492187500055,
          "durationTicks": 900,
          "midi": 60,
          "name": "C4",
          "ticks": 134080,
          "time": 116.3887725,
          "velocity": 0.5433070866141733
        },
        {
          "duration": 0.7812492187500055,
          "durationTicks": 900,
          "midi": 57,
          "name": "A3",
          "ticks": 134080,
          "time": 116.3887725,
          "velocity": 0.5433070866141733
        },
        {
          "duration": 0.7795131093750172,
          "durationTicks": 898,
          "midi": 64,
          "name": "E4",
          "ticks": 134082,
          "time": 116.39050860937499,
          "velocity": 0.5433070866141733
        },
        {
          "duration": 0.779513109375003,
          "durationTicks": 898,
          "midi": 67,
          "name": "G4",
          "ticks": 134084,
          "time": 116.39224471874999,
          "velocity": 0.5433070866141733
        },
        {
          "duration": 0.1475692968750053,
          "durationTicks": 170,
          "midi": 60,
          "name": "C4",
          "ticks": 135236,
          "time": 117.39224371875,
          "velocity": 0.5275590551181102
        },
        {
          "duration": 0.14930540625000788,
          "durationTicks": 172,
          "midi": 64,
          "name": "E4",
          "ticks": 135236,
          "time": 117.39224371875,
          "velocity": 0.5275590551181102
        },
        {
          "duration": 0.1475692968750053,
          "durationTicks": 170,
          "midi": 57,
          "name": "A3",
          "ticks": 135236,
          "time": 117.39224371875,
          "velocity": 0.5275590551181102
        },
        {
          "duration": 0.1475692968750053,
          "durationTicks": 170,
          "midi": 67,
          "name": "G4",
          "ticks": 135238,
          "time": 117.393979828125,
          "velocity": 0.5275590551181102
        },
        {
          "duration": 0.21527756249999186,
          "durationTicks": 248,
          "midi": 64,
          "name": "E4",
          "ticks": 135748,
          "time": 117.83668771875,
          "velocity": 0.5433070866141733
        },
        {
          "duration": 0.2135414531250035,
          "durationTicks": 246,
          "midi": 58,
          "name": "A#3",
          "ticks": 135748,
          "time": 117.83668771875,
          "velocity": 0.5433070866141733
        },
        {
          "duration": 0.21527756249999186,
          "durationTicks": 248,
          "midi": 62,
          "name": "D4",
          "ticks": 135748,
          "time": 117.83668771875,
          "velocity": 0.5433070866141733
        },
        {
          "duration": 0.2135414531249893,
          "durationTicks": 246,
          "midi": 67,
          "name": "G4",
          "ticks": 135750,
          "time": 117.838423828125,
          "velocity": 0.5433070866141733
        },
        {
          "duration": 0.22222200000000214,
          "durationTicks": 256,
          "midi": 57,
          "name": "A3",
          "ticks": 136896,
          "time": 118.8332145,
          "velocity": 0.6141732283464567
        },
        {
          "duration": 0.22222200000000214,
          "durationTicks": 256,
          "midi": 61,
          "name": "C#4",
          "ticks": 136896,
          "time": 118.8332145,
          "velocity": 0.6141732283464567
        },
        {
          "duration": 0.22222200000001635,
          "durationTicks": 256,
          "midi": 64,
          "name": "E4",
          "ticks": 136898,
          "time": 118.83495060937499,
          "velocity": 0.6141732283464567
        },
        {
          "duration": 0.22222199999998793,
          "durationTicks": 256,
          "midi": 67,
          "name": "G4",
          "ticks": 136900,
          "time": 118.83668671875,
          "velocity": 0.6141732283464567
        },
        {
          "duration": 0.4444440000000043,
          "durationTicks": 512,
          "midi": 61,
          "name": "C#4",
          "ticks": 137152,
          "time": 119.0554365,
          "velocity": 0.6299212598425197
        },
        {
          "duration": 0.4444440000000043,
          "durationTicks": 512,
          "midi": 57,
          "name": "A3",
          "ticks": 137152,
          "time": 119.0554365,
          "velocity": 0.6299212598425197
        },
        {
          "duration": 0.44444399999999007,
          "durationTicks": 512,
          "midi": 64,
          "name": "E4",
          "ticks": 137154,
          "time": 119.057172609375,
          "velocity": 0.6299212598425197
        },
        {
          "duration": 0.4444440000000185,
          "durationTicks": 512,
          "midi": 67,
          "name": "G4",
          "ticks": 137156,
          "time": 119.05890871874999,
          "velocity": 0.6299212598425197
        },
        {
          "duration": 0.11631932812500168,
          "durationTicks": 134,
          "midi": 55,
          "name": "G3",
          "ticks": 141504,
          "time": 122.83321049999999,
          "velocity": 0.6850393700787402
        },
        {
          "duration": 0.10590267187501468,
          "durationTicks": 122,
          "midi": 57,
          "name": "A3",
          "ticks": 141638,
          "time": 122.949529828125,
          "velocity": 0.6850393700787402
        },
        {
          "duration": 0.11631932812498746,
          "durationTicks": 134,
          "midi": 55,
          "name": "G3",
          "ticks": 141760,
          "time": 123.05543250000001,
          "velocity": 0.6850393700787402
        },
        {
          "duration": 0.21701367187500864,
          "durationTicks": 250,
          "midi": 60,
          "name": "C4",
          "ticks": 141894,
          "time": 123.171751828125,
          "velocity": 0.6929133858267716
        },
        {
          "duration": 0.20486090624999065,
          "durationTicks": 236,
          "midi": 60,
          "name": "C4",
          "ticks": 142272,
          "time": 123.4998765,
          "velocity": 0.7007874015748031
        },
        {
          "duration": 0.5503466718750047,
          "durationTicks": 634,
          "midi": 60,
          "name": "C4",
          "ticks": 142662,
          "time": 123.838417828125,
          "velocity": 0.7086614173228346
        },
        {
          "duration": 0.11631932812498746,
          "durationTicks": 134,
          "midi": 60,
          "name": "C4",
          "ticks": 143296,
          "time": 124.38876450000001,
          "velocity": 0.7165354330708661
        },
        {
          "duration": 0.22222200000000214,
          "durationTicks": 256,
          "midi": 57,
          "name": "A3",
          "ticks": 143430,
          "time": 124.505083828125,
          "velocity": 0.7244094488188977
        },
        {
          "duration": 0.4444440000000043,
          "durationTicks": 512,
          "midi": 55,
          "name": "G3",
          "ticks": 143686,
          "time": 124.727305828125,
          "velocity": 0.7322834645669292
        },
        {
          "duration": 0.22222200000001635,
          "durationTicks": 256,
          "midi": 60,
          "name": "C4",
          "ticks": 156864,
          "time": 136.1665305,
          "velocity": 0.5275590551181102
        },
        {
          "duration": 0.22222200000001635,
          "durationTicks": 256,
          "midi": 57,
          "name": "A3",
          "ticks": 156864,
          "time": 136.1665305,
          "velocity": 0.5275590551181102
        },
        {
          "duration": 0.22222199999998793,
          "durationTicks": 256,
          "midi": 64,
          "name": "E4",
          "ticks": 156866,
          "time": 136.168266609375,
          "velocity": 0.5275590551181102
        },
        {
          "duration": 0.22222199999998793,
          "durationTicks": 256,
          "midi": 67,
          "name": "G4",
          "ticks": 156868,
          "time": 136.17000271875,
          "velocity": 0.5275590551181102
        },
        {
          "duration": 0.7812492187499913,
          "durationTicks": 900,
          "midi": 57,
          "name": "A3",
          "ticks": 157120,
          "time": 136.3887525,
          "velocity": 0.5275590551181102
        },
        {
          "duration": 0.7812492187499913,
          "durationTicks": 900,
          "midi": 60,
          "name": "C4",
          "ticks": 157120,
          "time": 136.3887525,
          "velocity": 0.5275590551181102
        },
        {
          "duration": 0.7795131093750172,
          "durationTicks": 898,
          "midi": 64,
          "name": "E4",
          "ticks": 157122,
          "time": 136.39048860937498,
          "velocity": 0.5275590551181102
        },
        {
          "duration": 0.7795131093750172,
          "durationTicks": 898,
          "midi": 67,
          "name": "G4",
          "ticks": 157124,
          "time": 136.39222471875,
          "velocity": 0.5275590551181102
        },
        {
          "duration": 0.22222199999998793,
          "durationTicks": 256,
          "midi": 57,
          "name": "A3",
          "ticks": 158400,
          "time": 137.4998625,
          "velocity": 0.5354330708661418
        },
        {
          "duration": 0.22222199999998793,
          "durationTicks": 256,
          "midi": 60,
          "name": "C4",
          "ticks": 158400,
          "time": 137.4998625,
          "velocity": 0.5354330708661418
        },
        {
          "duration": 0.22222200000001635,
          "durationTicks": 256,
          "midi": 64,
          "name": "E4",
          "ticks": 158402,
          "time": 137.50159860937498,
          "velocity": 0.5354330708661418
        },
        {
          "duration": 0.22222199999998793,
          "durationTicks": 256,
          "midi": 67,
          "name": "G4",
          "ticks": 158404,
          "time": 137.50333471875,
          "velocity": 0.5354330708661418
        },
        {
          "duration": 0.7812492187500197,
          "durationTicks": 900,
          "midi": 60,
          "name": "C4",
          "ticks": 158656,
          "time": 137.7220845,
          "velocity": 0.5433070866141733
        },
        {
          "duration": 0.7812492187500197,
          "durationTicks": 900,
          "midi": 57,
          "name": "A3",
          "ticks": 158656,
          "time": 137.7220845,
          "velocity": 0.5433070866141733
        },
        {
          "duration": 0.7795131093750172,
          "durationTicks": 898,
          "midi": 64,
          "name": "E4",
          "ticks": 158658,
          "time": 137.723820609375,
          "velocity": 0.5433070866141733
        },
        {
          "duration": 0.7795131093749887,
          "durationTicks": 898,
          "midi": 67,
          "name": "G4",
          "ticks": 158660,
          "time": 137.72555671875,
          "velocity": 0.5433070866141733
        },
        {
          "duration": 0.1475692968749911,
          "durationTicks": 170,
          "midi": 60,
          "name": "C4",
          "ticks": 159812,
          "time": 138.72555571875,
          "velocity": 0.5511811023622047
        },
        {
          "duration": 0.1475692968749911,
          "durationTicks": 170,
          "midi": 57,
          "name": "A3",
          "ticks": 159812,
          "time": 138.72555571875,
          "velocity": 0.5511811023622047
        },
        {
          "duration": 0.14930540624999367,
          "durationTicks": 172,
          "midi": 64,
          "name": "E4",
          "ticks": 159812,
          "time": 138.72555571875,
          "velocity": 0.5511811023622047
        },
        {
          "duration": 0.1475692968749911,
          "durationTicks": 170,
          "midi": 67,
          "name": "G4",
          "ticks": 159814,
          "time": 138.727291828125,
          "velocity": 0.5511811023622047
        },
        {
          "duration": 0.21527756249997765,
          "durationTicks": 248,
          "midi": 64,
          "name": "E4",
          "ticks": 160324,
          "time": 139.16999971875,
          "velocity": 0.5590551181102362
        },
        {
          "duration": 0.21527756249997765,
          "durationTicks": 248,
          "midi": 62,
          "name": "D4",
          "ticks": 160324,
          "time": 139.16999971875,
          "velocity": 0.5590551181102362
        },
        {
          "duration": 0.2135414531250035,
          "durationTicks": 246,
          "midi": 58,
          "name": "A#3",
          "ticks": 160324,
          "time": 139.16999971875,
          "velocity": 0.5590551181102362
        },
        {
          "duration": 0.21354145312497508,
          "durationTicks": 246,
          "midi": 67,
          "name": "G4",
          "ticks": 160326,
          "time": 139.171735828125,
          "velocity": 0.5590551181102362
        },
        {
          "duration": 0.22222199999998793,
          "durationTicks": 256,
          "midi": 61,
          "name": "C#4",
          "ticks": 161472,
          "time": 140.1665265,
          "velocity": 0.5669291338582677
        },
        {
          "duration": 0.22222199999998793,
          "durationTicks": 256,
          "midi": 57,
          "name": "A3",
          "ticks": 161472,
          "time": 140.1665265,
          "velocity": 0.5669291338582677
        },
        {
          "duration": 0.22222200000001635,
          "durationTicks": 256,
          "midi": 64,
          "name": "E4",
          "ticks": 161474,
          "time": 140.16826260937498,
          "velocity": 0.5669291338582677
        },
        {
          "duration": 0.22222199999998793,
          "durationTicks": 256,
          "midi": 67,
          "name": "G4",
          "ticks": 161476,
          "time": 140.16999871875,
          "velocity": 0.5669291338582677
        },
        {
          "duration": 0.4444440000000043,
          "durationTicks": 512,
          "midi": 61,
          "name": "C#4",
          "ticks": 161728,
          "time": 140.3887485,
          "velocity": 0.5748031496062992
        },
        {
          "duration": 0.4444440000000043,
          "durationTicks": 512,
          "midi": 57,
          "name": "A3",
          "ticks": 161728,
          "time": 140.3887485,
          "velocity": 0.5748031496062992
        },
        {
          "duration": 0.4444440000000043,
          "durationTicks": 512,
          "midi": 64,
          "name": "E4",
          "ticks": 161730,
          "time": 140.390484609375,
          "velocity": 0.5748031496062992
        },
        {
          "duration": 0.4444440000000043,
          "durationTicks": 512,
          "midi": 67,
          "name": "G4",
          "ticks": 161732,
          "time": 140.39222071875,
          "velocity": 0.5748031496062992
        },
        {
          "duration": 0.1145832187499991,
          "durationTicks": 132,
          "midi": 55,
          "name": "G3",
          "ticks": 166080,
          "time": 144.16652249999999,
          "velocity": 0.6850393700787402
        },
        {
          "duration": 0.10763878125001725,
          "durationTicks": 124,
          "midi": 57,
          "name": "A3",
          "ticks": 166212,
          "time": 144.28110571874998,
          "velocity": 0.6850393700787402
        },
        {
          "duration": 0.1145832187499991,
          "durationTicks": 132,
          "midi": 55,
          "name": "G3",
          "ticks": 166336,
          "time": 144.3887445,
          "velocity": 0.6850393700787402
        },
        {
          "duration": 0.2135414531250035,
          "durationTicks": 246,
          "midi": 60,
          "name": "C4",
          "ticks": 166468,
          "time": 144.50332771875,
          "velocity": 0.6929133858267716
        },
        {
          "duration": 0.22222199999998793,
          "durationTicks": 256,
          "midi": 60,
          "name": "C4",
          "ticks": 166848,
          "time": 144.8331885,
          "velocity": 0.7007874015748031
        },
        {
          "duration": 0.1145832187499991,
          "durationTicks": 132,
          "midi": 60,
          "name": "C4",
          "ticks": 167104,
          "time": 145.0554105,
          "velocity": 0.7086614173228346
        },
        {
          "duration": 0.22222199999998793,
          "durationTicks": 256,
          "midi": 64,
          "name": "E4",
          "ticks": 167236,
          "time": 145.16999371875,
          "velocity": 0.7086614173228346
        },
        {
          "duration": 0.10763878125001725,
          "durationTicks": 124,
          "midi": 55,
          "name": "G3",
          "ticks": 167492,
          "time": 145.39221571874998,
          "velocity": 0.7165354330708661
        },
        {
          "duration": 0.22222200000001635,
          "durationTicks": 256,
          "midi": 57,
          "name": "A3",
          "ticks": 167616,
          "time": 145.4998545,
          "velocity": 0.7244094488188977
        },
        {
          "duration": 0.44444399999997586,
          "durationTicks": 512,
          "midi": 60,
          "name": "C4",
          "ticks": 167872,
          "time": 145.72207650000001,
          "velocity": 0.7322834645669292
        },
        {
          "duration": 0.6666659999999922,
          "durationTicks": 768,
          "midi": 57,
          "name": "A3",
          "ticks": 174916,
          "time": 151.83665371875,
          "velocity": 0.6062992125984252
        },
        {
          "duration": 0.6666660000000206,
          "durationTicks": 768,
          "midi": 56,
          "name": "G#3",
          "ticks": 175684,
          "time": 152.50331971875,
          "velocity": 0.6220472440944882
        },
        {
          "duration": 0.6666659999999922,
          "durationTicks": 768,
          "midi": 55,
          "name": "G3",
          "ticks": 176452,
          "time": 153.16998571875,
          "velocity": 0.6377952755905512
        },
        {
          "duration": 0.6666659999999922,
          "durationTicks": 768,
          "midi": 54,
          "name": "F#3",
          "ticks": 177220,
          "time": 153.83665171875,
          "velocity": 0.6535433070866141
        },
        {
          "duration": 0.4444440000000043,
          "durationTicks": 512,
          "midi": 55,
          "name": "G3",
          "ticks": 179780,
          "time": 156.05887171875,
          "velocity": 0.6850393700787402
        },
        {
          "duration": 0.4444440000000043,
          "durationTicks": 512,
          "midi": 43,
          "name": "G2",
          "ticks": 179780,
          "time": 156.05887171875,
          "velocity": 0.6850393700787402
        },
        {
          "duration": 0.4444440000000043,
          "durationTicks": 512,
          "midi": 43,
          "name": "G2",
          "ticks": 180548,
          "time": 156.72553771875,
          "velocity": 0.7322834645669292
        },
        {
          "duration": 0.4444440000000043,
          "durationTicks": 512,
          "midi": 55,
          "name": "G3",
          "ticks": 180548,
          "time": 156.72553771875,
          "velocity": 0.7322834645669292
        },
        {
          "duration": 0.4444440000000043,
          "durationTicks": 512,
          "midi": 43,
          "name": "G2",
          "ticks": 190532,
          "time": 165.39219571875,
          "velocity": 0.6850393700787402
        },
        {
          "duration": 0.2135414531250035,
          "durationTicks": 246,
          "midi": 45,
          "name": "A2",
          "ticks": 191044,
          "time": 165.83663971875,
          "velocity": 0.6929133858267716
        },
        {
          "duration": 0.20486090625001907,
          "durationTicks": 236,
          "midi": 48,
          "name": "C3",
          "ticks": 191424,
          "time": 166.16650049999998,
          "velocity": 0.6929133858267716
        },
        {
          "duration": 0.3298607812500052,
          "durationTicks": 380,
          "midi": 50,
          "name": "D3",
          "ticks": 191812,
          "time": 166.50330571875,
          "velocity": 0.7007874015748031
        },
        {
          "duration": 0.22222199999998793,
          "durationTicks": 256,
          "midi": 52,
          "name": "E3",
          "ticks": 192192,
          "time": 166.8331665,
          "velocity": 0.7086614173228346
        },
        {
          "duration": 0.14583318750001695,
          "durationTicks": 168,
          "midi": 53,
          "name": "F3",
          "ticks": 192448,
          "time": 167.0553885,
          "velocity": 0.7165354330708661
        },
        {
          "duration": 0.4444440000000327,
          "durationTicks": 512,
          "midi": 55,
          "name": "G3",
          "ticks": 192836,
          "time": 167.39219371874998,
          "velocity": 0.7165354330708661
        },
        {
          "duration": 2.6666639999999973,
          "durationTicks": 3072,
          "midi": 44,
          "name": "G#2",
          "ticks": 193348,
          "time": 167.83663771875,
          "velocity": 0.7322834645669292
        },
        {
          "duration": 2.6666639999999973,
          "durationTicks": 3072,
          "midi": 56,
          "name": "G#3",
          "ticks": 193348,
          "time": 167.83663771875,
          "velocity": 0.7322834645669292
        },
        {
          "duration": 0.20486090624999065,
          "durationTicks": 236,
          "midi": 49,
          "name": "C#3",
          "ticks": 215616,
          "time": 187.1664795,
          "velocity": 0.6850393700787402
        },
        {
          "duration": 0.20486090625001907,
          "durationTicks": 236,
          "midi": 52,
          "name": "E3",
          "ticks": 216000,
          "time": 187.4998125,
          "velocity": 0.6929133858267716
        },
        {
          "duration": 0.3333329999999819,
          "durationTicks": 384,
          "midi": 55,
          "name": "G3",
          "ticks": 216384,
          "time": 187.8331455,
          "velocity": 0.7086614173228346
        },
        {
          "duration": 0.22222199999998793,
          "durationTicks": 256,
          "midi": 52,
          "name": "E3",
          "ticks": 216768,
          "time": 188.16647849999998,
          "velocity": 0.7165354330708661
        },
        {
          "duration": 0.14583318750001695,
          "durationTicks": 168,
          "midi": 55,
          "name": "G3",
          "ticks": 217024,
          "time": 188.38870049999997,
          "velocity": 0.7322834645669292
        },
        {
          "duration": 0.4444440000000043,
          "durationTicks": 512,
          "midi": 58,
          "name": "A#3",
          "ticks": 217408,
          "time": 188.72203349999998,
          "velocity": 0.6850393700787402
        },
        {
          "duration": 0.22222199999998793,
          "durationTicks": 256,
          "midi": 48,
          "name": "C3",
          "ticks": 217920,
          "time": 189.16647749999998,
          "velocity": 0.7086614173228346
        },
        {
          "duration": 0.22222199999998793,
          "durationTicks": 256,
          "midi": 55,
          "name": "G3",
          "ticks": 217920,
          "time": 189.16647749999998,
          "velocity": 0.7086614173228346
        },
        {
          "duration": 0.22222199999998793,
          "durationTicks": 256,
          "midi": 60,
          "name": "C4",
          "ticks": 217922,
          "time": 189.16821360937502,
          "velocity": 0.7165354330708661
        },
        {
          "duration": 0.22222200000001635,
          "durationTicks": 256,
          "midi": 64,
          "name": "E4",
          "ticks": 217924,
          "time": 189.16994971875,
          "velocity": 0.7165354330708661
        },
        {
          "duration": 2.3333310000000154,
          "durationTicks": 2688,
          "midi": 56,
          "name": "G#3",
          "ticks": 218176,
          "time": 189.38869949999997,
          "velocity": 0.7244094488188977
        },
        {
          "duration": 2.3333310000000154,
          "durationTicks": 2688,
          "midi": 49,
          "name": "C#3",
          "ticks": 218176,
          "time": 189.38869949999997,
          "velocity": 0.7244094488188977
        },
        {
          "duration": 2.333330999999987,
          "durationTicks": 2688,
          "midi": 61,
          "name": "C#4",
          "ticks": 218178,
          "time": 189.390435609375,
          "velocity": 0.7244094488188977
        },
        {
          "duration": 2.333330999999987,
          "durationTicks": 2688,
          "midi": 65,
          "name": "F4",
          "ticks": 218180,
          "time": 189.39217171875,
          "velocity": 0.7322834645669292
        }
      ]
    },
    {
      "channel": 9,
      "controlChanges": {
        "0": [
          {
            "number": 0,
            "ticks": 552,
            "time": 0.4791661875,
            "value": 0
          }
        ],
        "6": [
          {
            "number": 6,
            "ticks": 1252,
            "time": 1.08680446875,
            "value": 0.015748031496062992
          },
          {
            "number": 6,
            "ticks": 1264,
            "time": 1.097221125,
            "value": 0.5039370078740157
          }
        ],
        "7": [
          {
            "number": 7,
            "ticks": 556,
            "time": 0.48263840625,
            "value": 0.9448818897637795
          }
        ],
        "10": [
          {
            "number": 10,
            "ticks": 560,
            "time": 0.48611062499999996,
            "value": 0.5039370078740157
          }
        ],
        "11": [
          {
            "number": 11,
            "ticks": 564,
            "time": 0.48958284375,
            "value": 1
          }
        ],
        "32": [
          {
            "number": 32,
            "ticks": 552,
            "time": 0.4791661875,
            "value": 0
          }
        ],
        "91": [
          {
            "number": 91,
            "ticks": 568,
            "time": 0.49305506250000003,
            "value": 0.5669291338582677
          }
        ],
        "93": [
          {
            "number": 93,
            "ticks": 572,
            "time": 0.49652728124999995,
            "value": 0
          }
        ],
        "100": [
          {
            "number": 100,
            "ticks": 1248,
            "time": 1.08333225,
            "value": 0
          },
          {
            "number": 100,
            "ticks": 1260,
            "time": 1.0937489062499999,
            "value": 0.015748031496062992
          },
          {
            "number": 100,
            "ticks": 1272,
            "time": 1.1041655625,
            "value": 1
          }
        ],
        "101": [
          {
            "number": 101,
            "ticks": 1244,
            "time": 1.07986003125,
            "value": 0
          },
          {
            "number": 101,
            "ticks": 1256,
            "time": 1.0902766875,
            "value": 0
          },
          {
            "number": 101,
            "ticks": 1268,
            "time": 1.10069334375,
            "value": 1
          }
        ],
        "121": [
          {
            "number": 121,
            "ticks": 228,
            "time": 0.19791646875,
            "value": 0
          }
        ]
      },
      "pitchBends": [],
      "instrument": {
        "family": "drums",
        "name": "standard kit",
        "number": 0
      },
      "name": "",
      "notes": [
        {
          "duration": 0.0104166562500001,
          "durationTicks": 12,
          "midi": 37,
          "name": "C#2",
          "ticks": 1344,
          "time": 1.1666655,
          "velocity": 0.3779527559055118
        },
        {
          "duration": 0.010416656249999878,
          "durationTicks": 12,
          "midi": 37,
          "name": "C#2",
          "ticks": 1728,
          "time": 1.4999985,
          "velocity": 0.3779527559055118
        },
        {
          "duration": 0.0104166562500001,
          "durationTicks": 12,
          "midi": 37,
          "name": "C#2",
          "ticks": 2112,
          "time": 1.8333315,
          "velocity": 0.3779527559055118
        },
        {
          "duration": 0.010416656249999878,
          "durationTicks": 12,
          "midi": 37,
          "name": "C#2",
          "ticks": 2496,
          "time": 2.1666645,
          "velocity": 0.3779527559055118
        },
        {
          "duration": 0.010416656249999878,
          "durationTicks": 12,
          "midi": 51,
          "name": "D#3",
          "ticks": 2880,
          "time": 2.4999975,
          "velocity": 0.4409448818897638
        },
        {
          "duration": 0.010416656250000322,
          "durationTicks": 12,
          "midi": 37,
          "name": "C#2",
          "ticks": 3264,
          "time": 2.8333304999999998,
          "velocity": 0.44881889763779526
        },
        {
          "duration": 0.010416656250000322,
          "durationTicks": 12,
          "midi": 51,
          "name": "D#3",
          "ticks": 3264,
          "time": 2.8333304999999998,
          "velocity": 0.5275590551181102
        },
        {
          "duration": 0.010416656249999878,
          "durationTicks": 12,
          "midi": 38,
          "name": "D2",
          "ticks": 3520,
          "time": 3.0555524999999997,
          "velocity": 0.06299212598425197
        },
        {
          "duration": 0.010416656249999878,
          "durationTicks": 12,
          "midi": 51,
          "name": "D#3",
          "ticks": 3520,
          "time": 3.0555524999999997,
          "velocity": 0.4409448818897638
        },
        {
          "duration": 0.010416656249999878,
          "durationTicks": 12,
          "midi": 51,
          "name": "D#3",
          "ticks": 3648,
          "time": 3.1666635,
          "velocity": 0.4409448818897638
        },
        {
          "duration": 0.010416656249999878,
          "durationTicks": 12,
          "midi": 51,
          "name": "D#3",
          "ticks": 4032,
          "time": 3.4999965,
          "velocity": 0.49606299212598426
        },
        {
          "duration": 0.010416656249999878,
          "durationTicks": 12,
          "midi": 37,
          "name": "C#2",
          "ticks": 4032,
          "time": 3.4999965,
          "velocity": 0.44881889763779526
        },
        {
          "duration": 0.010416656249999878,
          "durationTicks": 12,
          "midi": 38,
          "name": "D2",
          "ticks": 4288,
          "time": 3.7222185,
          "velocity": 0.06299212598425197
        },
        {
          "duration": 0.010416656249999878,
          "durationTicks": 12,
          "midi": 51,
          "name": "D#3",
          "ticks": 4288,
          "time": 3.7222185,
          "velocity": 0.4409448818897638
        },
        {
          "duration": 0.010416656249999878,
          "durationTicks": 12,
          "midi": 51,
          "name": "D#3",
          "ticks": 4416,
          "time": 3.8333295,
          "velocity": 0.4409448818897638
        },
        {
          "duration": 0.010416656249999434,
          "durationTicks": 12,
          "midi": 37,
          "name": "C#2",
          "ticks": 4800,
          "time": 4.1666625,
          "velocity": 0.44881889763779526
        },
        {
          "duration": 0.010416656249999434,
          "durationTicks": 12,
          "midi": 51,
          "name": "D#3",
          "ticks": 4800,
          "time": 4.1666625,
          "velocity": 0.5275590551181102
        },
        {
          "duration": 0.010416656250000322,
          "durationTicks": 12,
          "midi": 51,
          "name": "D#3",
          "ticks": 5056,
          "time": 4.3888845,
          "velocity": 0.4409448818897638
        },
        {
          "duration": 0.010416656250000322,
          "durationTicks": 12,
          "midi": 38,
          "name": "D2",
          "ticks": 5056,
          "time": 4.3888845,
          "velocity": 0.06299212598425197
        },
        {
          "duration": 0.010416656250000322,
          "durationTicks": 12,
          "midi": 51,
          "name": "D#3",
          "ticks": 5184,
          "time": 4.4999955,
          "velocity": 0.4409448818897638
        },
        {
          "duration": 0.010416656250000322,
          "durationTicks": 12,
          "midi": 51,
          "name": "D#3",
          "ticks": 5568,
          "time": 4.8333284999999995,
          "velocity": 0.49606299212598426
        },
        {
          "duration": 0.010416656250000322,
          "durationTicks": 12,
          "midi": 37,
          "name": "C#2",
          "ticks": 5568,
          "time": 4.8333284999999995,
          "velocity": 0.44881889763779526
        },
        {
          "duration": 0.010416656249999434,
          "durationTicks": 12,
          "midi": 51,
          "name": "D#3",
          "ticks": 5824,
          "time": 5.0555505,
          "velocity": 0.4409448818897638
        },
        {
          "duration": 0.010416656249999434,
          "durationTicks": 12,
          "midi": 38,
          "name": "D2",
          "ticks": 5824,
          "time": 5.0555505,
          "velocity": 0.06299212598425197
        },
        {
          "duration": 0.010416656249999434,
          "durationTicks": 12,
          "midi": 51,
          "name": "D#3",
          "ticks": 5952,
          "time": 5.1666615,
          "velocity": 0.4409448818897638
        },
        {
          "duration": 0.010416656249999434,
          "durationTicks": 12,
          "midi": 38,
          "name": "D2",
          "ticks": 6208,
          "time": 5.3888835,
          "velocity": 0.6299212598425197
        },
        {
          "duration": 0.010416656250000322,
          "durationTicks": 12,
          "midi": 37,
          "name": "C#2",
          "ticks": 6336,
          "time": 5.4999945,
          "velocity": 0.44881889763779526
        },
        {
          "duration": 0.010416656250000322,
          "durationTicks": 12,
          "midi": 51,
          "name": "D#3",
          "ticks": 6336,
          "time": 5.4999945,
          "velocity": 0.5275590551181102
        },
        {
          "duration": 0.010416656250000322,
          "durationTicks": 12,
          "midi": 38,
          "name": "D2",
          "ticks": 6592,
          "time": 5.7222165,
          "velocity": 0.06299212598425197
        },
        {
          "duration": 0.010416656250000322,
          "durationTicks": 12,
          "midi": 51,
          "name": "D#3",
          "ticks": 6592,
          "time": 5.7222165,
          "velocity": 0.4409448818897638
        },
        {
          "duration": 0.010416656249999434,
          "durationTicks": 12,
          "midi": 51,
          "name": "D#3",
          "ticks": 6720,
          "time": 5.8333275,
          "velocity": 0.4409448818897638
        },
        {
          "duration": 0.010416656250000322,
          "durationTicks": 12,
          "midi": 51,
          "name": "D#3",
          "ticks": 7104,
          "time": 6.1666605,
          "velocity": 0.49606299212598426
        },
        {
          "duration": 0.010416656250000322,
          "durationTicks": 12,
          "midi": 37,
          "name": "C#2",
          "ticks": 7104,
          "time": 6.1666605,
          "velocity": 0.44881889763779526
        },
        {
          "duration": 0.010416656250000322,
          "durationTicks": 12,
          "midi": 38,
          "name": "D2",
          "ticks": 7360,
          "time": 6.3888825,
          "velocity": 0.06299212598425197
        },
        {
          "duration": 0.010416656250000322,
          "durationTicks": 12,
          "midi": 51,
          "name": "D#3",
          "ticks": 7360,
          "time": 6.3888825,
          "velocity": 0.4409448818897638
        },
        {
          "duration": 0.010416656250000322,
          "durationTicks": 12,
          "midi": 51,
          "name": "D#3",
          "ticks": 7488,
          "time": 6.4999934999999995,
          "velocity": 0.4409448818897638
        },
        {
          "duration": 0.010416656249999434,
          "durationTicks": 12,
          "midi": 51,
          "name": "D#3",
          "ticks": 7872,
          "time": 6.8333265,
          "velocity": 0.5275590551181102
        },
        {
          "duration": 0.010416656249999434,
          "durationTicks": 12,
          "midi": 37,
          "name": "C#2",
          "ticks": 7872,
          "time": 6.8333265,
          "velocity": 0.44881889763779526
        },
        {
          "duration": 0.010416656249999434,
          "durationTicks": 12,
          "midi": 38,
          "name": "D2",
          "ticks": 8128,
          "time": 7.0555485000000004,
          "velocity": 0.06299212598425197
        },
        {
          "duration": 0.010416656249999434,
          "durationTicks": 12,
          "midi": 51,
          "name": "D#3",
          "ticks": 8128,
          "time": 7.0555485000000004,
          "velocity": 0.4409448818897638
        },
        {
          "duration": 0.010416656250000322,
          "durationTicks": 12,
          "midi": 51,
          "name": "D#3",
          "ticks": 8256,
          "time": 7.1666595,
          "velocity": 0.4409448818897638
        },
        {
          "duration": 0.010416656250000322,
          "durationTicks": 12,
          "midi": 51,
          "name": "D#3",
          "ticks": 8640,
          "time": 7.499992499999999,
          "velocity": 0.49606299212598426
        },
        {
          "duration": 0.010416656250000322,
          "durationTicks": 12,
          "midi": 37,
          "name": "C#2",
          "ticks": 8640,
          "time": 7.499992499999999,
          "velocity": 0.44881889763779526
        },
        {
          "duration": 0.010416656250000322,
          "durationTicks": 12,
          "midi": 38,
          "name": "D2",
          "ticks": 8896,
          "time": 7.7222145,
          "velocity": 0.6299212598425197
        },
        {
          "duration": 0.010416656250000322,
          "durationTicks": 12,
          "midi": 51,
          "name": "D#3",
          "ticks": 8896,
          "time": 7.7222145,
          "velocity": 0.4409448818897638
        },
        {
          "duration": 0.010416656249999434,
          "durationTicks": 12,
          "midi": 51,
          "name": "D#3",
          "ticks": 9024,
          "time": 7.8333255,
          "velocity": 0.4409448818897638
        },
        {
          "duration": 0.010416656249999434,
          "durationTicks": 12,
          "midi": 51,
          "name": "D#3",
          "ticks": 9408,
          "time": 8.1666585,
          "velocity": 0.5275590551181102
        },
        {
          "duration": 0.010416656249999434,
          "durationTicks": 12,
          "midi": 37,
          "name": "C#2",
          "ticks": 9408,
          "time": 8.1666585,
          "velocity": 0.44881889763779526
        },
        {
          "duration": 0.010416656249999434,
          "durationTicks": 12,
          "midi": 38,
          "name": "D2",
          "ticks": 9664,
          "time": 8.3888805,
          "velocity": 0.06299212598425197
        },
        {
          "duration": 0.010416656249999434,
          "durationTicks": 12,
          "midi": 51,
          "name": "D#3",
          "ticks": 9664,
          "time": 8.3888805,
          "velocity": 0.4409448818897638
        },
        {
          "duration": 0.010416656249999434,
          "durationTicks": 12,
          "midi": 51,
          "name": "D#3",
          "ticks": 9792,
          "time": 8.4999915,
          "velocity": 0.4409448818897638
        },
        {
          "duration": 0.010416656249999434,
          "durationTicks": 12,
          "midi": 38,
          "name": "D2",
          "ticks": 10048,
          "time": 8.7222135,
          "velocity": 0.6299212598425197
        },
        {
          "duration": 0.010416656249999434,
          "durationTicks": 12,
          "midi": 37,
          "name": "C#2",
          "ticks": 10176,
          "time": 8.8333245,
          "velocity": 0.44881889763779526
        },
        {
          "duration": 0.010416656249999434,
          "durationTicks": 12,
          "midi": 51,
          "name": "D#3",
          "ticks": 10176,
          "time": 8.8333245,
          "velocity": 0.49606299212598426
        },
        {
          "duration": 0.010416656249999434,
          "durationTicks": 12,
          "midi": 38,
          "name": "D2",
          "ticks": 10432,
          "time": 9.0555465,
          "velocity": 0.06299212598425197
        },
        {
          "duration": 0.010416656249999434,
          "durationTicks": 12,
          "midi": 51,
          "name": "D#3",
          "ticks": 10432,
          "time": 9.0555465,
          "velocity": 0.4409448818897638
        },
        {
          "duration": 0.010416656249999434,
          "durationTicks": 12,
          "midi": 51,
          "name": "D#3",
          "ticks": 10560,
          "time": 9.1666575,
          "velocity": 0.4409448818897638
        },
        {
          "duration": 0.01041665625000121,
          "durationTicks": 12,
          "midi": 37,
          "name": "C#2",
          "ticks": 10944,
          "time": 9.4999905,
          "velocity": 0.44881889763779526
        },
        {
          "duration": 0.01041665625000121,
          "durationTicks": 12,
          "midi": 51,
          "name": "D#3",
          "ticks": 10944,
          "time": 9.4999905,
          "velocity": 0.5275590551181102
        },
        {
          "duration": 0.01041665625000121,
          "durationTicks": 12,
          "midi": 51,
          "name": "D#3",
          "ticks": 11200,
          "time": 9.7222125,
          "velocity": 0.4409448818897638
        },
        {
          "duration": 0.01041665625000121,
          "durationTicks": 12,
          "midi": 38,
          "name": "D2",
          "ticks": 11200,
          "time": 9.7222125,
          "velocity": 0.06299212598425197
        },
        {
          "duration": 0.010416656249999434,
          "durationTicks": 12,
          "midi": 51,
          "name": "D#3",
          "ticks": 11328,
          "time": 9.8333235,
          "velocity": 0.4409448818897638
        },
        {
          "duration": 0.010416656249999434,
          "durationTicks": 12,
          "midi": 37,
          "name": "C#2",
          "ticks": 11712,
          "time": 10.1666565,
          "velocity": 0.44881889763779526
        },
        {
          "duration": 0.010416656249999434,
          "durationTicks": 12,
          "midi": 51,
          "name": "D#3",
          "ticks": 11712,
          "time": 10.1666565,
          "velocity": 0.49606299212598426
        },
        {
          "duration": 0.010416656249999434,
          "durationTicks": 12,
          "midi": 51,
          "name": "D#3",
          "ticks": 11968,
          "time": 10.3888785,
          "velocity": 0.4409448818897638
        },
        {
          "duration": 0.010416656249999434,
          "durationTicks": 12,
          "midi": 38,
          "name": "D2",
          "ticks": 11968,
          "time": 10.3888785,
          "velocity": 0.06299212598425197
        },
        {
          "duration": 0.010416656249999434,
          "durationTicks": 12,
          "midi": 51,
          "name": "D#3",
          "ticks": 12096,
          "time": 10.4999895,
          "velocity": 0.4409448818897638
        },
        {
          "duration": 0.010416656249999434,
          "durationTicks": 12,
          "midi": 37,
          "name": "C#2",
          "ticks": 12480,
          "time": 10.8333225,
          "velocity": 0.44881889763779526
        },
        {
          "duration": 0.010416656249999434,
          "durationTicks": 12,
          "midi": 51,
          "name": "D#3",
          "ticks": 12480,
          "time": 10.8333225,
          "velocity": 0.5275590551181102
        },
        {
          "duration": 0.01041665625000121,
          "durationTicks": 12,
          "midi": 51,
          "name": "D#3",
          "ticks": 12736,
          "time": 11.055544499999998,
          "velocity": 0.4409448818897638
        },
        {
          "duration": 0.01041665625000121,
          "durationTicks": 12,
          "midi": 38,
          "name": "D2",
          "ticks": 12736,
          "time": 11.055544499999998,
          "velocity": 0.06299212598425197
        },
        {
          "duration": 0.01041665625000121,
          "durationTicks": 12,
          "midi": 51,
          "name": "D#3",
          "ticks": 12864,
          "time": 11.1666555,
          "velocity": 0.4409448818897638
        },
        {
          "duration": 0.01041665625000121,
          "durationTicks": 12,
          "midi": 37,
          "name": "C#2",
          "ticks": 13248,
          "time": 11.499988499999999,
          "velocity": 0.44881889763779526
        },
        {
          "duration": 0.01041665625000121,
          "durationTicks": 12,
          "midi": 51,
          "name": "D#3",
          "ticks": 13248,
          "time": 11.499988499999999,
          "velocity": 0.49606299212598426
        },
        {
          "duration": 0.010416656249999434,
          "durationTicks": 12,
          "midi": 38,
          "name": "D2",
          "ticks": 13504,
          "time": 11.7222105,
          "velocity": 0.06299212598425197
        },
        {
          "duration": 0.010416656249999434,
          "durationTicks": 12,
          "midi": 51,
          "name": "D#3",
          "ticks": 13504,
          "time": 11.7222105,
          "velocity": 0.4409448818897638
        },
        {
          "duration": 0.010416656249999434,
          "durationTicks": 12,
          "midi": 51,
          "name": "D#3",
          "ticks": 13632,
          "time": 11.8333215,
          "velocity": 0.4409448818897638
        },
        {
          "duration": 0.010416656249999434,
          "durationTicks": 12,
          "midi": 38,
          "name": "D2",
          "ticks": 13888,
          "time": 12.055543499999999,
          "velocity": 0.6299212598425197
        },
        {
          "duration": 0.010416656249999434,
          "durationTicks": 12,
          "midi": 51,
          "name": "D#3",
          "ticks": 14016,
          "time": 12.1666545,
          "velocity": 0.5275590551181102
        },
        {
          "duration": 0.010416656249999434,
          "durationTicks": 12,
          "midi": 37,
          "name": "C#2",
          "ticks": 14016,
          "time": 12.1666545,
          "velocity": 0.44881889763779526
        },
        {
          "duration": 0.01041665625000121,
          "durationTicks": 12,
          "midi": 38,
          "name": "D2",
          "ticks": 14272,
          "time": 12.388876499999999,
          "velocity": 0.6299212598425197
        },
        {
          "duration": 0.01041665625000121,
          "durationTicks": 12,
          "midi": 51,
          "name": "D#3",
          "ticks": 14272,
          "time": 12.388876499999999,
          "velocity": 0.4409448818897638
        },
        {
          "duration": 0.34374965625000087,
          "durationTicks": 396,
          "midi": 38,
          "name": "D2",
          "ticks": 14272,
          "time": 12.388876499999999,
          "velocity": 0.06299212598425197
        },
        {
          "duration": 0.010416656249999434,
          "durationTicks": 12,
          "midi": 51,
          "name": "D#3",
          "ticks": 14400,
          "time": 12.4999875,
          "velocity": 0.4409448818897638
        },
        {
          "duration": 0.34374965625000087,
          "durationTicks": 396,
          "midi": 38,
          "name": "D2",
          "ticks": 14656,
          "time": 12.722209499999998,
          "velocity": 0.6299212598425197
        },
        {
          "duration": 0.01041665625000121,
          "durationTicks": 12,
          "midi": 51,
          "name": "D#3",
          "ticks": 14784,
          "time": 12.8333205,
          "velocity": 0.49606299212598426
        },
        {
          "duration": 0.01041665625000121,
          "durationTicks": 12,
          "midi": 37,
          "name": "C#2",
          "ticks": 14784,
          "time": 12.8333205,
          "velocity": 0.44881889763779526
        },
        {
          "duration": 0.6770826562499987,
          "durationTicks": 780,
          "midi": 38,
          "name": "D2",
          "ticks": 15040,
          "time": 13.0555425,
          "velocity": 0.06299212598425197
        },
        {
          "duration": 0.010416656249999434,
          "durationTicks": 12,
          "midi": 51,
          "name": "D#3",
          "ticks": 15040,
          "time": 13.0555425,
          "velocity": 0.4409448818897638
        },
        {
          "duration": 0.01041665625000121,
          "durationTicks": 12,
          "midi": 51,
          "name": "D#3",
          "ticks": 15168,
          "time": 13.166653499999999,
          "velocity": 0.4409448818897638
        },
        {
          "duration": 0.010416656249999434,
          "durationTicks": 12,
          "midi": 51,
          "name": "D#3",
          "ticks": 15552,
          "time": 13.4999865,
          "velocity": 0.5275590551181102
        },
        {
          "duration": 0.010416656249999434,
          "durationTicks": 12,
          "midi": 37,
          "name": "C#2",
          "ticks": 15552,
          "time": 13.4999865,
          "velocity": 0.44881889763779526
        },
        {
          "duration": 0.010416656249999434,
          "durationTicks": 12,
          "midi": 51,
          "name": "D#3",
          "ticks": 15808,
          "time": 13.722208499999999,
          "velocity": 0.4409448818897638
        },
        {
          "duration": 0.3437496562499991,
          "durationTicks": 396,
          "midi": 38,
          "name": "D2",
          "ticks": 15808,
          "time": 13.722208499999999,
          "velocity": 0.06299212598425197
        },
        {
          "duration": 0.010416656249999434,
          "durationTicks": 12,
          "midi": 51,
          "name": "D#3",
          "ticks": 15936,
          "time": 13.8333195,
          "velocity": 0.4409448818897638
        },
        {
          "duration": 0.34374965625000087,
          "durationTicks": 396,
          "midi": 38,
          "name": "D2",
          "ticks": 16192,
          "time": 14.055541499999999,
          "velocity": 0.6299212598425197
        },
        {
          "duration": 0.010416656249999434,
          "durationTicks": 12,
          "midi": 51,
          "name": "D#3",
          "ticks": 16320,
          "time": 14.1666525,
          "velocity": 0.49606299212598426
        },
        {
          "duration": 0.010416656249999434,
          "durationTicks": 12,
          "midi": 37,
          "name": "C#2",
          "ticks": 16320,
          "time": 14.1666525,
          "velocity": 0.44881889763779526
        },
        {
          "duration": 0.6770826562500005,
          "durationTicks": 780,
          "midi": 38,
          "name": "D2",
          "ticks": 16576,
          "time": 14.388874499999998,
          "velocity": 0.06299212598425197
        },
        {
          "duration": 0.01041665625000121,
          "durationTicks": 12,
          "midi": 51,
          "name": "D#3",
          "ticks": 16576,
          "time": 14.388874499999998,
          "velocity": 0.4409448818897638
        },
        {
          "duration": 0.010416656249999434,
          "durationTicks": 12,
          "midi": 51,
          "name": "D#3",
          "ticks": 16704,
          "time": 14.4999855,
          "velocity": 0.4409448818897638
        },
        {
          "duration": 0.01041665625000121,
          "durationTicks": 12,
          "midi": 51,
          "name": "D#3",
          "ticks": 17088,
          "time": 14.833318499999999,
          "velocity": 0.5275590551181102
        },
        {
          "duration": 0.01041665625000121,
          "durationTicks": 12,
          "midi": 37,
          "name": "C#2",
          "ticks": 17088,
          "time": 14.833318499999999,
          "velocity": 0.44881889763779526
        },
        {
          "duration": 0.010416656249999434,
          "durationTicks": 12,
          "midi": 51,
          "name": "D#3",
          "ticks": 17344,
          "time": 15.0555405,
          "velocity": 0.4409448818897638
        },
        {
          "duration": 0.6770826562499987,
          "durationTicks": 780,
          "midi": 38,
          "name": "D2",
          "ticks": 17344,
          "time": 15.0555405,
          "velocity": 0.06299212598425197
        },
        {
          "duration": 0.010416656249999434,
          "durationTicks": 12,
          "midi": 51,
          "name": "D#3",
          "ticks": 17472,
          "time": 15.1666515,
          "velocity": 0.4409448818897638
        },
        {
          "duration": 0.010416656249999434,
          "durationTicks": 12,
          "midi": 51,
          "name": "D#3",
          "ticks": 17856,
          "time": 15.4999845,
          "velocity": 0.49606299212598426
        },
        {
          "duration": 0.010416656249999434,
          "durationTicks": 12,
          "midi": 37,
          "name": "C#2",
          "ticks": 17856,
          "time": 15.4999845,
          "velocity": 0.44881889763779526
        },
        {
          "duration": 0.6770826562500005,
          "durationTicks": 780,
          "midi": 38,
          "name": "D2",
          "ticks": 18112,
          "time": 15.722206499999999,
          "velocity": 0.06299212598425197
        },
        {
          "duration": 0.010416656249999434,
          "durationTicks": 12,
          "midi": 51,
          "name": "D#3",
          "ticks": 18112,
          "time": 15.722206499999999,
          "velocity": 0.4409448818897638
        },
        {
          "duration": 0.010416656249999434,
          "durationTicks": 12,
          "midi": 51,
          "name": "D#3",
          "ticks": 18240,
          "time": 15.8333175,
          "velocity": 0.4409448818897638
        },
        {
          "duration": 0.01041665625000121,
          "durationTicks": 12,
          "midi": 37,
          "name": "C#2",
          "ticks": 18624,
          "time": 16.1666505,
          "velocity": 0.44881889763779526
        },
        {
          "duration": 0.01041665625000121,
          "durationTicks": 12,
          "midi": 51,
          "name": "D#3",
          "ticks": 18624,
          "time": 16.1666505,
          "velocity": 0.5275590551181102
        },
        {
          "duration": 0.6770826562500005,
          "durationTicks": 780,
          "midi": 38,
          "name": "D2",
          "ticks": 18880,
          "time": 16.388872499999998,
          "velocity": 0.06299212598425197
        },
        {
          "duration": 0.01041665625000121,
          "durationTicks": 12,
          "midi": 51,
          "name": "D#3",
          "ticks": 18880,
          "time": 16.388872499999998,
          "velocity": 0.4409448818897638
        },
        {
          "duration": 0.01041665625000121,
          "durationTicks": 12,
          "midi": 51,
          "name": "D#3",
          "ticks": 19008,
          "time": 16.4999835,
          "velocity": 0.4409448818897638
        },
        {
          "duration": 0.01041665625000121,
          "durationTicks": 12,
          "midi": 37,
          "name": "C#2",
          "ticks": 19392,
          "time": 16.8333165,
          "velocity": 0.44881889763779526
        },
        {
          "duration": 0.01041665625000121,
          "durationTicks": 12,
          "midi": 51,
          "name": "D#3",
          "ticks": 19392,
          "time": 16.8333165,
          "velocity": 0.49606299212598426
        },
        {
          "duration": 0.6770826562500005,
          "durationTicks": 780,
          "midi": 38,
          "name": "D2",
          "ticks": 19648,
          "time": 17.055538499999997,
          "velocity": 0.06299212598425197
        },
        {
          "duration": 0.01041665625000121,
          "durationTicks": 12,
          "midi": 51,
          "name": "D#3",
          "ticks": 19648,
          "time": 17.055538499999997,
          "velocity": 0.4409448818897638
        },
        {
          "duration": 0.01041665625000121,
          "durationTicks": 12,
          "midi": 51,
          "name": "D#3",
          "ticks": 19776,
          "time": 17.1666495,
          "velocity": 0.4409448818897638
        },
        {
          "duration": 0.01041665625000121,
          "durationTicks": 12,
          "midi": 37,
          "name": "C#2",
          "ticks": 20160,
          "time": 17.499982499999998,
          "velocity": 0.44881889763779526
        },
        {
          "duration": 0.01041665625000121,
          "durationTicks": 12,
          "midi": 51,
          "name": "D#3",
          "ticks": 20160,
          "time": 17.499982499999998,
          "velocity": 0.5275590551181102
        },
        {
          "duration": 0.677082656249997,
          "durationTicks": 780,
          "midi": 38,
          "name": "D2",
          "ticks": 20416,
          "time": 17.7222045,
          "velocity": 0.06299212598425197
        },
        {
          "duration": 0.010416656249997658,
          "durationTicks": 12,
          "midi": 51,
          "name": "D#3",
          "ticks": 20416,
          "time": 17.7222045,
          "velocity": 0.4409448818897638
        },
        {
          "duration": 0.010416656249997658,
          "durationTicks": 12,
          "midi": 51,
          "name": "D#3",
          "ticks": 20544,
          "time": 17.8333155,
          "velocity": 0.4409448818897638
        },
        {
          "duration": 0.010416656249997658,
          "durationTicks": 12,
          "midi": 37,
          "name": "C#2",
          "ticks": 20928,
          "time": 18.1666485,
          "velocity": 0.44881889763779526
        },
        {
          "duration": 0.010416656249997658,
          "durationTicks": 12,
          "midi": 51,
          "name": "D#3",
          "ticks": 20928,
          "time": 18.1666485,
          "velocity": 0.49606299212598426
        },
        {
          "duration": 0.6770826562500005,
          "durationTicks": 780,
          "midi": 38,
          "name": "D2",
          "ticks": 21184,
          "time": 18.3888705,
          "velocity": 0.6299212598425197
        },
        {
          "duration": 0.010416656249997658,
          "durationTicks": 12,
          "midi": 51,
          "name": "D#3",
          "ticks": 21184,
          "time": 18.3888705,
          "velocity": 0.4409448818897638
        },
        {
          "duration": 0.010416656249997658,
          "durationTicks": 12,
          "midi": 51,
          "name": "D#3",
          "ticks": 21312,
          "time": 18.4999815,
          "velocity": 0.4409448818897638
        },
        {
          "duration": 0.010416656249997658,
          "durationTicks": 12,
          "midi": 37,
          "name": "C#2",
          "ticks": 21696,
          "time": 18.8333145,
          "velocity": 0.44881889763779526
        },
        {
          "duration": 0.010416656249997658,
          "durationTicks": 12,
          "midi": 51,
          "name": "D#3",
          "ticks": 21696,
          "time": 18.8333145,
          "velocity": 0.5275590551181102
        },
        {
          "duration": 0.01041665625000121,
          "durationTicks": 12,
          "midi": 51,
          "name": "D#3",
          "ticks": 21952,
          "time": 19.0555365,
          "velocity": 0.4409448818897638
        },
        {
          "duration": 0.6770826562500005,
          "durationTicks": 780,
          "midi": 38,
          "name": "D2",
          "ticks": 21952,
          "time": 19.0555365,
          "velocity": 0.06299212598425197
        },
        {
          "duration": 0.01041665625000121,
          "durationTicks": 12,
          "midi": 51,
          "name": "D#3",
          "ticks": 22080,
          "time": 19.1666475,
          "velocity": 0.4409448818897638
        },
        {
          "duration": 0.01041665625000121,
          "durationTicks": 12,
          "midi": 37,
          "name": "C#2",
          "ticks": 22464,
          "time": 19.4999805,
          "velocity": 0.44881889763779526
        },
        {
          "duration": 0.01041665625000121,
          "durationTicks": 12,
          "midi": 51,
          "name": "D#3",
          "ticks": 22464,
          "time": 19.4999805,
          "velocity": 0.49606299212598426
        },
        {
          "duration": 0.4097218125000026,
          "durationTicks": 472,
          "midi": 38,
          "name": "D2",
          "ticks": 22720,
          "time": 19.722202499999998,
          "velocity": 0.06299212598425197
        },
        {
          "duration": 0.01041665625000121,
          "durationTicks": 12,
          "midi": 51,
          "name": "D#3",
          "ticks": 22720,
          "time": 19.722202499999998,
          "velocity": 0.4409448818897638
        },
        {
          "duration": 0.01041665625000121,
          "durationTicks": 12,
          "midi": 51,
          "name": "D#3",
          "ticks": 22848,
          "time": 19.8333135,
          "velocity": 0.4409448818897638
        },
        {
          "duration": 0.01041665625000121,
          "durationTicks": 12,
          "midi": 51,
          "name": "D#3",
          "ticks": 23232,
          "time": 20.1666465,
          "velocity": 0.5275590551181102
        },
        {
          "duration": 0.01041665625000121,
          "durationTicks": 12,
          "midi": 37,
          "name": "C#2",
          "ticks": 23232,
          "time": 20.1666465,
          "velocity": 0.44881889763779526
        },
        {
          "duration": 0.01041665625000121,
          "durationTicks": 12,
          "midi": 38,
          "name": "D2",
          "ticks": 23488,
          "time": 20.388868499999997,
          "velocity": 0.06299212598425197
        },
        {
          "duration": 0.01041665625000121,
          "durationTicks": 12,
          "midi": 51,
          "name": "D#3",
          "ticks": 23488,
          "time": 20.388868499999997,
          "velocity": 0.4409448818897638
        },
        {
          "duration": 0.01041665625000121,
          "durationTicks": 12,
          "midi": 51,
          "name": "D#3",
          "ticks": 23616,
          "time": 20.4999795,
          "velocity": 0.4409448818897638
        },
        {
          "duration": 0.01041665625000121,
          "durationTicks": 12,
          "midi": 51,
          "name": "D#3",
          "ticks": 24000,
          "time": 20.833312499999998,
          "velocity": 0.49606299212598426
        },
        {
          "duration": 0.01041665625000121,
          "durationTicks": 12,
          "midi": 37,
          "name": "C#2",
          "ticks": 24000,
          "time": 20.833312499999998,
          "velocity": 0.44881889763779526
        },
        {
          "duration": 0.010416656249997658,
          "durationTicks": 12,
          "midi": 51,
          "name": "D#3",
          "ticks": 24256,
          "time": 21.0555345,
          "velocity": 0.4409448818897638
        },
        {
          "duration": 0.010416656249997658,
          "durationTicks": 12,
          "midi": 38,
          "name": "D2",
          "ticks": 24256,
          "time": 21.0555345,
          "velocity": 0.06299212598425197
        },
        {
          "duration": 0.01041665625000121,
          "durationTicks": 12,
          "midi": 51,
          "name": "D#3",
          "ticks": 24384,
          "time": 21.166645499999998,
          "velocity": 0.4409448818897638
        },
        {
          "duration": 0.010416656249997658,
          "durationTicks": 12,
          "midi": 51,
          "name": "D#3",
          "ticks": 24768,
          "time": 21.4999785,
          "velocity": 0.5275590551181102
        },
        {
          "duration": 0.010416656249997658,
          "durationTicks": 12,
          "midi": 37,
          "name": "C#2",
          "ticks": 24768,
          "time": 21.4999785,
          "velocity": 0.44881889763779526
        },
        {
          "duration": 0.01041665625000121,
          "durationTicks": 12,
          "midi": 51,
          "name": "D#3",
          "ticks": 25024,
          "time": 21.7222005,
          "velocity": 0.4409448818897638
        },
        {
          "duration": 0.01041665625000121,
          "durationTicks": 12,
          "midi": 38,
          "name": "D2",
          "ticks": 25024,
          "time": 21.7222005,
          "velocity": 0.06299212598425197
        },
        {
          "duration": 0.010416656249997658,
          "durationTicks": 12,
          "midi": 51,
          "name": "D#3",
          "ticks": 25152,
          "time": 21.8333115,
          "velocity": 0.4409448818897638
        },
        {
          "duration": 0.010416656249997658,
          "durationTicks": 12,
          "midi": 51,
          "name": "D#3",
          "ticks": 25536,
          "time": 22.1666445,
          "velocity": 0.49606299212598426
        },
        {
          "duration": 0.010416656249997658,
          "durationTicks": 12,
          "midi": 37,
          "name": "C#2",
          "ticks": 25536,
          "time": 22.1666445,
          "velocity": 0.44881889763779526
        },
        {
          "duration": 0.010416656249997658,
          "durationTicks": 12,
          "midi": 51,
          "name": "D#3",
          "ticks": 25792,
          "time": 22.388866500000002,
          "velocity": 0.4409448818897638
        },
        {
          "duration": 0.010416656249997658,
          "durationTicks": 12,
          "midi": 38,
          "name": "D2",
          "ticks": 25792,
          "time": 22.388866500000002,
          "velocity": 0.06299212598425197
        },
        {
          "duration": 0.010416656249997658,
          "durationTicks": 12,
          "midi": 35,
          "name": "B1",
          "ticks": 25920,
          "time": 22.4999775,
          "velocity": 0.5590551181102362
        },
        {
          "duration": 0.010416656249997658,
          "durationTicks": 12,
          "midi": 40,
          "name": "E2",
          "ticks": 25920,
          "time": 22.4999775,
          "velocity": 0.5590551181102362
        },
        {
          "duration": 0.010416656249997658,
          "durationTicks": 12,
          "midi": 51,
          "name": "D#3",
          "ticks": 25920,
          "time": 22.4999775,
          "velocity": 0.4409448818897638
        },
        {
          "duration": 0.01041665625000121,
          "durationTicks": 12,
          "midi": 51,
          "name": "D#3",
          "ticks": 27456,
          "time": 23.8333095,
          "velocity": 0.4409448818897638
        },
        {
          "duration": 0.01041665625000121,
          "durationTicks": 12,
          "midi": 37,
          "name": "C#2",
          "ticks": 27840,
          "time": 24.1666425,
          "velocity": 0.44881889763779526
        },
        {
          "duration": 0.01041665625000121,
          "durationTicks": 12,
          "midi": 51,
          "name": "D#3",
          "ticks": 27840,
          "time": 24.1666425,
          "velocity": 0.5275590551181102
        },
        {
          "duration": 0.01041665625000121,
          "durationTicks": 12,
          "midi": 51,
          "name": "D#3",
          "ticks": 28096,
          "time": 24.3888645,
          "velocity": 0.4409448818897638
        },
        {
          "duration": 0.01041665625000121,
          "durationTicks": 12,
          "midi": 38,
          "name": "D2",
          "ticks": 28096,
          "time": 24.3888645,
          "velocity": 0.06299212598425197
        },
        {
          "duration": 0.01041665625000121,
          "durationTicks": 12,
          "midi": 51,
          "name": "D#3",
          "ticks": 28224,
          "time": 24.499975499999998,
          "velocity": 0.4409448818897638
        },
        {
          "duration": 0.01041665625000121,
          "durationTicks": 12,
          "midi": 51,
          "name": "D#3",
          "ticks": 28608,
          "time": 24.833308499999998,
          "velocity": 0.49606299212598426
        },
        {
          "duration": 0.01041665625000121,
          "durationTicks": 12,
          "midi": 37,
          "name": "C#2",
          "ticks": 28608,
          "time": 24.833308499999998,
          "velocity": 0.44881889763779526
        },
        {
          "duration": 0.01041665625000121,
          "durationTicks": 12,
          "midi": 51,
          "name": "D#3",
          "ticks": 28864,
          "time": 25.0555305,
          "velocity": 0.4409448818897638
        },
        {
          "duration": 0.01041665625000121,
          "durationTicks": 12,
          "midi": 38,
          "name": "D2",
          "ticks": 28864,
          "time": 25.0555305,
          "velocity": 0.06299212598425197
        },
        {
          "duration": 0.010416656249997658,
          "durationTicks": 12,
          "midi": 51,
          "name": "D#3",
          "ticks": 28992,
          "time": 25.1666415,
          "velocity": 0.4409448818897638
        },
        {
          "duration": 0.010416656249997658,
          "durationTicks": 12,
          "midi": 51,
          "name": "D#3",
          "ticks": 29376,
          "time": 25.4999745,
          "velocity": 0.5275590551181102
        },
        {
          "duration": 0.010416656249997658,
          "durationTicks": 12,
          "midi": 37,
          "name": "C#2",
          "ticks": 29376,
          "time": 25.4999745,
          "velocity": 0.44881889763779526
        },
        {
          "duration": 0.010416656249997658,
          "durationTicks": 12,
          "midi": 51,
          "name": "D#3",
          "ticks": 29632,
          "time": 25.722196500000003,
          "velocity": 0.4409448818897638
        },
        {
          "duration": 0.010416656249997658,
          "durationTicks": 12,
          "midi": 38,
          "name": "D2",
          "ticks": 29632,
          "time": 25.722196500000003,
          "velocity": 0.06299212598425197
        },
        {
          "duration": 0.010416656249997658,
          "durationTicks": 12,
          "midi": 51,
          "name": "D#3",
          "ticks": 29760,
          "time": 25.8333075,
          "velocity": 0.4409448818897638
        },
        {
          "duration": 0.01041665625000121,
          "durationTicks": 12,
          "midi": 37,
          "name": "C#2",
          "ticks": 30144,
          "time": 26.1666405,
          "velocity": 0.44881889763779526
        },
        {
          "duration": 0.01041665625000121,
          "durationTicks": 12,
          "midi": 51,
          "name": "D#3",
          "ticks": 30144,
          "time": 26.1666405,
          "velocity": 0.49606299212598426
        },
        {
          "duration": 0.010416656249997658,
          "durationTicks": 12,
          "midi": 51,
          "name": "D#3",
          "ticks": 30400,
          "time": 26.388862500000002,
          "velocity": 0.4409448818897638
        },
        {
          "duration": 0.010416656249997658,
          "durationTicks": 12,
          "midi": 38,
          "name": "D2",
          "ticks": 30400,
          "time": 26.388862500000002,
          "velocity": 0.06299212598425197
        },
        {
          "duration": 0.01041665625000121,
          "durationTicks": 12,
          "midi": 51,
          "name": "D#3",
          "ticks": 30528,
          "time": 26.4999735,
          "velocity": 0.4409448818897638
        },
        {
          "duration": 0.01041665625000121,
          "durationTicks": 12,
          "midi": 51,
          "name": "D#3",
          "ticks": 30912,
          "time": 26.8333065,
          "velocity": 0.5275590551181102
        },
        {
          "duration": 0.01041665625000121,
          "durationTicks": 12,
          "midi": 37,
          "name": "C#2",
          "ticks": 30912,
          "time": 26.8333065,
          "velocity": 0.44881889763779526
        },
        {
          "duration": 0.01041665625000121,
          "durationTicks": 12,
          "midi": 51,
          "name": "D#3",
          "ticks": 31168,
          "time": 27.0555285,
          "velocity": 0.4409448818897638
        },
        {
          "duration": 0.01041665625000121,
          "durationTicks": 12,
          "midi": 38,
          "name": "D2",
          "ticks": 31168,
          "time": 27.0555285,
          "velocity": 0.06299212598425197
        },
        {
          "duration": 0.01041665625000121,
          "durationTicks": 12,
          "midi": 51,
          "name": "D#3",
          "ticks": 31296,
          "time": 27.1666395,
          "velocity": 0.4409448818897638
        },
        {
          "duration": 0.01041665625000121,
          "durationTicks": 12,
          "midi": 51,
          "name": "D#3",
          "ticks": 31680,
          "time": 27.4999725,
          "velocity": 0.49606299212598426
        },
        {
          "duration": 0.01041665625000121,
          "durationTicks": 12,
          "midi": 37,
          "name": "C#2",
          "ticks": 31680,
          "time": 27.4999725,
          "velocity": 0.44881889763779526
        },
        {
          "duration": 0.01041665625000121,
          "durationTicks": 12,
          "midi": 38,
          "name": "D2",
          "ticks": 31936,
          "time": 27.7221945,
          "velocity": 0.06299212598425197
        },
        {
          "duration": 0.01041665625000121,
          "durationTicks": 12,
          "midi": 51,
          "name": "D#3",
          "ticks": 31936,
          "time": 27.7221945,
          "velocity": 0.4409448818897638
        },
        {
          "duration": 0.01041665625000121,
          "durationTicks": 12,
          "midi": 51,
          "name": "D#3",
          "ticks": 32064,
          "time": 27.833305499999998,
          "velocity": 0.4409448818897638
        },
        {
          "duration": 0.01041665625000121,
          "durationTicks": 12,
          "midi": 37,
          "name": "C#2",
          "ticks": 32448,
          "time": 28.166638499999998,
          "velocity": 0.44881889763779526
        },
        {
          "duration": 0.01041665625000121,
          "durationTicks": 12,
          "midi": 51,
          "name": "D#3",
          "ticks": 32448,
          "time": 28.166638499999998,
          "velocity": 0.5275590551181102
        },
        {
          "duration": 0.01041665625000121,
          "durationTicks": 12,
          "midi": 38,
          "name": "D2",
          "ticks": 32704,
          "time": 28.3888605,
          "velocity": 0.6299212598425197
        },
        {
          "duration": 0.01041665625000121,
          "durationTicks": 12,
          "midi": 51,
          "name": "D#3",
          "ticks": 32704,
          "time": 28.3888605,
          "velocity": 0.4409448818897638
        },
        {
          "duration": 0.010416656249997658,
          "durationTicks": 12,
          "midi": 51,
          "name": "D#3",
          "ticks": 32832,
          "time": 28.4999715,
          "velocity": 0.4409448818897638
        },
        {
          "duration": 0.010416656249997658,
          "durationTicks": 12,
          "midi": 51,
          "name": "D#3",
          "ticks": 33216,
          "time": 28.8333045,
          "velocity": 0.49606299212598426
        },
        {
          "duration": 0.010416656249997658,
          "durationTicks": 12,
          "midi": 37,
          "name": "C#2",
          "ticks": 33216,
          "time": 28.8333045,
          "velocity": 0.44881889763779526
        },
        {
          "duration": 0.01041665625000121,
          "durationTicks": 12,
          "midi": 38,
          "name": "D2",
          "ticks": 33472,
          "time": 29.0555265,
          "velocity": 0.06299212598425197
        },
        {
          "duration": 0.01041665625000121,
          "durationTicks": 12,
          "midi": 51,
          "name": "D#3",
          "ticks": 33472,
          "time": 29.0555265,
          "velocity": 0.4409448818897638
        },
        {
          "duration": 0.010416656249997658,
          "durationTicks": 12,
          "midi": 51,
          "name": "D#3",
          "ticks": 33600,
          "time": 29.1666375,
          "velocity": 0.4409448818897638
        },
        {
          "duration": 0.010416656249997658,
          "durationTicks": 12,
          "midi": 51,
          "name": "D#3",
          "ticks": 33984,
          "time": 29.4999705,
          "velocity": 0.5275590551181102
        },
        {
          "duration": 0.010416656249997658,
          "durationTicks": 12,
          "midi": 37,
          "name": "C#2",
          "ticks": 33984,
          "time": 29.4999705,
          "velocity": 0.44881889763779526
        },
        {
          "duration": 0.010416656249997658,
          "durationTicks": 12,
          "midi": 38,
          "name": "D2",
          "ticks": 34240,
          "time": 29.722192500000002,
          "velocity": 0.06299212598425197
        },
        {
          "duration": 0.010416656249997658,
          "durationTicks": 12,
          "midi": 51,
          "name": "D#3",
          "ticks": 34240,
          "time": 29.722192500000002,
          "velocity": 0.4409448818897638
        },
        {
          "duration": 0.01041665625000121,
          "durationTicks": 12,
          "midi": 51,
          "name": "D#3",
          "ticks": 34368,
          "time": 29.8333035,
          "velocity": 0.4409448818897638
        },
        {
          "duration": 0.01041665625000121,
          "durationTicks": 12,
          "midi": 37,
          "name": "C#2",
          "ticks": 34752,
          "time": 30.1666365,
          "velocity": 0.44881889763779526
        },
        {
          "duration": 0.01041665625000121,
          "durationTicks": 12,
          "midi": 51,
          "name": "D#3",
          "ticks": 34752,
          "time": 30.1666365,
          "velocity": 0.49606299212598426
        },
        {
          "duration": 0.010416656249997658,
          "durationTicks": 12,
          "midi": 38,
          "name": "D2",
          "ticks": 35008,
          "time": 30.3888585,
          "velocity": 0.06299212598425197
        },
        {
          "duration": 0.010416656249997658,
          "durationTicks": 12,
          "midi": 51,
          "name": "D#3",
          "ticks": 35008,
          "time": 30.3888585,
          "velocity": 0.4409448818897638
        },
        {
          "duration": 0.01041665625000121,
          "durationTicks": 12,
          "midi": 51,
          "name": "D#3",
          "ticks": 35136,
          "time": 30.4999695,
          "velocity": 0.4409448818897638
        },
        {
          "duration": 0.01041665625000121,
          "durationTicks": 12,
          "midi": 51,
          "name": "D#3",
          "ticks": 35520,
          "time": 30.8333025,
          "velocity": 0.5275590551181102
        },
        {
          "duration": 0.01041665625000121,
          "durationTicks": 12,
          "midi": 37,
          "name": "C#2",
          "ticks": 35520,
          "time": 30.8333025,
          "velocity": 0.44881889763779526
        },
        {
          "duration": 0.01041665625000121,
          "durationTicks": 12,
          "midi": 38,
          "name": "D2",
          "ticks": 35776,
          "time": 31.0555245,
          "velocity": 0.06299212598425197
        },
        {
          "duration": 0.01041665625000121,
          "durationTicks": 12,
          "midi": 51,
          "name": "D#3",
          "ticks": 35776,
          "time": 31.0555245,
          "velocity": 0.4409448818897638
        },
        {
          "duration": 0.01041665625000121,
          "durationTicks": 12,
          "midi": 51,
          "name": "D#3",
          "ticks": 35904,
          "time": 31.166635499999998,
          "velocity": 0.4409448818897638
        },
        {
          "duration": 0.01041665625000121,
          "durationTicks": 12,
          "midi": 51,
          "name": "D#3",
          "ticks": 36288,
          "time": 31.499968499999998,
          "velocity": 0.49606299212598426
        },
        {
          "duration": 0.01041665625000121,
          "durationTicks": 12,
          "midi": 37,
          "name": "C#2",
          "ticks": 36288,
          "time": 31.499968499999998,
          "velocity": 0.44881889763779526
        },
        {
          "duration": 0.01041665625000121,
          "durationTicks": 12,
          "midi": 38,
          "name": "D2",
          "ticks": 36544,
          "time": 31.7221905,
          "velocity": 0.06299212598425197
        },
        {
          "duration": 0.01041665625000121,
          "durationTicks": 12,
          "midi": 51,
          "name": "D#3",
          "ticks": 36544,
          "time": 31.7221905,
          "velocity": 0.4409448818897638
        },
        {
          "duration": 0.01041665625000121,
          "durationTicks": 12,
          "midi": 40,
          "name": "E2",
          "ticks": 36672,
          "time": 31.833301499999997,
          "velocity": 0.5590551181102362
        },
        {
          "duration": 0.01041665625000121,
          "durationTicks": 12,
          "midi": 51,
          "name": "D#3",
          "ticks": 36672,
          "time": 31.833301499999997,
          "velocity": 0.4409448818897638
        },
        {
          "duration": 0.01041665625000121,
          "durationTicks": 12,
          "midi": 35,
          "name": "B1",
          "ticks": 36672,
          "time": 31.833301499999997,
          "velocity": 0.5590551181102362
        },
        {
          "duration": 0.01041665625000121,
          "durationTicks": 12,
          "midi": 35,
          "name": "B1",
          "ticks": 37440,
          "time": 32.4999675,
          "velocity": 0.5590551181102362
        },
        {
          "duration": 0.01041665625000121,
          "durationTicks": 12,
          "midi": 51,
          "name": "D#3",
          "ticks": 37440,
          "time": 32.4999675,
          "velocity": 0.4409448818897638
        },
        {
          "duration": 0.01041665625000121,
          "durationTicks": 12,
          "midi": 40,
          "name": "E2",
          "ticks": 37440,
          "time": 32.4999675,
          "velocity": 0.5590551181102362
        },
        {
          "duration": 0.01041665625000121,
          "durationTicks": 12,
          "midi": 40,
          "name": "E2",
          "ticks": 38080,
          "time": 33.0555225,
          "velocity": 0.5590551181102362
        },
        {
          "duration": 0.01041665625000121,
          "durationTicks": 12,
          "midi": 35,
          "name": "B1",
          "ticks": 38080,
          "time": 33.0555225,
          "velocity": 0.5590551181102362
        },
        {
          "duration": 0.01041665625000121,
          "durationTicks": 12,
          "midi": 51,
          "name": "D#3",
          "ticks": 38080,
          "time": 33.0555225,
          "velocity": 0.4409448818897638
        },
        {
          "duration": 0.01041665625000121,
          "durationTicks": 12,
          "midi": 40,
          "name": "E2",
          "ticks": 39360,
          "time": 34.1666325,
          "velocity": 0.6299212598425197
        },
        {
          "duration": 0.01041665625000121,
          "durationTicks": 12,
          "midi": 48,
          "name": "C3",
          "ticks": 39488,
          "time": 34.2777435,
          "velocity": 0.6299212598425197
        },
        {
          "duration": 0.01041665625000121,
          "durationTicks": 12,
          "midi": 47,
          "name": "B2",
          "ticks": 39616,
          "time": 34.3888545,
          "velocity": 0.6299212598425197
        },
        {
          "duration": 0.010416656249994105,
          "durationTicks": 12,
          "midi": 49,
          "name": "C#3",
          "ticks": 39744,
          "time": 34.4999655,
          "velocity": 0.5590551181102362
        },
        {
          "duration": 0.010416656249994105,
          "durationTicks": 12,
          "midi": 35,
          "name": "B1",
          "ticks": 39744,
          "time": 34.4999655,
          "velocity": 0.5590551181102362
        },
        {
          "duration": 0.01041665625000121,
          "durationTicks": 12,
          "midi": 37,
          "name": "C#2",
          "ticks": 40128,
          "time": 34.8332985,
          "velocity": 0.44881889763779526
        },
        {
          "duration": 0.01041665625000121,
          "durationTicks": 12,
          "midi": 51,
          "name": "D#3",
          "ticks": 40128,
          "time": 34.8332985,
          "velocity": 0.5275590551181102
        },
        {
          "duration": 0.01041665625000121,
          "durationTicks": 12,
          "midi": 38,
          "name": "D2",
          "ticks": 40384,
          "time": 35.0555205,
          "velocity": 0.06299212598425197
        },
        {
          "duration": 0.01041665625000121,
          "durationTicks": 12,
          "midi": 51,
          "name": "D#3",
          "ticks": 40384,
          "time": 35.0555205,
          "velocity": 0.4409448818897638
        },
        {
          "duration": 0.01041665625000121,
          "durationTicks": 12,
          "midi": 51,
          "name": "D#3",
          "ticks": 40512,
          "time": 35.1666315,
          "velocity": 0.4409448818897638
        },
        {
          "duration": 0.01041665625000121,
          "durationTicks": 12,
          "midi": 51,
          "name": "D#3",
          "ticks": 40896,
          "time": 35.4999645,
          "velocity": 0.49606299212598426
        },
        {
          "duration": 0.01041665625000121,
          "durationTicks": 12,
          "midi": 37,
          "name": "C#2",
          "ticks": 40896,
          "time": 35.4999645,
          "velocity": 0.44881889763779526
        },
        {
          "duration": 0.01041665625000121,
          "durationTicks": 12,
          "midi": 38,
          "name": "D2",
          "ticks": 41152,
          "time": 35.7221865,
          "velocity": 0.06299212598425197
        },
        {
          "duration": 0.01041665625000121,
          "durationTicks": 12,
          "midi": 51,
          "name": "D#3",
          "ticks": 41152,
          "time": 35.7221865,
          "velocity": 0.4409448818897638
        },
        {
          "duration": 0.01041665625000121,
          "durationTicks": 12,
          "midi": 51,
          "name": "D#3",
          "ticks": 41280,
          "time": 35.8332975,
          "velocity": 0.4409448818897638
        },
        {
          "duration": 0.01041665625000121,
          "durationTicks": 12,
          "midi": 51,
          "name": "D#3",
          "ticks": 41664,
          "time": 36.1666305,
          "velocity": 0.5275590551181102
        },
        {
          "duration": 0.01041665625000121,
          "durationTicks": 12,
          "midi": 37,
          "name": "C#2",
          "ticks": 41664,
          "time": 36.1666305,
          "velocity": 0.44881889763779526
        },
        {
          "duration": 0.01041665625000121,
          "durationTicks": 12,
          "midi": 51,
          "name": "D#3",
          "ticks": 41920,
          "time": 36.3888525,
          "velocity": 0.4409448818897638
        },
        {
          "duration": 0.01041665625000121,
          "durationTicks": 12,
          "midi": 38,
          "name": "D2",
          "ticks": 41920,
          "time": 36.3888525,
          "velocity": 0.06299212598425197
        },
        {
          "duration": 0.01041665625000121,
          "durationTicks": 12,
          "midi": 51,
          "name": "D#3",
          "ticks": 42048,
          "time": 36.4999635,
          "velocity": 0.4409448818897638
        },
        {
          "duration": 0.01041665625000121,
          "durationTicks": 12,
          "midi": 51,
          "name": "D#3",
          "ticks": 42432,
          "time": 36.833296499999996,
          "velocity": 0.49606299212598426
        },
        {
          "duration": 0.01041665625000121,
          "durationTicks": 12,
          "midi": 37,
          "name": "C#2",
          "ticks": 42432,
          "time": 36.833296499999996,
          "velocity": 0.44881889763779526
        },
        {
          "duration": 0.01041665625000121,
          "durationTicks": 12,
          "midi": 51,
          "name": "D#3",
          "ticks": 42688,
          "time": 37.0555185,
          "velocity": 0.4409448818897638
        },
        {
          "duration": 0.01041665625000121,
          "durationTicks": 12,
          "midi": 38,
          "name": "D2",
          "ticks": 42688,
          "time": 37.0555185,
          "velocity": 0.6299212598425197
        },
        {
          "duration": 0.01041665625000121,
          "durationTicks": 12,
          "midi": 51,
          "name": "D#3",
          "ticks": 42816,
          "time": 37.1666295,
          "velocity": 0.4409448818897638
        },
        {
          "duration": 0.010416656249994105,
          "durationTicks": 12,
          "midi": 51,
          "name": "D#3",
          "ticks": 43200,
          "time": 37.4999625,
          "velocity": 0.5275590551181102
        },
        {
          "duration": 0.010416656249994105,
          "durationTicks": 12,
          "midi": 37,
          "name": "C#2",
          "ticks": 43200,
          "time": 37.4999625,
          "velocity": 0.44881889763779526
        },
        {
          "duration": 0.01041665625000121,
          "durationTicks": 12,
          "midi": 38,
          "name": "D2",
          "ticks": 43456,
          "time": 37.7221845,
          "velocity": 0.06299212598425197
        },
        {
          "duration": 0.01041665625000121,
          "durationTicks": 12,
          "midi": 51,
          "name": "D#3",
          "ticks": 43456,
          "time": 37.7221845,
          "velocity": 0.4409448818897638
        },
        {
          "duration": 0.01041665625000121,
          "durationTicks": 12,
          "midi": 51,
          "name": "D#3",
          "ticks": 43584,
          "time": 37.8332955,
          "velocity": 0.4409448818897638
        },
        {
          "duration": 0.010416656249994105,
          "durationTicks": 12,
          "midi": 51,
          "name": "D#3",
          "ticks": 43968,
          "time": 38.1666285,
          "velocity": 0.49606299212598426
        },
        {
          "duration": 0.010416656249994105,
          "durationTicks": 12,
          "midi": 37,
          "name": "C#2",
          "ticks": 43968,
          "time": 38.1666285,
          "velocity": 0.44881889763779526
        },
        {
          "duration": 0.010416656249994105,
          "durationTicks": 12,
          "midi": 38,
          "name": "D2",
          "ticks": 44224,
          "time": 38.388850500000004,
          "velocity": 0.06299212598425197
        },
        {
          "duration": 0.010416656249994105,
          "durationTicks": 12,
          "midi": 51,
          "name": "D#3",
          "ticks": 44224,
          "time": 38.388850500000004,
          "velocity": 0.4409448818897638
        },
        {
          "duration": 0.01041665625000121,
          "durationTicks": 12,
          "midi": 51,
          "name": "D#3",
          "ticks": 44352,
          "time": 38.4999615,
          "velocity": 0.4409448818897638
        },
        {
          "duration": 0.01041665625000121,
          "durationTicks": 12,
          "midi": 51,
          "name": "D#3",
          "ticks": 44736,
          "time": 38.8332945,
          "velocity": 0.5275590551181102
        },
        {
          "duration": 0.01041665625000121,
          "durationTicks": 12,
          "midi": 37,
          "name": "C#2",
          "ticks": 44736,
          "time": 38.8332945,
          "velocity": 0.44881889763779526
        },
        {
          "duration": 0.010416656249994105,
          "durationTicks": 12,
          "midi": 38,
          "name": "D2",
          "ticks": 44992,
          "time": 39.0555165,
          "velocity": 0.06299212598425197
        },
        {
          "duration": 0.010416656249994105,
          "durationTicks": 12,
          "midi": 51,
          "name": "D#3",
          "ticks": 44992,
          "time": 39.0555165,
          "velocity": 0.4409448818897638
        },
        {
          "duration": 0.01041665625000121,
          "durationTicks": 12,
          "midi": 51,
          "name": "D#3",
          "ticks": 45120,
          "time": 39.1666275,
          "velocity": 0.4409448818897638
        },
        {
          "duration": 0.01041665625000121,
          "durationTicks": 12,
          "midi": 51,
          "name": "D#3",
          "ticks": 45504,
          "time": 39.4999605,
          "velocity": 0.49606299212598426
        },
        {
          "duration": 0.01041665625000121,
          "durationTicks": 12,
          "midi": 37,
          "name": "C#2",
          "ticks": 45504,
          "time": 39.4999605,
          "velocity": 0.44881889763779526
        },
        {
          "duration": 0.01041665625000121,
          "durationTicks": 12,
          "midi": 38,
          "name": "D2",
          "ticks": 45760,
          "time": 39.7221825,
          "velocity": 0.06299212598425197
        },
        {
          "duration": 0.01041665625000121,
          "durationTicks": 12,
          "midi": 51,
          "name": "D#3",
          "ticks": 45760,
          "time": 39.7221825,
          "velocity": 0.4409448818897638
        },
        {
          "duration": 0.01041665625000121,
          "durationTicks": 12,
          "midi": 51,
          "name": "D#3",
          "ticks": 45888,
          "time": 39.833293499999996,
          "velocity": 0.4409448818897638
        },
        {
          "duration": 0.01041665625000121,
          "durationTicks": 12,
          "midi": 37,
          "name": "C#2",
          "ticks": 46272,
          "time": 40.1666265,
          "velocity": 0.44881889763779526
        },
        {
          "duration": 0.01041665625000121,
          "durationTicks": 12,
          "midi": 51,
          "name": "D#3",
          "ticks": 46272,
          "time": 40.1666265,
          "velocity": 0.5275590551181102
        },
        {
          "duration": 0.01041665625000121,
          "durationTicks": 12,
          "midi": 38,
          "name": "D2",
          "ticks": 46528,
          "time": 40.3888485,
          "velocity": 0.06299212598425197
        },
        {
          "duration": 0.01041665625000121,
          "durationTicks": 12,
          "midi": 51,
          "name": "D#3",
          "ticks": 46528,
          "time": 40.3888485,
          "velocity": 0.4409448818897638
        },
        {
          "duration": 0.01041665625000121,
          "durationTicks": 12,
          "midi": 51,
          "name": "D#3",
          "ticks": 46656,
          "time": 40.499959499999996,
          "velocity": 0.4409448818897638
        },
        {
          "duration": 0.01041665625000121,
          "durationTicks": 12,
          "midi": 37,
          "name": "C#2",
          "ticks": 47040,
          "time": 40.8332925,
          "velocity": 0.44881889763779526
        },
        {
          "duration": 0.01041665625000121,
          "durationTicks": 12,
          "midi": 51,
          "name": "D#3",
          "ticks": 47040,
          "time": 40.8332925,
          "velocity": 0.49606299212598426
        },
        {
          "duration": 0.01041665625000121,
          "durationTicks": 12,
          "midi": 51,
          "name": "D#3",
          "ticks": 47296,
          "time": 41.0555145,
          "velocity": 0.4409448818897638
        },
        {
          "duration": 0.01041665625000121,
          "durationTicks": 12,
          "midi": 38,
          "name": "D2",
          "ticks": 47296,
          "time": 41.0555145,
          "velocity": 0.06299212598425197
        },
        {
          "duration": 0.010416656249994105,
          "durationTicks": 12,
          "midi": 51,
          "name": "D#3",
          "ticks": 47424,
          "time": 41.1666255,
          "velocity": 0.4409448818897638
        },
        {
          "duration": 0.01041665625000121,
          "durationTicks": 12,
          "midi": 37,
          "name": "C#2",
          "ticks": 47808,
          "time": 41.4999585,
          "velocity": 0.44881889763779526
        },
        {
          "duration": 0.01041665625000121,
          "durationTicks": 12,
          "midi": 51,
          "name": "D#3",
          "ticks": 47808,
          "time": 41.4999585,
          "velocity": 0.5275590551181102
        },
        {
          "duration": 0.01041665625000121,
          "durationTicks": 12,
          "midi": 51,
          "name": "D#3",
          "ticks": 48064,
          "time": 41.7221805,
          "velocity": 0.4409448818897638
        },
        {
          "duration": 0.01041665625000121,
          "durationTicks": 12,
          "midi": 38,
          "name": "D2",
          "ticks": 48064,
          "time": 41.7221805,
          "velocity": 0.6299212598425197
        },
        {
          "duration": 0.010416656249994105,
          "durationTicks": 12,
          "midi": 51,
          "name": "D#3",
          "ticks": 48192,
          "time": 41.8332915,
          "velocity": 0.4409448818897638
        },
        {
          "duration": 0.01041665625000121,
          "durationTicks": 12,
          "midi": 37,
          "name": "C#2",
          "ticks": 48576,
          "time": 42.1666245,
          "velocity": 0.44881889763779526
        },
        {
          "duration": 0.01041665625000121,
          "durationTicks": 12,
          "midi": 51,
          "name": "D#3",
          "ticks": 48576,
          "time": 42.1666245,
          "velocity": 0.49606299212598426
        },
        {
          "duration": 0.01041665625000121,
          "durationTicks": 12,
          "midi": 38,
          "name": "D2",
          "ticks": 48832,
          "time": 42.3888465,
          "velocity": 0.06299212598425197
        },
        {
          "duration": 0.01041665625000121,
          "durationTicks": 12,
          "midi": 51,
          "name": "D#3",
          "ticks": 48832,
          "time": 42.3888465,
          "velocity": 0.4409448818897638
        },
        {
          "duration": 0.01041665625000121,
          "durationTicks": 12,
          "midi": 51,
          "name": "D#3",
          "ticks": 48960,
          "time": 42.4999575,
          "velocity": 0.4409448818897638
        },
        {
          "duration": 0.01041665625000121,
          "durationTicks": 12,
          "midi": 51,
          "name": "D#3",
          "ticks": 49344,
          "time": 42.8332905,
          "velocity": 0.5275590551181102
        },
        {
          "duration": 0.01041665625000121,
          "durationTicks": 12,
          "midi": 37,
          "name": "C#2",
          "ticks": 49344,
          "time": 42.8332905,
          "velocity": 0.44881889763779526
        },
        {
          "duration": 0.010416656249994105,
          "durationTicks": 12,
          "midi": 38,
          "name": "D2",
          "ticks": 49600,
          "time": 43.0555125,
          "velocity": 0.06299212598425197
        },
        {
          "duration": 0.010416656249994105,
          "durationTicks": 12,
          "midi": 51,
          "name": "D#3",
          "ticks": 49600,
          "time": 43.0555125,
          "velocity": 0.4409448818897638
        },
        {
          "duration": 0.01041665625000121,
          "durationTicks": 12,
          "midi": 51,
          "name": "D#3",
          "ticks": 49728,
          "time": 43.1666235,
          "velocity": 0.4409448818897638
        },
        {
          "duration": 0.01041665625000121,
          "durationTicks": 12,
          "midi": 37,
          "name": "C#2",
          "ticks": 50112,
          "time": 43.499956499999996,
          "velocity": 0.44881889763779526
        },
        {
          "duration": 0.01041665625000121,
          "durationTicks": 12,
          "midi": 51,
          "name": "D#3",
          "ticks": 50112,
          "time": 43.499956499999996,
          "velocity": 0.49606299212598426
        },
        {
          "duration": 0.010416656249994105,
          "durationTicks": 12,
          "midi": 51,
          "name": "D#3",
          "ticks": 50368,
          "time": 43.7221785,
          "velocity": 0.4409448818897638
        },
        {
          "duration": 0.010416656249994105,
          "durationTicks": 12,
          "midi": 38,
          "name": "D2",
          "ticks": 50368,
          "time": 43.7221785,
          "velocity": 0.06299212598425197
        },
        {
          "duration": 0.01041665625000121,
          "durationTicks": 12,
          "midi": 51,
          "name": "D#3",
          "ticks": 50496,
          "time": 43.8332895,
          "velocity": 0.4409448818897638
        },
        {
          "duration": 0.01041665625000121,
          "durationTicks": 12,
          "midi": 37,
          "name": "C#2",
          "ticks": 50880,
          "time": 44.166622499999995,
          "velocity": 0.44881889763779526
        },
        {
          "duration": 0.01041665625000121,
          "durationTicks": 12,
          "midi": 51,
          "name": "D#3",
          "ticks": 50880,
          "time": 44.166622499999995,
          "velocity": 0.5275590551181102
        },
        {
          "duration": 0.01041665625000121,
          "durationTicks": 12,
          "midi": 51,
          "name": "D#3",
          "ticks": 51136,
          "time": 44.3888445,
          "velocity": 0.4409448818897638
        },
        {
          "duration": 0.01041665625000121,
          "durationTicks": 12,
          "midi": 38,
          "name": "D2",
          "ticks": 51136,
          "time": 44.3888445,
          "velocity": 0.06299212598425197
        },
        {
          "duration": 0.01041665625000121,
          "durationTicks": 12,
          "midi": 51,
          "name": "D#3",
          "ticks": 51264,
          "time": 44.4999555,
          "velocity": 0.4409448818897638
        },
        {
          "duration": 0.010416656249994105,
          "durationTicks": 12,
          "midi": 37,
          "name": "C#2",
          "ticks": 51648,
          "time": 44.8332885,
          "velocity": 0.44881889763779526
        },
        {
          "duration": 0.010416656249994105,
          "durationTicks": 12,
          "midi": 51,
          "name": "D#3",
          "ticks": 51648,
          "time": 44.8332885,
          "velocity": 0.49606299212598426
        },
        {
          "duration": 0.01041665625000121,
          "durationTicks": 12,
          "midi": 51,
          "name": "D#3",
          "ticks": 51904,
          "time": 45.0555105,
          "velocity": 0.4409448818897638
        },
        {
          "duration": 0.01041665625000121,
          "durationTicks": 12,
          "midi": 38,
          "name": "D2",
          "ticks": 51904,
          "time": 45.0555105,
          "velocity": 0.06299212598425197
        },
        {
          "duration": 0.01041665625000121,
          "durationTicks": 12,
          "midi": 51,
          "name": "D#3",
          "ticks": 52032,
          "time": 45.1666215,
          "velocity": 0.4409448818897638
        },
        {
          "duration": 0.010416656249994105,
          "durationTicks": 12,
          "midi": 37,
          "name": "C#2",
          "ticks": 52416,
          "time": 45.4999545,
          "velocity": 0.44881889763779526
        },
        {
          "duration": 0.010416656249994105,
          "durationTicks": 12,
          "midi": 51,
          "name": "D#3",
          "ticks": 52416,
          "time": 45.4999545,
          "velocity": 0.5275590551181102
        },
        {
          "duration": 0.01041665625000121,
          "durationTicks": 12,
          "midi": 51,
          "name": "D#3",
          "ticks": 52672,
          "time": 45.722176499999996,
          "velocity": 0.4409448818897638
        },
        {
          "duration": 0.01041665625000121,
          "durationTicks": 12,
          "midi": 38,
          "name": "D2",
          "ticks": 52672,
          "time": 45.722176499999996,
          "velocity": 0.06299212598425197
        },
        {
          "duration": 0.01041665625000121,
          "durationTicks": 12,
          "midi": 49,
          "name": "C#3",
          "ticks": 52800,
          "time": 45.8332875,
          "velocity": 0.5590551181102362
        },
        {
          "duration": 0.01041665625000121,
          "durationTicks": 12,
          "midi": 51,
          "name": "D#3",
          "ticks": 53184,
          "time": 46.1666205,
          "velocity": 0.49606299212598426
        },
        {
          "duration": 0.01041665625000121,
          "durationTicks": 12,
          "midi": 37,
          "name": "C#2",
          "ticks": 53184,
          "time": 46.1666205,
          "velocity": 0.44881889763779526
        },
        {
          "duration": 0.01041665625000121,
          "durationTicks": 12,
          "midi": 38,
          "name": "D2",
          "ticks": 53440,
          "time": 46.388842499999996,
          "velocity": 0.06299212598425197
        },
        {
          "duration": 0.01041665625000121,
          "durationTicks": 12,
          "midi": 51,
          "name": "D#3",
          "ticks": 53440,
          "time": 46.388842499999996,
          "velocity": 0.4409448818897638
        },
        {
          "duration": 0.01041665625000121,
          "durationTicks": 12,
          "midi": 51,
          "name": "D#3",
          "ticks": 53568,
          "time": 46.4999535,
          "velocity": 0.4409448818897638
        },
        {
          "duration": 0.01041665625000121,
          "durationTicks": 12,
          "midi": 51,
          "name": "D#3",
          "ticks": 53952,
          "time": 46.8332865,
          "velocity": 0.5275590551181102
        },
        {
          "duration": 0.01041665625000121,
          "durationTicks": 12,
          "midi": 37,
          "name": "C#2",
          "ticks": 53952,
          "time": 46.8332865,
          "velocity": 0.44881889763779526
        },
        {
          "duration": 0.01041665625000121,
          "durationTicks": 12,
          "midi": 38,
          "name": "D2",
          "ticks": 54208,
          "time": 47.055508499999995,
          "velocity": 0.06299212598425197
        },
        {
          "duration": 0.01041665625000121,
          "durationTicks": 12,
          "midi": 51,
          "name": "D#3",
          "ticks": 54208,
          "time": 47.055508499999995,
          "velocity": 0.4409448818897638
        },
        {
          "duration": 0.01041665625000121,
          "durationTicks": 12,
          "midi": 51,
          "name": "D#3",
          "ticks": 54336,
          "time": 47.166619499999996,
          "velocity": 0.4409448818897638
        },
        {
          "duration": 0.01041665625000121,
          "durationTicks": 12,
          "midi": 37,
          "name": "C#2",
          "ticks": 54720,
          "time": 47.4999525,
          "velocity": 0.44881889763779526
        },
        {
          "duration": 0.01041665625000121,
          "durationTicks": 12,
          "midi": 51,
          "name": "D#3",
          "ticks": 54720,
          "time": 47.4999525,
          "velocity": 0.49606299212598426
        },
        {
          "duration": 0.01041665625000121,
          "durationTicks": 12,
          "midi": 38,
          "name": "D2",
          "ticks": 54976,
          "time": 47.722174499999994,
          "velocity": 0.06299212598425197
        },
        {
          "duration": 0.01041665625000121,
          "durationTicks": 12,
          "midi": 51,
          "name": "D#3",
          "ticks": 54976,
          "time": 47.722174499999994,
          "velocity": 0.4409448818897638
        },
        {
          "duration": 0.01041665625000121,
          "durationTicks": 12,
          "midi": 51,
          "name": "D#3",
          "ticks": 55104,
          "time": 47.833285499999995,
          "velocity": 0.4409448818897638
        },
        {
          "duration": 0.01041665625000121,
          "durationTicks": 12,
          "midi": 37,
          "name": "C#2",
          "ticks": 55488,
          "time": 48.1666185,
          "velocity": 0.44881889763779526
        },
        {
          "duration": 0.01041665625000121,
          "durationTicks": 12,
          "midi": 51,
          "name": "D#3",
          "ticks": 55488,
          "time": 48.1666185,
          "velocity": 0.5275590551181102
        },
        {
          "duration": 0.01041665625000121,
          "durationTicks": 12,
          "midi": 51,
          "name": "D#3",
          "ticks": 55744,
          "time": 48.38884049999999,
          "velocity": 0.4409448818897638
        },
        {
          "duration": 0.01041665625000121,
          "durationTicks": 12,
          "midi": 38,
          "name": "D2",
          "ticks": 55744,
          "time": 48.38884049999999,
          "velocity": 0.06299212598425197
        },
        {
          "duration": 0.010416656249994105,
          "durationTicks": 12,
          "midi": 51,
          "name": "D#3",
          "ticks": 55872,
          "time": 48.4999515,
          "velocity": 0.4409448818897638
        },
        {
          "duration": 0.01041665625000121,
          "durationTicks": 12,
          "midi": 37,
          "name": "C#2",
          "ticks": 56256,
          "time": 48.8332845,
          "velocity": 0.44881889763779526
        },
        {
          "duration": 0.01041665625000121,
          "durationTicks": 12,
          "midi": 51,
          "name": "D#3",
          "ticks": 56256,
          "time": 48.8332845,
          "velocity": 0.49606299212598426
        },
        {
          "duration": 0.01041665625000121,
          "durationTicks": 12,
          "midi": 51,
          "name": "D#3",
          "ticks": 56512,
          "time": 49.05550649999999,
          "velocity": 0.4409448818897638
        },
        {
          "duration": 0.01041665625000121,
          "durationTicks": 12,
          "midi": 38,
          "name": "D2",
          "ticks": 56512,
          "time": 49.05550649999999,
          "velocity": 0.06299212598425197
        },
        {
          "duration": 0.010416656249994105,
          "durationTicks": 12,
          "midi": 51,
          "name": "D#3",
          "ticks": 56640,
          "time": 49.1666175,
          "velocity": 0.4409448818897638
        },
        {
          "duration": 0.01041665625000121,
          "durationTicks": 12,
          "midi": 37,
          "name": "C#2",
          "ticks": 57024,
          "time": 49.4999505,
          "velocity": 0.44881889763779526
        },
        {
          "duration": 0.01041665625000121,
          "durationTicks": 12,
          "midi": 51,
          "name": "D#3",
          "ticks": 57024,
          "time": 49.4999505,
          "velocity": 0.5275590551181102
        },
        {
          "duration": 0.01041665625000121,
          "durationTicks": 12,
          "midi": 51,
          "name": "D#3",
          "ticks": 57280,
          "time": 49.72217249999999,
          "velocity": 0.4409448818897638
        },
        {
          "duration": 0.01041665625000121,
          "durationTicks": 12,
          "midi": 38,
          "name": "D2",
          "ticks": 57280,
          "time": 49.72217249999999,
          "velocity": 0.06299212598425197
        },
        {
          "duration": 0.01041665625000121,
          "durationTicks": 12,
          "midi": 51,
          "name": "D#3",
          "ticks": 57408,
          "time": 49.8332835,
          "velocity": 0.4409448818897638
        },
        {
          "duration": 0.01041665625000121,
          "durationTicks": 12,
          "midi": 37,
          "name": "C#2",
          "ticks": 57792,
          "time": 50.166616499999996,
          "velocity": 0.44881889763779526
        },
        {
          "duration": 0.01041665625000121,
          "durationTicks": 12,
          "midi": 51,
          "name": "D#3",
          "ticks": 57792,
          "time": 50.166616499999996,
          "velocity": 0.49606299212598426
        },
        {
          "duration": 0.010416656249994105,
          "durationTicks": 12,
          "midi": 38,
          "name": "D2",
          "ticks": 58048,
          "time": 50.3888385,
          "velocity": 0.06299212598425197
        },
        {
          "duration": 0.010416656249994105,
          "durationTicks": 12,
          "midi": 51,
          "name": "D#3",
          "ticks": 58048,
          "time": 50.3888385,
          "velocity": 0.4409448818897638
        },
        {
          "duration": 0.01041665625000121,
          "durationTicks": 12,
          "midi": 51,
          "name": "D#3",
          "ticks": 58176,
          "time": 50.4999495,
          "velocity": 0.4409448818897638
        },
        {
          "duration": 0.01041665625000121,
          "durationTicks": 12,
          "midi": 37,
          "name": "C#2",
          "ticks": 58560,
          "time": 50.833282499999996,
          "velocity": 0.44881889763779526
        },
        {
          "duration": 0.01041665625000121,
          "durationTicks": 12,
          "midi": 51,
          "name": "D#3",
          "ticks": 58560,
          "time": 50.833282499999996,
          "velocity": 0.5275590551181102
        },
        {
          "duration": 0.010416656249994105,
          "durationTicks": 12,
          "midi": 51,
          "name": "D#3",
          "ticks": 58816,
          "time": 51.0555045,
          "velocity": 0.4409448818897638
        },
        {
          "duration": 0.010416656249994105,
          "durationTicks": 12,
          "midi": 38,
          "name": "D2",
          "ticks": 58816,
          "time": 51.0555045,
          "velocity": 0.06299212598425197
        },
        {
          "duration": 0.01041665625000121,
          "durationTicks": 12,
          "midi": 51,
          "name": "D#3",
          "ticks": 58944,
          "time": 51.1666155,
          "velocity": 0.4409448818897638
        },
        {
          "duration": 0.01041665625000121,
          "durationTicks": 12,
          "midi": 51,
          "name": "D#3",
          "ticks": 59328,
          "time": 51.499948499999995,
          "velocity": 0.49606299212598426
        },
        {
          "duration": 0.01041665625000121,
          "durationTicks": 12,
          "midi": 37,
          "name": "C#2",
          "ticks": 59328,
          "time": 51.499948499999995,
          "velocity": 0.44881889763779526
        },
        {
          "duration": 0.01041665625000121,
          "durationTicks": 12,
          "midi": 38,
          "name": "D2",
          "ticks": 59584,
          "time": 51.7221705,
          "velocity": 0.6299212598425197
        },
        {
          "duration": 0.01041665625000121,
          "durationTicks": 12,
          "midi": 51,
          "name": "D#3",
          "ticks": 59584,
          "time": 51.7221705,
          "velocity": 0.4409448818897638
        },
        {
          "duration": 0.01041665625000121,
          "durationTicks": 12,
          "midi": 51,
          "name": "D#3",
          "ticks": 59712,
          "time": 51.8332815,
          "velocity": 0.4409448818897638
        },
        {
          "duration": 0.010416656249994105,
          "durationTicks": 12,
          "midi": 37,
          "name": "C#2",
          "ticks": 60096,
          "time": 52.1666145,
          "velocity": 0.44881889763779526
        },
        {
          "duration": 0.010416656249994105,
          "durationTicks": 12,
          "midi": 51,
          "name": "D#3",
          "ticks": 60096,
          "time": 52.1666145,
          "velocity": 0.5275590551181102
        },
        {
          "duration": 0.01041665625000121,
          "durationTicks": 12,
          "midi": 51,
          "name": "D#3",
          "ticks": 60352,
          "time": 52.3888365,
          "velocity": 0.4409448818897638
        },
        {
          "duration": 0.01041665625000121,
          "durationTicks": 12,
          "midi": 38,
          "name": "D2",
          "ticks": 60352,
          "time": 52.3888365,
          "velocity": 0.06299212598425197
        },
        {
          "duration": 0.01041665625000121,
          "durationTicks": 12,
          "midi": 51,
          "name": "D#3",
          "ticks": 60480,
          "time": 52.4999475,
          "velocity": 0.4409448818897638
        },
        {
          "duration": 0.01041665625000121,
          "durationTicks": 12,
          "midi": 37,
          "name": "C#2",
          "ticks": 60864,
          "time": 52.8332805,
          "velocity": 0.44881889763779526
        },
        {
          "duration": 0.01041665625000121,
          "durationTicks": 12,
          "midi": 51,
          "name": "D#3",
          "ticks": 60864,
          "time": 52.8332805,
          "velocity": 0.49606299212598426
        },
        {
          "duration": 0.01041665625000121,
          "durationTicks": 12,
          "midi": 51,
          "name": "D#3",
          "ticks": 61120,
          "time": 53.055502499999996,
          "velocity": 0.4409448818897638
        },
        {
          "duration": 0.01041665625000121,
          "durationTicks": 12,
          "midi": 38,
          "name": "D2",
          "ticks": 61120,
          "time": 53.055502499999996,
          "velocity": 0.06299212598425197
        },
        {
          "duration": 0.01041665625000121,
          "durationTicks": 12,
          "midi": 51,
          "name": "D#3",
          "ticks": 61248,
          "time": 53.1666135,
          "velocity": 0.4409448818897638
        },
        {
          "duration": 0.01041665625000121,
          "durationTicks": 12,
          "midi": 37,
          "name": "C#2",
          "ticks": 61632,
          "time": 53.4999465,
          "velocity": 0.44881889763779526
        },
        {
          "duration": 0.01041665625000121,
          "durationTicks": 12,
          "midi": 51,
          "name": "D#3",
          "ticks": 61632,
          "time": 53.4999465,
          "velocity": 0.5275590551181102
        },
        {
          "duration": 0.01041665625000121,
          "durationTicks": 12,
          "midi": 51,
          "name": "D#3",
          "ticks": 61888,
          "time": 53.722168499999995,
          "velocity": 0.4409448818897638
        },
        {
          "duration": 0.01041665625000121,
          "durationTicks": 12,
          "midi": 38,
          "name": "D2",
          "ticks": 61888,
          "time": 53.722168499999995,
          "velocity": 0.06299212598425197
        },
        {
          "duration": 0.01041665625000121,
          "durationTicks": 12,
          "midi": 51,
          "name": "D#3",
          "ticks": 62016,
          "time": 53.833279499999996,
          "velocity": 0.4409448818897638
        },
        {
          "duration": 0.01041665625000121,
          "durationTicks": 12,
          "midi": 51,
          "name": "D#3",
          "ticks": 62400,
          "time": 54.1666125,
          "velocity": 0.49606299212598426
        },
        {
          "duration": 0.01041665625000121,
          "durationTicks": 12,
          "midi": 37,
          "name": "C#2",
          "ticks": 62400,
          "time": 54.1666125,
          "velocity": 0.44881889763779526
        },
        {
          "duration": 0.01041665625000121,
          "durationTicks": 12,
          "midi": 51,
          "name": "D#3",
          "ticks": 62656,
          "time": 54.388834499999994,
          "velocity": 0.4409448818897638
        },
        {
          "duration": 0.01041665625000121,
          "durationTicks": 12,
          "midi": 38,
          "name": "D2",
          "ticks": 62656,
          "time": 54.388834499999994,
          "velocity": 0.06299212598425197
        },
        {
          "duration": 0.01041665625000121,
          "durationTicks": 12,
          "midi": 51,
          "name": "D#3",
          "ticks": 62784,
          "time": 54.499945499999995,
          "velocity": 0.4409448818897638
        },
        {
          "duration": 0.01041665625000121,
          "durationTicks": 12,
          "midi": 51,
          "name": "D#3",
          "ticks": 63168,
          "time": 54.8332785,
          "velocity": 0.5275590551181102
        },
        {
          "duration": 0.01041665625000121,
          "durationTicks": 12,
          "midi": 37,
          "name": "C#2",
          "ticks": 63168,
          "time": 54.8332785,
          "velocity": 0.44881889763779526
        },
        {
          "duration": 0.01041665625000121,
          "durationTicks": 12,
          "midi": 38,
          "name": "D2",
          "ticks": 63424,
          "time": 55.055500499999994,
          "velocity": 0.06299212598425197
        },
        {
          "duration": 0.01041665625000121,
          "durationTicks": 12,
          "midi": 51,
          "name": "D#3",
          "ticks": 63424,
          "time": 55.055500499999994,
          "velocity": 0.4409448818897638
        },
        {
          "duration": 0.010416656249994105,
          "durationTicks": 12,
          "midi": 51,
          "name": "D#3",
          "ticks": 63552,
          "time": 55.1666115,
          "velocity": 0.4409448818897638
        },
        {
          "duration": 0.01041665625000121,
          "durationTicks": 12,
          "midi": 37,
          "name": "C#2",
          "ticks": 63936,
          "time": 55.4999445,
          "velocity": 0.44881889763779526
        },
        {
          "duration": 0.01041665625000121,
          "durationTicks": 12,
          "midi": 51,
          "name": "D#3",
          "ticks": 63936,
          "time": 55.4999445,
          "velocity": 0.49606299212598426
        },
        {
          "duration": 0.01041665625000121,
          "durationTicks": 12,
          "midi": 38,
          "name": "D2",
          "ticks": 64192,
          "time": 55.72216649999999,
          "velocity": 0.06299212598425197
        },
        {
          "duration": 0.01041665625000121,
          "durationTicks": 12,
          "midi": 51,
          "name": "D#3",
          "ticks": 64192,
          "time": 55.72216649999999,
          "velocity": 0.4409448818897638
        },
        {
          "duration": 0.010416656249994105,
          "durationTicks": 12,
          "midi": 51,
          "name": "D#3",
          "ticks": 64320,
          "time": 55.8332775,
          "velocity": 0.4409448818897638
        },
        {
          "duration": 0.01041665625000121,
          "durationTicks": 12,
          "midi": 38,
          "name": "D2",
          "ticks": 64576,
          "time": 56.055499499999996,
          "velocity": 0.6299212598425197
        },
        {
          "duration": 0.01041665625000121,
          "durationTicks": 12,
          "midi": 37,
          "name": "C#2",
          "ticks": 64704,
          "time": 56.1666105,
          "velocity": 0.44881889763779526
        },
        {
          "duration": 0.01041665625000121,
          "durationTicks": 12,
          "midi": 51,
          "name": "D#3",
          "ticks": 64704,
          "time": 56.1666105,
          "velocity": 0.5275590551181102
        },
        {
          "duration": 0.01041665625000121,
          "durationTicks": 12,
          "midi": 51,
          "name": "D#3",
          "ticks": 64960,
          "time": 56.38883249999999,
          "velocity": 0.4409448818897638
        },
        {
          "duration": 0.01041665625000121,
          "durationTicks": 12,
          "midi": 38,
          "name": "D2",
          "ticks": 64960,
          "time": 56.38883249999999,
          "velocity": 0.06299212598425197
        },
        {
          "duration": 0.01041665625000121,
          "durationTicks": 12,
          "midi": 51,
          "name": "D#3",
          "ticks": 65088,
          "time": 56.4999435,
          "velocity": 0.4409448818897638
        },
        {
          "duration": 0.01041665625000121,
          "durationTicks": 12,
          "midi": 51,
          "name": "D#3",
          "ticks": 65472,
          "time": 56.8332765,
          "velocity": 0.49606299212598426
        },
        {
          "duration": 0.01041665625000121,
          "durationTicks": 12,
          "midi": 37,
          "name": "C#2",
          "ticks": 65472,
          "time": 56.8332765,
          "velocity": 0.44881889763779526
        },
        {
          "duration": 0.01041665625000121,
          "durationTicks": 12,
          "midi": 38,
          "name": "D2",
          "ticks": 65728,
          "time": 57.05549849999999,
          "velocity": 0.6299212598425197
        },
        {
          "duration": 0.01041665625000121,
          "durationTicks": 12,
          "midi": 51,
          "name": "D#3",
          "ticks": 65728,
          "time": 57.05549849999999,
          "velocity": 0.4409448818897638
        },
        {
          "duration": 0.01041665625000121,
          "durationTicks": 12,
          "midi": 51,
          "name": "D#3",
          "ticks": 65856,
          "time": 57.1666095,
          "velocity": 0.4409448818897638
        },
        {
          "duration": 0.01041665625000121,
          "durationTicks": 12,
          "midi": 51,
          "name": "D#3",
          "ticks": 66240,
          "time": 57.499942499999996,
          "velocity": 0.5275590551181102
        },
        {
          "duration": 0.01041665625000121,
          "durationTicks": 12,
          "midi": 37,
          "name": "C#2",
          "ticks": 66240,
          "time": 57.499942499999996,
          "velocity": 0.44881889763779526
        },
        {
          "duration": 0.010416656249994105,
          "durationTicks": 12,
          "midi": 51,
          "name": "D#3",
          "ticks": 66496,
          "time": 57.7221645,
          "velocity": 0.4409448818897638
        },
        {
          "duration": 0.010416656249994105,
          "durationTicks": 12,
          "midi": 38,
          "name": "D2",
          "ticks": 66496,
          "time": 57.7221645,
          "velocity": 0.06299212598425197
        },
        {
          "duration": 0.01041665625000121,
          "durationTicks": 12,
          "midi": 51,
          "name": "D#3",
          "ticks": 66624,
          "time": 57.8332755,
          "velocity": 0.4409448818897638
        },
        {
          "duration": 0.01041665625000121,
          "durationTicks": 12,
          "midi": 38,
          "name": "D2",
          "ticks": 66880,
          "time": 58.055497499999994,
          "velocity": 0.6299212598425197
        },
        {
          "duration": 0.01041665625000121,
          "durationTicks": 12,
          "midi": 37,
          "name": "C#2",
          "ticks": 67008,
          "time": 58.166608499999995,
          "velocity": 0.44881889763779526
        },
        {
          "duration": 0.01041665625000121,
          "durationTicks": 12,
          "midi": 51,
          "name": "D#3",
          "ticks": 67008,
          "time": 58.166608499999995,
          "velocity": 0.49606299212598426
        },
        {
          "duration": 0.01041665625000121,
          "durationTicks": 12,
          "midi": 38,
          "name": "D2",
          "ticks": 67264,
          "time": 58.3888305,
          "velocity": 0.06299212598425197
        },
        {
          "duration": 0.01041665625000121,
          "durationTicks": 12,
          "midi": 51,
          "name": "D#3",
          "ticks": 67264,
          "time": 58.3888305,
          "velocity": 0.4409448818897638
        },
        {
          "duration": 0.01041665625000121,
          "durationTicks": 12,
          "midi": 51,
          "name": "D#3",
          "ticks": 67392,
          "time": 58.4999415,
          "velocity": 0.4409448818897638
        },
        {
          "duration": 0.010416656249994105,
          "durationTicks": 12,
          "midi": 37,
          "name": "C#2",
          "ticks": 67776,
          "time": 58.8332745,
          "velocity": 0.44881889763779526
        },
        {
          "duration": 0.010416656249994105,
          "durationTicks": 12,
          "midi": 51,
          "name": "D#3",
          "ticks": 67776,
          "time": 58.8332745,
          "velocity": 0.5275590551181102
        },
        {
          "duration": 0.01041665625000121,
          "durationTicks": 12,
          "midi": 38,
          "name": "D2",
          "ticks": 68032,
          "time": 59.0554965,
          "velocity": 0.06299212598425197
        },
        {
          "duration": 0.01041665625000121,
          "durationTicks": 12,
          "midi": 51,
          "name": "D#3",
          "ticks": 68032,
          "time": 59.0554965,
          "velocity": 0.4409448818897638
        },
        {
          "duration": 0.01041665625000121,
          "durationTicks": 12,
          "midi": 51,
          "name": "D#3",
          "ticks": 68160,
          "time": 59.1666075,
          "velocity": 0.4409448818897638
        },
        {
          "duration": 0.010416656249994105,
          "durationTicks": 12,
          "midi": 37,
          "name": "C#2",
          "ticks": 68544,
          "time": 59.4999405,
          "velocity": 0.44881889763779526
        },
        {
          "duration": 0.010416656249994105,
          "durationTicks": 12,
          "midi": 51,
          "name": "D#3",
          "ticks": 68544,
          "time": 59.4999405,
          "velocity": 0.49606299212598426
        },
        {
          "duration": 0.01041665625000121,
          "durationTicks": 12,
          "midi": 38,
          "name": "D2",
          "ticks": 68800,
          "time": 59.722162499999996,
          "velocity": 0.06299212598425197
        },
        {
          "duration": 0.01041665625000121,
          "durationTicks": 12,
          "midi": 51,
          "name": "D#3",
          "ticks": 68800,
          "time": 59.722162499999996,
          "velocity": 0.4409448818897638
        },
        {
          "duration": 0.01041665625000121,
          "durationTicks": 12,
          "midi": 51,
          "name": "D#3",
          "ticks": 68928,
          "time": 59.8332735,
          "velocity": 0.4409448818897638
        },
        {
          "duration": 0.01041665625000121,
          "durationTicks": 12,
          "midi": 51,
          "name": "D#3",
          "ticks": 69312,
          "time": 60.1666065,
          "velocity": 0.5275590551181102
        },
        {
          "duration": 0.01041665625000121,
          "durationTicks": 12,
          "midi": 37,
          "name": "C#2",
          "ticks": 69312,
          "time": 60.1666065,
          "velocity": 0.44881889763779526
        },
        {
          "duration": 0.01041665625000121,
          "durationTicks": 12,
          "midi": 51,
          "name": "D#3",
          "ticks": 69568,
          "time": 60.388828499999995,
          "velocity": 0.4409448818897638
        },
        {
          "duration": 0.01041665625000121,
          "durationTicks": 12,
          "midi": 38,
          "name": "D2",
          "ticks": 69568,
          "time": 60.388828499999995,
          "velocity": 0.06299212598425197
        },
        {
          "duration": 0.01041665625000121,
          "durationTicks": 12,
          "midi": 51,
          "name": "D#3",
          "ticks": 69696,
          "time": 60.499939499999996,
          "velocity": 0.4409448818897638
        },
        {
          "duration": 0.01041665625000121,
          "durationTicks": 12,
          "midi": 51,
          "name": "D#3",
          "ticks": 70080,
          "time": 60.8332725,
          "velocity": 0.49606299212598426
        },
        {
          "duration": 0.01041665625000121,
          "durationTicks": 12,
          "midi": 37,
          "name": "C#2",
          "ticks": 70080,
          "time": 60.8332725,
          "velocity": 0.44881889763779526
        },
        {
          "duration": 0.01041665625000121,
          "durationTicks": 12,
          "midi": 38,
          "name": "D2",
          "ticks": 70336,
          "time": 61.055494499999995,
          "velocity": 0.06299212598425197
        },
        {
          "duration": 0.01041665625000121,
          "durationTicks": 12,
          "midi": 51,
          "name": "D#3",
          "ticks": 70336,
          "time": 61.055494499999995,
          "velocity": 0.4409448818897638
        },
        {
          "duration": 0.01041665625000121,
          "durationTicks": 12,
          "midi": 51,
          "name": "D#3",
          "ticks": 70464,
          "time": 61.166605499999996,
          "velocity": 0.4409448818897638
        },
        {
          "duration": 0.01041665625000121,
          "durationTicks": 12,
          "midi": 37,
          "name": "C#2",
          "ticks": 70848,
          "time": 61.4999385,
          "velocity": 0.44881889763779526
        },
        {
          "duration": 0.01041665625000121,
          "durationTicks": 12,
          "midi": 51,
          "name": "D#3",
          "ticks": 70848,
          "time": 61.4999385,
          "velocity": 0.5275590551181102
        },
        {
          "duration": 0.01041665625000121,
          "durationTicks": 12,
          "midi": 38,
          "name": "D2",
          "ticks": 71104,
          "time": 61.722160499999994,
          "velocity": 0.06299212598425197
        },
        {
          "duration": 0.01041665625000121,
          "durationTicks": 12,
          "midi": 51,
          "name": "D#3",
          "ticks": 71104,
          "time": 61.722160499999994,
          "velocity": 0.4409448818897638
        },
        {
          "duration": 0.01041665625000121,
          "durationTicks": 12,
          "midi": 51,
          "name": "D#3",
          "ticks": 71232,
          "time": 61.833271499999995,
          "velocity": 0.4409448818897638
        },
        {
          "duration": 0.01041665625000121,
          "durationTicks": 12,
          "midi": 51,
          "name": "D#3",
          "ticks": 71616,
          "time": 62.1666045,
          "velocity": 0.49606299212598426
        },
        {
          "duration": 0.01041665625000121,
          "durationTicks": 12,
          "midi": 37,
          "name": "C#2",
          "ticks": 71616,
          "time": 62.1666045,
          "velocity": 0.44881889763779526
        },
        {
          "duration": 0.01041665625000121,
          "durationTicks": 12,
          "midi": 51,
          "name": "D#3",
          "ticks": 71872,
          "time": 62.38882649999999,
          "velocity": 0.4409448818897638
        },
        {
          "duration": 0.01041665625000121,
          "durationTicks": 12,
          "midi": 38,
          "name": "D2",
          "ticks": 71872,
          "time": 62.38882649999999,
          "velocity": 0.06299212598425197
        },
        {
          "duration": 0.010416656249994105,
          "durationTicks": 12,
          "midi": 51,
          "name": "D#3",
          "ticks": 72000,
          "time": 62.4999375,
          "velocity": 0.4409448818897638
        },
        {
          "duration": 0.01041665625000121,
          "durationTicks": 12,
          "midi": 38,
          "name": "D2",
          "ticks": 72256,
          "time": 62.7221595,
          "velocity": 0.6299212598425197
        },
        {
          "duration": 0.01041665625000121,
          "durationTicks": 12,
          "midi": 51,
          "name": "D#3",
          "ticks": 72384,
          "time": 62.8332705,
          "velocity": 0.5275590551181102
        },
        {
          "duration": 0.01041665625000121,
          "durationTicks": 12,
          "midi": 37,
          "name": "C#2",
          "ticks": 72384,
          "time": 62.8332705,
          "velocity": 0.44881889763779526
        },
        {
          "duration": 0.01041665625000121,
          "durationTicks": 12,
          "midi": 38,
          "name": "D2",
          "ticks": 72640,
          "time": 63.05549249999999,
          "velocity": 0.06299212598425197
        },
        {
          "duration": 0.01041665625000121,
          "durationTicks": 12,
          "midi": 51,
          "name": "D#3",
          "ticks": 72640,
          "time": 63.05549249999999,
          "velocity": 0.4409448818897638
        },
        {
          "duration": 0.010416656249994105,
          "durationTicks": 12,
          "midi": 51,
          "name": "D#3",
          "ticks": 72768,
          "time": 63.1666035,
          "velocity": 0.4409448818897638
        },
        {
          "duration": 0.01041665625000121,
          "durationTicks": 12,
          "midi": 51,
          "name": "D#3",
          "ticks": 73152,
          "time": 63.4999365,
          "velocity": 0.49606299212598426
        },
        {
          "duration": 0.01041665625000121,
          "durationTicks": 12,
          "midi": 37,
          "name": "C#2",
          "ticks": 73152,
          "time": 63.4999365,
          "velocity": 0.44881889763779526
        },
        {
          "duration": 0.01041665625000121,
          "durationTicks": 12,
          "midi": 38,
          "name": "D2",
          "ticks": 73408,
          "time": 63.72215849999999,
          "velocity": 0.06299212598425197
        },
        {
          "duration": 0.01041665625000121,
          "durationTicks": 12,
          "midi": 51,
          "name": "D#3",
          "ticks": 73408,
          "time": 63.72215849999999,
          "velocity": 0.4409448818897638
        },
        {
          "duration": 0.01041665625000121,
          "durationTicks": 12,
          "midi": 51,
          "name": "D#3",
          "ticks": 73536,
          "time": 63.8332695,
          "velocity": 0.4409448818897638
        },
        {
          "duration": 0.01041665625000121,
          "durationTicks": 12,
          "midi": 51,
          "name": "D#3",
          "ticks": 73920,
          "time": 64.1666025,
          "velocity": 0.5275590551181102
        },
        {
          "duration": 0.01041665625000121,
          "durationTicks": 12,
          "midi": 37,
          "name": "C#2",
          "ticks": 73920,
          "time": 64.1666025,
          "velocity": 0.44881889763779526
        },
        {
          "duration": 0.01041665625000121,
          "durationTicks": 12,
          "midi": 51,
          "name": "D#3",
          "ticks": 74176,
          "time": 64.3888245,
          "velocity": 0.4409448818897638
        },
        {
          "duration": 0.01041665625000121,
          "durationTicks": 12,
          "midi": 38,
          "name": "D2",
          "ticks": 74176,
          "time": 64.3888245,
          "velocity": 0.06299212598425197
        },
        {
          "duration": 0.01041665625000121,
          "durationTicks": 12,
          "midi": 51,
          "name": "D#3",
          "ticks": 74304,
          "time": 64.49993549999999,
          "velocity": 0.4409448818897638
        },
        {
          "duration": 0.01041665625000121,
          "durationTicks": 12,
          "midi": 51,
          "name": "D#3",
          "ticks": 74688,
          "time": 64.8332685,
          "velocity": 0.49606299212598426
        },
        {
          "duration": 0.01041665625000121,
          "durationTicks": 12,
          "midi": 37,
          "name": "C#2",
          "ticks": 74688,
          "time": 64.8332685,
          "velocity": 0.44881889763779526
        },
        {
          "duration": 0.01041665625000121,
          "durationTicks": 12,
          "midi": 38,
          "name": "D2",
          "ticks": 74944,
          "time": 65.05549049999999,
          "velocity": 0.06299212598425197
        },
        {
          "duration": 0.01041665625000121,
          "durationTicks": 12,
          "midi": 51,
          "name": "D#3",
          "ticks": 74944,
          "time": 65.05549049999999,
          "velocity": 0.4409448818897638
        },
        {
          "duration": 0.01041665625000121,
          "durationTicks": 12,
          "midi": 51,
          "name": "D#3",
          "ticks": 75072,
          "time": 65.1666015,
          "velocity": 0.4409448818897638
        },
        {
          "duration": 0.01041665625000121,
          "durationTicks": 12,
          "midi": 37,
          "name": "C#2",
          "ticks": 75456,
          "time": 65.4999345,
          "velocity": 0.44881889763779526
        },
        {
          "duration": 0.01041665625000121,
          "durationTicks": 12,
          "midi": 51,
          "name": "D#3",
          "ticks": 75456,
          "time": 65.4999345,
          "velocity": 0.5275590551181102
        },
        {
          "duration": 0.01041665625000121,
          "durationTicks": 12,
          "midi": 38,
          "name": "D2",
          "ticks": 75712,
          "time": 65.7221565,
          "velocity": 0.06299212598425197
        },
        {
          "duration": 0.01041665625000121,
          "durationTicks": 12,
          "midi": 51,
          "name": "D#3",
          "ticks": 75712,
          "time": 65.7221565,
          "velocity": 0.4409448818897638
        },
        {
          "duration": 0.010416656249987,
          "durationTicks": 12,
          "midi": 51,
          "name": "D#3",
          "ticks": 75840,
          "time": 65.8332675,
          "velocity": 0.4409448818897638
        },
        {
          "duration": 0.01041665625000121,
          "durationTicks": 12,
          "midi": 51,
          "name": "D#3",
          "ticks": 76224,
          "time": 66.1666005,
          "velocity": 0.49606299212598426
        },
        {
          "duration": 0.01041665625000121,
          "durationTicks": 12,
          "midi": 37,
          "name": "C#2",
          "ticks": 76224,
          "time": 66.1666005,
          "velocity": 0.44881889763779526
        },
        {
          "duration": 0.01041665625000121,
          "durationTicks": 12,
          "midi": 38,
          "name": "D2",
          "ticks": 76480,
          "time": 66.38882249999999,
          "velocity": 0.06299212598425197
        },
        {
          "duration": 0.01041665625000121,
          "durationTicks": 12,
          "midi": 51,
          "name": "D#3",
          "ticks": 76480,
          "time": 66.38882249999999,
          "velocity": 0.4409448818897638
        },
        {
          "duration": 0.01041665625000121,
          "durationTicks": 12,
          "midi": 51,
          "name": "D#3",
          "ticks": 76608,
          "time": 66.4999335,
          "velocity": 0.4409448818897638
        },
        {
          "duration": 0.01041665625000121,
          "durationTicks": 12,
          "midi": 51,
          "name": "D#3",
          "ticks": 76992,
          "time": 66.8332665,
          "velocity": 0.5275590551181102
        },
        {
          "duration": 0.01041665625000121,
          "durationTicks": 12,
          "midi": 37,
          "name": "C#2",
          "ticks": 76992,
          "time": 66.8332665,
          "velocity": 0.44881889763779526
        },
        {
          "duration": 0.01041665625000121,
          "durationTicks": 12,
          "midi": 38,
          "name": "D2",
          "ticks": 77248,
          "time": 67.0554885,
          "velocity": 0.06299212598425197
        },
        {
          "duration": 0.01041665625000121,
          "durationTicks": 12,
          "midi": 51,
          "name": "D#3",
          "ticks": 77248,
          "time": 67.0554885,
          "velocity": 0.4409448818897638
        },
        {
          "duration": 0.01041665625000121,
          "durationTicks": 12,
          "midi": 51,
          "name": "D#3",
          "ticks": 77376,
          "time": 67.1665995,
          "velocity": 0.4409448818897638
        },
        {
          "duration": 0.01041665625000121,
          "durationTicks": 12,
          "midi": 37,
          "name": "C#2",
          "ticks": 77760,
          "time": 67.4999325,
          "velocity": 0.44881889763779526
        },
        {
          "duration": 0.01041665625000121,
          "durationTicks": 12,
          "midi": 51,
          "name": "D#3",
          "ticks": 77760,
          "time": 67.4999325,
          "velocity": 0.49606299212598426
        },
        {
          "duration": 0.01041665625000121,
          "durationTicks": 12,
          "midi": 51,
          "name": "D#3",
          "ticks": 78016,
          "time": 67.72215449999999,
          "velocity": 0.4409448818897638
        },
        {
          "duration": 0.01041665625000121,
          "durationTicks": 12,
          "midi": 38,
          "name": "D2",
          "ticks": 78016,
          "time": 67.72215449999999,
          "velocity": 0.06299212598425197
        },
        {
          "duration": 0.01041665625000121,
          "durationTicks": 12,
          "midi": 51,
          "name": "D#3",
          "ticks": 78144,
          "time": 67.8332655,
          "velocity": 0.4409448818897638
        },
        {
          "duration": 0.01041665625000121,
          "durationTicks": 12,
          "midi": 37,
          "name": "C#2",
          "ticks": 78528,
          "time": 68.16659849999999,
          "velocity": 0.44881889763779526
        },
        {
          "duration": 0.01041665625000121,
          "durationTicks": 12,
          "midi": 51,
          "name": "D#3",
          "ticks": 78528,
          "time": 68.16659849999999,
          "velocity": 0.5275590551181102
        },
        {
          "duration": 0.01041665625000121,
          "durationTicks": 12,
          "midi": 51,
          "name": "D#3",
          "ticks": 78784,
          "time": 68.3888205,
          "velocity": 0.4409448818897638
        },
        {
          "duration": 0.01041665625000121,
          "durationTicks": 12,
          "midi": 38,
          "name": "D2",
          "ticks": 78784,
          "time": 68.3888205,
          "velocity": 0.06299212598425197
        },
        {
          "duration": 0.01041665625000121,
          "durationTicks": 12,
          "midi": 51,
          "name": "D#3",
          "ticks": 78912,
          "time": 68.4999315,
          "velocity": 0.4409448818897638
        },
        {
          "duration": 0.01041665625000121,
          "durationTicks": 12,
          "midi": 37,
          "name": "C#2",
          "ticks": 79296,
          "time": 68.8332645,
          "velocity": 0.44881889763779526
        },
        {
          "duration": 0.01041665625000121,
          "durationTicks": 12,
          "midi": 51,
          "name": "D#3",
          "ticks": 79296,
          "time": 68.8332645,
          "velocity": 0.49606299212598426
        },
        {
          "duration": 0.01041665625000121,
          "durationTicks": 12,
          "midi": 51,
          "name": "D#3",
          "ticks": 79552,
          "time": 69.0554865,
          "velocity": 0.4409448818897638
        },
        {
          "duration": 0.01041665625000121,
          "durationTicks": 12,
          "midi": 38,
          "name": "D2",
          "ticks": 79552,
          "time": 69.0554865,
          "velocity": 0.06299212598425197
        },
        {
          "duration": 0.01041665625000121,
          "durationTicks": 12,
          "midi": 51,
          "name": "D#3",
          "ticks": 79680,
          "time": 69.1665975,
          "velocity": 0.4409448818897638
        },
        {
          "duration": 0.010416656249987,
          "durationTicks": 12,
          "midi": 51,
          "name": "D#3",
          "ticks": 80064,
          "time": 69.4999305,
          "velocity": 0.5275590551181102
        },
        {
          "duration": 0.010416656249987,
          "durationTicks": 12,
          "midi": 37,
          "name": "C#2",
          "ticks": 80064,
          "time": 69.4999305,
          "velocity": 0.44881889763779526
        },
        {
          "duration": 0.01041665625000121,
          "durationTicks": 12,
          "midi": 38,
          "name": "D2",
          "ticks": 80320,
          "time": 69.72215249999999,
          "velocity": 0.06299212598425197
        },
        {
          "duration": 0.01041665625000121,
          "durationTicks": 12,
          "midi": 51,
          "name": "D#3",
          "ticks": 80320,
          "time": 69.72215249999999,
          "velocity": 0.4409448818897638
        },
        {
          "duration": 0.01041665625000121,
          "durationTicks": 12,
          "midi": 51,
          "name": "D#3",
          "ticks": 80448,
          "time": 69.8332635,
          "velocity": 0.4409448818897638
        },
        {
          "duration": 0.01041665625000121,
          "durationTicks": 12,
          "midi": 51,
          "name": "D#3",
          "ticks": 80832,
          "time": 70.1665965,
          "velocity": 0.49606299212598426
        },
        {
          "duration": 0.01041665625000121,
          "durationTicks": 12,
          "midi": 37,
          "name": "C#2",
          "ticks": 80832,
          "time": 70.1665965,
          "velocity": 0.44881889763779526
        },
        {
          "duration": 0.01041665625000121,
          "durationTicks": 12,
          "midi": 38,
          "name": "D2",
          "ticks": 81088,
          "time": 70.3888185,
          "velocity": 0.06299212598425197
        },
        {
          "duration": 0.01041665625000121,
          "durationTicks": 12,
          "midi": 51,
          "name": "D#3",
          "ticks": 81088,
          "time": 70.3888185,
          "velocity": 0.4409448818897638
        },
        {
          "duration": 0.01041665625000121,
          "durationTicks": 12,
          "midi": 51,
          "name": "D#3",
          "ticks": 81216,
          "time": 70.4999295,
          "velocity": 0.4409448818897638
        },
        {
          "duration": 0.01041665625000121,
          "durationTicks": 12,
          "midi": 37,
          "name": "C#2",
          "ticks": 81600,
          "time": 70.8332625,
          "velocity": 0.44881889763779526
        },
        {
          "duration": 0.01041665625000121,
          "durationTicks": 12,
          "midi": 51,
          "name": "D#3",
          "ticks": 81600,
          "time": 70.8332625,
          "velocity": 0.5275590551181102
        },
        {
          "duration": 0.01041665625000121,
          "durationTicks": 12,
          "midi": 51,
          "name": "D#3",
          "ticks": 81856,
          "time": 71.05548449999999,
          "velocity": 0.4409448818897638
        },
        {
          "duration": 0.01041665625000121,
          "durationTicks": 12,
          "midi": 38,
          "name": "D2",
          "ticks": 81856,
          "time": 71.05548449999999,
          "velocity": 0.06299212598425197
        },
        {
          "duration": 0.01041665625000121,
          "durationTicks": 12,
          "midi": 51,
          "name": "D#3",
          "ticks": 81984,
          "time": 71.1665955,
          "velocity": 0.4409448818897638
        },
        {
          "duration": 0.01041665625000121,
          "durationTicks": 12,
          "midi": 37,
          "name": "C#2",
          "ticks": 82368,
          "time": 71.4999285,
          "velocity": 0.44881889763779526
        },
        {
          "duration": 0.01041665625000121,
          "durationTicks": 12,
          "midi": 51,
          "name": "D#3",
          "ticks": 82368,
          "time": 71.4999285,
          "velocity": 0.49606299212598426
        },
        {
          "duration": 0.01041665625000121,
          "durationTicks": 12,
          "midi": 38,
          "name": "D2",
          "ticks": 82624,
          "time": 71.7221505,
          "velocity": 0.06299212598425197
        },
        {
          "duration": 0.01041665625000121,
          "durationTicks": 12,
          "midi": 51,
          "name": "D#3",
          "ticks": 82624,
          "time": 71.7221505,
          "velocity": 0.4409448818897638
        },
        {
          "duration": 0.01041665625000121,
          "durationTicks": 12,
          "midi": 51,
          "name": "D#3",
          "ticks": 82752,
          "time": 71.83326149999999,
          "velocity": 0.4409448818897638
        },
        {
          "duration": 0.01041665625000121,
          "durationTicks": 12,
          "midi": 37,
          "name": "C#2",
          "ticks": 83136,
          "time": 72.1665945,
          "velocity": 0.44881889763779526
        },
        {
          "duration": 0.01041665625000121,
          "durationTicks": 12,
          "midi": 51,
          "name": "D#3",
          "ticks": 83136,
          "time": 72.1665945,
          "velocity": 0.5275590551181102
        },
        {
          "duration": 0.01041665625000121,
          "durationTicks": 12,
          "midi": 51,
          "name": "D#3",
          "ticks": 83392,
          "time": 72.38881649999999,
          "velocity": 0.4409448818897638
        },
        {
          "duration": 0.01041665625000121,
          "durationTicks": 12,
          "midi": 38,
          "name": "D2",
          "ticks": 83392,
          "time": 72.38881649999999,
          "velocity": 0.06299212598425197
        },
        {
          "duration": 0.01041665625000121,
          "durationTicks": 12,
          "midi": 51,
          "name": "D#3",
          "ticks": 83520,
          "time": 72.4999275,
          "velocity": 0.4409448818897638
        },
        {
          "duration": 0.01041665625000121,
          "durationTicks": 12,
          "midi": 37,
          "name": "C#2",
          "ticks": 83904,
          "time": 72.8332605,
          "velocity": 0.44881889763779526
        },
        {
          "duration": 0.01041665625000121,
          "durationTicks": 12,
          "midi": 51,
          "name": "D#3",
          "ticks": 83904,
          "time": 72.8332605,
          "velocity": 0.49606299212598426
        },
        {
          "duration": 0.01041665625000121,
          "durationTicks": 12,
          "midi": 51,
          "name": "D#3",
          "ticks": 84160,
          "time": 73.0554825,
          "velocity": 0.4409448818897638
        },
        {
          "duration": 0.01041665625000121,
          "durationTicks": 12,
          "midi": 38,
          "name": "D2",
          "ticks": 84160,
          "time": 73.0554825,
          "velocity": 0.06299212598425197
        },
        {
          "duration": 0.010416656249987,
          "durationTicks": 12,
          "midi": 51,
          "name": "D#3",
          "ticks": 84288,
          "time": 73.1665935,
          "velocity": 0.4409448818897638
        },
        {
          "duration": 0.01041665625000121,
          "durationTicks": 12,
          "midi": 51,
          "name": "D#3",
          "ticks": 84672,
          "time": 73.4999265,
          "velocity": 0.5275590551181102
        },
        {
          "duration": 0.01041665625000121,
          "durationTicks": 12,
          "midi": 37,
          "name": "C#2",
          "ticks": 84672,
          "time": 73.4999265,
          "velocity": 0.44881889763779526
        },
        {
          "duration": 0.01041665625000121,
          "durationTicks": 12,
          "midi": 51,
          "name": "D#3",
          "ticks": 84928,
          "time": 73.72214849999999,
          "velocity": 0.4409448818897638
        },
        {
          "duration": 0.01041665625000121,
          "durationTicks": 12,
          "midi": 38,
          "name": "D2",
          "ticks": 84928,
          "time": 73.72214849999999,
          "velocity": 0.06299212598425197
        },
        {
          "duration": 0.01041665625000121,
          "durationTicks": 12,
          "midi": 51,
          "name": "D#3",
          "ticks": 85056,
          "time": 73.8332595,
          "velocity": 0.4409448818897638
        },
        {
          "duration": 0.01041665625000121,
          "durationTicks": 12,
          "midi": 51,
          "name": "D#3",
          "ticks": 85440,
          "time": 74.1665925,
          "velocity": 0.49606299212598426
        },
        {
          "duration": 0.01041665625000121,
          "durationTicks": 12,
          "midi": 37,
          "name": "C#2",
          "ticks": 85440,
          "time": 74.1665925,
          "velocity": 0.44881889763779526
        },
        {
          "duration": 0.01041665625000121,
          "durationTicks": 12,
          "midi": 51,
          "name": "D#3",
          "ticks": 85696,
          "time": 74.3888145,
          "velocity": 0.4409448818897638
        },
        {
          "duration": 0.01041665625000121,
          "durationTicks": 12,
          "midi": 38,
          "name": "D2",
          "ticks": 85696,
          "time": 74.3888145,
          "velocity": 0.06299212598425197
        },
        {
          "duration": 0.01041665625000121,
          "durationTicks": 12,
          "midi": 51,
          "name": "D#3",
          "ticks": 85824,
          "time": 74.4999255,
          "velocity": 0.4409448818897638
        },
        {
          "duration": 0.01041665625000121,
          "durationTicks": 12,
          "midi": 37,
          "name": "C#2",
          "ticks": 86208,
          "time": 74.8332585,
          "velocity": 0.44881889763779526
        },
        {
          "duration": 0.01041665625000121,
          "durationTicks": 12,
          "midi": 51,
          "name": "D#3",
          "ticks": 86208,
          "time": 74.8332585,
          "velocity": 0.5275590551181102
        },
        {
          "duration": 0.010416656249987,
          "durationTicks": 12,
          "midi": 38,
          "name": "D2",
          "ticks": 86464,
          "time": 75.0554805,
          "velocity": 0.06299212598425197
        },
        {
          "duration": 0.010416656249987,
          "durationTicks": 12,
          "midi": 51,
          "name": "D#3",
          "ticks": 86464,
          "time": 75.0554805,
          "velocity": 0.4409448818897638
        },
        {
          "duration": 0.01041665625000121,
          "durationTicks": 12,
          "midi": 51,
          "name": "D#3",
          "ticks": 86592,
          "time": 75.1665915,
          "velocity": 0.4409448818897638
        },
        {
          "duration": 0.01041665625000121,
          "durationTicks": 12,
          "midi": 51,
          "name": "D#3",
          "ticks": 86976,
          "time": 75.49992449999999,
          "velocity": 0.49606299212598426
        },
        {
          "duration": 0.01041665625000121,
          "durationTicks": 12,
          "midi": 37,
          "name": "C#2",
          "ticks": 86976,
          "time": 75.49992449999999,
          "velocity": 0.44881889763779526
        },
        {
          "duration": 0.01041665625000121,
          "durationTicks": 12,
          "midi": 51,
          "name": "D#3",
          "ticks": 87232,
          "time": 75.7221465,
          "velocity": 0.4409448818897638
        },
        {
          "duration": 0.01041665625000121,
          "durationTicks": 12,
          "midi": 38,
          "name": "D2",
          "ticks": 87232,
          "time": 75.7221465,
          "velocity": 0.06299212598425197
        },
        {
          "duration": 0.01041665625000121,
          "durationTicks": 12,
          "midi": 51,
          "name": "D#3",
          "ticks": 87360,
          "time": 75.8332575,
          "velocity": 0.4409448818897638
        },
        {
          "duration": 0.01041665625000121,
          "durationTicks": 12,
          "midi": 37,
          "name": "C#2",
          "ticks": 87744,
          "time": 76.1665905,
          "velocity": 0.44881889763779526
        },
        {
          "duration": 0.01041665625000121,
          "durationTicks": 12,
          "midi": 51,
          "name": "D#3",
          "ticks": 87744,
          "time": 76.1665905,
          "velocity": 0.5275590551181102
        },
        {
          "duration": 0.01041665625000121,
          "durationTicks": 12,
          "midi": 38,
          "name": "D2",
          "ticks": 88000,
          "time": 76.3888125,
          "velocity": 0.06299212598425197
        },
        {
          "duration": 0.01041665625000121,
          "durationTicks": 12,
          "midi": 51,
          "name": "D#3",
          "ticks": 88000,
          "time": 76.3888125,
          "velocity": 0.4409448818897638
        },
        {
          "duration": 0.01041665625000121,
          "durationTicks": 12,
          "midi": 51,
          "name": "D#3",
          "ticks": 88128,
          "time": 76.4999235,
          "velocity": 0.4409448818897638
        },
        {
          "duration": 0.010416656249987,
          "durationTicks": 12,
          "midi": 37,
          "name": "C#2",
          "ticks": 88512,
          "time": 76.8332565,
          "velocity": 0.44881889763779526
        },
        {
          "duration": 0.010416656249987,
          "durationTicks": 12,
          "midi": 51,
          "name": "D#3",
          "ticks": 88512,
          "time": 76.8332565,
          "velocity": 0.49606299212598426
        },
        {
          "duration": 0.01041665625000121,
          "durationTicks": 12,
          "midi": 38,
          "name": "D2",
          "ticks": 88768,
          "time": 77.05547849999999,
          "velocity": 0.06299212598425197
        },
        {
          "duration": 0.01041665625000121,
          "durationTicks": 12,
          "midi": 51,
          "name": "D#3",
          "ticks": 88768,
          "time": 77.05547849999999,
          "velocity": 0.4409448818897638
        },
        {
          "duration": 0.01041665625000121,
          "durationTicks": 12,
          "midi": 51,
          "name": "D#3",
          "ticks": 88896,
          "time": 77.1665895,
          "velocity": 0.4409448818897638
        },
        {
          "duration": 0.01041665625000121,
          "durationTicks": 12,
          "midi": 37,
          "name": "C#2",
          "ticks": 89280,
          "time": 77.4999225,
          "velocity": 0.44881889763779526
        },
        {
          "duration": 0.01041665625000121,
          "durationTicks": 12,
          "midi": 51,
          "name": "D#3",
          "ticks": 89280,
          "time": 77.4999225,
          "velocity": 0.5275590551181102
        },
        {
          "duration": 0.01041665625000121,
          "durationTicks": 12,
          "midi": 51,
          "name": "D#3",
          "ticks": 89536,
          "time": 77.7221445,
          "velocity": 0.4409448818897638
        },
        {
          "duration": 0.01041665625000121,
          "durationTicks": 12,
          "midi": 38,
          "name": "D2",
          "ticks": 89536,
          "time": 77.7221445,
          "velocity": 0.6299212598425197
        },
        {
          "duration": 0.01041665625000121,
          "durationTicks": 12,
          "midi": 51,
          "name": "D#3",
          "ticks": 89664,
          "time": 77.83325549999999,
          "velocity": 0.4409448818897638
        },
        {
          "duration": 0.01041665625000121,
          "durationTicks": 12,
          "midi": 37,
          "name": "C#2",
          "ticks": 90048,
          "time": 78.1665885,
          "velocity": 0.44881889763779526
        },
        {
          "duration": 0.01041665625000121,
          "durationTicks": 12,
          "midi": 51,
          "name": "D#3",
          "ticks": 90048,
          "time": 78.1665885,
          "velocity": 0.49606299212598426
        },
        {
          "duration": 0.01041665625000121,
          "durationTicks": 12,
          "midi": 38,
          "name": "D2",
          "ticks": 90304,
          "time": 78.38881049999999,
          "velocity": 0.06299212598425197
        },
        {
          "duration": 0.01041665625000121,
          "durationTicks": 12,
          "midi": 51,
          "name": "D#3",
          "ticks": 90304,
          "time": 78.38881049999999,
          "velocity": 0.4409448818897638
        },
        {
          "duration": 0.01041665625000121,
          "durationTicks": 12,
          "midi": 51,
          "name": "D#3",
          "ticks": 90432,
          "time": 78.4999215,
          "velocity": 0.4409448818897638
        },
        {
          "duration": 0.01041665625000121,
          "durationTicks": 12,
          "midi": 51,
          "name": "D#3",
          "ticks": 90816,
          "time": 78.8332545,
          "velocity": 0.5275590551181102
        },
        {
          "duration": 0.01041665625000121,
          "durationTicks": 12,
          "midi": 37,
          "name": "C#2",
          "ticks": 90816,
          "time": 78.8332545,
          "velocity": 0.44881889763779526
        },
        {
          "duration": 0.01041665625000121,
          "durationTicks": 12,
          "midi": 38,
          "name": "D2",
          "ticks": 91072,
          "time": 79.0554765,
          "velocity": 0.6299212598425197
        },
        {
          "duration": 0.01041665625000121,
          "durationTicks": 12,
          "midi": 51,
          "name": "D#3",
          "ticks": 91072,
          "time": 79.0554765,
          "velocity": 0.4409448818897638
        },
        {
          "duration": 0.01041665625000121,
          "durationTicks": 12,
          "midi": 51,
          "name": "D#3",
          "ticks": 91200,
          "time": 79.16658749999999,
          "velocity": 0.4409448818897638
        },
        {
          "duration": 0.01041665625000121,
          "durationTicks": 12,
          "midi": 37,
          "name": "C#2",
          "ticks": 91584,
          "time": 79.4999205,
          "velocity": 0.44881889763779526
        },
        {
          "duration": 0.01041665625000121,
          "durationTicks": 12,
          "midi": 51,
          "name": "D#3",
          "ticks": 91584,
          "time": 79.4999205,
          "velocity": 0.49606299212598426
        },
        {
          "duration": 0.01041665625000121,
          "durationTicks": 12,
          "midi": 38,
          "name": "D2",
          "ticks": 91840,
          "time": 79.72214249999999,
          "velocity": 0.06299212598425197
        },
        {
          "duration": 0.01041665625000121,
          "durationTicks": 12,
          "midi": 51,
          "name": "D#3",
          "ticks": 91840,
          "time": 79.72214249999999,
          "velocity": 0.4409448818897638
        },
        {
          "duration": 0.01041665625000121,
          "durationTicks": 12,
          "midi": 51,
          "name": "D#3",
          "ticks": 91968,
          "time": 79.8332535,
          "velocity": 0.4409448818897638
        },
        {
          "duration": 0.01041665625000121,
          "durationTicks": 12,
          "midi": 37,
          "name": "C#2",
          "ticks": 92352,
          "time": 80.1665865,
          "velocity": 0.44881889763779526
        },
        {
          "duration": 0.01041665625000121,
          "durationTicks": 12,
          "midi": 51,
          "name": "D#3",
          "ticks": 92352,
          "time": 80.1665865,
          "velocity": 0.5275590551181102
        },
        {
          "duration": 0.01041665625000121,
          "durationTicks": 12,
          "midi": 51,
          "name": "D#3",
          "ticks": 92608,
          "time": 80.3888085,
          "velocity": 0.4409448818897638
        },
        {
          "duration": 0.01041665625000121,
          "durationTicks": 12,
          "midi": 38,
          "name": "D2",
          "ticks": 92608,
          "time": 80.3888085,
          "velocity": 0.06299212598425197
        },
        {
          "duration": 0.010416656249987,
          "durationTicks": 12,
          "midi": 51,
          "name": "D#3",
          "ticks": 92736,
          "time": 80.4999195,
          "velocity": 0.4409448818897638
        },
        {
          "duration": 0.01041665625000121,
          "durationTicks": 12,
          "midi": 38,
          "name": "D2",
          "ticks": 92992,
          "time": 80.72214149999999,
          "velocity": 0.6299212598425197
        },
        {
          "duration": 0.01041665625000121,
          "durationTicks": 12,
          "midi": 51,
          "name": "D#3",
          "ticks": 93120,
          "time": 80.8332525,
          "velocity": 0.49606299212598426
        },
        {
          "duration": 0.01041665625000121,
          "durationTicks": 12,
          "midi": 37,
          "name": "C#2",
          "ticks": 93120,
          "time": 80.8332525,
          "velocity": 0.44881889763779526
        },
        {
          "duration": 0.01041665625000121,
          "durationTicks": 12,
          "midi": 38,
          "name": "D2",
          "ticks": 93376,
          "time": 81.05547449999999,
          "velocity": 0.06299212598425197
        },
        {
          "duration": 0.01041665625000121,
          "durationTicks": 12,
          "midi": 51,
          "name": "D#3",
          "ticks": 93376,
          "time": 81.05547449999999,
          "velocity": 0.4409448818897638
        },
        {
          "duration": 0.01041665625000121,
          "durationTicks": 12,
          "midi": 51,
          "name": "D#3",
          "ticks": 93504,
          "time": 81.1665855,
          "velocity": 0.4409448818897638
        },
        {
          "duration": 0.01041665625000121,
          "durationTicks": 12,
          "midi": 37,
          "name": "C#2",
          "ticks": 93888,
          "time": 81.49991849999999,
          "velocity": 0.44881889763779526
        },
        {
          "duration": 0.01041665625000121,
          "durationTicks": 12,
          "midi": 51,
          "name": "D#3",
          "ticks": 93888,
          "time": 81.49991849999999,
          "velocity": 0.5275590551181102
        },
        {
          "duration": 0.01041665625000121,
          "durationTicks": 12,
          "midi": 51,
          "name": "D#3",
          "ticks": 94144,
          "time": 81.7221405,
          "velocity": 0.4409448818897638
        },
        {
          "duration": 0.01041665625000121,
          "durationTicks": 12,
          "midi": 38,
          "name": "D2",
          "ticks": 94144,
          "time": 81.7221405,
          "velocity": 0.06299212598425197
        },
        {
          "duration": 0.01041665625000121,
          "durationTicks": 12,
          "midi": 51,
          "name": "D#3",
          "ticks": 94272,
          "time": 81.8332515,
          "velocity": 0.4409448818897638
        },
        {
          "duration": 0.01041665625000121,
          "durationTicks": 12,
          "midi": 37,
          "name": "C#2",
          "ticks": 94656,
          "time": 82.1665845,
          "velocity": 0.44881889763779526
        },
        {
          "duration": 0.01041665625000121,
          "durationTicks": 12,
          "midi": 51,
          "name": "D#3",
          "ticks": 94656,
          "time": 82.1665845,
          "velocity": 0.49606299212598426
        },
        {
          "duration": 0.010416656249987,
          "durationTicks": 12,
          "midi": 38,
          "name": "D2",
          "ticks": 94912,
          "time": 82.3888065,
          "velocity": 0.06299212598425197
        },
        {
          "duration": 0.010416656249987,
          "durationTicks": 12,
          "midi": 51,
          "name": "D#3",
          "ticks": 94912,
          "time": 82.3888065,
          "velocity": 0.4409448818897638
        },
        {
          "duration": 0.01041665625000121,
          "durationTicks": 12,
          "midi": 51,
          "name": "D#3",
          "ticks": 95040,
          "time": 82.4999175,
          "velocity": 0.4409448818897638
        },
        {
          "duration": 0.01041665625000121,
          "durationTicks": 12,
          "midi": 37,
          "name": "C#2",
          "ticks": 95424,
          "time": 82.83325049999999,
          "velocity": 0.44881889763779526
        },
        {
          "duration": 0.01041665625000121,
          "durationTicks": 12,
          "midi": 51,
          "name": "D#3",
          "ticks": 95424,
          "time": 82.83325049999999,
          "velocity": 0.5275590551181102
        },
        {
          "duration": 0.01041665625000121,
          "durationTicks": 12,
          "midi": 38,
          "name": "D2",
          "ticks": 95680,
          "time": 83.0554725,
          "velocity": 0.06299212598425197
        },
        {
          "duration": 0.01041665625000121,
          "durationTicks": 12,
          "midi": 51,
          "name": "D#3",
          "ticks": 95680,
          "time": 83.0554725,
          "velocity": 0.4409448818897638
        },
        {
          "duration": 0.01041665625000121,
          "durationTicks": 12,
          "midi": 51,
          "name": "D#3",
          "ticks": 95808,
          "time": 83.1665835,
          "velocity": 0.4409448818897638
        },
        {
          "duration": 0.01041665625000121,
          "durationTicks": 12,
          "midi": 38,
          "name": "D2",
          "ticks": 96064,
          "time": 83.38880549999999,
          "velocity": 0.6299212598425197
        },
        {
          "duration": 0.01041665625000121,
          "durationTicks": 12,
          "midi": 51,
          "name": "D#3",
          "ticks": 96192,
          "time": 83.4999165,
          "velocity": 0.49606299212598426
        },
        {
          "duration": 0.01041665625000121,
          "durationTicks": 12,
          "midi": 37,
          "name": "C#2",
          "ticks": 96192,
          "time": 83.4999165,
          "velocity": 0.44881889763779526
        },
        {
          "duration": 0.01041665625000121,
          "durationTicks": 12,
          "midi": 51,
          "name": "D#3",
          "ticks": 96448,
          "time": 83.7221385,
          "velocity": 0.4409448818897638
        },
        {
          "duration": 0.01041665625000121,
          "durationTicks": 12,
          "midi": 38,
          "name": "D2",
          "ticks": 96448,
          "time": 83.7221385,
          "velocity": 0.06299212598425197
        },
        {
          "duration": 0.01041665625000121,
          "durationTicks": 12,
          "midi": 51,
          "name": "D#3",
          "ticks": 96576,
          "time": 83.8332495,
          "velocity": 0.4409448818897638
        },
        {
          "duration": 0.010416656249987,
          "durationTicks": 12,
          "midi": 37,
          "name": "C#2",
          "ticks": 96960,
          "time": 84.1665825,
          "velocity": 0.44881889763779526
        },
        {
          "duration": 0.010416656249987,
          "durationTicks": 12,
          "midi": 51,
          "name": "D#3",
          "ticks": 96960,
          "time": 84.1665825,
          "velocity": 0.5275590551181102
        },
        {
          "duration": 0.01041665625000121,
          "durationTicks": 12,
          "midi": 38,
          "name": "D2",
          "ticks": 97216,
          "time": 84.38880449999999,
          "velocity": 0.06299212598425197
        },
        {
          "duration": 0.01041665625000121,
          "durationTicks": 12,
          "midi": 51,
          "name": "D#3",
          "ticks": 97216,
          "time": 84.38880449999999,
          "velocity": 0.4409448818897638
        },
        {
          "duration": 0.01041665625000121,
          "durationTicks": 12,
          "midi": 51,
          "name": "D#3",
          "ticks": 97344,
          "time": 84.4999155,
          "velocity": 0.4409448818897638
        },
        {
          "duration": 0.01041665625000121,
          "durationTicks": 12,
          "midi": 37,
          "name": "C#2",
          "ticks": 97728,
          "time": 84.8332485,
          "velocity": 0.44881889763779526
        },
        {
          "duration": 0.01041665625000121,
          "durationTicks": 12,
          "midi": 51,
          "name": "D#3",
          "ticks": 97728,
          "time": 84.8332485,
          "velocity": 0.49606299212598426
        },
        {
          "duration": 0.01041665625000121,
          "durationTicks": 12,
          "midi": 51,
          "name": "D#3",
          "ticks": 97984,
          "time": 85.0554705,
          "velocity": 0.4409448818897638
        },
        {
          "duration": 0.01041665625000121,
          "durationTicks": 12,
          "midi": 38,
          "name": "D2",
          "ticks": 97984,
          "time": 85.0554705,
          "velocity": 0.06299212598425197
        },
        {
          "duration": 0.01041665625000121,
          "durationTicks": 12,
          "midi": 51,
          "name": "D#3",
          "ticks": 98112,
          "time": 85.16658149999999,
          "velocity": 0.4409448818897638
        },
        {
          "duration": 0.01041665625000121,
          "durationTicks": 12,
          "midi": 37,
          "name": "C#2",
          "ticks": 98496,
          "time": 85.4999145,
          "velocity": 0.44881889763779526
        },
        {
          "duration": 0.01041665625000121,
          "durationTicks": 12,
          "midi": 51,
          "name": "D#3",
          "ticks": 98496,
          "time": 85.4999145,
          "velocity": 0.5275590551181102
        },
        {
          "duration": 0.01041665625000121,
          "durationTicks": 12,
          "midi": 51,
          "name": "D#3",
          "ticks": 98752,
          "time": 85.7221365,
          "velocity": 0.4409448818897638
        },
        {
          "duration": 0.01041665625000121,
          "durationTicks": 12,
          "midi": 38,
          "name": "D2",
          "ticks": 98752,
          "time": 85.7221365,
          "velocity": 0.6299212598425197
        },
        {
          "duration": 0.01041665625000121,
          "durationTicks": 12,
          "midi": 51,
          "name": "D#3",
          "ticks": 98880,
          "time": 85.8332475,
          "velocity": 0.4409448818897638
        },
        {
          "duration": 0.01041665625000121,
          "durationTicks": 12,
          "midi": 51,
          "name": "D#3",
          "ticks": 99264,
          "time": 86.1665805,
          "velocity": 0.49606299212598426
        },
        {
          "duration": 0.01041665625000121,
          "durationTicks": 12,
          "midi": 37,
          "name": "C#2",
          "ticks": 99264,
          "time": 86.1665805,
          "velocity": 0.44881889763779526
        },
        {
          "duration": 0.01041665625000121,
          "durationTicks": 12,
          "midi": 38,
          "name": "D2",
          "ticks": 99520,
          "time": 86.3888025,
          "velocity": 0.06299212598425197
        },
        {
          "duration": 0.01041665625000121,
          "durationTicks": 12,
          "midi": 51,
          "name": "D#3",
          "ticks": 99520,
          "time": 86.3888025,
          "velocity": 0.4409448818897638
        },
        {
          "duration": 0.01041665625000121,
          "durationTicks": 12,
          "midi": 51,
          "name": "D#3",
          "ticks": 99648,
          "time": 86.49991349999999,
          "velocity": 0.4409448818897638
        },
        {
          "duration": 0.01041665625000121,
          "durationTicks": 12,
          "midi": 51,
          "name": "D#3",
          "ticks": 100032,
          "time": 86.8332465,
          "velocity": 0.5275590551181102
        },
        {
          "duration": 0.01041665625000121,
          "durationTicks": 12,
          "midi": 37,
          "name": "C#2",
          "ticks": 100032,
          "time": 86.8332465,
          "velocity": 0.44881889763779526
        },
        {
          "duration": 0.01041665625000121,
          "durationTicks": 12,
          "midi": 38,
          "name": "D2",
          "ticks": 100288,
          "time": 87.0554685,
          "velocity": 0.06299212598425197
        },
        {
          "duration": 0.01041665625000121,
          "durationTicks": 12,
          "midi": 51,
          "name": "D#3",
          "ticks": 100288,
          "time": 87.0554685,
          "velocity": 0.4409448818897638
        },
        {
          "duration": 0.01041665625000121,
          "durationTicks": 12,
          "midi": 51,
          "name": "D#3",
          "ticks": 100416,
          "time": 87.1665795,
          "velocity": 0.4409448818897638
        },
        {
          "duration": 0.01041665625000121,
          "durationTicks": 12,
          "midi": 37,
          "name": "C#2",
          "ticks": 100800,
          "time": 87.4999125,
          "velocity": 0.44881889763779526
        },
        {
          "duration": 0.01041665625000121,
          "durationTicks": 12,
          "midi": 51,
          "name": "D#3",
          "ticks": 100800,
          "time": 87.4999125,
          "velocity": 0.49606299212598426
        },
        {
          "duration": 0.010416656249987,
          "durationTicks": 12,
          "midi": 38,
          "name": "D2",
          "ticks": 101056,
          "time": 87.72213450000001,
          "velocity": 0.06299212598425197
        },
        {
          "duration": 0.010416656249987,
          "durationTicks": 12,
          "midi": 51,
          "name": "D#3",
          "ticks": 101056,
          "time": 87.72213450000001,
          "velocity": 0.4409448818897638
        },
        {
          "duration": 0.010416656249987,
          "durationTicks": 12,
          "midi": 49,
          "name": "C#3",
          "ticks": 101184,
          "time": 87.8332455,
          "velocity": 0.5590551181102362
        },
        {
          "duration": 0.01041665625000121,
          "durationTicks": 12,
          "midi": 37,
          "name": "C#2",
          "ticks": 101568,
          "time": 88.1665785,
          "velocity": 0.44881889763779526
        },
        {
          "duration": 0.01041665625000121,
          "durationTicks": 12,
          "midi": 51,
          "name": "D#3",
          "ticks": 101568,
          "time": 88.1665785,
          "velocity": 0.5275590551181102
        },
        {
          "duration": 0.01041665625000121,
          "durationTicks": 12,
          "midi": 38,
          "name": "D2",
          "ticks": 101824,
          "time": 88.3888005,
          "velocity": 0.06299212598425197
        },
        {
          "duration": 0.01041665625000121,
          "durationTicks": 12,
          "midi": 51,
          "name": "D#3",
          "ticks": 101824,
          "time": 88.3888005,
          "velocity": 0.4409448818897638
        },
        {
          "duration": 0.01041665625000121,
          "durationTicks": 12,
          "midi": 51,
          "name": "D#3",
          "ticks": 101952,
          "time": 88.4999115,
          "velocity": 0.4409448818897638
        },
        {
          "duration": 0.01041665625000121,
          "durationTicks": 12,
          "midi": 37,
          "name": "C#2",
          "ticks": 102336,
          "time": 88.83324449999999,
          "velocity": 0.44881889763779526
        },
        {
          "duration": 0.01041665625000121,
          "durationTicks": 12,
          "midi": 51,
          "name": "D#3",
          "ticks": 102336,
          "time": 88.83324449999999,
          "velocity": 0.49606299212598426
        },
        {
          "duration": 0.01041665625000121,
          "durationTicks": 12,
          "midi": 38,
          "name": "D2",
          "ticks": 102592,
          "time": 89.05546650000001,
          "velocity": 0.06299212598425197
        },
        {
          "duration": 0.01041665625000121,
          "durationTicks": 12,
          "midi": 51,
          "name": "D#3",
          "ticks": 102592,
          "time": 89.05546650000001,
          "velocity": 0.4409448818897638
        },
        {
          "duration": 0.01041665625000121,
          "durationTicks": 12,
          "midi": 51,
          "name": "D#3",
          "ticks": 102720,
          "time": 89.1665775,
          "velocity": 0.4409448818897638
        },
        {
          "duration": 0.01041665625000121,
          "durationTicks": 12,
          "midi": 51,
          "name": "D#3",
          "ticks": 103104,
          "time": 89.4999105,
          "velocity": 0.5275590551181102
        },
        {
          "duration": 0.01041665625000121,
          "durationTicks": 12,
          "midi": 37,
          "name": "C#2",
          "ticks": 103104,
          "time": 89.4999105,
          "velocity": 0.44881889763779526
        },
        {
          "duration": 0.01041665625000121,
          "durationTicks": 12,
          "midi": 38,
          "name": "D2",
          "ticks": 103360,
          "time": 89.7221325,
          "velocity": 0.06299212598425197
        },
        {
          "duration": 0.01041665625000121,
          "durationTicks": 12,
          "midi": 51,
          "name": "D#3",
          "ticks": 103360,
          "time": 89.7221325,
          "velocity": 0.4409448818897638
        },
        {
          "duration": 0.01041665625000121,
          "durationTicks": 12,
          "midi": 51,
          "name": "D#3",
          "ticks": 103488,
          "time": 89.8332435,
          "velocity": 0.4409448818897638
        },
        {
          "duration": 0.01041665625000121,
          "durationTicks": 12,
          "midi": 51,
          "name": "D#3",
          "ticks": 103872,
          "time": 90.16657649999999,
          "velocity": 0.49606299212598426
        },
        {
          "duration": 0.01041665625000121,
          "durationTicks": 12,
          "midi": 37,
          "name": "C#2",
          "ticks": 103872,
          "time": 90.16657649999999,
          "velocity": 0.44881889763779526
        },
        {
          "duration": 0.01041665625000121,
          "durationTicks": 12,
          "midi": 38,
          "name": "D2",
          "ticks": 104128,
          "time": 90.38879850000001,
          "velocity": 0.06299212598425197
        },
        {
          "duration": 0.01041665625000121,
          "durationTicks": 12,
          "midi": 51,
          "name": "D#3",
          "ticks": 104128,
          "time": 90.38879850000001,
          "velocity": 0.4409448818897638
        },
        {
          "duration": 0.01041665625000121,
          "durationTicks": 12,
          "midi": 51,
          "name": "D#3",
          "ticks": 104256,
          "time": 90.4999095,
          "velocity": 0.4409448818897638
        },
        {
          "duration": 0.01041665625000121,
          "durationTicks": 12,
          "midi": 38,
          "name": "D2",
          "ticks": 104512,
          "time": 90.7221315,
          "velocity": 0.6299212598425197
        },
        {
          "duration": 0.01041665625000121,
          "durationTicks": 12,
          "midi": 51,
          "name": "D#3",
          "ticks": 104640,
          "time": 90.8332425,
          "velocity": 0.5275590551181102
        },
        {
          "duration": 0.01041665625000121,
          "durationTicks": 12,
          "midi": 37,
          "name": "C#2",
          "ticks": 104640,
          "time": 90.8332425,
          "velocity": 0.44881889763779526
        },
        {
          "duration": 0.01041665625000121,
          "durationTicks": 12,
          "midi": 38,
          "name": "D2",
          "ticks": 104896,
          "time": 91.0554645,
          "velocity": 0.06299212598425197
        },
        {
          "duration": 0.01041665625000121,
          "durationTicks": 12,
          "midi": 51,
          "name": "D#3",
          "ticks": 104896,
          "time": 91.0554645,
          "velocity": 0.4409448818897638
        },
        {
          "duration": 0.01041665625000121,
          "durationTicks": 12,
          "midi": 51,
          "name": "D#3",
          "ticks": 105024,
          "time": 91.1665755,
          "velocity": 0.4409448818897638
        },
        {
          "duration": 0.010416656249987,
          "durationTicks": 12,
          "midi": 37,
          "name": "C#2",
          "ticks": 105408,
          "time": 91.4999085,
          "velocity": 0.44881889763779526
        },
        {
          "duration": 0.010416656249987,
          "durationTicks": 12,
          "midi": 51,
          "name": "D#3",
          "ticks": 105408,
          "time": 91.4999085,
          "velocity": 0.49606299212598426
        },
        {
          "duration": 0.01041665625000121,
          "durationTicks": 12,
          "midi": 38,
          "name": "D2",
          "ticks": 105664,
          "time": 91.7221305,
          "velocity": 0.06299212598425197
        },
        {
          "duration": 0.01041665625000121,
          "durationTicks": 12,
          "midi": 51,
          "name": "D#3",
          "ticks": 105664,
          "time": 91.7221305,
          "velocity": 0.4409448818897638
        },
        {
          "duration": 0.01041665625000121,
          "durationTicks": 12,
          "midi": 51,
          "name": "D#3",
          "ticks": 105792,
          "time": 91.8332415,
          "velocity": 0.4409448818897638
        },
        {
          "duration": 0.01041665625000121,
          "durationTicks": 12,
          "midi": 37,
          "name": "C#2",
          "ticks": 106176,
          "time": 92.1665745,
          "velocity": 0.44881889763779526
        },
        {
          "duration": 0.01041665625000121,
          "durationTicks": 12,
          "midi": 51,
          "name": "D#3",
          "ticks": 106176,
          "time": 92.1665745,
          "velocity": 0.5275590551181102
        },
        {
          "duration": 0.01041665625000121,
          "durationTicks": 12,
          "midi": 51,
          "name": "D#3",
          "ticks": 106432,
          "time": 92.3887965,
          "velocity": 0.4409448818897638
        },
        {
          "duration": 0.01041665625000121,
          "durationTicks": 12,
          "midi": 38,
          "name": "D2",
          "ticks": 106432,
          "time": 92.3887965,
          "velocity": 0.06299212598425197
        },
        {
          "duration": 0.01041665625000121,
          "durationTicks": 12,
          "midi": 51,
          "name": "D#3",
          "ticks": 106560,
          "time": 92.49990749999999,
          "velocity": 0.4409448818897638
        },
        {
          "duration": 0.01041665625000121,
          "durationTicks": 12,
          "midi": 51,
          "name": "D#3",
          "ticks": 106944,
          "time": 92.8332405,
          "velocity": 0.49606299212598426
        },
        {
          "duration": 0.01041665625000121,
          "durationTicks": 12,
          "midi": 37,
          "name": "C#2",
          "ticks": 106944,
          "time": 92.8332405,
          "velocity": 0.44881889763779526
        },
        {
          "duration": 0.01041665625000121,
          "durationTicks": 12,
          "midi": 38,
          "name": "D2",
          "ticks": 107200,
          "time": 93.0554625,
          "velocity": 0.06299212598425197
        },
        {
          "duration": 0.01041665625000121,
          "durationTicks": 12,
          "midi": 51,
          "name": "D#3",
          "ticks": 107200,
          "time": 93.0554625,
          "velocity": 0.4409448818897638
        },
        {
          "duration": 0.01041665625000121,
          "durationTicks": 12,
          "midi": 51,
          "name": "D#3",
          "ticks": 107328,
          "time": 93.1665735,
          "velocity": 0.4409448818897638
        },
        {
          "duration": 0.01041665625000121,
          "durationTicks": 12,
          "midi": 37,
          "name": "C#2",
          "ticks": 107712,
          "time": 93.4999065,
          "velocity": 0.44881889763779526
        },
        {
          "duration": 0.01041665625000121,
          "durationTicks": 12,
          "midi": 51,
          "name": "D#3",
          "ticks": 107712,
          "time": 93.4999065,
          "velocity": 0.5275590551181102
        },
        {
          "duration": 0.01041665625000121,
          "durationTicks": 12,
          "midi": 38,
          "name": "D2",
          "ticks": 107968,
          "time": 93.7221285,
          "velocity": 0.06299212598425197
        },
        {
          "duration": 0.01041665625000121,
          "durationTicks": 12,
          "midi": 51,
          "name": "D#3",
          "ticks": 107968,
          "time": 93.7221285,
          "velocity": 0.4409448818897638
        },
        {
          "duration": 0.01041665625000121,
          "durationTicks": 12,
          "midi": 51,
          "name": "D#3",
          "ticks": 108096,
          "time": 93.83323949999999,
          "velocity": 0.4409448818897638
        },
        {
          "duration": 0.01041665625000121,
          "durationTicks": 12,
          "midi": 51,
          "name": "D#3",
          "ticks": 108480,
          "time": 94.1665725,
          "velocity": 0.49606299212598426
        },
        {
          "duration": 0.01041665625000121,
          "durationTicks": 12,
          "midi": 37,
          "name": "C#2",
          "ticks": 108480,
          "time": 94.1665725,
          "velocity": 0.44881889763779526
        },
        {
          "duration": 0.01041665625000121,
          "durationTicks": 12,
          "midi": 51,
          "name": "D#3",
          "ticks": 108736,
          "time": 94.3887945,
          "velocity": 0.4409448818897638
        },
        {
          "duration": 0.01041665625000121,
          "durationTicks": 12,
          "midi": 38,
          "name": "D2",
          "ticks": 108736,
          "time": 94.3887945,
          "velocity": 0.06299212598425197
        },
        {
          "duration": 0.01041665625000121,
          "durationTicks": 12,
          "midi": 51,
          "name": "D#3",
          "ticks": 108864,
          "time": 94.4999055,
          "velocity": 0.4409448818897638
        },
        {
          "duration": 0.01041665625000121,
          "durationTicks": 12,
          "midi": 37,
          "name": "C#2",
          "ticks": 109248,
          "time": 94.8332385,
          "velocity": 0.44881889763779526
        },
        {
          "duration": 0.01041665625000121,
          "durationTicks": 12,
          "midi": 51,
          "name": "D#3",
          "ticks": 109248,
          "time": 94.8332385,
          "velocity": 0.5275590551181102
        },
        {
          "duration": 0.01041665625000121,
          "durationTicks": 12,
          "midi": 38,
          "name": "D2",
          "ticks": 109504,
          "time": 95.05546050000001,
          "velocity": 0.06299212598425197
        },
        {
          "duration": 0.01041665625000121,
          "durationTicks": 12,
          "midi": 51,
          "name": "D#3",
          "ticks": 109504,
          "time": 95.05546050000001,
          "velocity": 0.4409448818897638
        },
        {
          "duration": 0.010416656249987,
          "durationTicks": 12,
          "midi": 51,
          "name": "D#3",
          "ticks": 109632,
          "time": 95.1665715,
          "velocity": 0.4409448818897638
        },
        {
          "duration": 0.01041665625000121,
          "durationTicks": 12,
          "midi": 51,
          "name": "D#3",
          "ticks": 110016,
          "time": 95.4999045,
          "velocity": 0.49606299212598426
        },
        {
          "duration": 0.01041665625000121,
          "durationTicks": 12,
          "midi": 37,
          "name": "C#2",
          "ticks": 110016,
          "time": 95.4999045,
          "velocity": 0.44881889763779526
        },
        {
          "duration": 0.01041665625000121,
          "durationTicks": 12,
          "midi": 51,
          "name": "D#3",
          "ticks": 110272,
          "time": 95.7221265,
          "velocity": 0.4409448818897638
        },
        {
          "duration": 0.01041665625000121,
          "durationTicks": 12,
          "midi": 38,
          "name": "D2",
          "ticks": 110272,
          "time": 95.7221265,
          "velocity": 0.06299212598425197
        },
        {
          "duration": 0.01041665625000121,
          "durationTicks": 12,
          "midi": 51,
          "name": "D#3",
          "ticks": 110400,
          "time": 95.8332375,
          "velocity": 0.4409448818897638
        },
        {
          "duration": 0.01041665625000121,
          "durationTicks": 12,
          "midi": 37,
          "name": "C#2",
          "ticks": 110784,
          "time": 96.16657049999999,
          "velocity": 0.44881889763779526
        },
        {
          "duration": 0.01041665625000121,
          "durationTicks": 12,
          "midi": 51,
          "name": "D#3",
          "ticks": 110784,
          "time": 96.16657049999999,
          "velocity": 0.5275590551181102
        },
        {
          "duration": 0.01041665625000121,
          "durationTicks": 12,
          "midi": 51,
          "name": "D#3",
          "ticks": 111040,
          "time": 96.38879250000001,
          "velocity": 0.4409448818897638
        },
        {
          "duration": 0.01041665625000121,
          "durationTicks": 12,
          "midi": 38,
          "name": "D2",
          "ticks": 111040,
          "time": 96.38879250000001,
          "velocity": 0.06299212598425197
        },
        {
          "duration": 0.01041665625000121,
          "durationTicks": 12,
          "midi": 51,
          "name": "D#3",
          "ticks": 111168,
          "time": 96.4999035,
          "velocity": 0.4409448818897638
        },
        {
          "duration": 0.01041665625000121,
          "durationTicks": 12,
          "midi": 51,
          "name": "D#3",
          "ticks": 111552,
          "time": 96.8332365,
          "velocity": 0.49606299212598426
        },
        {
          "duration": 0.01041665625000121,
          "durationTicks": 12,
          "midi": 37,
          "name": "C#2",
          "ticks": 111552,
          "time": 96.8332365,
          "velocity": 0.44881889763779526
        },
        {
          "duration": 0.01041665625000121,
          "durationTicks": 12,
          "midi": 51,
          "name": "D#3",
          "ticks": 111808,
          "time": 97.0554585,
          "velocity": 0.4409448818897638
        },
        {
          "duration": 0.01041665625000121,
          "durationTicks": 12,
          "midi": 38,
          "name": "D2",
          "ticks": 111808,
          "time": 97.0554585,
          "velocity": 0.06299212598425197
        },
        {
          "duration": 0.01041665625000121,
          "durationTicks": 12,
          "midi": 51,
          "name": "D#3",
          "ticks": 111936,
          "time": 97.1665695,
          "velocity": 0.4409448818897638
        },
        {
          "duration": 0.01041665625000121,
          "durationTicks": 12,
          "midi": 51,
          "name": "D#3",
          "ticks": 112320,
          "time": 97.49990249999999,
          "velocity": 0.5275590551181102
        },
        {
          "duration": 0.01041665625000121,
          "durationTicks": 12,
          "midi": 37,
          "name": "C#2",
          "ticks": 112320,
          "time": 97.49990249999999,
          "velocity": 0.44881889763779526
        },
        {
          "duration": 0.01041665625000121,
          "durationTicks": 12,
          "midi": 51,
          "name": "D#3",
          "ticks": 112576,
          "time": 97.7221245,
          "velocity": 0.4409448818897638
        },
        {
          "duration": 0.01041665625000121,
          "durationTicks": 12,
          "midi": 38,
          "name": "D2",
          "ticks": 112576,
          "time": 97.7221245,
          "velocity": 0.6299212598425197
        },
        {
          "duration": 0.01041665625000121,
          "durationTicks": 12,
          "midi": 51,
          "name": "D#3",
          "ticks": 112704,
          "time": 97.8332355,
          "velocity": 0.4409448818897638
        },
        {
          "duration": 0.01041665625000121,
          "durationTicks": 12,
          "midi": 51,
          "name": "D#3",
          "ticks": 113088,
          "time": 98.1665685,
          "velocity": 0.49606299212598426
        },
        {
          "duration": 0.01041665625000121,
          "durationTicks": 12,
          "midi": 37,
          "name": "C#2",
          "ticks": 113088,
          "time": 98.1665685,
          "velocity": 0.44881889763779526
        },
        {
          "duration": 0.01041665625000121,
          "durationTicks": 12,
          "midi": 51,
          "name": "D#3",
          "ticks": 113344,
          "time": 98.3887905,
          "velocity": 0.4409448818897638
        },
        {
          "duration": 0.01041665625000121,
          "durationTicks": 12,
          "midi": 38,
          "name": "D2",
          "ticks": 113344,
          "time": 98.3887905,
          "velocity": 0.06299212598425197
        },
        {
          "duration": 0.01041665625000121,
          "durationTicks": 12,
          "midi": 51,
          "name": "D#3",
          "ticks": 113472,
          "time": 98.49990149999999,
          "velocity": 0.4409448818897638
        },
        {
          "duration": 0.010416656249987,
          "durationTicks": 12,
          "midi": 51,
          "name": "D#3",
          "ticks": 113856,
          "time": 98.8332345,
          "velocity": 0.5275590551181102
        },
        {
          "duration": 0.010416656249987,
          "durationTicks": 12,
          "midi": 37,
          "name": "C#2",
          "ticks": 113856,
          "time": 98.8332345,
          "velocity": 0.44881889763779526
        },
        {
          "duration": 0.01041665625000121,
          "durationTicks": 12,
          "midi": 51,
          "name": "D#3",
          "ticks": 114112,
          "time": 99.0554565,
          "velocity": 0.4409448818897638
        },
        {
          "duration": 0.01041665625000121,
          "durationTicks": 12,
          "midi": 38,
          "name": "D2",
          "ticks": 114112,
          "time": 99.0554565,
          "velocity": 0.06299212598425197
        },
        {
          "duration": 0.01041665625000121,
          "durationTicks": 12,
          "midi": 51,
          "name": "D#3",
          "ticks": 114240,
          "time": 99.1665675,
          "velocity": 0.4409448818897638
        },
        {
          "duration": 0.01041665625000121,
          "durationTicks": 12,
          "midi": 37,
          "name": "C#2",
          "ticks": 114624,
          "time": 99.4999005,
          "velocity": 0.44881889763779526
        },
        {
          "duration": 0.01041665625000121,
          "durationTicks": 12,
          "midi": 51,
          "name": "D#3",
          "ticks": 114624,
          "time": 99.4999005,
          "velocity": 0.49606299212598426
        },
        {
          "duration": 0.01041665625000121,
          "durationTicks": 12,
          "midi": 51,
          "name": "D#3",
          "ticks": 114880,
          "time": 99.7221225,
          "velocity": 0.4409448818897638
        },
        {
          "duration": 0.01041665625000121,
          "durationTicks": 12,
          "midi": 38,
          "name": "D2",
          "ticks": 114880,
          "time": 99.7221225,
          "velocity": 0.06299212598425197
        },
        {
          "duration": 0.01041665625000121,
          "durationTicks": 12,
          "midi": 51,
          "name": "D#3",
          "ticks": 115008,
          "time": 99.83323349999999,
          "velocity": 0.4409448818897638
        },
        {
          "duration": 0.01041665625000121,
          "durationTicks": 12,
          "midi": 51,
          "name": "D#3",
          "ticks": 115392,
          "time": 100.1665665,
          "velocity": 0.5275590551181102
        },
        {
          "duration": 0.01041665625000121,
          "durationTicks": 12,
          "midi": 37,
          "name": "C#2",
          "ticks": 115392,
          "time": 100.1665665,
          "velocity": 0.44881889763779526
        },
        {
          "duration": 0.01041665625000121,
          "durationTicks": 12,
          "midi": 38,
          "name": "D2",
          "ticks": 115648,
          "time": 100.3887885,
          "velocity": 0.06299212598425197
        },
        {
          "duration": 0.01041665625000121,
          "durationTicks": 12,
          "midi": 51,
          "name": "D#3",
          "ticks": 115648,
          "time": 100.3887885,
          "velocity": 0.4409448818897638
        },
        {
          "duration": 0.01041665625000121,
          "durationTicks": 12,
          "midi": 51,
          "name": "D#3",
          "ticks": 115776,
          "time": 100.4998995,
          "velocity": 0.4409448818897638
        },
        {
          "duration": 0.01041665625000121,
          "durationTicks": 12,
          "midi": 51,
          "name": "D#3",
          "ticks": 116160,
          "time": 100.8332325,
          "velocity": 0.49606299212598426
        },
        {
          "duration": 0.01041665625000121,
          "durationTicks": 12,
          "midi": 37,
          "name": "C#2",
          "ticks": 116160,
          "time": 100.8332325,
          "velocity": 0.44881889763779526
        },
        {
          "duration": 0.010416656249987,
          "durationTicks": 12,
          "midi": 51,
          "name": "D#3",
          "ticks": 116416,
          "time": 101.05545450000001,
          "velocity": 0.4409448818897638
        },
        {
          "duration": 0.010416656249987,
          "durationTicks": 12,
          "midi": 38,
          "name": "D2",
          "ticks": 116416,
          "time": 101.05545450000001,
          "velocity": 0.06299212598425197
        },
        {
          "duration": 0.01041665625000121,
          "durationTicks": 12,
          "midi": 51,
          "name": "D#3",
          "ticks": 116544,
          "time": 101.16656549999999,
          "velocity": 0.4409448818897638
        },
        {
          "duration": 0.01041665625000121,
          "durationTicks": 12,
          "midi": 51,
          "name": "D#3",
          "ticks": 116928,
          "time": 101.4998985,
          "velocity": 0.5275590551181102
        },
        {
          "duration": 0.01041665625000121,
          "durationTicks": 12,
          "midi": 37,
          "name": "C#2",
          "ticks": 116928,
          "time": 101.4998985,
          "velocity": 0.44881889763779526
        },
        {
          "duration": 0.01041665625000121,
          "durationTicks": 12,
          "midi": 51,
          "name": "D#3",
          "ticks": 117184,
          "time": 101.7221205,
          "velocity": 0.4409448818897638
        },
        {
          "duration": 0.01041665625000121,
          "durationTicks": 12,
          "midi": 38,
          "name": "D2",
          "ticks": 117184,
          "time": 101.7221205,
          "velocity": 0.6299212598425197
        },
        {
          "duration": 0.01041665625000121,
          "durationTicks": 12,
          "midi": 51,
          "name": "D#3",
          "ticks": 117312,
          "time": 101.8332315,
          "velocity": 0.4409448818897638
        },
        {
          "duration": 0.01041665625000121,
          "durationTicks": 12,
          "midi": 37,
          "name": "C#2",
          "ticks": 117696,
          "time": 102.16656449999999,
          "velocity": 0.44881889763779526
        },
        {
          "duration": 0.01041665625000121,
          "durationTicks": 12,
          "midi": 51,
          "name": "D#3",
          "ticks": 117696,
          "time": 102.16656449999999,
          "velocity": 0.49606299212598426
        },
        {
          "duration": 0.01041665625000121,
          "durationTicks": 12,
          "midi": 38,
          "name": "D2",
          "ticks": 117952,
          "time": 102.38878650000001,
          "velocity": 0.06299212598425197
        },
        {
          "duration": 0.01041665625000121,
          "durationTicks": 12,
          "midi": 51,
          "name": "D#3",
          "ticks": 117952,
          "time": 102.38878650000001,
          "velocity": 0.4409448818897638
        },
        {
          "duration": 0.010416656249987,
          "durationTicks": 12,
          "midi": 40,
          "name": "E2",
          "ticks": 118080,
          "time": 102.4998975,
          "velocity": 0.5590551181102362
        },
        {
          "duration": 0.010416656249987,
          "durationTicks": 12,
          "midi": 35,
          "name": "B1",
          "ticks": 118080,
          "time": 102.4998975,
          "velocity": 0.5590551181102362
        },
        {
          "duration": 0.010416656249987,
          "durationTicks": 12,
          "midi": 51,
          "name": "D#3",
          "ticks": 118080,
          "time": 102.4998975,
          "velocity": 0.4409448818897638
        },
        {
          "duration": 0.01041665625000121,
          "durationTicks": 12,
          "midi": 51,
          "name": "D#3",
          "ticks": 119104,
          "time": 103.3887855,
          "velocity": 0.4409448818897638
        },
        {
          "duration": 0.01041665625000121,
          "durationTicks": 12,
          "midi": 40,
          "name": "E2",
          "ticks": 119104,
          "time": 103.3887855,
          "velocity": 0.5590551181102362
        },
        {
          "duration": 0.01041665625000121,
          "durationTicks": 12,
          "midi": 35,
          "name": "B1",
          "ticks": 119104,
          "time": 103.3887855,
          "velocity": 0.5590551181102362
        },
        {
          "duration": 0.01041665625000121,
          "durationTicks": 12,
          "midi": 51,
          "name": "D#3",
          "ticks": 119616,
          "time": 103.8332295,
          "velocity": 0.4409448818897638
        },
        {
          "duration": 0.01041665625000121,
          "durationTicks": 12,
          "midi": 51,
          "name": "D#3",
          "ticks": 120000,
          "time": 104.1665625,
          "velocity": 0.5275590551181102
        },
        {
          "duration": 0.01041665625000121,
          "durationTicks": 12,
          "midi": 37,
          "name": "C#2",
          "ticks": 120000,
          "time": 104.1665625,
          "velocity": 0.44881889763779526
        },
        {
          "duration": 0.01041665625000121,
          "durationTicks": 12,
          "midi": 51,
          "name": "D#3",
          "ticks": 120256,
          "time": 104.3887845,
          "velocity": 0.4409448818897638
        },
        {
          "duration": 0.01041665625000121,
          "durationTicks": 12,
          "midi": 38,
          "name": "D2",
          "ticks": 120256,
          "time": 104.3887845,
          "velocity": 0.06299212598425197
        },
        {
          "duration": 0.01041665625000121,
          "durationTicks": 12,
          "midi": 51,
          "name": "D#3",
          "ticks": 120384,
          "time": 104.4998955,
          "velocity": 0.4409448818897638
        },
        {
          "duration": 0.01041665625000121,
          "durationTicks": 12,
          "midi": 51,
          "name": "D#3",
          "ticks": 120768,
          "time": 104.83322849999999,
          "velocity": 0.49606299212598426
        },
        {
          "duration": 0.01041665625000121,
          "durationTicks": 12,
          "midi": 37,
          "name": "C#2",
          "ticks": 120768,
          "time": 104.83322849999999,
          "velocity": 0.44881889763779526
        },
        {
          "duration": 0.01041665625000121,
          "durationTicks": 12,
          "midi": 51,
          "name": "D#3",
          "ticks": 121024,
          "time": 105.0554505,
          "velocity": 0.4409448818897638
        },
        {
          "duration": 0.01041665625000121,
          "durationTicks": 12,
          "midi": 38,
          "name": "D2",
          "ticks": 121024,
          "time": 105.0554505,
          "velocity": 0.06299212598425197
        },
        {
          "duration": 0.01041665625000121,
          "durationTicks": 12,
          "midi": 51,
          "name": "D#3",
          "ticks": 121152,
          "time": 105.1665615,
          "velocity": 0.4409448818897638
        },
        {
          "duration": 0.01041665625000121,
          "durationTicks": 12,
          "midi": 51,
          "name": "D#3",
          "ticks": 121536,
          "time": 105.4998945,
          "velocity": 0.5275590551181102
        },
        {
          "duration": 0.01041665625000121,
          "durationTicks": 12,
          "midi": 37,
          "name": "C#2",
          "ticks": 121536,
          "time": 105.4998945,
          "velocity": 0.44881889763779526
        },
        {
          "duration": 0.01041665625000121,
          "durationTicks": 12,
          "midi": 38,
          "name": "D2",
          "ticks": 121792,
          "time": 105.7221165,
          "velocity": 0.06299212598425197
        },
        {
          "duration": 0.01041665625000121,
          "durationTicks": 12,
          "midi": 51,
          "name": "D#3",
          "ticks": 121792,
          "time": 105.7221165,
          "velocity": 0.4409448818897638
        },
        {
          "duration": 0.01041665625000121,
          "durationTicks": 12,
          "midi": 51,
          "name": "D#3",
          "ticks": 121920,
          "time": 105.83322749999999,
          "velocity": 0.4409448818897638
        },
        {
          "duration": 0.01041665625000121,
          "durationTicks": 12,
          "midi": 51,
          "name": "D#3",
          "ticks": 122304,
          "time": 106.1665605,
          "velocity": 0.49606299212598426
        },
        {
          "duration": 0.01041665625000121,
          "durationTicks": 12,
          "midi": 37,
          "name": "C#2",
          "ticks": 122304,
          "time": 106.1665605,
          "velocity": 0.44881889763779526
        },
        {
          "duration": 0.01041665625000121,
          "durationTicks": 12,
          "midi": 38,
          "name": "D2",
          "ticks": 122560,
          "time": 106.3887825,
          "velocity": 0.06299212598425197
        },
        {
          "duration": 0.01041665625000121,
          "durationTicks": 12,
          "midi": 51,
          "name": "D#3",
          "ticks": 122560,
          "time": 106.3887825,
          "velocity": 0.4409448818897638
        },
        {
          "duration": 0.01041665625000121,
          "durationTicks": 12,
          "midi": 51,
          "name": "D#3",
          "ticks": 122688,
          "time": 106.4998935,
          "velocity": 0.4409448818897638
        },
        {
          "duration": 0.01041665625000121,
          "durationTicks": 12,
          "midi": 51,
          "name": "D#3",
          "ticks": 123072,
          "time": 106.8332265,
          "velocity": 0.5275590551181102
        },
        {
          "duration": 0.01041665625000121,
          "durationTicks": 12,
          "midi": 37,
          "name": "C#2",
          "ticks": 123072,
          "time": 106.8332265,
          "velocity": 0.44881889763779526
        },
        {
          "duration": 0.01041665625000121,
          "durationTicks": 12,
          "midi": 51,
          "name": "D#3",
          "ticks": 123328,
          "time": 107.0554485,
          "velocity": 0.4409448818897638
        },
        {
          "duration": 0.01041665625000121,
          "durationTicks": 12,
          "midi": 38,
          "name": "D2",
          "ticks": 123328,
          "time": 107.0554485,
          "velocity": 0.06299212598425197
        },
        {
          "duration": 0.01041665625000121,
          "durationTicks": 12,
          "midi": 51,
          "name": "D#3",
          "ticks": 123456,
          "time": 107.16655949999999,
          "velocity": 0.4409448818897638
        },
        {
          "duration": 0.01041665625000121,
          "durationTicks": 12,
          "midi": 51,
          "name": "D#3",
          "ticks": 123840,
          "time": 107.4998925,
          "velocity": 0.49606299212598426
        },
        {
          "duration": 0.01041665625000121,
          "durationTicks": 12,
          "midi": 37,
          "name": "C#2",
          "ticks": 123840,
          "time": 107.4998925,
          "velocity": 0.44881889763779526
        },
        {
          "duration": 0.01041665625000121,
          "durationTicks": 12,
          "midi": 51,
          "name": "D#3",
          "ticks": 124096,
          "time": 107.7221145,
          "velocity": 0.4409448818897638
        },
        {
          "duration": 0.01041665625000121,
          "durationTicks": 12,
          "midi": 38,
          "name": "D2",
          "ticks": 124096,
          "time": 107.7221145,
          "velocity": 0.06299212598425197
        },
        {
          "duration": 0.01041665625000121,
          "durationTicks": 12,
          "midi": 51,
          "name": "D#3",
          "ticks": 124224,
          "time": 107.8332255,
          "velocity": 0.4409448818897638
        },
        {
          "duration": 0.01041665625000121,
          "durationTicks": 12,
          "midi": 51,
          "name": "D#3",
          "ticks": 124608,
          "time": 108.1665585,
          "velocity": 0.5275590551181102
        },
        {
          "duration": 0.01041665625000121,
          "durationTicks": 12,
          "midi": 37,
          "name": "C#2",
          "ticks": 124608,
          "time": 108.1665585,
          "velocity": 0.44881889763779526
        },
        {
          "duration": 0.010416656249987,
          "durationTicks": 12,
          "midi": 51,
          "name": "D#3",
          "ticks": 124864,
          "time": 108.38878050000001,
          "velocity": 0.4409448818897638
        },
        {
          "duration": 0.010416656249987,
          "durationTicks": 12,
          "midi": 38,
          "name": "D2",
          "ticks": 124864,
          "time": 108.38878050000001,
          "velocity": 0.06299212598425197
        },
        {
          "duration": 0.010416656249987,
          "durationTicks": 12,
          "midi": 51,
          "name": "D#3",
          "ticks": 124992,
          "time": 108.4998915,
          "velocity": 0.4409448818897638
        },
        {
          "duration": 0.01041665625000121,
          "durationTicks": 12,
          "midi": 37,
          "name": "C#2",
          "ticks": 125376,
          "time": 108.8332245,
          "velocity": 0.44881889763779526
        },
        {
          "duration": 0.01041665625000121,
          "durationTicks": 12,
          "midi": 51,
          "name": "D#3",
          "ticks": 125376,
          "time": 108.8332245,
          "velocity": 0.49606299212598426
        },
        {
          "duration": 0.01041665625000121,
          "durationTicks": 12,
          "midi": 51,
          "name": "D#3",
          "ticks": 125632,
          "time": 109.0554465,
          "velocity": 0.4409448818897638
        },
        {
          "duration": 0.01041665625000121,
          "durationTicks": 12,
          "midi": 38,
          "name": "D2",
          "ticks": 125632,
          "time": 109.0554465,
          "velocity": 0.06299212598425197
        },
        {
          "duration": 0.01041665625000121,
          "durationTicks": 12,
          "midi": 49,
          "name": "C#3",
          "ticks": 125760,
          "time": 109.1665575,
          "velocity": 0.5590551181102362
        },
        {
          "duration": 0.01041665625000121,
          "durationTicks": 12,
          "midi": 51,
          "name": "D#3",
          "ticks": 126144,
          "time": 109.49989049999999,
          "velocity": 0.5275590551181102
        },
        {
          "duration": 0.01041665625000121,
          "durationTicks": 12,
          "midi": 37,
          "name": "C#2",
          "ticks": 126144,
          "time": 109.49989049999999,
          "velocity": 0.44881889763779526
        },
        {
          "duration": 0.01041665625000121,
          "durationTicks": 12,
          "midi": 38,
          "name": "D2",
          "ticks": 126400,
          "time": 109.72211250000001,
          "velocity": 0.06299212598425197
        },
        {
          "duration": 0.01041665625000121,
          "durationTicks": 12,
          "midi": 51,
          "name": "D#3",
          "ticks": 126400,
          "time": 109.72211250000001,
          "velocity": 0.4409448818897638
        },
        {
          "duration": 0.01041665625000121,
          "durationTicks": 12,
          "midi": 51,
          "name": "D#3",
          "ticks": 126528,
          "time": 109.8332235,
          "velocity": 0.4409448818897638
        },
        {
          "duration": 0.01041665625000121,
          "durationTicks": 12,
          "midi": 38,
          "name": "D2",
          "ticks": 126784,
          "time": 110.0554455,
          "velocity": 0.6299212598425197
        },
        {
          "duration": 0.01041665625000121,
          "durationTicks": 12,
          "midi": 37,
          "name": "C#2",
          "ticks": 126912,
          "time": 110.1665565,
          "velocity": 0.44881889763779526
        },
        {
          "duration": 0.01041665625000121,
          "durationTicks": 12,
          "midi": 51,
          "name": "D#3",
          "ticks": 126912,
          "time": 110.1665565,
          "velocity": 0.49606299212598426
        },
        {
          "duration": 0.01041665625000121,
          "durationTicks": 12,
          "midi": 51,
          "name": "D#3",
          "ticks": 127168,
          "time": 110.3887785,
          "velocity": 0.4409448818897638
        },
        {
          "duration": 0.01041665625000121,
          "durationTicks": 12,
          "midi": 38,
          "name": "D2",
          "ticks": 127168,
          "time": 110.3887785,
          "velocity": 0.06299212598425197
        },
        {
          "duration": 0.01041665625000121,
          "durationTicks": 12,
          "midi": 51,
          "name": "D#3",
          "ticks": 127296,
          "time": 110.4998895,
          "velocity": 0.4409448818897638
        },
        {
          "duration": 0.01041665625000121,
          "durationTicks": 12,
          "midi": 51,
          "name": "D#3",
          "ticks": 127680,
          "time": 110.83322249999999,
          "velocity": 0.5275590551181102
        },
        {
          "duration": 0.01041665625000121,
          "durationTicks": 12,
          "midi": 37,
          "name": "C#2",
          "ticks": 127680,
          "time": 110.83322249999999,
          "velocity": 0.44881889763779526
        },
        {
          "duration": 0.01041665625000121,
          "durationTicks": 12,
          "midi": 38,
          "name": "D2",
          "ticks": 127936,
          "time": 111.05544450000001,
          "velocity": 0.6299212598425197
        },
        {
          "duration": 0.01041665625000121,
          "durationTicks": 12,
          "midi": 51,
          "name": "D#3",
          "ticks": 127936,
          "time": 111.05544450000001,
          "velocity": 0.4409448818897638
        },
        {
          "duration": 0.01041665625000121,
          "durationTicks": 12,
          "midi": 51,
          "name": "D#3",
          "ticks": 128064,
          "time": 111.1665555,
          "velocity": 0.4409448818897638
        },
        {
          "duration": 0.01041665625000121,
          "durationTicks": 12,
          "midi": 37,
          "name": "C#2",
          "ticks": 128448,
          "time": 111.4998885,
          "velocity": 0.44881889763779526
        },
        {
          "duration": 0.01041665625000121,
          "durationTicks": 12,
          "midi": 51,
          "name": "D#3",
          "ticks": 128448,
          "time": 111.4998885,
          "velocity": 0.49606299212598426
        },
        {
          "duration": 0.01041665625000121,
          "durationTicks": 12,
          "midi": 51,
          "name": "D#3",
          "ticks": 128704,
          "time": 111.7221105,
          "velocity": 0.4409448818897638
        },
        {
          "duration": 0.01041665625000121,
          "durationTicks": 12,
          "midi": 38,
          "name": "D2",
          "ticks": 128704,
          "time": 111.7221105,
          "velocity": 0.06299212598425197
        },
        {
          "duration": 0.01041665625000121,
          "durationTicks": 12,
          "midi": 51,
          "name": "D#3",
          "ticks": 128832,
          "time": 111.8332215,
          "velocity": 0.4409448818897638
        },
        {
          "duration": 0.010416656249987,
          "durationTicks": 12,
          "midi": 37,
          "name": "C#2",
          "ticks": 129216,
          "time": 112.1665545,
          "velocity": 0.44881889763779526
        },
        {
          "duration": 0.010416656249987,
          "durationTicks": 12,
          "midi": 51,
          "name": "D#3",
          "ticks": 129216,
          "time": 112.1665545,
          "velocity": 0.5275590551181102
        },
        {
          "duration": 0.01041665625000121,
          "durationTicks": 12,
          "midi": 51,
          "name": "D#3",
          "ticks": 129472,
          "time": 112.3887765,
          "velocity": 0.4409448818897638
        },
        {
          "duration": 0.01041665625000121,
          "durationTicks": 12,
          "midi": 38,
          "name": "D2",
          "ticks": 129472,
          "time": 112.3887765,
          "velocity": 0.06299212598425197
        },
        {
          "duration": 0.01041665625000121,
          "durationTicks": 12,
          "midi": 51,
          "name": "D#3",
          "ticks": 129600,
          "time": 112.4998875,
          "velocity": 0.4409448818897638
        },
        {
          "duration": 0.01041665625000121,
          "durationTicks": 12,
          "midi": 51,
          "name": "D#3",
          "ticks": 129984,
          "time": 112.8332205,
          "velocity": 0.49606299212598426
        },
        {
          "duration": 0.01041665625000121,
          "durationTicks": 12,
          "midi": 37,
          "name": "C#2",
          "ticks": 129984,
          "time": 112.8332205,
          "velocity": 0.44881889763779526
        },
        {
          "duration": 0.01041665625000121,
          "durationTicks": 12,
          "midi": 51,
          "name": "D#3",
          "ticks": 130240,
          "time": 113.0554425,
          "velocity": 0.4409448818897638
        },
        {
          "duration": 0.01041665625000121,
          "durationTicks": 12,
          "midi": 38,
          "name": "D2",
          "ticks": 130240,
          "time": 113.0554425,
          "velocity": 0.06299212598425197
        },
        {
          "duration": 0.01041665625000121,
          "durationTicks": 12,
          "midi": 51,
          "name": "D#3",
          "ticks": 130368,
          "time": 113.16655349999999,
          "velocity": 0.4409448818897638
        },
        {
          "duration": 0.01041665625000121,
          "durationTicks": 12,
          "midi": 37,
          "name": "C#2",
          "ticks": 130752,
          "time": 113.4998865,
          "velocity": 0.44881889763779526
        },
        {
          "duration": 0.01041665625000121,
          "durationTicks": 12,
          "midi": 51,
          "name": "D#3",
          "ticks": 130752,
          "time": 113.4998865,
          "velocity": 0.5275590551181102
        },
        {
          "duration": 0.01041665625000121,
          "durationTicks": 12,
          "midi": 51,
          "name": "D#3",
          "ticks": 131008,
          "time": 113.7221085,
          "velocity": 0.4409448818897638
        },
        {
          "duration": 0.01041665625000121,
          "durationTicks": 12,
          "midi": 38,
          "name": "D2",
          "ticks": 131008,
          "time": 113.7221085,
          "velocity": 0.06299212598425197
        },
        {
          "duration": 0.01041665625000121,
          "durationTicks": 12,
          "midi": 51,
          "name": "D#3",
          "ticks": 131136,
          "time": 113.8332195,
          "velocity": 0.4409448818897638
        },
        {
          "duration": 0.01041665625000121,
          "durationTicks": 12,
          "midi": 51,
          "name": "D#3",
          "ticks": 131520,
          "time": 114.1665525,
          "velocity": 0.49606299212598426
        },
        {
          "duration": 0.01041665625000121,
          "durationTicks": 12,
          "midi": 37,
          "name": "C#2",
          "ticks": 131520,
          "time": 114.1665525,
          "velocity": 0.44881889763779526
        },
        {
          "duration": 0.01041665625000121,
          "durationTicks": 12,
          "midi": 38,
          "name": "D2",
          "ticks": 131776,
          "time": 114.3887745,
          "velocity": 0.06299212598425197
        },
        {
          "duration": 0.01041665625000121,
          "durationTicks": 12,
          "midi": 51,
          "name": "D#3",
          "ticks": 131776,
          "time": 114.3887745,
          "velocity": 0.4409448818897638
        },
        {
          "duration": 0.01041665625000121,
          "durationTicks": 12,
          "midi": 51,
          "name": "D#3",
          "ticks": 131904,
          "time": 114.49988549999999,
          "velocity": 0.4409448818897638
        },
        {
          "duration": 0.01041665625000121,
          "durationTicks": 12,
          "midi": 37,
          "name": "C#2",
          "ticks": 132288,
          "time": 114.8332185,
          "velocity": 0.44881889763779526
        },
        {
          "duration": 0.01041665625000121,
          "durationTicks": 12,
          "midi": 51,
          "name": "D#3",
          "ticks": 132288,
          "time": 114.8332185,
          "velocity": 0.5275590551181102
        },
        {
          "duration": 0.01041665625000121,
          "durationTicks": 12,
          "midi": 38,
          "name": "D2",
          "ticks": 132544,
          "time": 115.0554405,
          "velocity": 0.06299212598425197
        },
        {
          "duration": 0.01041665625000121,
          "durationTicks": 12,
          "midi": 51,
          "name": "D#3",
          "ticks": 132544,
          "time": 115.0554405,
          "velocity": 0.4409448818897638
        },
        {
          "duration": 0.01041665625000121,
          "durationTicks": 12,
          "midi": 51,
          "name": "D#3",
          "ticks": 132672,
          "time": 115.1665515,
          "velocity": 0.4409448818897638
        },
        {
          "duration": 0.01041665625000121,
          "durationTicks": 12,
          "midi": 51,
          "name": "D#3",
          "ticks": 133056,
          "time": 115.4998845,
          "velocity": 0.49606299212598426
        },
        {
          "duration": 0.01041665625000121,
          "durationTicks": 12,
          "midi": 37,
          "name": "C#2",
          "ticks": 133056,
          "time": 115.4998845,
          "velocity": 0.44881889763779526
        },
        {
          "duration": 0.010416656249987,
          "durationTicks": 12,
          "midi": 38,
          "name": "D2",
          "ticks": 133312,
          "time": 115.72210650000001,
          "velocity": 0.06299212598425197
        },
        {
          "duration": 0.010416656249987,
          "durationTicks": 12,
          "midi": 51,
          "name": "D#3",
          "ticks": 133312,
          "time": 115.72210650000001,
          "velocity": 0.4409448818897638
        },
        {
          "duration": 0.010416656249987,
          "durationTicks": 12,
          "midi": 51,
          "name": "D#3",
          "ticks": 133440,
          "time": 115.8332175,
          "velocity": 0.4409448818897638
        },
        {
          "duration": 0.01041665625000121,
          "durationTicks": 12,
          "midi": 51,
          "name": "D#3",
          "ticks": 133824,
          "time": 116.1665505,
          "velocity": 0.5275590551181102
        },
        {
          "duration": 0.01041665625000121,
          "durationTicks": 12,
          "midi": 37,
          "name": "C#2",
          "ticks": 133824,
          "time": 116.1665505,
          "velocity": 0.44881889763779526
        },
        {
          "duration": 0.01041665625000121,
          "durationTicks": 12,
          "midi": 38,
          "name": "D2",
          "ticks": 134080,
          "time": 116.3887725,
          "velocity": 0.06299212598425197
        },
        {
          "duration": 0.01041665625000121,
          "durationTicks": 12,
          "midi": 51,
          "name": "D#3",
          "ticks": 134080,
          "time": 116.3887725,
          "velocity": 0.4409448818897638
        },
        {
          "duration": 0.01041665625000121,
          "durationTicks": 12,
          "midi": 51,
          "name": "D#3",
          "ticks": 134208,
          "time": 116.4998835,
          "velocity": 0.4409448818897638
        },
        {
          "duration": 0.01041665625000121,
          "durationTicks": 12,
          "midi": 51,
          "name": "D#3",
          "ticks": 134592,
          "time": 116.83321649999999,
          "velocity": 0.49606299212598426
        },
        {
          "duration": 0.01041665625000121,
          "durationTicks": 12,
          "midi": 37,
          "name": "C#2",
          "ticks": 134592,
          "time": 116.83321649999999,
          "velocity": 0.44881889763779526
        },
        {
          "duration": 0.01041665625000121,
          "durationTicks": 12,
          "midi": 51,
          "name": "D#3",
          "ticks": 134848,
          "time": 117.05543850000001,
          "velocity": 0.4409448818897638
        },
        {
          "duration": 0.01041665625000121,
          "durationTicks": 12,
          "midi": 38,
          "name": "D2",
          "ticks": 134848,
          "time": 117.05543850000001,
          "velocity": 0.06299212598425197
        },
        {
          "duration": 0.01041665625000121,
          "durationTicks": 12,
          "midi": 51,
          "name": "D#3",
          "ticks": 134976,
          "time": 117.1665495,
          "velocity": 0.4409448818897638
        },
        {
          "duration": 0.01041665625000121,
          "durationTicks": 12,
          "midi": 37,
          "name": "C#2",
          "ticks": 135360,
          "time": 117.4998825,
          "velocity": 0.44881889763779526
        },
        {
          "duration": 0.01041665625000121,
          "durationTicks": 12,
          "midi": 51,
          "name": "D#3",
          "ticks": 135360,
          "time": 117.4998825,
          "velocity": 0.5275590551181102
        },
        {
          "duration": 0.01041665625000121,
          "durationTicks": 12,
          "midi": 51,
          "name": "D#3",
          "ticks": 135616,
          "time": 117.7221045,
          "velocity": 0.4409448818897638
        },
        {
          "duration": 0.01041665625000121,
          "durationTicks": 12,
          "midi": 38,
          "name": "D2",
          "ticks": 135616,
          "time": 117.7221045,
          "velocity": 0.06299212598425197
        },
        {
          "duration": 0.01041665625000121,
          "durationTicks": 12,
          "midi": 51,
          "name": "D#3",
          "ticks": 135744,
          "time": 117.8332155,
          "velocity": 0.4409448818897638
        },
        {
          "duration": 0.01041665625000121,
          "durationTicks": 12,
          "midi": 51,
          "name": "D#3",
          "ticks": 136128,
          "time": 118.16654849999999,
          "velocity": 0.49606299212598426
        },
        {
          "duration": 0.01041665625000121,
          "durationTicks": 12,
          "midi": 37,
          "name": "C#2",
          "ticks": 136128,
          "time": 118.16654849999999,
          "velocity": 0.44881889763779526
        },
        {
          "duration": 0.01041665625000121,
          "durationTicks": 12,
          "midi": 51,
          "name": "D#3",
          "ticks": 136384,
          "time": 118.3887705,
          "velocity": 0.4409448818897638
        },
        {
          "duration": 0.01041665625000121,
          "durationTicks": 12,
          "midi": 38,
          "name": "D2",
          "ticks": 136384,
          "time": 118.3887705,
          "velocity": 0.6299212598425197
        },
        {
          "duration": 0.01041665625000121,
          "durationTicks": 12,
          "midi": 51,
          "name": "D#3",
          "ticks": 136512,
          "time": 118.4998815,
          "velocity": 0.4409448818897638
        },
        {
          "duration": 0.01041665625000121,
          "durationTicks": 12,
          "midi": 37,
          "name": "C#2",
          "ticks": 136896,
          "time": 118.8332145,
          "velocity": 0.44881889763779526
        },
        {
          "duration": 0.01041665625000121,
          "durationTicks": 12,
          "midi": 51,
          "name": "D#3",
          "ticks": 136896,
          "time": 118.8332145,
          "velocity": 0.5275590551181102
        },
        {
          "duration": 0.01041665625000121,
          "durationTicks": 12,
          "midi": 38,
          "name": "D2",
          "ticks": 137152,
          "time": 119.0554365,
          "velocity": 0.06299212598425197
        },
        {
          "duration": 0.01041665625000121,
          "durationTicks": 12,
          "midi": 51,
          "name": "D#3",
          "ticks": 137152,
          "time": 119.0554365,
          "velocity": 0.4409448818897638
        },
        {
          "duration": 0.01041665625000121,
          "durationTicks": 12,
          "midi": 51,
          "name": "D#3",
          "ticks": 137280,
          "time": 119.1665475,
          "velocity": 0.4409448818897638
        },
        {
          "duration": 0.010416656249987,
          "durationTicks": 12,
          "midi": 37,
          "name": "C#2",
          "ticks": 137664,
          "time": 119.4998805,
          "velocity": 0.44881889763779526
        },
        {
          "duration": 0.010416656249987,
          "durationTicks": 12,
          "midi": 51,
          "name": "D#3",
          "ticks": 137664,
          "time": 119.4998805,
          "velocity": 0.49606299212598426
        },
        {
          "duration": 0.01041665625000121,
          "durationTicks": 12,
          "midi": 38,
          "name": "D2",
          "ticks": 137920,
          "time": 119.7221025,
          "velocity": 0.6299212598425197
        },
        {
          "duration": 0.01041665625000121,
          "durationTicks": 12,
          "midi": 51,
          "name": "D#3",
          "ticks": 137920,
          "time": 119.7221025,
          "velocity": 0.4409448818897638
        },
        {
          "duration": 0.01041665625000121,
          "durationTicks": 12,
          "midi": 51,
          "name": "D#3",
          "ticks": 138048,
          "time": 119.8332135,
          "velocity": 0.4409448818897638
        },
        {
          "duration": 0.01041665625000121,
          "durationTicks": 12,
          "midi": 37,
          "name": "C#2",
          "ticks": 138432,
          "time": 120.1665465,
          "velocity": 0.44881889763779526
        },
        {
          "duration": 0.01041665625000121,
          "durationTicks": 12,
          "midi": 51,
          "name": "D#3",
          "ticks": 138432,
          "time": 120.1665465,
          "velocity": 0.5275590551181102
        },
        {
          "duration": 0.01041665625000121,
          "durationTicks": 12,
          "midi": 38,
          "name": "D2",
          "ticks": 138688,
          "time": 120.3887685,
          "velocity": 0.06299212598425197
        },
        {
          "duration": 0.01041665625000121,
          "durationTicks": 12,
          "midi": 51,
          "name": "D#3",
          "ticks": 138688,
          "time": 120.3887685,
          "velocity": 0.4409448818897638
        },
        {
          "duration": 0.01041665625000121,
          "durationTicks": 12,
          "midi": 51,
          "name": "D#3",
          "ticks": 138816,
          "time": 120.49987949999999,
          "velocity": 0.4409448818897638
        },
        {
          "duration": 0.01041665625000121,
          "durationTicks": 12,
          "midi": 37,
          "name": "C#2",
          "ticks": 139200,
          "time": 120.8332125,
          "velocity": 0.44881889763779526
        },
        {
          "duration": 0.01041665625000121,
          "durationTicks": 12,
          "midi": 51,
          "name": "D#3",
          "ticks": 139200,
          "time": 120.8332125,
          "velocity": 0.49606299212598426
        },
        {
          "duration": 0.01041665625000121,
          "durationTicks": 12,
          "midi": 38,
          "name": "D2",
          "ticks": 139456,
          "time": 121.0554345,
          "velocity": 0.06299212598425197
        },
        {
          "duration": 0.01041665625000121,
          "durationTicks": 12,
          "midi": 51,
          "name": "D#3",
          "ticks": 139456,
          "time": 121.0554345,
          "velocity": 0.4409448818897638
        },
        {
          "duration": 0.01041665625000121,
          "durationTicks": 12,
          "midi": 51,
          "name": "D#3",
          "ticks": 139584,
          "time": 121.1665455,
          "velocity": 0.4409448818897638
        },
        {
          "duration": 0.01041665625000121,
          "durationTicks": 12,
          "midi": 37,
          "name": "C#2",
          "ticks": 139968,
          "time": 121.4998785,
          "velocity": 0.44881889763779526
        },
        {
          "duration": 0.01041665625000121,
          "durationTicks": 12,
          "midi": 51,
          "name": "D#3",
          "ticks": 139968,
          "time": 121.4998785,
          "velocity": 0.5275590551181102
        },
        {
          "duration": 0.01041665625000121,
          "durationTicks": 12,
          "midi": 51,
          "name": "D#3",
          "ticks": 140224,
          "time": 121.7221005,
          "velocity": 0.4409448818897638
        },
        {
          "duration": 0.01041665625000121,
          "durationTicks": 12,
          "midi": 38,
          "name": "D2",
          "ticks": 140224,
          "time": 121.7221005,
          "velocity": 0.06299212598425197
        },
        {
          "duration": 0.01041665625000121,
          "durationTicks": 12,
          "midi": 51,
          "name": "D#3",
          "ticks": 140352,
          "time": 121.83321149999999,
          "velocity": 0.4409448818897638
        },
        {
          "duration": 0.01041665625000121,
          "durationTicks": 12,
          "midi": 38,
          "name": "D2",
          "ticks": 140608,
          "time": 122.0554335,
          "velocity": 0.6299212598425197
        },
        {
          "duration": 0.01041665625000121,
          "durationTicks": 12,
          "midi": 51,
          "name": "D#3",
          "ticks": 140736,
          "time": 122.1665445,
          "velocity": 0.49606299212598426
        },
        {
          "duration": 0.01041665625000121,
          "durationTicks": 12,
          "midi": 37,
          "name": "C#2",
          "ticks": 140736,
          "time": 122.1665445,
          "velocity": 0.44881889763779526
        },
        {
          "duration": 0.01041665625000121,
          "durationTicks": 12,
          "midi": 38,
          "name": "D2",
          "ticks": 140992,
          "time": 122.3887665,
          "velocity": 0.06299212598425197
        },
        {
          "duration": 0.01041665625000121,
          "durationTicks": 12,
          "midi": 51,
          "name": "D#3",
          "ticks": 140992,
          "time": 122.3887665,
          "velocity": 0.4409448818897638
        },
        {
          "duration": 0.01041665625000121,
          "durationTicks": 12,
          "midi": 51,
          "name": "D#3",
          "ticks": 141120,
          "time": 122.4998775,
          "velocity": 0.4409448818897638
        },
        {
          "duration": 0.01041665625000121,
          "durationTicks": 12,
          "midi": 37,
          "name": "C#2",
          "ticks": 141504,
          "time": 122.83321049999999,
          "velocity": 0.44881889763779526
        },
        {
          "duration": 0.01041665625000121,
          "durationTicks": 12,
          "midi": 51,
          "name": "D#3",
          "ticks": 141504,
          "time": 122.83321049999999,
          "velocity": 0.5275590551181102
        },
        {
          "duration": 0.010416656249987,
          "durationTicks": 12,
          "midi": 51,
          "name": "D#3",
          "ticks": 141760,
          "time": 123.05543250000001,
          "velocity": 0.4409448818897638
        },
        {
          "duration": 0.010416656249987,
          "durationTicks": 12,
          "midi": 38,
          "name": "D2",
          "ticks": 141760,
          "time": 123.05543250000001,
          "velocity": 0.06299212598425197
        },
        {
          "duration": 0.010416656249987,
          "durationTicks": 12,
          "midi": 51,
          "name": "D#3",
          "ticks": 141888,
          "time": 123.1665435,
          "velocity": 0.4409448818897638
        },
        {
          "duration": 0.01041665625000121,
          "durationTicks": 12,
          "midi": 37,
          "name": "C#2",
          "ticks": 142272,
          "time": 123.4998765,
          "velocity": 0.44881889763779526
        },
        {
          "duration": 0.01041665625000121,
          "durationTicks": 12,
          "midi": 51,
          "name": "D#3",
          "ticks": 142272,
          "time": 123.4998765,
          "velocity": 0.49606299212598426
        },
        {
          "duration": 0.01041665625000121,
          "durationTicks": 12,
          "midi": 51,
          "name": "D#3",
          "ticks": 142528,
          "time": 123.7220985,
          "velocity": 0.4409448818897638
        },
        {
          "duration": 0.01041665625000121,
          "durationTicks": 12,
          "midi": 38,
          "name": "D2",
          "ticks": 142528,
          "time": 123.7220985,
          "velocity": 0.06299212598425197
        },
        {
          "duration": 0.01041665625000121,
          "durationTicks": 12,
          "midi": 51,
          "name": "D#3",
          "ticks": 142656,
          "time": 123.8332095,
          "velocity": 0.4409448818897638
        },
        {
          "duration": 0.01041665625000121,
          "durationTicks": 12,
          "midi": 37,
          "name": "C#2",
          "ticks": 143040,
          "time": 124.16654249999999,
          "velocity": 0.44881889763779526
        },
        {
          "duration": 0.01041665625000121,
          "durationTicks": 12,
          "midi": 51,
          "name": "D#3",
          "ticks": 143040,
          "time": 124.16654249999999,
          "velocity": 0.5275590551181102
        },
        {
          "duration": 0.01041665625000121,
          "durationTicks": 12,
          "midi": 51,
          "name": "D#3",
          "ticks": 143296,
          "time": 124.38876450000001,
          "velocity": 0.4409448818897638
        },
        {
          "duration": 0.01041665625000121,
          "durationTicks": 12,
          "midi": 38,
          "name": "D2",
          "ticks": 143296,
          "time": 124.38876450000001,
          "velocity": 0.06299212598425197
        },
        {
          "duration": 0.01041665625000121,
          "durationTicks": 12,
          "midi": 51,
          "name": "D#3",
          "ticks": 143424,
          "time": 124.4998755,
          "velocity": 0.4409448818897638
        },
        {
          "duration": 0.01041665625000121,
          "durationTicks": 12,
          "midi": 51,
          "name": "D#3",
          "ticks": 143808,
          "time": 124.8332085,
          "velocity": 0.49606299212598426
        },
        {
          "duration": 0.01041665625000121,
          "durationTicks": 12,
          "midi": 37,
          "name": "C#2",
          "ticks": 143808,
          "time": 124.8332085,
          "velocity": 0.44881889763779526
        },
        {
          "duration": 0.01041665625000121,
          "durationTicks": 12,
          "midi": 38,
          "name": "D2",
          "ticks": 144064,
          "time": 125.0554305,
          "velocity": 0.6299212598425197
        },
        {
          "duration": 0.01041665625000121,
          "durationTicks": 12,
          "midi": 51,
          "name": "D#3",
          "ticks": 144064,
          "time": 125.0554305,
          "velocity": 0.4409448818897638
        },
        {
          "duration": 0.01041665625000121,
          "durationTicks": 12,
          "midi": 51,
          "name": "D#3",
          "ticks": 144192,
          "time": 125.1665415,
          "velocity": 0.4409448818897638
        },
        {
          "duration": 0.01041665625000121,
          "durationTicks": 12,
          "midi": 51,
          "name": "D#3",
          "ticks": 144576,
          "time": 125.49987449999999,
          "velocity": 0.5275590551181102
        },
        {
          "duration": 0.01041665625000121,
          "durationTicks": 12,
          "midi": 37,
          "name": "C#2",
          "ticks": 144576,
          "time": 125.49987449999999,
          "velocity": 0.44881889763779526
        },
        {
          "duration": 0.01041665625000121,
          "durationTicks": 12,
          "midi": 51,
          "name": "D#3",
          "ticks": 144832,
          "time": 125.7220965,
          "velocity": 0.4409448818897638
        },
        {
          "duration": 0.01041665625000121,
          "durationTicks": 12,
          "midi": 38,
          "name": "D2",
          "ticks": 144832,
          "time": 125.7220965,
          "velocity": 0.06299212598425197
        },
        {
          "duration": 0.01041665625000121,
          "durationTicks": 12,
          "midi": 51,
          "name": "D#3",
          "ticks": 144960,
          "time": 125.8332075,
          "velocity": 0.4409448818897638
        },
        {
          "duration": 0.01041665625000121,
          "durationTicks": 12,
          "midi": 51,
          "name": "D#3",
          "ticks": 145344,
          "time": 126.1665405,
          "velocity": 0.49606299212598426
        },
        {
          "duration": 0.01041665625000121,
          "durationTicks": 12,
          "midi": 37,
          "name": "C#2",
          "ticks": 145344,
          "time": 126.1665405,
          "velocity": 0.44881889763779526
        },
        {
          "duration": 0.01041665625000121,
          "durationTicks": 12,
          "midi": 51,
          "name": "D#3",
          "ticks": 145600,
          "time": 126.3887625,
          "velocity": 0.4409448818897638
        },
        {
          "duration": 0.01041665625000121,
          "durationTicks": 12,
          "midi": 38,
          "name": "D2",
          "ticks": 145600,
          "time": 126.3887625,
          "velocity": 0.06299212598425197
        },
        {
          "duration": 0.01041665625000121,
          "durationTicks": 12,
          "midi": 51,
          "name": "D#3",
          "ticks": 145728,
          "time": 126.49987349999999,
          "velocity": 0.4409448818897638
        },
        {
          "duration": 0.010416656249987,
          "durationTicks": 12,
          "midi": 51,
          "name": "D#3",
          "ticks": 146112,
          "time": 126.8332065,
          "velocity": 0.5275590551181102
        },
        {
          "duration": 0.010416656249987,
          "durationTicks": 12,
          "midi": 37,
          "name": "C#2",
          "ticks": 146112,
          "time": 126.8332065,
          "velocity": 0.44881889763779526
        },
        {
          "duration": 0.01041665625000121,
          "durationTicks": 12,
          "midi": 38,
          "name": "D2",
          "ticks": 146368,
          "time": 127.0554285,
          "velocity": 0.06299212598425197
        },
        {
          "duration": 0.01041665625000121,
          "durationTicks": 12,
          "midi": 51,
          "name": "D#3",
          "ticks": 146368,
          "time": 127.0554285,
          "velocity": 0.4409448818897638
        },
        {
          "duration": 0.01041665625000121,
          "durationTicks": 12,
          "midi": 51,
          "name": "D#3",
          "ticks": 146496,
          "time": 127.1665395,
          "velocity": 0.4409448818897638
        },
        {
          "duration": 0.01041665625000121,
          "durationTicks": 12,
          "midi": 51,
          "name": "D#3",
          "ticks": 146880,
          "time": 127.4998725,
          "velocity": 0.49606299212598426
        },
        {
          "duration": 0.01041665625000121,
          "durationTicks": 12,
          "midi": 37,
          "name": "C#2",
          "ticks": 146880,
          "time": 127.4998725,
          "velocity": 0.44881889763779526
        },
        {
          "duration": 0.01041665625000121,
          "durationTicks": 12,
          "midi": 38,
          "name": "D2",
          "ticks": 147136,
          "time": 127.7220945,
          "velocity": 0.06299212598425197
        },
        {
          "duration": 0.01041665625000121,
          "durationTicks": 12,
          "midi": 51,
          "name": "D#3",
          "ticks": 147136,
          "time": 127.7220945,
          "velocity": 0.4409448818897638
        },
        {
          "duration": 0.01041665625000121,
          "durationTicks": 12,
          "midi": 51,
          "name": "D#3",
          "ticks": 147264,
          "time": 127.83320549999999,
          "velocity": 0.4409448818897638
        },
        {
          "duration": 0.010416656249987,
          "durationTicks": 12,
          "midi": 37,
          "name": "C#2",
          "ticks": 147648,
          "time": 128.1665385,
          "velocity": 0.44881889763779526
        },
        {
          "duration": 0.010416656249987,
          "durationTicks": 12,
          "midi": 51,
          "name": "D#3",
          "ticks": 147648,
          "time": 128.1665385,
          "velocity": 0.5275590551181102
        },
        {
          "duration": 0.010416656250015421,
          "durationTicks": 12,
          "midi": 38,
          "name": "D2",
          "ticks": 147904,
          "time": 128.3887605,
          "velocity": 0.06299212598425197
        },
        {
          "duration": 0.010416656250015421,
          "durationTicks": 12,
          "midi": 51,
          "name": "D#3",
          "ticks": 147904,
          "time": 128.3887605,
          "velocity": 0.4409448818897638
        },
        {
          "duration": 0.010416656250015421,
          "durationTicks": 12,
          "midi": 51,
          "name": "D#3",
          "ticks": 148032,
          "time": 128.49987149999998,
          "velocity": 0.4409448818897638
        },
        {
          "duration": 0.010416656250015421,
          "durationTicks": 12,
          "midi": 51,
          "name": "D#3",
          "ticks": 148416,
          "time": 128.8332045,
          "velocity": 0.49606299212598426
        },
        {
          "duration": 0.010416656250015421,
          "durationTicks": 12,
          "midi": 37,
          "name": "C#2",
          "ticks": 148416,
          "time": 128.8332045,
          "velocity": 0.44881889763779526
        },
        {
          "duration": 0.010416656249987,
          "durationTicks": 12,
          "midi": 38,
          "name": "D2",
          "ticks": 148672,
          "time": 129.0554265,
          "velocity": 0.06299212598425197
        },
        {
          "duration": 0.010416656249987,
          "durationTicks": 12,
          "midi": 51,
          "name": "D#3",
          "ticks": 148672,
          "time": 129.0554265,
          "velocity": 0.4409448818897638
        },
        {
          "duration": 0.010416656249987,
          "durationTicks": 12,
          "midi": 51,
          "name": "D#3",
          "ticks": 148800,
          "time": 129.1665375,
          "velocity": 0.4409448818897638
        },
        {
          "duration": 0.010416656250015421,
          "durationTicks": 12,
          "midi": 51,
          "name": "D#3",
          "ticks": 149184,
          "time": 129.4998705,
          "velocity": 0.5275590551181102
        },
        {
          "duration": 0.010416656250015421,
          "durationTicks": 12,
          "midi": 37,
          "name": "C#2",
          "ticks": 149184,
          "time": 129.4998705,
          "velocity": 0.44881889763779526
        },
        {
          "duration": 0.010416656249987,
          "durationTicks": 12,
          "midi": 38,
          "name": "D2",
          "ticks": 149440,
          "time": 129.7220925,
          "velocity": 0.06299212598425197
        },
        {
          "duration": 0.010416656249987,
          "durationTicks": 12,
          "midi": 51,
          "name": "D#3",
          "ticks": 149440,
          "time": 129.7220925,
          "velocity": 0.4409448818897638
        },
        {
          "duration": 0.010416656249987,
          "durationTicks": 12,
          "midi": 51,
          "name": "D#3",
          "ticks": 149568,
          "time": 129.8332035,
          "velocity": 0.4409448818897638
        },
        {
          "duration": 0.010416656249987,
          "durationTicks": 12,
          "midi": 37,
          "name": "C#2",
          "ticks": 149952,
          "time": 130.1665365,
          "velocity": 0.44881889763779526
        },
        {
          "duration": 0.010416656249987,
          "durationTicks": 12,
          "midi": 51,
          "name": "D#3",
          "ticks": 149952,
          "time": 130.1665365,
          "velocity": 0.49606299212598426
        },
        {
          "duration": 0.010416656250015421,
          "durationTicks": 12,
          "midi": 51,
          "name": "D#3",
          "ticks": 150208,
          "time": 130.3887585,
          "velocity": 0.4409448818897638
        },
        {
          "duration": 0.010416656250015421,
          "durationTicks": 12,
          "midi": 38,
          "name": "D2",
          "ticks": 150208,
          "time": 130.3887585,
          "velocity": 0.06299212598425197
        },
        {
          "duration": 0.010416656250015421,
          "durationTicks": 12,
          "midi": 49,
          "name": "C#3",
          "ticks": 150336,
          "time": 130.4998695,
          "velocity": 0.5590551181102362
        },
        {
          "duration": 0.010416656249987,
          "durationTicks": 12,
          "midi": 37,
          "name": "C#2",
          "ticks": 150720,
          "time": 130.8332025,
          "velocity": 0.44881889763779526
        },
        {
          "duration": 0.010416656249987,
          "durationTicks": 12,
          "midi": 51,
          "name": "D#3",
          "ticks": 150720,
          "time": 130.8332025,
          "velocity": 0.5275590551181102
        },
        {
          "duration": 0.010416656249987,
          "durationTicks": 12,
          "midi": 38,
          "name": "D2",
          "ticks": 150976,
          "time": 131.05542450000002,
          "velocity": 0.06299212598425197
        },
        {
          "duration": 0.010416656249987,
          "durationTicks": 12,
          "midi": 51,
          "name": "D#3",
          "ticks": 150976,
          "time": 131.05542450000002,
          "velocity": 0.4409448818897638
        },
        {
          "duration": 0.010416656249987,
          "durationTicks": 12,
          "midi": 51,
          "name": "D#3",
          "ticks": 151104,
          "time": 131.1665355,
          "velocity": 0.4409448818897638
        },
        {
          "duration": 0.010416656250015421,
          "durationTicks": 12,
          "midi": 37,
          "name": "C#2",
          "ticks": 151488,
          "time": 131.4998685,
          "velocity": 0.44881889763779526
        },
        {
          "duration": 0.010416656250015421,
          "durationTicks": 12,
          "midi": 51,
          "name": "D#3",
          "ticks": 151488,
          "time": 131.4998685,
          "velocity": 0.49606299212598426
        },
        {
          "duration": 0.010416656249987,
          "durationTicks": 12,
          "midi": 51,
          "name": "D#3",
          "ticks": 151744,
          "time": 131.7220905,
          "velocity": 0.4409448818897638
        },
        {
          "duration": 0.010416656249987,
          "durationTicks": 12,
          "midi": 38,
          "name": "D2",
          "ticks": 151744,
          "time": 131.7220905,
          "velocity": 0.06299212598425197
        },
        {
          "duration": 0.010416656249987,
          "durationTicks": 12,
          "midi": 51,
          "name": "D#3",
          "ticks": 151872,
          "time": 131.8332015,
          "velocity": 0.4409448818897638
        },
        {
          "duration": 0.010416656250015421,
          "durationTicks": 12,
          "midi": 37,
          "name": "C#2",
          "ticks": 152256,
          "time": 132.16653449999998,
          "velocity": 0.44881889763779526
        },
        {
          "duration": 0.010416656250015421,
          "durationTicks": 12,
          "midi": 51,
          "name": "D#3",
          "ticks": 152256,
          "time": 132.16653449999998,
          "velocity": 0.5275590551181102
        },
        {
          "duration": 0.010416656250015421,
          "durationTicks": 12,
          "midi": 38,
          "name": "D2",
          "ticks": 152512,
          "time": 132.3887565,
          "velocity": 0.06299212598425197
        },
        {
          "duration": 0.010416656250015421,
          "durationTicks": 12,
          "midi": 51,
          "name": "D#3",
          "ticks": 152512,
          "time": 132.3887565,
          "velocity": 0.4409448818897638
        },
        {
          "duration": 0.010416656250015421,
          "durationTicks": 12,
          "midi": 51,
          "name": "D#3",
          "ticks": 152640,
          "time": 132.4998675,
          "velocity": 0.4409448818897638
        },
        {
          "duration": 0.010416656249987,
          "durationTicks": 12,
          "midi": 37,
          "name": "C#2",
          "ticks": 153024,
          "time": 132.8332005,
          "velocity": 0.44881889763779526
        },
        {
          "duration": 0.010416656249987,
          "durationTicks": 12,
          "midi": 51,
          "name": "D#3",
          "ticks": 153024,
          "time": 132.8332005,
          "velocity": 0.49606299212598426
        },
        {
          "duration": 0.010416656250015421,
          "durationTicks": 12,
          "midi": 38,
          "name": "D2",
          "ticks": 153280,
          "time": 133.0554225,
          "velocity": 0.06299212598425197
        },
        {
          "duration": 0.010416656250015421,
          "durationTicks": 12,
          "midi": 51,
          "name": "D#3",
          "ticks": 153280,
          "time": 133.0554225,
          "velocity": 0.4409448818897638
        },
        {
          "duration": 0.010416656250015421,
          "durationTicks": 12,
          "midi": 51,
          "name": "D#3",
          "ticks": 153408,
          "time": 133.16653349999999,
          "velocity": 0.4409448818897638
        },
        {
          "duration": 0.010416656249987,
          "durationTicks": 12,
          "midi": 37,
          "name": "C#2",
          "ticks": 153792,
          "time": 133.4998665,
          "velocity": 0.44881889763779526
        },
        {
          "duration": 0.010416656249987,
          "durationTicks": 12,
          "midi": 51,
          "name": "D#3",
          "ticks": 153792,
          "time": 133.4998665,
          "velocity": 0.5275590551181102
        },
        {
          "duration": 0.010416656249987,
          "durationTicks": 12,
          "midi": 51,
          "name": "D#3",
          "ticks": 154048,
          "time": 133.7220885,
          "velocity": 0.4409448818897638
        },
        {
          "duration": 0.010416656249987,
          "durationTicks": 12,
          "midi": 38,
          "name": "D2",
          "ticks": 154048,
          "time": 133.7220885,
          "velocity": 0.06299212598425197
        },
        {
          "duration": 0.010416656249987,
          "durationTicks": 12,
          "midi": 51,
          "name": "D#3",
          "ticks": 154176,
          "time": 133.8331995,
          "velocity": 0.4409448818897638
        },
        {
          "duration": 0.010416656250015421,
          "durationTicks": 12,
          "midi": 51,
          "name": "D#3",
          "ticks": 154560,
          "time": 134.1665325,
          "velocity": 0.49606299212598426
        },
        {
          "duration": 0.010416656250015421,
          "durationTicks": 12,
          "midi": 37,
          "name": "C#2",
          "ticks": 154560,
          "time": 134.1665325,
          "velocity": 0.44881889763779526
        },
        {
          "duration": 0.010416656249987,
          "durationTicks": 12,
          "midi": 38,
          "name": "D2",
          "ticks": 154816,
          "time": 134.3887545,
          "velocity": 0.06299212598425197
        },
        {
          "duration": 0.010416656249987,
          "durationTicks": 12,
          "midi": 51,
          "name": "D#3",
          "ticks": 154816,
          "time": 134.3887545,
          "velocity": 0.4409448818897638
        },
        {
          "duration": 0.010416656249987,
          "durationTicks": 12,
          "midi": 51,
          "name": "D#3",
          "ticks": 154944,
          "time": 134.4998655,
          "velocity": 0.4409448818897638
        },
        {
          "duration": 0.010416656249987,
          "durationTicks": 12,
          "midi": 37,
          "name": "C#2",
          "ticks": 155328,
          "time": 134.8331985,
          "velocity": 0.44881889763779526
        },
        {
          "duration": 0.010416656249987,
          "durationTicks": 12,
          "midi": 51,
          "name": "D#3",
          "ticks": 155328,
          "time": 134.8331985,
          "velocity": 0.5275590551181102
        },
        {
          "duration": 0.010416656250015421,
          "durationTicks": 12,
          "midi": 51,
          "name": "D#3",
          "ticks": 155584,
          "time": 135.0554205,
          "velocity": 0.4409448818897638
        },
        {
          "duration": 0.010416656250015421,
          "durationTicks": 12,
          "midi": 38,
          "name": "D2",
          "ticks": 155584,
          "time": 135.0554205,
          "velocity": 0.06299212598425197
        },
        {
          "duration": 0.010416656250015421,
          "durationTicks": 12,
          "midi": 51,
          "name": "D#3",
          "ticks": 155712,
          "time": 135.1665315,
          "velocity": 0.4409448818897638
        },
        {
          "duration": 0.010416656249987,
          "durationTicks": 12,
          "midi": 37,
          "name": "C#2",
          "ticks": 156096,
          "time": 135.4998645,
          "velocity": 0.44881889763779526
        },
        {
          "duration": 0.010416656249987,
          "durationTicks": 12,
          "midi": 51,
          "name": "D#3",
          "ticks": 156096,
          "time": 135.4998645,
          "velocity": 0.49606299212598426
        },
        {
          "duration": 0.010416656250015421,
          "durationTicks": 12,
          "midi": 38,
          "name": "D2",
          "ticks": 156352,
          "time": 135.7220865,
          "velocity": 0.06299212598425197
        },
        {
          "duration": 0.010416656250015421,
          "durationTicks": 12,
          "midi": 51,
          "name": "D#3",
          "ticks": 156352,
          "time": 135.7220865,
          "velocity": 0.4409448818897638
        },
        {
          "duration": 0.010416656250015421,
          "durationTicks": 12,
          "midi": 51,
          "name": "D#3",
          "ticks": 156480,
          "time": 135.83319749999998,
          "velocity": 0.4409448818897638
        },
        {
          "duration": 0.010416656250015421,
          "durationTicks": 12,
          "midi": 51,
          "name": "D#3",
          "ticks": 156864,
          "time": 136.1665305,
          "velocity": 0.5275590551181102
        },
        {
          "duration": 0.010416656250015421,
          "durationTicks": 12,
          "midi": 37,
          "name": "C#2",
          "ticks": 156864,
          "time": 136.1665305,
          "velocity": 0.44881889763779526
        },
        {
          "duration": 0.010416656249987,
          "durationTicks": 12,
          "midi": 38,
          "name": "D2",
          "ticks": 157120,
          "time": 136.3887525,
          "velocity": 0.06299212598425197
        },
        {
          "duration": 0.010416656249987,
          "durationTicks": 12,
          "midi": 51,
          "name": "D#3",
          "ticks": 157120,
          "time": 136.3887525,
          "velocity": 0.4409448818897638
        },
        {
          "duration": 0.010416656249987,
          "durationTicks": 12,
          "midi": 51,
          "name": "D#3",
          "ticks": 157248,
          "time": 136.4998635,
          "velocity": 0.4409448818897638
        },
        {
          "duration": 0.010416656250015421,
          "durationTicks": 12,
          "midi": 37,
          "name": "C#2",
          "ticks": 157632,
          "time": 136.83319649999999,
          "velocity": 0.44881889763779526
        },
        {
          "duration": 0.010416656250015421,
          "durationTicks": 12,
          "midi": 51,
          "name": "D#3",
          "ticks": 157632,
          "time": 136.83319649999999,
          "velocity": 0.49606299212598426
        },
        {
          "duration": 0.010416656249987,
          "durationTicks": 12,
          "midi": 38,
          "name": "D2",
          "ticks": 157888,
          "time": 137.0554185,
          "velocity": 0.06299212598425197
        },
        {
          "duration": 0.010416656249987,
          "durationTicks": 12,
          "midi": 51,
          "name": "D#3",
          "ticks": 157888,
          "time": 137.0554185,
          "velocity": 0.4409448818897638
        },
        {
          "duration": 0.010416656249987,
          "durationTicks": 12,
          "midi": 51,
          "name": "D#3",
          "ticks": 158016,
          "time": 137.1665295,
          "velocity": 0.4409448818897638
        },
        {
          "duration": 0.010416656249987,
          "durationTicks": 12,
          "midi": 38,
          "name": "D2",
          "ticks": 158272,
          "time": 137.3887515,
          "velocity": 0.6299212598425197
        },
        {
          "duration": 0.010416656249987,
          "durationTicks": 12,
          "midi": 51,
          "name": "D#3",
          "ticks": 158400,
          "time": 137.4998625,
          "velocity": 0.5275590551181102
        },
        {
          "duration": 0.010416656249987,
          "durationTicks": 12,
          "midi": 37,
          "name": "C#2",
          "ticks": 158400,
          "time": 137.4998625,
          "velocity": 0.44881889763779526
        },
        {
          "duration": 0.010416656250015421,
          "durationTicks": 12,
          "midi": 51,
          "name": "D#3",
          "ticks": 158656,
          "time": 137.7220845,
          "velocity": 0.4409448818897638
        },
        {
          "duration": 0.010416656250015421,
          "durationTicks": 12,
          "midi": 38,
          "name": "D2",
          "ticks": 158656,
          "time": 137.7220845,
          "velocity": 0.06299212598425197
        },
        {
          "duration": 0.010416656250015421,
          "durationTicks": 12,
          "midi": 51,
          "name": "D#3",
          "ticks": 158784,
          "time": 137.8331955,
          "velocity": 0.4409448818897638
        },
        {
          "duration": 0.010416656249987,
          "durationTicks": 12,
          "midi": 51,
          "name": "D#3",
          "ticks": 159168,
          "time": 138.1665285,
          "velocity": 0.49606299212598426
        },
        {
          "duration": 0.010416656249987,
          "durationTicks": 12,
          "midi": 37,
          "name": "C#2",
          "ticks": 159168,
          "time": 138.1665285,
          "velocity": 0.44881889763779526
        },
        {
          "duration": 0.010416656249987,
          "durationTicks": 12,
          "midi": 38,
          "name": "D2",
          "ticks": 159424,
          "time": 138.38875050000001,
          "velocity": 0.06299212598425197
        },
        {
          "duration": 0.010416656249987,
          "durationTicks": 12,
          "midi": 51,
          "name": "D#3",
          "ticks": 159424,
          "time": 138.38875050000001,
          "velocity": 0.4409448818897638
        },
        {
          "duration": 0.010416656249987,
          "durationTicks": 12,
          "midi": 51,
          "name": "D#3",
          "ticks": 159552,
          "time": 138.4998615,
          "velocity": 0.4409448818897638
        },
        {
          "duration": 0.010416656250015421,
          "durationTicks": 12,
          "midi": 51,
          "name": "D#3",
          "ticks": 159936,
          "time": 138.8331945,
          "velocity": 0.5275590551181102
        },
        {
          "duration": 0.010416656250015421,
          "durationTicks": 12,
          "midi": 37,
          "name": "C#2",
          "ticks": 159936,
          "time": 138.8331945,
          "velocity": 0.44881889763779526
        },
        {
          "duration": 0.010416656249987,
          "durationTicks": 12,
          "midi": 38,
          "name": "D2",
          "ticks": 160192,
          "time": 139.0554165,
          "velocity": 0.06299212598425197
        },
        {
          "duration": 0.010416656249987,
          "durationTicks": 12,
          "midi": 51,
          "name": "D#3",
          "ticks": 160192,
          "time": 139.0554165,
          "velocity": 0.4409448818897638
        },
        {
          "duration": 0.010416656249987,
          "durationTicks": 12,
          "midi": 51,
          "name": "D#3",
          "ticks": 160320,
          "time": 139.1665275,
          "velocity": 0.4409448818897638
        },
        {
          "duration": 0.010416656250015421,
          "durationTicks": 12,
          "midi": 37,
          "name": "C#2",
          "ticks": 160704,
          "time": 139.49986049999998,
          "velocity": 0.44881889763779526
        },
        {
          "duration": 0.010416656250015421,
          "durationTicks": 12,
          "midi": 51,
          "name": "D#3",
          "ticks": 160704,
          "time": 139.49986049999998,
          "velocity": 0.49606299212598426
        },
        {
          "duration": 0.010416656250015421,
          "durationTicks": 12,
          "midi": 51,
          "name": "D#3",
          "ticks": 160960,
          "time": 139.7220825,
          "velocity": 0.4409448818897638
        },
        {
          "duration": 0.010416656250015421,
          "durationTicks": 12,
          "midi": 38,
          "name": "D2",
          "ticks": 160960,
          "time": 139.7220825,
          "velocity": 0.6299212598425197
        },
        {
          "duration": 0.010416656250015421,
          "durationTicks": 12,
          "midi": 51,
          "name": "D#3",
          "ticks": 161088,
          "time": 139.8331935,
          "velocity": 0.4409448818897638
        },
        {
          "duration": 0.010416656249987,
          "durationTicks": 12,
          "midi": 37,
          "name": "C#2",
          "ticks": 161472,
          "time": 140.1665265,
          "velocity": 0.44881889763779526
        },
        {
          "duration": 0.010416656249987,
          "durationTicks": 12,
          "midi": 51,
          "name": "D#3",
          "ticks": 161472,
          "time": 140.1665265,
          "velocity": 0.5275590551181102
        },
        {
          "duration": 0.010416656250015421,
          "durationTicks": 12,
          "midi": 38,
          "name": "D2",
          "ticks": 161728,
          "time": 140.3887485,
          "velocity": 0.06299212598425197
        },
        {
          "duration": 0.010416656250015421,
          "durationTicks": 12,
          "midi": 51,
          "name": "D#3",
          "ticks": 161728,
          "time": 140.3887485,
          "velocity": 0.4409448818897638
        },
        {
          "duration": 0.010416656250015421,
          "durationTicks": 12,
          "midi": 51,
          "name": "D#3",
          "ticks": 161856,
          "time": 140.49985949999999,
          "velocity": 0.4409448818897638
        },
        {
          "duration": 0.010416656249987,
          "durationTicks": 12,
          "midi": 51,
          "name": "D#3",
          "ticks": 162240,
          "time": 140.8331925,
          "velocity": 0.49606299212598426
        },
        {
          "duration": 0.010416656249987,
          "durationTicks": 12,
          "midi": 37,
          "name": "C#2",
          "ticks": 162240,
          "time": 140.8331925,
          "velocity": 0.44881889763779526
        },
        {
          "duration": 0.010416656249987,
          "durationTicks": 12,
          "midi": 51,
          "name": "D#3",
          "ticks": 162496,
          "time": 141.0554145,
          "velocity": 0.4409448818897638
        },
        {
          "duration": 0.010416656249987,
          "durationTicks": 12,
          "midi": 38,
          "name": "D2",
          "ticks": 162496,
          "time": 141.0554145,
          "velocity": 0.6299212598425197
        },
        {
          "duration": 0.010416656249987,
          "durationTicks": 12,
          "midi": 51,
          "name": "D#3",
          "ticks": 162624,
          "time": 141.1665255,
          "velocity": 0.4409448818897638
        },
        {
          "duration": 0.010416656250015421,
          "durationTicks": 12,
          "midi": 37,
          "name": "C#2",
          "ticks": 163008,
          "time": 141.4998585,
          "velocity": 0.44881889763779526
        },
        {
          "duration": 0.010416656250015421,
          "durationTicks": 12,
          "midi": 51,
          "name": "D#3",
          "ticks": 163008,
          "time": 141.4998585,
          "velocity": 0.5275590551181102
        },
        {
          "duration": 0.010416656249987,
          "durationTicks": 12,
          "midi": 51,
          "name": "D#3",
          "ticks": 163264,
          "time": 141.7220805,
          "velocity": 0.4409448818897638
        },
        {
          "duration": 0.010416656249987,
          "durationTicks": 12,
          "midi": 38,
          "name": "D2",
          "ticks": 163264,
          "time": 141.7220805,
          "velocity": 0.06299212598425197
        },
        {
          "duration": 0.010416656249987,
          "durationTicks": 12,
          "midi": 51,
          "name": "D#3",
          "ticks": 163392,
          "time": 141.8331915,
          "velocity": 0.4409448818897638
        },
        {
          "duration": 0.010416656249987,
          "durationTicks": 12,
          "midi": 51,
          "name": "D#3",
          "ticks": 163776,
          "time": 142.1665245,
          "velocity": 0.49606299212598426
        },
        {
          "duration": 0.010416656249987,
          "durationTicks": 12,
          "midi": 37,
          "name": "C#2",
          "ticks": 163776,
          "time": 142.1665245,
          "velocity": 0.44881889763779526
        },
        {
          "duration": 0.010416656250015421,
          "durationTicks": 12,
          "midi": 38,
          "name": "D2",
          "ticks": 164032,
          "time": 142.3887465,
          "velocity": 0.06299212598425197
        },
        {
          "duration": 0.010416656250015421,
          "durationTicks": 12,
          "midi": 51,
          "name": "D#3",
          "ticks": 164032,
          "time": 142.3887465,
          "velocity": 0.4409448818897638
        },
        {
          "duration": 0.010416656250015421,
          "durationTicks": 12,
          "midi": 51,
          "name": "D#3",
          "ticks": 164160,
          "time": 142.4998575,
          "velocity": 0.4409448818897638
        },
        {
          "duration": 0.010416656249987,
          "durationTicks": 12,
          "midi": 51,
          "name": "D#3",
          "ticks": 164544,
          "time": 142.8331905,
          "velocity": 0.5275590551181102
        },
        {
          "duration": 0.010416656249987,
          "durationTicks": 12,
          "midi": 37,
          "name": "C#2",
          "ticks": 164544,
          "time": 142.8331905,
          "velocity": 0.44881889763779526
        },
        {
          "duration": 0.010416656250015421,
          "durationTicks": 12,
          "midi": 38,
          "name": "D2",
          "ticks": 164800,
          "time": 143.0554125,
          "velocity": 0.06299212598425197
        },
        {
          "duration": 0.010416656250015421,
          "durationTicks": 12,
          "midi": 51,
          "name": "D#3",
          "ticks": 164800,
          "time": 143.0554125,
          "velocity": 0.4409448818897638
        },
        {
          "duration": 0.010416656250015421,
          "durationTicks": 12,
          "midi": 51,
          "name": "D#3",
          "ticks": 164928,
          "time": 143.16652349999998,
          "velocity": 0.4409448818897638
        },
        {
          "duration": 0.010416656250015421,
          "durationTicks": 12,
          "midi": 37,
          "name": "C#2",
          "ticks": 165312,
          "time": 143.4998565,
          "velocity": 0.44881889763779526
        },
        {
          "duration": 0.010416656250015421,
          "durationTicks": 12,
          "midi": 51,
          "name": "D#3",
          "ticks": 165312,
          "time": 143.4998565,
          "velocity": 0.49606299212598426
        },
        {
          "duration": 0.010416656249987,
          "durationTicks": 12,
          "midi": 38,
          "name": "D2",
          "ticks": 165568,
          "time": 143.7220785,
          "velocity": 0.06299212598425197
        },
        {
          "duration": 0.010416656249987,
          "durationTicks": 12,
          "midi": 51,
          "name": "D#3",
          "ticks": 165568,
          "time": 143.7220785,
          "velocity": 0.4409448818897638
        },
        {
          "duration": 0.010416656249987,
          "durationTicks": 12,
          "midi": 51,
          "name": "D#3",
          "ticks": 165696,
          "time": 143.8331895,
          "velocity": 0.4409448818897638
        },
        {
          "duration": 0.010416656250015421,
          "durationTicks": 12,
          "midi": 37,
          "name": "C#2",
          "ticks": 166080,
          "time": 144.16652249999999,
          "velocity": 0.44881889763779526
        },
        {
          "duration": 0.010416656250015421,
          "durationTicks": 12,
          "midi": 51,
          "name": "D#3",
          "ticks": 166080,
          "time": 144.16652249999999,
          "velocity": 0.5275590551181102
        },
        {
          "duration": 0.010416656249987,
          "durationTicks": 12,
          "midi": 51,
          "name": "D#3",
          "ticks": 166336,
          "time": 144.3887445,
          "velocity": 0.4409448818897638
        },
        {
          "duration": 0.010416656249987,
          "durationTicks": 12,
          "midi": 38,
          "name": "D2",
          "ticks": 166336,
          "time": 144.3887445,
          "velocity": 0.06299212598425197
        },
        {
          "duration": 0.010416656249987,
          "durationTicks": 12,
          "midi": 51,
          "name": "D#3",
          "ticks": 166464,
          "time": 144.4998555,
          "velocity": 0.4409448818897638
        },
        {
          "duration": 0.010416656249987,
          "durationTicks": 12,
          "midi": 51,
          "name": "D#3",
          "ticks": 166848,
          "time": 144.8331885,
          "velocity": 0.49606299212598426
        },
        {
          "duration": 0.010416656249987,
          "durationTicks": 12,
          "midi": 37,
          "name": "C#2",
          "ticks": 166848,
          "time": 144.8331885,
          "velocity": 0.44881889763779526
        },
        {
          "duration": 0.010416656250015421,
          "durationTicks": 12,
          "midi": 38,
          "name": "D2",
          "ticks": 167104,
          "time": 145.0554105,
          "velocity": 0.06299212598425197
        },
        {
          "duration": 0.010416656250015421,
          "durationTicks": 12,
          "midi": 51,
          "name": "D#3",
          "ticks": 167104,
          "time": 145.0554105,
          "velocity": 0.4409448818897638
        },
        {
          "duration": 0.010416656250015421,
          "durationTicks": 12,
          "midi": 51,
          "name": "D#3",
          "ticks": 167232,
          "time": 145.1665215,
          "velocity": 0.4409448818897638
        },
        {
          "duration": 0.010416656249987,
          "durationTicks": 12,
          "midi": 51,
          "name": "D#3",
          "ticks": 167616,
          "time": 145.4998545,
          "velocity": 0.5275590551181102
        },
        {
          "duration": 0.010416656249987,
          "durationTicks": 12,
          "midi": 37,
          "name": "C#2",
          "ticks": 167616,
          "time": 145.4998545,
          "velocity": 0.44881889763779526
        },
        {
          "duration": 0.010416656249987,
          "durationTicks": 12,
          "midi": 38,
          "name": "D2",
          "ticks": 167872,
          "time": 145.72207650000001,
          "velocity": 0.06299212598425197
        },
        {
          "duration": 0.010416656249987,
          "durationTicks": 12,
          "midi": 51,
          "name": "D#3",
          "ticks": 167872,
          "time": 145.72207650000001,
          "velocity": 0.4409448818897638
        },
        {
          "duration": 0.010416656249987,
          "durationTicks": 12,
          "midi": 51,
          "name": "D#3",
          "ticks": 168000,
          "time": 145.8331875,
          "velocity": 0.4409448818897638
        },
        {
          "duration": 0.010416656250015421,
          "durationTicks": 12,
          "midi": 51,
          "name": "D#3",
          "ticks": 168384,
          "time": 146.1665205,
          "velocity": 0.49606299212598426
        },
        {
          "duration": 0.010416656250015421,
          "durationTicks": 12,
          "midi": 37,
          "name": "C#2",
          "ticks": 168384,
          "time": 146.1665205,
          "velocity": 0.44881889763779526
        },
        {
          "duration": 0.010416656249987,
          "durationTicks": 12,
          "midi": 51,
          "name": "D#3",
          "ticks": 168640,
          "time": 146.3887425,
          "velocity": 0.4409448818897638
        },
        {
          "duration": 0.010416656249987,
          "durationTicks": 12,
          "midi": 38,
          "name": "D2",
          "ticks": 168640,
          "time": 146.3887425,
          "velocity": 0.06299212598425197
        },
        {
          "duration": 0.010416656249987,
          "durationTicks": 12,
          "midi": 51,
          "name": "D#3",
          "ticks": 168768,
          "time": 146.4998535,
          "velocity": 0.4409448818897638
        },
        {
          "duration": 0.010416656250015421,
          "durationTicks": 12,
          "midi": 51,
          "name": "D#3",
          "ticks": 169152,
          "time": 146.83318649999998,
          "velocity": 0.5275590551181102
        },
        {
          "duration": 0.010416656250015421,
          "durationTicks": 12,
          "midi": 37,
          "name": "C#2",
          "ticks": 169152,
          "time": 146.83318649999998,
          "velocity": 0.44881889763779526
        },
        {
          "duration": 0.010416656250015421,
          "durationTicks": 12,
          "midi": 38,
          "name": "D2",
          "ticks": 169408,
          "time": 147.0554085,
          "velocity": 0.06299212598425197
        },
        {
          "duration": 0.010416656250015421,
          "durationTicks": 12,
          "midi": 51,
          "name": "D#3",
          "ticks": 169408,
          "time": 147.0554085,
          "velocity": 0.4409448818897638
        },
        {
          "duration": 0.010416656250015421,
          "durationTicks": 12,
          "midi": 51,
          "name": "D#3",
          "ticks": 169536,
          "time": 147.1665195,
          "velocity": 0.4409448818897638
        },
        {
          "duration": 0.010416656249987,
          "durationTicks": 12,
          "midi": 51,
          "name": "D#3",
          "ticks": 169920,
          "time": 147.4998525,
          "velocity": 0.49606299212598426
        },
        {
          "duration": 0.010416656249987,
          "durationTicks": 12,
          "midi": 37,
          "name": "C#2",
          "ticks": 169920,
          "time": 147.4998525,
          "velocity": 0.44881889763779526
        },
        {
          "duration": 0.010416656250015421,
          "durationTicks": 12,
          "midi": 51,
          "name": "D#3",
          "ticks": 170176,
          "time": 147.7220745,
          "velocity": 0.4409448818897638
        },
        {
          "duration": 0.010416656250015421,
          "durationTicks": 12,
          "midi": 38,
          "name": "D2",
          "ticks": 170176,
          "time": 147.7220745,
          "velocity": 0.06299212598425197
        },
        {
          "duration": 0.010416656250015421,
          "durationTicks": 12,
          "midi": 51,
          "name": "D#3",
          "ticks": 170304,
          "time": 147.83318549999998,
          "velocity": 0.4409448818897638
        },
        {
          "duration": 0.010416656249987,
          "durationTicks": 12,
          "midi": 37,
          "name": "C#2",
          "ticks": 170688,
          "time": 148.1665185,
          "velocity": 0.44881889763779526
        },
        {
          "duration": 0.010416656249987,
          "durationTicks": 12,
          "midi": 51,
          "name": "D#3",
          "ticks": 170688,
          "time": 148.1665185,
          "velocity": 0.5275590551181102
        },
        {
          "duration": 0.010416656249987,
          "durationTicks": 12,
          "midi": 51,
          "name": "D#3",
          "ticks": 170944,
          "time": 148.3887405,
          "velocity": 0.4409448818897638
        },
        {
          "duration": 0.010416656249987,
          "durationTicks": 12,
          "midi": 38,
          "name": "D2",
          "ticks": 170944,
          "time": 148.3887405,
          "velocity": 0.06299212598425197
        },
        {
          "duration": 0.010416656249987,
          "durationTicks": 12,
          "midi": 51,
          "name": "D#3",
          "ticks": 171072,
          "time": 148.4998515,
          "velocity": 0.4409448818897638
        },
        {
          "duration": 0.010416656250015421,
          "durationTicks": 12,
          "midi": 37,
          "name": "C#2",
          "ticks": 171456,
          "time": 148.8331845,
          "velocity": 0.44881889763779526
        },
        {
          "duration": 0.010416656250015421,
          "durationTicks": 12,
          "midi": 51,
          "name": "D#3",
          "ticks": 171456,
          "time": 148.8331845,
          "velocity": 0.49606299212598426
        },
        {
          "duration": 0.010416656249987,
          "durationTicks": 12,
          "midi": 51,
          "name": "D#3",
          "ticks": 171712,
          "time": 149.0554065,
          "velocity": 0.4409448818897638
        },
        {
          "duration": 0.010416656249987,
          "durationTicks": 12,
          "midi": 38,
          "name": "D2",
          "ticks": 171712,
          "time": 149.0554065,
          "velocity": 0.06299212598425197
        },
        {
          "duration": 0.010416656249987,
          "durationTicks": 12,
          "midi": 51,
          "name": "D#3",
          "ticks": 171840,
          "time": 149.1665175,
          "velocity": 0.4409448818897638
        },
        {
          "duration": 0.010416656249987,
          "durationTicks": 12,
          "midi": 38,
          "name": "D2",
          "ticks": 172096,
          "time": 149.3887395,
          "velocity": 0.6299212598425197
        },
        {
          "duration": 0.010416656249987,
          "durationTicks": 12,
          "midi": 51,
          "name": "D#3",
          "ticks": 172224,
          "time": 149.4998505,
          "velocity": 0.5275590551181102
        },
        {
          "duration": 0.010416656249987,
          "durationTicks": 12,
          "midi": 37,
          "name": "C#2",
          "ticks": 172224,
          "time": 149.4998505,
          "velocity": 0.44881889763779526
        },
        {
          "duration": 0.010416656250015421,
          "durationTicks": 12,
          "midi": 51,
          "name": "D#3",
          "ticks": 172480,
          "time": 149.7220725,
          "velocity": 0.4409448818897638
        },
        {
          "duration": 0.010416656250015421,
          "durationTicks": 12,
          "midi": 38,
          "name": "D2",
          "ticks": 172480,
          "time": 149.7220725,
          "velocity": 0.06299212598425197
        },
        {
          "duration": 0.010416656250015421,
          "durationTicks": 12,
          "midi": 51,
          "name": "D#3",
          "ticks": 172608,
          "time": 149.8331835,
          "velocity": 0.4409448818897638
        },
        {
          "duration": 0.010416656249987,
          "durationTicks": 12,
          "midi": 37,
          "name": "C#2",
          "ticks": 172992,
          "time": 150.1665165,
          "velocity": 0.44881889763779526
        },
        {
          "duration": 0.010416656249987,
          "durationTicks": 12,
          "midi": 51,
          "name": "D#3",
          "ticks": 172992,
          "time": 150.1665165,
          "velocity": 0.49606299212598426
        },
        {
          "duration": 0.010416656250015421,
          "durationTicks": 12,
          "midi": 51,
          "name": "D#3",
          "ticks": 173248,
          "time": 150.3887385,
          "velocity": 0.4409448818897638
        },
        {
          "duration": 0.010416656250015421,
          "durationTicks": 12,
          "midi": 38,
          "name": "D2",
          "ticks": 173248,
          "time": 150.3887385,
          "velocity": 0.06299212598425197
        },
        {
          "duration": 0.010416656250015421,
          "durationTicks": 12,
          "midi": 51,
          "name": "D#3",
          "ticks": 173376,
          "time": 150.49984949999998,
          "velocity": 0.4409448818897638
        },
        {
          "duration": 0.010416656250015421,
          "durationTicks": 12,
          "midi": 37,
          "name": "C#2",
          "ticks": 173760,
          "time": 150.8331825,
          "velocity": 0.44881889763779526
        },
        {
          "duration": 0.010416656250015421,
          "durationTicks": 12,
          "midi": 51,
          "name": "D#3",
          "ticks": 173760,
          "time": 150.8331825,
          "velocity": 0.5275590551181102
        },
        {
          "duration": 0.010416656249987,
          "durationTicks": 12,
          "midi": 38,
          "name": "D2",
          "ticks": 174016,
          "time": 151.0554045,
          "velocity": 0.06299212598425197
        },
        {
          "duration": 0.010416656249987,
          "durationTicks": 12,
          "midi": 51,
          "name": "D#3",
          "ticks": 174016,
          "time": 151.0554045,
          "velocity": 0.4409448818897638
        },
        {
          "duration": 0.010416656249987,
          "durationTicks": 12,
          "midi": 51,
          "name": "D#3",
          "ticks": 174144,
          "time": 151.1665155,
          "velocity": 0.4409448818897638
        },
        {
          "duration": 0.010416656250015421,
          "durationTicks": 12,
          "midi": 37,
          "name": "C#2",
          "ticks": 174528,
          "time": 151.49984849999998,
          "velocity": 0.44881889763779526
        },
        {
          "duration": 0.010416656250015421,
          "durationTicks": 12,
          "midi": 51,
          "name": "D#3",
          "ticks": 174528,
          "time": 151.49984849999998,
          "velocity": 0.49606299212598426
        },
        {
          "duration": 0.010416656249987,
          "durationTicks": 12,
          "midi": 51,
          "name": "D#3",
          "ticks": 174784,
          "time": 151.7220705,
          "velocity": 0.4409448818897638
        },
        {
          "duration": 0.010416656249987,
          "durationTicks": 12,
          "midi": 38,
          "name": "D2",
          "ticks": 174784,
          "time": 151.7220705,
          "velocity": 0.06299212598425197
        },
        {
          "duration": 0.010416656249987,
          "durationTicks": 12,
          "midi": 49,
          "name": "C#3",
          "ticks": 174912,
          "time": 151.8331815,
          "velocity": 0.5590551181102362
        },
        {
          "duration": 0.010416656249987,
          "durationTicks": 12,
          "midi": 37,
          "name": "C#2",
          "ticks": 175296,
          "time": 152.1665145,
          "velocity": 0.44881889763779526
        },
        {
          "duration": 0.010416656249987,
          "durationTicks": 12,
          "midi": 51,
          "name": "D#3",
          "ticks": 175296,
          "time": 152.1665145,
          "velocity": 0.5275590551181102
        },
        {
          "duration": 0.010416656250015421,
          "durationTicks": 12,
          "midi": 38,
          "name": "D2",
          "ticks": 175552,
          "time": 152.3887365,
          "velocity": 0.06299212598425197
        },
        {
          "duration": 0.010416656250015421,
          "durationTicks": 12,
          "midi": 51,
          "name": "D#3",
          "ticks": 175552,
          "time": 152.3887365,
          "velocity": 0.4409448818897638
        },
        {
          "duration": 0.010416656250015421,
          "durationTicks": 12,
          "midi": 51,
          "name": "D#3",
          "ticks": 175680,
          "time": 152.4998475,
          "velocity": 0.4409448818897638
        },
        {
          "duration": 0.010416656249987,
          "durationTicks": 12,
          "midi": 37,
          "name": "C#2",
          "ticks": 176064,
          "time": 152.8331805,
          "velocity": 0.44881889763779526
        },
        {
          "duration": 0.010416656249987,
          "durationTicks": 12,
          "midi": 51,
          "name": "D#3",
          "ticks": 176064,
          "time": 152.8331805,
          "velocity": 0.49606299212598426
        },
        {
          "duration": 0.010416656249987,
          "durationTicks": 12,
          "midi": 51,
          "name": "D#3",
          "ticks": 176320,
          "time": 153.0554025,
          "velocity": 0.4409448818897638
        },
        {
          "duration": 0.010416656249987,
          "durationTicks": 12,
          "midi": 38,
          "name": "D2",
          "ticks": 176320,
          "time": 153.0554025,
          "velocity": 0.06299212598425197
        },
        {
          "duration": 0.010416656249987,
          "durationTicks": 12,
          "midi": 51,
          "name": "D#3",
          "ticks": 176448,
          "time": 153.1665135,
          "velocity": 0.4409448818897638
        },
        {
          "duration": 0.010416656250015421,
          "durationTicks": 12,
          "midi": 37,
          "name": "C#2",
          "ticks": 176832,
          "time": 153.4998465,
          "velocity": 0.44881889763779526
        },
        {
          "duration": 0.010416656250015421,
          "durationTicks": 12,
          "midi": 51,
          "name": "D#3",
          "ticks": 176832,
          "time": 153.4998465,
          "velocity": 0.5275590551181102
        },
        {
          "duration": 0.010416656249987,
          "durationTicks": 12,
          "midi": 38,
          "name": "D2",
          "ticks": 177088,
          "time": 153.7220685,
          "velocity": 0.06299212598425197
        },
        {
          "duration": 0.010416656249987,
          "durationTicks": 12,
          "midi": 51,
          "name": "D#3",
          "ticks": 177088,
          "time": 153.7220685,
          "velocity": 0.4409448818897638
        },
        {
          "duration": 0.010416656249987,
          "durationTicks": 12,
          "midi": 51,
          "name": "D#3",
          "ticks": 177216,
          "time": 153.8331795,
          "velocity": 0.4409448818897638
        },
        {
          "duration": 0.010416656250015421,
          "durationTicks": 12,
          "midi": 51,
          "name": "D#3",
          "ticks": 177600,
          "time": 154.16651249999998,
          "velocity": 0.49606299212598426
        },
        {
          "duration": 0.010416656250015421,
          "durationTicks": 12,
          "midi": 37,
          "name": "C#2",
          "ticks": 177600,
          "time": 154.16651249999998,
          "velocity": 0.44881889763779526
        },
        {
          "duration": 0.010416656250015421,
          "durationTicks": 12,
          "midi": 38,
          "name": "D2",
          "ticks": 177856,
          "time": 154.3887345,
          "velocity": 0.06299212598425197
        },
        {
          "duration": 0.010416656250015421,
          "durationTicks": 12,
          "midi": 51,
          "name": "D#3",
          "ticks": 177856,
          "time": 154.3887345,
          "velocity": 0.4409448818897638
        },
        {
          "duration": 0.010416656250015421,
          "durationTicks": 12,
          "midi": 51,
          "name": "D#3",
          "ticks": 177984,
          "time": 154.4998455,
          "velocity": 0.4409448818897638
        },
        {
          "duration": 0.010416656249987,
          "durationTicks": 12,
          "midi": 37,
          "name": "C#2",
          "ticks": 178368,
          "time": 154.8331785,
          "velocity": 0.44881889763779526
        },
        {
          "duration": 0.010416656249987,
          "durationTicks": 12,
          "midi": 51,
          "name": "D#3",
          "ticks": 178368,
          "time": 154.8331785,
          "velocity": 0.5275590551181102
        },
        {
          "duration": 0.010416656250015421,
          "durationTicks": 12,
          "midi": 38,
          "name": "D2",
          "ticks": 178624,
          "time": 155.0554005,
          "velocity": 0.6299212598425197
        },
        {
          "duration": 0.010416656250015421,
          "durationTicks": 12,
          "midi": 51,
          "name": "D#3",
          "ticks": 178624,
          "time": 155.0554005,
          "velocity": 0.4409448818897638
        },
        {
          "duration": 0.010416656250015421,
          "durationTicks": 12,
          "midi": 51,
          "name": "D#3",
          "ticks": 178752,
          "time": 155.16651149999998,
          "velocity": 0.4409448818897638
        },
        {
          "duration": 0.010416656249987,
          "durationTicks": 12,
          "midi": 51,
          "name": "D#3",
          "ticks": 179136,
          "time": 155.4998445,
          "velocity": 0.49606299212598426
        },
        {
          "duration": 0.010416656249987,
          "durationTicks": 12,
          "midi": 37,
          "name": "C#2",
          "ticks": 179136,
          "time": 155.4998445,
          "velocity": 0.44881889763779526
        },
        {
          "duration": 0.010416656249987,
          "durationTicks": 12,
          "midi": 38,
          "name": "D2",
          "ticks": 179392,
          "time": 155.7220665,
          "velocity": 0.06299212598425197
        },
        {
          "duration": 0.010416656249987,
          "durationTicks": 12,
          "midi": 51,
          "name": "D#3",
          "ticks": 179392,
          "time": 155.7220665,
          "velocity": 0.4409448818897638
        },
        {
          "duration": 0.010416656249987,
          "durationTicks": 12,
          "midi": 51,
          "name": "D#3",
          "ticks": 179520,
          "time": 155.8331775,
          "velocity": 0.4409448818897638
        },
        {
          "duration": 0.010416656250015421,
          "durationTicks": 12,
          "midi": 51,
          "name": "D#3",
          "ticks": 179904,
          "time": 156.1665105,
          "velocity": 0.5275590551181102
        },
        {
          "duration": 0.010416656250015421,
          "durationTicks": 12,
          "midi": 37,
          "name": "C#2",
          "ticks": 179904,
          "time": 156.1665105,
          "velocity": 0.44881889763779526
        },
        {
          "duration": 0.010416656249987,
          "durationTicks": 12,
          "midi": 51,
          "name": "D#3",
          "ticks": 180160,
          "time": 156.3887325,
          "velocity": 0.4409448818897638
        },
        {
          "duration": 0.010416656249987,
          "durationTicks": 12,
          "midi": 38,
          "name": "D2",
          "ticks": 180160,
          "time": 156.3887325,
          "velocity": 0.6299212598425197
        },
        {
          "duration": 0.010416656249987,
          "durationTicks": 12,
          "midi": 51,
          "name": "D#3",
          "ticks": 180288,
          "time": 156.4998435,
          "velocity": 0.4409448818897638
        },
        {
          "duration": 0.010416656249987,
          "durationTicks": 12,
          "midi": 51,
          "name": "D#3",
          "ticks": 180672,
          "time": 156.8331765,
          "velocity": 0.49606299212598426
        },
        {
          "duration": 0.010416656249987,
          "durationTicks": 12,
          "midi": 37,
          "name": "C#2",
          "ticks": 180672,
          "time": 156.8331765,
          "velocity": 0.44881889763779526
        },
        {
          "duration": 0.010416656250015421,
          "durationTicks": 12,
          "midi": 51,
          "name": "D#3",
          "ticks": 180928,
          "time": 157.0553985,
          "velocity": 0.4409448818897638
        },
        {
          "duration": 0.010416656250015421,
          "durationTicks": 12,
          "midi": 38,
          "name": "D2",
          "ticks": 180928,
          "time": 157.0553985,
          "velocity": 0.06299212598425197
        },
        {
          "duration": 0.010416656250015421,
          "durationTicks": 12,
          "midi": 51,
          "name": "D#3",
          "ticks": 181056,
          "time": 157.1665095,
          "velocity": 0.4409448818897638
        },
        {
          "duration": 0.010416656249987,
          "durationTicks": 12,
          "midi": 37,
          "name": "C#2",
          "ticks": 181440,
          "time": 157.4998425,
          "velocity": 0.44881889763779526
        },
        {
          "duration": 0.010416656249987,
          "durationTicks": 12,
          "midi": 51,
          "name": "D#3",
          "ticks": 181440,
          "time": 157.4998425,
          "velocity": 0.5275590551181102
        },
        {
          "duration": 0.010416656250015421,
          "durationTicks": 12,
          "midi": 51,
          "name": "D#3",
          "ticks": 181696,
          "time": 157.7220645,
          "velocity": 0.4409448818897638
        },
        {
          "duration": 0.010416656250015421,
          "durationTicks": 12,
          "midi": 38,
          "name": "D2",
          "ticks": 181696,
          "time": 157.7220645,
          "velocity": 0.6299212598425197
        },
        {
          "duration": 0.010416656250015421,
          "durationTicks": 12,
          "midi": 51,
          "name": "D#3",
          "ticks": 181824,
          "time": 157.83317549999998,
          "velocity": 0.4409448818897638
        },
        {
          "duration": 0.010416656250015421,
          "durationTicks": 12,
          "midi": 37,
          "name": "C#2",
          "ticks": 182208,
          "time": 158.1665085,
          "velocity": 0.44881889763779526
        },
        {
          "duration": 0.010416656250015421,
          "durationTicks": 12,
          "midi": 51,
          "name": "D#3",
          "ticks": 182208,
          "time": 158.1665085,
          "velocity": 0.49606299212598426
        },
        {
          "duration": 0.010416656249987,
          "durationTicks": 12,
          "midi": 51,
          "name": "D#3",
          "ticks": 182464,
          "time": 158.3887305,
          "velocity": 0.4409448818897638
        },
        {
          "duration": 0.010416656249987,
          "durationTicks": 12,
          "midi": 38,
          "name": "D2",
          "ticks": 182464,
          "time": 158.3887305,
          "velocity": 0.06299212598425197
        },
        {
          "duration": 0.010416656249987,
          "durationTicks": 12,
          "midi": 51,
          "name": "D#3",
          "ticks": 182592,
          "time": 158.4998415,
          "velocity": 0.4409448818897638
        },
        {
          "duration": 0.010416656250015421,
          "durationTicks": 12,
          "midi": 37,
          "name": "C#2",
          "ticks": 182976,
          "time": 158.83317449999998,
          "velocity": 0.44881889763779526
        },
        {
          "duration": 0.010416656250015421,
          "durationTicks": 12,
          "midi": 51,
          "name": "D#3",
          "ticks": 182976,
          "time": 158.83317449999998,
          "velocity": 0.5275590551181102
        },
        {
          "duration": 0.010416656250015421,
          "durationTicks": 12,
          "midi": 51,
          "name": "D#3",
          "ticks": 183232,
          "time": 159.0553965,
          "velocity": 0.4409448818897638
        },
        {
          "duration": 0.010416656250015421,
          "durationTicks": 12,
          "midi": 38,
          "name": "D2",
          "ticks": 183232,
          "time": 159.0553965,
          "velocity": 0.06299212598425197
        },
        {
          "duration": 0.010416656249987,
          "durationTicks": 12,
          "midi": 51,
          "name": "D#3",
          "ticks": 183360,
          "time": 159.1665075,
          "velocity": 0.4409448818897638
        },
        {
          "duration": 0.010416656249987,
          "durationTicks": 12,
          "midi": 37,
          "name": "C#2",
          "ticks": 183744,
          "time": 159.4998405,
          "velocity": 0.44881889763779526
        },
        {
          "duration": 0.010416656249987,
          "durationTicks": 12,
          "midi": 51,
          "name": "D#3",
          "ticks": 183744,
          "time": 159.4998405,
          "velocity": 0.49606299212598426
        },
        {
          "duration": 0.010416656250015421,
          "durationTicks": 12,
          "midi": 51,
          "name": "D#3",
          "ticks": 184000,
          "time": 159.7220625,
          "velocity": 0.4409448818897638
        },
        {
          "duration": 0.010416656250015421,
          "durationTicks": 12,
          "midi": 38,
          "name": "D2",
          "ticks": 184000,
          "time": 159.7220625,
          "velocity": 0.06299212598425197
        },
        {
          "duration": 0.010416656250015421,
          "durationTicks": 12,
          "midi": 51,
          "name": "D#3",
          "ticks": 184128,
          "time": 159.8331735,
          "velocity": 0.4409448818897638
        },
        {
          "duration": 0.010416656249987,
          "durationTicks": 12,
          "midi": 37,
          "name": "C#2",
          "ticks": 184512,
          "time": 160.1665065,
          "velocity": 0.44881889763779526
        },
        {
          "duration": 0.010416656249987,
          "durationTicks": 12,
          "midi": 51,
          "name": "D#3",
          "ticks": 184512,
          "time": 160.1665065,
          "velocity": 0.5275590551181102
        },
        {
          "duration": 0.010416656249987,
          "durationTicks": 12,
          "midi": 38,
          "name": "D2",
          "ticks": 184768,
          "time": 160.3887285,
          "velocity": 0.06299212598425197
        },
        {
          "duration": 0.010416656249987,
          "durationTicks": 12,
          "midi": 51,
          "name": "D#3",
          "ticks": 184768,
          "time": 160.3887285,
          "velocity": 0.4409448818897638
        },
        {
          "duration": 0.010416656249987,
          "durationTicks": 12,
          "midi": 51,
          "name": "D#3",
          "ticks": 184896,
          "time": 160.4998395,
          "velocity": 0.4409448818897638
        },
        {
          "duration": 0.010416656250015421,
          "durationTicks": 12,
          "midi": 37,
          "name": "C#2",
          "ticks": 185280,
          "time": 160.8331725,
          "velocity": 0.44881889763779526
        },
        {
          "duration": 0.010416656250015421,
          "durationTicks": 12,
          "midi": 51,
          "name": "D#3",
          "ticks": 185280,
          "time": 160.8331725,
          "velocity": 0.49606299212598426
        },
        {
          "duration": 0.010416656249987,
          "durationTicks": 12,
          "midi": 51,
          "name": "D#3",
          "ticks": 185536,
          "time": 161.0553945,
          "velocity": 0.4409448818897638
        },
        {
          "duration": 0.010416656249987,
          "durationTicks": 12,
          "midi": 38,
          "name": "D2",
          "ticks": 185536,
          "time": 161.0553945,
          "velocity": 0.06299212598425197
        },
        {
          "duration": 0.010416656249987,
          "durationTicks": 12,
          "midi": 51,
          "name": "D#3",
          "ticks": 185664,
          "time": 161.1665055,
          "velocity": 0.4409448818897638
        },
        {
          "duration": 0.010416656250015421,
          "durationTicks": 12,
          "midi": 37,
          "name": "C#2",
          "ticks": 186048,
          "time": 161.49983849999998,
          "velocity": 0.44881889763779526
        },
        {
          "duration": 0.010416656250015421,
          "durationTicks": 12,
          "midi": 51,
          "name": "D#3",
          "ticks": 186048,
          "time": 161.49983849999998,
          "velocity": 0.5275590551181102
        },
        {
          "duration": 0.010416656250015421,
          "durationTicks": 12,
          "midi": 51,
          "name": "D#3",
          "ticks": 186304,
          "time": 161.7220605,
          "velocity": 0.4409448818897638
        },
        {
          "duration": 0.010416656250015421,
          "durationTicks": 12,
          "midi": 38,
          "name": "D2",
          "ticks": 186304,
          "time": 161.7220605,
          "velocity": 0.06299212598425197
        },
        {
          "duration": 0.010416656250015421,
          "durationTicks": 12,
          "midi": 51,
          "name": "D#3",
          "ticks": 186432,
          "time": 161.8331715,
          "velocity": 0.4409448818897638
        },
        {
          "duration": 0.010416656249987,
          "durationTicks": 12,
          "midi": 37,
          "name": "C#2",
          "ticks": 186816,
          "time": 162.1665045,
          "velocity": 0.44881889763779526
        },
        {
          "duration": 0.010416656249987,
          "durationTicks": 12,
          "midi": 51,
          "name": "D#3",
          "ticks": 186816,
          "time": 162.1665045,
          "velocity": 0.49606299212598426
        },
        {
          "duration": 0.010416656250015421,
          "durationTicks": 12,
          "midi": 51,
          "name": "D#3",
          "ticks": 187072,
          "time": 162.3887265,
          "velocity": 0.4409448818897638
        },
        {
          "duration": 0.010416656250015421,
          "durationTicks": 12,
          "midi": 38,
          "name": "D2",
          "ticks": 187072,
          "time": 162.3887265,
          "velocity": 0.06299212598425197
        },
        {
          "duration": 0.010416656250015421,
          "durationTicks": 12,
          "midi": 51,
          "name": "D#3",
          "ticks": 187200,
          "time": 162.49983749999998,
          "velocity": 0.4409448818897638
        },
        {
          "duration": 0.010416656249987,
          "durationTicks": 12,
          "midi": 37,
          "name": "C#2",
          "ticks": 187584,
          "time": 162.8331705,
          "velocity": 0.44881889763779526
        },
        {
          "duration": 0.010416656249987,
          "durationTicks": 12,
          "midi": 51,
          "name": "D#3",
          "ticks": 187584,
          "time": 162.8331705,
          "velocity": 0.5275590551181102
        },
        {
          "duration": 0.010416656249987,
          "durationTicks": 12,
          "midi": 51,
          "name": "D#3",
          "ticks": 187840,
          "time": 163.0553925,
          "velocity": 0.4409448818897638
        },
        {
          "duration": 0.010416656249987,
          "durationTicks": 12,
          "midi": 38,
          "name": "D2",
          "ticks": 187840,
          "time": 163.0553925,
          "velocity": 0.06299212598425197
        },
        {
          "duration": 0.010416656249987,
          "durationTicks": 12,
          "midi": 51,
          "name": "D#3",
          "ticks": 187968,
          "time": 163.1665035,
          "velocity": 0.4409448818897638
        },
        {
          "duration": 0.010416656250015421,
          "durationTicks": 12,
          "midi": 37,
          "name": "C#2",
          "ticks": 188352,
          "time": 163.4998365,
          "velocity": 0.44881889763779526
        },
        {
          "duration": 0.010416656250015421,
          "durationTicks": 12,
          "midi": 51,
          "name": "D#3",
          "ticks": 188352,
          "time": 163.4998365,
          "velocity": 0.49606299212598426
        },
        {
          "duration": 0.010416656249987,
          "durationTicks": 12,
          "midi": 51,
          "name": "D#3",
          "ticks": 188608,
          "time": 163.7220585,
          "velocity": 0.4409448818897638
        },
        {
          "duration": 0.010416656249987,
          "durationTicks": 12,
          "midi": 38,
          "name": "D2",
          "ticks": 188608,
          "time": 163.7220585,
          "velocity": 0.06299212598425197
        },
        {
          "duration": 0.010416656249987,
          "durationTicks": 12,
          "midi": 51,
          "name": "D#3",
          "ticks": 188736,
          "time": 163.8331695,
          "velocity": 0.4409448818897638
        },
        {
          "duration": 0.010416656249987,
          "durationTicks": 12,
          "midi": 51,
          "name": "D#3",
          "ticks": 189120,
          "time": 164.1665025,
          "velocity": 0.5275590551181102
        },
        {
          "duration": 0.010416656249987,
          "durationTicks": 12,
          "midi": 37,
          "name": "C#2",
          "ticks": 189120,
          "time": 164.1665025,
          "velocity": 0.44881889763779526
        },
        {
          "duration": 0.010416656250015421,
          "durationTicks": 12,
          "midi": 51,
          "name": "D#3",
          "ticks": 189376,
          "time": 164.3887245,
          "velocity": 0.4409448818897638
        },
        {
          "duration": 0.010416656250015421,
          "durationTicks": 12,
          "midi": 38,
          "name": "D2",
          "ticks": 189376,
          "time": 164.3887245,
          "velocity": 0.06299212598425197
        },
        {
          "duration": 0.010416656250015421,
          "durationTicks": 12,
          "midi": 51,
          "name": "D#3",
          "ticks": 189504,
          "time": 164.4998355,
          "velocity": 0.4409448818897638
        },
        {
          "duration": 0.010416656249987,
          "durationTicks": 12,
          "midi": 37,
          "name": "C#2",
          "ticks": 189888,
          "time": 164.8331685,
          "velocity": 0.44881889763779526
        },
        {
          "duration": 0.010416656249987,
          "durationTicks": 12,
          "midi": 51,
          "name": "D#3",
          "ticks": 189888,
          "time": 164.8331685,
          "velocity": 0.49606299212598426
        },
        {
          "duration": 0.010416656249987,
          "durationTicks": 12,
          "midi": 38,
          "name": "D2",
          "ticks": 190144,
          "time": 165.05539050000002,
          "velocity": 0.06299212598425197
        },
        {
          "duration": 0.010416656249987,
          "durationTicks": 12,
          "midi": 51,
          "name": "D#3",
          "ticks": 190144,
          "time": 165.05539050000002,
          "velocity": 0.4409448818897638
        },
        {
          "duration": 0.010416656250015421,
          "durationTicks": 12,
          "midi": 51,
          "name": "D#3",
          "ticks": 190272,
          "time": 165.16650149999998,
          "velocity": 0.4409448818897638
        },
        {
          "duration": 0.010416656250015421,
          "durationTicks": 12,
          "midi": 51,
          "name": "D#3",
          "ticks": 190656,
          "time": 165.4998345,
          "velocity": 0.5275590551181102
        },
        {
          "duration": 0.010416656250015421,
          "durationTicks": 12,
          "midi": 37,
          "name": "C#2",
          "ticks": 190656,
          "time": 165.4998345,
          "velocity": 0.44881889763779526
        },
        {
          "duration": 0.010416656249987,
          "durationTicks": 12,
          "midi": 51,
          "name": "D#3",
          "ticks": 190912,
          "time": 165.7220565,
          "velocity": 0.4409448818897638
        },
        {
          "duration": 0.010416656249987,
          "durationTicks": 12,
          "midi": 38,
          "name": "D2",
          "ticks": 190912,
          "time": 165.7220565,
          "velocity": 0.06299212598425197
        },
        {
          "duration": 0.010416656249987,
          "durationTicks": 12,
          "midi": 51,
          "name": "D#3",
          "ticks": 191040,
          "time": 165.8331675,
          "velocity": 0.4409448818897638
        },
        {
          "duration": 0.010416656250015421,
          "durationTicks": 12,
          "midi": 37,
          "name": "C#2",
          "ticks": 191424,
          "time": 166.16650049999998,
          "velocity": 0.44881889763779526
        },
        {
          "duration": 0.010416656250015421,
          "durationTicks": 12,
          "midi": 51,
          "name": "D#3",
          "ticks": 191424,
          "time": 166.16650049999998,
          "velocity": 0.49606299212598426
        },
        {
          "duration": 0.010416656250015421,
          "durationTicks": 12,
          "midi": 38,
          "name": "D2",
          "ticks": 191680,
          "time": 166.3887225,
          "velocity": 0.06299212598425197
        },
        {
          "duration": 0.010416656250015421,
          "durationTicks": 12,
          "midi": 51,
          "name": "D#3",
          "ticks": 191680,
          "time": 166.3887225,
          "velocity": 0.4409448818897638
        },
        {
          "duration": 0.010416656249987,
          "durationTicks": 12,
          "midi": 51,
          "name": "D#3",
          "ticks": 191808,
          "time": 166.4998335,
          "velocity": 0.4409448818897638
        },
        {
          "duration": 0.010416656249987,
          "durationTicks": 12,
          "midi": 40,
          "name": "E2",
          "ticks": 191808,
          "time": 166.4998335,
          "velocity": 0.5354330708661418
        },
        {
          "duration": 0.010416656249987,
          "durationTicks": 12,
          "midi": 40,
          "name": "E2",
          "ticks": 192192,
          "time": 166.8331665,
          "velocity": 0.5511811023622047
        },
        {
          "duration": 0.010416656249987,
          "durationTicks": 12,
          "midi": 51,
          "name": "D#3",
          "ticks": 192192,
          "time": 166.8331665,
          "velocity": 0.5275590551181102
        },
        {
          "duration": 0.010416656250015421,
          "durationTicks": 12,
          "midi": 51,
          "name": "D#3",
          "ticks": 192448,
          "time": 167.0553885,
          "velocity": 0.4409448818897638
        },
        {
          "duration": 0.010416656250015421,
          "durationTicks": 12,
          "midi": 40,
          "name": "E2",
          "ticks": 192448,
          "time": 167.0553885,
          "velocity": 0.5590551181102362
        },
        {
          "duration": 0.010416656250015421,
          "durationTicks": 12,
          "midi": 51,
          "name": "D#3",
          "ticks": 192576,
          "time": 167.1664995,
          "velocity": 0.4409448818897638
        },
        {
          "duration": 0.010416656249987,
          "durationTicks": 12,
          "midi": 40,
          "name": "E2",
          "ticks": 192832,
          "time": 167.3887215,
          "velocity": 0.5826771653543307
        },
        {
          "duration": 0.010416656249987,
          "durationTicks": 12,
          "midi": 51,
          "name": "D#3",
          "ticks": 193216,
          "time": 167.7220545,
          "velocity": 0.4409448818897638
        },
        {
          "duration": 0.010416656249987,
          "durationTicks": 12,
          "midi": 38,
          "name": "D2",
          "ticks": 193216,
          "time": 167.7220545,
          "velocity": 0.06299212598425197
        },
        {
          "duration": 0.010416656249987,
          "durationTicks": 12,
          "midi": 51,
          "name": "D#3",
          "ticks": 193344,
          "time": 167.8331655,
          "velocity": 0.4409448818897638
        },
        {
          "duration": 0.010416656250015421,
          "durationTicks": 12,
          "midi": 51,
          "name": "D#3",
          "ticks": 193728,
          "time": 168.1664985,
          "velocity": 0.5275590551181102
        },
        {
          "duration": 0.010416656250015421,
          "durationTicks": 12,
          "midi": 37,
          "name": "C#2",
          "ticks": 193728,
          "time": 168.1664985,
          "velocity": 0.44881889763779526
        },
        {
          "duration": 0.010416656249987,
          "durationTicks": 12,
          "midi": 51,
          "name": "D#3",
          "ticks": 193984,
          "time": 168.3887205,
          "velocity": 0.4409448818897638
        },
        {
          "duration": 0.010416656249987,
          "durationTicks": 12,
          "midi": 38,
          "name": "D2",
          "ticks": 193984,
          "time": 168.3887205,
          "velocity": 0.06299212598425197
        },
        {
          "duration": 0.010416656249987,
          "durationTicks": 12,
          "midi": 51,
          "name": "D#3",
          "ticks": 194112,
          "time": 168.4998315,
          "velocity": 0.4409448818897638
        },
        {
          "duration": 0.010416656250015421,
          "durationTicks": 12,
          "midi": 51,
          "name": "D#3",
          "ticks": 194496,
          "time": 168.83316449999998,
          "velocity": 0.49606299212598426
        },
        {
          "duration": 0.010416656250015421,
          "durationTicks": 12,
          "midi": 37,
          "name": "C#2",
          "ticks": 194496,
          "time": 168.83316449999998,
          "velocity": 0.44881889763779526
        },
        {
          "duration": 0.010416656250015421,
          "durationTicks": 12,
          "midi": 51,
          "name": "D#3",
          "ticks": 194752,
          "time": 169.0553865,
          "velocity": 0.4409448818897638
        },
        {
          "duration": 0.010416656250015421,
          "durationTicks": 12,
          "midi": 38,
          "name": "D2",
          "ticks": 194752,
          "time": 169.0553865,
          "velocity": 0.06299212598425197
        },
        {
          "duration": 0.010416656250015421,
          "durationTicks": 12,
          "midi": 51,
          "name": "D#3",
          "ticks": 194880,
          "time": 169.1664975,
          "velocity": 0.4409448818897638
        },
        {
          "duration": 0.010416656249987,
          "durationTicks": 12,
          "midi": 37,
          "name": "C#2",
          "ticks": 195264,
          "time": 169.4998305,
          "velocity": 0.44881889763779526
        },
        {
          "duration": 0.010416656249987,
          "durationTicks": 12,
          "midi": 51,
          "name": "D#3",
          "ticks": 195264,
          "time": 169.4998305,
          "velocity": 0.5275590551181102
        },
        {
          "duration": 0.010416656250015421,
          "durationTicks": 12,
          "midi": 51,
          "name": "D#3",
          "ticks": 195520,
          "time": 169.7220525,
          "velocity": 0.4409448818897638
        },
        {
          "duration": 0.010416656250015421,
          "durationTicks": 12,
          "midi": 38,
          "name": "D2",
          "ticks": 195520,
          "time": 169.7220525,
          "velocity": 0.6299212598425197
        },
        {
          "duration": 0.010416656250015421,
          "durationTicks": 12,
          "midi": 51,
          "name": "D#3",
          "ticks": 195648,
          "time": 169.83316349999998,
          "velocity": 0.4409448818897638
        },
        {
          "duration": 0.010416656250015421,
          "durationTicks": 12,
          "midi": 51,
          "name": "D#3",
          "ticks": 196032,
          "time": 170.1664965,
          "velocity": 0.49606299212598426
        },
        {
          "duration": 0.010416656250015421,
          "durationTicks": 12,
          "midi": 37,
          "name": "C#2",
          "ticks": 196032,
          "time": 170.1664965,
          "velocity": 0.44881889763779526
        },
        {
          "duration": 0.010416656249987,
          "durationTicks": 12,
          "midi": 40,
          "name": "E2",
          "ticks": 196288,
          "time": 170.3887185,
          "velocity": 0.6771653543307087
        },
        {
          "duration": 0.010416656249987,
          "durationTicks": 12,
          "midi": 51,
          "name": "D#3",
          "ticks": 196288,
          "time": 170.3887185,
          "velocity": 0.4409448818897638
        },
        {
          "duration": 0.010416656249987,
          "durationTicks": 12,
          "midi": 51,
          "name": "D#3",
          "ticks": 196416,
          "time": 170.4998295,
          "velocity": 0.4409448818897638
        },
        {
          "duration": 0.010416656250015421,
          "durationTicks": 12,
          "midi": 51,
          "name": "D#3",
          "ticks": 196800,
          "time": 170.8331625,
          "velocity": 0.5275590551181102
        },
        {
          "duration": 0.010416656250015421,
          "durationTicks": 12,
          "midi": 37,
          "name": "C#2",
          "ticks": 196800,
          "time": 170.8331625,
          "velocity": 0.44881889763779526
        },
        {
          "duration": 0.010416656250015421,
          "durationTicks": 12,
          "midi": 51,
          "name": "D#3",
          "ticks": 197056,
          "time": 171.05538449999997,
          "velocity": 0.4409448818897638
        },
        {
          "duration": 0.010416656250015421,
          "durationTicks": 12,
          "midi": 38,
          "name": "D2",
          "ticks": 197056,
          "time": 171.05538449999997,
          "velocity": 0.06299212598425197
        },
        {
          "duration": 0.010416656249987,
          "durationTicks": 12,
          "midi": 51,
          "name": "D#3",
          "ticks": 197184,
          "time": 171.1664955,
          "velocity": 0.4409448818897638
        },
        {
          "duration": 0.010416656249987,
          "durationTicks": 12,
          "midi": 51,
          "name": "D#3",
          "ticks": 197568,
          "time": 171.4998285,
          "velocity": 0.49606299212598426
        },
        {
          "duration": 0.010416656249987,
          "durationTicks": 12,
          "midi": 37,
          "name": "C#2",
          "ticks": 197568,
          "time": 171.4998285,
          "velocity": 0.44881889763779526
        },
        {
          "duration": 0.010416656249987,
          "durationTicks": 12,
          "midi": 51,
          "name": "D#3",
          "ticks": 197824,
          "time": 171.7220505,
          "velocity": 0.4409448818897638
        },
        {
          "duration": 0.010416656249987,
          "durationTicks": 12,
          "midi": 40,
          "name": "E2",
          "ticks": 197824,
          "time": 171.7220505,
          "velocity": 0.6062992125984252
        },
        {
          "duration": 0.010416656250015421,
          "durationTicks": 12,
          "midi": 51,
          "name": "D#3",
          "ticks": 197952,
          "time": 171.8331615,
          "velocity": 0.4409448818897638
        },
        {
          "duration": 0.010416656249987,
          "durationTicks": 12,
          "midi": 51,
          "name": "D#3",
          "ticks": 198336,
          "time": 172.1664945,
          "velocity": 0.5275590551181102
        },
        {
          "duration": 0.010416656249987,
          "durationTicks": 12,
          "midi": 37,
          "name": "C#2",
          "ticks": 198336,
          "time": 172.1664945,
          "velocity": 0.44881889763779526
        },
        {
          "duration": 0.010416656249987,
          "durationTicks": 12,
          "midi": 38,
          "name": "D2",
          "ticks": 198592,
          "time": 172.3887165,
          "velocity": 0.06299212598425197
        },
        {
          "duration": 0.010416656249987,
          "durationTicks": 12,
          "midi": 51,
          "name": "D#3",
          "ticks": 198592,
          "time": 172.3887165,
          "velocity": 0.4409448818897638
        },
        {
          "duration": 0.010416656249987,
          "durationTicks": 12,
          "midi": 51,
          "name": "D#3",
          "ticks": 198720,
          "time": 172.4998275,
          "velocity": 0.4409448818897638
        },
        {
          "duration": 0.010416656250015421,
          "durationTicks": 12,
          "midi": 51,
          "name": "D#3",
          "ticks": 199104,
          "time": 172.8331605,
          "velocity": 0.49606299212598426
        },
        {
          "duration": 0.010416656250015421,
          "durationTicks": 12,
          "midi": 37,
          "name": "C#2",
          "ticks": 199104,
          "time": 172.8331605,
          "velocity": 0.44881889763779526
        },
        {
          "duration": 0.010416656250015421,
          "durationTicks": 12,
          "midi": 38,
          "name": "D2",
          "ticks": 199360,
          "time": 173.05538249999998,
          "velocity": 0.06299212598425197
        },
        {
          "duration": 0.010416656250015421,
          "durationTicks": 12,
          "midi": 51,
          "name": "D#3",
          "ticks": 199360,
          "time": 173.05538249999998,
          "velocity": 0.4409448818897638
        },
        {
          "duration": 0.010416656249987,
          "durationTicks": 12,
          "midi": 49,
          "name": "C#3",
          "ticks": 199488,
          "time": 173.1664935,
          "velocity": 0.5590551181102362
        },
        {
          "duration": 0.010416656249987,
          "durationTicks": 12,
          "midi": 38,
          "name": "D2",
          "ticks": 199744,
          "time": 173.3887155,
          "velocity": 0.6299212598425197
        },
        {
          "duration": 0.010416656250015421,
          "durationTicks": 12,
          "midi": 37,
          "name": "C#2",
          "ticks": 199872,
          "time": 173.49982649999998,
          "velocity": 0.44881889763779526
        },
        {
          "duration": 0.010416656250015421,
          "durationTicks": 12,
          "midi": 51,
          "name": "D#3",
          "ticks": 199872,
          "time": 173.49982649999998,
          "velocity": 0.5275590551181102
        },
        {
          "duration": 0.010416656250015421,
          "durationTicks": 12,
          "midi": 38,
          "name": "D2",
          "ticks": 200128,
          "time": 173.72204849999997,
          "velocity": 0.06299212598425197
        },
        {
          "duration": 0.010416656250015421,
          "durationTicks": 12,
          "midi": 51,
          "name": "D#3",
          "ticks": 200128,
          "time": 173.72204849999997,
          "velocity": 0.4409448818897638
        },
        {
          "duration": 0.010416656250015421,
          "durationTicks": 12,
          "midi": 51,
          "name": "D#3",
          "ticks": 200256,
          "time": 173.8331595,
          "velocity": 0.4409448818897638
        },
        {
          "duration": 0.010416656249987,
          "durationTicks": 12,
          "midi": 37,
          "name": "C#2",
          "ticks": 200640,
          "time": 174.1664925,
          "velocity": 0.44881889763779526
        },
        {
          "duration": 0.010416656249987,
          "durationTicks": 12,
          "midi": 51,
          "name": "D#3",
          "ticks": 200640,
          "time": 174.1664925,
          "velocity": 0.49606299212598426
        },
        {
          "duration": 0.010416656249987,
          "durationTicks": 12,
          "midi": 51,
          "name": "D#3",
          "ticks": 200896,
          "time": 174.3887145,
          "velocity": 0.4409448818897638
        },
        {
          "duration": 0.010416656249987,
          "durationTicks": 12,
          "midi": 38,
          "name": "D2",
          "ticks": 200896,
          "time": 174.3887145,
          "velocity": 0.06299212598425197
        },
        {
          "duration": 0.010416656250015421,
          "durationTicks": 12,
          "midi": 51,
          "name": "D#3",
          "ticks": 201024,
          "time": 174.4998255,
          "velocity": 0.4409448818897638
        },
        {
          "duration": 0.010416656249987,
          "durationTicks": 12,
          "midi": 37,
          "name": "C#2",
          "ticks": 201408,
          "time": 174.8331585,
          "velocity": 0.44881889763779526
        },
        {
          "duration": 0.010416656249987,
          "durationTicks": 12,
          "midi": 51,
          "name": "D#3",
          "ticks": 201408,
          "time": 174.8331585,
          "velocity": 0.5275590551181102
        },
        {
          "duration": 0.010416656249987,
          "durationTicks": 12,
          "midi": 38,
          "name": "D2",
          "ticks": 201664,
          "time": 175.05538049999998,
          "velocity": 0.06299212598425197
        },
        {
          "duration": 0.010416656249987,
          "durationTicks": 12,
          "midi": 51,
          "name": "D#3",
          "ticks": 201664,
          "time": 175.05538049999998,
          "velocity": 0.4409448818897638
        },
        {
          "duration": 0.010416656249987,
          "durationTicks": 12,
          "midi": 51,
          "name": "D#3",
          "ticks": 201792,
          "time": 175.1664915,
          "velocity": 0.4409448818897638
        },
        {
          "duration": 0.010416656250015421,
          "durationTicks": 12,
          "midi": 37,
          "name": "C#2",
          "ticks": 202176,
          "time": 175.4998245,
          "velocity": 0.44881889763779526
        },
        {
          "duration": 0.010416656250015421,
          "durationTicks": 12,
          "midi": 51,
          "name": "D#3",
          "ticks": 202176,
          "time": 175.4998245,
          "velocity": 0.49606299212598426
        },
        {
          "duration": 0.010416656250015421,
          "durationTicks": 12,
          "midi": 51,
          "name": "D#3",
          "ticks": 202432,
          "time": 175.72204649999998,
          "velocity": 0.4409448818897638
        },
        {
          "duration": 0.010416656250015421,
          "durationTicks": 12,
          "midi": 38,
          "name": "D2",
          "ticks": 202432,
          "time": 175.72204649999998,
          "velocity": 0.06299212598425197
        },
        {
          "duration": 0.010416656249987,
          "durationTicks": 12,
          "midi": 51,
          "name": "D#3",
          "ticks": 202560,
          "time": 175.8331575,
          "velocity": 0.4409448818897638
        },
        {
          "duration": 0.010416656249987,
          "durationTicks": 12,
          "midi": 37,
          "name": "C#2",
          "ticks": 202944,
          "time": 176.1664905,
          "velocity": 0.44881889763779526
        },
        {
          "duration": 0.010416656249987,
          "durationTicks": 12,
          "midi": 51,
          "name": "D#3",
          "ticks": 202944,
          "time": 176.1664905,
          "velocity": 0.5275590551181102
        },
        {
          "duration": 0.010416656250015421,
          "durationTicks": 12,
          "midi": 38,
          "name": "D2",
          "ticks": 203200,
          "time": 176.38871249999997,
          "velocity": 0.06299212598425197
        },
        {
          "duration": 0.010416656250015421,
          "durationTicks": 12,
          "midi": 51,
          "name": "D#3",
          "ticks": 203200,
          "time": 176.38871249999997,
          "velocity": 0.4409448818897638
        },
        {
          "duration": 0.010416656250015421,
          "durationTicks": 12,
          "midi": 51,
          "name": "D#3",
          "ticks": 203328,
          "time": 176.4998235,
          "velocity": 0.4409448818897638
        },
        {
          "duration": 0.010416656249987,
          "durationTicks": 12,
          "midi": 37,
          "name": "C#2",
          "ticks": 203712,
          "time": 176.8331565,
          "velocity": 0.44881889763779526
        },
        {
          "duration": 0.010416656249987,
          "durationTicks": 12,
          "midi": 51,
          "name": "D#3",
          "ticks": 203712,
          "time": 176.8331565,
          "velocity": 0.49606299212598426
        },
        {
          "duration": 0.010416656249987,
          "durationTicks": 12,
          "midi": 38,
          "name": "D2",
          "ticks": 203968,
          "time": 177.0553785,
          "velocity": 0.06299212598425197
        },
        {
          "duration": 0.010416656249987,
          "durationTicks": 12,
          "midi": 51,
          "name": "D#3",
          "ticks": 203968,
          "time": 177.0553785,
          "velocity": 0.4409448818897638
        },
        {
          "duration": 0.010416656250015421,
          "durationTicks": 12,
          "midi": 51,
          "name": "D#3",
          "ticks": 204096,
          "time": 177.16648949999998,
          "velocity": 0.4409448818897638
        },
        {
          "duration": 0.010416656250015421,
          "durationTicks": 12,
          "midi": 37,
          "name": "C#2",
          "ticks": 204480,
          "time": 177.4998225,
          "velocity": 0.44881889763779526
        },
        {
          "duration": 0.010416656250015421,
          "durationTicks": 12,
          "midi": 51,
          "name": "D#3",
          "ticks": 204480,
          "time": 177.4998225,
          "velocity": 0.5275590551181102
        },
        {
          "duration": 0.010416656249987,
          "durationTicks": 12,
          "midi": 51,
          "name": "D#3",
          "ticks": 204736,
          "time": 177.72204449999998,
          "velocity": 0.4409448818897638
        },
        {
          "duration": 0.010416656249987,
          "durationTicks": 12,
          "midi": 38,
          "name": "D2",
          "ticks": 204736,
          "time": 177.72204449999998,
          "velocity": 0.06299212598425197
        },
        {
          "duration": 0.010416656249987,
          "durationTicks": 12,
          "midi": 51,
          "name": "D#3",
          "ticks": 204864,
          "time": 177.8331555,
          "velocity": 0.4409448818897638
        },
        {
          "duration": 0.010416656250015421,
          "durationTicks": 12,
          "midi": 37,
          "name": "C#2",
          "ticks": 205248,
          "time": 178.16648849999999,
          "velocity": 0.44881889763779526
        },
        {
          "duration": 0.010416656250015421,
          "durationTicks": 12,
          "midi": 51,
          "name": "D#3",
          "ticks": 205248,
          "time": 178.16648849999999,
          "velocity": 0.49606299212598426
        },
        {
          "duration": 0.010416656250015421,
          "durationTicks": 12,
          "midi": 38,
          "name": "D2",
          "ticks": 205504,
          "time": 178.38871049999997,
          "velocity": 0.06299212598425197
        },
        {
          "duration": 0.010416656250015421,
          "durationTicks": 12,
          "midi": 51,
          "name": "D#3",
          "ticks": 205504,
          "time": 178.38871049999997,
          "velocity": 0.4409448818897638
        },
        {
          "duration": 0.010416656249987,
          "durationTicks": 12,
          "midi": 51,
          "name": "D#3",
          "ticks": 205632,
          "time": 178.4998215,
          "velocity": 0.4409448818897638
        },
        {
          "duration": 0.010416656249987,
          "durationTicks": 12,
          "midi": 51,
          "name": "D#3",
          "ticks": 206016,
          "time": 178.8331545,
          "velocity": 0.5275590551181102
        },
        {
          "duration": 0.010416656249987,
          "durationTicks": 12,
          "midi": 37,
          "name": "C#2",
          "ticks": 206016,
          "time": 178.8331545,
          "velocity": 0.44881889763779526
        },
        {
          "duration": 0.010416656249987,
          "durationTicks": 12,
          "midi": 51,
          "name": "D#3",
          "ticks": 206272,
          "time": 179.0553765,
          "velocity": 0.4409448818897638
        },
        {
          "duration": 0.010416656249987,
          "durationTicks": 12,
          "midi": 38,
          "name": "D2",
          "ticks": 206272,
          "time": 179.0553765,
          "velocity": 0.06299212598425197
        },
        {
          "duration": 0.010416656250015421,
          "durationTicks": 12,
          "midi": 51,
          "name": "D#3",
          "ticks": 206400,
          "time": 179.1664875,
          "velocity": 0.4409448818897638
        },
        {
          "duration": 0.010416656249987,
          "durationTicks": 12,
          "midi": 37,
          "name": "C#2",
          "ticks": 206784,
          "time": 179.4998205,
          "velocity": 0.44881889763779526
        },
        {
          "duration": 0.010416656249987,
          "durationTicks": 12,
          "midi": 51,
          "name": "D#3",
          "ticks": 206784,
          "time": 179.4998205,
          "velocity": 0.49606299212598426
        },
        {
          "duration": 0.010416656249987,
          "durationTicks": 12,
          "midi": 51,
          "name": "D#3",
          "ticks": 207040,
          "time": 179.7220425,
          "velocity": 0.4409448818897638
        },
        {
          "duration": 0.010416656249987,
          "durationTicks": 12,
          "midi": 38,
          "name": "D2",
          "ticks": 207040,
          "time": 179.7220425,
          "velocity": 0.06299212598425197
        },
        {
          "duration": 0.010416656249987,
          "durationTicks": 12,
          "midi": 51,
          "name": "D#3",
          "ticks": 207168,
          "time": 179.8331535,
          "velocity": 0.4409448818897638
        },
        {
          "duration": 0.010416656250015421,
          "durationTicks": 12,
          "midi": 51,
          "name": "D#3",
          "ticks": 207552,
          "time": 180.1664865,
          "velocity": 0.5275590551181102
        },
        {
          "duration": 0.010416656250015421,
          "durationTicks": 12,
          "midi": 37,
          "name": "C#2",
          "ticks": 207552,
          "time": 180.1664865,
          "velocity": 0.44881889763779526
        },
        {
          "duration": 0.010416656250015421,
          "durationTicks": 12,
          "midi": 38,
          "name": "D2",
          "ticks": 207808,
          "time": 180.38870849999998,
          "velocity": 0.06299212598425197
        },
        {
          "duration": 0.010416656250015421,
          "durationTicks": 12,
          "midi": 51,
          "name": "D#3",
          "ticks": 207808,
          "time": 180.38870849999998,
          "velocity": 0.4409448818897638
        },
        {
          "duration": 0.010416656249987,
          "durationTicks": 12,
          "midi": 51,
          "name": "D#3",
          "ticks": 207936,
          "time": 180.4998195,
          "velocity": 0.4409448818897638
        },
        {
          "duration": 0.010416656250015421,
          "durationTicks": 12,
          "midi": 51,
          "name": "D#3",
          "ticks": 208320,
          "time": 180.83315249999998,
          "velocity": 0.49606299212598426
        },
        {
          "duration": 0.010416656250015421,
          "durationTicks": 12,
          "midi": 37,
          "name": "C#2",
          "ticks": 208320,
          "time": 180.83315249999998,
          "velocity": 0.44881889763779526
        },
        {
          "duration": 0.010416656250015421,
          "durationTicks": 12,
          "midi": 51,
          "name": "D#3",
          "ticks": 208576,
          "time": 181.05537449999997,
          "velocity": 0.4409448818897638
        },
        {
          "duration": 0.010416656250015421,
          "durationTicks": 12,
          "midi": 38,
          "name": "D2",
          "ticks": 208576,
          "time": 181.05537449999997,
          "velocity": 0.06299212598425197
        },
        {
          "duration": 0.010416656250015421,
          "durationTicks": 12,
          "midi": 51,
          "name": "D#3",
          "ticks": 208704,
          "time": 181.1664855,
          "velocity": 0.4409448818897638
        },
        {
          "duration": 0.010416656249987,
          "durationTicks": 12,
          "midi": 38,
          "name": "D2",
          "ticks": 208960,
          "time": 181.38870749999998,
          "velocity": 0.6299212598425197
        },
        {
          "duration": 0.010416656249987,
          "durationTicks": 12,
          "midi": 51,
          "name": "D#3",
          "ticks": 209088,
          "time": 181.4998185,
          "velocity": 0.5275590551181102
        },
        {
          "duration": 0.010416656249987,
          "durationTicks": 12,
          "midi": 37,
          "name": "C#2",
          "ticks": 209088,
          "time": 181.4998185,
          "velocity": 0.44881889763779526
        },
        {
          "duration": 0.010416656249987,
          "durationTicks": 12,
          "midi": 51,
          "name": "D#3",
          "ticks": 209344,
          "time": 181.7220405,
          "velocity": 0.4409448818897638
        },
        {
          "duration": 0.010416656250015421,
          "durationTicks": 12,
          "midi": 38,
          "name": "D2",
          "ticks": 209472,
          "time": 181.83315149999999,
          "velocity": 0.5590551181102362
        },
        {
          "duration": 0.010416656250015421,
          "durationTicks": 12,
          "midi": 51,
          "name": "D#3",
          "ticks": 209472,
          "time": 181.83315149999999,
          "velocity": 0.4409448818897638
        },
        {
          "duration": 0.010416656249987,
          "durationTicks": 12,
          "midi": 37,
          "name": "C#2",
          "ticks": 209856,
          "time": 182.1664845,
          "velocity": 0.44881889763779526
        },
        {
          "duration": 0.010416656249987,
          "durationTicks": 12,
          "midi": 51,
          "name": "D#3",
          "ticks": 209856,
          "time": 182.1664845,
          "velocity": 0.49606299212598426
        },
        {
          "duration": 0.010416656249987,
          "durationTicks": 12,
          "midi": 38,
          "name": "D2",
          "ticks": 210112,
          "time": 182.38870649999998,
          "velocity": 0.06299212598425197
        },
        {
          "duration": 0.010416656249987,
          "durationTicks": 12,
          "midi": 51,
          "name": "D#3",
          "ticks": 210112,
          "time": 182.38870649999998,
          "velocity": 0.4409448818897638
        },
        {
          "duration": 0.010416656249987,
          "durationTicks": 12,
          "midi": 51,
          "name": "D#3",
          "ticks": 210240,
          "time": 182.4998175,
          "velocity": 0.4409448818897638
        },
        {
          "duration": 0.010416656249987,
          "durationTicks": 12,
          "midi": 38,
          "name": "D2",
          "ticks": 210496,
          "time": 182.7220395,
          "velocity": 0.5590551181102362
        },
        {
          "duration": 0.010416656250015421,
          "durationTicks": 12,
          "midi": 37,
          "name": "C#2",
          "ticks": 210624,
          "time": 182.8331505,
          "velocity": 0.44881889763779526
        },
        {
          "duration": 0.010416656250015421,
          "durationTicks": 12,
          "midi": 51,
          "name": "D#3",
          "ticks": 210624,
          "time": 182.8331505,
          "velocity": 0.5275590551181102
        },
        {
          "duration": 0.010416656250015421,
          "durationTicks": 12,
          "midi": 38,
          "name": "D2",
          "ticks": 210880,
          "time": 183.05537249999998,
          "velocity": 0.06299212598425197
        },
        {
          "duration": 0.010416656250015421,
          "durationTicks": 12,
          "midi": 51,
          "name": "D#3",
          "ticks": 210880,
          "time": 183.05537249999998,
          "velocity": 0.4409448818897638
        },
        {
          "duration": 0.010416656249987,
          "durationTicks": 12,
          "midi": 38,
          "name": "D2",
          "ticks": 211008,
          "time": 183.1664835,
          "velocity": 0.5590551181102362
        },
        {
          "duration": 0.010416656249987,
          "durationTicks": 12,
          "midi": 51,
          "name": "D#3",
          "ticks": 211008,
          "time": 183.1664835,
          "velocity": 0.4409448818897638
        },
        {
          "duration": 0.010416656249987,
          "durationTicks": 12,
          "midi": 37,
          "name": "C#2",
          "ticks": 211392,
          "time": 183.4998165,
          "velocity": 0.44881889763779526
        },
        {
          "duration": 0.010416656249987,
          "durationTicks": 12,
          "midi": 51,
          "name": "D#3",
          "ticks": 211392,
          "time": 183.4998165,
          "velocity": 0.49606299212598426
        },
        {
          "duration": 0.010416656250015421,
          "durationTicks": 12,
          "midi": 38,
          "name": "D2",
          "ticks": 211648,
          "time": 183.72203849999997,
          "velocity": 0.06299212598425197
        },
        {
          "duration": 0.010416656250015421,
          "durationTicks": 12,
          "midi": 51,
          "name": "D#3",
          "ticks": 211648,
          "time": 183.72203849999997,
          "velocity": 0.4409448818897638
        },
        {
          "duration": 0.010416656250015421,
          "durationTicks": 12,
          "midi": 51,
          "name": "D#3",
          "ticks": 211776,
          "time": 183.8331495,
          "velocity": 0.4409448818897638
        },
        {
          "duration": 0.010416656250015421,
          "durationTicks": 12,
          "midi": 38,
          "name": "D2",
          "ticks": 212032,
          "time": 184.05537149999998,
          "velocity": 0.5590551181102362
        },
        {
          "duration": 0.010416656249987,
          "durationTicks": 12,
          "midi": 37,
          "name": "C#2",
          "ticks": 212160,
          "time": 184.1664825,
          "velocity": 0.44881889763779526
        },
        {
          "duration": 0.010416656249987,
          "durationTicks": 12,
          "midi": 51,
          "name": "D#3",
          "ticks": 212160,
          "time": 184.1664825,
          "velocity": 0.5275590551181102
        },
        {
          "duration": 0.010416656249987,
          "durationTicks": 12,
          "midi": 38,
          "name": "D2",
          "ticks": 212416,
          "time": 184.3887045,
          "velocity": 0.06299212598425197
        },
        {
          "duration": 0.010416656249987,
          "durationTicks": 12,
          "midi": 51,
          "name": "D#3",
          "ticks": 212416,
          "time": 184.3887045,
          "velocity": 0.4409448818897638
        },
        {
          "duration": 0.010416656250015421,
          "durationTicks": 12,
          "midi": 38,
          "name": "D2",
          "ticks": 212544,
          "time": 184.49981549999998,
          "velocity": 0.5590551181102362
        },
        {
          "duration": 0.010416656250015421,
          "durationTicks": 12,
          "midi": 51,
          "name": "D#3",
          "ticks": 212544,
          "time": 184.49981549999998,
          "velocity": 0.4409448818897638
        },
        {
          "duration": 0.010416656250015421,
          "durationTicks": 12,
          "midi": 51,
          "name": "D#3",
          "ticks": 212928,
          "time": 184.8331485,
          "velocity": 0.49606299212598426
        },
        {
          "duration": 0.010416656250015421,
          "durationTicks": 12,
          "midi": 37,
          "name": "C#2",
          "ticks": 212928,
          "time": 184.8331485,
          "velocity": 0.44881889763779526
        },
        {
          "duration": 0.010416656249987,
          "durationTicks": 12,
          "midi": 38,
          "name": "D2",
          "ticks": 213184,
          "time": 185.05537049999998,
          "velocity": 0.06299212598425197
        },
        {
          "duration": 0.010416656249987,
          "durationTicks": 12,
          "midi": 51,
          "name": "D#3",
          "ticks": 213184,
          "time": 185.05537049999998,
          "velocity": 0.4409448818897638
        },
        {
          "duration": 0.010416656249987,
          "durationTicks": 12,
          "midi": 51,
          "name": "D#3",
          "ticks": 213312,
          "time": 185.1664815,
          "velocity": 0.4409448818897638
        },
        {
          "duration": 0.010416656250015421,
          "durationTicks": 12,
          "midi": 51,
          "name": "D#3",
          "ticks": 213696,
          "time": 185.49981449999999,
          "velocity": 0.5275590551181102
        },
        {
          "duration": 0.010416656250015421,
          "durationTicks": 12,
          "midi": 37,
          "name": "C#2",
          "ticks": 213696,
          "time": 185.49981449999999,
          "velocity": 0.44881889763779526
        },
        {
          "duration": 0.010416656250015421,
          "durationTicks": 12,
          "midi": 38,
          "name": "D2",
          "ticks": 213952,
          "time": 185.72203649999997,
          "velocity": 0.06299212598425197
        },
        {
          "duration": 0.010416656250015421,
          "durationTicks": 12,
          "midi": 51,
          "name": "D#3",
          "ticks": 213952,
          "time": 185.72203649999997,
          "velocity": 0.4409448818897638
        },
        {
          "duration": 0.010416656249987,
          "durationTicks": 12,
          "midi": 51,
          "name": "D#3",
          "ticks": 214080,
          "time": 185.8331475,
          "velocity": 0.4409448818897638
        },
        {
          "duration": 0.010416656249987,
          "durationTicks": 12,
          "midi": 38,
          "name": "D2",
          "ticks": 214336,
          "time": 186.05536949999998,
          "velocity": 0.6299212598425197
        },
        {
          "duration": 0.010416656249987,
          "durationTicks": 12,
          "midi": 37,
          "name": "C#2",
          "ticks": 214464,
          "time": 186.1664805,
          "velocity": 0.44881889763779526
        },
        {
          "duration": 0.010416656249987,
          "durationTicks": 12,
          "midi": 51,
          "name": "D#3",
          "ticks": 214464,
          "time": 186.1664805,
          "velocity": 0.49606299212598426
        },
        {
          "duration": 0.010416656249987,
          "durationTicks": 12,
          "midi": 51,
          "name": "D#3",
          "ticks": 214720,
          "time": 186.3887025,
          "velocity": 0.4409448818897638
        },
        {
          "duration": 0.010416656249987,
          "durationTicks": 12,
          "midi": 38,
          "name": "D2",
          "ticks": 214720,
          "time": 186.3887025,
          "velocity": 0.06299212598425197
        },
        {
          "duration": 0.010416656250015421,
          "durationTicks": 12,
          "midi": 51,
          "name": "D#3",
          "ticks": 214848,
          "time": 186.4998135,
          "velocity": 0.4409448818897638
        },
        {
          "duration": 0.010416656250015421,
          "durationTicks": 12,
          "midi": 38,
          "name": "D2",
          "ticks": 215104,
          "time": 186.72203549999998,
          "velocity": 0.5590551181102362
        },
        {
          "duration": 0.010416656250015421,
          "durationTicks": 12,
          "midi": 35,
          "name": "B1",
          "ticks": 215104,
          "time": 186.72203549999998,
          "velocity": 0.5590551181102362
        },
        {
          "duration": 0.010416656249987,
          "durationTicks": 12,
          "midi": 37,
          "name": "C#2",
          "ticks": 215232,
          "time": 186.8331465,
          "velocity": 0.44881889763779526
        },
        {
          "duration": 0.010416656249987,
          "durationTicks": 12,
          "midi": 51,
          "name": "D#3",
          "ticks": 215232,
          "time": 186.8331465,
          "velocity": 0.5275590551181102
        },
        {
          "duration": 0.010416656249987,
          "durationTicks": 12,
          "midi": 51,
          "name": "D#3",
          "ticks": 215488,
          "time": 187.0553685,
          "velocity": 0.4409448818897638
        },
        {
          "duration": 0.010416656249987,
          "durationTicks": 12,
          "midi": 51,
          "name": "D#3",
          "ticks": 215616,
          "time": 187.1664795,
          "velocity": 0.4409448818897638
        },
        {
          "duration": 0.010416656249987,
          "durationTicks": 12,
          "midi": 38,
          "name": "D2",
          "ticks": 215616,
          "time": 187.1664795,
          "velocity": 0.5590551181102362
        },
        {
          "duration": 0.010416656249987,
          "durationTicks": 12,
          "midi": 35,
          "name": "B1",
          "ticks": 215616,
          "time": 187.1664795,
          "velocity": 0.5590551181102362
        },
        {
          "duration": 0.010416656250015421,
          "durationTicks": 12,
          "midi": 35,
          "name": "B1",
          "ticks": 216000,
          "time": 187.4998125,
          "velocity": 0.5590551181102362
        },
        {
          "duration": 0.010416656250015421,
          "durationTicks": 12,
          "midi": 38,
          "name": "D2",
          "ticks": 216000,
          "time": 187.4998125,
          "velocity": 0.5590551181102362
        },
        {
          "duration": 0.010416656250015421,
          "durationTicks": 12,
          "midi": 51,
          "name": "D#3",
          "ticks": 216000,
          "time": 187.4998125,
          "velocity": 0.49606299212598426
        },
        {
          "duration": 0.010416656250015421,
          "durationTicks": 12,
          "midi": 51,
          "name": "D#3",
          "ticks": 216256,
          "time": 187.72203449999998,
          "velocity": 0.4409448818897638
        },
        {
          "duration": 0.010416656250015421,
          "durationTicks": 12,
          "midi": 38,
          "name": "D2",
          "ticks": 216256,
          "time": 187.72203449999998,
          "velocity": 0.06299212598425197
        },
        {
          "duration": 0.010416656249987,
          "durationTicks": 12,
          "midi": 35,
          "name": "B1",
          "ticks": 216384,
          "time": 187.8331455,
          "velocity": 0.5590551181102362
        },
        {
          "duration": 0.010416656249987,
          "durationTicks": 12,
          "midi": 51,
          "name": "D#3",
          "ticks": 216384,
          "time": 187.8331455,
          "velocity": 0.4409448818897638
        },
        {
          "duration": 0.010416656249987,
          "durationTicks": 12,
          "midi": 40,
          "name": "E2",
          "ticks": 216384,
          "time": 187.8331455,
          "velocity": 0.5590551181102362
        },
        {
          "duration": 0.010416656250015421,
          "durationTicks": 12,
          "midi": 40,
          "name": "E2",
          "ticks": 216768,
          "time": 188.16647849999998,
          "velocity": 0.5590551181102362
        },
        {
          "duration": 0.010416656250015421,
          "durationTicks": 12,
          "midi": 35,
          "name": "B1",
          "ticks": 216768,
          "time": 188.16647849999998,
          "velocity": 0.5590551181102362
        },
        {
          "duration": 0.010416656250015421,
          "durationTicks": 12,
          "midi": 51,
          "name": "D#3",
          "ticks": 216768,
          "time": 188.16647849999998,
          "velocity": 0.5275590551181102
        },
        {
          "duration": 0.010416656250015421,
          "durationTicks": 12,
          "midi": 38,
          "name": "D2",
          "ticks": 217024,
          "time": 188.38870049999997,
          "velocity": 0.06299212598425197
        },
        {
          "duration": 0.010416656250015421,
          "durationTicks": 12,
          "midi": 51,
          "name": "D#3",
          "ticks": 217024,
          "time": 188.38870049999997,
          "velocity": 0.4409448818897638
        },
        {
          "duration": 0.010416656250015421,
          "durationTicks": 12,
          "midi": 35,
          "name": "B1",
          "ticks": 217152,
          "time": 188.4998115,
          "velocity": 0.5590551181102362
        },
        {
          "duration": 0.010416656250015421,
          "durationTicks": 12,
          "midi": 51,
          "name": "D#3",
          "ticks": 217152,
          "time": 188.4998115,
          "velocity": 0.4409448818897638
        },
        {
          "duration": 0.010416656250015421,
          "durationTicks": 12,
          "midi": 40,
          "name": "E2",
          "ticks": 217152,
          "time": 188.4998115,
          "velocity": 0.5590551181102362
        },
        {
          "duration": 0.010416656249987,
          "durationTicks": 12,
          "midi": 40,
          "name": "E2",
          "ticks": 217536,
          "time": 188.8331445,
          "velocity": 0.5590551181102362
        },
        {
          "duration": 0.010416656249987,
          "durationTicks": 12,
          "midi": 35,
          "name": "B1",
          "ticks": 217536,
          "time": 188.8331445,
          "velocity": 0.5590551181102362
        },
        {
          "duration": 0.010416656249987,
          "durationTicks": 12,
          "midi": 51,
          "name": "D#3",
          "ticks": 217536,
          "time": 188.8331445,
          "velocity": 0.49606299212598426
        },
        {
          "duration": 0.010416656249987,
          "durationTicks": 12,
          "midi": 51,
          "name": "D#3",
          "ticks": 217792,
          "time": 189.0553665,
          "velocity": 0.4409448818897638
        },
        {
          "duration": 0.010416656249987,
          "durationTicks": 12,
          "midi": 38,
          "name": "D2",
          "ticks": 217792,
          "time": 189.0553665,
          "velocity": 0.06299212598425197
        },
        {
          "duration": 0.010416656250015421,
          "durationTicks": 12,
          "midi": 51,
          "name": "D#3",
          "ticks": 217920,
          "time": 189.16647749999998,
          "velocity": 0.3858267716535433
        },
        {
          "duration": 0.010416656249987,
          "durationTicks": 12,
          "midi": 37,
          "name": "C#2",
          "ticks": 218304,
          "time": 189.4998105,
          "velocity": 0.5590551181102362
        },
        {
          "duration": 0.010416656249987,
          "durationTicks": 12,
          "midi": 51,
          "name": "D#3",
          "ticks": 218304,
          "time": 189.4998105,
          "velocity": 0.4409448818897638
        },
        {
          "duration": 0.010416656249987,
          "durationTicks": 12,
          "midi": 40,
          "name": "E2",
          "ticks": 218688,
          "time": 189.8331435,
          "velocity": 0.5590551181102362
        },
        {
          "duration": 0.010416656249987,
          "durationTicks": 12,
          "midi": 49,
          "name": "C#3",
          "ticks": 218688,
          "time": 189.8331435,
          "velocity": 0.4881889763779528
        },
        {
          "duration": 0.010416656249987,
          "durationTicks": 12,
          "midi": 38,
          "name": "D2",
          "ticks": 218944,
          "time": 190.0553655,
          "velocity": 0.5590551181102362
        },
        {
          "duration": 0.010416656250015421,
          "durationTicks": 12,
          "midi": 48,
          "name": "C3",
          "ticks": 219072,
          "time": 190.1664765,
          "velocity": 0.4881889763779528
        },
        {
          "duration": 0.010416656250015421,
          "durationTicks": 12,
          "midi": 36,
          "name": "C2",
          "ticks": 219328,
          "time": 190.38869849999998,
          "velocity": 0.41732283464566927
        },
        {
          "duration": 0.010416656250015421,
          "durationTicks": 12,
          "midi": 49,
          "name": "C#3",
          "ticks": 219328,
          "time": 190.38869849999998,
          "velocity": 0.6299212598425197
        },
        {
          "duration": 0.010416656249987,
          "durationTicks": 12,
          "midi": 40,
          "name": "E2",
          "ticks": 219456,
          "time": 190.4998095,
          "velocity": 0.5354330708661418
        },
        {
          "duration": 0.010416656249987,
          "durationTicks": 12,
          "midi": 35,
          "name": "B1",
          "ticks": 219456,
          "time": 190.4998095,
          "velocity": 0.5354330708661418
        },
        {
          "duration": 0.010416656250015421,
          "durationTicks": 12,
          "midi": 35,
          "name": "B1",
          "ticks": 220092,
          "time": 191.05189228125,
          "velocity": 0.5590551181102362
        },
        {
          "duration": 0.010416656250015421,
          "durationTicks": 12,
          "midi": 40,
          "name": "E2",
          "ticks": 220092,
          "time": 191.05189228125,
          "velocity": 0.5590551181102362
        },
        {
          "duration": 0.010416656250015421,
          "durationTicks": 12,
          "midi": 40,
          "name": "E2",
          "ticks": 220604,
          "time": 191.49633628125,
          "velocity": 0.5826771653543307
        },
        {
          "duration": 0.010416656250015421,
          "durationTicks": 12,
          "midi": 35,
          "name": "B1",
          "ticks": 220604,
          "time": 191.49633628125,
          "velocity": 0.5826771653543307
        }
      ]
    },
    {
      "channel": 10,
      "controlChanges": {
        "0": [
          {
            "number": 0,
            "ticks": 584,
            "time": 0.5069439375,
            "value": 0
          }
        ],
        "6": [
          {
            "number": 6,
            "ticks": 1284,
            "time": 1.11458221875,
            "value": 0.015748031496062992
          },
          {
            "number": 6,
            "ticks": 1296,
            "time": 1.124998875,
            "value": 0.5039370078740157
          }
        ],
        "7": [
          {
            "number": 7,
            "ticks": 588,
            "time": 0.51041615625,
            "value": 1
          }
        ],
        "10": [
          {
            "number": 10,
            "ticks": 592,
            "time": 0.5138883750000001,
            "value": 0.25196850393700787
          }
        ],
        "11": [
          {
            "number": 11,
            "ticks": 596,
            "time": 0.51736059375,
            "value": 1
          }
        ],
        "32": [
          {
            "number": 32,
            "ticks": 584,
            "time": 0.5069439375,
            "value": 0
          }
        ],
        "91": [
          {
            "number": 91,
            "ticks": 600,
            "time": 0.5208328125,
            "value": 0.7086614173228346
          }
        ],
        "93": [
          {
            "number": 93,
            "ticks": 604,
            "time": 0.52430503125,
            "value": 0
          }
        ],
        "100": [
          {
            "number": 100,
            "ticks": 1280,
            "time": 1.11111,
            "value": 0
          },
          {
            "number": 100,
            "ticks": 1292,
            "time": 1.12152665625,
            "value": 0.015748031496062992
          },
          {
            "number": 100,
            "ticks": 1304,
            "time": 1.1319433125,
            "value": 1
          }
        ],
        "101": [
          {
            "number": 101,
            "ticks": 1276,
            "time": 1.10763778125,
            "value": 0
          },
          {
            "number": 101,
            "ticks": 1288,
            "time": 1.1180544374999999,
            "value": 0
          },
          {
            "number": 101,
            "ticks": 1300,
            "time": 1.12847109375,
            "value": 1
          }
        ],
        "121": [
          {
            "number": 121,
            "ticks": 232,
            "time": 0.20138868749999997,
            "value": 0
          }
        ]
      },
      "pitchBends": [],
      "instrument": {
        "family": "pipe",
        "name": "flute",
        "number": 73
      },
      "name": "",
      "notes": [
        {
          "duration": 0.6666659999999993,
          "durationTicks": 768,
          "midi": 64,
          "name": "E4",
          "ticks": 45890,
          "time": 39.835029609375,
          "velocity": 0.44881889763779526
        },
        {
          "duration": 0.6666659999999993,
          "durationTicks": 768,
          "midi": 60,
          "name": "C4",
          "ticks": 45890,
          "time": 39.835029609375,
          "velocity": 0.44881889763779526
        },
        {
          "duration": 0.6666659999999993,
          "durationTicks": 768,
          "midi": 67,
          "name": "G4",
          "ticks": 45892,
          "time": 39.83676571875,
          "velocity": 0.44881889763779526
        },
        {
          "duration": 0.6666659999999993,
          "durationTicks": 768,
          "midi": 63,
          "name": "D#4",
          "ticks": 46658,
          "time": 40.501695609375,
          "velocity": 0.4645669291338583
        },
        {
          "duration": 0.6666659999999993,
          "durationTicks": 768,
          "midi": 59,
          "name": "B3",
          "ticks": 46658,
          "time": 40.501695609375,
          "velocity": 0.4645669291338583
        },
        {
          "duration": 0.6666659999999993,
          "durationTicks": 768,
          "midi": 67,
          "name": "G4",
          "ticks": 46660,
          "time": 40.50343171875,
          "velocity": 0.4645669291338583
        },
        {
          "duration": 0.5520827812500002,
          "durationTicks": 636,
          "midi": 62,
          "name": "D4",
          "ticks": 47426,
          "time": 41.168361609375,
          "velocity": 0.48031496062992124
        },
        {
          "duration": 0.5503466718750047,
          "durationTicks": 634,
          "midi": 58,
          "name": "A#3",
          "ticks": 47426,
          "time": 41.168361609375,
          "velocity": 0.48031496062992124
        },
        {
          "duration": 0.5520827812500002,
          "durationTicks": 636,
          "midi": 67,
          "name": "G4",
          "ticks": 47428,
          "time": 41.17009771875,
          "velocity": 0.48031496062992124
        },
        {
          "duration": 0.7829853281249939,
          "durationTicks": 902,
          "midi": 57,
          "name": "A3",
          "ticks": 48060,
          "time": 41.71870828125,
          "velocity": 0.49606299212598426
        },
        {
          "duration": 0.7812492187499984,
          "durationTicks": 900,
          "midi": 61,
          "name": "C#4",
          "ticks": 48062,
          "time": 41.720444390625,
          "velocity": 0.49606299212598426
        },
        {
          "duration": 0.7812492187499984,
          "durationTicks": 900,
          "midi": 67,
          "name": "G4",
          "ticks": 48064,
          "time": 41.7221805,
          "velocity": 0.49606299212598426
        },
        {
          "duration": 0.3281246718750026,
          "durationTicks": 378,
          "midi": 60,
          "name": "C4",
          "ticks": 119618,
          "time": 103.83496560937499,
          "velocity": 0.5275590551181102
        },
        {
          "duration": 0.22222200000000214,
          "durationTicks": 256,
          "midi": 60,
          "name": "C4",
          "ticks": 119996,
          "time": 104.16309028124999,
          "velocity": 0.5354330708661418
        },
        {
          "duration": 0.3385413281250038,
          "durationTicks": 390,
          "midi": 60,
          "name": "C4",
          "ticks": 120252,
          "time": 104.38531228125,
          "velocity": 0.5354330708661418
        },
        {
          "duration": 0.10590267187498625,
          "durationTicks": 122,
          "midi": 60,
          "name": "C4",
          "ticks": 120642,
          "time": 104.723853609375,
          "velocity": 0.5433070866141733
        },
        {
          "duration": 0.3385413281250038,
          "durationTicks": 390,
          "midi": 62,
          "name": "D4",
          "ticks": 120764,
          "time": 104.82975628124998,
          "velocity": 0.5511811023622047
        },
        {
          "duration": 0.22222200000000214,
          "durationTicks": 256,
          "midi": 64,
          "name": "E4",
          "ticks": 121154,
          "time": 105.16829760937499,
          "velocity": 0.5590551181102362
        },
        {
          "duration": 0.3281246718750026,
          "durationTicks": 378,
          "midi": 64,
          "name": "E4",
          "ticks": 121410,
          "time": 105.39051960937499,
          "velocity": 0.5590551181102362
        },
        {
          "duration": 0.4444440000000043,
          "durationTicks": 512,
          "midi": 64,
          "name": "E4",
          "ticks": 121788,
          "time": 105.71864428125,
          "velocity": 0.5748031496062992
        },
        {
          "duration": 0.11631932812498746,
          "durationTicks": 134,
          "midi": 65,
          "name": "F4",
          "ticks": 122556,
          "time": 106.38531028125,
          "velocity": 0.5275590551181102
        },
        {
          "duration": 0.22222200000001635,
          "durationTicks": 256,
          "midi": 67,
          "name": "G4",
          "ticks": 122690,
          "time": 106.50162960937499,
          "velocity": 0.5275590551181102
        },
        {
          "duration": 0.10590267187498625,
          "durationTicks": 122,
          "midi": 67,
          "name": "G4",
          "ticks": 122946,
          "time": 106.723851609375,
          "velocity": 0.5354330708661418
        },
        {
          "duration": 0.3385413281250038,
          "durationTicks": 390,
          "midi": 67,
          "name": "G4",
          "ticks": 123068,
          "time": 106.82975428124999,
          "velocity": 0.5433070866141733
        },
        {
          "duration": 0.3281246718750026,
          "durationTicks": 378,
          "midi": 69,
          "name": "A4",
          "ticks": 123458,
          "time": 107.168295609375,
          "velocity": 0.5511811023622047
        },
        {
          "duration": 0.22222200000000214,
          "durationTicks": 256,
          "midi": 67,
          "name": "G4",
          "ticks": 123836,
          "time": 107.49642028125,
          "velocity": 0.5669291338582677
        },
        {
          "duration": 0.7829853281249939,
          "durationTicks": 902,
          "midi": 64,
          "name": "E4",
          "ticks": 124092,
          "time": 107.71864228125,
          "velocity": 0.5748031496062992
        },
        {
          "duration": 0.22222200000001635,
          "durationTicks": 256,
          "midi": 65,
          "name": "F4",
          "ticks": 125762,
          "time": 109.16829360937498,
          "velocity": 0.5275590551181102
        },
        {
          "duration": 0.10590267187498625,
          "durationTicks": 122,
          "midi": 65,
          "name": "F4",
          "ticks": 126018,
          "time": 109.390515609375,
          "velocity": 0.5354330708661418
        },
        {
          "duration": 0.22222200000001635,
          "durationTicks": 256,
          "midi": 65,
          "name": "F4",
          "ticks": 126140,
          "time": 109.49641828124999,
          "velocity": 0.5354330708661418
        },
        {
          "duration": 0.44444399999999007,
          "durationTicks": 512,
          "midi": 67,
          "name": "G4",
          "ticks": 126396,
          "time": 109.71864028125,
          "velocity": 0.5433070866141733
        },
        {
          "duration": 0.22222200000000214,
          "durationTicks": 256,
          "midi": 65,
          "name": "F4",
          "ticks": 126908,
          "time": 110.16308428125,
          "velocity": 0.5590551181102362
        },
        {
          "duration": 0.7829853281249939,
          "durationTicks": 902,
          "midi": 62,
          "name": "D4",
          "ticks": 127164,
          "time": 110.38530628125,
          "velocity": 0.5748031496062992
        },
        {
          "duration": 0.22222200000000214,
          "durationTicks": 256,
          "midi": 64,
          "name": "E4",
          "ticks": 128834,
          "time": 111.834957609375,
          "velocity": 0.5275590551181102
        },
        {
          "duration": 0.10590267187498625,
          "durationTicks": 122,
          "midi": 64,
          "name": "E4",
          "ticks": 129090,
          "time": 112.057179609375,
          "velocity": 0.5354330708661418
        },
        {
          "duration": 0.22222200000001635,
          "durationTicks": 256,
          "midi": 64,
          "name": "E4",
          "ticks": 129212,
          "time": 112.16308228124998,
          "velocity": 0.5354330708661418
        },
        {
          "duration": 0.44444399999999007,
          "durationTicks": 512,
          "midi": 65,
          "name": "F4",
          "ticks": 129468,
          "time": 112.38530428125,
          "velocity": 0.5433070866141733
        },
        {
          "duration": 0.22222200000000214,
          "durationTicks": 256,
          "midi": 64,
          "name": "E4",
          "ticks": 129980,
          "time": 112.82974828124999,
          "velocity": 0.5590551181102362
        },
        {
          "duration": 0.3385413281250038,
          "durationTicks": 390,
          "midi": 60,
          "name": "C4",
          "ticks": 130236,
          "time": 113.05197028125,
          "velocity": 0.5748031496062992
        },
        {
          "duration": 0.3281246718750026,
          "durationTicks": 378,
          "midi": 67,
          "name": "G4",
          "ticks": 130626,
          "time": 113.390511609375,
          "velocity": 0.5275590551181102
        },
        {
          "duration": 0.3385413281250038,
          "durationTicks": 390,
          "midi": 67,
          "name": "G4",
          "ticks": 131004,
          "time": 113.71863628125,
          "velocity": 0.5511811023622047
        },
        {
          "duration": 0.44444399999999007,
          "durationTicks": 512,
          "midi": 67,
          "name": "G4",
          "ticks": 131394,
          "time": 114.057177609375,
          "velocity": 0.5748031496062992
        },
        {
          "duration": 0.3281246718750026,
          "durationTicks": 378,
          "midi": 60,
          "name": "C4",
          "ticks": 131906,
          "time": 114.501621609375,
          "velocity": 0.5275590551181102
        },
        {
          "duration": 0.22222200000000214,
          "durationTicks": 256,
          "midi": 60,
          "name": "C4",
          "ticks": 132284,
          "time": 114.82974628125,
          "velocity": 0.5354330708661418
        },
        {
          "duration": 0.44444399999999007,
          "durationTicks": 512,
          "midi": 60,
          "name": "C4",
          "ticks": 132540,
          "time": 115.05196828125,
          "velocity": 0.5354330708661418
        },
        {
          "duration": 0.22222200000000214,
          "durationTicks": 256,
          "midi": 62,
          "name": "D4",
          "ticks": 133052,
          "time": 115.49641228124999,
          "velocity": 0.5511811023622047
        },
        {
          "duration": 0.11631932812500168,
          "durationTicks": 134,
          "midi": 62,
          "name": "D4",
          "ticks": 133308,
          "time": 115.71863428124999,
          "velocity": 0.5433070866141733
        },
        {
          "duration": 0.22222200000000214,
          "durationTicks": 256,
          "midi": 64,
          "name": "E4",
          "ticks": 133442,
          "time": 115.83495360937499,
          "velocity": 0.5590551181102362
        },
        {
          "duration": 0.3281246718750026,
          "durationTicks": 378,
          "midi": 64,
          "name": "E4",
          "ticks": 133698,
          "time": 116.057175609375,
          "velocity": 0.5590551181102362
        },
        {
          "duration": 0.44444399999999007,
          "durationTicks": 512,
          "midi": 64,
          "name": "E4",
          "ticks": 134076,
          "time": 116.38530028125,
          "velocity": 0.5748031496062992
        },
        {
          "duration": 0.11631932812498746,
          "durationTicks": 134,
          "midi": 65,
          "name": "F4",
          "ticks": 134844,
          "time": 117.05196628125,
          "velocity": 0.5275590551181102
        },
        {
          "duration": 0.22222200000000214,
          "durationTicks": 256,
          "midi": 67,
          "name": "G4",
          "ticks": 134978,
          "time": 117.16828560937499,
          "velocity": 0.5275590551181102
        },
        {
          "duration": 0.10590267187500046,
          "durationTicks": 122,
          "midi": 67,
          "name": "G4",
          "ticks": 135234,
          "time": 117.39050760937499,
          "velocity": 0.5354330708661418
        },
        {
          "duration": 0.3385413281250038,
          "durationTicks": 390,
          "midi": 67,
          "name": "G4",
          "ticks": 135356,
          "time": 117.49641028125,
          "velocity": 0.5433070866141733
        },
        {
          "duration": 0.3281246718749884,
          "durationTicks": 378,
          "midi": 69,
          "name": "A4",
          "ticks": 135746,
          "time": 117.834951609375,
          "velocity": 0.5511811023622047
        },
        {
          "duration": 0.22222200000001635,
          "durationTicks": 256,
          "midi": 67,
          "name": "G4",
          "ticks": 136124,
          "time": 118.16307628124999,
          "velocity": 0.5669291338582677
        },
        {
          "duration": 0.7829853281249939,
          "durationTicks": 902,
          "midi": 64,
          "name": "E4",
          "ticks": 136380,
          "time": 118.38529828125,
          "velocity": 0.5748031496062992
        },
        {
          "duration": 0.3385413281250038,
          "durationTicks": 390,
          "midi": 64,
          "name": "E4",
          "ticks": 137660,
          "time": 119.49640828124998,
          "velocity": 0.5275590551181102
        },
        {
          "duration": 0.6666660000000064,
          "durationTicks": 768,
          "midi": 62,
          "name": "D4",
          "ticks": 138050,
          "time": 119.83494960937499,
          "velocity": 0.5275590551181102
        },
        {
          "duration": 0.6666659999999922,
          "durationTicks": 768,
          "midi": 62,
          "name": "D4",
          "ticks": 138818,
          "time": 120.501615609375,
          "velocity": 0.5433070866141733
        },
        {
          "duration": 0.3281246718750026,
          "durationTicks": 378,
          "midi": 60,
          "name": "C4",
          "ticks": 139586,
          "time": 121.16828160937499,
          "velocity": 0.5511811023622047
        },
        {
          "duration": 1.005207328124996,
          "durationTicks": 1158,
          "midi": 59,
          "name": "B3",
          "ticks": 139964,
          "time": 121.49640628124999,
          "velocity": 0.5590551181102362
        },
        {
          "duration": 1.3333319999999986,
          "durationTicks": 1536,
          "midi": 60,
          "name": "C4",
          "ticks": 141122,
          "time": 122.50161360937499,
          "velocity": 0.5748031496062992
        },
        {
          "duration": 0.3281246718749884,
          "durationTicks": 378,
          "midi": 60,
          "name": "C4",
          "ticks": 144194,
          "time": 125.168277609375,
          "velocity": 0.5275590551181102
        },
        {
          "duration": 0.3385413281250038,
          "durationTicks": 390,
          "midi": 60,
          "name": "C4",
          "ticks": 144572,
          "time": 125.49640228124998,
          "velocity": 0.5354330708661418
        },
        {
          "duration": 0.22222200000000214,
          "durationTicks": 256,
          "midi": 60,
          "name": "C4",
          "ticks": 144962,
          "time": 125.83494360937499,
          "velocity": 0.5433070866141733
        },
        {
          "duration": 0.10590267187500046,
          "durationTicks": 122,
          "midi": 60,
          "name": "C4",
          "ticks": 145218,
          "time": 126.05716560937499,
          "velocity": 0.5433070866141733
        },
        {
          "duration": 0.3385413281250038,
          "durationTicks": 390,
          "midi": 62,
          "name": "D4",
          "ticks": 145340,
          "time": 126.16306828124999,
          "velocity": 0.5511811023622047
        },
        {
          "duration": 0.3281246718749884,
          "durationTicks": 378,
          "midi": 64,
          "name": "E4",
          "ticks": 145730,
          "time": 126.501609609375,
          "velocity": 0.5590551181102362
        },
        {
          "duration": 0.22222200000001635,
          "durationTicks": 256,
          "midi": 64,
          "name": "E4",
          "ticks": 146108,
          "time": 126.82973428124998,
          "velocity": 0.5669291338582677
        },
        {
          "duration": 0.44444399999999007,
          "durationTicks": 512,
          "midi": 64,
          "name": "E4",
          "ticks": 146364,
          "time": 127.05195628125,
          "velocity": 0.5748031496062992
        },
        {
          "duration": 0.11631932812500168,
          "durationTicks": 134,
          "midi": 65,
          "name": "F4",
          "ticks": 147132,
          "time": 127.71862228124999,
          "velocity": 0.5275590551181102
        },
        {
          "duration": 0.22222200000001635,
          "durationTicks": 256,
          "midi": 67,
          "name": "G4",
          "ticks": 147266,
          "time": 127.834941609375,
          "velocity": 0.5275590551181102
        },
        {
          "duration": 0.10590267187498625,
          "durationTicks": 122,
          "midi": 67,
          "name": "G4",
          "ticks": 147522,
          "time": 128.057163609375,
          "velocity": 0.5354330708661418
        },
        {
          "duration": 0.3385413281249896,
          "durationTicks": 390,
          "midi": 67,
          "name": "G4",
          "ticks": 147644,
          "time": 128.16306628125,
          "velocity": 0.5433070866141733
        },
        {
          "duration": 0.3281246718750026,
          "durationTicks": 378,
          "midi": 69,
          "name": "A4",
          "ticks": 148034,
          "time": 128.501607609375,
          "velocity": 0.5511811023622047
        },
        {
          "duration": 0.22222200000001635,
          "durationTicks": 256,
          "midi": 67,
          "name": "G4",
          "ticks": 148412,
          "time": 128.82973228125,
          "velocity": 0.5669291338582677
        },
        {
          "duration": 1.1111099999999965,
          "durationTicks": 1280,
          "midi": 64,
          "name": "E4",
          "ticks": 148668,
          "time": 129.05195428125,
          "velocity": 0.5748031496062992
        },
        {
          "duration": 0.11631932812500168,
          "durationTicks": 134,
          "midi": 64,
          "name": "E4",
          "ticks": 150204,
          "time": 130.38528628125,
          "velocity": 0.5275590551181102
        },
        {
          "duration": 0.22222200000001635,
          "durationTicks": 256,
          "midi": 65,
          "name": "F4",
          "ticks": 150338,
          "time": 130.501605609375,
          "velocity": 0.5275590551181102
        },
        {
          "duration": 0.10590267187498625,
          "durationTicks": 122,
          "midi": 65,
          "name": "F4",
          "ticks": 150594,
          "time": 130.723827609375,
          "velocity": 0.5354330708661418
        },
        {
          "duration": 0.3385413281249896,
          "durationTicks": 390,
          "midi": 65,
          "name": "F4",
          "ticks": 150716,
          "time": 130.82973028125,
          "velocity": 0.5433070866141733
        },
        {
          "duration": 0.3281246718750026,
          "durationTicks": 378,
          "midi": 67,
          "name": "G4",
          "ticks": 151106,
          "time": 131.16827160937498,
          "velocity": 0.5511811023622047
        },
        {
          "duration": 0.22222200000001635,
          "durationTicks": 256,
          "midi": 65,
          "name": "F4",
          "ticks": 151484,
          "time": 131.49639628125,
          "velocity": 0.5669291338582677
        },
        {
          "duration": 1.1111099999999965,
          "durationTicks": 1280,
          "midi": 62,
          "name": "D4",
          "ticks": 151740,
          "time": 131.71861828125,
          "velocity": 0.5748031496062992
        },
        {
          "duration": 0.11631932812500168,
          "durationTicks": 134,
          "midi": 62,
          "name": "D4",
          "ticks": 153276,
          "time": 133.05195028125,
          "velocity": 0.5275590551181102
        },
        {
          "duration": 0.22222200000001635,
          "durationTicks": 256,
          "midi": 64,
          "name": "E4",
          "ticks": 153410,
          "time": 133.168269609375,
          "velocity": 0.5275590551181102
        },
        {
          "duration": 0.10590267187498625,
          "durationTicks": 122,
          "midi": 64,
          "name": "E4",
          "ticks": 153666,
          "time": 133.390491609375,
          "velocity": 0.5354330708661418
        },
        {
          "duration": 0.3385413281249896,
          "durationTicks": 390,
          "midi": 64,
          "name": "E4",
          "ticks": 153788,
          "time": 133.49639428125,
          "velocity": 0.5433070866141733
        },
        {
          "duration": 0.3281246718750026,
          "durationTicks": 378,
          "midi": 65,
          "name": "F4",
          "ticks": 154178,
          "time": 133.83493560937498,
          "velocity": 0.5511811023622047
        },
        {
          "duration": 0.22222200000001635,
          "durationTicks": 256,
          "midi": 64,
          "name": "E4",
          "ticks": 154556,
          "time": 134.16306028124998,
          "velocity": 0.5669291338582677
        },
        {
          "duration": 0.4444440000000043,
          "durationTicks": 512,
          "midi": 60,
          "name": "C4",
          "ticks": 154812,
          "time": 134.38528228125,
          "velocity": 0.5748031496062992
        },
        {
          "duration": 0.3281246718750026,
          "durationTicks": 378,
          "midi": 60,
          "name": "C4",
          "ticks": 156482,
          "time": 135.83493360937499,
          "velocity": 0.5275590551181102
        },
        {
          "duration": 0.3385413281249896,
          "durationTicks": 390,
          "midi": 60,
          "name": "C4",
          "ticks": 156860,
          "time": 136.16305828125,
          "velocity": 0.5354330708661418
        },
        {
          "duration": 0.22222200000001635,
          "durationTicks": 256,
          "midi": 60,
          "name": "C4",
          "ticks": 157250,
          "time": 136.50159960937498,
          "velocity": 0.5433070866141733
        },
        {
          "duration": 0.10590267187498625,
          "durationTicks": 122,
          "midi": 60,
          "name": "C4",
          "ticks": 157506,
          "time": 136.723821609375,
          "velocity": 0.5433070866141733
        },
        {
          "duration": 0.338541328125018,
          "durationTicks": 390,
          "midi": 62,
          "name": "D4",
          "ticks": 157628,
          "time": 136.82972428124998,
          "velocity": 0.5511811023622047
        },
        {
          "duration": 0.22222199999998793,
          "durationTicks": 256,
          "midi": 64,
          "name": "E4",
          "ticks": 158018,
          "time": 137.168265609375,
          "velocity": 0.5590551181102362
        },
        {
          "duration": 0.3281246718750026,
          "durationTicks": 378,
          "midi": 64,
          "name": "E4",
          "ticks": 158274,
          "time": 137.390487609375,
          "velocity": 0.5669291338582677
        },
        {
          "duration": 0.4444440000000043,
          "durationTicks": 512,
          "midi": 64,
          "name": "E4",
          "ticks": 158652,
          "time": 137.71861228125,
          "velocity": 0.5748031496062992
        },
        {
          "duration": 0.11631932812497325,
          "durationTicks": 134,
          "midi": 65,
          "name": "F4",
          "ticks": 159420,
          "time": 138.38527828125,
          "velocity": 0.5275590551181102
        },
        {
          "duration": 0.22222200000001635,
          "durationTicks": 256,
          "midi": 67,
          "name": "G4",
          "ticks": 159554,
          "time": 138.50159760937498,
          "velocity": 0.5275590551181102
        },
        {
          "duration": 0.10590267187498625,
          "durationTicks": 122,
          "midi": 67,
          "name": "G4",
          "ticks": 159810,
          "time": 138.723819609375,
          "velocity": 0.5354330708661418
        },
        {
          "duration": 0.338541328125018,
          "durationTicks": 390,
          "midi": 67,
          "name": "G4",
          "ticks": 159932,
          "time": 138.82972228124999,
          "velocity": 0.5433070866141733
        },
        {
          "duration": 0.3281246718749742,
          "durationTicks": 378,
          "midi": 69,
          "name": "A4",
          "ticks": 160322,
          "time": 139.168263609375,
          "velocity": 0.5511811023622047
        },
        {
          "duration": 0.22222200000001635,
          "durationTicks": 256,
          "midi": 67,
          "name": "G4",
          "ticks": 160700,
          "time": 139.49638828124998,
          "velocity": 0.5669291338582677
        },
        {
          "duration": 0.7829853281249939,
          "durationTicks": 902,
          "midi": 64,
          "name": "E4",
          "ticks": 160956,
          "time": 139.71861028125,
          "velocity": 0.5748031496062992
        },
        {
          "duration": 0.3385413281249896,
          "durationTicks": 390,
          "midi": 64,
          "name": "E4",
          "ticks": 162236,
          "time": 140.82972028125,
          "velocity": 0.5275590551181102
        },
        {
          "duration": 0.6666660000000206,
          "durationTicks": 768,
          "midi": 62,
          "name": "D4",
          "ticks": 162626,
          "time": 141.16826160937498,
          "velocity": 0.5275590551181102
        },
        {
          "duration": 0.6666659999999922,
          "durationTicks": 768,
          "midi": 62,
          "name": "D4",
          "ticks": 163394,
          "time": 141.834927609375,
          "velocity": 0.5433070866141733
        },
        {
          "duration": 0.3281246718750026,
          "durationTicks": 378,
          "midi": 60,
          "name": "C4",
          "ticks": 164162,
          "time": 142.501593609375,
          "velocity": 0.5511811023622047
        },
        {
          "duration": 1.0052073281249818,
          "durationTicks": 1158,
          "midi": 59,
          "name": "B3",
          "ticks": 164540,
          "time": 142.82971828125,
          "velocity": 0.5590551181102362
        },
        {
          "duration": 1.3333320000000128,
          "durationTicks": 1536,
          "midi": 60,
          "name": "C4",
          "ticks": 165698,
          "time": 143.83492560937498,
          "velocity": 0.5748031496062992
        },
        {
          "duration": 0.11631932812500168,
          "durationTicks": 134,
          "midi": 60,
          "name": "C4",
          "ticks": 168636,
          "time": 146.38527028125,
          "velocity": 0.5275590551181102
        },
        {
          "duration": 0.3281246718749742,
          "durationTicks": 378,
          "midi": 65,
          "name": "F4",
          "ticks": 168770,
          "time": 146.501589609375,
          "velocity": 0.5275590551181102
        },
        {
          "duration": 0.22222200000001635,
          "durationTicks": 256,
          "midi": 65,
          "name": "F4",
          "ticks": 169148,
          "time": 146.82971428124998,
          "velocity": 0.5354330708661418
        },
        {
          "duration": 0.4444440000000043,
          "durationTicks": 512,
          "midi": 65,
          "name": "F4",
          "ticks": 169404,
          "time": 147.05193628125,
          "velocity": 0.5354330708661418
        },
        {
          "duration": 0.22222199999998793,
          "durationTicks": 256,
          "midi": 65,
          "name": "F4",
          "ticks": 169916,
          "time": 147.49638028125,
          "velocity": 0.5511811023622047
        },
        {
          "duration": 0.11631932812500168,
          "durationTicks": 134,
          "midi": 67,
          "name": "G4",
          "ticks": 170172,
          "time": 147.71860228124999,
          "velocity": 0.5511811023622047
        },
        {
          "duration": 0.3281246718750026,
          "durationTicks": 378,
          "midi": 69,
          "name": "A4",
          "ticks": 170306,
          "time": 147.834921609375,
          "velocity": 0.5590551181102362
        },
        {
          "duration": 0.3385413281249896,
          "durationTicks": 390,
          "midi": 69,
          "name": "A4",
          "ticks": 170684,
          "time": 148.16304628125,
          "velocity": 0.5669291338582677
        },
        {
          "duration": 0.3281246718750026,
          "durationTicks": 378,
          "midi": 69,
          "name": "A4",
          "ticks": 171074,
          "time": 148.50158760937498,
          "velocity": 0.5748031496062992
        },
        {
          "duration": 0.22222200000001635,
          "durationTicks": 256,
          "midi": 65,
          "name": "F4",
          "ticks": 171452,
          "time": 148.82971228124998,
          "velocity": 0.5275590551181102
        },
        {
          "duration": 0.11631932812500168,
          "durationTicks": 134,
          "midi": 66,
          "name": "F#4",
          "ticks": 171708,
          "time": 149.05193428125,
          "velocity": 0.5275590551181102
        },
        {
          "duration": 0.3281246718750026,
          "durationTicks": 378,
          "midi": 67,
          "name": "G4",
          "ticks": 171842,
          "time": 149.168253609375,
          "velocity": 0.5354330708661418
        },
        {
          "duration": 0.3385413281249896,
          "durationTicks": 390,
          "midi": 69,
          "name": "A4",
          "ticks": 172220,
          "time": 149.49637828125,
          "velocity": 0.5433070866141733
        },
        {
          "duration": 0.3281246718750026,
          "durationTicks": 378,
          "midi": 65,
          "name": "F4",
          "ticks": 172610,
          "time": 149.834919609375,
          "velocity": 0.5511811023622047
        },
        {
          "duration": 0.3385413281249896,
          "durationTicks": 390,
          "midi": 67,
          "name": "G4",
          "ticks": 172988,
          "time": 150.16304428125,
          "velocity": 0.5590551181102362
        },
        {
          "duration": 0.9947906718749948,
          "durationTicks": 1146,
          "midi": 64,
          "name": "E4",
          "ticks": 173378,
          "time": 150.50158560937498,
          "velocity": 0.5748031496062992
        },
        {
          "duration": 0.338541328125018,
          "durationTicks": 390,
          "midi": 62,
          "name": "D4",
          "ticks": 174524,
          "time": 151.49637628124998,
          "velocity": 0.5275590551181102
        },
        {
          "duration": 0.3281246718750026,
          "durationTicks": 378,
          "midi": 60,
          "name": "C4",
          "ticks": 174914,
          "time": 151.834917609375,
          "velocity": 0.5275590551181102
        },
        {
          "duration": 0.22222199999998793,
          "durationTicks": 256,
          "midi": 60,
          "name": "C4",
          "ticks": 175292,
          "time": 152.16304228125,
          "velocity": 0.5354330708661418
        },
        {
          "duration": 0.4444440000000043,
          "durationTicks": 512,
          "midi": 60,
          "name": "C4",
          "ticks": 175548,
          "time": 152.38526428125,
          "velocity": 0.5433070866141733
        },
        {
          "duration": 0.3385413281249896,
          "durationTicks": 390,
          "midi": 62,
          "name": "D4",
          "ticks": 176060,
          "time": 152.82970828125,
          "velocity": 0.5511811023622047
        },
        {
          "duration": 0.22222200000001635,
          "durationTicks": 256,
          "midi": 64,
          "name": "E4",
          "ticks": 176450,
          "time": 153.16824960937498,
          "velocity": 0.5590551181102362
        },
        {
          "duration": 0.3281246718750026,
          "durationTicks": 378,
          "midi": 64,
          "name": "E4",
          "ticks": 176706,
          "time": 153.390471609375,
          "velocity": 0.5669291338582677
        },
        {
          "duration": 0.44444399999997586,
          "durationTicks": 512,
          "midi": 64,
          "name": "E4",
          "ticks": 177084,
          "time": 153.71859628125,
          "velocity": 0.5748031496062992
        },
        {
          "duration": 0.22222200000001635,
          "durationTicks": 256,
          "midi": 62,
          "name": "D4",
          "ticks": 177596,
          "time": 154.16304028124998,
          "velocity": 0.5275590551181102
        },
        {
          "duration": 0.11631932812500168,
          "durationTicks": 134,
          "midi": 60,
          "name": "C4",
          "ticks": 177852,
          "time": 154.38526228125,
          "velocity": 0.5275590551181102
        },
        {
          "duration": 0.3281246718750026,
          "durationTicks": 378,
          "midi": 59,
          "name": "B3",
          "ticks": 177986,
          "time": 154.501581609375,
          "velocity": 0.5354330708661418
        },
        {
          "duration": 0.3385413281249896,
          "durationTicks": 390,
          "midi": 59,
          "name": "B3",
          "ticks": 178364,
          "time": 154.82970628125,
          "velocity": 0.5433070866141733
        },
        {
          "duration": 0.22222200000001635,
          "durationTicks": 256,
          "midi": 60,
          "name": "C4",
          "ticks": 178754,
          "time": 155.168247609375,
          "velocity": 0.5511811023622047
        },
        {
          "duration": 0.3281246718750026,
          "durationTicks": 378,
          "midi": 61,
          "name": "C#4",
          "ticks": 179010,
          "time": 155.390469609375,
          "velocity": 0.5590551181102362
        },
        {
          "duration": 0.7829853281249939,
          "durationTicks": 902,
          "midi": 62,
          "name": "D4",
          "ticks": 179388,
          "time": 155.71859428125,
          "velocity": 0.5748031496062992
        },
        {
          "duration": 0.4444440000000043,
          "durationTicks": 512,
          "midi": 64,
          "name": "E4",
          "ticks": 180546,
          "time": 156.723801609375,
          "velocity": 0.5275590551181102
        },
        {
          "duration": 0.3281246718750026,
          "durationTicks": 378,
          "midi": 60,
          "name": "C4",
          "ticks": 181058,
          "time": 157.168245609375,
          "velocity": 0.5354330708661418
        },
        {
          "duration": 0.3385413281249896,
          "durationTicks": 390,
          "midi": 60,
          "name": "C4",
          "ticks": 181436,
          "time": 157.49637028125,
          "velocity": 0.5433070866141733
        },
        {
          "duration": 0.22222200000001635,
          "durationTicks": 256,
          "midi": 60,
          "name": "C4",
          "ticks": 181826,
          "time": 157.83491160937498,
          "velocity": 0.5433070866141733
        },
        {
          "duration": 0.10590267187498625,
          "durationTicks": 122,
          "midi": 60,
          "name": "C4",
          "ticks": 182082,
          "time": 158.057133609375,
          "velocity": 0.5511811023622047
        },
        {
          "duration": 0.3385413281249896,
          "durationTicks": 390,
          "midi": 62,
          "name": "D4",
          "ticks": 182204,
          "time": 158.16303628125,
          "velocity": 0.5511811023622047
        },
        {
          "duration": 0.22222200000001635,
          "durationTicks": 256,
          "midi": 64,
          "name": "E4",
          "ticks": 182594,
          "time": 158.50157760937498,
          "velocity": 0.5590551181102362
        },
        {
          "duration": 0.3281246718750026,
          "durationTicks": 378,
          "midi": 64,
          "name": "E4",
          "ticks": 182850,
          "time": 158.723799609375,
          "velocity": 0.5669291338582677
        },
        {
          "duration": 0.4444440000000043,
          "durationTicks": 512,
          "midi": 64,
          "name": "E4",
          "ticks": 183228,
          "time": 159.05192428125,
          "velocity": 0.5748031496062992
        },
        {
          "duration": 0.11631932812500168,
          "durationTicks": 134,
          "midi": 65,
          "name": "F4",
          "ticks": 183996,
          "time": 159.71859028125,
          "velocity": 0.5275590551181102
        },
        {
          "duration": 0.22222200000001635,
          "durationTicks": 256,
          "midi": 67,
          "name": "G4",
          "ticks": 184130,
          "time": 159.834909609375,
          "velocity": 0.5275590551181102
        },
        {
          "duration": 0.10590267187498625,
          "durationTicks": 122,
          "midi": 67,
          "name": "G4",
          "ticks": 184386,
          "time": 160.057131609375,
          "velocity": 0.5354330708661418
        },
        {
          "duration": 0.3385413281249896,
          "durationTicks": 390,
          "midi": 67,
          "name": "G4",
          "ticks": 184508,
          "time": 160.16303428125,
          "velocity": 0.5433070866141733
        },
        {
          "duration": 0.3281246718750026,
          "durationTicks": 378,
          "midi": 69,
          "name": "A4",
          "ticks": 184898,
          "time": 160.50157560937498,
          "velocity": 0.5511811023622047
        },
        {
          "duration": 0.22222200000001635,
          "durationTicks": 256,
          "midi": 67,
          "name": "G4",
          "ticks": 185276,
          "time": 160.82970028124998,
          "velocity": 0.5669291338582677
        },
        {
          "duration": 0.7829853281249939,
          "durationTicks": 902,
          "midi": 64,
          "name": "E4",
          "ticks": 185532,
          "time": 161.05192228125,
          "velocity": 0.5748031496062992
        },
        {
          "duration": 0.3385413281249896,
          "durationTicks": 390,
          "midi": 64,
          "name": "E4",
          "ticks": 186812,
          "time": 162.16303228125,
          "velocity": 0.5275590551181102
        },
        {
          "duration": 0.6666659999999922,
          "durationTicks": 768,
          "midi": 62,
          "name": "D4",
          "ticks": 187202,
          "time": 162.501573609375,
          "velocity": 0.5275590551181102
        },
        {
          "duration": 0.6666660000000206,
          "durationTicks": 768,
          "midi": 62,
          "name": "D4",
          "ticks": 187970,
          "time": 163.16823960937498,
          "velocity": 0.5433070866141733
        },
        {
          "duration": 0.3281246718750026,
          "durationTicks": 378,
          "midi": 60,
          "name": "C4",
          "ticks": 188738,
          "time": 163.834905609375,
          "velocity": 0.5511811023622047
        },
        {
          "duration": 1.0052073281249818,
          "durationTicks": 1158,
          "midi": 59,
          "name": "B3",
          "ticks": 189116,
          "time": 164.16303028125,
          "velocity": 0.5590551181102362
        },
        {
          "duration": 1.3333320000000128,
          "durationTicks": 1536,
          "midi": 60,
          "name": "C4",
          "ticks": 190274,
          "time": 165.16823760937498,
          "velocity": 0.5748031496062992
        },
        {
          "duration": 0.22222200000001635,
          "durationTicks": 256,
          "midi": 68,
          "name": "G#4",
          "ticks": 196418,
          "time": 170.50156560937498,
          "velocity": 0.44881889763779526
        },
        {
          "duration": 0.22222200000001635,
          "durationTicks": 256,
          "midi": 65,
          "name": "F4",
          "ticks": 196418,
          "time": 170.50156560937498,
          "velocity": 0.44881889763779526
        },
        {
          "duration": 0.3281246718750026,
          "durationTicks": 378,
          "midi": 65,
          "name": "F4",
          "ticks": 196674,
          "time": 170.723787609375,
          "velocity": 0.44881889763779526
        },
        {
          "duration": 0.3298607812500052,
          "durationTicks": 380,
          "midi": 68,
          "name": "G#4",
          "ticks": 196674,
          "time": 170.723787609375,
          "velocity": 0.44881889763779526
        },
        {
          "duration": 0.3385413281249896,
          "durationTicks": 390,
          "midi": 58,
          "name": "A#3",
          "ticks": 197052,
          "time": 171.05191228125,
          "velocity": 0.4566929133858268
        },
        {
          "duration": 0.33680521874998703,
          "durationTicks": 388,
          "midi": 61,
          "name": "C#4",
          "ticks": 197054,
          "time": 171.053648390625,
          "velocity": 0.4566929133858268
        },
        {
          "duration": 0.10763878124998882,
          "durationTicks": 124,
          "midi": 63,
          "name": "D#4",
          "ticks": 197442,
          "time": 171.390453609375,
          "velocity": 0.4645669291338583
        },
        {
          "duration": 0.10590267187501468,
          "durationTicks": 122,
          "midi": 60,
          "name": "C4",
          "ticks": 197442,
          "time": 171.390453609375,
          "velocity": 0.4645669291338583
        },
        {
          "duration": 0.338541328125018,
          "durationTicks": 390,
          "midi": 61,
          "name": "C#4",
          "ticks": 197564,
          "time": 171.49635628125,
          "velocity": 0.47244094488188976
        },
        {
          "duration": 0.3368052187500439,
          "durationTicks": 388,
          "midi": 65,
          "name": "F4",
          "ticks": 197566,
          "time": 171.49809239062498,
          "velocity": 0.47244094488188976
        },
        {
          "duration": 0.22222199999998793,
          "durationTicks": 256,
          "midi": 68,
          "name": "G#4",
          "ticks": 197954,
          "time": 171.83489760937502,
          "velocity": 0.48031496062992124
        },
        {
          "duration": 0.5503466718749621,
          "durationTicks": 634,
          "midi": 65,
          "name": "F4",
          "ticks": 197954,
          "time": 171.83489760937502,
          "velocity": 0.48031496062992124
        },
        {
          "duration": 0.3281246718749742,
          "durationTicks": 378,
          "midi": 61,
          "name": "C#4",
          "ticks": 198210,
          "time": 172.057119609375,
          "velocity": 0.48031496062992124
        },
        {
          "duration": 0.3298607812500052,
          "durationTicks": 380,
          "midi": 65,
          "name": "F4",
          "ticks": 198210,
          "time": 172.057119609375,
          "velocity": 0.48031496062992124
        },
        {
          "duration": 0.7829853281250223,
          "durationTicks": 902,
          "midi": 65,
          "name": "F4",
          "ticks": 198588,
          "time": 172.38524428124998,
          "velocity": 0.49606299212598426
        },
        {
          "duration": 0.44444399999997586,
          "durationTicks": 512,
          "midi": 68,
          "name": "G#4",
          "ticks": 198590,
          "time": 172.386980390625,
          "velocity": 0.49606299212598426
        },
        {
          "duration": 0.11631932812500168,
          "durationTicks": 134,
          "midi": 61,
          "name": "C#4",
          "ticks": 199356,
          "time": 173.05191028125,
          "velocity": 0.44881889763779526
        },
        {
          "duration": 0.1145832187499991,
          "durationTicks": 132,
          "midi": 65,
          "name": "F4",
          "ticks": 199358,
          "time": 173.053646390625,
          "velocity": 0.44881889763779526
        },
        {
          "duration": 0.22222199999998793,
          "durationTicks": 256,
          "midi": 68,
          "name": "G#4",
          "ticks": 199490,
          "time": 173.168229609375,
          "velocity": 0.44881889763779526
        },
        {
          "duration": 0.3281246718750026,
          "durationTicks": 378,
          "midi": 65,
          "name": "F4",
          "ticks": 199490,
          "time": 173.168229609375,
          "velocity": 0.44881889763779526
        },
        {
          "duration": 0.10763878124998882,
          "durationTicks": 124,
          "midi": 68,
          "name": "G#4",
          "ticks": 199746,
          "time": 173.390451609375,
          "velocity": 0.4566929133858268
        },
        {
          "duration": 0.3281246718750026,
          "durationTicks": 378,
          "midi": 65,
          "name": "F4",
          "ticks": 199746,
          "time": 173.390451609375,
          "velocity": 0.4566929133858268
        },
        {
          "duration": 1.6718733281250024,
          "durationTicks": 1926,
          "midi": 65,
          "name": "F4",
          "ticks": 199868,
          "time": 173.49635428125,
          "velocity": 0.4645669291338583
        },
        {
          "duration": 0.22048589062501378,
          "durationTicks": 254,
          "midi": 68,
          "name": "G#4",
          "ticks": 199870,
          "time": 173.49809039062498,
          "velocity": 0.4645669291338583
        },
        {
          "duration": 0.0017361093750025702,
          "durationTicks": 2,
          "midi": 68,
          "name": "G#4",
          "ticks": 200124,
          "time": 173.71857628125,
          "velocity": 0.47244094488188976
        },
        {
          "duration": 0.44444399999997586,
          "durationTicks": 512,
          "midi": 72,
          "name": "C5",
          "ticks": 200126,
          "time": 173.720312390625,
          "velocity": 0.47244094488188976
        },
        {
          "duration": 0.22222199999998793,
          "durationTicks": 256,
          "midi": 68,
          "name": "G#4",
          "ticks": 200636,
          "time": 174.16302028125,
          "velocity": 0.4881889763779528
        },
        {
          "duration": 0.22222200000004477,
          "durationTicks": 256,
          "midi": 70,
          "name": "A#4",
          "ticks": 200638,
          "time": 174.16475639062497,
          "velocity": 0.4881889763779528
        },
        {
          "duration": 0.7829853281250223,
          "durationTicks": 902,
          "midi": 62,
          "name": "D4",
          "ticks": 200892,
          "time": 174.38524228125,
          "velocity": 0.49606299212598426
        },
        {
          "duration": 2.3368032187499637,
          "durationTicks": 2692,
          "midi": 65,
          "name": "F4",
          "ticks": 200894,
          "time": 174.38697839062502,
          "velocity": 0.49606299212598426
        },
        {
          "duration": 0.4444440000000043,
          "durationTicks": 512,
          "midi": 66,
          "name": "F#4",
          "ticks": 202050,
          "time": 175.390449609375,
          "velocity": 0.44881889763779526
        },
        {
          "duration": 0.4444440000000043,
          "durationTicks": 512,
          "midi": 62,
          "name": "D4",
          "ticks": 202050,
          "time": 175.390449609375,
          "velocity": 0.44881889763779526
        },
        {
          "duration": 0.5503466718749905,
          "durationTicks": 634,
          "midi": 61,
          "name": "C#4",
          "ticks": 202562,
          "time": 175.834893609375,
          "velocity": 0.4566929133858268
        },
        {
          "duration": 0.5520827812499931,
          "durationTicks": 636,
          "midi": 63,
          "name": "D#4",
          "ticks": 202562,
          "time": 175.834893609375,
          "velocity": 0.4566929133858268
        },
        {
          "duration": 0.11631932812500168,
          "durationTicks": 134,
          "midi": 61,
          "name": "C#4",
          "ticks": 203196,
          "time": 176.38524028125,
          "velocity": 0.47244094488188976
        },
        {
          "duration": 0.1145832187499991,
          "durationTicks": 132,
          "midi": 63,
          "name": "D#4",
          "ticks": 203198,
          "time": 176.386976390625,
          "velocity": 0.47244094488188976
        },
        {
          "duration": 0.5520827812500215,
          "durationTicks": 636,
          "midi": 65,
          "name": "F4",
          "ticks": 203330,
          "time": 176.501559609375,
          "velocity": 0.48031496062992124
        },
        {
          "duration": 0.22222199999998793,
          "durationTicks": 256,
          "midi": 62,
          "name": "D4",
          "ticks": 203330,
          "time": 176.501559609375,
          "velocity": 0.48031496062992124
        },
        {
          "duration": 1.7777760000000171,
          "durationTicks": 2048,
          "midi": 65,
          "name": "F4",
          "ticks": 203586,
          "time": 176.72378160937498,
          "velocity": 0.48031496062992124
        },
        {
          "duration": 0.3281246718750026,
          "durationTicks": 378,
          "midi": 62,
          "name": "D4",
          "ticks": 203586,
          "time": 176.72378160937498,
          "velocity": 0.48031496062992124
        },
        {
          "duration": 0.7829853281250223,
          "durationTicks": 902,
          "midi": 63,
          "name": "D#4",
          "ticks": 203964,
          "time": 177.05190628124998,
          "velocity": 0.49606299212598426
        },
        {
          "duration": 0.7812492187499913,
          "durationTicks": 900,
          "midi": 66,
          "name": "F#4",
          "ticks": 203966,
          "time": 177.05364239062501,
          "velocity": 0.49606299212598426
        },
        {
          "duration": 0.3298607812500052,
          "durationTicks": 380,
          "midi": 63,
          "name": "D#4",
          "ticks": 205122,
          "time": 178.057113609375,
          "velocity": 0.44881889763779526
        },
        {
          "duration": 0.3281246718750026,
          "durationTicks": 378,
          "midi": 61,
          "name": "C#4",
          "ticks": 205122,
          "time": 178.057113609375,
          "velocity": 0.44881889763779526
        },
        {
          "duration": 0.11631932812500168,
          "durationTicks": 134,
          "midi": 62,
          "name": "D4",
          "ticks": 205500,
          "time": 178.38523828125,
          "velocity": 0.4566929133858268
        },
        {
          "duration": 1.0034712187500077,
          "durationTicks": 1156,
          "midi": 65,
          "name": "F4",
          "ticks": 205502,
          "time": 178.386974390625,
          "velocity": 0.4566929133858268
        },
        {
          "duration": 0.32986078124997675,
          "durationTicks": 380,
          "midi": 66,
          "name": "F#4",
          "ticks": 205634,
          "time": 178.501557609375,
          "velocity": 0.4566929133858268
        },
        {
          "duration": 0.3281246718750026,
          "durationTicks": 378,
          "midi": 63,
          "name": "D#4",
          "ticks": 205634,
          "time": 178.501557609375,
          "velocity": 0.4566929133858268
        },
        {
          "duration": 0.338541328125018,
          "durationTicks": 390,
          "midi": 63,
          "name": "D#4",
          "ticks": 206012,
          "time": 178.82968228125,
          "velocity": 0.4645669291338583
        },
        {
          "duration": 0.3368052187500439,
          "durationTicks": 388,
          "midi": 66,
          "name": "F#4",
          "ticks": 206014,
          "time": 178.83141839062498,
          "velocity": 0.4645669291338583
        },
        {
          "duration": 0.5503466718749621,
          "durationTicks": 634,
          "midi": 65,
          "name": "F4",
          "ticks": 206402,
          "time": 179.16822360937502,
          "velocity": 0.48031496062992124
        },
        {
          "duration": 0.22222199999998793,
          "durationTicks": 256,
          "midi": 68,
          "name": "G#4",
          "ticks": 206402,
          "time": 179.16822360937502,
          "velocity": 0.48031496062992124
        },
        {
          "duration": 5.111106000000007,
          "durationTicks": 5888,
          "midi": 65,
          "name": "F4",
          "ticks": 206658,
          "time": 179.390445609375,
          "velocity": 0.48031496062992124
        },
        {
          "duration": 0.3298607812500052,
          "durationTicks": 380,
          "midi": 68,
          "name": "G#4",
          "ticks": 206658,
          "time": 179.390445609375,
          "velocity": 0.48031496062992124
        },
        {
          "duration": 0.7829853281250223,
          "durationTicks": 902,
          "midi": 66,
          "name": "F#4",
          "ticks": 207036,
          "time": 179.71857028124998,
          "velocity": 0.49606299212598426
        },
        {
          "duration": 0.7812492187499913,
          "durationTicks": 900,
          "midi": 70,
          "name": "A#4",
          "ticks": 207038,
          "time": 179.720306390625,
          "velocity": 0.49606299212598426
        },
        {
          "duration": 0.4444440000000043,
          "durationTicks": 512,
          "midi": 70,
          "name": "A#4",
          "ticks": 208194,
          "time": 180.723777609375,
          "velocity": 0.44881889763779526
        },
        {
          "duration": 0.4444440000000043,
          "durationTicks": 512,
          "midi": 66,
          "name": "F#4",
          "ticks": 208194,
          "time": 180.723777609375,
          "velocity": 0.44881889763779526
        },
        {
          "duration": 0.8888880000000086,
          "durationTicks": 1024,
          "midi": 70,
          "name": "A#4",
          "ticks": 208706,
          "time": 181.168221609375,
          "velocity": 0.4566929133858268
        },
        {
          "duration": 0.8888880000000086,
          "durationTicks": 1024,
          "midi": 66,
          "name": "F#4",
          "ticks": 208706,
          "time": 181.168221609375,
          "velocity": 0.4566929133858268
        },
        {
          "duration": 0.4444440000000043,
          "durationTicks": 512,
          "midi": 66,
          "name": "F#4",
          "ticks": 209730,
          "time": 182.057109609375,
          "velocity": 0.48031496062992124
        },
        {
          "duration": 0.4444440000000043,
          "durationTicks": 512,
          "midi": 70,
          "name": "A#4",
          "ticks": 209730,
          "time": 182.057109609375,
          "velocity": 0.48031496062992124
        },
        {
          "duration": 0.8888879999999801,
          "durationTicks": 1024,
          "midi": 70,
          "name": "A#4",
          "ticks": 210242,
          "time": 182.501553609375,
          "velocity": 0.49606299212598426
        },
        {
          "duration": 0.8888879999999801,
          "durationTicks": 1024,
          "midi": 66,
          "name": "F#4",
          "ticks": 210242,
          "time": 182.501553609375,
          "velocity": 0.49606299212598426
        },
        {
          "duration": 0.4444440000000327,
          "durationTicks": 512,
          "midi": 70,
          "name": "A#4",
          "ticks": 211266,
          "time": 183.390441609375,
          "velocity": 0.44881889763779526
        },
        {
          "duration": 0.4444440000000327,
          "durationTicks": 512,
          "midi": 66,
          "name": "F#4",
          "ticks": 211266,
          "time": 183.390441609375,
          "velocity": 0.44881889763779526
        },
        {
          "duration": 1.3333319999999844,
          "durationTicks": 1536,
          "midi": 65,
          "name": "F4",
          "ticks": 211778,
          "time": 183.83488560937502,
          "velocity": 0.44881889763779526
        },
        {
          "duration": 0.6666659999999922,
          "durationTicks": 768,
          "midi": 70,
          "name": "A#4",
          "ticks": 211778,
          "time": 183.83488560937502,
          "velocity": 0.44881889763779526
        },
        {
          "duration": 0.6666659999999922,
          "durationTicks": 768,
          "midi": 70,
          "name": "A#4",
          "ticks": 212546,
          "time": 184.501551609375,
          "velocity": 0.4645669291338583
        },
        {
          "duration": 0.7213534453125021,
          "durationTicks": 831,
          "midi": 65,
          "name": "F4",
          "ticks": 212546,
          "time": 184.501551609375,
          "velocity": 0.4645669291338583
        },
        {
          "duration": 0.6666659999999922,
          "durationTicks": 768,
          "midi": 64,
          "name": "E4",
          "ticks": 213314,
          "time": 185.168217609375,
          "velocity": 0.47244094488188976
        },
        {
          "duration": 0.6666659999999922,
          "durationTicks": 768,
          "midi": 69,
          "name": "A4",
          "ticks": 213314,
          "time": 185.168217609375,
          "velocity": 0.47244094488188976
        },
        {
          "duration": 0.5503466718749905,
          "durationTicks": 634,
          "midi": 64,
          "name": "E4",
          "ticks": 214082,
          "time": 185.834883609375,
          "velocity": 0.48031496062992124
        },
        {
          "duration": 0.5520827812500215,
          "durationTicks": 636,
          "midi": 69,
          "name": "A4",
          "ticks": 214082,
          "time": 185.834883609375,
          "velocity": 0.48031496062992124
        },
        {
          "duration": 2.7829833281250274,
          "durationTicks": 3206,
          "midi": 63,
          "name": "D#4",
          "ticks": 214716,
          "time": 186.38523028125,
          "velocity": 0.49606299212598426
        },
        {
          "duration": 2.7812472187499964,
          "durationTicks": 3204,
          "midi": 68,
          "name": "G#4",
          "ticks": 214718,
          "time": 186.38696639062502,
          "velocity": 0.49606299212598426
        }
      ]
    },
    {
      "channel": 0,
      "controlChanges": {
        "0": [
          {
            "number": 0,
            "ticks": 616,
            "time": 0.5347216875,
            "value": 0
          }
        ],
        "6": [
          {
            "number": 6,
            "ticks": 1316,
            "time": 1.1423599687500001,
            "value": 0.015748031496062992
          },
          {
            "number": 6,
            "ticks": 1328,
            "time": 1.152776625,
            "value": 0.5039370078740157
          }
        ],
        "7": [
          {
            "number": 7,
            "ticks": 620,
            "time": 0.53819390625,
            "value": 0.7874015748031497
          }
        ],
        "10": [
          {
            "number": 10,
            "ticks": 624,
            "time": 0.541666125,
            "value": 0.5039370078740157
          }
        ],
        "11": [
          {
            "number": 11,
            "ticks": 628,
            "time": 0.54513834375,
            "value": 1
          }
        ],
        "32": [
          {
            "number": 32,
            "ticks": 616,
            "time": 0.5347216875,
            "value": 0
          }
        ],
        "91": [
          {
            "number": 91,
            "ticks": 632,
            "time": 0.5486105625,
            "value": 0.31496062992125984
          }
        ],
        "93": [
          {
            "number": 93,
            "ticks": 636,
            "time": 0.55208278125,
            "value": 0
          }
        ],
        "100": [
          {
            "number": 100,
            "ticks": 1312,
            "time": 1.1388877499999999,
            "value": 0
          },
          {
            "number": 100,
            "ticks": 1324,
            "time": 1.14930440625,
            "value": 0.015748031496062992
          },
          {
            "number": 100,
            "ticks": 1336,
            "time": 1.1597210624999998,
            "value": 1
          }
        ],
        "101": [
          {
            "number": 101,
            "ticks": 1308,
            "time": 1.13541553125,
            "value": 0
          },
          {
            "number": 101,
            "ticks": 1320,
            "time": 1.1458321875,
            "value": 0
          },
          {
            "number": 101,
            "ticks": 1332,
            "time": 1.15624884375,
            "value": 1
          }
        ],
        "121": [
          {
            "number": 121,
            "ticks": 236,
            "time": 0.20486090625,
            "value": 0
          }
        ]
      },
      "pitchBends": [],
      "instrument": {
        "family": "piano",
        "name": "acoustic grand piano",
        "number": 0
      },
      "name": "",
      "notes": []
    },
    {
      "channel": 0,
      "controlChanges": {
        "0": [
          {
            "number": 0,
            "ticks": 648,
            "time": 0.5624994375,
            "value": 0
          }
        ],
        "6": [
          {
            "number": 6,
            "ticks": 1348,
            "time": 1.17013771875,
            "value": 0.015748031496062992
          },
          {
            "number": 6,
            "ticks": 1360,
            "time": 1.1805543749999998,
            "value": 0.5039370078740157
          }
        ],
        "7": [
          {
            "number": 7,
            "ticks": 652,
            "time": 0.56597165625,
            "value": 0.7874015748031497
          }
        ],
        "10": [
          {
            "number": 10,
            "ticks": 656,
            "time": 0.5694438749999999,
            "value": 0.5039370078740157
          }
        ],
        "11": [
          {
            "number": 11,
            "ticks": 660,
            "time": 0.57291609375,
            "value": 1
          }
        ],
        "32": [
          {
            "number": 32,
            "ticks": 648,
            "time": 0.5624994375,
            "value": 0
          }
        ],
        "91": [
          {
            "number": 91,
            "ticks": 664,
            "time": 0.5763883125,
            "value": 0.31496062992125984
          }
        ],
        "93": [
          {
            "number": 93,
            "ticks": 668,
            "time": 0.5798605312499999,
            "value": 0
          }
        ],
        "100": [
          {
            "number": 100,
            "ticks": 1344,
            "time": 1.1666655,
            "value": 0
          },
          {
            "number": 100,
            "ticks": 1356,
            "time": 1.17708215625,
            "value": 0.015748031496062992
          },
          {
            "number": 100,
            "ticks": 1368,
            "time": 1.1874988125,
            "value": 1
          }
        ],
        "101": [
          {
            "number": 101,
            "ticks": 1340,
            "time": 1.16319328125,
            "value": 0
          },
          {
            "number": 101,
            "ticks": 1352,
            "time": 1.1736099375,
            "value": 0
          },
          {
            "number": 101,
            "ticks": 1364,
            "time": 1.18402659375,
            "value": 1
          }
        ],
        "121": [
          {
            "number": 121,
            "ticks": 240,
            "time": 0.208333125,
            "value": 0
          }
        ]
      },
      "pitchBends": [],
      "instrument": {
        "family": "piano",
        "name": "acoustic grand piano",
        "number": 0
      },
      "name": "",
      "notes": []
    },
    {
      "channel": 0,
      "controlChanges": {
        "0": [
          {
            "number": 0,
            "ticks": 680,
            "time": 0.5902771874999999,
            "value": 0
          }
        ],
        "6": [
          {
            "number": 6,
            "ticks": 1380,
            "time": 1.19791546875,
            "value": 0.015748031496062992
          },
          {
            "number": 6,
            "ticks": 1392,
            "time": 1.2083321249999999,
            "value": 0.5039370078740157
          }
        ],
        "7": [
          {
            "number": 7,
            "ticks": 684,
            "time": 0.59374940625,
            "value": 0.7874015748031497
          }
        ],
        "10": [
          {
            "number": 10,
            "ticks": 688,
            "time": 0.597221625,
            "value": 0.5039370078740157
          }
        ],
        "11": [
          {
            "number": 11,
            "ticks": 692,
            "time": 0.60069384375,
            "value": 1
          }
        ],
        "32": [
          {
            "number": 32,
            "ticks": 680,
            "time": 0.5902771874999999,
            "value": 0
          }
        ],
        "91": [
          {
            "number": 91,
            "ticks": 696,
            "time": 0.6041660624999999,
            "value": 0.31496062992125984
          }
        ],
        "93": [
          {
            "number": 93,
            "ticks": 700,
            "time": 0.60763828125,
            "value": 0
          }
        ],
        "100": [
          {
            "number": 100,
            "ticks": 1376,
            "time": 1.19444325,
            "value": 0
          },
          {
            "number": 100,
            "ticks": 1388,
            "time": 1.20485990625,
            "value": 0.015748031496062992
          },
          {
            "number": 100,
            "ticks": 1400,
            "time": 1.2152765625,
            "value": 1
          }
        ],
        "101": [
          {
            "number": 101,
            "ticks": 1372,
            "time": 1.19097103125,
            "value": 0
          },
          {
            "number": 101,
            "ticks": 1384,
            "time": 1.2013876875,
            "value": 0
          },
          {
            "number": 101,
            "ticks": 1396,
            "time": 1.21180434375,
            "value": 1
          }
        ],
        "121": [
          {
            "number": 121,
            "ticks": 244,
            "time": 0.21180534374999999,
            "value": 0
          }
        ]
      },
      "pitchBends": [],
      "instrument": {
        "family": "piano",
        "name": "acoustic grand piano",
        "number": 0
      },
      "name": "",
      "notes": []
    },
    {
      "channel": 0,
      "controlChanges": {
        "0": [
          {
            "number": 0,
            "ticks": 712,
            "time": 0.6180549375,
            "value": 0
          }
        ],
        "6": [
          {
            "number": 6,
            "ticks": 1412,
            "time": 1.22569321875,
            "value": 0.015748031496062992
          },
          {
            "number": 6,
            "ticks": 1424,
            "time": 1.236109875,
            "value": 0.5039370078740157
          }
        ],
        "7": [
          {
            "number": 7,
            "ticks": 716,
            "time": 0.62152715625,
            "value": 0.7874015748031497
          }
        ],
        "10": [
          {
            "number": 10,
            "ticks": 720,
            "time": 0.624999375,
            "value": 0.5039370078740157
          }
        ],
        "11": [
          {
            "number": 11,
            "ticks": 724,
            "time": 0.6284715937500001,
            "value": 1
          }
        ],
        "32": [
          {
            "number": 32,
            "ticks": 712,
            "time": 0.6180549375,
            "value": 0
          }
        ],
        "91": [
          {
            "number": 91,
            "ticks": 728,
            "time": 0.6319438125,
            "value": 0.31496062992125984
          }
        ],
        "93": [
          {
            "number": 93,
            "ticks": 732,
            "time": 0.63541603125,
            "value": 0
          }
        ],
        "100": [
          {
            "number": 100,
            "ticks": 1408,
            "time": 1.222221,
            "value": 0
          },
          {
            "number": 100,
            "ticks": 1420,
            "time": 1.2326376562499999,
            "value": 0.015748031496062992
          },
          {
            "number": 100,
            "ticks": 1432,
            "time": 1.2430543125,
            "value": 1
          }
        ],
        "101": [
          {
            "number": 101,
            "ticks": 1404,
            "time": 1.21874878125,
            "value": 0
          },
          {
            "number": 101,
            "ticks": 1416,
            "time": 1.2291654375,
            "value": 0
          },
          {
            "number": 101,
            "ticks": 1428,
            "time": 1.23958209375,
            "value": 1
          }
        ],
        "121": [
          {
            "number": 121,
            "ticks": 248,
            "time": 0.21527756250000002,
            "value": 0
          }
        ]
      },
      "pitchBends": [],
      "instrument": {
        "family": "piano",
        "name": "acoustic grand piano",
        "number": 0
      },
      "name": "",
      "notes": []
    },
    {
      "channel": 0,
      "controlChanges": {
        "0": [
          {
            "number": 0,
            "ticks": 744,
            "time": 0.6458326875,
            "value": 0
          }
        ],
        "6": [
          {
            "number": 6,
            "ticks": 1444,
            "time": 1.2534709687499999,
            "value": 0.015748031496062992
          },
          {
            "number": 6,
            "ticks": 1456,
            "time": 1.263887625,
            "value": 0.5039370078740157
          }
        ],
        "7": [
          {
            "number": 7,
            "ticks": 748,
            "time": 0.64930490625,
            "value": 0.7874015748031497
          }
        ],
        "10": [
          {
            "number": 10,
            "ticks": 752,
            "time": 0.652777125,
            "value": 0.5039370078740157
          }
        ],
        "11": [
          {
            "number": 11,
            "ticks": 756,
            "time": 0.65624934375,
            "value": 1
          }
        ],
        "32": [
          {
            "number": 32,
            "ticks": 744,
            "time": 0.6458326875,
            "value": 0
          }
        ],
        "91": [
          {
            "number": 91,
            "ticks": 760,
            "time": 0.6597215625,
            "value": 0.31496062992125984
          }
        ],
        "93": [
          {
            "number": 93,
            "ticks": 764,
            "time": 0.66319378125,
            "value": 0
          }
        ],
        "100": [
          {
            "number": 100,
            "ticks": 1440,
            "time": 1.24999875,
            "value": 0
          },
          {
            "number": 100,
            "ticks": 1452,
            "time": 1.26041540625,
            "value": 0.015748031496062992
          }
        ],
        "101": [
          {
            "number": 101,
            "ticks": 1436,
            "time": 1.24652653125,
            "value": 0
          },
          {
            "number": 101,
            "ticks": 1448,
            "time": 1.2569431875000001,
            "value": 0
          },
          {
            "number": 101,
            "ticks": 1460,
            "time": 1.26735984375,
            "value": 1
          }
        ],
        "121": [
          {
            "number": 121,
            "ticks": 252,
            "time": 0.21874978125,
            "value": 0
          }
        ]
      },
      "pitchBends": [],
      "instrument": {
        "family": "piano",
        "name": "acoustic grand piano",
        "number": 0
      },
      "name": "",
      "notes": []
    }
  ]
}